<svg xmlns="http://www.w3.org/2000/svg" viewBox="0 0 500 500"><g id="freepik--Character--inject-65"><rect x="210.32" y="408.46" width="53.65" height="3.31" style="fill:#c7c7c7"></rect><polygon points="259.5 293.34 259.78 309.02 261.6 408.46 261.65 411.77 262.45 455.42 265.49 455.42 266.29 411.77 266.35 408.46 268.16 309.02 268.44 293.34 259.5 293.34" style="fill:#c7c7c7"></polygon><polygon points="268.44 293.34 259.5 293.34 259.78 309.02 268.16 309.02 268.44 293.34" style="fill:#a6a6a6"></polygon><polygon points="205.85 293.34 206.14 309.02 208.81 455.42 211.84 455.42 212.64 411.77 212.7 408.46 214.51 309.02 214.8 293.34 205.85 293.34" style="fill:#c7c7c7"></polygon><polygon points="205.85 293.34 206.14 309.02 214.51 309.02 214.8 293.34 205.85 293.34" style="fill:#a6a6a6"></polygon><rect x="238.1" y="408.46" width="52.67" height="3.31" style="fill:#c7c7c7"></rect><polygon points="286.3 293.34 286.58 309.02 288.39 408.46 288.45 411.77 289.25 455.42 292.29 455.42 294.96 309.02 295.24 293.34 286.3 293.34" style="fill:#c7c7c7"></polygon><polygon points="295.24 293.34 286.3 293.34 286.58 309.02 294.96 309.02 295.24 293.34" style="fill:#a6a6a6"></polygon><polygon points="233.63 293.34 233.91 309.02 235.72 408.46 235.78 411.77 236.58 455.42 239.62 455.42 240.41 411.77 240.47 408.46 242.29 309.02 242.57 293.34 233.63 293.34" style="fill:#c7c7c7"></polygon><polygon points="242.57 293.34 233.63 293.34 233.91 309.02 242.29 309.02 242.57 293.34" style="fill:#a6a6a6"></polygon><rect x="201.2" y="274.01" width="97.6" height="20.22" style="fill:#0EA2BD"></rect><rect x="221.58" y="274.01" width="77.22" height="20.22" style="fill:#263238;opacity:0.1"></rect><path d="M351.38,300c-.75-2.28-41.07-55.55-43.82-56.57-.32-.14-18.34,12.69-18.34,12.69-.74,1-35-6.25-35-6.25l-.34,41.32,62.4-1.32s8.43,4.95,16.14,9c0,0,0,0,0,0a92.16,92.16,0,0,0,10.14,4.92C345.71,304.56,352.15,302.24,351.38,300Z" style="fill: rgb(235, 148, 129);"></path><path d="M342.59,303.76a90.24,90.24,0,0,1-10.14-4.92s0,0,0,0c-7.7-4-16.13-9-16.13-9l-13.89.3-21.74-35.08c4.77.84,8.33,1.35,8.57,1,0,0,18-12.82,18.33-12.68,2.75,1,43.06,54.29,43.82,56.56S345.71,304.57,342.59,303.76Z" style="fill:#fff"></path><path d="M351.75,300.05c-.79-2.34-41.29-55.57-44.12-56.63-1.07-.4-9.88,5-18.41,12.68l26.15,34.29s24.13,12.78,27.35,13.6S352.54,302.38,351.75,300.05Z" style="fill:#0EA2BD"></path><path d="M349,300.9c-7-8.75-34.45-44.74-40.71-53.93-.05-.07,0-.11.06,0,7.13,8.53,34.28,44.73,40.8,53.86C349.32,301,349.19,301.09,349,300.9Z" style="fill:#263238"></path><path d="M338.2,302a9,9,0,0,1-1.88-7,8.72,8.72,0,0,1,3.25-5.62c.05,0,.13.06.08.11a10.41,10.41,0,0,0-1.33,12.42C338.37,302,338.26,302.09,338.2,302Z" style="fill:#263238"></path><path d="M318.4,292.51c-2.77-3.54-4.66-8.64-3.43-13.08,0-.17.3-.1.32.05a62.33,62.33,0,0,0,3.59,12.75A.28.28,0,0,1,318.4,292.51Z" style="fill:#263238"></path><path d="M321.57,294.45c-2.77-3.54-4.66-8.64-3.42-13.08,0-.17.29-.1.31.05a62.35,62.35,0,0,0,3.6,12.75A.29.29,0,0,1,321.57,294.45Z" style="fill:#263238"></path><path d="M324.74,296.39c-2.76-3.54-4.65-8.64-3.42-13.08.05-.17.29-.1.32,0a61.61,61.61,0,0,0,3.59,12.76A.29.29,0,0,1,324.74,296.39Z" style="fill:#263238"></path><path d="M327.92,298.32c-2.77-3.53-4.66-8.63-3.43-13.07.05-.17.29-.1.32,0a62.24,62.24,0,0,0,3.59,12.76A.28.28,0,0,1,327.92,298.32Z" style="fill:#263238"></path><path d="M301.58,255.69c-3-4,3.2-8.74,6.25-4.72S304.63,259.72,301.58,255.69Z" style="fill:#263238"></path><path d="M316.82,299.35c1-3.82.35-8,.18-11.83a.55.55,0,0,0-.78-.42.12.12,0,0,0-.19,0,23.65,23.65,0,0,0-6.66,10.2c-.71,2.3-.44,5.69,2.43,6.36C314.52,304.25,316.23,301.58,316.82,299.35ZM314,301.76c-4.16,2.61-3.84-3.17-3.25-4.84a25.34,25.34,0,0,1,1.42-3.14,68.36,68.36,0,0,1,3.76-6c0,1.91.1,3.81.14,5.72C316.11,295.74,316.28,300.33,314,301.76Z" style="fill:#263238"></path><path d="M304.11,276.11c-2.12,2.06-.6,5.1,1.19,6.71a23.53,23.53,0,0,0,11,5.29.11.11,0,0,0,.14-.12.55.55,0,0,0,.45-.76c-1.85-3.42-3.41-7.3-6.25-10.05C309,275.58,306.11,274.17,304.11,276.11Zm8.88,6.51c.95,1.66,1.82,3.35,2.83,5-2.14-1-4.31-2-6.34-3.24a25,25,0,0,1-2.83-2c-1.37-1.13-4.62-5.91.28-5.83C309.64,276.62,311.86,280.64,313,282.62Z" style="fill:#263238"></path><path d="M252.34,237.18h-28s-29.3-14.09-52.9-8.41c-27.05,6.5-30.51,40.48-10.29,52.5,25.62,15.22,139.63,12.27,139.63,12.27l-24.65-41.77s-37.91-8-72.29-6.82l48.51,6.61Z" style="fill:#455a64"></path><path d="M277.77,254.46a1.29,1.29,0,0,1-.06-.21.85.85,0,0,0,0-.17c0-.14-.07-.27-.11-.41a6.62,6.62,0,0,0-.28-.82c-.11-.27-.22-.53-.35-.79a7,7,0,0,0-.46-.74l-.07,0a.08.08,0,0,0,0,0l-.06,0-.06,0c-4.17-.77-32.5-4.83-36.72-5.31s-8.5-.88-12.76-1.23a250.85,250.85,0,0,0-25.57-.92c-.8,0-1.6,0-2.39.07a5.11,5.11,0,0,0-.53-.13c-.41-.1-.82-.2-1.23-.28-.77-.15-1.54-.26-2.32-.38-1.61-.24-3.23-.41-4.83-.72a.08.08,0,0,0,0,.16c1.61.35,3.2.82,4.81,1.17l1.4.3c-3.13.16-6.25.4-9.37.69-.1,0-.1.16,0,.15,4.25-.25,8.53-.28,12.78-.21s8.44.17,12.66.41c8.53.49,17.05,1.25,25.55,2.14,4.77.5,33.65,4.72,38.44,4.92h.06a3.05,3.05,0,0,0,.13.32l.41.78c.14.24.27.48.43.72l.23.35.12.17c0,.05.11.12.13.18S277.82,254.56,277.77,254.46Z" style="fill:#263238"></path><path d="M291.88,291c-1.52-2.44-2.83-5-4.22-7.56s-2.8-5.05-4.21-7.57c-2.8-5-12.87-22-13.86-23.14-.07-.07-.2,0-.16.1.47,1.31,6.75,12.51,8.2,15,2.89,5,5.93,9.9,8.92,14.83.86,1.41,1.75,2.8,2.61,4.2s1.79,2.78,2.59,4.22A.08.08,0,0,0,291.88,291Z" style="fill:#263238"></path><path d="M269.3,256.94c-2.52-.6-5.09-1-7.63-1.48L254,254q-7.65-1.42-15.32-2.72c-10.2-1.71-20.45-3.14-30.75-4.13-5.81-.55-11.64-.92-17.46-1.35-.13,0-.12.19,0,.19,10.38.47,20.73,1.88,31,3.35s20.32,3.07,30.45,4.78q4.29.72,8.58,1.47c2.9.5,5.81,1.12,8.73,1.49A.09.09,0,0,0,269.3,256.94Z" style="fill:#263238"></path><path d="M298.28,435.91c-2.46-.25-63.54-27.7-65.2-30.22-.64-.95,2.84-10.08,7.36-21,1-2.36,2-4.78,3-7.24,6.81-16,14.4-32.77,14.4-32.77l40.91,18.25L283.27,395.2l-3.41,7.08s18.69,21,20.22,23.93S300.73,436.15,298.28,435.91Z" style="fill: rgb(235, 148, 129);"></path><path d="M298.28,435.91c-2.46-.25-63.54-27.7-65.2-30.22-.77-1.16,4.52-14.4,10.4-28.23l39.79,17.74-3.41,7.08s18.69,21,20.22,23.93S300.73,436.15,298.28,435.91Z" style="fill:#fff"></path><path d="M298.28,435.91c-2.46-.25-63.54-27.7-65.2-30.22-.64-.95,2.84-10.08,7.36-21l39.42,17.58s18.69,21,20.22,23.93S300.73,436.15,298.28,435.91Z" style="fill:#0EA2BD"></path><path d="M298.5,433.07c-10.13-4.85-51.42-23.47-61.8-27.5-.09,0-.11,0,0,.06,9.93,5,51.38,23.32,61.75,27.61C298.64,433.33,298.71,433.17,298.5,433.07Z" style="fill:#263238"></path><path d="M297.14,422.25a9,9,0,0,0-7.25-.25,8.7,8.7,0,0,0-4.74,4.44c0,.06.08.11.12.05a10.43,10.43,0,0,1,11.81-4.11A.07.07,0,0,0,297.14,422.25Z" style="fill:#263238"></path><path d="M283.38,405.09c-4.07-1.9-9.47-2.59-13.53-.38-.15.08,0,.3.12.3a61.89,61.89,0,0,1,13.25.61A.28.28,0,0,0,283.38,405.09Z" style="fill:#263238"></path><path d="M286,407.74c-4.07-1.9-9.48-2.58-13.53-.38-.16.09,0,.31.12.3a62.54,62.54,0,0,1,13.25.62A.29.29,0,0,0,286,407.74Z" style="fill:#263238"></path><path d="M288.6,410.4c-4.08-1.9-9.48-2.59-13.53-.38-.16.08,0,.31.12.3a61.89,61.89,0,0,1,13.25.61A.28.28,0,0,0,288.6,410.4Z" style="fill:#263238"></path><path d="M291.21,413.05c-4.08-1.9-9.48-2.58-13.53-.38-.16.09,0,.31.12.3a62.54,62.54,0,0,1,13.25.62A.29.29,0,0,0,291.21,413.05Z" style="fill:#263238"></path><path d="M243.68,397c-4.61-2.06-7.81,5.1-3.19,7.15S248.29,399.07,243.68,397Z" style="fill:#263238"></path><path d="M292.72,396.14c-1.3-2.65-4.67-2.14-6.75-.93a23.5,23.5,0,0,0-8.43,8.8.12.12,0,0,0,.07.18c0,.33.19.73.59.66,3.82-.71,8-1,11.5-2.85C291.73,400.92,294,398.65,292.72,396.14Zm-8.94,6.45c-1.87.4-3.75.7-5.61,1.16,1.65-1.71,3.22-3.49,5-5a26.75,26.75,0,0,1,2.74-2.09c1.5-.95,7.06-2.57,5.46,2.07C290.53,401.25,286,402.12,283.78,402.59Z" style="fill:#263238"></path><path d="M266.67,401c3.32,2.15,7.46,2.79,11.21,3.82.39.11.66-.27.64-.61a.11.11,0,0,0,.09-.17,23.49,23.49,0,0,0-7.64-9.49c-2-1.39-5.29-2.18-6.81.35S264.73,399.7,266.67,401Zm-1.42-3.45c-1.2-4.76,4.21-2.67,5.62-1.59a24.37,24.37,0,0,1,2.55,2.32c1.68,1.69,3.09,3.6,4.59,5.44-1.81-.62-3.66-1.08-5.49-1.63C270.33,401.39,265.9,400.14,265.25,397.51Z" style="fill:#263238"></path><path d="M244.42,373.71l46,20.8s54.76-105.11,56.19-137.28c1.22-27.39-17.84-38-79.47-20.24l-15.09.19v10.41c6.62.88,24.3,3.65,24.3,3.65,12.86,4.86,17,6.86,16.8,7.28C261.08,323.29,244.42,373.71,244.42,373.71Z" style="fill:#455a64"></path><path d="M300.7,247c-1.86,2.47-3.58,5.05-5.22,7.68a110.61,110.61,0,0,0-31.35-8.26c-3-.38-6.07-.64-9.12-.82-.13,0-.12.19,0,.2a137.5,137.5,0,0,1,31.9,6.07c2.87.88,5.68,1.91,8.5,2.91-2,3.16-3.83,6.4-5.62,9.66a191.4,191.4,0,0,0-9,18.78c-1.48,3.55-2.92,7.13-4.19,10.76,0,.11.14.17.18.07q8.43-18.79,18.41-36.79c1.88-3.39,3.84-6.73,5.67-10.14C300.91,247,300.77,246.87,300.7,247Z" style="fill:#263238"></path><path d="M291.43,383.39c-2.68-1-5.28-2.35-7.91-3.53l-7.9-3.55c-5.26-2.36-23.45-9.89-25-10.25-.09,0-.14.13-.06.18,1.16.76,12.9,6,15.55,7.12,5.31,2.27,10.67,4.38,16,6.54,1.53.62,3.07,1.2,4.61,1.8s3.09,1.16,4.59,1.83A.08.08,0,0,0,291.43,383.39Z" style="fill:#263238"></path><path d="M300.47,251.72c-3.63,6.9-6.72,14.11-9.87,21.24s-6.2,14.23-9.16,21.41q-8.87,21.44-16.5,43.33c-2.89,8.26-5.6,16.58-8.23,24.92,0,.12.15.16.19.05,4.87-14.75,10.15-29.37,15.67-43.89s11.34-28.85,17.52-43.06q2.61-6,5.29-11.94c1.8-4,3.66-7.91,5.34-11.93C300.79,251.69,300.56,251.55,300.47,251.72Z" style="fill:#263238"></path><path d="M260.41,172c10.15,19.1,32,43.48,40.56,43.17,4.06-.15,11.35.46,16.45-4.46C328.54,200,335.64,183,339.61,170.45c1.22-3.84-23.38-13.93-25.33-10.09-5.11,10.09-10.75,23.25-11.94,23.22-4.38-.12-22.15-13.49-34.56-22.92C252.71,149.22,256.37,164.39,260.41,172Z" style="fill: rgb(235, 148, 129);"></path><path d="M336.79,177c-2.47,2.38-23.25-6.51-24.14-9.92a13.74,13.74,0,0,1-.11-3.53h0A50.05,50.05,0,0,0,306,150.53c-3.5-4.66-9.22-11.19-6.78-13.17,3.55-2.88,11.78,4.5,16.25,9,.95-3.32,2.08-6.1,3.33-7.47,4.16-4.56,26.87,11.41,26.47,17.67C344.9,162.63,339.27,174.66,336.79,177Z" style="fill: rgb(235, 148, 129);"></path><path d="M313.82,147.22c1.48,2.85,4-.52,4-.52s-2.44,5.72.22,8.06,5.45-1.93,5.67-2.22c-.13.3-2.23,5.62.68,7.7s5.21-2.54,5.34-2.84c0,.33-.34,4.62,2.23,5.7,4.43,1.84,5.53-9.11,8.64-11.44,0,0,4.54,4.81,4.7,4.92,0,0,1.27-10.4-2.1-14.42a3.35,3.35,0,0,0-4.1-.87s.78-3.31-1.47-5c-1.15-.88-3.58.19-3.58.19a4.18,4.18,0,0,0-1.57-4.07c-1.67-1.12-3.84.12-3.84.12s-.7-2.8-2.77-3.39C321.67,127.92,310.66,141.13,313.82,147.22Z" style="fill: rgb(235, 148, 129);"></path><path d="M328.25,132.66s0-.11-.06-.07a29.81,29.81,0,0,0-10.54,14.27c-.06.19.21.36.31.17A61,61,0,0,1,328.25,132.66Z" style="fill:#263238"></path><path d="M334.06,136.37c.05-.05,0-.12-.09-.08a28,28,0,0,0-10.53,16.29c0,.23.15.48.22.22C324.85,148.42,330.15,140.32,334.06,136.37Z" style="fill:#263238"></path><path d="M329.79,157.9c1.48-6.35,4.85-11.59,9.08-16.48.05-.06,0-.13-.1-.09-2.72,1.82-5.1,5.22-6.72,8a17.22,17.22,0,0,0-2.49,8.51C329.56,158,329.75,158,329.79,157.9Z" style="fill:#263238"></path><path d="M317.7,146.73c-.07.22.33.08.26.3-.26.94-1.36,6.69.48,7.68,1.48.78,3.56-.66,4.15-1.53l1.46-2.18-.62,2.56a10.69,10.69,0,0,0-.28,3.47,3.82,3.82,0,0,0,1.35,2.84,2.21,2.21,0,0,0,2.77,0,6.68,6.68,0,0,0,2-2.7l1.24-2.85-.24,3.09a10.16,10.16,0,0,0,.13,2.58,4.2,4.2,0,0,0,1,2.18,2,2,0,0,0,2,.51,4.42,4.42,0,0,0,1.82-1.64,34.42,34.42,0,0,0,2.52-4.78c.39-.82.78-1.65,1.22-2.46a6.53,6.53,0,0,1,1.64-2.18,7,7,0,0,0-1.42,2.29c-.36.83-.69,1.68-1,2.53a30,30,0,0,1-2.33,5,5.19,5.19,0,0,1-2.11,2,2.81,2.81,0,0,1-3-.64,5.07,5.07,0,0,1-1.32-2.68,11,11,0,0,1-.18-2.87l1,.24a7.59,7.59,0,0,1-2.29,3.2,3.12,3.12,0,0,1-2.05.67,3.53,3.53,0,0,1-2-.75,4.87,4.87,0,0,1-1.72-3.59,11.88,11.88,0,0,1,.38-3.81l.85.37c-.78,1.08-2.93,2.95-5.38,2C315,154,317.21,147.83,317.7,146.73Z" style="fill:#263238"></path><path d="M317.8,146.7a6.63,6.63,0,0,1-1.64,1.08,1.47,1.47,0,0,1-1.5-.11,3,3,0,0,1-.88-1.48c-.19-.62-.36-1.28-.51-2a5.15,5.15,0,0,0-.18,2.11,3,3,0,0,0,1,2,2.18,2.18,0,0,0,1.22.39,2.31,2.31,0,0,0,1.15-.38A3.44,3.44,0,0,0,317.8,146.7Z" style="fill:#263238"></path><path d="M339.31,176.93S325,208.9,316,213s-14.54,3.52-18,3.18a9.21,9.21,0,0,1-3.7-1.57c-9.58-6.16-27.3-28.72-34.67-41.53-5.53-9.64-5.4-18.6,2.39-16.1a25.53,25.53,0,0,1,7.28,4.17c14.65,11.1,31.53,21.53,32.28,21.09s8.23-13.65,8.23-13.65Z" style="fill:#263238"></path><path d="M294.34,214.57c-9.58-6.16-27.3-28.72-34.67-41.53-5.53-9.64-5.4-18.6,2.39-16.1C266.35,164.51,285.07,197.63,294.34,214.57Z" style="fill:#37474f"></path><path d="M335.68,182.8c-1.08-.53-11.17-3.9-13.38-4.58s-11.22-3.58-13.55-4.1a.08.08,0,0,0-.05.16c2.19.94,11.26,3.88,13.5,4.63s12.29,3.86,13.44,4.05C335.74,183,335.75,182.84,335.68,182.8Z" style="fill:#37474f"></path><path d="M212.59,236.89c.13.18,65.93,1.57,66.6,1,.93-.89-5.16-62.8-14.69-78.11-2.38-3.83-13.6-6.67-18.62-1.47C226.46,178.37,212.09,236.21,212.59,236.89Z" style="fill:#0EA2BD"></path><path d="M279.27,236.64l-66.47-1.19c.07-.33.15-.7.25-1.13l66.19,1.19C279.26,236,279.28,236.32,279.27,236.64Zm-.25-4.72-65.12-1.16c-.1.39-.19.77-.27,1.12l65.47,1.17C279.08,232.69,279.05,232.32,279,231.92Zm-.31-3.59-63.87-1.14-.3,1.13,64.27,1.15C278.78,229.1,278.75,228.72,278.71,228.33Zm-.35-3.58-62.53-1.12c-.11.38-.21.76-.32,1.12l63,1.13C278.44,225.51,278.4,225.13,278.36,224.75Zm-.38-3.59-61.11-1.1c-.12.38-.23.75-.33,1.12l61.56,1.11Zm-.42-3.6-59.62-1.06c-.11.38-.23.75-.34,1.12l60.09,1.07C277.65,218.32,277.6,217.94,277.56,217.56Zm-.45-3.59-58-1-.36,1.13,58.54,1C277.21,214.73,277.16,214.35,277.11,214Zm-.47-3.59-56.41-1c-.13.38-.25.76-.37,1.13l56.94,1C276.74,211.14,276.69,210.76,276.64,210.38Zm-.5-3.59-54.7-1c-.13.38-.26.75-.38,1.13l55.24,1C276.25,207.54,276.2,207.17,276.14,206.79Zm-.52-3.6-52.93-.94c-.13.38-.27.75-.4,1.12l53.5.95C275.73,203.94,275.67,203.57,275.62,203.19Zm-.56-3.59L224,198.69l-.42,1.12,51.65.92C275.18,200.35,275.12,200,275.06,199.6Zm-.59-3.59-49.11-.88c-.15.37-.29.75-.43,1.12l49.73.89C274.6,196.76,274.54,196.39,274.47,196Zm-.62-3.59-47.08-.84-.45,1.12,47.72.85C274,193.17,273.92,192.79,273.85,192.42Zm-.67-3.6L228.26,188l-.48,1.12,45.62.82C273.33,189.57,273.26,189.2,273.18,188.82Zm-.7-3.6-42.66-.76c-.17.37-.34.74-.5,1.12l43.38.77C272.63,186,272.55,185.59,272.48,185.22Zm-.77-3.6-40.24-.71c-.19.37-.36.74-.53,1.12l41,.73C271.88,182.37,271.8,182,271.71,181.62Zm-.82-3.59-37.68-.67-.57,1.12,38.51.68C271.07,178.78,271,178.41,270.89,178Zm-.91-3.6-34.91-.62-.6,1.12,35.81.64C270.18,175.19,270.09,174.81,270,174.43Zm-1-3.61-31.89-.57c-.22.37-.44.74-.65,1.12l32.87.59Zm-1.15-3.6-28.53-.51c-.25.37-.49.74-.72,1.12l29.63.53C268.08,168,268,167.59,267.83,167.22Zm-1.37-3.61-24.7-.44c-.28.37-.55.74-.81,1.12l26,.46C266.77,164.36,266.61,164,266.46,163.61Zm-1.8-3.61-20.05-.36c-.32.36-.64.74-1,1.12l21.64.38C265.09,160.74,264.88,160.36,264.66,160Zm-5.46-3.69-9.93-.17a8.94,8.94,0,0,0-2.16,1.09l14.81.26A14.11,14.11,0,0,0,259.2,156.31Z" style="opacity:0.1"></path><path d="M236.93,162.63c-28.16,21.32-52.47,50.85-50.1,60.17,2.52,9.85,22.08,20.81,39.32,23,3.53.45,14.36-25.48,10.74-26.65-2.82-.92-15.64-4.52-17.18-6.27-1.07-1.21,18.71-29.25,25.13-43.87C251.55,153.7,244.47,156.92,236.93,162.63Z" style="fill: rgb(235, 148, 129);"></path><path d="M282.13,232.39,249.52,243.8a1.2,1.2,0,0,0-.88,1.9l9.52,14.42a2.78,2.78,0,0,0,2.81,1l32.61-11.41a1.2,1.2,0,0,0,.88-1.9l-9.53-14.42A2.76,2.76,0,0,0,282.13,232.39Z" style="fill:#c7c7c7"></path><path d="M283.27,234.09,250.66,245.5a1.2,1.2,0,0,0-.88,1.9l9.53,14.43a2.81,2.81,0,0,0,2.8,1l32.61-11.42a1.2,1.2,0,0,0,.88-1.9l-9.52-14.42A2.78,2.78,0,0,0,283.27,234.09Z" style="fill:#ebebeb"></path><path d="M284.6,238.89a1.47,1.47,0,1,1,.47-2A1.46,1.46,0,0,1,284.6,238.89Z" style="fill:#263238"></path><path d="M232.8,217.83S244,218.91,251.3,220c4.07.59,11,2.22,13.75,4,4.18,2.69,19.92,16.62,16.63,20.51-3,3.52-7.53-2-7.53-2s5.53,5.59,1.5,8.17-9.28-5.18-9.28-5.18,6.29,5.53,1.72,7.87c-4,2-10.94-6.28-10.94-6.28s7.23,5.08,3.37,7.56c-4.26,2.75-16.29-8.42-16.29-8.42-9.58,1.11-15.48.48-22.25-1.4C220.74,244.46,232.8,217.83,232.8,217.83Z" style="fill: rgb(235, 148, 129);"></path><path d="M268.06,247.34c-.43-.6-.88-1.18-1.32-1.78a37.55,37.55,0,0,0-2.69-3.35c-1-1-2-2-3-2.94s-2.28-1.9-3.34-2.92a.08.08,0,1,0-.11.12,39.4,39.4,0,0,1,3,3.19c1,1.06,1.9,2.13,2.85,3.21s1.91,2,2.86,3c.48.51.93,1,1.38,1.57A12.55,12.55,0,0,0,269,249c.05,0,.12,0,.09-.08A8.2,8.2,0,0,0,268.06,247.34Z" style="fill:#263238"></path><path d="M275.28,243.67a57.49,57.49,0,0,0-4.86-6.34,39.19,39.19,0,0,0-5.93-5.36c-.07-.06-.17.05-.11.12,1.79,2,3.61,3.95,5.43,5.91.89,1,4.79,5.43,5.26,5.85C275.18,244,275.34,243.79,275.28,243.67Z" style="fill:#263238"></path><path d="M261.37,251a57.57,57.57,0,0,0-4.68-5.87,50.39,50.39,0,0,0-6-4.75c-.08-.05-.18,0-.11.12,1.88,1.73,3.79,3.42,5.59,5.24.87.89,4.16,4.62,5.07,5.4C261.29,251.17,261.42,251.05,261.37,251Z" style="fill:#263238"></path><path d="M238.08,218.08l-15.26,28.75s-34-9.19-36.79-24.6,36.32-50.58,48.39-58.89,19.41-9.38,9.82,9.63S219.85,211.5,221,212.48C222.05,213.31,238.08,218.08,238.08,218.08Z" style="fill:#263238"></path><path d="M218,242.8c.73-1,6-10.2,7.1-12.23s5.68-10.31,6.65-12.5a.09.09,0,0,0-.15-.08c-1.35,2-6,10.3-7.16,12.35s-6.18,11.31-6.59,12.4C217.84,242.83,218,242.86,218,242.8Z" style="fill:#37474f"></path><path d="M238.26,218s-.54.9-.71,1.17c0,0-.1.13,0,0s.49-1,.49-1c-4.59-1.08-9.17-2.27-13.69-3.7-.56-.18-1.13-.37-1.7-.59a8.36,8.36,0,0,1-1.72-.83.46.46,0,0,1-.13-.12.84.84,0,0,1-.16-.27,1.17,1.17,0,0,1,0-.5c.06-.15.12-.32.19-.46s.26-.56.39-.82c.27-.54.56-1.06.84-1.58,1.15-2.09,2.34-4.14,3.56-6.18,2.48-4.05,4.94-8.1,7.5-12.08,2.42-3.77,4.94-8,7.48-11.73.15-.22.53-.42.08.39-2.34,4.13-4.45,7.69-6.87,11.76l-7.28,12.2c-1.21,2-2.44,4.06-3.6,6.11-.29.52-.59,1-.86,1.55-.14.26-.26.51-.39.77l-.11.29a.2.2,0,0,1-.07-.06h0a.19.19,0,0,1,0,.08s0,.09,0,.06l0-.07A12.16,12.16,0,0,0,223,213l1.65.62c2.21.81,4.46,1.55,6.73,2.25Z" style="fill:#263238"></path><path d="M221.56,212.34l0,.07s0,0,0-.06a.19.19,0,0,0,0-.08h0A.2.2,0,0,0,221.56,212.34Z" style="fill:#263238"></path><path d="M253.88,153.55c-9,1-6.82,7.31-2.73,11.3s9,5.48,12.2,4.49,3.28-6.81,2.47-10.08C265.21,156.75,261.27,152.73,253.88,153.55Z" style="fill:#263238"></path><path d="M261.74,167.65c-2.77.52-9.3-3.87-12.18-7.93-.19-.28-.1-3.48-.17-7.36-.06-2.36-.17-5-.45-7.37l15.39,1.9a38.25,38.25,0,0,0-.38,9.33,5.52,5.52,0,0,0,.22,1s0,.1,0,.16C264.73,159.17,266.08,166.83,261.74,167.65Z" style="fill: rgb(235, 148, 129);"></path><path d="M264.16,157.19l0,.16a9.31,9.31,0,0,1-1.54.26c-8.69.81-12.09-9.61-12.86-12.5l14.52,1.78a38.25,38.25,0,0,0-.38,9.33A6.61,6.61,0,0,0,264.16,157.19Z" style="fill:#263238"></path><path d="M246.67,127.43c-1.46,5.39,1.88,20.72,5.79,24,5.67,4.8,14.7,5,18.72-1.78,3.89-6.55-.81-26.46-5.15-29.44C259.63,115.85,248.81,119.46,246.67,127.43Z" style="fill: rgb(235, 148, 129);"></path><path d="M259.17,136.39s-.07.07-.06.11c.3,1,.47,2.23-.37,2.81,0,0,0,.07,0,.05C259.85,138.91,259.61,137.31,259.17,136.39Z" style="fill:#263238"></path><path d="M258,135.56c-1.68.3-1,3.63.6,3.36S259.38,135.31,258,135.56Z" style="fill:#263238"></path><path d="M265.4,134.9s.09,0,.1.07c.19,1,.59,2.2,1.6,2.34,0,0,0,.06,0,.06C265.92,137.46,265.42,135.92,265.4,134.9Z" style="fill:#263238"></path><path d="M266.09,133.62c1.63-.49,2.49,2.82,1,3.27S264.72,134,266.09,133.62Z" style="fill:#263238"></path><path d="M256.33,134.32a13.06,13.06,0,0,0,1.19-.73c.46-.29.85-.47,1.08-1a.72.72,0,0,0-.3-.82,1.76,1.76,0,0,0-1.8.2,2.6,2.6,0,0,0-1.24,1.43A.77.77,0,0,0,256.33,134.32Z" style="fill:#263238"></path><path d="M267,130.19a10.93,10.93,0,0,1-1.4-.06,2.25,2.25,0,0,1-1.42-.32.71.71,0,0,1-.14-.87,1.76,1.76,0,0,1,1.67-.71,2.64,2.64,0,0,1,1.78.64A.77.77,0,0,1,267,130.19Z" style="fill:#263238"></path><path d="M260.84,146.77c.3.19.62.47,1,.42a2.75,2.75,0,0,0,1.05-.5,0,0,0,0,1,.06,0,1.41,1.41,0,0,1-1.19.85,1.14,1.14,0,0,1-1-.74C260.72,146.78,260.8,146.75,260.84,146.77Z" style="fill:#263238"></path><path d="M261.19,142.88a3.63,3.63,0,0,0,2.69,1.06,4.71,4.71,0,0,0,1.28-.22l.23-.08.22-.08a.28.28,0,0,0,.16-.28h0a.3.3,0,0,0,0-.1h0l0-.09c-.15-.8-.49-2-.49-2,.32.08,1.95.43,1.83,0a53.59,53.59,0,0,0-3.67-10.35.1.1,0,0,0-.18.07c.78,3.29,2.14,6.43,3,9.73a6.55,6.55,0,0,0-1.77-.14c-.11.06.69,2.29.73,2.66,0,0,0,0,0,0a5,5,0,0,1-3.88-.34C261.18,142.72,261.11,142.81,261.19,142.88Z" style="fill:#263238"></path><path d="M264.6,143.42a4.26,4.26,0,0,1-1.39,1.65,1.89,1.89,0,0,1-1.12.32c-.88,0-1.06-.79-1-1.47a4.9,4.9,0,0,1,.15-1.07A5.52,5.52,0,0,0,264.6,143.42Z" style="fill:#263238"></path><path d="M263.21,145.07a1.89,1.89,0,0,1-1.12.32c-.88,0-1.06-.79-1-1.47A2,2,0,0,1,263.21,145.07Z" style="fill:#ff9bbc"></path><path d="M246.88,141.33c2.86-1.13,3.39-11.17,3.39-11.17s.38,4.2,1.16,4,3.43-6.19,3.4-10.31a32.23,32.23,0,0,0,7.82,2.91c3.84.74,8,.09,7.89-.55-.19-1.89-2.4-6.65-5.13-8.15a13.43,13.43,0,0,0-13.44-.32c-5.87,2.94-7.08,7-7.68,10.14S245.82,141.74,246.88,141.33Z" style="fill:#263238"></path><path d="M250.38,139.89s-3.75-4.8-5.95-3.44.81,8.45,3.52,9.3a2.7,2.7,0,0,0,3.54-1.65Z" style="fill: rgb(235, 148, 129);"></path><path d="M245.35,138.46s0,.06,0,.08c1.9.65,3,2.32,3.75,4.08a1.49,1.49,0,0,0-2.25-.29c-.05,0,0,.11.06.1a1.63,1.63,0,0,1,1.85.48,7.77,7.77,0,0,1,1,1.43c.09.16.39.06.32-.13,0,0,0,0,0,0C249.93,141.79,247.91,138.57,245.35,138.46Z" style="fill:#263238"></path><path d="M262.43,116.36a22.63,22.63,0,0,0-6.33-2.06c-2.47-.37-10.28,0-12.19,1.57s-2.57,8.85-2.65,9.93.26,7.58,2.57,9.2,2.8-9.41,6.6-13S262.43,116.36,262.43,116.36Z" style="fill:#0EA2BD"></path><path d="M262.44,116.36s-8.21,2.09-12,5.66-4.28,14.6-6.6,13c-1-.71-1.5-1.75-1.89-3.49.57-3.21,2-8.18,4.76-11.59,2.6-3.18,7-4.72,11.62-5.14A26.46,26.46,0,0,1,262.44,116.36Z" style="opacity:0.1"></path><path d="M244.32,141.57c.28-2.94,3.45-10.74,6.7-15.18s12.52-6.86,13.81-6.75c3.13.25,3.66,1.85,4.16,1.58s-2.16-3.32-3-3.87-3.21-1.85-4.57-1.85-9.77.64-12.91,4.15-7.68,13.43-7,16c.17.62,1,1,1.22,1.92.32,1.15.53,2.49.85,3.3C243.88,141.53,244.29,141.82,244.32,141.57Z" style="fill:#0EA2BD"></path><path d="M251.79,124.38a14.19,14.19,0,0,1-2-1.54,11,11,0,0,1-1.7-1.9,0,0,0,0,0-.08,0,8.19,8.19,0,0,0,1.53,2.12,6.84,6.84,0,0,0,2.18,1.42C251.8,124.57,251.86,124.43,251.79,124.38Z" style="fill:#263238"></path><path d="M244.36,138.63a5.81,5.81,0,0,0-.31-.61,3.82,3.82,0,0,1-.26-.74,6.39,6.39,0,0,0-.3-1.43,5.58,5.58,0,0,0-.66-1,1.94,1.94,0,0,1-.55-1.21.05.05,0,0,0-.1,0,5,5,0,0,0,.93,2.3,9.88,9.88,0,0,1,.37,1.54,2.25,2.25,0,0,0,.75,1.24C244.28,138.76,244.39,138.7,244.36,138.63Z" style="fill:#263238"></path><path d="M245.45,135.47a11.08,11.08,0,0,1-.8-1,10.15,10.15,0,0,1-.61-1.12c-.18-.38-.32-.77-.49-1.15s-.46-.88-.63-1.34c0-.06-.11,0-.09.05.18.47.29,1,.45,1.47a10.89,10.89,0,0,0,.54,1.21,6.2,6.2,0,0,0,.67,1.07,3,3,0,0,0,.92.86A0,0,0,0,0,245.45,135.47Z" style="fill:#263238"></path><path d="M246.59,132.62a8.06,8.06,0,0,1-1.56-1.84c-.41-.67-.79-1.37-1.15-2.07,0-.05-.11,0-.09,0a9.79,9.79,0,0,0,1,2.26,4.74,4.74,0,0,0,.73.94,5.14,5.14,0,0,0,1,.76S246.63,132.66,246.59,132.62Z" style="fill:#263238"></path><path d="M247.82,129.9a3,3,0,0,1-.77-.81c-.24-.33-.48-.67-.71-1s-.45-.67-.66-1a3,3,0,0,1-.51-1.09,0,0,0,0,0-.09,0,2.9,2.9,0,0,0,.31,1.15,7.37,7.37,0,0,0,.64,1.17,9.82,9.82,0,0,0,.79,1,1.91,1.91,0,0,0,.94.67A.07.07,0,0,0,247.82,129.9Z" style="fill:#263238"></path><path d="M248.74,126.43c-.27-.28-.53-.55-.78-.84s-.47-.6-.69-.91-.48-.64-.69-1c0,0-.12,0-.09,0a7.65,7.65,0,0,0,.52,1.08,7.23,7.23,0,0,0,.68,1,9.38,9.38,0,0,0,.79.87,3.13,3.13,0,0,0,.94.69c.06,0,.12,0,.08-.1A5.91,5.91,0,0,0,248.74,126.43Z" style="fill:#263238"></path><path d="M254.08,122.76c-.28-.36-.56-.72-.87-1.06a13.9,13.9,0,0,0-3.27-2.57s-.11,0-.06.07c1.36,1.22,2.78,2.39,4.13,3.63A0,0,0,0,0,254.08,122.76Z" style="fill:#263238"></path><path d="M255.92,120.29a5.62,5.62,0,0,0-1-1,12.91,12.91,0,0,0-2.48-1.46c-.06,0-.11,0-.06.08.75.52,1.51,1,2.23,1.6a11,11,0,0,1,1,.89c.33.32.57.7.88,1,0,0,.07,0,.06,0A3.23,3.23,0,0,0,255.92,120.29Z" style="fill:#263238"></path><path d="M258.39,119.19a5.83,5.83,0,0,0-.9-1,7.35,7.35,0,0,0-2.11-1.32.05.05,0,0,0,0,.09,14.84,14.84,0,0,1,2,1.52c.31.28.6.58.9.87s.55.66.87.92c0,0,.06,0,0,0A6.19,6.19,0,0,0,258.39,119.19Z" style="fill:#263238"></path><path d="M260.2,117.77c-.3-.26-.62-.5-.94-.74a3.55,3.55,0,0,0-1-.6c-.05,0-.08,0,0,.09.59.49,1.17,1,1.75,1.5a9.74,9.74,0,0,1,1.34,1.66s.06,0,.06,0A3.77,3.77,0,0,0,260.2,117.77Z" style="fill:#263238"></path><path d="M262.42,117.35a6.09,6.09,0,0,0-1.94-1.27c-.05,0-.09.06,0,.09a7.3,7.3,0,0,1,1.75,1.38,9.81,9.81,0,0,1,1.37,1.78s.08,0,.06,0A4.91,4.91,0,0,0,262.42,117.35Z" style="fill:#263238"></path><path d="M265.28,118.73a4,4,0,0,0-.25-.45,4.58,4.58,0,0,0-.63-.82,11,11,0,0,0-1.64-1.32c-.05,0-.11,0-.05.08a9,9,0,0,1,1.53,1.36,8,8,0,0,1,.61.8,4.23,4.23,0,0,1,.25.42c.08.13.14.3.23.42a.05.05,0,0,0,.09,0A1.29,1.29,0,0,0,265.28,118.73Z" style="fill:#263238"></path><path d="M267,118.93a6.67,6.67,0,0,0-.52-.67,6.79,6.79,0,0,0-.6-.6c-.22-.2-.44-.38-.65-.58,0,0-.12,0-.06.07a6,6,0,0,1,.6.63l.54.63.53.63a6.89,6.89,0,0,0,.54.65,0,0,0,0,0,.06,0A3.56,3.56,0,0,0,267,118.93Z" style="fill:#263238"></path></g></svg>