<svg xmlns="http://www.w3.org/2000/svg" viewBox="0 0 500 500"><g id="freepik--Character--inject-24"><path d="M83.61,449.79l171.54.73c41.69-32.74,46-81.24,16.25-110.64-18-17.79-40.86-14.2-62.63-17h-.06c-7.58-1-15-2.75-22.08-6.48-22.41-11.82-35-39.71-53.9-63.18q-3.53-4.41-7.39-8.56c-15.5-16.55-46.37-17.09-62.51,6.19C21.82,310,40.6,398,83.61,449.79Z" style="fill:#0EA2BD"></path><path d="M79.8,314.46c4.49,70.38,85.77,96.65,136.53,75.57,44.14-18.34,29.69-60.18-7.56-67.18h-.06c-7.58-1-15-2.75-22.08-6.48-22.41-11.82-35-39.71-53.9-63.18C104.64,238.59,76.5,262.93,79.8,314.46Z" style="opacity:0.1"></path><path d="M233.94,460.87c-2.65-1-62.43-48.75-63.56-52-.43-1.24,6-10.35,14.12-21.14,1.76-2.33,3.58-4.72,5.44-7.14,12.08-15.74,25.27-32.16,25.27-32.16l40.08,31.84-26.37,31.28-5.78,6.87s14.7,28.53,15.56,32.24S236.58,461.84,233.94,460.87Z" style="fill:#eb9481"></path><path d="M233.93,460.87c-2.64-1-62.42-48.74-63.55-52-.35-1,3.85-7.23,9.79-15.31,8.7,10.39,39,41.32,47.28,45.46,5.25,2.63,4.21-2.53,2.25-7.67,4,8.07,8.53,17.31,9,19.31C239.53,454.36,236.59,461.84,233.93,460.87Z" style="fill:#263238"></path><path d="M295.77,319c-2.74,20.82-54.06,80.94-60,87.83l-1.35,1.57L192,375.81l.48-.63,37.39-48.95S168,362.3,137.1,345.93c-13.88-7.35-24.18-20.42-24.18-20.42L153.28,304s11.17,3.61,18.31,2.57c24.61-3.61,79.75-24.54,92.83-24C281.3,283.24,298.29,299.92,295.77,319Z" style="fill:#263238"></path><path d="M235.43,339.18a54.86,54.86,0,0,0-11.84-4.74l.19-.26c7.17,2.22,14.79,4.93,19.36,11.24,2.1,2.92,3.41,6.8,2.58,10.4a6.72,6.72,0,0,1-7.63,5.17c-9.5-1.06-11.16-12.92-18.58-17.2a9.18,9.18,0,0,0-2.34-1l.19-.25a12.12,12.12,0,0,1,4.19,2.26c3.56,2.91,5.49,7.15,8.3,10.69s7.22,6.44,11.73,4.77c5-1.83,4.62-8.31,2.73-12.28S239.06,341.3,235.43,339.18Zm-8.56,53.87a8.35,8.35,0,0,0-1.46,8.46l.44.33a8.64,8.64,0,0,1-.39-1.25c-1.28-5.06,2-8.95,6.79-10.07,4.54-1.06,9.15.08,13.74-.34a13.53,13.53,0,0,0,4.69-1.21l.43-.53c-4.27,2.41-9.45,1.28-14.08,1.28C233.49,389.72,229.39,390.31,226.87,393.05Zm-20-36.73c2.06,6.85,8.75,12.19,15.27,14.4a25.8,25.8,0,0,0,12.33,1c5-.79,10.39-2.82,15.35-.94s6.84,8,5.27,12.72l.46-.59a11.89,11.89,0,0,0-.05-6.07,9.26,9.26,0,0,0-5.6-6.35c-4.48-1.7-9.4-.2-13.9.65a26.63,26.63,0,0,1-14.16-.83,25.31,25.31,0,0,1-11.27-7.92,19.36,19.36,0,0,1-3.45-6.4Zm-6.34,26.07.23.18a25.43,25.43,0,0,1,1.24-3.06c1.58-3.18,4.8-5.61,8.48-4.29,4.13,1.46,6.65,6.4,6.76,10.55a29.1,29.1,0,0,1-1.28,8.48l.25.19a36.37,36.37,0,0,0,1.34-7.6,13.19,13.19,0,0,0-3.85-9.92c-2.27-2.2-5.49-3.14-8.39-1.58-2.42,1.28-3.67,3.87-4.55,6.35C200.68,381.91,200.6,382.15,200.53,382.39ZM277.7,290a9.81,9.81,0,0,1,2.86-1.91l-.3-.2a5,5,0,0,0-.65.33,9.22,9.22,0,0,0-4.75,9.45c.57,4.62,3.37,8.73,3,13.51a6.52,6.52,0,0,1-3.3,5.63,7.19,7.19,0,0,1-7-.83c-4.33-3-5.23-9.34-5.33-14.17a33,33,0,0,1,.92-8.4c.57-2.35,1.5-4.61,1.9-7a10.9,10.9,0,0,0,0-3.78h-.26c.47,2.69-.38,5.37-1.15,7.92a34.89,34.89,0,0,0-1.45,14.95c.53,4,1.84,8.69,5.52,11,2.87,1.77,6.88,1.79,9-1.08s1.55-7.14.51-10.37C275.67,300,273.26,294.22,277.7,290Zm-1.53,65.58c.16-.21.31-.43.45-.63.93-4.85,1-10.11,5-13.35a9.78,9.78,0,0,1,5.05-2c.08-.13.17-.26.24-.4a11,11,0,0,0-4.27,1.36C277.24,343.59,277.43,350,276.17,355.53ZM256.56,359c2.35,4.46,8.3,7.08,13.11,5.58l.38-.52a10.16,10.16,0,0,1-6.39.18,11.17,11.17,0,0,1-8-8.63,16.73,16.73,0,0,1,3.19-13.06c2.91-3.91,7.18-6.57,11.62-8.42,7.67-3.19,17-3.57,23.57-9l.28-.75a20,20,0,0,1-4.51,3.06c-4.55,2.27-9.61,3.16-14.46,4.6a38.68,38.68,0,0,0-12,5.63C257,342.38,252.57,351.34,256.56,359Zm-35.42-65.62-.28.1a18.84,18.84,0,0,1,2.6,3.49c4.93,8.41,4.27,18.83,9,27.35,1.86,3.33,4.55,6.36,8.18,7.76a12.62,12.62,0,0,0,9.8-.15,8.86,8.86,0,0,0,5-8.19c0-3.85-2-7.57-4.54-10.37-3.17-3.51-7.33-5.93-10.89-9A22.17,22.17,0,0,1,232.35,292c-.12-.63-.22-1.26-.28-1.9l-.27.08a20.3,20.3,0,0,0,2.18,7.3c2,4,5.34,6.88,8.84,9.54,3.78,2.89,7.82,5.67,10.23,9.87,2.27,4,3.17,9.33-.24,13-2.75,2.92-7.3,3.37-11,2.31-4.35-1.24-7.47-4.77-9.49-8.69-4.39-8.56-3.76-18.95-8.92-27.16A17.56,17.56,0,0,0,221.14,293.35Zm-23.22,15.51a30.54,30.54,0,0,0,3.84,12.2,23.25,23.25,0,0,0,9.29,8.68,46.55,46.55,0,0,0,6.71,2.84l.38-.19a42.18,42.18,0,0,1-8.69-3.91,22.84,22.84,0,0,1-9.13-11,29.53,29.53,0,0,1-1.59-17.43l-.3.09A27.23,27.23,0,0,0,197.92,308.86Zm-22.79,39.19.31-.06c1.28-4,3.69-7.56,8.14-8.48a11.37,11.37,0,0,1,10.3,3.14l.25-.09a11.43,11.43,0,0,0-4.36-2.83A11.21,11.21,0,0,0,179.65,341,13.27,13.27,0,0,0,175.13,348.05Zm-29,1.08a7,7,0,0,0,.82.16,6.77,6.77,0,0,1,.9,0,6.89,6.89,0,0,1,2.62.58c.26,0,.52.06.79.08A7.84,7.84,0,0,0,146.09,349.13Zm30.5-32.49c-.2,3.49,0,7.08,2.25,10,1.9,2.5,5.11,3,7.28.49,2.78-3.23,3.13-8.57,2.89-12.61a50.62,50.62,0,0,0-2.18-11.18l-.31.08c.32,1.07.61,2.13.88,3.19,1.29,5.25,2,10.84.49,16.12-.67,2.4-1.94,5.4-4.75,5.78-2.09.28-3.71-1.31-4.68-3-2.26-3.88-1.68-8.41-1.26-12.67.24-2.47.55-5,.7-7.44a2.27,2.27,0,0,1-.3.06C177.37,309.19,176.82,312.9,176.59,316.64Zm-24.77-6.19c.45,4.84-.19,9.65,0,14.48.17,4,1.32,8.14,4.77,10.57a6.89,6.89,0,0,0,9.32-1c2.9-3.22,2.93-7.67,2.05-11.67-1.18-5.39-3-10.67-4.58-15.95-.06-.2-.12-.42-.19-.63l-.35-.06c.07.26.15.51.22.76.8,2.71,1.58,5.41,2.38,8.11,1.48,5,4,11.06,2,16.29a8.07,8.07,0,0,1-4.92,5,7.08,7.08,0,0,1-6.73-2c-4-3.76-3.77-9.57-3.54-14.61a56.1,56.1,0,0,0-.67-13.33c-.08-.44-.2-.92-.33-1.4l-.29.15A37.27,37.27,0,0,1,151.82,310.45Zm-35,12.95c4.67,4.79,7.72,11.41,14.9,12.8,2.79.53,6.05.17,8-2.16,2.69-3.26,1.37-8-.11-11.46-1.3-3.06-3.1-5.88-4.69-8.8l-.26.14c.39.75.82,1.5,1.23,2.22,2.46,4.33,6.09,9.9,4.84,15.13-1.06,4.45-5.76,5.45-9.67,4.44-6.57-1.67-9.56-7.88-13.93-12.45Z" style="fill:#455a64"></path><path d="M243.27,308a47.38,47.38,0,0,0-3.85,4.94c-1.33,1.73-2.67,3.45-4,5.18l0,0c.24-.51.47-1,.71-1.52.83-1.72,1.5-3.51,2.48-5.16a.09.09,0,1,0-.15-.09c-1,1.64-2.19,3.19-3.05,4.92-.41.81-.8,1.63-1.16,2.46-.19.46-.4.92-.57,1.38a6.63,6.63,0,0,0-.25.67q-.89,1.2-1.74,2.43c-1.26,1.83-2.37,3.75-3.64,5.56-.07.1.08.19.15.1,1.29-1.7,2.74-3.29,4.05-5s2.6-3.48,3.85-5.26,2.41-3.49,3.63-5.23a52.59,52.59,0,0,0,3.68-5.37A.07.07,0,0,0,243.27,308Z" style="fill:#37474f"></path><path d="M200.48,368.39c2.33,2.16,4.84,4.16,7.3,6.18s4.95,4,7.44,6c5,4,9.94,8,15,11.94,2.77,2.15,5.56,4.28,8.44,6.28.13.09.27-.12.16-.22-4.72-4.29-9.75-8.22-14.74-12.2s-10-8-15-11.88c-2.76-2.14-5.51-4.34-8.4-6.31C200.51,368.12,200.38,368.3,200.48,368.39Z" style="fill:#37474f"></path><path d="M166.26,260a2.9,2.9,0,0,1-1.36,2.62,20.16,20.16,0,0,1-2.3,1.36c.12-2.91-.11-5.91-.28-8.77-.2-3.37-.62-6.66-1.1-10a0,0,0,0,0-.08,0c.26,3.37.41,6.76.58,10.14.15,2.95.08,5.95.25,8.9-.82.39-1.65.73-2.5,1,0-1,0-2.07,0-3.1,0-3.11-.28-6.18-.44-9.28,0-.08-.11-.08-.1,0,.11,3,0,6.08,0,9.1,0,1.17,0,2.33-.06,3.5-.58.2-1.16.38-1.73.56l-1.14.32c0-2-.17-4.09-.24-6.09-.13-3.23-.44-6.44-.61-9.67a.08.08,0,1,0-.16,0c.15,3.21.1,6.45.18,9.67.06,2.07,0,4.19.09,6.28a44.15,44.15,0,0,1-15.66.82,66.06,66.06,0,0,1-9-1.7c-.71-.19-2.54-.72-4.33-1.27,0-1-.06-2-.07-2.89,0-2.15-.15-4.32-.11-6.46,0-.07-.08-.07-.08,0-.11,2.15-.34,4.29-.39,6.46,0,.87,0,1.77-.06,2.67-.64-.19-1.26-.39-1.8-.58.2-4.06,0-8.19-.07-12.24,0-.1-.12-.1-.13,0-.15,4-.54,8-.49,12a6.12,6.12,0,0,1-1.19-.49c-.89-.74-.29-16.8-.24-20.55.1-7,.9-17.29,2.88-24A20.48,20.48,0,0,1,135.79,205c2.64-1.18,5.72-1,8.54-.91a16.64,16.64,0,0,1,8.28,2.61,17.82,17.82,0,0,1,6.28,5.77A35.55,35.55,0,0,1,162.5,221c2.09,7.09,2.86,26.55,3.37,33.45C166,256.32,166.23,258.17,166.26,260Z" style="fill:#263238"></path><path d="M131,260.68c10.27,19.45,26.73,41.67,32,44.58,6.68,3.68,43.16,2.13,45,1.85,4.46-.72,6-32.77,1.22-32.21-7.31.86-33.29,6.28-35.25,5.11s-16.47-12-31.68-24.43C131.75,247,124.62,248.61,131,260.68Z" style="fill:#eb9481"></path><path d="M203.19,305.71A94.71,94.71,0,0,0,216.41,309c3.53.43,13.75,1.38,14.6-2.47.59-2.62-5.35-3.89-9.53-4.88-2.2-.52-5.1-2.26-4.71-3.69.69-2.49,6.38-1,10.2.43,7.39,2.82,17.53,8.41,21.1,4.31,1.34-1.55-.85-3.61-3.88-5.49,4.74,2,9.68,3.45,11.25,1.79.89-.95.77-2,0-3.15a3.07,3.07,0,0,0,3.23-1.06c1.15-1.69.12-3.74-1.77-5.7a1.68,1.68,0,0,0,1.13-1c2.22-5-14.69-15.52-20-15.89-15.64-1.12-32.43,3.73-32.43,3.73C200.45,281.53,203.17,305.71,203.19,305.71Z" style="fill:#eb9481"></path><path d="M223.06,288.23a25.87,25.87,0,0,1,10.68,2.23c4.23,1.89,7.25,4.43,10.93,6.88.1.06,0,.21-.09.15-1.76-1.16-9-5.44-10.78-6.38a24.72,24.72,0,0,0-10.74-2.81S223,288.23,223.06,288.23Z" style="fill:#263238"></path><path d="M224.83,281.38a62.25,62.25,0,0,1,12.35,2.14c4.35,1.39,8,4.22,11.66,6.93q3.25,2.44,6.41,5c.09.07,0,.23-.1.15q-5.52-4.2-11.29-8.08a32.66,32.66,0,0,0-11.76-5c-2.4-.49-4.84-.8-7.28-1.1A0,0,0,0,1,224.83,281.38Z" style="fill:#263238"></path><path d="M228.14,275.1c4,.17,7.44.29,11.18,1.8,5,2,10.06,5.87,11.85,7.25,2,1.53,3.91,3.12,5.82,4.74.07.06,0,.2-.12.13a130.41,130.41,0,0,0-13.63-9.7,25.9,25.9,0,0,0-7.26-3.19,47,47,0,0,0-7.84-1A0,0,0,0,1,228.14,275.1Z" style="fill:#263238"></path><path d="M145.8,289.15l11.53-25.24a179,179,0,0,0-17.55-12.15c-10.3-6.29-15.26-2.72-9,12.29A103.59,103.59,0,0,0,145.8,289.15Z" style="fill:#455a64"></path><path d="M153.64,262.22c-1.07,1.77-1.88,3.72-2.79,5.57s-1.75,3.55-2.56,5.35q-2.53,5.6-4.83,11.29c0,.06.08.12.11.05,1.8-3.63,3.56-7.27,5.26-11,.85-1.83,1.65-3.68,2.45-5.53s1.79-3.76,2.47-5.72C153.77,262.21,153.67,262.16,153.64,262.22Z" style="fill:#263238"></path><path d="M130.8,264.05a103.59,103.59,0,0,0,15,25.1l9.63-21.1-25-19C127.31,250.1,127,255,130.8,264.05Z" style="opacity:0.1"></path><path d="M92.32,333.9c2.35.83,70.36-16.76,70.36-16.76l-7.29-23.65s4.15-7.42,2.53-14.72c-2.17-9.75-19.63-26.17-21-27.15-5.55-3.9-10.85-4-15.6-1.64C101.51,259.79,92.32,333.9,92.32,333.9Z" style="fill:#455a64"></path><path d="M133.79,291.18a60.64,60.64,0,0,1,8.82-.72c1.47,0,2.92.09,4.39.19.73.06,1.45.09,2.18.11a9.25,9.25,0,0,0,2.29-.13c.06,0,.09.08,0,.1a15.36,15.36,0,0,1-2.11.49,16.33,16.33,0,0,1-2.1.12c-1.48,0-3-.06-4.46-.07-3,0-6,0-9,.16C133.68,291.44,133.66,291.2,133.79,291.18Z" style="fill:#263238"></path><path d="M127.38,295.47a65.38,65.38,0,0,1,7-2.11c1.18-.28,2.37-.49,3.58-.67l1.73-.23c.64-.07,1.28-.06,1.92-.15.06,0,.09.09,0,.1-.6.1-1.18.3-1.77.43l-1.77.39c-1.19.27-2.37.55-3.56.8-2.38.51-4.74,1-7.1,1.63C127.29,295.7,127.26,295.51,127.38,295.47Z" style="fill:#263238"></path><path d="M113.1,258.44c-9.46,13.95-29.71,62-19.92,69.42s57.36-9.63,70.33-17.77C167.37,307.67,148.89,284,144,284c-4.05,0-22.51,11.23-23.24,10.13-.82-1.25,1.76-11.15,4.62-29.47C128.69,243.5,118.54,250.43,113.1,258.44Z" style="fill:#eb9481"></path><path d="M163.36,273.39c9.77-2.53,12.67-1.68,19.77-8.2,4.67-4.28,9.4-3.14,7.17,3.06-3.63,10.13-15.55,16.05-20.27,16.91Z" style="fill:#eb9481"></path><path d="M138.1,286s10.44-7.49,20.58-11.22c7-2.58,22.9-6.49,40.17,7.62,4.09,3.35,7.56,11-1.12,8-6.16-2.16-9.42-5.39-13.23-6,0,0,3.24,10.28-.27,14.26a97,97,0,0,1-9.93,9.72,19.77,19.77,0,0,1-2-1.69s-3.64,3.4-11.2,3.56Z" style="fill:#eb9481"></path><path d="M165.76,273.4c3.66,1.39,11.37,4.49,16.79,9.21,6,5.25,16.21,17,12.29,21.38-2.87,3.23-7.15-.9-7.15-.9s3.19,5.73-.05,8.08c-2.94,2.15-6.07-1.25-6.07-1.25s1.34,3.81-1.9,5.33c-3.89,1.82-6-6.47-11.59-8C166.84,306.87,165.76,273.4,165.76,273.4Z" style="fill:#eb9481"></path><path d="M176,288.05c3.22,1.88,9.45,8,11.77,14.87.05.16,0,.28-.11.15a78.75,78.75,0,0,0-11.71-15S175.91,288,176,288.05Z" style="fill:#263238"></path><path d="M170.83,294.28c2.61,1.91,8.75,8.53,10.86,15.55.05.16-.05.28-.12.14a83.85,83.85,0,0,0-10.8-15.63S170.79,294.26,170.83,294.28Z" style="fill:#263238"></path><path d="M184.49,284.34c3.35.58,5.64,1.92,8.59,3.5a46,46,0,0,0,4.47,2.16c1.4.56,3.47,1.41,4.74.13a2.66,2.66,0,0,0,.29-2.71,13,13,0,0,0-2.2-3.48s0-.1.07-.06a18.59,18.59,0,0,1,2.32,3.05,4.38,4.38,0,0,1,.59,2.49c-.27,1.84-2.35,2.32-3.9,2a14.52,14.52,0,0,1-2.69-.93c-.83-.36-1.65-.76-2.46-1.18-1.66-.86-3.27-1.82-4.91-2.7a44.38,44.38,0,0,0-5-2.16C184.39,284.43,184.42,284.33,184.49,284.34Z" style="fill:#263238"></path><path d="M192.59,294.94a100.18,100.18,0,0,0-8.16-10.51c0-.05,0-.11.06-.08,2.8,2.1,7.59,8,8.77,9.91s2.54,4.34,2.8,6.58c.4,3.38-1.77,4.28-2.58,4.55a4.4,4.4,0,0,1-2.93-.14,9,9,0,0,1-2.9-2.15s0-.11.06-.07c1.33,1.2,3.43,2.28,5.24,1.83a3.11,3.11,0,0,0,2-1.37,4,4,0,0,0,.22-2.79A18.56,18.56,0,0,0,192.59,294.94Z" style="fill:#263238"></path><path d="M120.78,294.1a50.69,50.69,0,0,1-4.61,3,55,55,0,0,1-4.85,2.62,26.36,26.36,0,0,1,4.47-3.26A27.53,27.53,0,0,1,120.78,294.1Z" style="fill:#263238"></path><path d="M97.3,283.83,125,281.74a178.39,178.39,0,0,0,2.17-21.23c.53-12.06-5-14.69-15.09-1.94A103.4,103.4,0,0,0,97.3,283.83Z" style="fill:#455a64"></path><path d="M124.67,277.69c-2.07-.08-4.16.15-6.23.25s-3.94.18-5.91.34c-4.09.32-8.15.72-12.22,1.22-.07,0-.07.13,0,.12q6.07-.25,12.14-.68c2-.14,4-.33,6-.52s4.16-.25,6.2-.6C124.74,277.8,124.74,277.69,124.67,277.69Z" style="fill:#263238"></path><path d="M125.76,279c.17-1,.3-2,.42-3,0-.21,0-.42.07-.63a34.63,34.63,0,0,0,1.08-3.64s0-.06-.07,0a27.94,27.94,0,0,0-.9,2.77c.16-1.54.3-3.08.32-4.63a0,0,0,0,0-.08,0c-.37,2-.6,4-.9,6-.14,1-.74,5.76-.8,5.77s-2.3.25-2.44.31-.09.19,0,.19l2.86-.21S125.62,279.83,125.76,279Z" style="fill:#263238"></path><rect x="152.16" y="307.36" width="76.46" height="3.42" style="fill:#c7c7c7"></rect><polygon points="228.62 307.36 228.62 310.79 182.76 310.79 185.38 307.36 228.62 307.36" style="fill:#a6a6a6"></polygon><polygon points="194.1 310.79 268.62 310.79 274.82 260.18 200.31 260.18 194.1 310.79" style="fill:#a6a6a6"></polygon><polygon points="198 310.79 272.52 310.79 278.72 260.18 204.21 260.18 198 310.79" style="fill:#c7c7c7"></polygon><path d="M233.83,285.48a4.44,4.44,0,0,0,4.45,4.54,4.64,4.64,0,0,0,4.62-4.54,4.44,4.44,0,0,0-4.46-4.53A4.63,4.63,0,0,0,233.83,285.48Z" style="fill:#fff"></path><path d="M126,251.66c.06,1.25,4.41,10.07,9.94,10.79,1.81.23,3.51-9.56,3.51-9.56l.29-.69,4.06-9.72-12.06-11S126,251.13,126,251.66Z" style="fill:#eb9481"></path><path d="M143.85,242.48l-4.07,9.72a21.15,21.15,0,0,1-9.95-14c1-3.42,1.81-6.26,1.92-6.67a.15.15,0,0,0,0-.06l1.55,1.31Z" style="fill:#263238"></path><path d="M159.6,229.13c-1.67,18.41-12.88,19.49-16.85,19.12-3.61-.33-15.83-1.92-16.07-20.4s8.85-23.52,17.13-23.19S161.27,210.73,159.6,229.13Z" style="fill:#eb9481"></path><path d="M157.27,226.51a12.2,12.2,0,0,1-1.19-.46,2,2,0,0,1-1.12-.7.67.67,0,0,1,.12-.8,1.65,1.65,0,0,1,1.65-.11,2.37,2.37,0,0,1,1.35,1.07A.7.7,0,0,1,157.27,226.51Z" style="fill:#263238"></path><path d="M144.54,225.92c.44,0,.85,0,1.28-.06a2.07,2.07,0,0,0,1.29-.31.64.64,0,0,0,.12-.79,1.62,1.62,0,0,0-1.52-.64,2.41,2.41,0,0,0-1.62.6A.7.7,0,0,0,144.54,225.92Z" style="fill:#263238"></path><path d="M146.69,229.07s-.11,0-.11.1c-.14,1.25-.5,2.66-1.68,2.92,0,0-.05.07,0,.07C146.3,232.15,146.76,230.28,146.69,229.07Z" style="fill:#263238"></path><path d="M145.75,227.61c-2-.43-2.69,3.57-.85,4S147.42,228,145.75,227.61Z" style="fill:#263238"></path><path d="M144.93,227.68c-.39.17-.8.51-1.23.47s-.79-.52-1-1c0,0-.06,0-.07,0-.15.76,0,1.6.8,1.86s1.39-.35,1.72-1.08C145.17,227.85,145.09,227.62,144.93,227.68Z" style="fill:#263238"></path><path d="M154.05,230.05s.09.08.08.13c-.27,1.23-.38,2.69.67,3.3,0,0,0,.08,0,.07C153.44,233.1,153.6,231.18,154.05,230.05Z" style="fill:#263238"></path><path d="M155.4,229c2,.22,1.43,4.24-.44,4S153.7,228.78,155.4,229Z" style="fill:#263238"></path><path d="M156.2,229.35c.28.26.54.7.92.78s.82-.3,1.16-.67c0,0,.06,0,.06,0-.09.77-.46,1.53-1.22,1.57s-1.1-.69-1.17-1.48C155.94,229.45,156.08,229.25,156.2,229.35Z" style="fill:#263238"></path><path d="M144.51,239.51c.22.36.41.83.85,1a3.25,3.25,0,0,0,1.39,0,0,0,0,0,1,0,.08,1.68,1.68,0,0,1-1.71.27,1.35,1.35,0,0,1-.69-1.32C144.38,239.46,144.48,239.46,144.51,239.51Z" style="fill:#263238"></path><path d="M150.72,235.68s-.11,1.9-.28,2.77c0,.08-.23.08-.53,0h0a4.21,4.21,0,0,1-3.72-2.33.09.09,0,0,1,.15-.09,6.43,6.43,0,0,0,3.57,1.82c.11-.23.07-3.26.21-3.24a7.85,7.85,0,0,1,1.89.83c.33-3.94,0-7.9.42-11.81,0-.14.22-.15.24,0a64.7,64.7,0,0,1,.09,12.75C152.7,236.9,151,235.9,150.72,235.68Z" style="fill:#263238"></path><path d="M126.9,228.91c3,.73,4.64-6.17,4.64-6.17s6.14,1,9.63-7.47a13.79,13.79,0,0,1-3.93,6.86s11.12,1.31,17.18-7c0,0-2.59,4.32-4.56,5.68,0,0,4.75-.52,7.58-3.85,0,0,1,5.55,2.25,7.24,0,0,2.69-19-15.21-19.92,0,0-11.13-1.09-16.51,7S126.9,228.91,126.9,228.91Z" style="fill:#263238"></path><path d="M129.48,229.53s-3-6.39-5.79-5.43-1.31,9.72,1.51,11.39a3.14,3.14,0,0,0,4.42-.92Z" style="fill:#eb9481"></path><path d="M124.19,226.6s-.07.05,0,.08c2,1.24,2.73,3.4,3.15,5.58a1.73,1.73,0,0,0-2.46-.92c-.06,0,0,.13,0,.13a1.92,1.92,0,0,1,2,1,9.48,9.48,0,0,1,.7,1.86c.06.21.42.17.39-.06,0,0,0,0,0-.05C128.47,231.55,127,227.39,124.19,226.6Z" style="fill:#263238"></path><path d="M388.91,406.72c-1,2.65-49,62.27-52.21,63.39-1.24.43-10.33-6.05-21.09-14.19-2.33-1.76-4.72-3.59-7.13-5.46-15.7-12.13-32.08-25.37-32.08-25.37l32-40,31.2,26.47,6.85,5.81s28.58-14.62,32.29-15.46S389.89,404.08,388.91,406.72Z" style="fill:#eb9481"></path><path d="M388.92,406.72c-1,2.64-48.95,62.27-52.22,63.39-1.08.38-8.16-4.53-17.13-11.21,9.15-6.65,43.89-38,48.56-46.43,2.45-4.46-1.13-4.42-5.52-3.19,7.16-3.53,14.36-6.95,16.1-7.35C382.42,401.1,389.89,404.08,388.92,406.72Z" style="fill:#263238"></path><path d="M337.9,405.55l-33.27,44.89L192.35,372.53,181.53,365s-3.07,2.06-7.68,4.61c-6.41,3.54-15.81,8-24.11,9.25-13.94,2.07-37.22,1.85-49-13.86-9.9-13.23-4.52-30.49-4.52-30.49l15.3-6.57s36.22-30.17,59.68-31.08c10-.4,24.47,7.15,37.91,15S337.9,405.55,337.9,405.55Z" style="fill:#263238"></path><path d="M334.17,402.78q.27,3,.52,5.92c0,.35.06.7.1,1.05l-.35.45c-.25-2.57-.47-5.15-.7-7.74A4.8,4.8,0,0,1,334.17,402.78Zm-19.23-14.25-.39-.28a21,21,0,0,0,.61,3.91c1.1,4.49,3.44,8.71,5.57,12.78a126.32,126.32,0,0,1,6.89,14.47l.23-.29A99.55,99.55,0,0,0,322.74,408c-2.41-4.62-5.13-9.28-6.75-14.27A22.22,22.22,0,0,1,314.94,388.53Zm-14.18,50.78a12.67,12.67,0,0,1-3.37,6.12l.24.16a12.13,12.13,0,0,0,3-4.63c1.49-4.17.89-8.76.29-13-.68-4.63-2-10.1-.3-14.65a5.69,5.69,0,0,1,5.4-4,8.1,8.1,0,0,1,5.45,2.82c3.68,4,2.93,9.23,1.54,14-1.22,4.22-2.92,8.37-2.64,12.85a15.37,15.37,0,0,0,.51,3.13l.24-.33c-2.17-8.23,4.52-16.07,3.31-24.42a10.41,10.41,0,0,0-5.78-7.72,5.87,5.87,0,0,0-8,2.84c-1.79,3.7-1.06,8.35-.51,12.27C300.76,429.48,301.87,434.52,300.76,439.31Zm-27.92-10.92.32.22a19.51,19.51,0,0,1,1.81-5.26,25.88,25.88,0,0,1,9.46-10.07c3.74-2.31,8-3.79,11.67-6.16a18.28,18.28,0,0,0,7.6-9.61,28.32,28.32,0,0,0,1.6-12.63,16.63,16.63,0,0,0-1.12-4.3c-.12-.11-.25-.2-.38-.3A19.92,19.92,0,0,1,305,391c-.65,5-2.33,10.22-6.16,13.71-3.4,3.09-7.82,4.73-11.85,6.81C280.25,415,274.45,420.88,272.84,428.39Zm-3-24.57c2.74,1.82,6.27,2.32,9,.28,3-2.25,3.82-6.42,3.79-10,0-4.85-1.61-10.32,1-14.77a11.83,11.83,0,0,1,8.85-5.33,13.1,13.1,0,0,1,2.8,0l-.44-.32a13.69,13.69,0,0,0-3,.13,12.27,12.27,0,0,0-7.7,4.28c-2.73,3.44-2.42,8-2.08,12.13.36,4.32.7,9.61-2.65,12.94-3.51,3.52-8.62,1.72-11.65-1.46-6.78-7.13-3.81-19,3.25-24.71,4.92-4,11.08-5.78,16.68-8.57l-.28-.21c-.8.4-1.6.78-2.41,1.14-7.05,3.17-15.11,5.9-19,13.13C262.3,389.41,262.85,399.19,269.83,403.82Zm3.24-41.25a10.51,10.51,0,0,0,2.26-3.26l-.29-.2a9.87,9.87,0,0,1-.79,1.51c-2.3,3.61-6.6,4.73-10.59,3.59a11.17,11.17,0,0,1-8-8.63,15.94,15.94,0,0,1,1.24-9.73l-.2-.14c-2,4.17-2.44,8.92-.18,13.26C259.5,364.58,268.16,367.27,273.07,362.57Zm-22.58,48c-.92.09-1.85.22-2.77.34l.38.27.19,0c5-.71,10.58-1,14,3.51a11.62,11.62,0,0,1,2.31,8l.32.23a12,12,0,0,0-3-9.12C259,410.54,254.63,410.16,250.49,410.61Zm.83-22.29c-4.3,2.56-9.57,1.4-14.29,1.4-3.54,0-7.64.59-10.16,3.33a7.27,7.27,0,0,0-1.49,2.41l.31.21a9,9,0,0,1,6.56-5.15c4.54-1.06,9.15.08,13.74-.34,3.47-.29,6.81-1.65,8.58-4.8a11.51,11.51,0,0,0,.93-8.55,9.26,9.26,0,0,0-5.6-6.35c-4.48-1.7-9.4-.2-13.9.65a26.63,26.63,0,0,1-14.16-.83,25.31,25.31,0,0,1-11.27-7.92c-3.22-4-5.41-9.73-3.07-14.69a8.31,8.31,0,0,1,12-3.9c7.42,4.28,9.08,16.14,18.58,17.2a6.72,6.72,0,0,0,7.63-5.17c.83-3.6-.48-7.48-2.58-10.4-4.86-6.73-13.2-9.35-20.76-11.68-4.45-1.37-9-2.78-12.93-5.26a22.84,22.84,0,0,1-9.13-11A31.91,31.91,0,0,1,198,305.71a1.19,1.19,0,0,0-.25-.13,27.26,27.26,0,0,0,.13,3.28,30.54,30.54,0,0,0,3.84,12.2,23.25,23.25,0,0,0,9.29,8.68c7.74,4.12,16.77,5,24.38,9.44,3.63,2.12,7,5,8.88,8.84s2.25,10.45-2.73,12.28c-4.51,1.67-9-1.38-11.73-4.77s-4.74-7.78-8.3-10.69c-3-2.43-7-3.65-10.51-1.58a10.39,10.39,0,0,0-4.79,9.52c.44,8.53,8.29,15.36,15.89,17.94a25.8,25.8,0,0,0,12.33,1c5-.79,10.39-2.82,15.35-.94C256.78,373.4,257.74,384.49,251.32,388.32Zm-49.46-9.19.25.18c1.61-3.09,4.77-5.38,8.37-4.09,4.13,1.46,6.65,6.4,6.76,10.55a21.48,21.48,0,0,1-.26,3.85l.25.18a22.33,22.33,0,0,0,.32-3,13.19,13.19,0,0,0-3.85-9.92c-2.27-2.2-5.49-3.14-8.39-1.58A8.39,8.39,0,0,0,201.86,379.13Zm-28.62-11.41c0,.76-.08,1.55-.14,2.32l.37-.19c.51-6.57-.05-13.35,1.39-19.72,1.09-4.8,3.48-9.53,8.72-10.62a11.48,11.48,0,0,1,12,5.35,15.2,15.2,0,0,1,.86,13.48c-1.76,4.38-4.91,8-7.82,11.64l.2.14c5.16-6.53,11.32-13.87,8.21-22.73a12.29,12.29,0,0,0-7.31-7.66A11.21,11.21,0,0,0,179.65,341c-3.61,2.64-4.85,7.46-5.5,11.64C173.37,357.6,173.5,362.67,173.24,367.72Zm-35.94,5.67a42.56,42.56,0,0,1,.32,6.41h.28c.23-7.51-2.69-15.24-.17-22.56,1.42-4.12,5.47-8.12,10.08-8s7.32,4.56,7.95,8.74c1,6.66-2.84,13.59-2.38,20.16l.29-.07a15.42,15.42,0,0,1,0-2.63c.39-5,2.53-9.77,2.58-14.82,0-3.36-.87-7.1-3.38-9.52a7.92,7.92,0,0,0-9.17-1.18C134.79,354.34,136.4,365.28,137.3,373.39Zm39.29-56.75c-.2,3.49,0,7.08,2.25,10,1.9,2.5,5.11,3,7.28.49,2.78-3.23,3.13-8.57,2.89-12.61-.3-5-1.71-9.72-3.16-14.45l-.39-.14c.7,2.24,1.39,4.47,1.94,6.68,1.29,5.25,2,10.84.49,16.12-.67,2.4-1.94,5.4-4.75,5.78-2.09.28-3.71-1.31-4.68-3-2.26-3.88-1.68-8.41-1.26-12.67.44-4.59,1.11-9.22.7-13.83,0-.49-.09-1-.17-1.48l-.3-.06a30.19,30.19,0,0,1,.3,5.21C177.65,307.35,176.88,312,176.59,316.64Zm-24.77-6.19c.45,4.84-.19,9.65,0,14.48.17,4,1.32,8.14,4.77,10.57a6.89,6.89,0,0,0,9.32-1c2.9-3.22,2.93-7.67,2.05-11.67-1.18-5.39-3-10.67-4.58-15.95a70.08,70.08,0,0,1-2.21-8.23l-.25.08c0,.11,0,.2,0,.31a70.31,70.31,0,0,0,2.09,7.91c.8,2.71,1.58,5.41,2.38,8.11,1.48,5,4,11.06,2,16.29a8.07,8.07,0,0,1-4.92,5,7.08,7.08,0,0,1-6.73-2c-4-3.76-3.77-9.57-3.54-14.61a56.1,56.1,0,0,0-.67-13.33,22.85,22.85,0,0,0-1.06-3.68l-.21.1A34.24,34.24,0,0,1,151.82,310.45ZM131.75,336.2c2.79.53,6.05.17,8-2.16,2.69-3.26,1.37-8-.11-11.46-1.58-3.71-3.87-7.06-5.64-10.67a1.59,1.59,0,0,0-.27.18c.68,1.39,1.43,2.73,2.19,4.05,2.46,4.33,6.09,9.9,4.84,15.13-1.06,4.45-5.76,5.45-9.67,4.44-6.48-1.65-9.47-7.71-13.75-12.26l-.24.18C121.61,328.39,124.69,334.83,131.75,336.2ZM95.61,353.37a.93.93,0,0,0,0,.24,6.29,6.29,0,0,0,2.22-.6c3.71-1.76,5.58-5.91,8.81-8.31,4-2.93,9.58-4.09,14-1.55,4.13,2.37,6.51,7.26,4.86,11.86-1.44,4-5,6.76-8,9.65a21.33,21.33,0,0,0-6,9.54,1,1,0,0,0,.27.14,20.52,20.52,0,0,1,5.25-8.81c2.67-2.75,5.87-5.16,7.8-8.52a9.72,9.72,0,0,0,.11-10,11.35,11.35,0,0,0-9.29-5.56,15,15,0,0,0-11,4.48C102.11,348.59,99.73,353,95.61,353.37Z" style="fill:#455a64"></path><path d="M181.53,365s-3.07,2.06-7.68,4.61c-8.16-9.76-25.43-27.5-26-28.13Z" style="fill:#37474f"></path><path d="M124.83,317.86c-2.16,1.5-4.26,3.1-6.39,4.64s-4.27,2.95-6.27,4.6-4,3.49-5.87,5.3c-.92.88-1.84,1.76-2.73,2.67A24.94,24.94,0,0,0,101,337.9c-.07.1.07.21.16.15a28.45,28.45,0,0,0,2.9-2.36c1-.85,2-1.72,3-2.57,1.94-1.66,3.93-3.27,5.87-4.93s3.72-3.45,5.63-5.12,4.2-3.45,6.32-5.14C124.91,317.9,124.88,317.83,124.83,317.86Z" style="fill:#37474f"></path><path d="M326.5,401c-2,2.46-3.86,5.09-5.72,7.67s-3.72,5.18-5.56,7.79c-3.68,5.22-7.39,10.41-11,15.68-2,2.9-3.93,5.81-5.76,8.81-.08.13.14.26.23.15,4-5,7.61-10.24,11.28-15.46s7.34-10.46,10.94-15.73c2-2.89,4-5.77,5.79-8.77C326.78,401,326.59,400.87,326.5,401Z" style="fill:#37474f"></path><path d="M238,404.4c-5.59-4.41-11.38-8.56-17.17-12.69s-11.53-8.23-17.37-12.21c-1.68-1.15-3.38-2.27-5.07-3.39s-3.45-2.16-5.1-3.33c-.1-.07-.18.09-.09.16,1.52,1.09,3,2.31,4.45,3.44s2.84,2.17,4.28,3.24c2.8,2.08,5.63,4.11,8.46,6.16,5.74,4.14,11.52,8.24,17.35,12.24,3.32,2.28,6.62,4.56,10,6.72C237.9,404.87,238.14,404.55,238,404.4Z" style="fill:#37474f"></path><path d="M273.85,358.08c-5.16-4.28-10.69-8.13-16.1-12.08s-10.92-8-16.42-12L225,322.17c-5.28-3.82-10.54-7.7-16.12-11.09q-4.59-2.77-9.41-5.11a60.81,60.81,0,0,0-9.72-4c-.1,0-.15.12-.06.17,2.75,1.54,5.64,2.83,8.42,4.31s5.46,3,8.13,4.62c5.54,3.36,10.77,7.18,16,11,10.92,7.85,21.81,15.73,32.8,23.47,6.15,4.33,12.18,8.9,18.56,12.88C273.8,358.54,274,358.23,273.85,358.08Z" style="fill:#37474f"></path></g></svg>
