<svg xmlns="http://www.w3.org/2000/svg" viewBox="0 0 500 500"><g id="freepik--chart-2--inject-207"><rect x="285.4" y="432.87" width="24.67" height="40.37" transform="translate(595.47 906.12) rotate(180)" style="fill:#0EA2BD"></rect><rect x="384.88" y="404.75" width="24.67" height="68.49" transform="translate(794.42 878) rotate(180)" style="fill:#0EA2BD"></rect><rect x="434.61" y="448.36" width="24.67" height="24.88" transform="translate(893.89 921.6) rotate(180)" style="fill:#0EA2BD"></rect><rect x="335.14" y="413.69" width="24.67" height="59.55" transform="translate(694.94 886.93) rotate(180)" style="fill:#0EA2BD"></rect><rect x="235.67" y="399.04" width="24.67" height="74.2" transform="translate(496 872.29) rotate(180)" style="fill:#0EA2BD"></rect><rect x="185.93" y="377.8" width="24.67" height="95.45" transform="translate(396.53 851.04) rotate(180)" style="fill:#0EA2BD"></rect><rect x="136.19" y="354.13" width="24.67" height="119.11" transform="translate(297.06 827.38) rotate(180)" style="fill:#0EA2BD"></rect><rect x="86.46" y="322.04" width="24.67" height="151.2" transform="translate(197.58 795.28) rotate(180)" style="fill:#0EA2BD"></rect><rect x="36.72" y="274.49" width="24.67" height="198.76" transform="translate(98.11 747.73) rotate(180)" style="fill:#0EA2BD"></rect></g><g id="freepik--Arrows--inject-207"><path d="M416.15,446.49a49.17,49.17,0,0,0-41.71-26.2c10.45-11.57,12.51-29.47,6.48-43.85s-19.3-25.11-34.2-29.73-31.19-3.54-46,1.24c1.73-11.24-9.52-22.47-20.76-20.72a10.82,10.82,0,0,0-10.63-18.76L270,226H221l.66,82.43A10.82,10.82,0,0,0,211,327.23c-11.24-1.75-22.49,9.48-20.77,20.72-14.84-4.78-31.14-5.87-46-1.24S116,362.05,110,376.44s-4,32.28,6.49,43.85a49.19,49.19,0,0,0-41.72,26.2c-4.56,8.92-5,22.09,3.88,26.75H412.27C421.14,468.58,420.72,455.41,416.15,446.49Z" style="fill:#ebebeb"></path><path d="M78.62,473.24l-1.19-.71a12.64,12.64,0,0,1-3-2.82,15.2,15.2,0,0,1-2.59-6.15,24.38,24.38,0,0,1,.11-9.19,31,31,0,0,1,4.26-10.78,47.17,47.17,0,0,1,8.91-10.7,49.78,49.78,0,0,1,13.54-8.73l2-.85,2.08-.73a22,22,0,0,1,2.14-.65c.73-.2,1.45-.43,2.2-.59a51.18,51.18,0,0,1,9.33-1.21l-.12.26a38.41,38.41,0,0,1-7.27-12.15,44.06,44.06,0,0,1,4.2-38.53,46,46,0,0,1,5.26-7,58.12,58.12,0,0,1,31.9-17.84,72.72,72.72,0,0,1,19.73-1.16,88.88,88.88,0,0,1,20.12,4l-.3.26a16.5,16.5,0,0,1,.86-8.06,20.66,20.66,0,0,1,11.53-11.88A16.65,16.65,0,0,1,211,327l-.18.44a11.07,11.07,0,0,1,10.87-19.19l-.35.23c-.22-26.25-.44-53.93-.67-82.43v-.26h49.52V226c-.23,28.43-.46,56-.67,82.43l-.35-.23a11.07,11.07,0,0,1,10.87,19.19l-.18-.44a16.54,16.54,0,0,1,8.54,1A20.62,20.62,0,0,1,300,339.78a16.45,16.45,0,0,1,.9,8.21l-.3-.26a88.88,88.88,0,0,1,20.12-4,72.9,72.9,0,0,1,19.7,1.15,58.25,58.25,0,0,1,31.89,17.79,47.26,47.26,0,0,1,5.27,7,44.24,44.24,0,0,1,3.84,7.58,43.18,43.18,0,0,1,2.27,7.95,46.33,46.33,0,0,1,.75,8,44,44,0,0,1-2.6,15,38.36,38.36,0,0,1-7.3,12.2l-.11-.26a51.29,51.29,0,0,1,9.34,1.21c.74.17,1.47.4,2.2.59a21.26,21.26,0,0,1,2.14.66l2.09.73,2,.85a49.76,49.76,0,0,1,13.56,8.74,47.63,47.63,0,0,1,8.9,10.71,31.21,31.21,0,0,1,4.25,10.78,24.49,24.49,0,0,1,.09,9.18,15.29,15.29,0,0,1-2.59,6.14,12.34,12.34,0,0,1-3,2.81c-.78.48-1.19.71-1.19.71l1.17-.75a12.65,12.65,0,0,0,2.91-2.82,15.26,15.26,0,0,0,2.53-6.12,24.46,24.46,0,0,0-.13-9.12,31,31,0,0,0-4.26-10.71,47.21,47.21,0,0,0-8.89-10.62,49.56,49.56,0,0,0-13.5-8.67l-2-.84-2.08-.72a21.9,21.9,0,0,0-2.13-.66c-.73-.19-1.45-.41-2.19-.58a51.52,51.52,0,0,0-9.28-1.19h-.33l.22-.25a38.14,38.14,0,0,0,7.21-12.1,43.65,43.65,0,0,0,2.56-14.91,47.47,47.47,0,0,0-.75-7.92,42.5,42.5,0,0,0-2.27-7.88,44.28,44.28,0,0,0-3.81-7.52A47.71,47.71,0,0,0,372,363a57.8,57.8,0,0,0-31.67-17.63,72.5,72.5,0,0,0-19.59-1.13,88.43,88.43,0,0,0-20,4l-.36.11.05-.37a16,16,0,0,0-.88-8,20.14,20.14,0,0,0-11.32-11.48,16.07,16.07,0,0,0-8.3-1l-1.05.17.88-.61a10.58,10.58,0,0,0-10.39-18.33l-.35.16v-.39c.21-26.41.42-54,.65-82.43l.26.26H221l.26-.26c.22,28.5.44,56.17.65,82.43v.39l-.36-.16A10.58,10.58,0,0,0,211.12,327l.88.61-1.06-.17a16.11,16.11,0,0,0-8.39,1,20,20,0,0,0-6.92,4.69c-3.87,4-6,9.54-5.19,14.73l.06.37-.36-.11a88,88,0,0,0-20-4,73,73,0,0,0-19.6,1.13A57.79,57.79,0,0,0,118.83,363a47.26,47.26,0,0,0-5.23,6.92,42.8,42.8,0,0,0-3.8,7.52,43.78,43.78,0,0,0-.42,30.68,38.29,38.29,0,0,0,7.2,12.06l.22.25h-.34a51.41,51.41,0,0,0-9.26,1.19c-.74.16-1.46.39-2.19.58s-1.43.39-2.13.65l-2.07.72-2,.84a49.51,49.51,0,0,0-13.5,8.65,47.81,47.81,0,0,0-8.9,10.62,31.24,31.24,0,0,0-4.27,10.71,24.54,24.54,0,0,0-.14,9.13,15.17,15.17,0,0,0,2.53,6.13,12.33,12.33,0,0,0,2.92,2.83Z" style="fill:#263238"></path><polygon points="181.88 113.04 243.59 41.21 302.89 113.04 279.75 113.04 279.75 230.2 207.91 230.2 207.91 113.17 181.88 113.04" style="fill:#0EA2BD"></polygon><polygon points="474.98 229.77 431.29 243.2 441.9 249.89 471.29 268.18 480.74 274.09 474.98 229.77" style="fill:#0EA2BD"></polygon><polygon points="277.82 457.14 251.49 443.98 313.94 347.46 339.3 371.77 388.9 292.97 413.66 311.14 458.15 238.57 473.11 245.56 418.4 343.62 390.69 317.75 343.37 406.02 318.47 376.89 277.82 457.14" style="fill:#0EA2BD"></polygon><g style="opacity:0.30000000000000004"><path d="M303.59,432.26c-6-4-13.74-4.4-20.79-3-2.33.46-4.91,1.06-6.95-.15s-2.72-3.75-3.52-6c-4.12-11.32-15.42-19.08-27.31-21.06s-21.43-1-32.2,4.37a46.42,46.42,0,0,0-18.72,16.13c-1.61,2.41-4.54,7.32-4.54,7.32-2.15,1.58-5,1.69-7.64,2.12a28.6,28.6,0,0,0-22.73,21.4L310.25,451C313.09,444.36,309.58,436.23,303.59,432.26Z"></path></g><path d="M150.92,463.28c4.72-16.73,23.33-28.21,40.4-24.91,3.59-18.2,21-32.65,39.59-32.8s36.23,14,40.11,32.17c10.25-2.36,21.27-4.11,31.06-.26s17.28,15.33,13.23,25" style="fill:#ebebeb"></path><path d="M315.31,462.52s0-.1.08-.29.15-.47.26-.83A6.64,6.64,0,0,0,316,460a10.08,10.08,0,0,0,.27-1.93,18.51,18.51,0,0,0-3.64-12,24.46,24.46,0,0,0-6.48-6.27,26.21,26.21,0,0,0-9.86-3.8,44.85,44.85,0,0,0-12.05-.36A99.66,99.66,0,0,0,271.07,438l-.23,0,0-.23a40.44,40.44,0,0,0-11.55-20.19,42.15,42.15,0,0,0-22.86-11.36,36.64,36.64,0,0,0-16.24,1.31,43.17,43.17,0,0,0-23.58,18.25,38.79,38.79,0,0,0-5,12.61l0,.21-.22,0a32.89,32.89,0,0,0-11.05-.14,36,36,0,0,0-5,1.13l-2.33.81c-.78.25-1.48.64-2.21.94a42.58,42.58,0,0,0-4,2.11l-1.79,1.2-.88.59-.8.64-1.56,1.25c-.5.41-.94.88-1.4,1.3s-.9.84-1.3,1.28l-1.14,1.3a34.76,34.76,0,0,0-5.54,8.82c-.48,1.11-.73,2-1,2.58s-.33.89-.33.89.32-1.25,1.17-3.52a34.33,34.33,0,0,1,5.46-8.93l1.15-1.33c.4-.44.86-.85,1.3-1.29s.89-.9,1.4-1.32l1.56-1.27c.27-.22.53-.44.81-.65l.87-.6,1.81-1.22a41.91,41.91,0,0,1,4.06-2.15c.73-.31,1.44-.71,2.22-1l2.36-.83a36.08,36.08,0,0,1,5.07-1.16,33,33,0,0,1,11.2.1l-.26.18a39,39,0,0,1,5.06-12.78,43.08,43.08,0,0,1,9.89-11.08A43.6,43.6,0,0,1,220,407.05a37.07,37.07,0,0,1,16.47-1.32,42.52,42.52,0,0,1,23.13,11.5,40.94,40.94,0,0,1,11.66,20.47l-.29-.18a100.2,100.2,0,0,1,13.25-2.27,44.79,44.79,0,0,1,12.16.41,26.34,26.34,0,0,1,10,3.9,24.68,24.68,0,0,1,6.52,6.39,18.48,18.48,0,0,1,3.56,12.15,10.92,10.92,0,0,1-.31,1.95,7.21,7.21,0,0,1-.39,1.37c-.13.35-.23.62-.3.83A1.23,1.23,0,0,1,315.31,462.52Z" style="fill:#263238"></path></g><g id="freepik--chart-1--inject-207"><path d="M221.26,205.86c.64,40.17-31.37,73.37-71.35,74s-73-31.51-73.67-71.68,31.36-73.37,71.34-74S220.62,165.7,221.26,205.86Zm-107.18,1.73a34.67,34.67,0,1,0,34.11-35.39A34.78,34.78,0,0,0,114.08,207.59Z" style="fill:#e0e0e0"></path><path d="M221.26,205.86c.64,40.17-31.37,73.37-71.35,74l-.61-38a34.83,34.83,0,0,0-1.11-69.66l-.61-38C187.56,133.54,220.61,165.7,221.26,205.86Z" style="fill:#455a64"></path><path d="M149.42,280.38l-.62-39h.5a34.35,34.35,0,0,0,23.21-59,33.91,33.91,0,0,0-24.31-9.68h-.5l-.63-39h.5a73.26,73.26,0,0,1,74.19,72.16c.64,40.45-31.58,73.88-71.84,74.53Zm.39-38,.59,37c39.48-.91,71-33.78,70.36-73.5a72.27,72.27,0,0,0-72.67-71.19l.59,37a35.34,35.34,0,0,1,1.13,70.65Z" style="fill:#455a64"></path><path d="M156.42,285.72c-46.77.76-84.09-35.54-84.84-82.54l44.27-.71c.36,22.47,17.46,36.61,39.82,36.25Z" style="fill:#0EA2BD"></path><path d="M97,204c.28.19-3.9,6.76-9.34,14.65s-10.09,14.15-10.37,14,3.91-6.76,9.35-14.66S96.73,203.76,97,204Z" style="fill:#263238"></path><path d="M116.26,207.65c.28.2-5.91,9.67-13.82,21.16s-14.57,20.64-14.85,20.45,5.91-9.66,13.83-21.15S116,207.46,116.26,207.65Z" style="fill:#263238"></path><path d="M125.62,227.34c.29.19-5.29,8.77-12.44,19.15S100,265.13,99.72,264.94s5.29-8.77,12.44-19.15S125.34,227.14,125.62,227.34Z" style="fill:#263238"></path><path d="M141.92,238.23c.28.19-5.29,8.76-12.44,19.15S116.3,276,116,275.83s5.29-8.77,12.45-19.16S141.64,238,141.92,238.23Z" style="fill:#263238"></path><path d="M155.88,252c.29.2-4.27,7.29-10.16,15.85S134.81,283.23,134.53,283s4.27-7.29,10.17-15.85S155.6,251.85,155.88,252Z" style="fill:#263238"></path></g><g id="freepik--Character--inject-207"><path d="M386.76,67.16s4.37-10.06,4.58-11.64-.22-5.07-1.35-6a3.07,3.07,0,0,0-3.6-.49,3,3,0,0,0-2.4-2.61A1.63,1.63,0,0,0,381.82,48a1.92,1.92,0,0,0-1.52-1.94,2.88,2.88,0,0,0-1.7.25s-2.13-1.9-3.56-.72.22,19.51.22,19.51Z" style="fill:#ffbf9d"></path><path d="M375,63s-3.9-6.71-3.88-8.54,2.21-6,3.43-6.5,6-1.61,6-1.61,2,1.85-.95,3.68L376.26,52s5.36,1.79,5.19,7.27" style="fill:#ffbf9d"></path><path d="M381.45,59.22a13.57,13.57,0,0,0-.5-2.54,7.32,7.32,0,0,0-1.57-2.46,8.85,8.85,0,0,0-3.19-2.06l-.45-.17.41-.23,3.4-2a3.09,3.09,0,0,0,1.31-1.44,1.75,1.75,0,0,0-.48-1.79l.23.06-2.57.61-2,.53c-.33.1-.66.19-1,.3a3.86,3.86,0,0,0-.45.17,2.3,2.3,0,0,0-.35.25,11.18,11.18,0,0,0-2,3.13,11.07,11.07,0,0,0-.65,1.63,3.67,3.67,0,0,0-.21,1.57,14.73,14.73,0,0,0,1,2.81c.76,1.69,1.46,3,1.93,3.95A12.14,12.14,0,0,1,375,63a8.54,8.54,0,0,1-.88-1.35c-.52-.9-1.27-2.21-2.08-3.9a14.06,14.06,0,0,1-1.09-2.89,3.94,3.94,0,0,1,.19-1.77,14.93,14.93,0,0,1,.65-1.71,11.43,11.43,0,0,1,2.14-3.3,2.32,2.32,0,0,1,.47-.33,4.73,4.73,0,0,1,.5-.2c.33-.11.67-.21,1-.3q1-.28,2-.54l2.59-.61.14,0,.09.09a2.26,2.26,0,0,1,.61,2.34,3.61,3.61,0,0,1-1.53,1.69l-3.45,1.92,0-.4a9,9,0,0,1,3.3,2.23,7.1,7.1,0,0,1,1.56,2.63,6.13,6.13,0,0,1,.24,1.1,3.7,3.7,0,0,1,.06.83A2.66,2.66,0,0,1,381.45,59.22Z" style="fill:#ff9a6c"></path><path d="M381.42,48.13a17.34,17.34,0,0,0-.57,6A3,3,0,0,0,381.5,56a2,2,0,0,0,1.8.52,3.25,3.25,0,0,0,1.67-1" style="fill:#ffbf9d"></path><path d="M385,55.6s-.32.69-1.43,1.09a2.27,2.27,0,0,1-2-.3,3,3,0,0,1-.94-2.28,11.91,11.91,0,0,1,.84-6,34.49,34.49,0,0,0-.32,5.94,2.66,2.66,0,0,0,.72,1.94,2,2,0,0,0,1.62.33A7.23,7.23,0,0,0,385,55.6Z" style="fill:#ff9a6c"></path><path d="M377.13,51.75a4.06,4.06,0,0,0-.16,2.19,2.25,2.25,0,0,0,1.53,2.13c.76.18,1.74-.83,2.19-1.89" style="fill:#ffbf9d"></path><path d="M380.69,54.18c.05,0,0,.5-.47,1.13a2.81,2.81,0,0,1-1,.92,1.24,1.24,0,0,1-.91,0,1.94,1.94,0,0,1-.79-.5,2.7,2.7,0,0,1-.72-1.54,12.57,12.57,0,0,1,0-1.32c0-.79.37-1.19.41-1.16s-.09.47,0,1.16l.14,1.25a2.47,2.47,0,0,0,.62,1.25,1.67,1.67,0,0,0,.58.38.75.75,0,0,0,.57,0,2.68,2.68,0,0,0,.93-.7C380.41,54.56,380.61,54.15,380.69,54.18Z" style="fill:#ff9a6c"></path><path d="M386.75,49.12a10.19,10.19,0,0,0-2.33,4.2,2.34,2.34,0,0,0,.33,2.38,2.11,2.11,0,0,0,2.47-.09,4.93,4.93,0,0,0,2.22-3.24" style="fill:#ffbf9d"></path><path d="M389.44,52.37a3.11,3.11,0,0,1-.64,2,4.76,4.76,0,0,1-1.69,1.6,3,3,0,0,1-1.38.37,1.67,1.67,0,0,1-1.42-.74,2.3,2.3,0,0,1-.29-1.53,5.75,5.75,0,0,1,.33-1.33,9.32,9.32,0,0,1,1-2,4.51,4.51,0,0,1,1.39-1.55c.06.06-.47.65-1.08,1.74a10.63,10.63,0,0,0-.86,2,5.11,5.11,0,0,0-.28,1.23,1.94,1.94,0,0,0,.21,1.2c.45.71,1.48.57,2.15.22a4.69,4.69,0,0,0,1.6-1.38A11.89,11.89,0,0,0,389.44,52.37Z" style="fill:#ff9a6c"></path><path d="M332.47,131.59s5.42-5.85,7.56-7.16,16.24-18.12,17.73-22.54,15.32-39.93,15-39.45,17.56,3.75,17.56,3.75-13.25,41-14.87,45.64c-2.92,8.49-17.39,25.68-25.63,36-3.52,4.39-8.38,18.45-8.38,18.45Z" style="fill:#263238"></path><path d="M345.39,153.64a17.61,17.61,0,0,1-.51-3.21c-.23-2-.44-4.76-.49-7.82s.06-5.84.22-7.84a19,19,0,0,1,.4-3.23,22.87,22.87,0,0,1,0,3.25c-.07,2-.12,4.76-.07,7.81s.2,5.8.34,7.8A22.28,22.28,0,0,1,345.39,153.64Z" style="fill:#455a64"></path><path d="M256,362.36l-7.62,15.53-1,3.8s5.09,23.07,1.91,25.35l-22.68-36.61,5.84-3.68,7.27-15.52Z" style="fill:#455a64"></path><path d="M226.67,370.43l2.87-1.65,20.67,35.72s.34,2.05-.86,2.54Z" style="fill:#263238"></path><path d="M248,382.17c-.18.1-.81-.74-1.9-1.29s-2.09-.56-2.12-.77,1.11-.55,2.41.13S248.16,382.11,248,382.17Z" style="fill:#263238"></path><path d="M248.86,387c-.14.14-.91-.45-2-.62s-2,.14-2.06,0,.79-.9,2.14-.67S249,386.84,248.86,387Z" style="fill:#263238"></path><path d="M245.86,391.84c-.14-.14.56-.92,1.77-1s2.09.49,2,.65-.91,0-1.9.07S246,392,245.86,391.84Z" style="fill:#263238"></path><path d="M333.72,248.11c-.74,1.76-39,60.33-46.85,66.84s-34.64,59.93-34.64,59.93-21.89-10.61-22.38-9.46,15.35-37.71,24.8-53.67,13.86-22.13,13.86-22.13l18.8-50.13s.39-16.51,2.8-22.93,9.49-12,9.49-12Z" style="fill:#263238"></path><path d="M299.26,318.89l-20.35,1.46s-5.22,22.29-9,22.95l-4.48-41.5,31.6-3.64Z" style="fill:#455a64"></path><path d="M279.24,307.33a1.61,1.61,0,0,0-2-1,1.65,1.65,0,0,0-.92,2,1.7,1.7,0,0,0,2.08,1,1.73,1.73,0,0,0,.73-2.22" style="fill:#e0e0e0"></path><path d="M265.48,301.8l3.2-.23,3.09,39.87s-.56,1.93-1.81,1.86Z" style="fill:#263238"></path><path d="M279.19,321c-.2,0-.39-1-1.12-1.92s-1.59-1.37-1.53-1.57,1.2,0,2.06,1.13S279.37,321,279.19,321Z" style="fill:#263238"></path><path d="M278,325.54c-.18.06-.6-.78-1.49-1.38s-1.77-.7-1.78-.9,1.06-.45,2.15.31S278.13,325.51,278,325.54Z" style="fill:#263238"></path><path d="M273.28,328.55c-.06-.18.87-.57,2-.16s1.62,1.3,1.47,1.41-.77-.42-1.69-.74S273.32,328.75,273.28,328.55Z" style="fill:#263238"></path><path d="M283.78,320.12c-.18-.06,0-1-.21-2.16s-.64-2-.49-2.12.94.66,1.15,2S284,320.2,283.78,320.12Z" style="fill:#263238"></path><path d="M281.44,232.75s-.05,19.52,8.81,26.11,39.58,31.39,39.58,31.39l-49.05,8.38,3.67,22.74s66.21-6.68,74.31-9.39,13.93-16.42,7.59-26c-3.19-4.78-36.15-51.64-36.15-51.64l-1-12.57-41.55,2.62Z" style="fill:#263238"></path><path d="M284.45,321.37a2.08,2.08,0,0,1-.09-.39c-.06-.3-.13-.69-.22-1.18-.19-1.07-.45-2.58-.78-4.52-.66-4-1.61-9.64-2.77-16.62l0-.19.19,0,44.78-7.72,4.25-.73-.12.46c-6.91-5.71-13.48-11.09-19.47-15.92l-8.52-6.8c-2.67-2.11-5.24-4-7.36-6a50.54,50.54,0,0,1-8.73-10.48,31.06,31.06,0,0,1-1.77-3.26c-.19-.38-.31-.68-.39-.88a1.1,1.1,0,0,1-.1-.31,1.71,1.71,0,0,1,.15.29c.09.2.23.49.43.86a35.41,35.41,0,0,0,1.84,3.19,52.47,52.47,0,0,0,8.81,10.33c2.12,1.95,4.69,3.81,7.37,5.92s5.56,4.36,8.56,6.76c6,4.82,12.6,10.18,19.51,15.89l.44.36-.56.09-4.25.73-44.8,7.59.16-.22c1.09,7,2,12.68,2.59,16.64.29,1.95.52,3.47.68,4.54.07.5.12.89.16,1.19A1.72,1.72,0,0,1,284.45,321.37Z" style="fill:#455a64"></path><path d="M343.06,291.66c0,.15-2.91-.7-6.55-1.08s-6.63-.17-6.64-.33a6.53,6.53,0,0,1,1.95-.29,28,28,0,0,1,4.74.11,26.87,26.87,0,0,1,4.66.89A6,6,0,0,1,343.06,291.66Z" style="fill:#455a64"></path><path d="M312.78,69A4.57,4.57,0,0,1,317,65.88a6.22,6.22,0,0,1,7.58-1.23,5.55,5.55,0,0,1,9,3,4.75,4.75,0,0,1,5.2,1.55,4.81,4.81,0,0,1,.19,5.45,4.48,4.48,0,0,1-.29,8.91L314.53,74A4.6,4.6,0,0,1,312.78,69Z" style="fill:#263238"></path><path d="M339.5,84.06a19,19,0,0,0-21.66-13.83l-1,.17c-10.27,2.5-11.8,12.71-9,23L315.81,132h0l19.1,11.35,2.3-8.43,0-13.74s9.7-3.37,8-13.43C344.36,102.84,341.86,93,339.5,84.06Z" style="fill:#ffbf9d"></path><path d="M337.26,121.1a24.53,24.53,0,0,1-13.77-1.47s3.91,7.22,13.7,4.5Z" style="fill:#ff9a6c"></path><path d="M338.26,93.52a1.44,1.44,0,0,1-1.11,1.69,1.38,1.38,0,0,1-1.7-1,1.45,1.45,0,0,1,1.11-1.7A1.38,1.38,0,0,1,338.26,93.52Z" style="fill:#263238"></path><path d="M338.45,89.85c-.15.22-1.37-.39-2.9-.1S333,91,332.83,90.85s0-.44.45-.89a3.88,3.88,0,0,1,2.13-1.11,3.77,3.77,0,0,1,2.35.32C338.3,89.44,338.52,89.75,338.45,89.85Z" style="fill:#263238"></path><path d="M324.87,96.54a1.45,1.45,0,0,1-1.11,1.7,1.39,1.39,0,0,1-1.7-1,1.44,1.44,0,0,1,1.11-1.69A1.38,1.38,0,0,1,324.87,96.54Z" style="fill:#263238"></path><path d="M323.74,92.3c-.15.22-1.37-.38-2.9-.1s-2.52,1.26-2.72,1.1,0-.44.44-.89a4,4,0,0,1,2.14-1.11,3.78,3.78,0,0,1,2.35.32C323.59,91.9,323.81,92.2,323.74,92.3Z" style="fill:#263238"></path><path d="M330.86,102.82a10,10,0,0,1,2.41-.91c.39-.11.74-.25.76-.53a2,2,0,0,0-.47-1.12l-1.71-2.79c-2.38-4-4.18-7.28-4-7.38s2.22,3.06,4.6,7c.58,1,1.14,1.92,1.66,2.82a2.34,2.34,0,0,1,.49,1.51,1,1,0,0,1-.54.69,2.62,2.62,0,0,1-.65.22A10.77,10.77,0,0,1,330.86,102.82Z" style="fill:#263238"></path><path d="M326.54,104.71c.25-.06.56,1.61,2.2,2.54s3.38.42,3.43.65-.33.4-1.08.56a4.24,4.24,0,0,1-2.85-.45,3.72,3.72,0,0,1-1.73-2.16C326.32,105.16,326.43,104.72,326.54,104.71Z" style="fill:#263238"></path><path d="M323,87.89c-.11.44-1.5.32-3.1.64s-2.88.89-3.11.52c-.11-.17.09-.59.59-1A4.9,4.9,0,0,1,319.61,87a4.6,4.6,0,0,1,2.46.18C322.68,87.37,323,87.69,323,87.89Z" style="fill:#263238"></path><path d="M337.33,85.69c-.17.41-1.3.33-2.56.65s-2.24.85-2.58.55c-.15-.14-.08-.53.3-1a3.79,3.79,0,0,1,4.14-1C337.16,85.17,337.4,85.49,337.33,85.69Z" style="fill:#263238"></path><path d="M337.7,79.63s-3.77-5.81-7.05-6.72c-4-1.12-4.81,3.2-8.47,2.85s-7.44-1.42-10.51,1.93c-3.35,3.67-1.15,5.41-.58,9.91,2.3,18.23,0,23.94-2.52,15.6-.27-.91-3-1.19-4.08-5.06-1.42-5-2.74-11.17-2.26-15,.4-3.23,1.74-5.65,4.43-8.54,4.23-4.57,10.95-5.87,15.6-6.24S336.69,71.69,337.7,79.63Z" style="fill:#263238"></path><path d="M310.42,102.58a2.76,2.76,0,0,0-3.4-2.09c-1.83.51-3.71,2-2.89,5.8,1.47,6.82,8,3.95,7.95,3.75S311.06,105.43,310.42,102.58Z" style="fill:#ffbf9d"></path><path d="M310.05,107.79s-.1.11-.28.25a1.21,1.21,0,0,1-.88.2A3,3,0,0,1,307,105.9a4,4,0,0,1,0-1.78,1.39,1.39,0,0,1,.69-1.1.62.62,0,0,1,.77.18c.13.17.12.31.15.32s.12-.15,0-.42a.79.79,0,0,0-.36-.37.9.9,0,0,0-.69,0,1.72,1.72,0,0,0-1,1.32,4.18,4.18,0,0,0,0,2,3.17,3.17,0,0,0,2.36,2.58,1.28,1.28,0,0,0,1-.42C310.07,108,310.08,107.8,310.05,107.79Z" style="fill:#ff9a6c"></path><path d="M306.87,89.49a6.54,6.54,0,0,0,3.14.82,2.27,2.27,0,0,0,2.18-2c0-.49-.22-1,0-1.45s1-.49,1.59-.53a4.43,4.43,0,0,0,3.95-4,1.84,1.84,0,0,0,2.49-.21,10.16,10.16,0,0,0,1.5-2.34,2.82,2.82,0,0,1,2.13-1.6,6.65,6.65,0,0,0,1.54.06c.88-.24,1.13-1.38,1.1-2.3s-.11-2,.56-2.6a3.56,3.56,0,0,1,2.43-.51c.84,0,1.87-.42,1.94-1.27a1.68,1.68,0,0,0-.53-1.19,4.47,4.47,0,0,0-5.53-.73,6.06,6.06,0,0,0-11.21.83,6.15,6.15,0,0,0-9.31,4,4.56,4.56,0,0,0-4.32,2.41,4.64,4.64,0,0,0,.52,4.94,4.25,4.25,0,0,0-1.69,3.77c.23,1.42,1.86,2.59,3.16,2a2.6,2.6,0,0,0,1.54,3,2.57,2.57,0,0,0,3.12-1.37" style="fill:#263238"></path><path d="M302,87.62a1.73,1.73,0,0,0,.67,1.25,2.23,2.23,0,0,0,1.51.57,2.43,2.43,0,0,0,1.85-.92h-.3A6.86,6.86,0,0,0,307.42,90a4,4,0,0,0,1.39.55,2.68,2.68,0,0,0,1.39-.12A2.75,2.75,0,0,0,312,88.93a4.08,4.08,0,0,0,.29-1.53c0-.37,0-.57-.05-.57a2.1,2.1,0,0,0-.11.55,4.5,4.5,0,0,1-.39,1.42,2.81,2.81,0,0,1-4.08.85A7.15,7.15,0,0,1,306,88.28l-.16-.18-.14.19a2.11,2.11,0,0,1-1.55.82,2,2,0,0,1-1.35-.43A3.37,3.37,0,0,1,302,87.62Z" style="fill:#455a64"></path><path d="M312.07,69.61s.19,0,.51.09a2.37,2.37,0,0,1,1.23.71l.1.12.07-.15a8.72,8.72,0,0,1,2.82-3.28A6.53,6.53,0,0,1,319.37,66a5.51,5.51,0,0,1,3,.3,5.74,5.74,0,0,1,2,1.33,4.77,4.77,0,0,1,1.13,1.93l.06.22.2-.1a3.79,3.79,0,0,1,4.75,1.22,5,5,0,0,1,.79,2,1.36,1.36,0,0,0,0-.58,3.83,3.83,0,0,0-.6-1.5,3.88,3.88,0,0,0-1.93-1.56,4.11,4.11,0,0,0-3.16.13l.25.12a4.93,4.93,0,0,0-1.2-2.11,6.05,6.05,0,0,0-5.41-1.75,7.05,7.05,0,0,0-2.7,1.18,8.42,8.42,0,0,0-2.81,3.48l.18,0a2.42,2.42,0,0,0-1.37-.68C312.25,69.54,312.07,69.59,312.07,69.61Z" style="fill:#455a64"></path><path d="M323.47,236.31c.95.08,4.2,1.23,8.42-6.58S340.16,193,340.16,193Z" style="fill:#e0e0e0"></path><path d="M341.68,181.85l.48-27.95-5.62-21.39s-3.93-6.16-8.22-9.29a26.35,26.35,0,0,0-9.31-4.56l-6.44-1.56-.69,5.34,18.69,21.44Z" style="fill:#e0e0e0"></path><path d="M312,119s15.38,1.32,22.82,19.91c4,10,6.43,36.75,6.9,40.93s-1.1,13.77-3.95,26.69c-.56,2.51-2.57,9.11-8.05,25.12-5.87,17.12-10.55,29.76-10.55,29.76l-49.18-19,24.46-42.9s-1.29-13.22-1.23-14.48c.47-9.83-1.44-15.36,1.81-34.25a46.82,46.82,0,0,1,5.85-16c3.1-5.21,5.39-6.77,10.65-10.69Z" style="fill:#263238"></path><polygon points="317.26 236.18 318.56 225.81 295.11 216.3 290.83 226.21 317.26 236.18" style="fill:#263238"></polygon><path d="M317.26,236.18l-.53-.23-1.5-.6-5.53-2.16L290.92,226l.15.34,3.64-8.39.65-1.52-.35.15L318.49,226l-.11-.19c-.35,3.15-.64,5.72-.84,7.55-.09.87-.16,1.56-.22,2.09s-.07.74-.06.75a4.34,4.34,0,0,0,.12-.67c.08-.51.18-1.18.3-2,.26-1.86.62-4.46,1.06-7.66l0-.14-.13-.05-23.42-9.59L295,216l-.1.24c-.21.5-.43,1-.65,1.51-1.26,2.92-2.48,5.75-3.62,8.41l-.11.25.25.09,19.06,7.06,5.51,2,1.46.52A2.54,2.54,0,0,0,317.26,236.18Z" style="fill:#455a64"></path><path d="M336.7,210a1.49,1.49,0,0,1-.07.27l-.24.77-1,3c-.87,2.61-2.1,6.32-3.63,10.88l-12.15,35.84-.26.76-.09.26-.25-.1-34.78-13.53-10.49-4.15-2.84-1.15-.73-.31-.25-.13.27.08.75.26,2.87,1.06,10.55,4,34.83,13.4-.34.16c.09-.24.17-.5.26-.76,4.8-14,9.15-26.6,12.31-35.8,1.58-4.54,2.87-8.23,3.78-10.83L336.3,211c.11-.31.21-.56.28-.76S336.69,210,336.7,210Z" style="fill:#455a64"></path><path d="M264.41,264.76s5.81-18.93,10.76-20.22,11.49-1.49,12.64,1.74a34.71,34.71,0,0,1,1.9,12.68,74.4,74.4,0,0,1-1.95,11.76l-5.05-1.57s4-19.22,2.93-22.37-9.41-2.39-10.94.88-6.39,18.3-6.39,18.3Z" style="fill:#455a64"></path><path d="M241.2,288.58c1.77-7.93,5.91-25.37,7.74-33a4,4,0,0,1,4.66-3L301,261.92a4,4,0,0,1,3.17,4.57l-5.35,32.94a4,4,0,0,1-4.69,3.29l-49.75-9.33A4,4,0,0,1,241.2,288.58Z" style="fill:#455a64"></path><path d="M299.29,274.06l-.06.35c-.05.25-.11.61-.2,1.06-.18.95-.45,2.32-.8,4.09l-3,15.11-.24,1.22a2.34,2.34,0,0,1-.52,1.2,2.23,2.23,0,0,1-1.15.71,2.83,2.83,0,0,1-1.36-.06l-5.42-1.05-12-2.31-13.21-2.57-7-1.36-3.57-.7-.9-.17a4.25,4.25,0,0,1-.93-.24,2.22,2.22,0,0,1-1.26-1.49,2.27,2.27,0,0,1,0-.86c0-.29.11-.53.16-.79l.33-1.55.66-3.07c.43-2,.86-4,1.28-6q1.28-5.93,2.45-11.41l0-.17.17,0c13.47,3.45,25.12,5.91,33.38,7.54,4.14.81,7.43,1.42,9.68,1.83l2.6.48.65.13.22.05-.24,0-.67-.1-2.58-.42c-2.26-.38-5.55-.95-9.69-1.74-8.29-1.56-19.95-4-33.44-7.41l.21-.13c-.77,3.65-1.59,7.47-2.43,11.42-.42,2-.85,4-1.28,6-.22,1-.44,2-.66,3.07l-.33,1.54a3.09,3.09,0,0,0-.12,1.49,1.91,1.91,0,0,0,1.05,1.25,3.61,3.61,0,0,0,.86.21l.9.18,3.57.7,7,1.36,13.22,2.59,12,2.35,5.42,1.07a2.63,2.63,0,0,0,1.24.06,1.93,1.93,0,0,0,1-.61,2.1,2.1,0,0,0,.46-1.08c.09-.41.17-.81.25-1.2,1.31-6.34,2.38-11.46,3.11-15,.38-1.77.67-3.15.87-4.1.1-.46.18-.82.23-1.08S299.29,274.06,299.29,274.06Z" style="fill:#263238"></path><path d="M281.62,292.49s.29.05.85.05a4.28,4.28,0,0,0,2.27-.74,4.4,4.4,0,0,0,1.82-3.23c.29-1.49.63-3.18,1-5.05.19-.94.38-1.92.58-2.94a4.24,4.24,0,0,0-.29-3.06,4,4,0,0,0-2.53-2c-1.14-.25-2.37-.48-3.6-.73l-16.09-3.22a4,4,0,0,0-3.74,1.23,3.84,3.84,0,0,0-.93,1.77l-.42,2-.8,4q-.19,1-.39,1.92a16.48,16.48,0,0,0-.32,1.86,4,4,0,0,0,1.3,3.17,4.12,4.12,0,0,0,1.46.84c.52.16,1.11.25,1.65.37l6.11,1.25,8.85,1.84,2.4.52.62.14.21.06-.22,0-.63-.11-2.41-.45-8.87-1.73L263.37,289c-.55-.12-1.1-.19-1.69-.36a4.23,4.23,0,0,1-1.57-.91,4.31,4.31,0,0,1-1.43-3.42,17.31,17.31,0,0,1,.33-1.91c.13-.63.25-1.27.38-1.92.26-1.29.53-2.61.8-4,.13-.67.27-1.35.41-2a4.33,4.33,0,0,1,1-1.93,4.39,4.39,0,0,1,4.08-1.35l16.09,3.25c1.23.26,2.43.48,3.61.75a4.3,4.3,0,0,1,2.72,2.21,4.53,4.53,0,0,1,.29,3.26c-.21,1-.41,2-.6,2.93-.38,1.86-.73,3.55-1,5-.08.37-.15.73-.25,1.08a4.2,4.2,0,0,1-.44.93,4.07,4.07,0,0,1-1.25,1.29,4.21,4.21,0,0,1-2.35.7A3.22,3.22,0,0,1,281.62,292.49Z" style="fill:#263238"></path><g style="opacity:0.30000000000000004"><path d="M248.79,289.14a77.17,77.17,0,0,0,43.41,8.43Z"></path></g><path d="M278.56,279.26,273,278.14a1.62,1.62,0,0,1-1.27-1.91h0a1.63,1.63,0,0,1,1.9-1.27l5.59,1.13a1.61,1.61,0,0,1,1.27,1.9h0A1.61,1.61,0,0,1,278.56,279.26Z" style="fill:#e0e0e0"></path><path d="M287.44,240.29a16.69,16.69,0,0,1,1.78,3.57,47.34,47.34,0,0,1,.12,6.77s-1.17.59-2.12-2.55a25.49,25.49,0,0,1-1.07-4.64Z" style="fill:#ffbf9d"></path><path d="M287.29,250.34l.22-9.91-3.82-7.33-12.12-.23-.43,12s1.78,5.15,2.63,6.12,2.55.25,2.55.25c.91,1.44,3.43.91,3.43.91,1.23,1.47,3.15.09,3.15.09s1.68,1.54,2.45,1.44a1.5,1.5,0,0,0,.82-.52A4.32,4.32,0,0,0,287.29,250.34Z" style="fill:#ffbf9d"></path><path d="M275.39,248.68c.11,0,.4.49.63,1.18s.34,1.29.22,1.33-.4-.5-.63-1.19S275.27,248.72,275.39,248.68Z" style="fill:#ff9a6c"></path><path d="M278.53,248.53a6.33,6.33,0,0,1,.63,1.84,6.52,6.52,0,0,1,.47,1.89,3.57,3.57,0,0,1-.89-1.76A3.52,3.52,0,0,1,278.53,248.53Z" style="fill:#ff9a6c"></path><path d="M282.11,248.85c.13,0,.22.76.4,1.67s.35,1.65.23,1.7-.49-.66-.67-1.62S282,248.85,282.11,248.85Z" style="fill:#ff9a6c"></path><path d="M287.37,243.54a16.94,16.94,0,0,1,.17,3.77,16.41,16.41,0,0,1-.27,3.75,32.23,32.23,0,0,1,.1-7.52Z" style="fill:#ff9a6c"></path><path d="M275.21,246.69s0,.18-.26.31a1.34,1.34,0,0,1-.95.15,1.36,1.36,0,0,1-.82-.52c-.15-.2-.16-.37-.11-.39s.44.37,1,.48S275.14,246.59,275.21,246.69Z" style="fill:#ff9a6c"></path><path d="M278.87,247.29s-.07.18-.31.3a1.77,1.77,0,0,1-1,.1,1.68,1.68,0,0,1-.91-.49c-.18-.21-.22-.37-.18-.41s.51.35,1.17.47S278.81,247.18,278.87,247.29Z" style="fill:#ff9a6c"></path><path d="M285.88,246.56c0-.06.28.26,0,.69a2.16,2.16,0,0,1-1.49.71,2.61,2.61,0,0,1-1.58-.36c-.35-.23-.49-.46-.45-.5a5.21,5.21,0,0,0,2,.42,2.38,2.38,0,0,0,1.29-.47C285.88,246.82,285.82,246.58,285.88,246.56Z" style="fill:#ff9a6c"></path><path d="M323.61,153.35c-4.76,5-34.32,34-34.32,34s-1.71,46.9-2.57,47.1-17.85-1.19-17.85-1.19-2.38-49.72-.4-55.39,27.26-38.82,27.81-39.51,3.45-5.76,13.12-8.25c11.33-2.9,16.09,2.53,18,8.1,1.64,4.8-1.49,12.26-3,14.26A9.5,9.5,0,0,1,323.61,153.35Z" style="fill:#263238"></path><path d="M323.61,153.35s.14-.2.44-.55a8.3,8.3,0,0,0,1.1-1.72,25.11,25.11,0,0,0,2.41-7.47,11.6,11.6,0,0,0-.36-5.58,13.93,13.93,0,0,0-3.57-5.63,11.35,11.35,0,0,0-3.14-2,13.47,13.47,0,0,0-3.85-.91,24.4,24.4,0,0,0-8.56,1.15,24.66,24.66,0,0,0-8.46,4.33,17.77,17.77,0,0,0-3.39,3.76L293,143c-4.33,5.77-8.93,12-13.66,18.55-2.35,3.3-4.76,6.7-7.08,10.24a51.58,51.58,0,0,0-3.27,5.49c-.1.25-.23.48-.32.73l-.15.77a9.23,9.23,0,0,0-.23,1.59l-.14,1.63-.08,1.64c-.31,8.81-.06,18,.19,27.32.23,7.6.52,15.05.85,22.27l-.24-.24,9.13.72,4.48.31,2.21.13,1.1.05h.77s.16,0,0,0,0,0,0,0a41.92,41.92,0,0,0,.47-4.27c.09-1.44.19-2.86.28-4.28q.24-4.24.46-8.34c.55-10.92,1-21,1.31-30v-.08l0-.06,25.14-24.76,6.89-6.74,1.8-1.75c.41-.39.63-.58.63-.58s-.19.22-.59.62l-1.76,1.79-6.81,6.82-25,24.89.06-.14c-.32,9-.71,19.07-1.24,30q-.21,4.09-.44,8.34c-.1,1.42-.19,2.85-.28,4.29a38.11,38.11,0,0,1-.49,4.38.71.71,0,0,1-.11.22.29.29,0,0,1-.18.11h-.08l-.32,0h-.56l-1.11-.05-2.22-.13-4.48-.31-9.13-.71h-.23v-.23c-.33-7.23-.62-14.68-.85-22.29-.25-9.36-.5-18.5-.18-27.35l.08-1.65.15-1.65a10.4,10.4,0,0,1,.23-1.65l.18-.82a7.43,7.43,0,0,1,.33-.77,51,51,0,0,1,3.31-5.56c2.34-3.56,4.75-6.95,7.11-10.25,4.74-6.59,9.36-12.77,13.71-18.53l3.22-4.24c.52-.67,1-1.41,1.61-2a16.32,16.32,0,0,1,1.86-1.77,27.14,27.14,0,0,1,17.3-5.5,13.46,13.46,0,0,1,3.94,1,11.18,11.18,0,0,1,3.21,2.06,14.08,14.08,0,0,1,3.61,5.75,11.72,11.72,0,0,1,.33,5.7,24.55,24.55,0,0,1-2.52,7.49,8,8,0,0,1-1.15,1.7C323.78,153.18,323.61,153.35,323.61,153.35Z" style="fill:#455a64"></path><path d="M340.38,174.81a1.92,1.92,0,0,1-.2-.56c-.13-.42-.29-1-.49-1.63-.43-1.48-1-3.54-1.73-6.06-1.44-5.21-3.41-12.36-5.62-20.38l0-.11.06-.1c.55-.86,1.14-1.78,1.74-2.7l.45-.71.2.4-3.31-.31h-.17l-.06-.17a58.16,58.16,0,0,0-2.05-5.5,24.84,24.84,0,0,0-2.58-4.74,11.91,11.91,0,0,0-3.74-2.95c-1.32-.75-2.59-1.38-3.75-1.93-2.34-1.1-4.25-1.9-5.57-2.45l-1.51-.63a2.51,2.51,0,0,1-.52-.24,2,2,0,0,1,.55.15c.36.12.88.3,1.55.55,1.34.49,3.28,1.24,5.64,2.3,1.18.54,2.46,1.15,3.81,1.89a12.28,12.28,0,0,1,3.91,3,24.14,24.14,0,0,1,2.66,4.81,58.21,58.21,0,0,1,2.1,5.55l-.23-.18,3.32.3.42,0-.23.36-.45.71-1.75,2.7,0-.21c2.15,8.05,4.06,15.2,5.45,20.43.66,2.54,1.19,4.61,1.58,6.1.16.68.3,1.23.4,1.66A2.35,2.35,0,0,1,340.38,174.81Z" style="fill:#455a64"></path><path d="M336.93,144.93c-5.8,3.42-10.51,3.4-20.19,2.58-6.71-.57-12.59-2.49-19.32-2.7-9.7-.29-17,2.67-25.8,6.67l-6.52,7.7,12.23,3.7A53.62,53.62,0,0,1,304.11,157c15,.82,29.08-3.27,34.06-7.08l1.71-4.74-.65-2.48-2.06-.19Z" style="fill:#0EA2BD"></path><path d="M336.93,144.93s0-.21,0-.62.08-1,.15-1.77v-.07h.06l2.06.17h.06l0,.06c.19.72.42,1.55.67,2.47v0l0,0c-.48,1.39-1.05,3-1.67,4.76l0,0,0,0a21.53,21.53,0,0,1-4.74,2.61,47.52,47.52,0,0,1-5.92,2.06,75,75,0,0,1-23,2.55,54.48,54.48,0,0,0-8.89.28,53.5,53.5,0,0,0-9.19,1.91,49.49,49.49,0,0,0-9.08,3.64l-.1,0-.1,0L270.1,161,265,159.43l-.38-.11.25-.3,6.52-7.71,0,0,.05,0a91.77,91.77,0,0,1,13-5,41.86,41.86,0,0,1,12.68-1.63,70.5,70.5,0,0,1,11.36,1.5,81.83,81.83,0,0,0,9.75,1.39,73.61,73.61,0,0,0,8.05.34,22.68,22.68,0,0,0,5.94-.88,21.88,21.88,0,0,0,3.51-1.4l.86-.45.31-.15s-.08.07-.27.18-.48.29-.86.5a19.68,19.68,0,0,1-3.5,1.5,22.58,22.58,0,0,1-6,1,72.72,72.72,0,0,1-8.08-.27,79.62,79.62,0,0,1-9.79-1.33,71.82,71.82,0,0,0-11.3-1.44,41.33,41.33,0,0,0-12.54,1.65,92.71,92.71,0,0,0-12.88,5l.09-.07-6.51,7.71-.12-.42,5.07,1.54,7.16,2.16-.2,0A49.4,49.4,0,0,1,286.4,159a54.37,54.37,0,0,1,9.27-1.91,55.44,55.44,0,0,1,9-.26,75.17,75.17,0,0,0,22.86-2.44,49.47,49.47,0,0,0,5.89-2,22.37,22.37,0,0,0,4.7-2.53l0,.06,1.74-4.74v.06l-.62-2.48.07.07-2.06-.22.07,0-.21,1.79C337,144.74,336.93,144.93,336.93,144.93Z" style="fill:#263238"></path><path d="M314,207.34c0,.13-4.47-1.33-9.87-3.26a100.32,100.32,0,0,1-9.69-3.75c.05-.13,4.47,1.33,9.87,3.26A100.32,100.32,0,0,1,314,207.34Z" style="fill:#455a64"></path></g></svg>
