<svg xmlns="http://www.w3.org/2000/svg" viewBox="0 0 500 500"><g id="freepik--Device--inject-2"><path d="M322.16,385.46c-.76,14.84-.7,14.22-.66,20.79,0,1.43,0,3.19,0,5.53a0,0,0,0,1,0,0c-1,6.87-6.13,13.58-15.24,18.84-20.6,11.89-54,11.89-74.6,0-10.62-6.13-15.76-14.23-15.42-22.26v-.06c.06-.68.13-1.39.22-2.13,0,0,0-.06,0-.08.89-7.81,3-18.73,3.43-26.06.7-11.63.71-14.22.71-20.48,0-7.08-2.33-13.22-10.48-20.07s-24.35-30.28-24.35-30.28L293.25,254l30.55,96.76S323.27,363.83,322.16,385.46Z" style="fill:#b16668"></path><circle cx="287.1" cy="241.03" r="15.55" transform="translate(-13.45 465.07) rotate(-76.72)" style="fill:#9a4a4d"></circle><path d="M201.64,329.49l60.88-35.14c2.06,19.72,13.54,29.69,13.54,29.69L277,286l-12.19-7-70.76,40.86C196.42,322.94,199.06,326.36,201.64,329.49Z" style="fill:#9a4a4d"></path><g id="freepik--device--inject-2"><path d="M288.62,52.57l-94.8,54.73a7.63,7.63,0,0,0-3.45,6v213.8c0,2.19,1.55,3.09,3.45,2l94.8-54.73a7.64,7.64,0,0,0,3.44-6V54.56C292.06,52.36,290.52,51.47,288.62,52.57ZM287.1,248.65c0,1.88-1.32,3.08-3,4L198,302.44c-1.63.94-3,.18-3-1.71V133.25a6.56,6.56,0,0,1,3-5.12l86.2-49.76c1.63-1,3-.18,3,1.7Z" style="fill:#37474f"></path><path d="M193.39,329.27a7.73,7.73,0,0,1-6.47-.21L183,326.78a7.59,7.59,0,0,1-3.45-6V107a6.57,6.57,0,0,1,.59-2.57,8,8,0,0,1,.41-.83,0,0,0,0,0,0,0l10.85,6.26h0a9.17,9.17,0,0,0-.6,1.27,6.34,6.34,0,0,0-.42,2.13v213.8C190.37,329.09,191.69,330,193.39,329.27Z" style="fill:#263238"></path><path d="M242,282.9c3-1.73,5.44-.32,5.44,3.15a12,12,0,0,1-5.44,9.42c-3,1.74-5.45.33-5.45-3.14A12,12,0,0,1,242,282.9Z" style="fill:none;stroke:#e6e6e6;stroke-miterlimit:10"></path><path d="M241.22,84.54c1.27-.73,2.31-.14,2.31,1.34a5.13,5.13,0,0,1-2.31,4c-1.28.74-2.31.14-2.31-1.33A5.11,5.11,0,0,1,241.22,84.54Z"></path><path d="M232.3,98.6l17.84-10.3c1.06-.62,1.93-.18,1.93,1a4.1,4.1,0,0,1-1.93,3.2L232.3,102.78c-1.07.61-1.93.18-1.93-1A4.13,4.13,0,0,1,232.3,98.6Z"></path><path d="M287.1,248.48c0,1.88-1.32,3.08-3,4L198,302.26c-1.63.94-3,.18-3-1.71V133.08a6.57,6.57,0,0,1,3-5.13l86.2-49.75c1.63-1,3-.18,3,1.7Z" style="fill:#fff"></path><path d="M292,54c-.25-1.79-1.68-2.44-3.41-1.44L193.81,107.3a7,7,0,0,0-2.43,2.57l-10.85-6.26a6.93,6.93,0,0,1,2.44-2.56l94.8-54.74a7.61,7.61,0,0,1,6.89,0l4,2.27A7.75,7.75,0,0,1,292,54Z" style="fill:#455a64"></path><path d="M199.78,135.22V134a.77.77,0,0,1,.24-.61l.06,0c.13-.08.24.08.24.34v1.23a.78.78,0,0,1-.24.62l-.06,0C199.89,135.64,199.78,135.49,199.78,135.22Z" style="fill:#455a64"></path><path d="M200.85,134.61v-2.13a.77.77,0,0,1,.24-.61l.06,0c.13-.08.23.08.23.34v2.13a.77.77,0,0,1-.23.61l-.06,0C201,135,200.85,134.87,200.85,134.61Z" style="fill:#455a64"></path><path d="M201.92,134v-3a.77.77,0,0,1,.23-.61l.07,0c.13-.08.23.08.23.34v3a.79.79,0,0,1-.23.62l-.07,0C202,134.41,201.92,134.26,201.92,134Z" style="fill:#455a64"></path><path d="M203,133.37v-5.21a.77.77,0,0,1,.23-.61l.07,0c.13-.07.23.08.23.35v5.2a.78.78,0,0,1-.24.62l-.06,0C203.09,133.79,203,133.64,203,133.37Z" style="fill:#455a64"></path><path d="M205.87,132.06s0-.07,0-.16v-.76l-1.19.69c-.07,0-.1,0-.1-.1v-.28a.66.66,0,0,1,0-.15s0-.09,0-.15l1.27-3.47.06-.13a.24.24,0,0,1,.09-.08l.16-.1s.09,0,.11,0a.3.3,0,0,1,0,.17v2.67l.26-.15s.09,0,.11,0a.34.34,0,0,1,0,.17v.18a.47.47,0,0,1,0,.19.25.25,0,0,1-.11.12l-.26.15v.77a.36.36,0,0,1,0,.19.21.21,0,0,1-.11.12l-.2.11S205.9,132.09,205.87,132.06Zm0-1.62v-1.9l-.87,2.4Z" style="fill:#455a64"></path><path d="M207.3,130.78a2.47,2.47,0,0,1-.36-1.56,4.88,4.88,0,0,1,.36-2,2.33,2.33,0,0,1,1-1.19,1.3,1.3,0,0,1,.48-.18.5.5,0,0,1,.37.05.08.08,0,0,1,0,.07.34.34,0,0,1,0,.09l-.11.39s0,.08-.05.09,0,0-.05,0a.7.7,0,0,0-.61.09,1.62,1.62,0,0,0-.67.83,3.56,3.56,0,0,0-.25,1.45,2,2,0,0,0,.24,1.18c.16.19.37.21.65,0a2.73,2.73,0,0,0,.3-.21,1.79,1.79,0,0,0,.23-.26v-1.24l-.5.28c-.05,0-.08,0-.1,0a.32.32,0,0,1,0-.17v-.17a.53.53,0,0,1,0-.2.26.26,0,0,1,.1-.11l.8-.46q.08,0,.12,0a.46.46,0,0,1,0,.2v1.77a.71.71,0,0,1,0,.16.31.31,0,0,1-.05.12,2.54,2.54,0,0,1-.94.93C207.86,131.07,207.53,131.05,207.3,130.78Z" style="fill:#455a64"></path><path d="M283.48,82.66c-.14-.2-.31-.26-.48-.16l-3.58,2.07a1.82,1.82,0,0,0-.55,1.45V88.7a1.51,1.51,0,0,0,.21.85.46.46,0,0,0,.19.18.29.29,0,0,0,.28,0l3.58-2.06a1.83,1.83,0,0,0,.55-1.45V83.51A1.57,1.57,0,0,0,283.48,82.66Zm-4.27,6.55a.8.8,0,0,1-.08-.4V86.13a1.43,1.43,0,0,1,.42-1.1L283.13,83a.16.16,0,0,1,.15,0,.12.12,0,0,1,.07,0,.87.87,0,0,1,.07.39v2.68a1.41,1.41,0,0,1-.42,1.1l-3.58,2.07Q279.28,89.32,279.21,89.21Z" style="fill:#455a64"></path><path d="M281.47,84.4v3.17l-1.93,1.12-.06,0V86.2a1.08,1.08,0,0,1,.31-.82Z" style="fill:#455a64"></path><path d="M283.86,83.42c.13-.07.24.31.24.86v.5a2,2,0,0,1-.24,1.16l-.24.16V83.57Z" style="fill:#455a64"></path><path d="M214.14,126.44a1.84,1.84,0,0,1-.69,1.47c-.39.22-.7-.08-.7-.67a1.83,1.83,0,0,1,.7-1.47C213.83,125.55,214.14,125.85,214.14,126.44Z" style="fill:#455a64"></path><path d="M213.45,124a4.16,4.16,0,0,0-1.62,2.42c-.06.21,0,.42.08.49h0c.13.08.32-.09.4-.36a3,3,0,0,1,1.14-1.72.73.73,0,0,1,1.13.4c.08.19.28.13.41-.1h0a.76.76,0,0,0,.07-.58A1,1,0,0,0,213.45,124Z" style="fill:#455a64"></path><path d="M213.45,122.31a6.49,6.49,0,0,0-2.48,3.53c-.08.23-.06.46.06.53h0c.12.08.31-.08.4-.34a5.26,5.26,0,0,1,2-2.89,1.34,1.34,0,0,1,2,.55c.09.16.27.11.4-.12h0a.73.73,0,0,0,.06-.6A1.65,1.65,0,0,0,213.45,122.31Z" style="fill:#455a64"></path><path d="M237.51,113.67a.37.37,0,0,1,0,.14.17.17,0,0,1-.08.1l-.18.11a.08.08,0,0,1-.08,0,.16.16,0,0,1,0-.11v-3.65l-.7,1.22s-.06.08-.09.09a.08.08,0,0,1-.08,0l-.1-.15a.16.16,0,0,1,0-.12.42.42,0,0,1,0-.15l.92-1.62a.3.3,0,0,1,.07-.08l.07,0,.18-.1a.06.06,0,0,1,.08,0,.18.18,0,0,1,0,.11Z" style="fill:#455a64"></path><path d="M238.52,110.13a.07.07,0,0,1,.09,0,.16.16,0,0,1,0,.11v.44a.4.4,0,0,1,0,.15s-.05.08-.09.1l-.29.16a.06.06,0,0,1-.08,0,.18.18,0,0,1,0-.11v-.44a.4.4,0,0,1,0-.15.21.21,0,0,1,.08-.1Zm0,2.33a.07.07,0,0,1,.09,0,.16.16,0,0,1,0,.11V113a.4.4,0,0,1,0,.15.22.22,0,0,1-.09.1l-.29.17a.06.06,0,0,1-.08,0,.16.16,0,0,1,0-.11v-.44a.4.4,0,0,1,0-.15.27.27,0,0,1,.08-.1Z" style="fill:#455a64"></path><path d="M240.64,112a.06.06,0,0,1-.08,0,.16.16,0,0,1,0-.11V111l-1.36.78s0,0-.08,0a.15.15,0,0,1,0-.1v-.24a.52.52,0,0,1,.06-.26l1.36-3.54a.8.8,0,0,1,.08-.16.2.2,0,0,1,.09-.09l.17-.1a.06.06,0,0,1,.08,0,.12.12,0,0,1,0,.11v2.77l.37-.21a.06.06,0,0,1,.08,0,.18.18,0,0,1,0,.11v.24a.4.4,0,0,1,0,.15.27.27,0,0,1-.08.1l-.37.21v.91a.28.28,0,0,1,0,.15.21.21,0,0,1-.08.1Zm-.11-1.62v-1.87l-.94,2.41Z" style="fill:#455a64"></path><path d="M242.14,110.05l.06.17a.3.3,0,0,0,.12.13.33.33,0,0,0,.2,0,1.14,1.14,0,0,0,.34-.13,2.19,2.19,0,0,0,.25-.2,1.21,1.21,0,0,0,.21-.28,1.28,1.28,0,0,0,.14-.34,1.35,1.35,0,0,0,.06-.41,1,1,0,0,0-.05-.33c0-.08-.08-.14-.14-.16a.37.37,0,0,0-.21,0,1.12,1.12,0,0,0-.26.11l-.36.21a.05.05,0,0,1-.08,0,.11.11,0,0,1,0-.1v-.24a.5.5,0,0,1,0-.12l0-.12.78-1.73-1.24.71a.07.07,0,0,1-.09,0,.18.18,0,0,1,0-.11v-.24a.4.4,0,0,1,0-.15.22.22,0,0,1,.09-.1l1.69-1a.1.1,0,0,1,.09,0,.16.16,0,0,1,0,.11V106a.5.5,0,0,1,0,.12.94.94,0,0,1-.06.15L243,108a.92.92,0,0,1,.39-.12.42.42,0,0,1,.31.09.68.68,0,0,1,.2.32,1.81,1.81,0,0,1,.07.52,2.37,2.37,0,0,1-.09.65,2.13,2.13,0,0,1-.23.58,2.08,2.08,0,0,1-.34.48,1.58,1.58,0,0,1-.41.34,1.31,1.31,0,0,1-.5.19.5.5,0,0,1-.35-.08.46.46,0,0,1-.2-.25,1.23,1.23,0,0,1-.07-.39.27.27,0,0,1,0-.12.18.18,0,0,1,.06-.08l.2-.12a.06.06,0,0,1,.08,0A.11.11,0,0,1,242.14,110.05Z" style="fill:#455a64"></path></g><path d="M224.2,167.39V146a1.92,1.92,0,0,0-.87-1.5l-.23-.13a1.91,1.91,0,0,0-1.74,0l-18.57,10.73a1.91,1.91,0,0,0-.87,1.5V178a1.89,1.89,0,0,0,.87,1.5l.23.14a1.91,1.91,0,0,0,1.74,0l18.57-10.73A1.92,1.92,0,0,0,224.2,167.39Z" style="fill:#0EA2BD"></path><path d="M223.33,145.45l-18.57,10.73a1.92,1.92,0,0,0-.87,1.5v21.44c0,.55.39.78.87.5l18.57-10.73a1.92,1.92,0,0,0,.87-1.5V146C224.2,145.4,223.81,145.18,223.33,145.45Z" style="fill:#0EA2BD"></path><path d="M224.18,145.79c-.06-.43-.42-.59-.85-.34l-18.57,10.73a1.9,1.9,0,0,0-.62.64l-2-1.13a1.64,1.64,0,0,1,.61-.64l18.57-10.74a2,2,0,0,1,1.74,0l.23.14A1.94,1.94,0,0,1,224.18,145.79Z" style="fill:#fff;opacity:0.7000000000000001"></path><path d="M204.56,179.71a1.89,1.89,0,0,1-1.53-.09l-.24-.13a1.92,1.92,0,0,1-.87-1.5V156.55a1.75,1.75,0,0,1,.26-.86l2,1.13a1.85,1.85,0,0,0-.25.86v21.44C203.89,179.6,204.17,179.83,204.56,179.71Z" style="opacity:0.2"></path><path d="M214,159.4a7.5,7.5,0,0,0-3.13,6c0,2.3,1.41,3.36,3.13,2.36a7.5,7.5,0,0,0,3.13-6C217.17,159.46,215.77,158.4,214,159.4Z" style="fill:#fff"></path><polygon points="208.09 159.86 209.5 159.05 209.5 159.76 208.09 160.57 208.09 159.86" style="fill:#fff"></polygon><path d="M220.57,154l-2.67,1.54c-.5.29-.91,0-.91-.7s-.41-1-.92-.69l-4,2.34a2.17,2.17,0,0,0-.92,1.75,2.21,2.21,0,0,1-.91,1.75l-2.67,1.54a2.19,2.19,0,0,0-.91,1.75v10.16c0,.68.41,1,.91.7l13-7.54a2.19,2.19,0,0,0,.91-1.75V154.64C221.48,154,221.07,153.65,220.57,154ZM214,168.76c-2.14,1.24-3.89-.08-3.89-2.94s1.75-6.2,3.89-7.44,3.9.08,3.9,2.94S216.19,167.52,214,168.76Zm4-10.66c-.28.16-.5,0-.5-.38a1.19,1.19,0,0,1,.5-1c.27-.16.5,0,.5.38A1.22,1.22,0,0,1,218.06,158.1Z" style="fill:#fff"></path><path d="M224.2,233V211.59a1.92,1.92,0,0,0-.87-1.5l-.23-.13a1.91,1.91,0,0,0-1.74,0l-18.57,10.73a1.89,1.89,0,0,0-.87,1.5v21.43a1.91,1.91,0,0,0,.87,1.5l.23.14a2,2,0,0,0,1.74,0l18.57-10.73A1.92,1.92,0,0,0,224.2,233Z" style="fill:#0EA2BD"></path><path d="M223.33,211.09l-18.57,10.73a1.92,1.92,0,0,0-.87,1.5v21.44c0,.55.39.77.87.5l18.57-10.73a1.92,1.92,0,0,0,.87-1.5V211.59C224.2,211,223.81,210.82,223.33,211.09Z" style="fill:#37474f"></path><path d="M224.18,211.43c-.06-.43-.42-.59-.85-.34l-18.57,10.73a1.9,1.9,0,0,0-.62.64l-2-1.13a1.64,1.64,0,0,1,.61-.64L221.36,210a2,2,0,0,1,1.74,0l.23.14A1.94,1.94,0,0,1,224.18,211.43Z" style="fill:#455a64"></path><path d="M204.56,245.34a1.89,1.89,0,0,1-1.53-.09l-.24-.13a1.92,1.92,0,0,1-.87-1.5V222.19a1.75,1.75,0,0,1,.26-.86l2,1.13a1.85,1.85,0,0,0-.25.86v21.43C203.89,245.23,204.17,245.46,204.56,245.34Z" style="fill:#263238"></path><path d="M221.6,225.9h0a.2.2,0,0,0-.11,0l-1.45-.08a.23.23,0,0,1-.24-.23c0-.23,0-.46,0-.68a4.25,4.25,0,0,0,0-.72.74.74,0,0,1,.16-.43l1.62-1.95a.42.42,0,0,0,.09-.4l-.76-1.7a.12.12,0,0,0,0-.05h0a.25.25,0,0,0-.25.08l-1.72,1.57a.32.32,0,0,1-.38.07,2.39,2.39,0,0,0-.74-.43.28.28,0,0,1-.17-.3l.53-2.42a.15.15,0,0,0-.07-.17.38.38,0,0,0-.16,0l-1.69.17a.49.49,0,0,0-.37.26l-.91,2.45a.81.81,0,0,1-.37.36,7.48,7.48,0,0,0-1,.6c-.15.1-.3.1-.37,0l-.86-1.32c-.06-.09-.2-.07-.31,0l-1.85,2a.52.52,0,0,0-.15.41l.52,1.74a.6.6,0,0,1-.09.42,15.78,15.78,0,0,0-.86,1.48.66.66,0,0,1-.4.3l-1.58.38a.55.55,0,0,0-.36.3l-.8,2.69c0,.12,0,.23.2.24l1.45.08a.23.23,0,0,1,.24.23,7.27,7.27,0,0,0,0,1.4.7.7,0,0,1-.16.43l-1.61,1.95a.44.44,0,0,0-.1.41l.76,1.69a.12.12,0,0,0,0,.05h.07a.3.3,0,0,0,.19-.09l1.72-1.57a.32.32,0,0,1,.38-.07,2.39,2.39,0,0,0,.74.43.27.27,0,0,1,.17.3l-.53,2.42a.13.13,0,0,0,.07.16h0a.38.38,0,0,0,.16,0l1.69-.17a.49.49,0,0,0,.37-.26l.91-2.45a.81.81,0,0,1,.37-.36,4.63,4.63,0,0,0,.54-.28l.5-.32c.14-.1.3-.1.36,0l.87,1.32,0,0a.24.24,0,0,0,.27-.08l1.85-2a.47.47,0,0,0,.14-.41l-.51-1.74a.6.6,0,0,1,.09-.42,13.75,13.75,0,0,0,.85-1.48.71.71,0,0,1,.41-.3l1.58-.38a.53.53,0,0,0,.36-.3l.8-2.68A.2.2,0,0,0,221.6,225.9Zm-8.45,6.56-.1,0H213l-.15,0h-.34a1.69,1.69,0,0,1-1.58-1.07,3.15,3.15,0,0,1-.24-.89,3.85,3.85,0,0,1,0-.49,7.52,7.52,0,0,1,2.09-4.79,5.91,5.91,0,0,1,1.28-1,4.11,4.11,0,0,1,.42-.21,2.74,2.74,0,0,1,1.2-.26h.2a1.7,1.7,0,0,1,1.32,1.05c.72,1.58-.1,4.35-1.83,6.17A4.82,4.82,0,0,1,213.15,232.46Z" style="fill:#fff"></path><path d="M213.51,230.75h-.39a1,1,0,0,1-1-.64,1.8,1.8,0,0,1-.14-.53c0-.1,0-.2,0-.3a4.52,4.52,0,0,1,1.26-2.87,3.19,3.19,0,0,1,.76-.62l.26-.13a1.5,1.5,0,0,1,.72-.16h.12a1,1,0,0,1,.79.62c.43.95-.06,2.61-1.1,3.7A2.88,2.88,0,0,1,213.51,230.75Z" style="fill:#fff"></path><path d="M281.07,134.57V113.13a1.89,1.89,0,0,0-.87-1.49l-.23-.14a1.91,1.91,0,0,0-1.74,0l-18.58,10.73a1.94,1.94,0,0,0-.86,1.5v21.43a1.89,1.89,0,0,0,.87,1.5l.23.14a1.89,1.89,0,0,0,1.73,0l18.58-10.73A1.92,1.92,0,0,0,281.07,134.57Z" style="fill:#0EA2BD"></path><path d="M280.2,112.63l-18.58,10.73a1.94,1.94,0,0,0-.86,1.5V146.3c0,.55.39.78.86.5l18.58-10.73a1.92,1.92,0,0,0,.87-1.5V113.13C281.07,112.58,280.68,112.36,280.2,112.63Z" style="fill:#0EA2BD"></path><path d="M280.2,112.63l-18.58,10.73a1.94,1.94,0,0,0-.86,1.5V146.3c0,.55.39.78.86.5l18.58-10.73a1.92,1.92,0,0,0,.87-1.5V113.13C281.07,112.58,280.68,112.36,280.2,112.63Z" style="opacity:0.45"></path><path d="M281.05,113c-.06-.43-.42-.59-.85-.34l-18.57,10.73a1.9,1.9,0,0,0-.62.64l-2-1.13a1.64,1.64,0,0,1,.61-.64l18.57-10.74a2,2,0,0,1,1.74,0l.23.14A1.94,1.94,0,0,1,281.05,113Z" style="opacity:0.35000000000000003"></path><path d="M261.43,146.89a1.89,1.89,0,0,1-1.53-.09l-.24-.13a1.92,1.92,0,0,1-.87-1.5V123.73a1.75,1.75,0,0,1,.26-.86l2,1.13a1.85,1.85,0,0,0-.25.86V146.3C260.76,146.78,261,147,261.43,146.89Z" style="opacity:0.55"></path><path d="M263.9,128.86l6.65,3.88c.22.12.51-.05.72-.42l6.65-11.55v10.49a1.56,1.56,0,0,1-.59,1.26l-12.83,7.41c-.33.19-.6-.07-.6-.57Z" style="fill:#fff"></path><path d="M270.56,131.18l-6.66-3.64,14-8.1-6.66,11.33C271.06,131.13,270.77,131.3,270.56,131.18Z" style="fill:#fff"></path><path d="M252.63,151V129.53a1.91,1.91,0,0,0-.86-1.5l-.24-.14a2,2,0,0,0-1.73,0l-18.58,10.73a1.92,1.92,0,0,0-.87,1.5v21.44a1.91,1.91,0,0,0,.86,1.5l.24.14a2,2,0,0,0,1.73,0l18.58-10.73A1.91,1.91,0,0,0,252.63,151Z" style="fill:#0EA2BD"></path><path d="M251.77,129l-18.58,10.73a1.92,1.92,0,0,0-.87,1.5V162.7c0,.55.39.77.87.5l18.58-10.73a1.91,1.91,0,0,0,.86-1.5V129.53C252.63,129,252.25,128.75,251.77,129Z" style="fill:#0EA2BD"></path><path d="M251.77,129l-18.58,10.73a1.92,1.92,0,0,0-.87,1.5V162.7c0,.55.39.77.87.5l18.58-10.73a1.91,1.91,0,0,0,.86-1.5V129.53C252.63,129,252.25,128.75,251.77,129Z" style="fill:#fff;opacity:0.5"></path><path d="M252.61,129.37c-.06-.43-.42-.59-.85-.34l-18.57,10.73a1.9,1.9,0,0,0-.62.64l-2-1.13a1.64,1.64,0,0,1,.61-.64l18.57-10.74a2,2,0,0,1,1.74,0l.23.14A1.94,1.94,0,0,1,252.61,129.37Z" style="fill:#fff;opacity:0.8"></path><path d="M233,163.28a1.89,1.89,0,0,1-1.53-.09l-.24-.13a1.92,1.92,0,0,1-.87-1.5V140.13a1.75,1.75,0,0,1,.26-.86l2,1.13a1.85,1.85,0,0,0-.25.86v21.43C232.32,163.17,232.6,163.4,233,163.28Z" style="fill:#fff;opacity:0.6000000000000001"></path><path d="M245.39,150a14.89,14.89,0,0,0,2.18-7.39c0-4.33-2.61-6.34-5.83-4.48s-5.84,6.89-5.84,11.22,2.62,6.34,5.84,4.48a8.19,8.19,0,0,0,1.57-1.2c.36.61,1.38,1.79,3.41.14C246.72,152.74,245.62,152.2,245.39,150Z" style="fill:#455a64"></path><path d="M224.2,200.21V178.77a1.92,1.92,0,0,0-.87-1.5l-.23-.13a1.91,1.91,0,0,0-1.74,0l-18.57,10.73a1.91,1.91,0,0,0-.87,1.5V210.8a1.91,1.91,0,0,0,.87,1.5l.23.14a2,2,0,0,0,1.74,0l18.57-10.73A1.92,1.92,0,0,0,224.2,200.21Z" style="fill:#0EA2BD"></path><path d="M223.33,178.27,204.76,189a1.92,1.92,0,0,0-.87,1.5v21.44c0,.55.39.77.87.5l18.57-10.73a1.92,1.92,0,0,0,.87-1.5V178.77C224.2,178.22,223.81,178,223.33,178.27Z" style="fill:#0EA2BD"></path><path d="M223.33,178.27,204.76,189a1.92,1.92,0,0,0-.87,1.5v21.44c0,.55.39.77.87.5l18.57-10.73a1.92,1.92,0,0,0,.87-1.5V178.77C224.2,178.22,223.81,178,223.33,178.27Z" style="fill:#fff;opacity:0.5"></path><path d="M224.18,178.61c-.06-.43-.42-.59-.85-.34L204.76,189a1.9,1.9,0,0,0-.62.64l-2-1.13a1.64,1.64,0,0,1,.61-.64l18.57-10.74a2,2,0,0,1,1.74,0l.23.14A1.94,1.94,0,0,1,224.18,178.61Z" style="fill:#fff;opacity:0.8"></path><path d="M204.56,212.53a1.89,1.89,0,0,1-1.53-.09l-.24-.13a1.92,1.92,0,0,1-.87-1.5V189.37a1.75,1.75,0,0,1,.26-.86l2,1.13a1.85,1.85,0,0,0-.25.86v21.44C203.89,212.42,204.17,212.65,204.56,212.53Z" style="fill:#fff;opacity:0.6000000000000001"></path><path d="M217,197.8a18.56,18.56,0,0,0,1.63-7.72,13.93,13.93,0,0,0,1.33-2.61,9.43,9.43,0,0,1-1.53,1.45,7.19,7.19,0,0,0,1.17-2.65,10.32,10.32,0,0,1-1.69,1.84,1.65,1.65,0,0,0-2,0,6.34,6.34,0,0,0-2.6,5.88c-2.22,1.14-4.19.86-5.51-.54-.7,2-.36,3.91.83,4.28a2,2,0,0,1-1.21.26c0,1.66.85,2.7,2.14,2.3a3.45,3.45,0,0,1-1.21.76,1.57,1.57,0,0,0,2.5,1,9.19,9.19,0,0,1-4,3.76,5.33,5.33,0,0,0,4.1-.76,15.36,15.36,0,0,0,6-7.28" style="fill:#fff"></path><path d="M252.63,183.79V162.35a1.91,1.91,0,0,0-.86-1.5l-.24-.14a2,2,0,0,0-1.73,0l-18.58,10.73a1.92,1.92,0,0,0-.87,1.5v21.44a1.91,1.91,0,0,0,.86,1.5l.24.14a2,2,0,0,0,1.73,0l18.58-10.73A1.91,1.91,0,0,0,252.63,183.79Z" style="fill:#0EA2BD"></path><path d="M251.77,161.85l-18.58,10.73a1.92,1.92,0,0,0-.87,1.5v21.44c0,.55.39.77.87.5l18.58-10.73a1.91,1.91,0,0,0,.86-1.5V162.35C252.63,161.8,252.25,161.57,251.77,161.85Z" style="fill:#0EA2BD"></path><path d="M252.61,162.19c-.06-.43-.42-.59-.85-.34l-18.57,10.73a1.9,1.9,0,0,0-.62.64l-2-1.13a1.64,1.64,0,0,1,.61-.64l18.57-10.74a2,2,0,0,1,1.74,0l.23.14A1.94,1.94,0,0,1,252.61,162.19Z" style="fill:#fff;opacity:0.7000000000000001"></path><path d="M233,196.1a1.89,1.89,0,0,1-1.53-.09l-.24-.13a1.92,1.92,0,0,1-.87-1.5V173a1.75,1.75,0,0,1,.26-.86l2,1.13a1.85,1.85,0,0,0-.25.86v21.43C232.32,196,232.6,196.22,233,196.1Z" style="opacity:0.2"></path><path d="M242.48,172.18c1.65-1,1.85-1.06,2.5-1.4a2.94,2.94,0,0,1,1.14-.38,1.06,1.06,0,0,1,.72.21,1.33,1.33,0,0,1,.46.68,4.81,4.81,0,0,1,.21,1.41c0,.85,0,1.11,0,3.31s0,2.46,0,3.35a8,8,0,0,1-.21,1.65,5.46,5.46,0,0,1-.46,1.22,4.54,4.54,0,0,1-.72,1,5.27,5.27,0,0,1-1.14.95c-.65.42-.85.54-2.5,1.49s-1.85,1.06-2.5,1.39a2.75,2.75,0,0,1-1.15.38,1,1,0,0,1-.71-.2,1.37,1.37,0,0,1-.46-.68,4.88,4.88,0,0,1-.21-1.41c0-.85,0-1.11,0-3.31s0-2.47,0-3.35a8.14,8.14,0,0,1,.21-1.66,5.31,5.31,0,0,1,1.17-2.24,5.39,5.39,0,0,1,1.15-.94c.65-.42.85-.54,2.5-1.49m0-1.49c-1.68,1-1.89,1.1-2.55,1.52a7,7,0,0,0-1.5,1.25,7.19,7.19,0,0,0-1.09,1.58,8,8,0,0,0-.72,1.88,10.15,10.15,0,0,0-.28,2.16c0,.9,0,1.18,0,3.42s0,2.52,0,3.38a6.09,6.09,0,0,0,.28,1.83,2.09,2.09,0,0,0,.72,1,1.55,1.55,0,0,0,1.09.32,3.65,3.65,0,0,0,1.5-.48c.66-.34.87-.46,2.55-1.43s1.89-1.1,2.55-1.52a7.14,7.14,0,0,0,2.59-2.83,8.06,8.06,0,0,0,.72-1.87,10.16,10.16,0,0,0,.28-2.17c0-.89,0-1.18,0-3.42s0-2.51,0-3.37a6.22,6.22,0,0,0-.28-1.84,2.09,2.09,0,0,0-.72-1.05,1.5,1.5,0,0,0-1.09-.31,3.65,3.65,0,0,0-1.5.48c-.66.34-.87.45-2.55,1.42" style="fill:#fff"></path><path d="M242.48,174.7a7.61,7.61,0,0,0-3.17,6.07c0,2.33,1.42,3.41,3.17,2.39a7.59,7.59,0,0,0,3.17-6.06c0-2.34-1.42-3.41-3.17-2.4m0,7c-1.14.66-2.06,0-2.06-1.56a4.9,4.9,0,0,1,2.06-3.93c1.14-.66,2.06,0,2.06,1.55a4.93,4.93,0,0,1-2.06,3.94" style="fill:#fff"></path><path d="M246.52,172.2a1.78,1.78,0,0,1-.74,1.42c-.41.23-.74,0-.74-.56a1.78,1.78,0,0,1,.74-1.42c.41-.24.74,0,.74.56" style="fill:#fff"></path><path d="M281.07,167.39V146a1.92,1.92,0,0,0-.87-1.5l-.23-.13a1.91,1.91,0,0,0-1.74,0l-18.58,10.73a1.92,1.92,0,0,0-.86,1.5V178a1.89,1.89,0,0,0,.87,1.5l.23.14a1.89,1.89,0,0,0,1.73,0l18.58-10.73A1.92,1.92,0,0,0,281.07,167.39Z" style="fill:#0EA2BD"></path><path d="M280.2,145.45l-18.58,10.73a1.94,1.94,0,0,0-.86,1.5v21.44c0,.55.39.78.86.5l18.58-10.73a1.92,1.92,0,0,0,.87-1.5V146C281.07,145.4,280.68,145.18,280.2,145.45Z" style="fill:#37474f"></path><path d="M281.05,145.79c-.06-.43-.42-.59-.85-.34l-18.57,10.73a1.9,1.9,0,0,0-.62.64l-2-1.13a1.64,1.64,0,0,1,.61-.64l18.57-10.74a2,2,0,0,1,1.74,0l.23.14A1.94,1.94,0,0,1,281.05,145.79Z" style="fill:#455a64"></path><path d="M261.43,179.71a1.89,1.89,0,0,1-1.53-.09l-.24-.13a1.92,1.92,0,0,1-.87-1.5V156.55a1.75,1.75,0,0,1,.26-.86l2,1.13a1.85,1.85,0,0,0-.25.86v21.44C260.76,179.6,261,179.83,261.43,179.71Z" style="fill:#263238"></path><path d="M266.87,176.59l3-1.75V164.72L272,163.5l.23-3.52-2.34,1.35V159.4c0-.8.12-1.18.7-1.52l1.64-.94v-3.52l-2.1,1.21a6.15,6.15,0,0,0-3.27,5.75v2.7l-1.58.91v3.43l1.58-.91Z" style="fill:#fff"></path><path d="M252.63,216.6V195.17a1.91,1.91,0,0,0-.86-1.5l-.24-.14a2,2,0,0,0-1.73,0l-18.58,10.73a1.92,1.92,0,0,0-.87,1.5V227.2a1.91,1.91,0,0,0,.86,1.5l.24.13a1.89,1.89,0,0,0,1.73,0l18.58-10.73A1.88,1.88,0,0,0,252.63,216.6Z" style="fill:#0EA2BD"></path><path d="M251.77,194.67,233.19,205.4a1.92,1.92,0,0,0-.87,1.5v21.43c0,.56.39.78.87.5l18.58-10.73a1.88,1.88,0,0,0,.86-1.5V195.17C252.63,194.62,252.25,194.39,251.77,194.67Z" style="fill:#0EA2BD"></path><path d="M251.77,194.67,233.19,205.4a1.92,1.92,0,0,0-.87,1.5v21.43c0,.56.39.78.87.5l18.58-10.73a1.88,1.88,0,0,0,.86-1.5V195.17C252.63,194.62,252.25,194.39,251.77,194.67Z" style="opacity:0.45"></path><path d="M252.61,195c-.06-.43-.42-.59-.85-.34L233.19,205.4a1.9,1.9,0,0,0-.62.64l-2-1.13a1.64,1.64,0,0,1,.61-.64l18.57-10.74a2,2,0,0,1,1.74,0l.23.14A1.94,1.94,0,0,1,252.61,195Z" style="opacity:0.35000000000000003"></path><path d="M233,228.92a1.89,1.89,0,0,1-1.53-.09l-.24-.13a1.92,1.92,0,0,1-.87-1.5V205.77a1.75,1.75,0,0,1,.26-.86l2,1.13a1.85,1.85,0,0,0-.25.86v21.43C232.32,228.81,232.6,229,233,228.92Z" style="opacity:0.55"></path><path d="M238.35,206.31V218a4.2,4.2,0,0,0-1,.45,4.73,4.73,0,0,0-2.15,3.72c0,1.37,1,1.92,2.15,1.24a5.81,5.81,0,0,0,2.61-4V208.7l6.89-3.93v8.42a4.61,4.61,0,0,0-1,.45,3.94,3.94,0,0,0-1.75,3.48c0,1.37,1,1.92,2.15,1.23a4.77,4.77,0,0,0,2.15-3.71h0V200.58Z" style="fill:#fff"></path><path d="M224.2,265.85V244.41a1.92,1.92,0,0,0-.87-1.5l-.23-.13a1.91,1.91,0,0,0-1.74,0l-18.57,10.73a1.89,1.89,0,0,0-.87,1.5v21.43a1.92,1.92,0,0,0,.87,1.5l.23.14a2,2,0,0,0,1.74,0l18.57-10.73A1.92,1.92,0,0,0,224.2,265.85Z" style="fill:#0EA2BD"></path><path d="M223.33,243.91l-18.57,10.73a1.92,1.92,0,0,0-.87,1.5v21.44c0,.55.39.77.87.5l18.57-10.73a1.92,1.92,0,0,0,.87-1.5V244.41C224.2,243.86,223.81,243.64,223.33,243.91Z" style="fill:#0EA2BD"></path><path d="M224.18,244.25c-.06-.43-.42-.59-.85-.34l-18.57,10.73a1.9,1.9,0,0,0-.62.64l-2-1.13a1.64,1.64,0,0,1,.61-.64l18.57-10.74a2,2,0,0,1,1.74,0l.23.14A1.94,1.94,0,0,1,224.18,244.25Z" style="fill:#fff;opacity:0.7000000000000001"></path><path d="M204.56,278.16a1.89,1.89,0,0,1-1.53-.09l-.24-.13a1.92,1.92,0,0,1-.87-1.5V255a1.75,1.75,0,0,1,.26-.86l2,1.13a1.85,1.85,0,0,0-.25.86v21.43C203.89,278.05,204.17,278.28,204.56,278.16Z" style="opacity:0.2"></path><path d="M206.36,257.56V273.3c0,.55.39.77.87.5l13.63-7.87a1.92,1.92,0,0,0,.87-1.5V248.69c0-.55-.39-.77-.87-.5l-13.63,7.87A1.92,1.92,0,0,0,206.36,257.56Zm14.42,4.2-3.35-1.95-1.91,2.51L217,264l-5-3.36-4.76,7.54V257.11l13.47-7.78Z" style="fill:#fff"></path><path d="M217.56,254.11c.6-.35,1.09-.06,1.09.63a2.41,2.41,0,0,1-1.09,1.89c-.6.35-1.09.07-1.09-.63A2.43,2.43,0,0,1,217.56,254.11Z" style="fill:#fff"></path><path d="M252.63,249.42V228a1.91,1.91,0,0,0-.86-1.5l-.24-.14a2,2,0,0,0-1.73,0l-18.58,10.73a1.92,1.92,0,0,0-.87,1.5V260a1.91,1.91,0,0,0,.86,1.5l.24.13a1.89,1.89,0,0,0,1.73,0l18.58-10.73A1.88,1.88,0,0,0,252.63,249.42Z" style="fill:#0EA2BD"></path><path d="M251.77,227.49l-18.58,10.73a1.92,1.92,0,0,0-.87,1.5v21.43c0,.56.39.78.87.5l18.58-10.73a1.88,1.88,0,0,0,.86-1.5V228C252.63,227.44,252.25,227.21,251.77,227.49Z" style="fill:#fff;opacity:0.5"></path><path d="M252.61,227.83c-.06-.43-.42-.59-.85-.34l-18.57,10.73a1.9,1.9,0,0,0-.62.64l-2-1.13a1.64,1.64,0,0,1,.61-.64l18.57-10.74a2,2,0,0,1,1.74,0l.23.14A1.94,1.94,0,0,1,252.61,227.83Z" style="fill:#fff;opacity:0.8"></path><path d="M233,261.74a1.89,1.89,0,0,1-1.53-.09l-.24-.13a1.92,1.92,0,0,1-.87-1.5V238.59a1.75,1.75,0,0,1,.26-.86l2,1.13a1.85,1.85,0,0,0-.25.86v21.43C232.32,261.63,232.6,261.86,233,261.74Z" style="fill:#fff;opacity:0.6000000000000001"></path><path d="M242.34,236.33c1.75-1,3.17-.2,3.17,1.82a7,7,0,0,1-3.17,5.49c-1.75,1-3.17.19-3.17-1.83A7,7,0,0,1,242.34,236.33Z" style="fill:#455a64"></path><path d="M248.58,247.12c0-3.31-2.33-4.79-5.2-3.13l-1.8,1a11.5,11.5,0,0,0-5.2,9v.89s1.23.81,6.1-2.07,6.1-5,6.1-5Z" style="fill:#455a64"></path><path d="M281.07,233V211.59a1.92,1.92,0,0,0-.87-1.5L280,210a1.91,1.91,0,0,0-1.74,0l-18.58,10.73a1.91,1.91,0,0,0-.86,1.5v21.43a1.91,1.91,0,0,0,.87,1.5l.23.14a2,2,0,0,0,1.73,0l18.58-10.73A1.92,1.92,0,0,0,281.07,233Z" style="fill:#0EA2BD"></path><path d="M280.2,211.09l-18.58,10.73a1.94,1.94,0,0,0-.86,1.5v21.44c0,.55.39.77.86.5l18.58-10.73a1.92,1.92,0,0,0,.87-1.5V211.59C281.07,211,280.68,210.82,280.2,211.09Z" style="fill:#37474f"></path><path d="M281.05,211.43c-.06-.43-.42-.59-.85-.34l-18.57,10.73a1.9,1.9,0,0,0-.62.64l-2-1.13a1.64,1.64,0,0,1,.61-.64L278.23,210a2,2,0,0,1,1.74,0l.23.14A1.94,1.94,0,0,1,281.05,211.43Z" style="fill:#455a64"></path><path d="M261.43,245.34a1.89,1.89,0,0,1-1.53-.09l-.24-.13a1.92,1.92,0,0,1-.87-1.5V222.19a1.75,1.75,0,0,1,.26-.86l2,1.13a1.85,1.85,0,0,0-.25.86v21.43C260.76,245.23,261,245.46,261.43,245.34Z" style="fill:#263238"></path><path d="M275.55,219l-9.28,5.36a6.44,6.44,0,0,0-2.91,5v6.23c0,1.85,1.31,2.61,2.91,1.68l9.28-5.36a6.43,6.43,0,0,0,2.92-5V220.7C278.47,218.85,277.16,218.09,275.55,219Zm-2,7.95-5,5.76c-.26.31-.47.23-.47-.18v-5.4a.73.73,0,0,1,.73-.74h4.48C273.73,226.41,273.84,226.66,273.58,227Z" style="fill:#fff"></path><path d="M281.07,200.21V178.77a1.92,1.92,0,0,0-.87-1.5l-.23-.13a1.91,1.91,0,0,0-1.74,0l-18.58,10.73a1.92,1.92,0,0,0-.86,1.5V210.8a1.91,1.91,0,0,0,.87,1.5l.23.14a2,2,0,0,0,1.73,0l18.58-10.73A1.92,1.92,0,0,0,281.07,200.21Z" style="fill:#0EA2BD"></path><path d="M280.2,178.27,261.62,189a1.94,1.94,0,0,0-.86,1.5v21.44c0,.55.39.77.86.5l18.58-10.73a1.92,1.92,0,0,0,.87-1.5V178.77C281.07,178.22,280.68,178,280.2,178.27Z" style="fill:#0EA2BD"></path><path d="M281.05,178.61c-.06-.43-.42-.59-.85-.34L261.63,189a1.9,1.9,0,0,0-.62.64l-2-1.13a1.64,1.64,0,0,1,.61-.64l18.57-10.74a2,2,0,0,1,1.74,0l.23.14A1.94,1.94,0,0,1,281.05,178.61Z" style="fill:#fff;opacity:0.7000000000000001"></path><path d="M261.43,212.53a1.89,1.89,0,0,1-1.53-.09l-.24-.13a1.92,1.92,0,0,1-.87-1.5V189.37a1.75,1.75,0,0,1,.26-.86l2,1.13a1.85,1.85,0,0,0-.25.86v21.44C260.76,212.42,261,212.65,261.43,212.53Z" style="opacity:0.2"></path><path d="M271.47,188.17l1.36,2.91a.33.33,0,0,0,.45.18l3.06-1.18c.49-.18.68.5.33,1.16l-2.21,4.16a1.34,1.34,0,0,0-.17.8l.52,3.77c.08.59-.43,1.38-.86,1.33l-2.74-.34a.68.68,0,0,0-.55.32l-2.74,3.5c-.44.56-.95.36-.86-.34l.52-4.37a.65.65,0,0,0-.17-.6l-2.22-1.6c-.35-.25-.15-1.16.33-1.54l3.06-2.36a1.41,1.41,0,0,0,.45-.69l1.37-4.49C270.62,188.07,271.25,187.71,271.47,188.17Z" style="fill:#fff"></path><path d="M323.8,350.76a496.68,496.68,0,0,1,4.46-65.52c3.1-21.67,2.5-40.21,1.55-45.45s-4.89-17.89-9.3-22.51c-4.1-4.3-12.16-11.2-19.13-19.38s-13.59-17.43-17.31-22.44-13,3.06-12.51,19c.37,13.06,8.6,25.06,12.74,29.37s9.66,13.14,10,16.73c.28,3-1.83,8.06-6.07,13.39-6.62,8.31-32.63,34.86-12.16,70.05v32.28Z" style="fill:#b16668"></path><path d="M285.74,185.23s7.94,10.77,10.47,12.16,3.26-1.78,3.26-1.78h0c-3.65-5.12-10.45-14.44-15.39-20.14A18.9,18.9,0,0,1,285.74,185.23Z" style="fill:#b16668"></path><path d="M285.74,185.23s7.94,10.77,10.47,12.16,3.26-1.78,3.26-1.78h0c-3.65-5.12-10.45-14.44-15.39-20.14A18.9,18.9,0,0,1,285.74,185.23Z" style="fill:#fff;opacity:0.6000000000000001"></path><path d="M299.47,195.61h0a16.32,16.32,0,0,0-1.18-1.65,3.76,3.76,0,0,1-1.47,3.69h0C298.9,198.25,299.47,195.61,299.47,195.61Z" style="fill:#9a4a4d"></path><path d="M179.53,135.8c-6.8-7-16.45-11.92-23.09-6.82s-6.66,17.63-2.48,23.85c6.42,9.53,25.57,25.5,25.57,25.5Z" style="fill:#b16668"></path><path d="M179.53,135.8c-.76-.79-1.57-1.55-2.39-2.27h0v29c0,4-14-7.2-19.53-14A22.17,22.17,0,0,1,152.28,135c-2.11,5.86-1.28,13.42,1.68,17.82,6.42,9.53,25.57,25.5,25.57,25.5Z" style="fill:#9a4a4d;opacity:0.5"></path><path d="M161.32,283.32c3.37,5.77,18.21,16.39,18.21,16.39V266.59Z" style="fill:#9a4a4d"></path><path d="M160.32,201.48c3.55,6.08,19.21,17.29,19.21,17.29V183.83Z" style="fill:#9a4a4d"></path><path d="M159.57,233c4.85,8.58,20,18.59,20,18.59v-32.7Z" style="fill:#9a4a4d"></path><path d="M167.6,171.12c8.64-.79,13.17,3,15.1,10.75.73,2.93.81,7.57,0,13.33s-6.26,12.66-13.28,11.62l-.34,0c-11.35-1.84-12.64-7.94-12.64-17.78S159.91,171.82,167.6,171.12Z" style="fill:#b16668"></path><path d="M177.8,173.4c.62.55,4.28,4.13,4.32,14.06,0,10.86-5.41,13.11-11.43,14.08s-14.12-2.78-14.12-8.21h0c.52,7.3,2.93,11.88,12.51,13.44l.34,0c7,1,12.47-5.86,13.28-11.62s.73-10.4,0-13.33C181.75,178.07,180.17,175.23,177.8,173.4Z" style="fill:#9a4a4d;opacity:0.5"></path><path d="M167.79,205.73c7.89-.72,12,2.74,13.8,9.81.67,2.68.74,6.92,0,12.18s-5.72,11.56-12.13,10.62l-.32-.05c-10.36-1.68-11.54-7.25-11.54-16.24S160.77,206.37,167.79,205.73Z" style="fill:#b16668"></path><path d="M178.79,209.47c1.11,1.65,1.92,5.71,1.26,11.86-.85,8.06-2.58,12-9.63,12.48-7.3.53-11.79-2.85-12.56-6.41.69,5.86,3.16,9.57,11.28,10.89l.32.05c6.41.94,11.39-5.36,12.13-10.62s.67-9.5,0-12.18A15.6,15.6,0,0,0,178.79,209.47Z" style="fill:#9a4a4d;opacity:0.5"></path><path d="M168.22,254.54c8.18-.75,14.31,3.15,14.31,10.19v12.64a11.07,11.07,0,0,1-12.59,11l-.32-.05c-10.76-1.75-10.63-11.58-10.76-16.74S160.93,255.21,168.22,254.54Z" style="fill:#b16668"></path><path d="M178.55,256.79c3.57,3.75,2.18,11.37,1.9,18.88-.19,5.21-2.9,9.53-10,9.53s-10.32-4.35-11.28-8.61h0c.59,4.92,2.65,10.48,10.49,11.76l.32.05a11.07,11.07,0,0,0,12.59-11V264.73A9.34,9.34,0,0,0,178.55,256.79Z" style="fill:#9a4a4d;opacity:0.5"></path></g></svg>