<svg xmlns="http://www.w3.org/2000/svg" viewBox="0 0 750 500"><g id="freepik--Floor--inject-72"><path d="M657.58,434.85c0,.15-126.53.27-282.57.27S92.42,435,92.42,434.85s126.5-.26,282.59-.26S657.58,434.71,657.58,434.85Z" style="fill:#263238"></path></g><g id="freepik--Plant--inject-72"><path d="M151.36,241.83c-6.55.62-10,8.41-9.82,15S144,270,142.83,276.46c-1.45,8.23-8.17,14.84-9.43,23.1-1.5,9.75,4.87,18.89,6.32,28.64.71,4.75.25,9.69,1.71,14.26a17.65,17.65,0,0,0,34.4-3.89c.63-7.51-3.56-14.9-2.51-22.37.78-5.52,4.37-10.57,4-16.14-.41-6.62-6.2-11.68-7.94-18.08s.76-13.17.44-19.8c-.57-11.89-6.58-20.54-18.49-20.35" style="fill:#0EA2BD"></path><path d="M151.36,241.83c-6.55.62-10,8.41-9.82,15S144,270,142.83,276.46c-1.45,8.23-8.17,14.84-9.43,23.1-1.5,9.75,4.87,18.89,6.32,28.64.71,4.75.25,9.69,1.71,14.26a17.65,17.65,0,0,0,34.4-3.89c.63-7.51-3.56-14.9-2.51-22.37.78-5.52,4.37-10.57,4-16.14-.41-6.62-6.2-11.68-7.94-18.08s.76-13.17.44-19.8c-.57-11.89-6.58-20.54-18.49-20.35" style="opacity:0.2"></path><path d="M114.56,296.86c-1.81,10.86,2.2,24,7.22,33.85a52.18,52.18,0,0,0,23.12,22.83c1.11.56,2.51,1,3.52.33a3.56,3.56,0,0,0,1.08-2.75,53.83,53.83,0,0,0-34.94-54.26" style="fill:#0EA2BD"></path><path d="M157.23,377.31a3.71,3.71,0,0,1-.27-.63l-.67-1.85c-.55-1.6-1.39-3.91-2.47-6.75a234.76,234.76,0,0,0-9.5-21.73,235.78,235.78,0,0,0-11.72-20.62c-1.63-2.56-3-4.62-3.94-6-.44-.66-.79-1.21-1.08-1.64a3.69,3.69,0,0,1-.34-.59,3.12,3.12,0,0,1,.45.52l1.17,1.57c1,1.36,2.42,3.38,4.11,5.92a199.73,199.73,0,0,1,11.9,20.58,200.36,200.36,0,0,1,9.37,21.85c1,2.87,1.8,5.21,2.28,6.84.23.76.41,1.38.56,1.88A2.71,2.71,0,0,1,157.23,377.31Z" style="fill:#263238"></path><path d="M156.9,272.57a6.75,6.75,0,0,1,0,1.06c0,.74,0,1.75,0,3v11.13c0,9.4,0,22.38.07,36.72s.24,27.33.36,36.72c.06,4.66.11,8.45.14,11.13,0,1.27,0,2.28,0,3a6.23,6.23,0,0,1,0,1.06,7.51,7.51,0,0,1-.09-1.06c0-.74-.07-1.75-.12-3-.08-2.69-.2-6.47-.34-11.13-.23-9.39-.46-22.38-.55-36.72s0-27.33.11-36.73c.09-4.65.16-8.44.2-11.13,0-1.27.07-2.28.1-3A6.19,6.19,0,0,1,156.9,272.57Z" style="fill:#263238"></path><polygon points="141.3 362.1 144.59 434.08 167.61 434.08 170.16 365.39 141.3 362.1" style="fill:#455a64"></polygon><path d="M169.47,380a4.19,4.19,0,0,1-1.05.36,21.58,21.58,0,0,1-3,.55A23.15,23.15,0,0,1,161,381a28.64,28.64,0,0,1-5.39-1,51,51,0,0,0-5.27-1.23,14.18,14.18,0,0,0-4.36,0,10.65,10.65,0,0,0-3.75,1.44,2.88,2.88,0,0,1,.85-.7,8.43,8.43,0,0,1,2.83-1.1,13.57,13.57,0,0,1,4.5-.09,44.56,44.56,0,0,1,5.33,1.21,27.16,27.16,0,0,0,9.7,1C167.93,380.31,169.45,379.88,169.47,380Z" style="fill:#263238"></path><path d="M168.87,387.86s-.28-.31-.84-.74a5.73,5.73,0,0,0-2.75-1.06,9.55,9.55,0,0,0-4.38.52c-1.62.49-3.33,1.3-5.28,1.8a15.29,15.29,0,0,1-10-1,13.5,13.5,0,0,1-2.64-1.61,3.57,3.57,0,0,1-.83-.77,27.47,27.47,0,0,0,3.62,2,15.6,15.6,0,0,0,9.75.83c1.88-.47,3.6-1.27,5.26-1.75a9.79,9.79,0,0,1,4.57-.43,5.62,5.62,0,0,1,2.83,1.28,3.26,3.26,0,0,1,.57.63C168.83,387.76,168.88,387.85,168.87,387.86Z" style="fill:#263238"></path><path d="M169.14,397.65s-.08.06-.26.13a3.5,3.5,0,0,1-.79.19,6.41,6.41,0,0,1-3-.45,41.63,41.63,0,0,1-3.95-1.9,24.55,24.55,0,0,0-5-1.77,25.28,25.28,0,0,0-9.55-.43c-2.45.35-3.9.9-3.93.8a4.53,4.53,0,0,1,1-.43,20.43,20.43,0,0,1,2.87-.73,23.69,23.69,0,0,1,14.8,2.13c1.48.75,2.73,1.53,3.87,2a6.47,6.47,0,0,0,2.79.59C168.75,397.73,169.12,397.6,169.14,397.65Z" style="fill:#263238"></path><path d="M143.23,404.27s.38.11,1.05.13a5.75,5.75,0,0,0,2.73-.67,23.2,23.2,0,0,0,3.52-2.43,10.44,10.44,0,0,1,2.24-1.33,8.78,8.78,0,0,1,2.73-.63,20.76,20.76,0,0,1,5.32.52c1.59.33,3,.62,4.23.77a15.58,15.58,0,0,0,2.87.09,4.29,4.29,0,0,1,1.07-.08,4.25,4.25,0,0,1-1,.28A12.72,12.72,0,0,1,165,401a43.16,43.16,0,0,1-4.28-.66,21.16,21.16,0,0,0-5.19-.47,8.74,8.74,0,0,0-2.58.58,10.34,10.34,0,0,0-2.15,1.25,21.81,21.81,0,0,1-3.64,2.38,5.57,5.57,0,0,1-2.9.53,3,3,0,0,1-.79-.19C143.31,404.34,143.23,404.29,143.23,404.27Z" style="fill:#263238"></path><path d="M168.82,410.52a7.37,7.37,0,0,0-3.57-.9c-2.3-.06-5.4,1.19-9,1.35a29.9,29.9,0,0,1-9.15-.83,22.78,22.78,0,0,1-2.65-.83,3.87,3.87,0,0,1-.93-.43c0-.09,1.39.42,3.67.9a33,33,0,0,0,9,.67,34.06,34.06,0,0,0,4.95-.71,17.34,17.34,0,0,1,4.12-.49,6.63,6.63,0,0,1,2.73.66A2.16,2.16,0,0,1,168.82,410.52Z" style="fill:#263238"></path></g><g id="freepik--Windows--inject-72"><rect x="304.09" y="61.97" width="259.41" height="165.52" style="fill:#fff"></rect><path d="M563.5,227.49c0-1.67-.08-64.43-.2-165.52l.2.21-259.39,0h0l.26-.26c0,58.72,0,114.66,0,165.52l-.24-.24,259.41.24-259.41.24h-.24v-.24c0-50.86,0-106.8,0-165.52v-.26h.28l259.39.06h.21V62C563.58,163.06,563.5,225.82,563.5,227.49Z" style="fill:#263238"></path><polygon points="304.09 66.68 303.94 75.17 563.21 75.63 563.5 66.68 304.09 66.68" style="fill:#0EA2BD"></polygon><polygon points="546.62 101.15 545.66 154.92 587.15 156.13 588.36 101.75 546.62 101.15" style="fill:#263238"></polygon><polygon points="546.8 106.24 577.1 106.4 576.85 103.72 588.28 104.15 588.36 101.75 546.62 101.15 546.8 106.24" style="fill:#455a64"></polygon><polygon points="548.4 103.67 548.36 105.12 555.95 105.13 555.64 103.72 548.4 103.67" style="fill:#0EA2BD"></polygon><polygon points="557.81 103.69 557.76 105.14 565.36 105.16 565.04 103.74 557.81 103.69" style="fill:#0EA2BD"></polygon><polygon points="567.41 103.88 567.36 105.33 574.96 105.34 574.64 103.93 567.41 103.88" style="fill:#0EA2BD"></polygon><polygon points="549.1 108.73 548.79 135.86 574.55 136.78 573.66 109.53 549.1 108.73" style="fill:#455a64"></polygon><path d="M573.58,111.2s-.32.44-.89,1.24-1.37,2-2.34,3.54c-.49.76-1,1.6-1.66,2.49a16.35,16.35,0,0,0-1.67,3c-.5,1.1-1,2.31-1.57,3.54a11.58,11.58,0,0,1-2.37,3.6l-.3.29-.18-.38a40.73,40.73,0,0,1-2.3-5.87,24.61,24.61,0,0,1-1-5l.52.2a27.29,27.29,0,0,0-4.5,7.09c-.57,1.16-1.12,2.26-1.69,3.27l-1.61,2.72-2.33,3.87a9.43,9.43,0,0,1-.91,1.37,9.37,9.37,0,0,1,.72-1.48l2.18-4,1.54-2.76c.54-1,1.06-2.1,1.62-3.26a26.66,26.66,0,0,1,4.55-7.3l.47-.48.05.68a25,25,0,0,0,1,4.9,40.05,40.05,0,0,0,2.25,5.79l-.48-.1a11.5,11.5,0,0,0,2.27-3.4c.56-1.22,1.09-2.4,1.61-3.52a16.32,16.32,0,0,1,1.77-3c.63-.86,1.19-1.68,1.7-2.43,1-1.49,1.87-2.67,2.5-3.44A5.69,5.69,0,0,1,573.58,111.2Z" style="fill:#0EA2BD"></path><rect x="575.63" y="111.1" width="3.31" height="3.31" transform="translate(0.93 -4.68) rotate(0.47)" style="fill:#455a64"></rect><polygon points="579.85 111.67 579.98 113.16 586.34 113.14 586.24 112.11 579.85 111.67" style="fill:#0EA2BD"></polygon><rect x="576.09" y="116.02" width="3.31" height="3.31" transform="translate(0.98 -4.7) rotate(0.47)" style="fill:#455a64"></rect><polygon points="580.31 116.6 580.45 118.09 586.8 118.07 586.71 117.04 580.31 116.6" style="fill:#0EA2BD"></polygon><rect x="575.93" y="121.7" width="3.31" height="3.31" transform="translate(1.02 -4.7) rotate(0.47)" style="fill:#455a64"></rect><polygon points="580.14 122.28 580.28 123.77 586.64 123.75 586.54 122.72 580.14 122.28" style="fill:#0EA2BD"></polygon><polygon points="549.47 138.7 580.42 139.3 580.32 142.07 549.31 140.92 549.47 138.7" style="fill:#455a64"></polygon><polygon points="580.42 139.3 584.11 139.32 584 142.09 580.32 142.07 580.42 139.3" style="fill:#0EA2BD"></polygon><polygon points="549.94 143.81 584.25 144.35 584.23 147.51 549.78 146.03 549.94 143.81" style="fill:#455a64"></polygon><polygon points="566.34 144.03 570.02 144.05 569.91 146.82 566.23 146.8 566.34 144.03" style="fill:#0EA2BD"></polygon><polygon points="550.4 148.73 581.36 149.33 581.25 152.09 550.24 150.95 550.4 148.73" style="fill:#455a64"></polygon><polygon points="581.36 149.33 585.04 149.35 584.93 152.12 581.25 152.09 581.36 149.33" style="fill:#0EA2BD"></polygon><polygon points="287.77 63.96 293.69 63.69 294.22 147.31 288.73 146.52 287.77 63.96" style="fill:#263238"></polygon><polygon points="288.87 67.04 289.47 71.03 291.59 70.84 291.91 66.53 288.87 67.04" style="fill:#0EA2BD"></polygon><polygon points="289.65 108.32 290.25 112.31 292.37 112.12 292.69 107.81 289.65 108.32" style="fill:#0EA2BD"></polygon><polygon points="289.09 73.57 292.45 73.35 292.84 77.67 289.21 77.67 289.09 73.57" style="fill:#0EA2BD"></polygon><polygon points="289.37 87.22 292.29 87.11 292.61 91.83 289.46 91.69 289.37 87.22" style="fill:#0EA2BD"></polygon><polygon points="289.57 93.97 292.49 93.86 292.81 98.58 289.66 98.44 289.57 93.97" style="fill:#0EA2BD"></polygon><polygon points="289.81 100.97 292.73 100.86 293.05 105.58 289.9 105.44 289.81 100.97" style="fill:#0EA2BD"></polygon><polygon points="290 116.17 292.92 116.06 293.24 120.78 290.09 120.64 290 116.17" style="fill:#0EA2BD"></polygon><polygon points="289.28 80.25 292.7 80.58 292.85 85 289.63 84.97 289.28 80.25" style="fill:#0EA2BD"></polygon><rect x="304.09" y="61.97" width="259.41" height="4.71" style="fill:#263238"></rect><path d="M308.93,64.12a.93.93,0,1,1-1-.86A.93.93,0,0,1,308.93,64.12Z" style="fill:#0EA2BD"></path><path d="M312.68,64.18a.93.93,0,1,1-1-.86A.93.93,0,0,1,312.68,64.18Z" style="fill:#0EA2BD"></path><path d="M316.43,64.22a.93.93,0,1,1-1-.86A.94.94,0,0,1,316.43,64.22Z" style="fill:#0EA2BD"></path><polygon points="320.84 63.52 320.98 65.3 333.47 65.32 333.14 63.56 320.84 63.52" style="fill:#455a64"></polygon><polygon points="336.06 63.77 336.3 65.54 345.05 65.36 344.67 63.62 336.06 63.77" style="fill:#455a64"></polygon><polygon points="349.39 64.01 349.58 65.78 358.33 65.84 358.01 64.08 349.39 64.01" style="fill:#455a64"></polygon><polygon points="343.43 95.98 349.3 237.11 523.41 238.15 521.55 99.96 343.43 95.98" style="fill:#fff"></polygon><path d="M343.43,96h.82l2.47,0,9.62.19,36.43.75,128.79,2.76h.22V100c.56,41.15,1.2,88.08,1.88,137.67v.78h-.27L349.3,237.33h-.21v-.21c-1.73-42.59-3.16-77.89-4.16-102.56-.49-12.3-.87-22-1.13-28.54-.13-3.27-.23-5.79-.29-7.49s-.08-2.55-.08-2.55.05.89.13,2.6.19,4.23.34,7.53c.28,6.59.7,16.26,1.24,28.58,1.05,24.64,2.56,59.89,4.38,102.41l-.22-.21,174.12,1-.27.26v-.51c-.66-49.6-1.28-96.52-1.83-137.67l.23.23-128.63-3-36.48-.87-9.67-.25L344.28,96Z" style="fill:#455a64"></path><polygon points="343.32 94.56 343.46 100 521.55 99.96 521.55 95.27 343.32 94.56" style="fill:#263238"></polygon><polygon points="495.17 112.98 496.35 121.65 513.72 121.71 512.9 113.73 495.17 112.98" style="fill:#e0e0e0"></polygon><polygon points="495.2 115.07 512.93 115.82 512.9 113.73 495.17 112.98 495.2 115.07" style="fill:#455a64"></polygon><rect x="499.13" y="116.52" width="2.69" height="2.69" transform="translate(-1.86 8.19) rotate(-0.94)" style="fill:#0EA2BD"></rect><rect x="498.7" y="116.96" width="2.69" height="2.69" transform="matrix(1, -0.02, 0.02, 1, -1.87, 8.19)" style="fill:#263238"></rect><rect x="497.85" y="117.69" width="2.69" height="2.69" transform="translate(-1.88 8.17) rotate(-0.94)" style="fill:#0EA2BD"></rect><polygon points="504.48 117.72 504.35 119.09 512.06 118.9 511.97 118.03 504.48 117.72" style="fill:#263238"></polygon><polygon points="495.33 123.06 496.51 131.72 513.89 131.78 513.06 123.81 495.33 123.06" style="fill:#e0e0e0"></polygon><polygon points="495.36 125.14 513.1 125.89 513.06 123.81 495.33 123.06 495.36 125.14" style="fill:#455a64"></polygon><rect x="499.29" y="126.59" width="2.69" height="2.69" transform="translate(-2.02 8.2) rotate(-0.94)" style="fill:#0EA2BD"></rect><rect x="498.87" y="127.03" width="2.69" height="2.69" transform="matrix(1, -0.02, 0.02, 1, -2.03, 8.19)" style="fill:#263238"></rect><rect x="498.01" y="127.76" width="2.69" height="2.69" transform="translate(-2.04 8.16) rotate(-0.93)" style="fill:#0EA2BD"></rect><polygon points="504.64 127.8 504.52 129.17 512.22 128.97 512.14 128.11 504.64 127.8" style="fill:#263238"></polygon><rect x="361.41" y="138.55" width="4.2" height="4.2" transform="translate(-0.59 1.54) rotate(-0.24)" style="fill:#455a64"></rect><rect x="505.02" y="139.67" width="4.2" height="4.2" transform="translate(-0.6 2.15) rotate(-0.24)" style="fill:#455a64"></rect><rect x="504.53" y="202.77" width="4.2" height="4.2" transform="translate(-0.87 2.16) rotate(-0.24)" style="fill:#455a64"></rect><rect x="364.01" y="198.08" width="4.2" height="4.2" transform="translate(-0.85 1.56) rotate(-0.24)" style="fill:#455a64"></rect><rect x="435.33" y="140.36" width="2.76" height="2.76" transform="translate(576.6 -295.56) rotate(89.76)" style="fill:#455a64"></rect><rect x="362.7" y="170.6" width="2.76" height="2.76" transform="translate(534.52 -192.82) rotate(89.76)" style="fill:#455a64"></rect><rect x="505.6" y="168.22" width="2.76" height="2.76" transform="translate(674.44 -338.1) rotate(89.76)" style="fill:#455a64"></rect><rect x="433.76" y="201.16" width="2.76" height="2.76" transform="translate(635.84 -233.45) rotate(89.76)" style="fill:#455a64"></rect><path d="M507.12,141.77l-.73,0h-2.1l-8.06,0-30-.2-103.19-1,.6-.62c.66,18.7,1.36,39,2.09,60l0,.62-.61-.6,141,3.73-.47.44c.4-19.23.72-34.79.94-45.57.13-5.4.23-9.6.3-12.47,0-1.43.08-2.52.1-3.27,0-.37,0-.64,0-.85s0-.29,0-.3a6.78,6.78,0,0,1,0,1.06V146c0,2.85,0,7-.07,12.38-.11,10.84-.26,26.5-.45,45.84v.46h-.46l-141-3.38h-.59l0-.59c0-.21,0-.42,0-.63-.71-21-1.4-41.34-2-60l0-.63h.62L466.65,141l29.86.53,7.93.17,2,.07A3.68,3.68,0,0,1,507.12,141.77Z" style="fill:#455a64"></path><polygon points="508.78 209.31 511.15 219.96 512.91 216.34 517.15 215.66 508.78 209.31" style="fill:#263238"></polygon><rect x="469.42" y="215.59" width="5.65" height="5.65" style="fill:#0EA2BD"></rect><rect x="477.47" y="215.59" width="5.65" height="5.65" style="fill:#e0e0e0"></rect><rect x="485.53" y="215.59" width="5.65" height="5.65" style="fill:#455a64"></rect><rect x="493.58" y="215.59" width="5.65" height="5.65" style="fill:#263238"></rect><polygon points="502.45 199.33 372.54 195.54 370.41 144.17 502.45 145.95 502.45 199.33" style="fill:#0EA2BD"></polygon><polygon points="403.36 179.63 376.04 179.07 375.15 156.72 403.36 157.12 403.36 179.63" style="fill:#e0e0e0"></polygon><polygon points="537.19 212.43 540.82 255.4 576.19 255.99 573.49 214.85 537.19 212.43" style="fill:#455a64"></polygon><polygon points="536.95 210.59 537.41 214.95 573.58 216.26 573.38 212.01 536.95 210.59" style="fill:#263238"></polygon><polygon points="546.17 222.87 547.97 246.55 568.44 247.62 567.35 223.02 546.17 222.87" style="fill:#263238"></polygon><path d="M566.12,242.13a22,22,0,0,1-4.38.29c-2.72.07-6.5.11-10.75.1h-.41l0-.42c0-.45-.09-.94-.13-1.43-.42-4.56-.75-8.69-.94-11.68a24.28,24.28,0,0,1-.12-4.86,25.85,25.85,0,0,1,.76,4.8c.36,3,.79,7.1,1.21,11.65,0,.49.09,1,.13,1.44l-.45-.42c4.24,0,8,.1,10.74.2A21.64,21.64,0,0,1,566.12,242.13Z" style="fill:#e0e0e0"></path><path d="M550,243.4c.2.16.11.6-.19,1s-.7.57-.9.42-.12-.6.18-1S549.75,243.25,550,243.4Z" style="fill:#0EA2BD"></path><path d="M555,236.92c.2.16-.2,1-.9,1.9s-1.43,1.5-1.63,1.34.2-1,.9-1.9S554.81,236.76,555,236.92Z" style="fill:#0EA2BD"></path><path d="M560.08,230.44c.2.15-.2,1-.9,1.9s-1.43,1.49-1.63,1.34.2-1,.9-1.91S559.88,230.28,560.08,230.44Z" style="fill:#0EA2BD"></path><path d="M563.7,225.8c.2.16.12.6-.18,1s-.71.57-.91.41-.11-.59.19-1S563.5,225.65,563.7,225.8Z" style="fill:#0EA2BD"></path><polygon points="539.69 217.07 539.92 218.97 547.9 219.08 548.21 217.12 539.69 217.07" style="fill:#0EA2BD"></polygon><polygon points="534.72 81.99 535.91 90.66 553.28 90.72 552.45 82.75 534.72 81.99" style="fill:#e0e0e0"></polygon><polygon points="534.76 84.08 552.49 84.83 552.45 82.75 534.72 81.99 534.76 84.08" style="fill:#455a64"></polygon><rect x="538.68" y="85.53" width="2.69" height="2.69" transform="matrix(1, -0.02, 0.02, 1, -1.35, 8.84)" style="fill:#0EA2BD"></rect><rect x="538.26" y="85.97" width="2.69" height="2.69" transform="matrix(1, -0.02, 0.02, 1, -1.35, 8.83)" style="fill:#263238"></rect><rect x="537.41" y="86.7" width="2.69" height="2.69" transform="translate(-1.37 8.82) rotate(-0.94)" style="fill:#0EA2BD"></rect><polygon points="544.03 86.73 543.91 88.11 551.62 87.91 551.53 87.04 544.03 86.73" style="fill:#263238"></polygon></g><g id="freepik--Character--inject-72"><path d="M301.64,299.84v-5s-.2-6.34,8.32-6.93,38.32-.06,38.32-.06,8.84-.22,8.84,5.41V300Z" style="fill:#0EA2BD"></path><path d="M301.64,299.84v-5s-.2-6.34,8.32-6.93,38.32-.06,38.32-.06,8.84-.22,8.84,5.41V300Z" style="opacity:0.2"></path><path d="M301.64,299.84s25.88,1.59,27.23,6.72h4.8s3.17-5.32,23.45-6.52Z" style="fill:#263238"></path><path d="M310.49,434.62H351l-15.43-10.16-.21-58.87h7.53V364h-7.53l-.06-16.61-1.41-3.93-.2-43.44h-4.7c-.16.88,0,43.31,0,43.31l-1.42,3.76V364H315.27v1.57h12.25v58.87Z" style="fill:#263238"></path><path d="M325.07,211.87a17,17,0,0,1-25.2-4,12.21,12.21,0,0,1-2.06-8.2,7.89,7.89,0,0,1,5.09-6.43c1.09-.35,2.26-.4,3.37-.7a3.75,3.75,0,0,0,2.64-2c.53-1.34-.21-2.87,0-4.3.41-2.32,3.13-3.37,4.57-5.24,1.92-2.49,1.33-6,.65-9.08l2.09-1.79Z" style="fill:#263238"></path><path d="M415.8,257.41s-7.39-2.27-7.18-3,4.59.42,6,.92,2.25,0,1.94-.79c-.2-.56-4.6-2.21-6.05-2.68s-5.43-1.67-3-2.68,3.95-2.69,4-3.43a.83.83,0,0,0-1.47-.54,9.8,9.8,0,0,1-2.23,1.47,6.4,6.4,0,0,1-2,.65,21.76,21.76,0,0,1-4.31.25l-2.15-1s-25.92-10.22-28.93-12.14c-1-.61-18.52-24.7-18.52-24.7l-9.08,10.56S358.82,244.35,361.1,246s38.31,11.07,38.31,11.07l.15,0h0a90.86,90.86,0,0,0,8.46,5c3.58,1.64,3.73,1.33,3.85.88.33-1.21-6.18-3.14-4.54-3.54s7.68,3.29,8,2c.38-1.66-6.47-3.55-7-3.76s-.3-1,.21-.82c.72.31,8.39,3.3,8.77,1.67C417.46,257.64,415.8,257.41,415.8,257.41Z" style="fill:#ffbe9d"></path><path d="M296.75,229.33l1.49-19.61c2.47-13.79,20.12-12.62,20.12-12.62l15.17-.24s10.54.33,16.57,8.88c4.9,7,10.22,14.32,10.22,14.32L349,231.55l-4-6.93a9.2,9.2,0,0,1,1.8,6.61c-.46,5.27-4.32,6.27-4.32,6.27L344.21,273l-47.94-.44,7.94-18.28-1.56-25.63Z" style="fill:#0EA2BD"></path><path d="M315.27,229.52c.42-.07.87.51,1.09,1.25s.16,1.48-.23,1.66-1-.35-1.27-1.21S314.84,229.58,315.27,229.52Z" style="fill:#0EA2BD"></path><path d="M316.72,210.52c.43.06.67,1.45.53,3.1s-.61,3-1,3-.66-1.4-.52-3.1S316.3,210.46,316.72,210.52Z" style="fill:#0EA2BD"></path><path d="M313.94,224a.71.71,0,0,1-.49-1.09.72.72,0,0,1,1.16-.3,1,1,0,0,1,.25,1A1,1,0,0,1,313.94,224Z" style="fill:#0EA2BD"></path><path d="M326.25,212.11c.43.08.62.9.44,1.83s-.66,1.61-1.09,1.52-.62-.9-.44-1.82S325.83,212,326.25,212.11Z" style="fill:#0EA2BD"></path><path d="M339.64,213.57c.08.42-.64.91-1.61.84s-1.6-.65-1.47-1.06.83-.55,1.59-.5S339.57,213.15,339.64,213.57Z" style="fill:#0EA2BD"></path><path d="M342,211.53c-.27.34-1.21.06-2.11-.63s-1.42-1.53-1.16-1.87,1.21-.06,2.11.63S342.25,211.19,342,211.53Z" style="fill:#0EA2BD"></path><path d="M344.22,210c-.43,0-.78-1.06-.44-2.32s1.17-2,1.53-1.79.25,1.16,0,2.19S344.66,210,344.22,210Z" style="fill:#0EA2BD"></path><path d="M349.12,208.92c.32.29,0,1.15-.7,1.91s-1.53,1.15-1.85.86,0-1.15.7-1.91S348.8,208.63,349.12,208.92Z" style="fill:#0EA2BD"></path><path d="M346.82,215.22c-.07.43-1,.61-2.09.42s-1.9-.7-1.82-1.12,1-.61,2.09-.42S346.9,214.8,346.82,215.22Z" style="fill:#0EA2BD"></path><path d="M334.44,214.22c-.1.42-.93.6-1.86.39s-1.61-.71-1.51-1.13.92-.6,1.85-.39S334.53,213.8,334.44,214.22Z" style="fill:#0EA2BD"></path><path d="M336.21,210.22c-.21.38-1,.31-1.8-.14s-1.23-1.12-1-1.5,1-.3,1.8.15S336.43,209.85,336.21,210.22Z" style="fill:#0EA2BD"></path><path d="M341.88,207.17c-.37.21-1.09-.39-1.32-1.41s.15-1.87.57-1.84.76.69.95,1.49S342.27,207,341.88,207.17Z" style="fill:#0EA2BD"></path><path d="M348.65,205.11a1.09,1.09,0,1,1-1.18.56A1,1,0,0,1,348.65,205.11Z" style="fill:#0EA2BD"></path><path d="M352.58,211.07c.11.41-.25.88-.82,1a1,1,0,0,1-1.23-.48c-.11-.42.26-.88.82-1A1,1,0,0,1,352.58,211.07Z" style="fill:#0EA2BD"></path><path d="M334.23,203.28c.24-.36,1.31-.06,2.18.91s1.06,2.07.68,2.26-1.11-.41-1.84-1.22S334,203.64,334.23,203.28Z" style="fill:#0EA2BD"></path><path d="M344.06,201.22c.43,0,.78.54.78,1.2s-.35,1.22-.78,1.22-.78-.54-.78-1.21S343.62,201.22,344.06,201.22Z" style="fill:#0EA2BD"></path><path d="M327.36,209.39c.14-.41,1.13-.44,2.2-.08s1.84,1,1.7,1.4-1.12.45-2.2.08S327.22,209.8,327.36,209.39Z" style="fill:#0EA2BD"></path><path d="M331.81,205.88c-.3.31-.93.18-1.39-.28s-.59-1.08-.29-1.39.93-.18,1.39.28S332.11,205.58,331.81,205.88Z" style="fill:#0EA2BD"></path><path d="M338.8,199.54c.43,0,.83.59.89,1.39s-.24,1.47-.67,1.5-.83-.59-.89-1.39S338.37,199.57,338.8,199.54Z" style="fill:#0EA2BD"></path><path d="M320.29,208.92c.4.15.42,1.06,0,2s-1,1.62-1.41,1.46-.42-1.06-.05-2S319.89,208.76,320.29,208.92Z" style="fill:#0EA2BD"></path><path d="M323.13,208.62c.43-.08.92.64,1.1,1.61s0,1.81-.43,1.89-.92-.63-1.1-1.6S322.71,208.7,323.13,208.62Z" style="fill:#0EA2BD"></path><path d="M329.17,207.18c0,.43-.85.73-1.84.68s-1.78-.45-1.76-.88.85-.73,1.84-.68S329.2,206.75,329.17,207.18Z" style="fill:#0EA2BD"></path><path d="M317.81,206.74c.09.42-.5.91-1.31,1.08s-1.54,0-1.64-.44.5-.91,1.31-1.08S317.71,206.32,317.81,206.74Z" style="fill:#0EA2BD"></path><path d="M323.11,205.14c.16.4-.27.93-.94,1.19s-1.34.13-1.49-.28.27-.93.94-1.19S323,204.73,323.11,205.14Z" style="fill:#0EA2BD"></path><path d="M318.37,203.71c.05.43-1.14.9-2.63.77s-2.59-.79-2.47-1.2,1.26-.47,2.6-.36S318.33,203.28,318.37,203.71Z" style="fill:#0EA2BD"></path><path d="M320.94,201.69c-.18.4-1.4.25-2.73-.33s-2.27-1.37-2.1-1.77,1.39-.24,2.73.34S321.11,201.3,320.94,201.69Z" style="fill:#0EA2BD"></path><path d="M335.33,199.73c.18.4-.27,1-.93,1.43s-1.39.62-1.68.3,0-1.09.82-1.61S335.16,199.34,335.33,199.73Z" style="fill:#0EA2BD"></path><path d="M313.15,200.6c-.16.41-.79.53-1.42.29s-1-.77-.84-1.17.79-.53,1.42-.29S313.31,200.2,313.15,200.6Z" style="fill:#0EA2BD"></path><path d="M334.68,244.33c0,.43-1,.82-2.3.86s-2.34-.27-2.35-.71,1-.81,2.3-.85S334.66,243.9,334.68,244.33Z" style="fill:#0EA2BD"></path><path d="M337,241.6c-.31.3-1.1,0-1.77-.71s-1-1.5-.65-1.8,1.1,0,1.77.71S337.32,241.3,337,241.6Z" style="fill:#0EA2BD"></path><path d="M339.28,240.22c-.41.08-.93-.78-.85-1.93s.72-1.94,1.12-1.79.5,1,.44,1.9S339.71,240.14,339.28,240.22Z" style="fill:#0EA2BD"></path><path d="M341.16,242.21c.28.33.06,1-.44,1.53s-1.15.81-1.5.55-.21-1,.35-1.61S340.88,241.89,341.16,242.21Z" style="fill:#0EA2BD"></path><path d="M340.19,248.87c-.43,0-.76-.66-.62-1.44s.67-1.28,1.08-1.15.57.76.46,1.42S340.62,248.88,340.19,248.87Z" style="fill:#0EA2BD"></path><path d="M336.4,246.37a.86.86,0,0,1,.33.9.89.89,0,0,1-.93.24.67.67,0,1,1,.6-1.14Z" style="fill:#0EA2BD"></path><path d="M342.89,234.85c.4.15.42,1.12-.13,2.09s-1.39,1.47-1.72,1.2-.12-1.11.36-2S342.48,234.7,342.89,234.85Z" style="fill:#0EA2BD"></path><path d="M339.69,234.43c0,.43-.83.83-1.89.89s-1.95-.24-2-.68.82-.82,1.89-.88S339.66,234,339.69,234.43Z" style="fill:#0EA2BD"></path><path d="M332.73,241.37c-.34.27-.93.09-1.33-.4s-.44-1.12-.1-1.39.93-.08,1.32.41S333.07,241.1,332.73,241.37Z" style="fill:#0EA2BD"></path><path d="M326.39,244.71c-.3.31-1.28-.17-1.93-1.26s-.6-2.18-.19-2.29,1,.6,1.53,1.49S326.69,244.4,326.39,244.71Z" style="fill:#0EA2BD"></path><path d="M323.08,244.67c-.11.41-.73.61-1.38.44s-1.09-.65-1-1.07.73-.61,1.38-.44S323.19,244.25,323.08,244.67Z" style="fill:#0EA2BD"></path><path d="M301.15,268.07c-.43-.06-.63-1.07-.46-2.26s.66-2.11,1.09-2.05.63,1.08.46,2.27S301.58,268.13,301.15,268.07Z" style="fill:#0EA2BD"></path><path d="M307,267.4c-.39.18-1.2-.72-1.81-2s-.78-2.49-.39-2.67,1.2.72,1.81,2S307.43,267.21,307,267.4Z" style="fill:#0EA2BD"></path><path d="M312.21,263.77c-.28.33-1.38-.16-2.54-1s-2-1.71-1.75-2.08,1.44-.06,2.66.81S312.49,263.45,312.21,263.77Z" style="fill:#0EA2BD"></path><path d="M304.28,257.69c.4.16.46.94.13,1.74s-.91,1.33-1.31,1.17-.46-1-.14-1.75S303.88,257.52,304.28,257.69Z" style="fill:#0EA2BD"></path><path d="M312.42,268.33c-.34.26-1.07-.12-1.63-.86s-.73-1.54-.38-1.8,1.07.13,1.63.86S312.76,268.07,312.42,268.33Z" style="fill:#0EA2BD"></path><path d="M303.85,269.93c-.43.07-.85-.43-1-1.11s.17-1.27.6-1.33.85.43.95,1.11S304.27,269.87,303.85,269.93Z" style="fill:#0EA2BD"></path><path d="M320.41,262.05c-.11.42-1.5.49-3.09.16s-2.83-.94-2.76-1.37,1.44-.5,3.08-.16S320.52,261.63,320.41,262.05Z" style="fill:#0EA2BD"></path><path d="M319.44,268.2c-.27.33-1.39-.14-2.5-1.05s-1.79-1.93-1.52-2.26,1.4.13,2.51,1.05S319.72,267.87,319.44,268.2Z" style="fill:#0EA2BD"></path><path d="M325,266.47c-.13.41-1.06.48-2.1.16s-1.76-.91-1.63-1.32,1.07-.49,2.1-.17S325.17,266.06,325,266.47Z" style="fill:#0EA2BD"></path><path d="M329.48,267.5c0,.43-.6.82-1.31,1.15s-1.41.53-1.73.23.08-1.19,1.09-1.65S329.47,267.07,329.48,267.5Z" style="fill:#0EA2BD"></path><path d="M328.08,263.76c-.21.37-1,.31-1.84-.14s-1.28-1.12-1.07-1.5,1-.31,1.84.14S328.3,263.38,328.08,263.76Z" style="fill:#0EA2BD"></path><path d="M332.64,263.3a1.42,1.42,0,0,1-.29,1.33c-.31.43-.71.8-1.14.75s-.68-.86-.15-1.63S332.45,262.92,332.64,263.3Z" style="fill:#0EA2BD"></path><path d="M337.3,266.79c0,.43-.81.81-1.84.84s-1.88-.29-1.89-.72.81-.81,1.84-.84S337.28,266.36,337.3,266.79Z" style="fill:#0EA2BD"></path><path d="M338,264.29c-.17.4-1,.42-1.82.07s-1.38-1-1.21-1.37,1-.43,1.83-.07S338.14,263.89,338,264.29Z" style="fill:#0EA2BD"></path><path d="M341.15,265.51c-.43-.06-.69-.72-.43-1.42s.88-1,1.24-.8a1.13,1.13,0,0,1,.23,1.34C342,265.16,341.58,265.57,341.15,265.51Z" style="fill:#0EA2BD"></path><path d="M315.86,224.73c.36-.24,1.15.33,1.77,1.27s.83,1.89.47,2.13-1.16-.33-1.78-1.27S315.5,225,315.86,224.73Z" style="fill:#0EA2BD"></path><path d="M322.43,223.32c.36.23.06,1.36-.68,2.52s-1.64,1.91-2,1.68-.06-1.36.68-2.52S322.07,223.09,322.43,223.32Z" style="fill:#0EA2BD"></path><path d="M326.05,227.7c.15.41-.58,1.05-1.63,1.45s-2,.39-2.18,0,.58-1,1.63-1.44S325.9,227.3,326.05,227.7Z" style="fill:#0EA2BD"></path><path d="M325.09,234.72c-.26.34-1.21.07-2-.71s-1.16-1.7-.84-2,1.15.13,1.91.84S325.34,234.37,325.09,234.72Z" style="fill:#0EA2BD"></path><path d="M319.3,237.5c-.41.1-1-1-.92-2.45s.82-2.47,1.22-2.31.4,1.2.34,2.41S319.73,237.4,319.3,237.5Z" style="fill:#0EA2BD"></path><path d="M321.11,230.75c-.11.42-.79.59-1.52.39s-1.21-.71-1.09-1.12.79-.59,1.52-.39S321.23,230.34,321.11,230.75Z" style="fill:#0EA2BD"></path><path d="M327.13,222.72c.35.25,0,1.33-1,2.23s-2.09,1.14-2.3.77.41-1.15,1.25-1.93S326.78,222.47,327.13,222.72Z" style="fill:#0EA2BD"></path><path d="M318.41,220.12c.41-.1.94.65,1,1.7s-.39,1.84-.82,1.79-.69-.82-.74-1.71S318,220.21,318.41,220.12Z" style="fill:#0EA2BD"></path><path d="M324.14,217.34c.41.1.53,1.09.11,2.15s-1.19,1.71-1.56,1.49-.27-1.11.11-2.06S323.71,217.24,324.14,217.34Z" style="fill:#0EA2BD"></path><path d="M331.36,226.94c0,.43-.59.84-1.4.92s-1.51-.21-1.55-.64.59-.84,1.4-.92S331.32,226.51,331.36,226.94Z" style="fill:#0EA2BD"></path><path d="M329.15,232.52c-.15.41-1,.49-2,.19s-1.59-.89-1.48-1.31,1-.5,2-.18S329.3,232.12,329.15,232.52Z" style="fill:#0EA2BD"></path><path d="M323.11,238.84c-.37.21-1.08-.34-1.36-1.32s0-1.81.43-1.84.83.61,1.07,1.4S323.49,238.63,323.11,238.84Z" style="fill:#0EA2BD"></path><path d="M319.12,242.58c-.43,0-.81-.56-.86-1.3s.27-1.37.7-1.4.82.56.86,1.31S319.55,242.56,319.12,242.58Z" style="fill:#0EA2BD"></path><path d="M329,240.66c-.4.18-1.08-.48-1.68-1.39s-.91-1.8-.58-2.09,1.23.22,1.89,1.24S329.4,240.48,329,240.66Z" style="fill:#0EA2BD"></path><path d="M333.58,237c-.22.37-1.2.21-2.27-.22s-1.87-1-1.76-1.44,1.19-.49,2.36,0S333.79,236.65,333.58,237Z" style="fill:#0EA2BD"></path><path d="M333.9,232.42a1.37,1.37,0,0,1-1.37-.11c-.47-.26-.89-.64-.86-1.08s.79-.72,1.59-.3S334.24,232.16,333.9,232.42Z" style="fill:#0EA2BD"></path><path d="M321,213.6c.43.07.62,1.06.51,2.21s-.49,2.08-.92,2.07-.75-1-.63-2.22S320.53,213.53,321,213.6Z" style="fill:#0EA2BD"></path><path d="M329.91,217c.32.29,0,1.2-.77,2s-1.6,1.27-1.92,1,0-1.19.76-2S329.58,216.69,329.91,217Z" style="fill:#0EA2BD"></path><path d="M331.26,219.1a.74.74,0,0,1,1,.09.78.78,0,0,1-1.25.93A.73.73,0,0,1,331.26,219.1Z" style="fill:#0EA2BD"></path><path d="M307.29,216.09c-.14.41-1.24.4-2.41-.14s-1.9-1.36-1.68-1.73,1.24-.19,2.33.31S307.43,215.68,307.29,216.09Z" style="fill:#0EA2BD"></path><path d="M302.43,224.57c-.39.16-1-.44-1.24-1.37s0-1.76.43-1.81.87.59,1.08,1.42S302.84,224.41,302.43,224.57Z" style="fill:#0EA2BD"></path><path d="M308.58,220.85c-.32.29-1.11-.08-1.75-.81s-.9-1.56-.58-1.84,1.11.08,1.75.81S308.91,220.57,308.58,220.85Z" style="fill:#0EA2BD"></path><path d="M305.66,208c.3.3-.25,1.37-1.25,2.38s-2.05,1.58-2.36,1.28.25-1.37,1.25-2.38S305.35,207.66,305.66,208Z" style="fill:#0EA2BD"></path><path d="M301.06,206.11c.41.14.46,1,.12,2s-.95,1.65-1.36,1.51-.46-1.05-.11-2S300.66,206,301.06,206.11Z" style="fill:#0EA2BD"></path><path d="M301.24,213.6c.24.36-.12,1-.68,1.61s-1.22,1-1.59.73-.23-1.1.47-1.81S301,213.24,301.24,213.6Z" style="fill:#0EA2BD"></path><path d="M299.5,212.54c-.39.17-.91-.17-.94-.79s.45-1,.86-.87a.85.85,0,0,1,.08,1.66Z" style="fill:#0EA2BD"></path><path d="M308.12,211.54c.06.43-.67.88-1.63,1s-1.79-.11-1.85-.53.67-.89,1.63-1S308.06,211.12,308.12,211.54Z" style="fill:#0EA2BD"></path><path d="M304.88,204.16c.36.25.16,1.12-.43,2s-1.36,1.31-1.71,1.06-.16-1.13.44-2S304.53,203.91,304.88,204.16Z" style="fill:#0EA2BD"></path><path d="M307.73,226.16c-.31.3-1.25-.19-1.81-1.29s-.41-2.15,0-2.22.92.64,1.38,1.51S308.05,225.86,307.73,226.16Z" style="fill:#0EA2BD"></path><path d="M298.82,227.7c-.43.05-.84-.62-.77-1.48s.59-1.46,1-1.35.61.76.56,1.47S299.25,227.66,298.82,227.7Z" style="fill:#0EA2BD"></path><path d="M304.64,227.61c-.12.42-.91.54-1.77.28s-1.44-.81-1.31-1.22.92-.54,1.77-.28S304.77,227.2,304.64,227.61Z" style="fill:#0EA2BD"></path><path d="M312,225.56c-.32.29-1.12-.09-1.79-.84s-1-1.59-.63-1.88,1.13.09,1.79.84S312.33,225.27,312,225.56Z" style="fill:#0EA2BD"></path><path d="M313.72,213.76c0,.43-.91.83-2.09.9s-2.16-.22-2.19-.65.91-.84,2.1-.91S313.7,213.33,313.72,213.76Z" style="fill:#0EA2BD"></path><path d="M311.41,206.21c.22.37-.39,1.11-1.35,1.65s-1.91.68-2.12.3.39-1.12,1.35-1.66S311.2,205.83,311.41,206.21Z" style="fill:#0EA2BD"></path><path d="M302.78,202.23a1,1,0,0,1,.19,1.31c-.28.52-.81.79-1.19.58a1,1,0,0,1-.19-1.31C301.86,202.29,302.4,202,302.78,202.23Z" style="fill:#0EA2BD"></path><path d="M309.84,202.06c.31.3,0,1.14-.71,1.88s-1.53,1.09-1.84.8,0-1.14.71-1.88S309.53,201.77,309.84,202.06Z" style="fill:#0EA2BD"></path><path d="M314.23,209.85c.08.42-.62.91-1.57,1.09s-1.78,0-1.86-.44.62-.91,1.57-1.09S314.15,209.43,314.23,209.85Z" style="fill:#0EA2BD"></path><path d="M314.84,220.17c-.25.35-1.16.14-2.1-.38s-1.59-1.2-1.41-1.59,1.17-.34,2.17.23S315.08,219.81,314.84,220.17Z" style="fill:#0EA2BD"></path><path d="M340.6,227.54c-.13.41-1.22.43-2.43.05s-2.09-1-2-1.43,1.21-.44,2.42-.06S340.72,227.13,340.6,227.54Z" style="fill:#0EA2BD"></path><path d="M341,231.67c-.28.33-1.05.12-1.7-.46s-1-1.32-.68-1.64,1.05-.12,1.71.47S341.24,231.35,341,231.67Z" style="fill:#0EA2BD"></path><path d="M341.61,222.19c.14.41-.78,1.16-2.05,1.69s-2.47.63-2.65.24.73-1.15,2-1.69S341.47,221.78,341.61,222.19Z" style="fill:#0EA2BD"></path><path d="M343.34,225c0,.43-.6.8-1.36.82s-1.38-.31-1.39-.75.59-.79,1.35-.81S343.32,224.54,343.34,225Z" style="fill:#0EA2BD"></path><path d="M345.33,230.49c-.41.17-1-.29-1.64-.76s-1.22-.94-1.16-1.37c0-.21.3-.37.7-.38a2.51,2.51,0,0,1,2.28,1.74C345.6,230.11,345.52,230.4,345.33,230.49Z" style="fill:#0EA2BD"></path><path d="M345.37,234.58c-.34.27-1.13-.17-1.76-1s-.87-1.68-.53-1.94,1.13.17,1.76,1S345.71,234.32,345.37,234.58Z" style="fill:#0EA2BD"></path><path d="M329.6,222.72c.21-.37,1.4-.09,2.66.62s2.11,1.6,1.9,2-1.41.09-2.67-.62S329.38,223.1,329.6,222.72Z" style="fill:#0EA2BD"></path><path d="M334.64,216.48c.43,0,.84,1.19.92,2.7s-.21,2.77-.65,2.79-.84-1.19-.91-2.71S334.21,216.5,334.64,216.48Z" style="fill:#0EA2BD"></path><path d="M341.06,217.59c.26.34-.29,1.21-1.24,1.95s-1.94,1.06-2.2.72.29-1.21,1.24-1.95S340.79,217.25,341.06,217.59Z" style="fill:#0EA2BD"></path><path d="M347.35,218.91c.1.42-.8,1-2,1.3s-2.28.19-2.39-.23.8-1,2-1.29S347.25,218.49,347.35,218.91Z" style="fill:#0EA2BD"></path><path d="M349.12,224c-.13.42-1.07.49-2.11.18s-1.79-.91-1.66-1.32,1.07-.49,2.11-.18S349.24,223.61,349.12,224Z" style="fill:#0EA2BD"></path><path d="M353.21,220c.06.43-.6.88-1.48,1s-1.66-.1-1.72-.53.6-.88,1.48-1S353.15,219.56,353.21,220Z" style="fill:#0EA2BD"></path><path d="M350.84,225.81c.18.39-.33,1-1.17,1.2s-1.56-.13-1.58-.56.54-.8,1.23-1S350.66,225.42,350.84,225.81Z" style="fill:#0EA2BD"></path><path d="M353,225.08c-.41.13-.94-.37-1-1.15s.45-1.33.87-1.23.66.61.69,1.16S353.36,225,353,225.08Z" style="fill:#0EA2BD"></path><path d="M350.16,213.91c.43.08.61,1,.4,2.11s-.71,1.9-1.13,1.82-.6-1-.4-2.11S349.74,213.83,350.16,213.91Z" style="fill:#0EA2BD"></path><path d="M353.93,217c-.43-.05-.72-.69-.64-1.45s.48-1.34.91-1.3.72.69.64,1.45S354.36,217.07,353.93,217Z" style="fill:#0EA2BD"></path><path d="M356.58,221.15c-.43,0-.86-.6-1-1.46s.16-1.6.58-1.65.86.6,1,1.46S357,221.1,356.58,221.15Z" style="fill:#0EA2BD"></path><path d="M299.17,223.36c-.43,0-.83-1.35-.78-3.05s.53-3.05,1-3,.65,1.4.6,3S299.6,223.34,299.17,223.36Z" style="fill:#0EA2BD"></path><path d="M304.11,220.87c-.37.23-1.29-.57-2.07-1.8s-1.12-2.39-.75-2.63,1.29.57,2.06,1.79S304.47,220.63,304.11,220.87Z" style="fill:#0EA2BD"></path><path d="M336.91,232.46c-.38.21-1.31-.74-2.08-2.12s-1.09-2.67-.72-2.88,1.31.74,2.08,2.12S337.29,232.25,336.91,232.46Z" style="fill:#0EA2BD"></path><g style="opacity:0.2"><path d="M315.27,229.52c.42-.07.87.51,1.09,1.25s.16,1.48-.23,1.66-1-.35-1.27-1.21S314.84,229.58,315.27,229.52Z" style="fill:#fff"></path><path d="M316.72,210.52c.43.06.67,1.45.53,3.1s-.61,3-1,3-.66-1.4-.52-3.1S316.3,210.46,316.72,210.52Z" style="fill:#fff"></path><path d="M313.94,224a.71.71,0,0,1-.49-1.09.72.72,0,0,1,1.16-.3,1,1,0,0,1,.25,1A1,1,0,0,1,313.94,224Z" style="fill:#fff"></path><path d="M326.25,212.11c.43.08.62.9.44,1.83s-.66,1.61-1.09,1.52-.62-.9-.44-1.82S325.83,212,326.25,212.11Z" style="fill:#fff"></path><path d="M339.64,213.57c.08.42-.64.91-1.61.84s-1.6-.65-1.47-1.06.83-.55,1.59-.5S339.57,213.15,339.64,213.57Z" style="fill:#fff"></path><path d="M342,211.53c-.27.34-1.21.06-2.11-.63s-1.42-1.53-1.16-1.87,1.21-.06,2.11.63S342.25,211.19,342,211.53Z" style="fill:#fff"></path><path d="M344.22,210c-.43,0-.78-1.06-.44-2.32s1.17-2,1.53-1.79.25,1.16,0,2.19S344.66,210,344.22,210Z" style="fill:#fff"></path><path d="M349.12,208.92c.32.29,0,1.15-.7,1.91s-1.53,1.15-1.85.86,0-1.15.7-1.91S348.8,208.63,349.12,208.92Z" style="fill:#fff"></path><path d="M346.82,215.22c-.07.43-1,.61-2.09.42s-1.9-.7-1.82-1.12,1-.61,2.09-.42S346.9,214.8,346.82,215.22Z" style="fill:#fff"></path><path d="M334.44,214.22c-.1.42-.93.6-1.86.39s-1.61-.71-1.51-1.13.92-.6,1.85-.39S334.53,213.8,334.44,214.22Z" style="fill:#fff"></path><path d="M336.21,210.22c-.21.38-1,.31-1.8-.14s-1.23-1.12-1-1.5,1-.3,1.8.15S336.43,209.85,336.21,210.22Z" style="fill:#fff"></path><path d="M341.88,207.17c-.37.21-1.09-.39-1.32-1.41s.15-1.87.57-1.84.76.69.95,1.49S342.27,207,341.88,207.17Z" style="fill:#fff"></path><path d="M348.65,205.11a1.09,1.09,0,1,1-1.18.56A1,1,0,0,1,348.65,205.11Z" style="fill:#fff"></path><path d="M352.58,211.07c.11.41-.25.88-.82,1a1,1,0,0,1-1.23-.48c-.11-.42.26-.88.82-1A1,1,0,0,1,352.58,211.07Z" style="fill:#fff"></path><path d="M334.23,203.28c.24-.36,1.31-.06,2.18.91s1.06,2.07.68,2.26-1.11-.41-1.84-1.22S334,203.64,334.23,203.28Z" style="fill:#fff"></path><path d="M344.06,201.22c.43,0,.78.54.78,1.2s-.35,1.22-.78,1.22-.78-.54-.78-1.21S343.62,201.22,344.06,201.22Z" style="fill:#fff"></path><path d="M327.36,209.39c.14-.41,1.13-.44,2.2-.08s1.84,1,1.7,1.4-1.12.45-2.2.08S327.22,209.8,327.36,209.39Z" style="fill:#fff"></path><path d="M331.81,205.88c-.3.31-.93.18-1.39-.28s-.59-1.08-.29-1.39.93-.18,1.39.28S332.11,205.58,331.81,205.88Z" style="fill:#fff"></path><path d="M338.8,199.54c.43,0,.83.59.89,1.39s-.24,1.47-.67,1.5-.83-.59-.89-1.39S338.37,199.57,338.8,199.54Z" style="fill:#fff"></path><path d="M320.29,208.92c.4.15.42,1.06,0,2s-1,1.62-1.41,1.46-.42-1.06-.05-2S319.89,208.76,320.29,208.92Z" style="fill:#fff"></path><path d="M323.13,208.62c.43-.08.92.64,1.1,1.61s0,1.81-.43,1.89-.92-.63-1.1-1.6S322.71,208.7,323.13,208.62Z" style="fill:#fff"></path><path d="M329.17,207.18c0,.43-.85.73-1.84.68s-1.78-.45-1.76-.88.85-.73,1.84-.68S329.2,206.75,329.17,207.18Z" style="fill:#fff"></path><path d="M317.81,206.74c.09.42-.5.91-1.31,1.08s-1.54,0-1.64-.44.5-.91,1.31-1.08S317.71,206.32,317.81,206.74Z" style="fill:#fff"></path><path d="M323.11,205.14c.16.4-.27.93-.94,1.19s-1.34.13-1.49-.28.27-.93.94-1.19S323,204.73,323.11,205.14Z" style="fill:#fff"></path><path d="M318.37,203.71c.05.43-1.14.9-2.63.77s-2.59-.79-2.47-1.2,1.26-.47,2.6-.36S318.33,203.28,318.37,203.71Z" style="fill:#fff"></path><path d="M320.94,201.69c-.18.4-1.4.25-2.73-.33s-2.27-1.37-2.1-1.77,1.39-.24,2.73.34S321.11,201.3,320.94,201.69Z" style="fill:#fff"></path><path d="M335.33,199.73c.18.4-.27,1-.93,1.43s-1.39.62-1.68.3,0-1.09.82-1.61S335.16,199.34,335.33,199.73Z" style="fill:#fff"></path><path d="M313.15,200.6c-.16.41-.79.53-1.42.29s-1-.77-.84-1.17.79-.53,1.42-.29S313.31,200.2,313.15,200.6Z" style="fill:#fff"></path><path d="M334.68,244.33c0,.43-1,.82-2.3.86s-2.34-.27-2.35-.71,1-.81,2.3-.85S334.66,243.9,334.68,244.33Z" style="fill:#fff"></path><path d="M337,241.6c-.31.3-1.1,0-1.77-.71s-1-1.5-.65-1.8,1.1,0,1.77.71S337.32,241.3,337,241.6Z" style="fill:#fff"></path><path d="M339.28,240.22c-.41.08-.93-.78-.85-1.93s.72-1.94,1.12-1.79.5,1,.44,1.9S339.71,240.14,339.28,240.22Z" style="fill:#fff"></path><path d="M341.16,242.21c.28.33.06,1-.44,1.53s-1.15.81-1.5.55-.21-1,.35-1.61S340.88,241.89,341.16,242.21Z" style="fill:#fff"></path><path d="M340.19,248.87c-.43,0-.76-.66-.62-1.44s.67-1.28,1.08-1.15.57.76.46,1.42S340.62,248.88,340.19,248.87Z" style="fill:#fff"></path><path d="M336.4,246.37a.86.86,0,0,1,.33.9.89.89,0,0,1-.93.24.67.67,0,1,1,.6-1.14Z" style="fill:#fff"></path><path d="M342.89,234.85c.4.15.42,1.12-.13,2.09s-1.39,1.47-1.72,1.2-.12-1.11.36-2S342.48,234.7,342.89,234.85Z" style="fill:#fff"></path><path d="M339.69,234.43c0,.43-.83.83-1.89.89s-1.95-.24-2-.68.82-.82,1.89-.88S339.66,234,339.69,234.43Z" style="fill:#fff"></path><path d="M332.73,241.37c-.34.27-.93.09-1.33-.4s-.44-1.12-.1-1.39.93-.08,1.32.41S333.07,241.1,332.73,241.37Z" style="fill:#fff"></path><path d="M326.39,244.71c-.3.31-1.28-.17-1.93-1.26s-.6-2.18-.19-2.29,1,.6,1.53,1.49S326.69,244.4,326.39,244.71Z" style="fill:#fff"></path><path d="M323.08,244.67c-.11.41-.73.61-1.38.44s-1.09-.65-1-1.07.73-.61,1.38-.44S323.19,244.25,323.08,244.67Z" style="fill:#fff"></path><path d="M301.15,268.07c-.43-.06-.63-1.07-.46-2.26s.66-2.11,1.09-2.05.63,1.08.46,2.27S301.58,268.13,301.15,268.07Z" style="fill:#fff"></path><path d="M307,267.4c-.39.18-1.2-.72-1.81-2s-.78-2.49-.39-2.67,1.2.72,1.81,2S307.43,267.21,307,267.4Z" style="fill:#fff"></path><path d="M312.21,263.77c-.28.33-1.38-.16-2.54-1s-2-1.71-1.75-2.08,1.44-.06,2.66.81S312.49,263.45,312.21,263.77Z" style="fill:#fff"></path><path d="M304.28,257.69c.4.16.46.94.13,1.74s-.91,1.33-1.31,1.17-.46-1-.14-1.75S303.88,257.52,304.28,257.69Z" style="fill:#fff"></path><path d="M312.42,268.33c-.34.26-1.07-.12-1.63-.86s-.73-1.54-.38-1.8,1.07.13,1.63.86S312.76,268.07,312.42,268.33Z" style="fill:#fff"></path><path d="M303.85,269.93c-.43.07-.85-.43-1-1.11s.17-1.27.6-1.33.85.43.95,1.11S304.27,269.87,303.85,269.93Z" style="fill:#fff"></path><path d="M320.41,262.05c-.11.42-1.5.49-3.09.16s-2.83-.94-2.76-1.37,1.44-.5,3.08-.16S320.52,261.63,320.41,262.05Z" style="fill:#fff"></path><path d="M319.44,268.2c-.27.33-1.39-.14-2.5-1.05s-1.79-1.93-1.52-2.26,1.4.13,2.51,1.05S319.72,267.87,319.44,268.2Z" style="fill:#fff"></path><path d="M325,266.47c-.13.41-1.06.48-2.1.16s-1.76-.91-1.63-1.32,1.07-.49,2.1-.17S325.17,266.06,325,266.47Z" style="fill:#fff"></path><path d="M329.48,267.5c0,.43-.6.82-1.31,1.15s-1.41.53-1.73.23.08-1.19,1.09-1.65S329.47,267.07,329.48,267.5Z" style="fill:#fff"></path><path d="M328.08,263.76c-.21.37-1,.31-1.84-.14s-1.28-1.12-1.07-1.5,1-.31,1.84.14S328.3,263.38,328.08,263.76Z" style="fill:#fff"></path><path d="M332.64,263.3a1.42,1.42,0,0,1-.29,1.33c-.31.43-.71.8-1.14.75s-.68-.86-.15-1.63S332.45,262.92,332.64,263.3Z" style="fill:#fff"></path><path d="M337.3,266.79c0,.43-.81.81-1.84.84s-1.88-.29-1.89-.72.81-.81,1.84-.84S337.28,266.36,337.3,266.79Z" style="fill:#fff"></path><path d="M338,264.29c-.17.4-1,.42-1.82.07s-1.38-1-1.21-1.37,1-.43,1.83-.07S338.14,263.89,338,264.29Z" style="fill:#fff"></path><path d="M341.15,265.51c-.43-.06-.69-.72-.43-1.42s.88-1,1.24-.8a1.13,1.13,0,0,1,.23,1.34C342,265.16,341.58,265.57,341.15,265.51Z" style="fill:#fff"></path><path d="M315.86,224.73c.36-.24,1.15.33,1.77,1.27s.83,1.89.47,2.13-1.16-.33-1.78-1.27S315.5,225,315.86,224.73Z" style="fill:#fff"></path><path d="M322.43,223.32c.36.23.06,1.36-.68,2.52s-1.64,1.91-2,1.68-.06-1.36.68-2.52S322.07,223.09,322.43,223.32Z" style="fill:#fff"></path><path d="M326.05,227.7c.15.41-.58,1.05-1.63,1.45s-2,.39-2.18,0,.58-1,1.63-1.44S325.9,227.3,326.05,227.7Z" style="fill:#fff"></path><path d="M325.09,234.72c-.26.34-1.21.07-2-.71s-1.16-1.7-.84-2,1.15.13,1.91.84S325.34,234.37,325.09,234.72Z" style="fill:#fff"></path><path d="M319.3,237.5c-.41.1-1-1-.92-2.45s.82-2.47,1.22-2.31.4,1.2.34,2.41S319.73,237.4,319.3,237.5Z" style="fill:#fff"></path><path d="M321.11,230.75c-.11.42-.79.59-1.52.39s-1.21-.71-1.09-1.12.79-.59,1.52-.39S321.23,230.34,321.11,230.75Z" style="fill:#fff"></path><path d="M327.13,222.72c.35.25,0,1.33-1,2.23s-2.09,1.14-2.3.77.41-1.15,1.25-1.93S326.78,222.47,327.13,222.72Z" style="fill:#fff"></path><path d="M318.41,220.12c.41-.1.94.65,1,1.7s-.39,1.84-.82,1.79-.69-.82-.74-1.71S318,220.21,318.41,220.12Z" style="fill:#fff"></path><path d="M324.14,217.34c.41.1.53,1.09.11,2.15s-1.19,1.71-1.56,1.49-.27-1.11.11-2.06S323.71,217.24,324.14,217.34Z" style="fill:#fff"></path><path d="M331.36,226.94c0,.43-.59.84-1.4.92s-1.51-.21-1.55-.64.59-.84,1.4-.92S331.32,226.51,331.36,226.94Z" style="fill:#fff"></path><path d="M329.15,232.52c-.15.41-1,.49-2,.19s-1.59-.89-1.48-1.31,1-.5,2-.18S329.3,232.12,329.15,232.52Z" style="fill:#fff"></path><path d="M323.11,238.84c-.37.21-1.08-.34-1.36-1.32s0-1.81.43-1.84.83.61,1.07,1.4S323.49,238.63,323.11,238.84Z" style="fill:#fff"></path><path d="M319.12,242.58c-.43,0-.81-.56-.86-1.3s.27-1.37.7-1.4.82.56.86,1.31S319.55,242.56,319.12,242.58Z" style="fill:#fff"></path><path d="M329,240.66c-.4.18-1.08-.48-1.68-1.39s-.91-1.8-.58-2.09,1.23.22,1.89,1.24S329.4,240.48,329,240.66Z" style="fill:#fff"></path><path d="M333.58,237c-.22.37-1.2.21-2.27-.22s-1.87-1-1.76-1.44,1.19-.49,2.36,0S333.79,236.65,333.58,237Z" style="fill:#fff"></path><path d="M333.9,232.42a1.37,1.37,0,0,1-1.37-.11c-.47-.26-.89-.64-.86-1.08s.79-.72,1.59-.3S334.24,232.16,333.9,232.42Z" style="fill:#fff"></path><path d="M321,213.6c.43.07.62,1.06.51,2.21s-.49,2.08-.92,2.07-.75-1-.63-2.22S320.53,213.53,321,213.6Z" style="fill:#fff"></path><path d="M329.91,217c.32.29,0,1.2-.77,2s-1.6,1.27-1.92,1,0-1.19.76-2S329.58,216.69,329.91,217Z" style="fill:#fff"></path><path d="M331.26,219.1a.74.74,0,0,1,1,.09.78.78,0,0,1-1.25.93A.73.73,0,0,1,331.26,219.1Z" style="fill:#fff"></path><path d="M307.29,216.09c-.14.41-1.24.4-2.41-.14s-1.9-1.36-1.68-1.73,1.24-.19,2.33.31S307.43,215.68,307.29,216.09Z" style="fill:#fff"></path><path d="M302.43,224.57c-.39.16-1-.44-1.24-1.37s0-1.76.43-1.81.87.59,1.08,1.42S302.84,224.41,302.43,224.57Z" style="fill:#fff"></path><path d="M308.58,220.85c-.32.29-1.11-.08-1.75-.81s-.9-1.56-.58-1.84,1.11.08,1.75.81S308.91,220.57,308.58,220.85Z" style="fill:#fff"></path><path d="M305.66,208c.3.3-.25,1.37-1.25,2.38s-2.05,1.58-2.36,1.28.25-1.37,1.25-2.38S305.35,207.66,305.66,208Z" style="fill:#fff"></path><path d="M301.06,206.11c.41.14.46,1,.12,2s-.95,1.65-1.36,1.51-.46-1.05-.11-2S300.66,206,301.06,206.11Z" style="fill:#fff"></path><path d="M301.24,213.6c.24.36-.12,1-.68,1.61s-1.22,1-1.59.73-.23-1.1.47-1.81S301,213.24,301.24,213.6Z" style="fill:#fff"></path><path d="M299.5,212.54c-.39.17-.91-.17-.94-.79s.45-1,.86-.87a.85.85,0,0,1,.08,1.66Z" style="fill:#fff"></path><path d="M308.12,211.54c.06.43-.67.88-1.63,1s-1.79-.11-1.85-.53.67-.89,1.63-1S308.06,211.12,308.12,211.54Z" style="fill:#fff"></path><path d="M304.88,204.16c.36.25.16,1.12-.43,2s-1.36,1.31-1.71,1.06-.16-1.13.44-2S304.53,203.91,304.88,204.16Z" style="fill:#fff"></path><path d="M307.73,226.16c-.31.3-1.25-.19-1.81-1.29s-.41-2.15,0-2.22.92.64,1.38,1.51S308.05,225.86,307.73,226.16Z" style="fill:#fff"></path><path d="M298.82,227.7c-.43.05-.84-.62-.77-1.48s.59-1.46,1-1.35.61.76.56,1.47S299.25,227.66,298.82,227.7Z" style="fill:#fff"></path><path d="M304.64,227.61c-.12.42-.91.54-1.77.28s-1.44-.81-1.31-1.22.92-.54,1.77-.28S304.77,227.2,304.64,227.61Z" style="fill:#fff"></path><path d="M312,225.56c-.32.29-1.12-.09-1.79-.84s-1-1.59-.63-1.88,1.13.09,1.79.84S312.33,225.27,312,225.56Z" style="fill:#fff"></path><path d="M313.72,213.76c0,.43-.91.83-2.09.9s-2.16-.22-2.19-.65.91-.84,2.1-.91S313.7,213.33,313.72,213.76Z" style="fill:#fff"></path><path d="M311.41,206.21c.22.37-.39,1.11-1.35,1.65s-1.91.68-2.12.3.39-1.12,1.35-1.66S311.2,205.83,311.41,206.21Z" style="fill:#fff"></path><path d="M302.78,202.23a1,1,0,0,1,.19,1.31c-.28.52-.81.79-1.19.58a1,1,0,0,1-.19-1.31C301.86,202.29,302.4,202,302.78,202.23Z" style="fill:#fff"></path><path d="M309.84,202.06c.31.3,0,1.14-.71,1.88s-1.53,1.09-1.84.8,0-1.14.71-1.88S309.53,201.77,309.84,202.06Z" style="fill:#fff"></path><path d="M314.23,209.85c.08.42-.62.91-1.57,1.09s-1.78,0-1.86-.44.62-.91,1.57-1.09S314.15,209.43,314.23,209.85Z" style="fill:#fff"></path><path d="M314.84,220.17c-.25.35-1.16.14-2.1-.38s-1.59-1.2-1.41-1.59,1.17-.34,2.17.23S315.08,219.81,314.84,220.17Z" style="fill:#fff"></path><path d="M340.6,227.54c-.13.41-1.22.43-2.43.05s-2.09-1-2-1.43,1.21-.44,2.42-.06S340.72,227.13,340.6,227.54Z" style="fill:#fff"></path><path d="M341,231.67c-.28.33-1.05.12-1.7-.46s-1-1.32-.68-1.64,1.05-.12,1.71.47S341.24,231.35,341,231.67Z" style="fill:#fff"></path><path d="M341.61,222.19c.14.41-.78,1.16-2.05,1.69s-2.47.63-2.65.24.73-1.15,2-1.69S341.47,221.78,341.61,222.19Z" style="fill:#fff"></path><path d="M343.34,225c0,.43-.6.8-1.36.82s-1.38-.31-1.39-.75.59-.79,1.35-.81S343.32,224.54,343.34,225Z" style="fill:#fff"></path><path d="M345.33,230.49c-.41.17-1-.29-1.64-.76s-1.22-.94-1.16-1.37c0-.21.3-.37.7-.38a2.51,2.51,0,0,1,2.28,1.74C345.6,230.11,345.52,230.4,345.33,230.49Z" style="fill:#fff"></path><path d="M345.37,234.58c-.34.27-1.13-.17-1.76-1s-.87-1.68-.53-1.94,1.13.17,1.76,1S345.71,234.32,345.37,234.58Z" style="fill:#fff"></path><path d="M329.6,222.72c.21-.37,1.4-.09,2.66.62s2.11,1.6,1.9,2-1.41.09-2.67-.62S329.38,223.1,329.6,222.72Z" style="fill:#fff"></path><path d="M334.64,216.48c.43,0,.84,1.19.92,2.7s-.21,2.77-.65,2.79-.84-1.19-.91-2.71S334.21,216.5,334.64,216.48Z" style="fill:#fff"></path><path d="M341.06,217.59c.26.34-.29,1.21-1.24,1.95s-1.94,1.06-2.2.72.29-1.21,1.24-1.95S340.79,217.25,341.06,217.59Z" style="fill:#fff"></path><path d="M347.35,218.91c.1.42-.8,1-2,1.3s-2.28.19-2.39-.23.8-1,2-1.29S347.25,218.49,347.35,218.91Z" style="fill:#fff"></path><path d="M349.12,224c-.13.42-1.07.49-2.11.18s-1.79-.91-1.66-1.32,1.07-.49,2.11-.18S349.24,223.61,349.12,224Z" style="fill:#fff"></path><path d="M353.21,220c.06.43-.6.88-1.48,1s-1.66-.1-1.72-.53.6-.88,1.48-1S353.15,219.56,353.21,220Z" style="fill:#fff"></path><path d="M350.84,225.81c.18.39-.33,1-1.17,1.2s-1.56-.13-1.58-.56.54-.8,1.23-1S350.66,225.42,350.84,225.81Z" style="fill:#fff"></path><path d="M353,225.08c-.41.13-.94-.37-1-1.15s.45-1.33.87-1.23.66.61.69,1.16S353.36,225,353,225.08Z" style="fill:#fff"></path><path d="M350.16,213.91c.43.08.61,1,.4,2.11s-.71,1.9-1.13,1.82-.6-1-.4-2.11S349.74,213.83,350.16,213.91Z" style="fill:#fff"></path><path d="M353.93,217c-.43-.05-.72-.69-.64-1.45s.48-1.34.91-1.3.72.69.64,1.45S354.36,217.07,353.93,217Z" style="fill:#fff"></path><path d="M356.58,221.15c-.43,0-.86-.6-1-1.46s.16-1.6.58-1.65.86.6,1,1.46S357,221.1,356.58,221.15Z" style="fill:#fff"></path><path d="M299.17,223.36c-.43,0-.83-1.35-.78-3.05s.53-3.05,1-3,.65,1.4.6,3S299.6,223.34,299.17,223.36Z" style="fill:#fff"></path><path d="M304.11,220.87c-.37.23-1.29-.57-2.07-1.8s-1.12-2.39-.75-2.63,1.29.57,2.06,1.79S304.47,220.63,304.11,220.87Z" style="fill:#fff"></path><path d="M336.91,232.46c-.38.21-1.31-.74-2.08-2.12s-1.09-2.67-.72-2.88,1.31.74,2.08,2.12S337.29,232.25,336.91,232.46Z" style="fill:#fff"></path></g><path d="M313.94,211c.08,0,.2,3.78.26,8.45s0,8.46-.05,8.46-.2-3.79-.26-8.46S313.85,211,313.94,211Z" style="fill:#263238"></path><path d="M315.09,214.09a7,7,0,0,1-.44,1.51,7.64,7.64,0,0,1-.46,1.5,2.81,2.81,0,0,1,.17-1.59A2.87,2.87,0,0,1,315.09,214.09Z" style="fill:#263238"></path><path d="M333.21,197.18s0,.08.08.25a5.2,5.2,0,0,1,.14.77,7.09,7.09,0,0,1-.28,2.84,7.51,7.51,0,0,1-2.3,3.53,7.42,7.42,0,0,1-9.65-.25,7.62,7.62,0,0,1-2.12-3.65,7.29,7.29,0,0,1-.13-2.84,5.07,5.07,0,0,1,.18-.76.72.72,0,0,1,.1-.25,8.08,8.08,0,0,0,.07,3.8,7.38,7.38,0,0,0,2.1,3.49,7.24,7.24,0,0,0,9.27.24,7.5,7.5,0,0,0,2.27-3.38A8.28,8.28,0,0,0,333.21,197.18Z" style="fill:#263238"></path><path d="M341.83,217.1a6.28,6.28,0,0,1,.67,1.21c.5,1,1,1.94,1.49,3l1.51,3a6.29,6.29,0,0,1,.56,1.26,5.46,5.46,0,0,1-.76-1.15c-.43-.74-1-1.77-1.59-2.93s-1.07-2.23-1.41-3A5.66,5.66,0,0,1,341.83,217.1Z" style="fill:#263238"></path><path d="M373.54,428.87l-1.62-9.05-17,2.93L357.18,436l1.06-.11c4.73-.55,24-3.12,27-4.61C388.52,429.62,373.54,428.87,373.54,428.87Z" style="fill:#0EA2BD"></path><path d="M363.31,434.82a6,6,0,0,0-2.79-3.25,5.81,5.81,0,0,0-4.18-.55l.81,4.75Z" style="fill:#0EA2BD"></path><path d="M380.9,429.49s5.31.58,4.82,1.52-19.87,4.28-28.54,5l0-.38,22.64-3.7S379.92,429.7,380.9,429.49Z" style="fill:#0EA2BD"></path><path d="M356.87,435.66h.3l.84-.1,3.11-.4c2.62-.35,6.24-.89,10.22-1.57s7.57-1.38,10.16-1.92l3.06-.66.83-.19.29-.08-.3,0-.83.16-3.08.59c-2.6.5-6.19,1.17-10.17,1.85s-7.58,1.25-10.2,1.64l-3.1.46-.84.13Z" style="fill:#263238"></path><path d="M379.82,432.2a6.55,6.55,0,0,1,.32-1.58,6.7,6.7,0,0,1,.85-1.36,2.34,2.34,0,0,0-1,1.29A2.31,2.31,0,0,0,379.82,432.2Z" style="fill:#263238"></path><path d="M374.37,430.52c.06,0,.24-.31.43-.75A1.86,1.86,0,0,0,375,429c-.06,0-.25.31-.43.74A1.89,1.89,0,0,0,374.37,430.52Z" style="fill:#263238"></path><path d="M372.87,430c.05,0,.29-.19.53-.51s.41-.59.37-.63-.28.19-.53.51S372.83,430,372.87,430Z" style="fill:#263238"></path><path d="M371.73,428.57a1.94,1.94,0,0,0,.9,0,.46.46,0,1,0,0-.2A2.2,2.2,0,0,0,371.73,428.57Z" style="fill:#263238"></path><path d="M371.24,427.5a1.76,1.76,0,0,0,1,.11,1.72,1.72,0,0,0,1-.31,4.81,4.81,0,0,0-1,.11A4.89,4.89,0,0,0,371.24,427.5Z" style="fill:#263238"></path><path d="M374.69,428.94a3.29,3.29,0,0,0,1.09-.2,6.38,6.38,0,0,0,1.12-.45,3.94,3.94,0,0,0,.62-.39.6.6,0,0,0,.21-.39.41.41,0,0,0-.24-.4,2,2,0,0,0-2.37,1,1.83,1.83,0,0,0-.23.79c0,.19,0,.3,0,.29a3.16,3.16,0,0,1,.33-1,2.08,2.08,0,0,1,.83-.77,1.73,1.73,0,0,1,1.32-.13c.19.1.16.31,0,.46a3.1,3.1,0,0,1-.57.37,7.81,7.81,0,0,1-1.07.48C375.1,428.83,374.69,428.9,374.69,428.94Z" style="fill:#263238"></path><path d="M375,428.94a1.13,1.13,0,0,0,0-.78,1.85,1.85,0,0,0-.43-.74,1.12,1.12,0,0,0-1-.4.43.43,0,0,0-.25.56,1.36,1.36,0,0,0,.27.46,3.56,3.56,0,0,0,.63.57,1.66,1.66,0,0,0,.7.33s-.25-.16-.61-.45a3.93,3.93,0,0,1-.57-.58c-.19-.2-.36-.6-.1-.7s.6.16.8.34a1.91,1.91,0,0,1,.43.66A4.78,4.78,0,0,1,375,428.94Z" style="fill:#263238"></path><path d="M356.42,431s.47-.13,1.26-.17a5.39,5.39,0,0,1,5.05,2.78,12.33,12.33,0,0,1,.53,1.15s0-.12-.05-.34a4.92,4.92,0,0,0-.35-.88,5.27,5.27,0,0,0-2.15-2.24,5.35,5.35,0,0,0-3-.62,4.38,4.38,0,0,0-.93.19C356.52,430.89,356.41,431,356.42,431Z" style="fill:#263238"></path><path d="M357,423.59a30.68,30.68,0,0,0,.45,3.51,32.08,32.08,0,0,0,.66,3.48,28.43,28.43,0,0,0-.45-3.51A30,30,0,0,0,357,423.59Z" style="fill:#263238"></path><path d="M365.16,432.79a9.28,9.28,0,0,0,2.52-.18,10.08,10.08,0,0,0,2.45-.62c0-.06-1.12.2-2.48.42S365.15,432.73,365.16,432.79Z" style="fill:#263238"></path><path d="M361.83,433.36c0,.05.13.22.29.46s.26.45.31.43.05-.28-.14-.55S361.86,433.31,361.83,433.36Z" style="fill:#263238"></path><path d="M360.31,432s.1.2.31.35.4.23.44.18-.11-.2-.32-.35S360.34,432,360.31,432Z" style="fill:#263238"></path><path d="M358.39,431.61c0,.06.25,0,.51.06s.47.15.51.1-.15-.25-.47-.3S358.37,431.56,358.39,431.61Z" style="fill:#263238"></path><path d="M357.06,431.5c0,.05.1.12.25.15s.28,0,.29,0-.1-.13-.25-.16S357.07,431.44,357.06,431.5Z" style="fill:#263238"></path><path d="M355.86,273.71s54.65,9.16,50.34,25.63-36.58,56-36.58,56l-20.45-12.94s30.23-37.51,29.07-38.75-42.54-10.19-42.54-10.19l-9.23-23.65Z" style="fill:#455a64"></path><path d="M341.88,290.15c0,.14-.38.2-.79.12s-.71-.25-.69-.4.38-.19.79-.11S341.9,290,341.88,290.15Z" style="fill:#263238"></path><path d="M347.6,291.29c0,.14-.69.13-1.48,0s-1.41-.41-1.38-.55.69-.12,1.49,0S347.63,291.15,347.6,291.29Z" style="fill:#263238"></path><path d="M353.31,292.54c0,.14-.7.11-1.48-.07s-1.4-.43-1.37-.57.69-.11,1.48.06S353.34,292.39,353.31,292.54Z" style="fill:#263238"></path><path d="M359,293.87c0,.14-.7.1-1.48-.08s-1.39-.46-1.36-.6.7-.1,1.48.09S359,293.73,359,293.87Z" style="fill:#263238"></path><path d="M364.65,295.31c0,.14-.7.09-1.48-.11s-1.38-.48-1.35-.62.7-.09,1.48.11S364.69,295.17,364.65,295.31Z" style="fill:#263238"></path><path d="M370.28,296.85c0,.14-.7.07-1.47-.14s-1.38-.5-1.34-.64.7-.08,1.47.14S370.32,296.71,370.28,296.85Z" style="fill:#263238"></path><path d="M375.89,298.48c0,.14-.7.06-1.48-.17s-1.36-.52-1.32-.66.7-.06,1.47.17S375.93,298.34,375.89,298.48Z" style="fill:#263238"></path><path d="M381.46,300.21c0,.13-.7.05-1.47-.19s-1.35-.55-1.31-.69.7-.05,1.47.19S381.51,300.07,381.46,300.21Z" style="fill:#263238"></path><path d="M382.91,304.47c-.13-.09.23-.67.56-1.33s.17-1.23.32-1.31.17.11.29.39a1.7,1.7,0,0,1-.14,1.14C383.55,304.14,383,304.54,382.91,304.47Z" style="fill:#263238"></path><path d="M379.45,309.17c-.11-.08.18-.68.66-1.33s1-1.1,1.07-1-.18.68-.65,1.33S379.57,309.26,379.45,309.17Z" style="fill:#263238"></path><path d="M376,313.87c-.11-.08.18-.68.66-1.33s1-1.1,1.07-1-.18.68-.65,1.33S376.11,314,376,313.87Z" style="fill:#263238"></path><path d="M372.53,318.58c-.11-.09.18-.68.66-1.33s1-1.11,1.07-1-.18.68-.65,1.33S372.65,318.66,372.53,318.58Z" style="fill:#263238"></path><path d="M369.07,323.28c-.11-.09.18-.68.66-1.33s1-1.11,1.07-1-.17.68-.65,1.33S369.19,323.36,369.07,323.28Z" style="fill:#263238"></path><path d="M365.61,328c-.11-.09.18-.68.66-1.33s1-1.11,1.07-1-.17.68-.65,1.33S365.73,328.06,365.61,328Z" style="fill:#263238"></path><path d="M362.16,332.68c-.12-.09.17-.68.65-1.33s1-1.11,1.08-1-.18.68-.66,1.33S362.27,332.76,362.16,332.68Z" style="fill:#263238"></path><path d="M358.7,337.38c-.12-.08.17-.68.65-1.33s1-1.11,1.08-1-.18.68-.66,1.33S358.81,337.47,358.7,337.38Z" style="fill:#263238"></path><path d="M356.08,340.94c-.12-.08,0-.42.23-.76s.54-.53.66-.45,0,.43-.24.76S356.19,341,356.08,340.94Z" style="fill:#263238"></path><path d="M385.18,301.26a13.2,13.2,0,0,1-3.46,1.45,13.43,13.43,0,0,1-3.63,1,14.49,14.49,0,0,1,3.46-1.45A14.28,14.28,0,0,1,385.18,301.26Z" style="fill:#263238"></path><path d="M385.87,303.14a20.58,20.58,0,0,1-8.06.66,22,22,0,0,1,4-.45A21.12,21.12,0,0,1,385.87,303.14Z" style="fill:#263238"></path><path d="M369.92,356.74l-12.3-8s-1-10.16-3.35-12.77l19.56,15.74Z" style="fill:#263238"></path><path d="M298,272s-3.35,10.7,7.47,26.85l36.42,56.35,8.25,73.18,27-2.4L368,344.93,329.58,273Z" style="fill:#455a64"></path><path d="M300.8,274.05c-.14,0-.26-.33-.26-.76s.12-.75.27-.74.26.35.26.76S301,274,300.8,274.05Z" style="fill:#263238"></path><path d="M301.74,280c-.14,0-.39-.6-.56-1.42s-.2-1.51-.06-1.53.4.62.57,1.42S301.88,280,301.74,280Z" style="fill:#263238"></path><path d="M303.67,285.7c-.13.06-.48-.53-.78-1.32s-.42-1.45-.29-1.5.49.55.78,1.32S303.81,285.64,303.67,285.7Z" style="fill:#263238"></path><path d="M306.35,291.09c-.12.08-.55-.46-1-1.19s-.59-1.4-.46-1.46.54.49.92,1.22S306.48,291,306.35,291.09Z" style="fill:#263238"></path><path d="M309.53,296.22c-.12.07-.58-.43-1-1.14s-.71-1.33-.59-1.41.58.43,1,1.13S309.65,296.14,309.53,296.22Z" style="fill:#263238"></path><path d="M312.84,301.26c-.12.08-.59-.42-1-1.12s-.73-1.32-.61-1.4.59.42,1,1.12S313,301.18,312.84,301.26Z" style="fill:#263238"></path><path d="M316.19,306.27c-.12.08-.59-.41-1.05-1.11s-.75-1.31-.63-1.39.59.41,1.06,1.1S316.31,306.19,316.19,306.27Z" style="fill:#263238"></path><path d="M319.58,311.27c-.12.08-.6-.41-1.06-1.1s-.76-1.32-.64-1.4.6.41,1.07,1.1S319.7,311.19,319.58,311.27Z" style="fill:#263238"></path><path d="M323,316.26c-.12.08-.6-.41-1.07-1.1s-.75-1.32-.63-1.4.59.41,1.06,1.1S323.1,316.18,323,316.26Z" style="fill:#263238"></path><path d="M326.38,321.23c-.11.08-.59-.41-1.06-1.09s-.76-1.32-.64-1.4.6.41,1.07,1.1S326.5,321.15,326.38,321.23Z" style="fill:#263238"></path><path d="M329.79,326.21c-.12.08-.59-.41-1.06-1.1s-.76-1.31-.64-1.39.59.41,1.07,1.1S329.91,326.13,329.79,326.21Z" style="fill:#263238"></path><path d="M333.2,331.19c-.12.08-.6-.41-1.07-1.1s-.75-1.31-.63-1.39.59.41,1.06,1.1S333.32,331.11,333.2,331.19Z" style="fill:#263238"></path><path d="M336.59,336.18c-.12.08-.59-.42-1.06-1.11s-.75-1.31-.63-1.39.59.41,1.06,1.1S336.71,336.1,336.59,336.18Z" style="fill:#263238"></path><path d="M340,341.18c-.12.08-.6-.41-1.06-1.11s-.75-1.31-.63-1.39.6.41,1.06,1.1S340.09,341.1,340,341.18Z" style="fill:#263238"></path><path d="M343.28,346.22c-.12.08-.58-.42-1-1.12s-.72-1.33-.6-1.41.58.43,1,1.12S343.41,346.14,343.28,346.22Z" style="fill:#263238"></path><path d="M346.32,351.43c-.12,0-.46-.51-.88-1.23s-.67-1.35-.55-1.43.58.44,1,1.18S346.48,351.39,346.32,351.43Z" style="fill:#263238"></path><path d="M347,357.41c-.14,0-.33-.64-.42-1.47s-.06-1.51.09-1.52.33.64.42,1.47S347.19,357.4,347,357.41Z" style="fill:#263238"></path><path d="M347.69,363.4c-.14,0-.33-.64-.42-1.47s0-1.51.1-1.52.33.64.42,1.47S347.83,363.39,347.69,363.4Z" style="fill:#263238"></path><path d="M348.32,369.4c-.14,0-.33-.65-.41-1.48s-.05-1.51.1-1.52.33.64.41,1.47S348.47,369.38,348.32,369.4Z" style="fill:#263238"></path><path d="M349,375.39c-.15,0-.33-.64-.42-1.47s0-1.51.1-1.53.33.65.42,1.47S349.09,375.38,349,375.39Z" style="fill:#263238"></path><path d="M349.56,381.39c-.14,0-.32-.64-.41-1.47s0-1.51.1-1.53.33.65.42,1.48S349.71,381.38,349.56,381.39Z" style="fill:#263238"></path><path d="M350.18,387.39c-.15,0-.33-.65-.42-1.48s0-1.51.11-1.52.33.64.41,1.47S350.32,387.37,350.18,387.39Z" style="fill:#263238"></path><path d="M350.79,393.39c-.15,0-.33-.65-.41-1.47s0-1.52.1-1.53.33.64.41,1.47S350.93,393.38,350.79,393.39Z" style="fill:#263238"></path><path d="M351.4,399.39c-.15,0-.33-.64-.41-1.47s0-1.51.1-1.53.33.65.41,1.48S351.54,399.38,351.4,399.39Z" style="fill:#263238"></path><path d="M352,405.39c-.14,0-.32-.64-.41-1.47s0-1.51.11-1.53.33.65.41,1.48S352.15,405.38,352,405.39Z" style="fill:#263238"></path><path d="M352.61,411.4c-.15,0-.33-.65-.41-1.48s0-1.51.11-1.53.32.65.41,1.48S352.75,411.38,352.61,411.4Z" style="fill:#263238"></path><path d="M353.21,417.4c-.14,0-.33-.65-.41-1.47s0-1.52.11-1.53.33.64.41,1.47S353.35,417.39,353.21,417.4Z" style="fill:#263238"></path><path d="M353.81,423.41c-.14,0-.32-.65-.41-1.48s0-1.51.11-1.53.33.65.41,1.48S354,423.39,353.81,423.41Z" style="fill:#263238"></path><path d="M354.26,427.91c-.14,0-.29-.3-.33-.71s0-.76.18-.77.3.3.34.71S354.41,427.9,354.26,427.91Z" style="fill:#263238"></path><path d="M368.92,353.56c-.09,0-.23-1.46-.62-3.79a44.75,44.75,0,0,0-2.44-8.9,51.53,51.53,0,0,0-4.24-8.21,34,34,0,0,1-2-3.3,4.07,4.07,0,0,1,.67.8c.39.53,1,1.31,1.62,2.31a42.72,42.72,0,0,1,4.41,8.21,38,38,0,0,1,2.32,9c.15,1.19.24,2.15.26,2.81A3.48,3.48,0,0,1,368.92,353.56Z" style="fill:#263238"></path><polygon points="348.6 424.45 349.41 429.23 377.91 425.98 377.09 420.28 348.6 424.45" style="fill:#263238"></polygon><path d="M333.33,269.94a10,10,0,0,1-.06,1.88c-.08,1.2-.22,2.91-.41,5v-.09a49.19,49.19,0,0,0,2.79,6.48c1.73,3.44,3.4,6.51,4.5,8.79.55,1.13,1,2.07,1.25,2.72a4.44,4.44,0,0,1,.37,1,4.53,4.53,0,0,1-.56-1l-1.39-2.65c-1.18-2.23-2.9-5.26-4.63-8.72a41.51,41.51,0,0,1-2.75-6.58l0,0v0c.23-2.05.43-3.75.59-4.94A9.67,9.67,0,0,1,333.33,269.94Z" style="fill:#263238"></path><path d="M368.14,258.75c-.14-2.16-5.52-4-7.69-4.59l0,0-.69-.15-.24-.07v0l-41.35-8.83L313.58,229H298.63c.38.75,3.43,27.31,11.46,29.18s42.37,4.66,42.37,4.66l2.56.27s0,0,0,.07c0,1.4,1.5,1.54,3.1,1.6,4,.16,5.12-1.55,5.12-1.55h0a9.51,9.51,0,0,0,2.2-2.69s.9,2.72,1.27,4.34c.53,2.3,1.45,2,1.45,2S368.25,260.29,368.14,258.75Z" style="fill:#ffbe9d"></path><path d="M361.19,263.65a9,9,0,0,1-3.11,0,9.71,9.71,0,0,1-3.08-.51,9.11,9.11,0,0,1,3.12,0A9.54,9.54,0,0,1,361.19,263.65Z" style="fill:#eb996e"></path><path d="M362.38,261.81s.14-.09.38-.05a1,1,0,0,1,.76.58.84.84,0,0,1-.14,1c-.19.18-.36.18-.37.14s.1-.11.2-.28a.75.75,0,0,0,0-.69C363,261.93,362.35,261.9,362.38,261.81Z" style="fill:#eb996e"></path><path d="M364,259.89c0-.09.65-.07.94.61s-.22,1.18-.27,1.09.17-.48,0-1S364,260,364,259.89Z" style="fill:#eb996e"></path><path d="M361.19,254.38l4-7.18c.58-.12.89,0,1,.37l-3.86,7.22Z" style="fill:#455a64"></path><polygon points="356.61 263.13 355 266.14 355 267.71 356.61 266.61 358.43 263.39 356.61 263.13" style="fill:#455a64"></polygon><path d="M305.9,168.53a2.11,2.11,0,0,1-.58-.8,5.38,5.38,0,0,1-.53-2.62,7.4,7.4,0,0,1,1.3-3.75,8.11,8.11,0,0,1,3.73-3.12,5.93,5.93,0,0,1,4.84.13,4.76,4.76,0,0,1,2.52,3.06,4.1,4.1,0,0,1-.24,2.67c-.27.58-.55.82-.57.8s.18-.3.38-.88a4.16,4.16,0,0,0,.07-2.5,4.41,4.41,0,0,0-2.37-2.72,5.55,5.55,0,0,0-4.44-.08,7.9,7.9,0,0,0-3.52,2.91,7.25,7.25,0,0,0-1.33,3.5,5.52,5.52,0,0,0,.35,2.52C305.73,168.22,305.93,168.5,305.9,168.53Z" style="fill:#263238"></path><path d="M333.22,199.34c.08-4.05.23-8.31.23-8.31s4.88-.67,6-7.44c1.07-6.45.3-21.49.3-21.49h0a17.23,17.23,0,0,0-20.41,4.17h0l-.1,32.92a7,7,0,0,0,6.87,7h0A7,7,0,0,0,333.22,199.34Z" style="fill:#ffbe9d"></path><path d="M338.1,173.1a.82.82,0,1,1-.83-.83A.83.83,0,0,1,338.1,173.1Z" style="fill:#263238"></path><path d="M339.44,172.17c-.11.11-.72-.4-1.59-.44s-1.53.42-1.63.3.06-.26.35-.46a2.1,2.1,0,0,1,1.3-.38,2.12,2.12,0,0,1,1.26.49C339.4,171.91,339.49,172.12,339.44,172.17Z" style="fill:#263238"></path><path d="M328.56,173.1a.82.82,0,1,1-.83-.83A.83.83,0,0,1,328.56,173.1Z" style="fill:#263238"></path><path d="M329.72,172.34c-.1.11-.71-.4-1.59-.44s-1.53.41-1.62.3.06-.26.34-.47a2.1,2.1,0,0,1,1.3-.37,2.12,2.12,0,0,1,1.27.49C329.68,172.08,329.77,172.29,329.72,172.34Z" style="fill:#263238"></path><path d="M333,179.88a5.66,5.66,0,0,1,1.43-.21c.23,0,.44-.06.48-.22a1.24,1.24,0,0,0-.14-.72l-.63-1.85a33.36,33.36,0,0,1-1.41-4.84,34.41,34.41,0,0,1,1.77,4.71l.6,1.87a1.47,1.47,0,0,1,.1.94.56.56,0,0,1-.37.34,1.33,1.33,0,0,1-.38,0A4.83,4.83,0,0,1,333,179.88Z" style="fill:#263238"></path><path d="M333.45,191a15.6,15.6,0,0,1-8.48-2.78s2,4.76,8.36,4.38Z" style="fill:#eb996e"></path><path d="M332.7,182.19a1.74,1.74,0,0,0-1-1.26,1.35,1.35,0,0,0-1.13,0,1,1,0,0,0-.52,1,1.13,1.13,0,0,0,.91.84,3,3,0,0,0,1.3-.09.82.82,0,0,0,.34-.12.32.32,0,0,0,.14-.32" style="fill:#eb996e"></path><path d="M330.52,179.85c.15,0,.13,1,.94,1.77s1.82.69,1.82.83-.23.19-.66.19a2.34,2.34,0,0,1-2.24-2.12C330.35,180.09,330.46,179.84,330.52,179.85Z" style="fill:#263238"></path><path d="M323.13,161.58c2.19,3.94,8.21,8.17,12.58,9.28-.49-.8-3.13-2.86-3.61-3.66,1.93,1.81,4.71,4.25,7.35,4.53a1.45,1.45,0,0,0,.92-.13,1.51,1.51,0,0,0,.5-1.13,35.39,35.39,0,0,0,0-6.67,7.84,7.84,0,0,0-2.13-4.86c-1.64-1.59-4.06-2.08-6.34-2.25a12.67,12.67,0,0,0-5.68.63,5.77,5.77,0,0,0-3.65,4.13" style="fill:#263238"></path><path d="M324.59,162.4s1.94,7.72-3,12.78c0,0-.66,7.25-4.1,10.67,0,0-1.79-8.84-1.85-12.26s-1.59-16,9.67-14.49Z" style="fill:#263238"></path><path d="M316.87,167.89a6,6,0,0,0-1-6.17,7,7,0,0,0-5.93-2.27,8.58,8.58,0,0,0-5.64,3.08,7.08,7.08,0,0,0-1.79,4.69,6.33,6.33,0,0,0,3.79,5.35,8.33,8.33,0,0,0,6.72-.17,12.32,12.32,0,0,0,5.08-4.55" style="fill:#263238"></path><polygon points="309.1 162.44 305.86 156.07 305.86 154.89 306.95 155.48 310.26 161.88 309.1 162.44" style="fill:#0EA2BD"></polygon><path d="M311.39,161.85c0-.09,0-7.57,0-7.57a.7.7,0,0,1,.72-.54.63.63,0,0,1,.59.57V162Z" style="fill:#0EA2BD"></path><path d="M311.39,161.85c0-.09,0-7.57,0-7.57a.7.7,0,0,1,.72-.54.63.63,0,0,1,.59.57V162Z" style="opacity:0.30000000000000004"></path><polygon points="311.73 161.89 311.71 154.24 312.2 154.24 312.2 161.94 311.73 161.89" style="fill:#0EA2BD"></polygon><path d="M311.39,154.28l1.31,0s-.06-.61-.59-.61A.7.7,0,0,0,311.39,154.28Z" style="fill:#455a64"></path><path d="M305.86,156.07a.54.54,0,0,0,.41,0,.4.4,0,0,0,.19-.33s.34.09.47,0,0-.3,0-.3l-.77-.42-.32.18Z" style="fill:#455a64"></path><path d="M315.82,164.29a3.63,3.63,0,0,1,.47,1.18,7.66,7.66,0,0,1,.07,3.48,7.32,7.32,0,0,1-2.78,4.34,7.09,7.09,0,0,1-6.14,1.23,7,7,0,0,1-2.93-1.57,6.89,6.89,0,0,1-1.75-2.57,6.64,6.64,0,0,1,.14-5.14,8.6,8.6,0,0,1,2.11-2.77,4.45,4.45,0,0,1,1-.75,10.29,10.29,0,0,1-.89.9,9.07,9.07,0,0,0-1.91,2.77,6.27,6.27,0,0,0,0,4.81,6.38,6.38,0,0,0,4.37,3.82,6.71,6.71,0,0,0,5.72-1.11,7.09,7.09,0,0,0,2.7-4,7.85,7.85,0,0,0,.09-3.35C315.94,164.73,315.77,164.3,315.82,164.29Z" style="fill:#263238"></path><path d="M330.94,167.56c.07,0-.18.64-1.09.89a2.58,2.58,0,0,1-1.58-.11,4.9,4.9,0,0,1-1.6-1,7.79,7.79,0,0,1-2-2.71,2.66,2.66,0,0,1-.36-1.34,15.16,15.16,0,0,0,2.7,3.66,3.51,3.51,0,0,0,2.76,1.15A3.1,3.1,0,0,0,330.94,167.56Z" style="fill:#263238"></path><path d="M321.74,175.08a3.76,3.76,0,0,0-2.05.08,2.64,2.64,0,0,0-1.53,1.31,2.74,2.74,0,0,0-.07,2,4.59,4.59,0,0,0,1.11,1.74,3,3,0,0,0,1.21.85,1.52,1.52,0,0,0,1.42-.18" style="fill:#ffbe9d"></path><path d="M321.25,179.19c.08,0-.23.43-.84.24a1.32,1.32,0,0,1-.75-.69,3,3,0,0,1-.31-1.13,1.79,1.79,0,0,1,.32-1.19,1.15,1.15,0,0,1,.91-.5c.64,0,.82.45.75.46s-.3-.19-.72-.1a1.15,1.15,0,0,0-.74,1.29,1.93,1.93,0,0,0,.67,1.52C320.93,179.3,321.21,179.13,321.25,179.19Z" style="fill:#eb996e"></path><path d="M319,180.5c.07.05-.29.43-.31,1.14a1.51,1.51,0,0,0,.43,1.07,1.32,1.32,0,0,0,1.27.38,1.22,1.22,0,0,0,.91-.93,1.61,1.61,0,0,0-.16-1.16c-.35-.62-.81-.85-.76-.92s.56,0,1.07.73a1.89,1.89,0,0,1,.32,1.45,1.66,1.66,0,0,1-1.26,1.33,1.73,1.73,0,0,1-1.75-.56,1.81,1.81,0,0,1-.44-1.42C318.5,180.74,319,180.45,319,180.5Z" style="fill:#0EA2BD"></path><path d="M315,169.83a5.57,5.57,0,0,1,1.26-6.18,24,24,0,0,0-1.08,3A24.84,24.84,0,0,0,315,169.83Z" style="fill:#263238"></path></g><g id="freepik--Desk--inject-72"><polygon points="331.52 269.8 332.64 268.65 360.32 268.65 361.19 269.94 331.52 269.8" style="fill:#455a64"></polygon><polygon points="231.35 272.42 266.55 434.25 270.66 434.25 235 272.42 231.35 272.42" style="fill:#263238"></polygon><polyline points="267.46 272.42 231.35 434.25 234.88 434.25 270.66 272.42 267.46 272.42" style="fill:#263238"></polyline><polygon points="238.13 412.78 263.5 412.78 263.5 409.49 239.22 409.49 238.13 412.78" style="fill:#263238"></polygon><polygon points="440.57 272.42 475.77 434.72 479.88 434.72 444.22 272.42 440.57 272.42" style="fill:#263238"></polygon><polyline points="476.68 272.42 440.57 434.72 444.1 434.72 479.88 272.42 476.68 272.42" style="fill:#263238"></polyline><polygon points="447.35 413.19 472.72 413.19 472.72 409.89 448.44 409.89 447.35 413.19" style="fill:#263238"></polygon><polygon points="443.24 227.62 428.8 269.8 363.45 269.8 363.93 267.62 390.36 266.81 402.53 227.59 443.24 227.62" style="fill:#263238"></polygon><path d="M414.27,247.43c-.43,1.73.31,3.42,1.66,3.78s2.78-.75,3.21-2.48-.31-3.42-1.65-3.78S414.71,245.7,414.27,247.43Z" style="fill:#fff"></path><polygon points="417.13 256.48 418.48 260 431.85 253.57 430.58 250.06 417.13 256.48" style="fill:#fff"></polygon><polygon points="418.18 256.8 419.06 258.75 430.87 253.24 430.22 250.83 418.18 256.8" style="fill:#455a64"></polygon><path d="M431.05,237.09a4.25,4.25,0,1,1-4.25-4.25A4.25,4.25,0,0,1,431.05,237.09Z" style="fill:#fff"></path><path d="M426.07,233.68a3.53,3.53,0,0,0-2.57,3.44,3.8,3.8,0,0,0,2.69,3.4,2.93,2.93,0,0,0,2.06-.11,3.37,3.37,0,0,0,1.41-1.55,4.21,4.21,0,0,0,.43-2.8,3.23,3.23,0,0,0-2-2.27,3.28,3.28,0,0,0-3,.37" style="fill:#0EA2BD"></path><polygon points="402.17 255.07 406.25 253.27 409.08 255.5 407.02 260.5 401.78 258.39 402.17 255.07" style="fill:#fff"></polygon><polygon points="402.53 255.46 406.14 253.78 408.45 255.72 406.74 259.88 402.29 258.18 402.53 255.46" style="fill:#0EA2BD"></polygon><rect x="211.45" y="269.8" width="285.62" height="2.76" style="fill:#263238"></rect><path d="M461.53,249.94a19.19,19.19,0,0,1-5.25-12.12c-.11-2.15.22-4.48,1.68-6.06a5.35,5.35,0,0,1,7.42-.14c2,2,2,5.21,1.51,8-.75,4.12-2.83,7.18-5.18,10.64" style="fill:#0EA2BD"></path><path d="M466.09,249.89a14.37,14.37,0,0,1,5.44-8.2,6.16,6.16,0,0,1,4.48-1.42,4,4,0,0,1,3.1,4.59c-.44,2-2.44,3.37-4.38,4.18-2.87,1.21-5.63,1.15-8.75,1.09" style="fill:#0EA2BD"></path><path d="M461.52,259a87.29,87.29,0,0,1-.07-9.38,82.82,82.82,0,0,1,.46-9.37,85.91,85.91,0,0,1,.06,9.38A84.18,84.18,0,0,1,461.52,259Z" style="fill:#263238"></path><path d="M475.24,244.33a9.69,9.69,0,0,1-1.88,1.41c-1.2.81-2.89,1.87-4.8,3s-3.68,2.05-5,2.69a9.33,9.33,0,0,1-2.16.92,11.55,11.55,0,0,1,2-1.25l4.89-2.81,4.87-2.84A11.16,11.16,0,0,1,475.24,244.33Z" style="fill:#263238"></path><polyline points="452.54 257.45 471.5 258.4 469.62 269.92 454.42 269.92 452.54 257.45" style="fill:#455a64"></polyline><path d="M461.75,255.09a11.64,11.64,0,0,1-3.92-1.12,11.39,11.39,0,0,1-3.57-2,27.33,27.33,0,0,1,3.77,1.52A27,27,0,0,1,461.75,255.09Z" style="fill:#263238"></path></g></svg>