<svg xmlns="http://www.w3.org/2000/svg" viewBox="0 0 500 500"><g id="freepik--Floor--inject-9"><path id="freepik--floor--inject-9" d="M77.66,238.62c-95.18,54.95-95.17,144,0,199s249.49,54.95,344.67,0,95.17-144,0-199S172.84,183.67,77.66,238.62Z" style="fill:#fafafa"></path></g><g id="freepik--Shadows--inject-9"><ellipse id="freepik--Shadow--inject-9" cx="86.85" cy="412.61" rx="55.59" ry="32.1" style="fill:#e0e0e0"></ellipse><path id="freepik--shadow--inject-9" d="M260,360.77l115.8,66.94a1.65,1.65,0,0,0,1.53,0l73-42.14c.42-.25.42-.64,0-.88L334.49,317.74a1.69,1.69,0,0,0-1.52,0l-73,42.15C259.59,360.13,259.59,360.52,260,360.77Z" style="fill:#e0e0e0"></path><path id="freepik--shadow--inject-9" d="M372.1,284.24,187.79,390.65a9.57,9.57,0,0,1-8.66,0l-54.22-31.31c-2.39-1.38-2.39-3.62,0-5l184.3-106.4a9.57,9.57,0,0,1,8.66,0l54.23,31.3C374.49,280.62,374.49,282.86,372.1,284.24Z" style="fill:#e0e0e0"></path><path id="freepik--shadow--inject-9" d="M410.36,388.84l75-42.55c1.51-.86,1.52-2.26,0-3.14l-72.85-42.71a6,6,0,0,0-5.43,0L332.1,343c-1.5.86-1.51,2.26,0,3.14l72.85,42.71A6,6,0,0,0,410.36,388.84Z" style="fill:#e0e0e0"></path></g><g id="freepik--Device--inject-9"><g id="freepik--device--inject-9"><g id="freepik--Case--inject-9"><path d="M317.09,249.85l3.54-2s18.8-61.32,20.55-64.87-1.41-5.37-4.8-3.42L159.92,281.26c-3.38,2-4.45,4.64-7.46,10.49s-20,62.2-20,62.2a3.15,3.15,0,0,0,1.52,3.31l40.17,23.27L358.74,274Z" style="fill:#0EA2BD"></path><path d="M317.09,249.85l3.54-2s18.8-61.32,20.55-64.87-1.41-5.37-4.8-3.42L159.92,281.26c-3.38,2-4.45,4.64-7.46,10.49s-20,62.2-20,62.2a3.15,3.15,0,0,0,1.52,3.31l40.17,23.27L358.74,274Z" style="fill:#fff;opacity:0.35000000000000003"></path><path d="M154.68,293.17c-2.29,4.43-20,62-20,62L322.87,246.51S341.53,188,343.4,184.34s-1.42-5.37-4.8-3.41L162.14,282.68C158.75,284.63,157,288.73,154.68,293.17Z" style="fill:#0EA2BD"></path><path d="M154.68,293.17c-2.29,4.43-20,62-20,62L322.87,246.51S341.53,188,343.4,184.34s-1.42-5.37-4.8-3.41L162.14,282.68C158.75,284.63,157,288.73,154.68,293.17Z" style="opacity:0.15"></path><polygon points="319.29 248.59 134.71 355.15 175.59 378.75 360.16 272.19 319.29 248.59" style="fill:#0EA2BD"></polygon><path d="M332.14,114.2,154.31,216.68c-3.9,2.25-5.11,5.89-4.43,10.69l21.05,147.69c.68,4.8,4.51,7.61,8.41,5.36L355.59,278.7c3.9-2.25,6.5-8,5.81-12.77l-21-147.11C339.75,114,336,112,332.14,114.2Z" style="fill:#0EA2BD"></path><path d="M332.14,114.2,154.31,216.68c-3.9,2.25-5.11,5.89-4.43,10.69l21.05,147.69c.68,4.8,4.51,7.61,8.41,5.36L355.59,278.7c3.9-2.25,6.5-8,5.81-12.77l-21-147.11C339.75,114,336,112,332.14,114.2Z" style="fill:#fff;opacity:0.35000000000000003"></path></g><g id="freepik--Tablet--inject-9"><path d="M344.12,117.33a5.5,5.5,0,0,0-4.79.6L163.07,219.65a11.84,11.84,0,0,0-4.5,5.16l-5.68-2.41c1.25-2.73,3.43-3.73,5.3-4.82L334.43,115.86a5.42,5.42,0,0,1,5-.51h0Z" style="fill:#455a64"></path><path d="M176.64,381.9h0c-1.74-.71-3-2.53-3.42-5.17L152.37,230.35c-.43-3-.57-5.69.52-7.95l5.69,2.41c-.15.31-.29.63-.43,1s-.19.53-.27.79a.33.33,0,0,0,0,.13,7.45,7.45,0,0,0-.27.92c-.08.32-.16.64-.21,1a6.38,6.38,0,0,0-.1.73,11.64,11.64,0,0,0,0,3.12l21,147.11c.39,2.67,1.71,4.5,3.48,5.21Z" style="fill:#263238"></path><path d="M339.32,117.94,161.5,220.42c-3.9,2.25-5.12,5.89-4.43,10.69l21.15,148.43c.69,4.8,4.41,6.87,8.31,4.62L362.77,282.44c3.9-2.25,6.51-8,5.82-12.77l-21-147.12C346.94,117.75,343.22,115.68,339.32,117.94Z" style="fill:#37474f"></path><path d="M352,281.77,194.63,372.55c-2,1.17-3.95.1-4.3-2.39L169.58,224.57a7,7,0,0,1,3-6.62l157.32-90.79c2-1.17,3.95-.09,4.3,2.4L355,275.15A7,7,0,0,1,352,281.77Z" style="fill:#263238"></path><path d="M169.58,224.57l20.75,145.59a2.93,2.93,0,0,0,0,.29L347.7,279.66a7,7,0,0,0,3-6.62L329.91,127.16,172.59,218A7,7,0,0,0,169.58,224.57Z" style="fill:#fafafa"></path><path d="M177.6,314.72a3.53,3.53,0,0,1-1.52,3.33c-1,.58-2,.05-2.16-1.21a3.54,3.54,0,0,1,1.51-3.33C176.45,312.93,177.42,313.47,177.6,314.72Z" style="fill:#263238"></path><path d="M170.72,280.63h0a2.73,2.73,0,0,0-1.18,2.59l3.44,24c.14,1,.89,1.39,1.68.93h0a2.73,2.73,0,0,0,1.18-2.59l-3.44-24C172.26,280.59,171.51,280.17,170.72,280.63Z" style="fill:#263238"></path></g><g id="freepik--bar-graph--inject-9"><path d="M187,291.64l1.22.52a2.55,2.55,0,0,0,2-.08l64.41-37.19a1.67,1.67,0,0,0,.8-1.54l-9.39-65.55a2.16,2.16,0,0,0-1.23-1.47l-1.22-.52a2.59,2.59,0,0,0-2,.08l-64.41,37.19a1.68,1.68,0,0,0-.8,1.55l9.39,65.55A2.16,2.16,0,0,0,187,291.64Z" style="fill:#f0f0f0"></path><path d="M190.29,292.08l64.41-37.19a1.67,1.67,0,0,0,.8-1.54l-9.39-65.55a.66.66,0,0,0-1.08-.47l-64.41,37.19a1.68,1.68,0,0,0-.8,1.55l9.39,65.55C189.28,292.17,189.77,292.38,190.29,292.08Z" style="fill:#fff"></path><path d="M189.82,292.4a.77.77,0,0,1-.34-.08.83.83,0,0,1-.45-.68l-9.39-65.54a1.85,1.85,0,0,1,.89-1.74l64.4-37.18a1,1,0,0,1,.91-.09.83.83,0,0,1,.45.68l9.39,65.55a1.85,1.85,0,0,1-.89,1.73l-64.41,37.19A1.19,1.19,0,0,1,189.82,292.4Zm55.67-105a.82.82,0,0,0-.37.11l-64.41,37.19A1.5,1.5,0,0,0,180,226l9.39,65.55a.48.48,0,0,0,.25.41.62.62,0,0,0,.56-.08l64.41-37.18a1.51,1.51,0,0,0,.71-1.37l-9.39-65.55a.51.51,0,0,0-.25-.4A.41.41,0,0,0,245.49,187.38Z" style="fill:#e0e0e0"></path><path d="M190.15,292.15a2.62,2.62,0,0,1-1.89,0l-1.22-.52a2.16,2.16,0,0,1-1.23-1.46l-9.39-65.55a1.45,1.45,0,0,1,.18-.87L180,225.2a1.51,1.51,0,0,0-.17.87l9.38,65.55A.65.65,0,0,0,190.15,292.15Z" style="fill:#e0e0e0"></path><g id="freepik--bar-graph--inject-9"><polygon points="237.3 257.76 232.19 222.02 228.21 220.34 233.32 256.07 237.3 257.76" style="fill:#0EA2BD"></polygon><polygon points="237.3 257.76 232.19 222.02 228.21 220.34 233.32 256.07 237.3 257.76" style="opacity:0.2"></polygon><polygon points="237.3 257.76 247.32 251.97 242.21 216.24 232.19 222.02 237.3 257.76" style="fill:#0EA2BD"></polygon><polygon points="242.21 216.24 238.23 214.55 228.21 220.34 232.19 222.02 242.21 216.24" style="fill:#0EA2BD"></polygon><polygon points="242.21 216.24 238.23 214.55 228.21 220.34 232.19 222.02 242.21 216.24" style="fill:#fff;opacity:0.25"></polygon><path d="M242.21,216.24l-10,5.65-4-1.55,3.86,1.89c.06,1.05,4.92,34.47,5.23,35.53,0-1.07-4.71-34.57-4.94-35.58Z" style="fill:#fff;opacity:0.30000000000000004"></path><polygon points="218.52 268.61 214.41 239.9 210.43 238.21 214.54 266.92 218.52 268.61" style="fill:#0EA2BD"></polygon><polygon points="218.52 268.61 214.41 239.9 210.43 238.21 214.54 266.92 218.52 268.61" style="fill:#fff;opacity:0.1"></polygon><polygon points="218.52 268.61 228.54 262.82 224.43 234.12 214.41 239.9 218.52 268.61" style="fill:#0EA2BD"></polygon><polygon points="218.52 268.61 228.54 262.82 224.43 234.12 214.41 239.9 218.52 268.61" style="fill:#fff;opacity:0.30000000000000004"></polygon><polygon points="224.43 234.12 220.45 232.43 210.43 238.21 214.41 239.9 224.43 234.12" style="fill:#0EA2BD"></polygon><polygon points="224.43 234.12 220.45 232.43 210.43 238.21 214.41 239.9 224.43 234.12" style="fill:#fff;opacity:0.55"></polygon><path d="M214.56,240l9.87-5.85-10,5.65c-1.26-.53-4-1.56-4-1.56s2.56,1.21,3.85,1.77c.11,1.08,4,27.53,4.24,28.63C218.44,267.5,214.75,241,214.56,240Z" style="fill:#fff;opacity:0.30000000000000004"></path><polygon points="199.73 279.45 196.28 255.36 192.3 253.67 195.75 277.76 199.73 279.45" style="fill:#0EA2BD"></polygon><polygon points="199.73 279.45 196.28 255.36 192.3 253.67 195.75 277.76 199.73 279.45" style="opacity:0.45"></polygon><polygon points="199.73 279.45 209.75 273.67 206.3 249.57 196.28 255.36 199.73 279.45" style="fill:#0EA2BD"></polygon><polygon points="199.73 279.45 209.75 273.67 206.3 249.57 196.28 255.36 199.73 279.45" style="opacity:0.30000000000000004"></polygon><polygon points="206.3 249.57 202.32 247.89 192.3 253.67 196.28 255.36 206.3 249.57" style="fill:#0EA2BD"></polygon><polygon points="206.3 249.57 202.32 247.89 192.3 253.67 196.28 255.36 206.3 249.57" style="opacity:0.15"></polygon><path d="M206.3,249.57l-10,5.65-4-1.55,3.85,1.85s3.32,23.28,3.58,23.93c.07-.66-3.27-23.93-3.27-23.93Z" style="fill:#fff;opacity:0.30000000000000004"></path></g><g id="freepik--Arrow--inject-9"><polygon points="239.06 200.63 238.03 200.2 230.12 203.09 232.16 204.49 211.81 226.91 206.36 223.16 205.34 222.72 189.46 240.22 191.9 241.89 192.93 242.33 206.75 227.09 211.81 230.49 213.35 231.15 235.47 206.77 236.64 207.55 237.67 207.99 239.06 200.63" style="fill:#0EA2BD"></polygon><polygon points="239.06 200.63 238.03 200.2 230.12 203.09 232.16 204.49 211.81 226.91 206.36 223.16 205.34 222.72 189.46 240.22 191.9 241.89 192.93 242.33 206.75 227.09 211.81 230.49 213.35 231.15 235.47 206.77 236.64 207.55 237.67 207.99 239.06 200.63" style="fill:#fff;opacity:0.25"></polygon><polygon points="239.06 200.63 237.67 207.99 235.63 206.6 213.35 231.15 207.03 226.8 192.93 242.33 190.48 240.66 206.36 223.16 212.69 227.51 233.18 204.92 231.14 203.53 239.06 200.63" style="fill:#0EA2BD"></polygon><polygon points="207.03 226.8 206.75 227.09 211.81 230.49 213.35 231.15 207.03 226.8" style="fill:#0EA2BD"></polygon><polygon points="207.03 226.8 206.75 227.09 211.81 230.49 213.35 231.15 207.03 226.8" style="opacity:0.2"></polygon><polygon points="232.16 204.49 233.18 204.92 231.14 203.53 230.12 203.09 232.16 204.49" style="fill:#0EA2BD"></polygon><polygon points="232.16 204.49 233.18 204.92 231.14 203.53 230.12 203.09 232.16 204.49" style="opacity:0.2"></polygon><polygon points="235.47 206.77 235.63 206.6 237.67 207.99 236.64 207.55 235.47 206.77" style="fill:#0EA2BD"></polygon><polygon points="235.47 206.77 235.63 206.6 237.67 207.99 236.64 207.55 235.47 206.77" style="opacity:0.2"></polygon><polygon points="189.46 240.22 190.48 240.66 192.93 242.33 191.9 241.89 189.46 240.22" style="fill:#0EA2BD"></polygon><polygon points="189.46 240.22 190.48 240.66 192.93 242.33 191.9 241.89 189.46 240.22" style="opacity:0.2"></polygon><polygon points="195.71 234.89 206.41 223.5 212.69 227.51 206.36 223.16 195.71 234.89" style="fill:#fff;opacity:0.5"></polygon><polygon points="222.08 217.16 233.46 204.91 231.5 203.59 239.06 200.63 231.14 203.53 233.18 204.92 222.08 217.16" style="fill:#fff;opacity:0.5"></polygon></g></g><g id="freepik--Image--inject-9"><path d="M257.65,262.12a1.31,1.31,0,0,0-1.06.17l-64.45,37.22a2.67,2.67,0,0,0-1.27,2.46l7.7,53.75a1.08,1.08,0,0,0,.56.86c-.29-.14-2.9-1.22-3.22-1.36a1.1,1.1,0,0,1-.59-.87l-7.69-53.75a2.66,2.66,0,0,1,1.27-2.47l64.45-37.22a1.3,1.3,0,0,1,1.14-.14C254.77,260.9,257,261.84,257.65,262.12Z" style="fill:#0EA2BD"></path><g style="opacity:0.2"><path d="M257.65,262.12c-.62-.28-2.88-1.22-3.16-1.35a1.3,1.3,0,0,0-1.14.14L188.9,298.13a2.72,2.72,0,0,0-1,1.08l3.24,1.38a2.59,2.59,0,0,1,1-1.08l64.45-37.22A1.31,1.31,0,0,1,257.65,262.12Z" style="fill:#fff"></path></g><path d="M192.14,299.51l64.45-37.22c.83-.48,1.6-.15,1.73.73L266,316.77a2.67,2.67,0,0,1-1.26,2.47l-64.46,37.22c-.83.47-1.6.15-1.72-.74L190.87,302A2.65,2.65,0,0,1,192.14,299.51Z" style="fill:#0EA2BD"></path><g style="opacity:0.5"><path d="M192.14,299.51l64.45-37.22c.83-.48,1.6-.15,1.73.73L266,316.77a2.67,2.67,0,0,1-1.26,2.47l-64.46,37.22c-.83.47-1.6.15-1.72-.74L190.87,302A2.65,2.65,0,0,1,192.14,299.51Z" style="fill:#fff"></path></g><path d="M191.15,300.59l-3.24-1.38a2.26,2.26,0,0,0-.28,1.39l7.69,53.75a1.1,1.1,0,0,0,.59.87c.32.14,2.93,1.22,3.22,1.36a1.08,1.08,0,0,1-.56-.86L190.87,302A2.38,2.38,0,0,1,191.15,300.59Z" style="fill:#0EA2BD"></path><path d="M191.15,300.59l-3.24-1.38a2.26,2.26,0,0,0-.28,1.39l7.69,53.75a1.1,1.1,0,0,0,.59.87c.32.14,2.93,1.22,3.22,1.36a1.08,1.08,0,0,1-.56-.86L190.87,302A2.38,2.38,0,0,1,191.15,300.59Z" style="opacity:0.15"></path><path d="M238.49,315.54l6.43,6.39-27.55-18.34-20.68,39,1.88,13.09c.12.89.89,1.21,1.72.74l64.46-37.22a2.7,2.7,0,0,0,1.27-2.47l-1-7.19-20.11-10.66Z" style="fill:#fafafa;opacity:0.9500000000000001"></path><path d="M236.92,283.59c3-1.73,5.82-.54,6.27,2.67s-1.6,7.21-4.61,8.94-5.81.55-6.27-2.66S233.92,285.33,236.92,283.59Z" style="fill:#fafafa;opacity:0.9500000000000001"></path><path d="M257.38,262.71c.14,0,.19.3.19.34l7.7,53.75a2.13,2.13,0,0,1-1,1.9l-64.45,37.22a.68.68,0,0,1-.33.11c-.15,0-.2-.3-.2-.34l-7.7-53.75a2.15,2.15,0,0,1,1-1.9L257,262.83a.65.65,0,0,1,.34-.12m-.1-.64a1.54,1.54,0,0,0-.69.22l-64.45,37.22a2.65,2.65,0,0,0-1.27,2.46l7.7,53.75a1,1,0,0,0,1,.95,1.48,1.48,0,0,0,.69-.21l64.46-37.22a2.67,2.67,0,0,0,1.26-2.47L258.32,263a1,1,0,0,0-1-.95Z" style="fill:#0EA2BD"></path></g><path d="M255,184.88a1.25,1.25,0,0,1-1.09-.63,1.27,1.27,0,0,1,.46-1.73l69-39.75A1.26,1.26,0,1,1,324.6,145l-69,39.75A1.17,1.17,0,0,1,255,184.88Z" style="fill:#e0e0e0"></path><path d="M256.32,193.91a1.26,1.26,0,0,1-.63-2.36l69-39.75a1.26,1.26,0,1,1,1.26,2.19l-69,39.75A1.19,1.19,0,0,1,256.32,193.91Z" style="fill:#e0e0e0"></path><path d="M257.65,202.94a1.27,1.27,0,0,1-1.1-.64,1.25,1.25,0,0,1,.47-1.72l69-39.75a1.25,1.25,0,0,1,1.72.46,1.27,1.27,0,0,1-.46,1.73l-69,39.75A1.29,1.29,0,0,1,257.65,202.94Z" style="fill:#e0e0e0"></path><path d="M259,212a1.27,1.27,0,0,1-.63-2.37l69-39.75a1.27,1.27,0,0,1,1.27,2.19l-69,39.76A1.32,1.32,0,0,1,259,212Z" style="fill:#e0e0e0"></path><path d="M260.31,221a1.25,1.25,0,0,1-1.1-.63,1.26,1.26,0,0,1,.47-1.73l69-39.75a1.27,1.27,0,1,1,1.27,2.19l-69,39.75A1.22,1.22,0,0,1,260.31,221Z" style="fill:#e0e0e0"></path><path d="M261.64,230a1.27,1.27,0,0,1-.64-2.36l42-24.21a1.26,1.26,0,1,1,1.26,2.19l-42,24.21A1.22,1.22,0,0,1,261.64,230Z" style="fill:#e0e0e0"></path><path d="M264.29,248.08a1.26,1.26,0,0,1-1.09-.64,1.27,1.27,0,0,1,.46-1.73l69-39.75a1.27,1.27,0,0,1,1.73.47,1.25,1.25,0,0,1-.47,1.72l-69,39.76A1.33,1.33,0,0,1,264.29,248.08Z" style="fill:#e0e0e0"></path><path d="M265.62,257.1a1.26,1.26,0,0,1-.63-2.36L334,215a1.26,1.26,0,1,1,1.26,2.19l-69,39.75A1.19,1.19,0,0,1,265.62,257.1Z" style="fill:#e0e0e0"></path><path d="M267,266.13a1.26,1.26,0,0,1-.63-2.36l69-39.75a1.26,1.26,0,0,1,1.26,2.19l-69,39.75A1.19,1.19,0,0,1,267,266.13Z" style="fill:#e0e0e0"></path><path d="M268.28,275.16a1.27,1.27,0,0,1-1.1-.64,1.25,1.25,0,0,1,.47-1.72l69-39.76a1.27,1.27,0,0,1,1.27,2.2l-69,39.75A1.29,1.29,0,0,1,268.28,275.16Z" style="fill:#e0e0e0"></path><path d="M269.61,284.19a1.27,1.27,0,0,1-.63-2.37l69-39.75a1.27,1.27,0,0,1,1.27,2.19l-69,39.76A1.32,1.32,0,0,1,269.61,284.19Z" style="fill:#e0e0e0"></path><path d="M270.94,293.21a1.26,1.26,0,0,1-.63-2.36l69-39.75a1.27,1.27,0,1,1,1.27,2.19l-69,39.75A1.22,1.22,0,0,1,270.94,293.21Z" style="fill:#e0e0e0"></path><path d="M272.27,302.24a1.27,1.27,0,0,1-.64-2.36l69-39.75a1.26,1.26,0,1,1,1.26,2.19l-69,39.75A1.22,1.22,0,0,1,272.27,302.24Z" style="fill:#e0e0e0"></path><path d="M273.6,311.27a1.27,1.27,0,0,1-.64-2.37l26.52-15.28a1.27,1.27,0,0,1,1.26,2.2L274.23,311.1A1.32,1.32,0,0,1,273.6,311.27Z" style="fill:#e0e0e0"></path></g></g><g id="freepik--Plants--inject-9"><g id="freepik--plants--inject-9"><g id="freepik--plants--inject-9"><path d="M268.15,422.62A6,6,0,0,1,274,420.1c3.08.38,5.88,2.17,5.95,2.54S277.4,425,273.76,425A7,7,0,0,1,268.15,422.62Z" style="fill:#455a64"></path><path d="M261.66,426.78a6,6,0,0,1,6.35.42c2.57,1.74,4.25,4.62,4.14,5s-3.35,1-6.59-.69A7,7,0,0,1,261.66,426.78Z" style="fill:#455a64"></path><path d="M256.85,423.32a6,6,0,0,1,1.52-6.18c2.16-2.23,4.94-3.45,5.28-3.29s.42,3.84-1.35,6.58A6.28,6.28,0,0,1,256.85,423.32Z" style="fill:#455a64"></path><path d="M235.45,438.79a24.48,24.48,0,0,1,6-5.87,47.43,47.43,0,0,1,6.58-4.17,61.49,61.49,0,0,1,15.2-5.57,32.88,32.88,0,0,1,10.39-1c.08,0,.1.19,0,.19a49.43,49.43,0,0,0-9.34,1.59,56.72,56.72,0,0,0-20.77,9.32,81.72,81.72,0,0,0-7.24,6.18A.53.53,0,0,1,235.45,438.79Z" style="fill:#37474f"></path><path d="M255.49,425.44a19.23,19.23,0,0,1,1.86-3.78,10.81,10.81,0,0,1,2.64-3c.15-.11.07.16,0,.26a31.87,31.87,0,0,0-2,3,13.61,13.61,0,0,0-1.4,3.55.84.84,0,0,1-.74.62A.45.45,0,0,1,255.49,425.44Z" style="fill:#37474f"></path><path d="M256,425.38a15.35,15.35,0,0,1,5.79.94,17.28,17.28,0,0,1,2.5,1,10.47,10.47,0,0,1,2.65,1.77s.14.27.07.23a30.4,30.4,0,0,0-2.8-1.38,17.08,17.08,0,0,0-2.69-.91,25,25,0,0,0-5.6-.85C255.54,426.14,255.67,425.4,256,425.38Z" style="fill:#37474f"></path><path d="M251,431a6,6,0,0,1,6.3-.91c2.87,1.17,5.11,3.63,5.08,4s-3.08,1.63-6.59.69A7,7,0,0,1,251,431Z" style="fill:#455a64"></path><path d="M245.13,430.77a15.43,15.43,0,0,1,5.86-.29,17,17,0,0,1,2.65.44,10.64,10.64,0,0,1,3,1.18s.19.24.11.21a29,29,0,0,0-3-.76,16.08,16.08,0,0,0-2.82-.34,25.48,25.48,0,0,0-5.65.34C244.82,431.61,244.8,430.86,245.13,430.77Z" style="fill:#37474f"></path></g><g id="freepik--plants--inject-9"><path d="M259.12,397.55a6.57,6.57,0,0,0,2.61-6.48c-.49-3.37-2.53-6.39-2.93-6.46s-2.55,2.86-2.46,6.84A7.62,7.62,0,0,0,259.12,397.55Z" style="fill:#455a64"></path><path d="M254.72,404.77a6.53,6.53,0,0,0-.62-6.95c-2-2.78-5.18-4.54-5.57-4.42s-1,3.71.94,7.22A7.6,7.6,0,0,0,254.72,404.77Z" style="fill:#455a64"></path><path d="M258.64,410a6.53,6.53,0,0,0,6.74-1.82c2.39-2.42,3.66-5.51,3.47-5.87s-4.21-.37-7.17,1.65C258.45,406.12,258.78,409,258.64,410Z" style="fill:#455a64"></path><path d="M242.22,433.84a26.75,26.75,0,0,0,6.29-6.7,52.21,52.21,0,0,0,4.4-7.32A66.77,66.77,0,0,0,258.63,403a36,36,0,0,0,.84-11.42c0-.09-.21-.1-.22,0a53.32,53.32,0,0,1-1.5,10.29,62.74,62.74,0,0,1-2.49,9,64.43,64.43,0,0,1-7.19,14.07,91.26,91.26,0,0,1-6.6,8.11C241,433.55,241.59,434.28,242.22,433.84Z" style="fill:#37474f"></path><path d="M256.35,411.51a20.5,20.5,0,0,0,4.1-2.14,11.57,11.57,0,0,0,3.26-3c.12-.17-.18-.08-.28,0a34.3,34.3,0,0,1-3.25,2.26,15.05,15.05,0,0,1-3.86,1.62.94.94,0,0,0-.67.84A.49.49,0,0,0,256.35,411.51Z" style="fill:#37474f"></path><path d="M256.41,410.94a17,17,0,0,0-1.18-6.33,19.61,19.61,0,0,0-1.15-2.72,11.2,11.2,0,0,0-2-2.86s-.3-.14-.25-.06a30.71,30.71,0,0,1,1.58,3,18,18,0,0,1,1.08,2.93,28,28,0,0,1,1.07,6.11C255.58,411.48,256.39,411.31,256.41,410.94Z" style="fill:#37474f"></path><path d="M250.41,416.64a6.55,6.55,0,0,0,.84-6.94c-1.35-3.12-4.11-5.51-4.52-5.47s-1.71,3.42-.59,7.25A7.67,7.67,0,0,0,250.41,416.64Z" style="fill:#455a64"></path><path d="M250.78,423a17,17,0,0,0,.16-6.44,20.58,20.58,0,0,0-.55-2.9,11.7,11.7,0,0,0-1.37-3.21s-.27-.2-.24-.12a30.44,30.44,0,0,1,.92,3.3,18.8,18.8,0,0,1,.44,3.09,27.78,27.78,0,0,1-.22,6.2C249.86,423.37,250.68,423.38,250.78,423Z" style="fill:#37474f"></path></g></g></g><g id="freepik--Coins--inject-9"><g id="freepik--Money--inject-9"><g id="freepik--Coin--inject-9"><path d="M169,421.21a24.89,24.89,0,0,1,9.19-8.5c15-8.68,39.41-8.68,54.45,0a24.89,24.89,0,0,1,9.19,8.5h2.08v7.87h0c-.27,5.47-4,10.89-11.24,15.06-15,8.68-39.41,8.68-54.45,0-7.23-4.17-11-9.59-11.27-15.06h0v-7.87Z" style="fill:#0EA2BD"></path><path d="M169,421.21a24.89,24.89,0,0,1,9.19-8.5c15-8.68,39.41-8.68,54.45,0a24.89,24.89,0,0,1,9.19,8.5h2.08v7.87h0c-.27,5.47-4,10.89-11.24,15.06-15,8.68-39.41,8.68-54.45,0-7.23-4.17-11-9.59-11.27-15.06h0v-7.87Z" style="opacity:0.25"></path><path d="M205.37,406.2c9.85,0,19.71,2.17,27.23,6.51a24.89,24.89,0,0,1,9.19,8.5h2.08v7.87h0c-.27,5.47-4,10.89-11.24,15.06-7.52,4.34-17.38,6.51-27.23,6.51Z" style="opacity:0.1"></path><path d="M226.4,409.81a43,43,0,0,1,6.2,2.9,24.89,24.89,0,0,1,9.19,8.5h2.08v7.87h0c-.27,5.47-4,10.89-11.24,15.06a43,43,0,0,1-6.2,2.91Z" style="opacity:0.1"></path><path d="M184.35,409.81a43,43,0,0,0-6.2,2.9,24.89,24.89,0,0,0-9.19,8.5h-2.08v7.87h0c.27,5.47,4,10.89,11.27,15.06a43,43,0,0,0,6.2,2.91Z" style="fill:#0EA2BD;opacity:0.5"></path><path d="M232.6,405.5c15,8.68,15,22.76,0,31.43-13.16,7.6-33.46,8.55-48.41,2.85h0l-.6-.23a41.39,41.39,0,0,1-5.44-2.62c-12.53-7.23-14.62-18.22-6.24-26.71h0a29.46,29.46,0,0,1,6.24-4.72C193.18,396.82,217.56,396.82,232.6,405.5Z" style="fill:#0EA2BD"></path><path d="M232.6,405.5c15,8.68,15,22.76,0,31.43-13.16,7.6-33.46,8.55-48.41,2.85h0l-.6-.23a41.39,41.39,0,0,1-5.44-2.62c-12.53-7.23-14.62-18.22-6.24-26.71h0a29.46,29.46,0,0,1,6.24-4.72C193.18,396.82,217.56,396.82,232.6,405.5Z" style="opacity:0.2"></path><path d="M171.91,410.22a16.87,16.87,0,0,0-4,13.72c1.33,7.64,12,14.07,15.71,15.61a41.39,41.39,0,0,1-5.44-2.62C165.62,429.7,163.53,418.71,171.91,410.22Z" style="fill:#f5f5f5;opacity:0.5"></path><path d="M238.84,432.21a16.84,16.84,0,0,0,4-13.71c-1.33-7.64-12-14.07-15.72-15.61a41.39,41.39,0,0,1,5.44,2.61C245.13,412.74,247.21,423.73,238.84,432.21Z" style="fill:#f5f5f5;opacity:0.5"></path><path d="M230.69,435.8c14-8.07,14-21.15,0-29.22s-36.63-8.07-50.61,0-14,21.15,0,29.22S216.72,443.87,230.69,435.8Z" style="fill:#0EA2BD"></path><path d="M230.69,435.8c14-8.07,14-21.15,0-29.22s-36.63-8.07-50.61,0-14,21.15,0,29.22S216.72,443.87,230.69,435.8Z" style="fill:#fff;opacity:0.4"></path><path d="M239.55,427.36c2.87-5.32,1.94-11.18-2.81-16.15a24.2,24.2,0,0,0-3-2.66,32.35,32.35,0,0,0-2.9-1.91c-.57-.33-1.16-.65-1.76-.95,1.48,2.45.94,5.07-7.49,5.56C205.07,412.21,226,428,226,428S236.6,422.84,239.55,427.36Z" style="fill:#fff;opacity:0.2"></path><path d="M237.85,423c2.47-.28,3.7-2.82,2.74-5.69s-3.75-5-6.23-4.68-3.7,2.82-2.74,5.69S235.37,423.28,237.85,423Z" style="fill:#fff;opacity:0.5"></path><path d="M211.76,436.13c-.81-6.12-27.59-23.08-27.59-23.08s-5.94-2.38-4-6.53a32.78,32.78,0,0,0-2.86,1.85q-.93.67-1.74,1.38c-8,6.9-8,16,0,22.88.53.47,1.12.93,1.73,1.38a30.52,30.52,0,0,0,2.66,1.72,31.57,31.57,0,0,0,2.83,1.49c.78.37,1.59.72,2.42,1s1.65.62,2.51.9a51.07,51.07,0,0,0,8,1.92c.6.1,1.2.19,1.8.26a60.68,60.68,0,0,0,8,.5,59.81,59.81,0,0,0,9.77-.8S211,440.16,211.76,436.13Z" style="fill:#0EA2BD"></path><path d="M211.76,436.13c-.81-6.12-27.59-23.08-27.59-23.08s-5.94-2.38-4-6.53a32.78,32.78,0,0,0-2.86,1.85q-.93.67-1.74,1.38c-8,6.9-8,16,0,22.88.53.47,1.12.93,1.73,1.38a30.52,30.52,0,0,0,2.66,1.72,31.57,31.57,0,0,0,2.83,1.49c.78.37,1.59.72,2.42,1s1.65.62,2.51.9a51.07,51.07,0,0,0,8,1.92c.6.1,1.2.19,1.8.26a60.68,60.68,0,0,0,8,.5,59.81,59.81,0,0,0,9.77-.8S211,440.16,211.76,436.13Z" style="fill:#fff;opacity:0.30000000000000004"></path><path d="M186.52,410.3c-10,5.77-10.39,15-1.22,21,.39.25.8.51,1.23.75,10.41,6,27.28,6,37.7,0s10.41-15.76,0-21.77c-.42-.24-.86-.48-1.31-.7C212.45,404.3,196.51,404.54,186.52,410.3Z" style="fill:#0EA2BD"></path><path d="M186.52,410.3c-10,5.77-10.39,15-1.22,21,.39.25.8.51,1.23.75,10.41,6,27.28,6,37.7,0s10.41-15.76,0-21.77c-.42-.24-.86-.48-1.31-.7C212.45,404.3,196.51,404.54,186.52,410.3Z" style="opacity:0.2"></path><ellipse cx="205.39" cy="421.19" rx="25.48" ry="14.71" style="fill:#0EA2BD"></ellipse><ellipse cx="205.39" cy="421.19" rx="25.48" ry="14.71" style="opacity:0.5"></ellipse><path d="M187.37,414.89c9.95-5.75,26.09-5.75,36,0,4.07,2.35,6.47,5.29,7.21,8.35-.74,3.05-3.14,6-7.21,8.35-9.95,5.75-26.09,5.75-36,0-4.07-2.35-6.47-5.3-7.22-8.35C180.9,420.18,183.3,417.24,187.37,414.89Z" style="fill:#0EA2BD"></path><path d="M187.37,414.89c9.95-5.75,26.09-5.75,36,0,4.07,2.35,6.47,5.29,7.21,8.35-.74,3.05-3.14,6-7.21,8.35-9.95,5.75-26.09,5.75-36,0-4.07-2.35-6.47-5.3-7.22-8.35C180.9,420.18,183.3,417.24,187.37,414.89Z" style="opacity:0.35000000000000003"></path><path d="M221.44,425.62c0-.5,0-2.52,0-3,0-1.25-.87-2.46-2.72-3.55l-.07,0c-3.42-2-7-1.71-10.1-.92h0c-1.34.34-2.61.77-3.77,1.17a38.75,38.75,0,0,1-4.05,1.26h0a7,7,0,0,1-1.92.18,4,4,0,0,1-1.6-.42l.13-.09.4-.24a9,9,0,0,1,1.07-.54,7.37,7.37,0,0,1,5.66-.12l3.27-3.3v-3a15.51,15.51,0,0,0-8.93-.33,18.38,18.38,0,0,0-2.84,1l-3.27-1.88-3.9,2.25v3l1.34.77a3.23,3.23,0,0,0-.58,1.77c0,.5,0,2.51,0,3,0,1.25.89,2.45,2.77,3.54a11.48,11.48,0,0,0,5.39,1.55h0c.36,0,.72,0,1.08,0a21.24,21.24,0,0,0,5.78-1.25l1.13-.39-3.29,3.3v3a16,16,0,0,0,12.6-.55l3.23,1.86,3.9-2.25v-3l-1.34-.78A3.57,3.57,0,0,0,221.44,425.62Zm-8.23-.26a9.44,9.44,0,0,1-.9.45,8.44,8.44,0,0,1-6.38.1c3-1.08,5.6-2,7.78-.87Z" style="fill:#0EA2BD"></path><path d="M208.55,418.07h0c-1.34.34-2.61.78-3.77,1.17a38.75,38.75,0,0,1-4.05,1.26h0a7,7,0,0,1-1.92.18,4.14,4.14,0,0,1-1.86-.55c-1.25-.73-1.43-1.79.39-3l.4-.25a8.85,8.85,0,0,1,1.07-.53,7.38,7.38,0,0,1,5.66-.13L207.7,413a15.51,15.51,0,0,0-8.93-.33,18.38,18.38,0,0,0-2.84,1l-3.27-1.88-3.9,2.25,3.23,1.86,0,0c-3.28,2.49-3.34,5.07.34,7.2a11.37,11.37,0,0,0,5.39,1.55h0c.36,0,.72,0,1.08,0a21.62,21.62,0,0,0,5.78-1.25c3.74-1.25,6.77-2.73,9.3-1.27,1.68,1,1.22,2.2-.64,3.27a9.44,9.44,0,0,1-.9.45,8.4,8.4,0,0,1-6.5.05l-3.42,3.43a16,16,0,0,0,12.6-.54l3.23,1.86,3.9-2.25-3.23-1.87c3.24-2.5,3.62-5.24-.17-7.46l-.07,0C215.23,417,211.69,417.28,208.55,418.07Z" style="fill:#0EA2BD"></path><g style="opacity:0.30000000000000004"><path d="M208.55,418.07h0c-1.34.34-2.61.78-3.77,1.17a38.75,38.75,0,0,1-4.05,1.26h0a7,7,0,0,1-1.92.18,4.14,4.14,0,0,1-1.86-.55c-1.25-.73-1.43-1.79.39-3l.4-.25a8.85,8.85,0,0,1,1.07-.53,7.38,7.38,0,0,1,5.66-.13L207.7,413a15.51,15.51,0,0,0-8.93-.33,18.38,18.38,0,0,0-2.84,1l-3.27-1.88-3.9,2.25,3.23,1.86,0,0c-3.28,2.49-3.34,5.07.34,7.2a11.37,11.37,0,0,0,5.39,1.55h0c.36,0,.72,0,1.08,0a21.62,21.62,0,0,0,5.78-1.25c3.74-1.25,6.77-2.73,9.3-1.27,1.68,1,1.22,2.2-.64,3.27a9.44,9.44,0,0,1-.9.45,8.4,8.4,0,0,1-6.5.05l-3.42,3.43a16,16,0,0,0,12.6-.54l3.23,1.86,3.9-2.25-3.23-1.87c3.24-2.5,3.62-5.24-.17-7.46l-.07,0C215.23,417,211.69,417.28,208.55,418.07Z" style="fill:#fff"></path></g><polygon points="188.76 413.97 192.7 412.19 195.93 413.61 192.66 411.72 188.76 413.97" style="fill:#f5f5f5;opacity:0.45"></polygon><path d="M198.32,412.75a18.13,18.13,0,0,1,8.38.28l-2.27,3.21L207.7,413A15.48,15.48,0,0,0,198.32,412.75Z" style="fill:#f5f5f5;opacity:0.45"></path><path d="M218.65,419l.07,0c3.79,2.22,3.41,5,.17,7.46,2.87-3.13,2.35-5.31-.77-7.11a14.72,14.72,0,0,0-9.57-1.31C211.69,417.28,215.23,417,218.65,419Z" style="fill:#f5f5f5;opacity:0.45"></path><polygon points="218.89 426.5 221.36 428.4 218.22 430.61 222.12 428.36 218.89 426.5" style="fill:#f5f5f5;opacity:0.45"></polygon><path d="M212.31,425.81a8.36,8.36,0,0,1-6.22.54l-3.7,2.94,3.42-3.43A8.4,8.4,0,0,0,212.31,425.81Z" style="fill:#f5f5f5;opacity:0.45"></path><path d="M200.69,420.5a5.07,5.07,0,0,1-4.67-.44c-1.12-1-.4-2,1.28-2.91-1.82,1.19-1.64,2.25-.39,3a4.14,4.14,0,0,0,1.86.55A7,7,0,0,0,200.69,420.5Z" style="fill:#f5f5f5;opacity:0.45"></path><path d="M192,415.86c-.27.24-2.62,2.43-1.59,4.62s4.55,3.83,7.32,4.13h0a11.37,11.37,0,0,1-5.39-1.55C188.62,420.93,188.68,418.35,192,415.86Z" style="fill:#f5f5f5;opacity:0.45"></path></g><g id="freepik--coin--inject-9"><path d="M164.51,409.46a24.78,24.78,0,0,1,9.2-8.51c15-8.68,39.41-8.68,54.44,0a24.94,24.94,0,0,1,9.2,8.51h2.07v7.86h0c-.28,5.47-4,10.89-11.25,15.07-15,8.68-39.41,8.68-54.44,0-7.23-4.18-11-9.6-11.28-15.07h0v-7.86Z" style="fill:#0EA2BD"></path><path d="M164.51,409.46a24.78,24.78,0,0,1,9.2-8.51c15-8.68,39.41-8.68,54.44,0a24.94,24.94,0,0,1,9.2,8.51h2.07v7.86h0c-.28,5.47-4,10.89-11.25,15.07-15,8.68-39.41,8.68-54.44,0-7.23-4.18-11-9.6-11.28-15.07h0v-7.86Z" style="opacity:0.25"></path><path d="M200.93,394.44c9.85,0,19.7,2.17,27.22,6.51a24.94,24.94,0,0,1,9.2,8.51h2.07v7.86h0c-.28,5.47-4,10.89-11.25,15.07-7.52,4.34-17.37,6.51-27.22,6.51Z" style="opacity:0.1"></path><path d="M222,398.05a42.5,42.5,0,0,1,6.2,2.9,24.94,24.94,0,0,1,9.2,8.51h2.07v7.86h0c-.28,5.47-4,10.89-11.25,15.07a42.5,42.5,0,0,1-6.2,2.9Z" style="opacity:0.1"></path><path d="M179.9,398.05a42.37,42.37,0,0,0-6.19,2.9,24.78,24.78,0,0,0-9.2,8.51h-2.08v7.86h0c.28,5.47,4,10.89,11.28,15.07a42.37,42.37,0,0,0,6.19,2.9Z" style="fill:#0EA2BD;opacity:0.5"></path><path d="M228.15,393.74c15,8.69,15,22.76,0,31.44-13.15,7.59-33.46,8.54-48.4,2.85h0l-.6-.24a42,42,0,0,1-5.44-2.61c-12.54-7.24-14.62-18.23-6.25-26.71h0a28.94,28.94,0,0,1,6.24-4.71C188.74,385.07,213.12,385.07,228.15,393.74Z" style="fill:#0EA2BD"></path><path d="M228.15,393.74c15,8.69,15,22.76,0,31.44-13.15,7.59-33.46,8.54-48.4,2.85h0l-.6-.24a42,42,0,0,1-5.44-2.61c-12.54-7.24-14.62-18.23-6.25-26.71h0a28.94,28.94,0,0,1,6.24-4.71C188.74,385.07,213.12,385.07,228.15,393.74Z" style="opacity:0.2"></path><path d="M167.46,398.47a16.84,16.84,0,0,0-4,13.71c1.34,7.64,12,14.07,15.72,15.61a42,42,0,0,1-5.44-2.61C161.17,417.94,159.09,407,167.46,398.47Z" style="fill:#f5f5f5;opacity:0.5"></path><path d="M234.39,420.46a16.83,16.83,0,0,0,4-13.72c-1.33-7.64-12-14.07-15.71-15.61a41.39,41.39,0,0,1,5.44,2.62C240.69,401,242.77,412,234.39,420.46Z" style="fill:#f5f5f5;opacity:0.5"></path><path d="M226.25,424c14-8.07,14-21.15,0-29.22s-36.64-8.07-50.61,0-14,21.15,0,29.22S212.27,432.11,226.25,424Z" style="fill:#0EA2BD"></path><path d="M226.25,424c14-8.07,14-21.15,0-29.22s-36.64-8.07-50.61,0-14,21.15,0,29.22S212.27,432.11,226.25,424Z" style="fill:#fff;opacity:0.4"></path><path d="M235.1,415.6c2.88-5.32,1.94-11.18-2.81-16.15a24.15,24.15,0,0,0-3-2.65,29.72,29.72,0,0,0-2.9-1.91c-.57-.34-1.15-.65-1.76-1,1.49,2.45.94,5.07-7.49,5.56-16.49,1,4.41,16.73,4.41,16.73S232.15,411.09,235.1,415.6Z" style="fill:#fff;opacity:0.2"></path><path d="M233.4,411.24c2.48-.28,3.7-2.82,2.74-5.68s-3.75-5-6.22-4.69-3.71,2.83-2.74,5.69S230.93,411.52,233.4,411.24Z" style="fill:#fff;opacity:0.5"></path><path d="M207.31,424.38c-.81-6.13-27.58-23.08-27.58-23.08s-5.94-2.39-4-6.54a30,30,0,0,0-2.86,1.85q-.93.67-1.74,1.38c-8,6.9-8,16,0,22.88q.81.7,1.74,1.38c.82.6,1.7,1.17,2.65,1.73s1.86,1,2.84,1.48c.78.37,1.59.72,2.41,1s1.65.63,2.51.91a53.55,53.55,0,0,0,8,1.92l1.79.26a64.44,64.44,0,0,0,8,.5,62.12,62.12,0,0,0,9.77-.8S206.55,428.41,207.31,424.38Z" style="fill:#0EA2BD"></path><path d="M207.31,424.38c-.81-6.13-27.58-23.08-27.58-23.08s-5.94-2.39-4-6.54a30,30,0,0,0-2.86,1.85q-.93.67-1.74,1.38c-8,6.9-8,16,0,22.88q.81.7,1.74,1.38c.82.6,1.7,1.17,2.65,1.73s1.86,1,2.84,1.48c.78.37,1.59.72,2.41,1s1.65.63,2.51.91a53.55,53.55,0,0,0,8,1.92l1.79.26a64.44,64.44,0,0,0,8,.5,62.12,62.12,0,0,0,9.77-.8S206.55,428.41,207.31,424.38Z" style="fill:#fff;opacity:0.30000000000000004"></path><path d="M182.08,398.55c-10,5.76-10.4,15-1.22,21,.39.26.8.51,1.22.75,10.41,6,27.29,6,37.7,0s10.42-15.75,0-21.76c-.42-.25-.86-.48-1.3-.71C208,392.54,192.06,392.78,182.08,398.55Z" style="fill:#0EA2BD"></path><path d="M182.08,398.55c-10,5.76-10.4,15-1.22,21,.39.26.8.51,1.22.75,10.41,6,27.29,6,37.7,0s10.42-15.75,0-21.76c-.42-.25-.86-.48-1.3-.71C208,392.54,192.06,392.78,182.08,398.55Z" style="opacity:0.2"></path><path d="M182.92,399c-9.95,5.74-9.95,15.06,0,20.8s26.09,5.75,36,0,10-15.06,0-20.8S192.88,393.28,182.92,399Z" style="fill:#0EA2BD"></path><path d="M182.92,399c-9.95,5.74-9.95,15.06,0,20.8s26.09,5.75,36,0,10-15.06,0-20.8S192.88,393.28,182.92,399Z" style="opacity:0.5"></path><path d="M182.92,403.13c10-5.75,26.09-5.75,36,0,4.07,2.35,6.48,5.3,7.22,8.35-.74,3.06-3.15,6-7.22,8.35-10,5.75-26.08,5.75-36,0-4.07-2.35-6.47-5.29-7.21-8.35C176.45,408.43,178.85,405.48,182.92,403.13Z" style="fill:#0EA2BD"></path><path d="M182.92,403.13c10-5.75,26.09-5.75,36,0,4.07,2.35,6.48,5.3,7.22,8.35-.74,3.06-3.15,6-7.22,8.35-10,5.75-26.08,5.75-36,0-4.07-2.35-6.47-5.29-7.21-8.35C176.45,408.43,178.85,405.48,182.92,403.13Z" style="opacity:0.35000000000000003"></path><path d="M217,413.86c0-.49,0-2.52,0-3,0-1.25-.86-2.46-2.72-3.54l-.06,0c-3.42-2-7-1.72-10.11-.93h0c-1.34.33-2.61.77-3.77,1.17a37.68,37.68,0,0,1-4.05,1.25h0a7.5,7.5,0,0,1-1.93.19,4.23,4.23,0,0,1-1.59-.43l.12-.09.41-.24a8.73,8.73,0,0,1,1.06-.53,7.4,7.4,0,0,1,5.67-.13l3.27-3.3v-3a15.55,15.55,0,0,0-8.94-.33,18.43,18.43,0,0,0-2.84,1L188.22,400l-3.9,2.25v3l1.33.77a3.24,3.24,0,0,0-.57,1.76v3c0,1.25.9,2.45,2.78,3.54a11.33,11.33,0,0,0,5.38,1.55h0c.35,0,.72,0,1.07,0a21.31,21.31,0,0,0,5.79-1.24l1.12-.39-3.29,3.3v3a16,16,0,0,0,12.6-.55l3.23,1.87,3.9-2.25v-3l-1.34-.77A3.54,3.54,0,0,0,217,413.86Zm-8.22-.26a7.67,7.67,0,0,1-.91.45,8.37,8.37,0,0,1-6.37.1c3-1.08,5.6-2,7.77-.86C209.11,413.39,209,413.5,208.77,413.6Z" style="fill:#0EA2BD"></path><path d="M204.1,406.31h0c-1.34.33-2.61.77-3.77,1.17a37.68,37.68,0,0,1-4.05,1.25h0a7.5,7.5,0,0,1-1.93.19,4.11,4.11,0,0,1-1.85-.56c-1.26-.72-1.44-1.78.38-3l.41-.25a10.47,10.47,0,0,1,1.06-.53,7.35,7.35,0,0,1,5.67-.12l3.27-3.3a15.55,15.55,0,0,0-8.94-.33,18.43,18.43,0,0,0-2.84,1L188.22,400l-3.9,2.25,3.23,1.87,0,0c-3.28,2.49-3.35,5.08.34,7.21a11.56,11.56,0,0,0,5.38,1.55h0a9.55,9.55,0,0,0,1.07,0,21.31,21.31,0,0,0,5.79-1.25c3.74-1.25,6.77-2.72,9.29-1.27,1.69,1,1.22,2.2-.63,3.27a7.67,7.67,0,0,1-.91.45,8.33,8.33,0,0,1-6.49.05l-3.43,3.44a16,16,0,0,0,12.6-.55l3.23,1.86,3.9-2.25-3.23-1.86c3.25-2.51,3.62-5.24-.17-7.46l-.06,0C210.79,405.26,207.25,405.52,204.1,406.31Z" style="fill:#0EA2BD"></path><g style="opacity:0.30000000000000004"><path d="M204.1,406.31h0c-1.34.33-2.61.77-3.77,1.17a37.68,37.68,0,0,1-4.05,1.25h0a7.5,7.5,0,0,1-1.93.19,4.11,4.11,0,0,1-1.85-.56c-1.26-.72-1.44-1.78.38-3l.41-.25a10.47,10.47,0,0,1,1.06-.53,7.35,7.35,0,0,1,5.67-.12l3.27-3.3a15.55,15.55,0,0,0-8.94-.33,18.43,18.43,0,0,0-2.84,1L188.22,400l-3.9,2.25,3.23,1.87,0,0c-3.28,2.49-3.35,5.08.34,7.21a11.56,11.56,0,0,0,5.38,1.55h0a9.55,9.55,0,0,0,1.07,0,21.31,21.31,0,0,0,5.79-1.25c3.74-1.25,6.77-2.72,9.29-1.27,1.69,1,1.22,2.2-.63,3.27a7.67,7.67,0,0,1-.91.45,8.33,8.33,0,0,1-6.49.05l-3.43,3.44a16,16,0,0,0,12.6-.55l3.23,1.86,3.9-2.25-3.23-1.86c3.25-2.51,3.62-5.24-.17-7.46l-.06,0C210.79,405.26,207.25,405.52,204.1,406.31Z" style="fill:#fff"></path></g><polygon points="184.32 402.21 188.25 400.43 191.48 401.85 188.22 399.96 184.32 402.21" style="fill:#f5f5f5;opacity:0.45"></polygon><path d="M193.87,401a18.13,18.13,0,0,1,8.38.28L200,404.48l3.27-3.29A15.59,15.59,0,0,0,193.87,401Z" style="fill:#f5f5f5;opacity:0.45"></path><path d="M214.21,407.24l.06,0c3.79,2.22,3.42,5,.17,7.46,2.88-3.13,2.36-5.32-.76-7.12a14.75,14.75,0,0,0-9.58-1.31C207.25,405.52,210.79,405.26,214.21,407.24Z" style="fill:#f5f5f5;opacity:0.45"></path><polygon points="214.44 414.74 216.92 416.64 213.77 418.85 217.67 416.6 214.44 414.74" style="fill:#f5f5f5;opacity:0.45"></polygon><path d="M207.86,414.05a8.37,8.37,0,0,1-6.21.55l-3.71,2.94,3.43-3.44A8.33,8.33,0,0,0,207.86,414.05Z" style="fill:#f5f5f5;opacity:0.45"></path><path d="M196.25,408.74a5.07,5.07,0,0,1-4.67-.44c-1.13-1-.41-2,1.27-2.91-1.82,1.2-1.64,2.26-.38,3a4.11,4.11,0,0,0,1.85.56A7.5,7.5,0,0,0,196.25,408.74Z" style="fill:#f5f5f5;opacity:0.45"></path><path d="M187.52,404.1c-.28.25-2.63,2.43-1.59,4.62s4.54,3.83,7.32,4.13h0a11.56,11.56,0,0,1-5.38-1.55C184.17,409.18,184.24,406.59,187.52,404.1Z" style="fill:#f5f5f5;opacity:0.45"></path></g><g id="freepik--coin--inject-9"><path d="M167.5,397.18a24.81,24.81,0,0,1,9.19-8.5c15-8.68,39.41-8.68,54.44,0a24.77,24.77,0,0,1,9.2,8.5h2.08v7.87h0c-.27,5.47-4,10.89-11.25,15.06-15,8.68-39.4,8.68-54.44,0-7.23-4.17-11-9.59-11.27-15.06h0v-7.87Z" style="fill:#0EA2BD"></path><path d="M167.5,397.18a24.81,24.81,0,0,1,9.19-8.5c15-8.68,39.41-8.68,54.44,0a24.77,24.77,0,0,1,9.2,8.5h2.08v7.87h0c-.27,5.47-4,10.89-11.25,15.06-15,8.68-39.4,8.68-54.44,0-7.23-4.17-11-9.59-11.27-15.06h0v-7.87Z" style="opacity:0.25"></path><path d="M203.91,382.17c9.85,0,19.71,2.17,27.22,6.51a24.77,24.77,0,0,1,9.2,8.5h2.08v7.87h0c-.27,5.47-4,10.89-11.25,15.06-7.51,4.34-17.37,6.51-27.22,6.51Z" style="opacity:0.1"></path><path d="M224.94,385.78a41.36,41.36,0,0,1,6.19,2.9,24.77,24.77,0,0,1,9.2,8.5h2.08v7.87h0c-.27,5.47-4,10.89-11.25,15.06a41.36,41.36,0,0,1-6.19,2.9Z" style="opacity:0.1"></path><path d="M182.89,385.78a42,42,0,0,0-6.2,2.9,24.81,24.81,0,0,0-9.19,8.5h-2.08v7.87h0c.27,5.47,4,10.89,11.27,15.06a42,42,0,0,0,6.2,2.9Z" style="fill:#0EA2BD;opacity:0.5"></path><path d="M231.14,381.47c15,8.68,15,22.75,0,31.43-13.16,7.6-33.46,8.55-48.41,2.85h0l-.6-.23a41.39,41.39,0,0,1-5.44-2.62c-12.53-7.24-14.62-18.22-6.24-26.71h0a29.46,29.46,0,0,1,6.24-4.72C191.72,372.79,216.1,372.79,231.14,381.47Z" style="fill:#0EA2BD"></path><path d="M231.14,381.47c15,8.68,15,22.75,0,31.43-13.16,7.6-33.46,8.55-48.41,2.85h0l-.6-.23a41.39,41.39,0,0,1-5.44-2.62c-12.53-7.24-14.62-18.22-6.24-26.71h0a29.46,29.46,0,0,1,6.24-4.72C191.72,372.79,216.1,372.79,231.14,381.47Z" style="opacity:0.2"></path><path d="M170.45,386.19a16.8,16.8,0,0,0-4,13.71c1.33,7.64,12,14.07,15.71,15.62a41.39,41.39,0,0,1-5.44-2.62C164.16,405.66,162.07,394.68,170.45,386.19Z" style="fill:#f5f5f5;opacity:0.5"></path><path d="M237.38,408.18a16.84,16.84,0,0,0,4-13.71c-1.34-7.64-12-14.07-15.72-15.62a41.43,41.43,0,0,1,5.44,2.62C243.67,388.71,245.75,399.7,237.38,408.18Z" style="fill:#f5f5f5;opacity:0.5"></path><ellipse cx="203.93" cy="397.15" rx="35.79" ry="20.66" style="fill:#0EA2BD"></ellipse><ellipse cx="203.93" cy="397.15" rx="35.79" ry="20.66" style="fill:#fff;opacity:0.4"></ellipse><path d="M169.77,403.33c-2.88-5.32-1.94-11.18,2.81-16.15a23.51,23.51,0,0,1,3-2.66,29.72,29.72,0,0,1,2.9-1.91c.57-.33,1.15-.65,1.76-.95-1.49,2.44-.94,5.07,7.48,5.56,16.5,1-4.4,16.72-4.4,16.72S172.71,398.81,169.77,403.33Z" style="fill:#fff;opacity:0.2"></path><path d="M171.47,399c-2.48-.28-3.7-2.83-2.74-5.69s3.75-5,6.22-4.68,3.7,2.82,2.74,5.68S173.94,399.24,171.47,399Z" style="fill:#fff;opacity:0.5"></path><path d="M197.56,412.1C198.37,406,225.14,389,225.14,389s5.94-2.38,4-6.53a30,30,0,0,1,2.86,1.85,20.3,20.3,0,0,1,1.74,1.38c8,6.9,8,16,0,22.87q-.81.71-1.74,1.38a29.57,29.57,0,0,1-2.65,1.73c-.91.53-1.86,1-2.84,1.49-.78.37-1.59.71-2.41,1s-1.66.62-2.51.9a52.35,52.35,0,0,1-8,1.92c-.59.1-1.2.18-1.79.26a60.79,60.79,0,0,1-8,.5A59.81,59.81,0,0,1,194,417S198.32,416.13,197.56,412.1Z" style="fill:#0EA2BD"></path><path d="M197.56,412.1C198.37,406,225.14,389,225.14,389s5.94-2.38,4-6.53a30,30,0,0,1,2.86,1.85,20.3,20.3,0,0,1,1.74,1.38c8,6.9,8,16,0,22.87q-.81.71-1.74,1.38a29.57,29.57,0,0,1-2.65,1.73c-.91.53-1.86,1-2.84,1.49-.78.37-1.59.71-2.41,1s-1.66.62-2.51.9a52.35,52.35,0,0,1-8,1.92c-.59.1-1.2.18-1.79.26a60.79,60.79,0,0,1-8,.5A59.81,59.81,0,0,1,194,417S198.32,416.13,197.56,412.1Z" style="fill:#fff;opacity:0.30000000000000004"></path><path d="M222.79,386.27c10,5.77,10.39,15,1.22,21-.39.26-.8.51-1.22.76-10.41,6-27.29,6-37.7,0s-10.42-15.76,0-21.77c.42-.25.86-.48,1.3-.71C196.87,380.27,212.81,380.5,222.79,386.27Z" style="fill:#0EA2BD"></path><path d="M222.79,386.27c10,5.77,10.39,15,1.22,21-.39.26-.8.51-1.22.76-10.41,6-27.29,6-37.7,0s-10.42-15.76,0-21.77c.42-.25.86-.48,1.3-.71C196.87,380.27,212.81,380.5,222.79,386.27Z" style="opacity:0.2"></path><ellipse cx="203.93" cy="397.15" rx="25.48" ry="14.71" style="fill:#0EA2BD"></ellipse><ellipse cx="203.93" cy="397.15" rx="25.48" ry="14.71" style="opacity:0.5"></ellipse><path d="M222,390.85c-10-5.74-26.09-5.74-36,0-4.07,2.35-6.48,5.3-7.22,8.36.74,3.05,3.15,6,7.22,8.35,10,5.74,26.08,5.74,36,0,4.07-2.35,6.47-5.3,7.21-8.35C228.42,396.15,226,393.2,222,390.85Z" style="fill:#0EA2BD"></path><path d="M222,390.85c-10-5.74-26.09-5.74-36,0-4.07,2.35-6.48,5.3-7.22,8.36.74,3.05,3.15,6,7.22,8.35,10,5.74,26.08,5.74,36,0,4.07-2.35,6.47-5.3,7.21-8.35C228.42,396.15,226,393.2,222,390.85Z" style="opacity:0.35000000000000003"></path><path d="M220,401.59c0-.5,0-2.53,0-3,0-1.24-.87-2.45-2.72-3.54l-.07,0c-3.42-2-7-1.72-10.1-.93h0c-1.34.34-2.61.77-3.77,1.17a36.15,36.15,0,0,1-4,1.25h0a7,7,0,0,1-1.92.18,4,4,0,0,1-1.6-.42l.13-.09.4-.25a10.61,10.61,0,0,1,1.07-.53,7.38,7.38,0,0,1,5.66-.13l3.27-3.29v-3a15.51,15.51,0,0,0-8.93-.32,18.38,18.38,0,0,0-2.84,1l-3.27-1.89-3.9,2.26v3l1.34.77a3.21,3.21,0,0,0-.58,1.77c0,.5,0,2.51,0,3,0,1.25.89,2.46,2.77,3.54a11.37,11.37,0,0,0,5.39,1.55h0c.36,0,.72,0,1.08,0a21.24,21.24,0,0,0,5.78-1.25l1.13-.39-3.29,3.3v3a16,16,0,0,0,12.6-.54l3.23,1.86,3.89-2.25v-3l-1.33-.77A3.52,3.52,0,0,0,220,401.59Zm-8.22-.26a9.44,9.44,0,0,1-.9.45,8.39,8.39,0,0,1-6.38.09c3.05-1.07,5.6-2,7.78-.86Z" style="fill:#0EA2BD"></path><path d="M207.09,394h0c-1.34.34-2.61.77-3.77,1.17a36.15,36.15,0,0,1-4,1.25h0a7,7,0,0,1-1.92.18,4.14,4.14,0,0,1-1.86-.55c-1.25-.73-1.43-1.79.39-3l.4-.24a7.59,7.59,0,0,1,1.07-.53,7.38,7.38,0,0,1,5.66-.13l3.27-3.3a15.51,15.51,0,0,0-8.93-.32,18.38,18.38,0,0,0-2.84,1l-3.27-1.89-3.9,2.26,3.23,1.86,0,0c-3.28,2.49-3.34,5.07.34,7.2a11.37,11.37,0,0,0,5.39,1.55h0c.36,0,.72,0,1.08,0a20.87,20.87,0,0,0,5.78-1.25c3.74-1.25,6.77-2.72,9.29-1.27,1.69,1,1.23,2.2-.63,3.28a9.44,9.44,0,0,1-.9.45,8.39,8.39,0,0,1-6.5,0l-3.42,3.44a16,16,0,0,0,12.6-.55l3.23,1.87,3.9-2.26-3.23-1.86c3.24-2.51,3.62-5.24-.17-7.46l-.07,0C213.77,393,210.23,393.24,207.09,394Z" style="fill:#0EA2BD"></path><g style="opacity:0.30000000000000004"><path d="M207.09,394h0c-1.34.34-2.61.77-3.77,1.17a36.15,36.15,0,0,1-4,1.25h0a7,7,0,0,1-1.92.18,4.14,4.14,0,0,1-1.86-.55c-1.25-.73-1.43-1.79.39-3l.4-.24a7.59,7.59,0,0,1,1.07-.53,7.38,7.38,0,0,1,5.66-.13l3.27-3.3a15.51,15.51,0,0,0-8.93-.32,18.38,18.38,0,0,0-2.84,1l-3.27-1.89-3.9,2.26,3.23,1.86,0,0c-3.28,2.49-3.34,5.07.34,7.2a11.37,11.37,0,0,0,5.39,1.55h0c.36,0,.72,0,1.08,0a20.87,20.87,0,0,0,5.78-1.25c3.74-1.25,6.77-2.72,9.29-1.27,1.69,1,1.23,2.2-.63,3.28a9.44,9.44,0,0,1-.9.45,8.39,8.39,0,0,1-6.5,0l-3.42,3.44a16,16,0,0,0,12.6-.55l3.23,1.87,3.9-2.26-3.23-1.86c3.24-2.51,3.62-5.24-.17-7.46l-.07,0C213.77,393,210.23,393.24,207.09,394Z" style="fill:#fff"></path></g><polygon points="187.3 389.94 191.24 388.15 194.47 389.57 191.2 387.69 187.3 389.94" style="fill:#f5f5f5;opacity:0.45"></polygon><path d="M196.86,388.71a18.41,18.41,0,0,1,8.38.28L203,392.21l3.27-3.3A15.55,15.55,0,0,0,196.86,388.71Z" style="fill:#f5f5f5;opacity:0.45"></path><path d="M217.19,395l.07,0c3.79,2.22,3.41,4.95.17,7.46,2.87-3.13,2.35-5.31-.77-7.12a14.78,14.78,0,0,0-9.57-1.31C210.23,393.24,213.77,393,217.19,395Z" style="fill:#f5f5f5;opacity:0.45"></path><polygon points="217.43 402.46 219.9 404.36 216.76 406.58 220.66 404.32 217.43 402.46" style="fill:#f5f5f5;opacity:0.45"></polygon><path d="M210.85,401.78a8.42,8.42,0,0,1-6.22.54l-3.7,2.94,3.42-3.44A8.39,8.39,0,0,0,210.85,401.78Z" style="fill:#f5f5f5;opacity:0.45"></path><path d="M199.23,396.47a5,5,0,0,1-4.67-.45c-1.13-1-.4-2,1.28-2.91-1.82,1.2-1.64,2.26-.39,3a4.14,4.14,0,0,0,1.86.55A7,7,0,0,0,199.23,396.47Z" style="fill:#f5f5f5;opacity:0.45"></path><path d="M190.5,391.83c-.27.24-2.62,2.43-1.59,4.62s4.54,3.83,7.32,4.13h0a11.37,11.37,0,0,1-5.39-1.55C187.16,396.9,187.22,394.32,190.5,391.83Z" style="fill:#f5f5f5;opacity:0.45"></path><polygon points="169.91 393.27 170.88 385.9 171.85 393.27 184.61 393.83 171.85 394.39 170.88 401.75 169.91 394.39 157.16 393.83 169.91 393.27" style="fill:#fff"></polygon></g></g></g><g id="freepik--Charts--inject-9"><g id="freepik--donut-chart--inject-9"><g style="opacity:0.2"><path d="M147.61,122.65l52-30c.5-.29.91,0,.91.53v67.45a2,2,0,0,1-.91,1.58l-52,30c-.5.29-.91.06-.91-.52V124.22A2,2,0,0,1,147.61,122.65Z"></path></g><path d="M198.28,96.84l-48.17,27.78a2.21,2.21,0,0,0-1,1.74v65.69a2.18,2.18,0,0,0,1,1.73l1.91,1.09a2.26,2.26,0,0,0,2,0l48.18-27.78a2.23,2.23,0,0,0,1-1.74V99.65a2.18,2.18,0,0,0-1-1.73l-1.91-1.09A2.26,2.26,0,0,0,198.28,96.84Z" style="fill:#0EA2BD"></path><path d="M154,194.86a2.29,2.29,0,0,1-2,0l-1.91-1.09a2.21,2.21,0,0,1-1-1.73V126.36a2.17,2.17,0,0,1,.32-1l3.91,2.27a1.93,1.93,0,0,0-.3,1v65.69C153,194.86,153.44,195.2,154,194.86Z" style="opacity:0.2"></path><g style="opacity:0.2"><path d="M203.2,99.46c-.08-.5-.49-.68-1-.39L154,126.84a2.09,2.09,0,0,0-.71.76l-3.91-2.27a2,2,0,0,1,.69-.71l48.17-27.78a2.26,2.26,0,0,1,2,0l1.91,1.09A2.19,2.19,0,0,1,203.2,99.46Z" style="fill:#fff"></path></g><path d="M202.21,99.07,154,126.84a2.23,2.23,0,0,0-1,1.74v65.7c0,.64.45.9,1,.58l48.18-27.78a2.23,2.23,0,0,0,1-1.74V99.65C203.21,99,202.76,98.75,202.21,99.07Z" style="fill:#fff"></path><path d="M202.41,99.88v65.46a1.44,1.44,0,0,1-.6,1l-48,27.66V128.58a1.44,1.44,0,0,1,.61-1l48-27.66m.24-.95a.83.83,0,0,0-.44.14L154,126.84a2.23,2.23,0,0,0-1,1.74v65.7c0,.45.23.71.56.71a.91.91,0,0,0,.44-.13l48.18-27.78a2.23,2.23,0,0,0,1-1.74V99.65c0-.46-.23-.72-.56-.72Z" style="fill:#0EA2BD"></path><path d="M165.56,151.8l-3.74,7c-2-1.57-3-4.37-3-8.12l5.2-3A5.18,5.18,0,0,0,165.56,151.8Z" style="fill:#0EA2BD"></path><g style="opacity:0.30000000000000004"><path d="M165.56,151.8l-3.74,7c-2-1.57-3-4.37-3-8.12l5.2-3A5.18,5.18,0,0,0,165.56,151.8Z"></path></g><path d="M180.09,138.38c0,7.83-4.75,16.92-10.62,20.31-3.06,1.76-5.53,1.79-7.65.09l3.74-7c1,.79,2.37.84,3.91,0,3-1.73,5.43-6.38,5.43-10.37s-2.43-5.84-5.43-4.11v-6.93C175.34,127,180.09,130.56,180.09,138.38Z" style="fill:#0EA2BD"></path><g style="opacity:0.4"><path d="M180.09,138.38c0,7.83-4.75,16.92-10.62,20.31-3.06,1.76-5.53,1.79-7.65.09l3.74-7c1,.79,2.37.84,3.91,0,3-1.73,5.43-6.38,5.43-10.37s-2.43-5.84-5.43-4.11v-6.93C175.34,127,180.09,130.56,180.09,138.38Z" style="fill:#fff"></path></g><path d="M169.47,130.35c-5.87,3.39-10.63,12.48-10.63,20.31l5.2-3c0-4,2.43-8.64,5.43-10.37,1.58-.91,3-.82,4,0l3.7-7C175.21,128.73,172.49,128.61,169.47,130.35Z" style="fill:#0EA2BD"></path><path d="M186.63,126.05l-3.1,1.78a.15.15,0,0,0-.06.11v3.58s0,0,.06,0l3.1-1.79a.14.14,0,0,0,.07-.11v-3.58S186.67,126,186.63,126.05Z" style="fill:#0EA2BD"></path><path d="M186.63,126.05l-3.1,1.78a.15.15,0,0,0-.06.11v3.58s0,0,.06,0l3.1-1.79a.14.14,0,0,0,.07-.11v-3.58S186.67,126,186.63,126.05Z" style="fill:#fff;opacity:0.4"></path><path d="M188.92,126a.23.23,0,0,1-.2-.11.24.24,0,0,1,.09-.32l8.67-5a.23.23,0,0,1,.31.08.23.23,0,0,1-.08.32L189,126A.2.2,0,0,1,188.92,126Z" style="fill:#455a64"></path><path d="M188.92,128a.24.24,0,0,1-.2-.12.23.23,0,0,1,.09-.31l8.67-5a.23.23,0,0,1,.31.09.22.22,0,0,1-.08.31L189,128A.2.2,0,0,1,188.92,128Z" style="fill:#455a64"></path><path d="M186.63,133.36l-3.1,1.79a.15.15,0,0,0-.06.11v3.58s0,0,.06,0l3.1-1.79a.12.12,0,0,0,.07-.1V133.4S186.67,133.34,186.63,133.36Z" style="fill:#0EA2BD"></path><path d="M188.92,133.32a.22.22,0,0,1-.2-.12.23.23,0,0,1,.09-.31l8.67-5a.22.22,0,0,1,.31.08.23.23,0,0,1-.08.32l-8.68,5A.2.2,0,0,1,188.92,133.32Z" style="fill:#455a64"></path><path d="M188.92,135.29a.23.23,0,0,1-.2-.11.24.24,0,0,1,.09-.32l8.67-5a.23.23,0,0,1,.31.09.22.22,0,0,1-.08.31l-8.68,5A.2.2,0,0,1,188.92,135.29Z" style="fill:#455a64"></path><path d="M186.63,140.68l-3.1,1.79a.15.15,0,0,0-.06.1v3.58s0,.06.06,0l3.1-1.79a.14.14,0,0,0,.07-.11v-3.57S186.67,140.66,186.63,140.68Z" style="fill:#0EA2BD"></path><path d="M186.63,140.68l-3.1,1.79a.15.15,0,0,0-.06.1v3.58s0,.06.06,0l3.1-1.79a.14.14,0,0,0,.07-.11v-3.57S186.67,140.66,186.63,140.68Z" style="opacity:0.30000000000000004"></path><path d="M188.92,140.63a.22.22,0,0,1-.11-.42l8.67-5a.23.23,0,0,1,.31.09.22.22,0,0,1-.08.31l-8.68,5A.14.14,0,0,1,188.92,140.63Z" style="fill:#455a64"></path><path d="M188.92,142.61a.22.22,0,0,1-.2-.12.23.23,0,0,1,.09-.31l8.67-5a.22.22,0,0,1,.31.08.23.23,0,0,1-.08.32l-8.68,5A.2.2,0,0,1,188.92,142.61Z" style="fill:#455a64"></path><path d="M158.84,173.87a.23.23,0,0,1-.2-.11.24.24,0,0,1,.09-.32l38.75-22.35a.23.23,0,0,1,.31.09.22.22,0,0,1-.08.31L159,173.84Z" style="fill:#455a64"></path><path d="M158.84,177.87a.22.22,0,0,1-.11-.42l38.75-22.35a.23.23,0,0,1,.31.08.23.23,0,0,1-.08.32L159,177.84Z" style="fill:#455a64"></path><path d="M158.84,181.88a.22.22,0,0,1-.2-.12.23.23,0,0,1,.09-.31l38.75-22.35a.23.23,0,0,1,.31.09.22.22,0,0,1-.08.31L159,181.85Z" style="fill:#455a64"></path></g><g id="freepik--donut-chart--inject-9"><g style="opacity:0.2"><path d="M209.48,87l52-30c.5-.29.91,0,.91.53V125a2,2,0,0,1-.91,1.58l-52,30c-.5.29-.91,0-.91-.53V88.54A2,2,0,0,1,209.48,87Z"></path></g><path d="M260.15,61.16,212,88.93a2.23,2.23,0,0,0-1,1.74v65.7a2.16,2.16,0,0,0,1,1.72l1.91,1.09a2.26,2.26,0,0,0,2,0l48.18-27.78a2.23,2.23,0,0,0,1-1.74V64a2.19,2.19,0,0,0-1-1.73l-1.91-1.08A2.22,2.22,0,0,0,260.15,61.16Z" style="fill:#0EA2BD"></path><path d="M215.9,159.17a2.29,2.29,0,0,1-2,0L212,158.09a2.16,2.16,0,0,1-1-1.72V90.67a2,2,0,0,1,.32-1l3.91,2.26a2,2,0,0,0-.3,1v65.69C214.9,159.17,215.31,159.51,215.9,159.17Z" style="opacity:0.2"></path><g style="opacity:0.2"><path d="M265.07,63.78c-.08-.51-.5-.69-1-.4L215.91,91.16a2,2,0,0,0-.71.75l-3.92-2.26a2.2,2.2,0,0,1,.7-.72l48.17-27.78a2.22,2.22,0,0,1,2,0l1.91,1.08A2.24,2.24,0,0,1,265.07,63.78Z" style="fill:#fff"></path></g><path d="M264.08,63.38,215.9,91.16a2.23,2.23,0,0,0-1,1.74v65.69c0,.64.45.9,1,.58l48.18-27.78a2.23,2.23,0,0,0,1-1.74V64C265.08,63.32,264.63,63.06,264.08,63.38Z" style="fill:#fff"></path><path d="M264.28,64.19v65.46a1.42,1.42,0,0,1-.61,1l-48,27.67V92.9a1.46,1.46,0,0,1,.6-1.05l48-27.66m.24-.95a.93.93,0,0,0-.44.14L215.9,91.16a2.23,2.23,0,0,0-1,1.74v65.69c0,.45.23.72.56.72a.93.93,0,0,0,.44-.14l48.18-27.78a2.23,2.23,0,0,0,1-1.74V64c0-.46-.23-.72-.56-.72Z" style="fill:#0EA2BD"></path><path d="M231.34,94.66v6.94c-3,1.73-5.43,6.37-5.43,10.37l-5.2,3C220.71,107.14,225.47,98.05,231.34,94.66Z" style="fill:#0EA2BD"></path><path d="M227.43,116.11l-3.74,7c-2-1.57-3-4.36-3-8.12l5.2-3A5.18,5.18,0,0,0,227.43,116.11Z" style="fill:#0EA2BD"></path><path d="M242,102.7c0,7.82-4.75,16.92-10.62,20.3-3.06,1.77-5.53,1.79-7.65.09l3.74-7c1,.8,2.37.85,3.91,0,3-1.73,5.42-6.37,5.42-10.37s-2.42-5.84-5.42-4.1V94.66C237.21,91.27,242,94.87,242,102.7Z" style="fill:#0EA2BD"></path><g style="opacity:0.4"><path d="M242,102.7c0,7.82-4.75,16.92-10.62,20.3-3.06,1.77-5.53,1.79-7.65.09l3.74-7c1,.8,2.37.85,3.91,0,3-1.73,5.42-6.37,5.42-10.37s-2.42-5.84-5.42-4.1V94.66C237.21,91.27,242,94.87,242,102.7Z" style="fill:#fff"></path></g><path d="M234.17,113.37a9.48,9.48,0,0,1-2.83,2.7c-1.54.89-2.92.84-3.91,0a5.18,5.18,0,0,1-1.52-4.14l-5.2,3c0,3.76,1,6.55,3,8.12,2.12,1.7,4.59,1.68,7.65-.09a18.61,18.61,0,0,0,5.62-5.4Z" style="fill:#0EA2BD"></path><path d="M234.17,113.37a9.48,9.48,0,0,1-2.83,2.7c-1.54.89-2.92.84-3.91,0a5.18,5.18,0,0,1-1.52-4.14l-5.2,3c0,3.76,1,6.55,3,8.12,2.12,1.7,4.59,1.68,7.65-.09a18.61,18.61,0,0,0,5.62-5.4Z" style="opacity:0.30000000000000004"></path><path d="M248.5,90.36l-3.1,1.79a.13.13,0,0,0-.06.1v3.58s0,.06.06,0l3.1-1.79a.13.13,0,0,0,.06-.11V90.39S248.54,90.34,248.5,90.36Z" style="fill:#0EA2BD"></path><path d="M248.5,90.36l-3.1,1.79a.13.13,0,0,0-.06.1v3.58s0,.06.06,0l3.1-1.79a.13.13,0,0,0,.06-.11V90.39S248.54,90.34,248.5,90.36Z" style="fill:#fff;opacity:0.4"></path><path d="M250.79,90.31a.23.23,0,0,1-.2-.11.23.23,0,0,1,.08-.31l8.68-5a.23.23,0,0,1,.31.09.22.22,0,0,1-.08.31l-8.68,5A.2.2,0,0,1,250.79,90.31Z" style="fill:#455a64"></path><path d="M250.79,92.29a.22.22,0,0,1-.2-.12.23.23,0,0,1,.08-.31l8.68-5a.23.23,0,1,1,.23.39l-8.68,5A.2.2,0,0,1,250.79,92.29Z" style="fill:#455a64"></path><path d="M248.5,97.68l-3.1,1.78a.15.15,0,0,0-.06.11v3.58s0,0,.06,0l3.1-1.78a.13.13,0,0,0,.06-.11V97.71S248.54,97.66,248.5,97.68Z" style="fill:#0EA2BD"></path><path d="M250.79,97.63a.23.23,0,0,1-.2-.11.24.24,0,0,1,.08-.32l8.68-5a.23.23,0,0,1,.31.08.23.23,0,0,1-.08.32l-8.68,5A.2.2,0,0,1,250.79,97.63Z" style="fill:#455a64"></path><path d="M250.79,99.6a.23.23,0,0,1-.2-.11.23.23,0,0,1,.08-.31l8.68-5a.23.23,0,0,1,.31.09.22.22,0,0,1-.08.31l-8.68,5A.14.14,0,0,1,250.79,99.6Z" style="fill:#455a64"></path><path d="M248.5,105l-3.1,1.79a.15.15,0,0,0-.06.11v3.58a0,0,0,0,0,.06,0l3.1-1.79a.11.11,0,0,0,.06-.1V105S248.54,105,248.5,105Z" style="fill:#0EA2BD"></path><path d="M248.5,105l-3.1,1.79a.15.15,0,0,0-.06.11v3.58a0,0,0,0,0,.06,0l3.1-1.79a.11.11,0,0,0,.06-.1V105S248.54,105,248.5,105Z" style="opacity:0.30000000000000004"></path><path d="M250.79,105a.22.22,0,0,1-.2-.12.23.23,0,0,1,.08-.31l8.68-5a.23.23,0,1,1,.23.39l-8.68,5A.2.2,0,0,1,250.79,105Z" style="fill:#455a64"></path><path d="M250.79,106.92a.23.23,0,0,1-.2-.11.24.24,0,0,1,.08-.32l8.68-5a.23.23,0,0,1,.31.08.23.23,0,0,1-.08.32l-8.68,5A.2.2,0,0,1,250.79,106.92Z" style="fill:#455a64"></path><path d="M220.71,138.18a.23.23,0,0,1-.2-.11.24.24,0,0,1,.09-.32l38.75-22.34a.23.23,0,0,1,.31.08.23.23,0,0,1-.08.32l-38.75,22.34Z" style="fill:#455a64"></path><path d="M220.71,142.19a.22.22,0,0,1-.2-.12.23.23,0,0,1,.09-.31l38.75-22.35a.23.23,0,0,1,.31.09.22.22,0,0,1-.08.31l-38.75,22.35Z" style="fill:#455a64"></path><path d="M220.71,146.19a.23.23,0,0,1-.2-.11.24.24,0,0,1,.09-.32l38.75-22.34a.23.23,0,1,1,.23.39l-38.75,22.35Z" style="fill:#455a64"></path></g><g id="freepik--donut-chart--inject-9"><g style="opacity:0.2"><path d="M271.35,51.28l52-30c.5-.29.91-.05.91.53V89.28a2,2,0,0,1-.91,1.58l-52,30c-.51.29-.91.06-.91-.52V52.85A2,2,0,0,1,271.35,51.28Z"></path></g><path d="M322,25.47,273.84,53.25a2.23,2.23,0,0,0-1,1.74v65.69a2.18,2.18,0,0,0,1,1.73l1.91,1.08a2.22,2.22,0,0,0,2,0l48.17-27.77A2.21,2.21,0,0,0,327,94V28.28a2.18,2.18,0,0,0-1-1.73L324,25.46A2.28,2.28,0,0,0,322,25.47Z" style="fill:#0EA2BD"></path><path d="M277.77,123.48a2.29,2.29,0,0,1-2,0l-1.91-1.09a2.18,2.18,0,0,1-1-1.73V55a2,2,0,0,1,.32-1l3.91,2.26a2,2,0,0,0-.3,1V122.9C276.77,123.49,277.18,123.83,277.77,123.48Z" style="opacity:0.2"></path><g style="opacity:0.2"><path d="M326.93,28.09c-.07-.5-.49-.68-1-.4L277.77,55.47a2.2,2.2,0,0,0-.7.75L273.15,54a2,2,0,0,1,.69-.71L322,25.47a2.26,2.26,0,0,1,2,0l1.91,1.09A2.21,2.21,0,0,1,326.93,28.09Z" style="fill:#fff"></path></g><path d="M325.94,27.7,277.77,55.47a2.23,2.23,0,0,0-1,1.74v65.7c0,.64.45.89,1,.57l48.17-27.77A2.21,2.21,0,0,0,327,94V28.28C327,27.64,326.5,27.38,325.94,27.7Z" style="fill:#fff"></path><path d="M326.14,28.51V94a1.41,1.41,0,0,1-.6,1l-48,27.66V57.21a1.44,1.44,0,0,1,.6-1l48-27.66m.25-1a.89.89,0,0,0-.45.14L277.77,55.47a2.23,2.23,0,0,0-1,1.74v65.7c0,.45.22.71.55.71a.84.84,0,0,0,.45-.14l48.17-27.77A2.21,2.21,0,0,0,327,94V28.28c0-.46-.23-.72-.56-.72Z" style="fill:#0EA2BD"></path><path d="M293.21,59v6.93c-3,1.73-5.43,6.38-5.43,10.37l-5.2,3C282.58,71.46,287.34,62.37,293.21,59Z" style="fill:#0EA2BD"></path><path d="M289.3,80.43l-3.74,7c-2-1.57-3-4.37-3-8.13l5.2-3A5.18,5.18,0,0,0,289.3,80.43Z" style="fill:#0EA2BD"></path><g style="opacity:0.30000000000000004"><path d="M289.3,80.43l-3.74,7c-2-1.57-3-4.37-3-8.13l5.2-3A5.18,5.18,0,0,0,289.3,80.43Z"></path></g><path d="M303.83,67c0,7.83-4.76,16.92-10.62,20.31-3.06,1.76-5.53,1.79-7.65.09l3.74-7c1,.79,2.37.84,3.91,0,3-1.74,5.42-6.38,5.42-10.37s-2.43-5.84-5.42-4.11V59C299.07,55.59,303.83,59.19,303.83,67Z" style="fill:#0EA2BD"></path><g style="opacity:0.4"><path d="M303.83,67c0,7.83-4.76,16.92-10.62,20.31-3.06,1.76-5.53,1.79-7.65.09l3.74-7c1,.79,2.37.84,3.91,0,3-1.74,5.42-6.38,5.42-10.37s-2.43-5.84-5.42-4.11V59C299.07,55.59,303.83,59.19,303.83,67Z" style="fill:#fff"></path></g><path d="M310.37,54.68l-3.1,1.78a.15.15,0,0,0-.06.11v3.58s0,.05.06,0l3.1-1.78a.15.15,0,0,0,.06-.11V54.71S310.4,54.66,310.37,54.68Z" style="fill:#0EA2BD"></path><path d="M310.37,54.68l-3.1,1.78a.15.15,0,0,0-.06.11v3.58s0,.05.06,0l3.1-1.78a.15.15,0,0,0,.06-.11V54.71S310.4,54.66,310.37,54.68Z" style="fill:#fff;opacity:0.4"></path><path d="M312.66,54.63a.23.23,0,0,1-.2-.11.24.24,0,0,1,.08-.32l8.68-5a.23.23,0,0,1,.31.08.23.23,0,0,1-.08.32l-8.68,5A.2.2,0,0,1,312.66,54.63Z" style="fill:#455a64"></path><path d="M312.66,56.6a.23.23,0,0,1-.2-.11.23.23,0,0,1,.08-.31l8.68-5a.23.23,0,0,1,.31.09.22.22,0,0,1-.08.31l-8.68,5A.14.14,0,0,1,312.66,56.6Z" style="fill:#455a64"></path><path d="M310.37,62l-3.1,1.79a.15.15,0,0,0-.06.11v3.58a0,0,0,0,0,.06,0l3.1-1.79a.13.13,0,0,0,.06-.1V62S310.4,62,310.37,62Z" style="fill:#0EA2BD"></path><path d="M312.66,62a.22.22,0,0,1-.2-.12.23.23,0,0,1,.08-.31l8.68-5a.23.23,0,1,1,.23.39l-8.68,5A.2.2,0,0,1,312.66,62Z" style="fill:#455a64"></path><path d="M312.66,63.92a.23.23,0,0,1-.2-.11.24.24,0,0,1,.08-.32l8.68-5a.23.23,0,0,1,.31.08.23.23,0,0,1-.08.32l-8.68,5A.2.2,0,0,1,312.66,63.92Z" style="fill:#455a64"></path><path d="M310.37,69.31l-3.1,1.79a.13.13,0,0,0-.06.1v3.58s0,.06.06,0l3.1-1.79a.15.15,0,0,0,.06-.11V69.34A0,0,0,0,0,310.37,69.31Z" style="fill:#0EA2BD"></path><path d="M310.37,69.31l-3.1,1.79a.13.13,0,0,0-.06.1v3.58s0,.06.06,0l3.1-1.79a.15.15,0,0,0,.06-.11V69.34A0,0,0,0,0,310.37,69.31Z" style="opacity:0.30000000000000004"></path><path d="M312.66,69.26a.23.23,0,0,1-.2-.11.23.23,0,0,1,.08-.31l8.68-5a.23.23,0,0,1,.31.09.22.22,0,0,1-.08.31l-8.68,5A.2.2,0,0,1,312.66,69.26Z" style="fill:#455a64"></path><path d="M312.66,71.24a.22.22,0,0,1-.2-.12.23.23,0,0,1,.08-.31l8.68-5a.23.23,0,1,1,.23.39l-8.68,5A.2.2,0,0,1,312.66,71.24Z" style="fill:#455a64"></path><path d="M282.58,102.5a.22.22,0,0,1-.2-.12.23.23,0,0,1,.08-.31l38.76-22.35a.23.23,0,0,1,.31.09.22.22,0,0,1-.08.31l-38.76,22.35A.2.2,0,0,1,282.58,102.5Z" style="fill:#455a64"></path><path d="M282.58,106.5a.23.23,0,0,1-.2-.11.23.23,0,0,1,.08-.31l38.76-22.35a.23.23,0,0,1,.31.08.23.23,0,0,1-.08.32l-38.76,22.34A.2.2,0,0,1,282.58,106.5Z" style="fill:#455a64"></path><path d="M282.58,110.51a.22.22,0,0,1-.2-.12.23.23,0,0,1,.08-.31l38.76-22.35a.23.23,0,0,1,.31.09.22.22,0,0,1-.08.31l-38.76,22.35A.2.2,0,0,1,282.58,110.51Z" style="fill:#455a64"></path></g></g><g id="freepik--speech-bubble-2--inject-9"><g id="freepik--speech-bubble--inject-9"><path d="M125.82,64.08C120.15,55.83,105,49,86.25,48.8c-17-.16-37.8,4.86-43,21.24C38.84,84,52.46,97,66.6,99.75a97.27,97.27,0,0,0,17.06,1.8c2.62,4.9,8.77,7.91,13.4,8.22A13.59,13.59,0,0,1,94,101.16,88.55,88.55,0,0,0,107.08,99C131.63,92.81,132.17,73.32,125.82,64.08Z" style="fill:#0EA2BD"></path><path d="M125.82,64.08C120.15,55.83,105,49,86.25,48.8c-17-.16-37.8,4.86-43,21.24C38.84,84,52.46,97,66.6,99.75a97.27,97.27,0,0,0,17.06,1.8c2.62,4.9,8.77,7.91,13.4,8.22A13.59,13.59,0,0,1,94,101.16,88.55,88.55,0,0,0,107.08,99C131.63,92.81,132.17,73.32,125.82,64.08Z" style="fill:#fff;opacity:0.4"></path><path d="M62,69.94A5.09,5.09,0,1,0,67.08,75,5.09,5.09,0,0,0,62,69.94Zm23.84,0A5.09,5.09,0,1,0,90.92,75,5.09,5.09,0,0,0,85.83,69.94Zm23.84,0A5.09,5.09,0,1,0,114.76,75,5.09,5.09,0,0,0,109.67,69.94Z" style="fill:#fff"></path></g></g><g id="freepik--speech-bubble-1--inject-9"><g id="freepik--speech-bubble--inject-9"><g id="freepik--speech-bubble--inject-9"><path d="M418.06,47.73a29.77,29.77,0,0,0-4.82,59.13l3.35,8.61a1.73,1.73,0,0,0,3.23,0l3.32-8.63a29.76,29.76,0,0,0-5.08-59.1Zm.08,57.2A27.44,27.44,0,1,1,445.56,77.5,27.43,27.43,0,0,1,418.14,104.93Z" style="fill:#455a64"></path><circle cx="418.13" cy="77.5" r="27.43" transform="translate(274.66 477.82) rotate(-80.78)" style="fill:#fff"></circle></g><path d="M407,63.45a22.75,22.75,0,0,1,2.14-1.64,16.8,16.8,0,0,1,2.52-1.35,15.82,15.82,0,0,1,2.92-.9,16.82,16.82,0,0,1,3.42-.33,14.2,14.2,0,0,1,4.55.69,10.15,10.15,0,0,1,3.52,2A8.79,8.79,0,0,1,428.29,65a10,10,0,0,1,.8,4,10.28,10.28,0,0,1-.63,3.78,10.77,10.77,0,0,1-1.58,2.77,12.07,12.07,0,0,1-2.08,2l-2.14,1.63a16,16,0,0,0-1.74,1.49,2.9,2.9,0,0,0-.87,1.65l-.66,4.19h-4.86l-.48-4.68a3.79,3.79,0,0,1,.38-2.37,7.48,7.48,0,0,1,1.5-1.86A18.83,18.83,0,0,1,418,76a18.84,18.84,0,0,0,2.15-1.72,8.92,8.92,0,0,0,1.68-2.1,5.42,5.42,0,0,0,.68-2.77,4.15,4.15,0,0,0-1.47-3.26,4.86,4.86,0,0,0-1.65-.9,6.62,6.62,0,0,0-2.08-.32,9.27,9.27,0,0,0-2.77.36,10.1,10.1,0,0,0-1.93.81c-.52.29-1,.56-1.33.8a1.82,1.82,0,0,1-1,.36,1.57,1.57,0,0,1-1.49-.86Zm5.43,30.68a4.39,4.39,0,0,1,.33-1.69,4,4,0,0,1,.91-1.38,4.4,4.4,0,0,1,1.37-.92,4.34,4.34,0,0,1,1.73-.34,4.16,4.16,0,0,1,1.7.34,4.57,4.57,0,0,1,1.38.92,4.3,4.3,0,0,1-1.38,7,4.33,4.33,0,0,1-1.7.33,4.52,4.52,0,0,1-1.73-.33,4.06,4.06,0,0,1-1.37-.91,4,4,0,0,1-.91-1.36A4.42,4.42,0,0,1,412.38,94.13Z" style="fill:#0EA2BD"></path></g></g><g id="freepik--character-2--inject-9"><g id="freepik--Character--inject-9"><g id="freepik--Chair--inject-9"><path d="M340.37,347.1l11-63.48,7-.35-14.46,63.82h0a.92.92,0,0,1-.46.62,2.75,2.75,0,0,1-2.48.13.83.83,0,0,1-.55-.74Z" style="fill:#263238"></path><path d="M443.89,273.2h7l16.39,65.93h0a.86.86,0,0,1-.51.77,2.77,2.77,0,0,1-2.48,0,1,1,0,0,1-.5-.6h0Z" style="fill:#37474f"></path><path d="M395.68,377.35l.31-71.09,7-.36-3.76,71.44h0a.93.93,0,0,1-.47.62,2.75,2.75,0,0,1-2.48.13.85.85,0,0,1-.54-.74Z" style="fill:#37474f"></path><path d="M405.85,251.08h7l11.16,70h0a.84.84,0,0,1-.51.77,2.77,2.77,0,0,1-2.48,0,1,1,0,0,1-.5-.6h0Z" style="fill:#263238"></path><g id="freepik--chair--inject-9"><path d="M464,196.2a39,39,0,0,1,2.78,12.24c.8,9.38-2.38,39.76-4.28,53.34h0c-2.75,22.7-6.14,22.74-11.06,26.54-8.46,6.54-32.79,19.35-40.82,22.51-14.56,5.73-26.47-3.1-35.35-7.49a205.79,205.79,0,0,1-23.51-13.92c-2.21-1.62-3.36-3.25-3.34-5,0-.68,0-3.47,0-4.18,0-2.2,1.93-4.55,6-7.19,7.52-4.88,34.71-20.73,45.24-26.57a.1.1,0,0,1,.09-.08c8.1-4.92,13-38.37,18.59-56.17.12-.37.24-.74.37-1.1s.19-.56.29-.83a28.14,28.14,0,0,1,1.1-2.66" style="fill:#0EA2BD"></path><path d="M348.37,280.25c0-2.19,1.93-4.54,6-7.18,7.52-4.88,34.71-20.73,45.24-26.57a.1.1,0,0,1,.09-.08c8.1-4.92,13-38.37,18.59-56.17.06-.16.45-1.53,1.18-3.27l.1-.24.32-.72c.06-.12.11-.25.16-.36h0a17.18,17.18,0,0,1,3.74-5.41,8.25,8.25,0,0,1,1.84-1.29c.91-.52,2.83-1.58,3.3-1.86,5.51-3.3,12.73.66,21.73,5.59,5.6,3.06,10.37,6.71,13.28,13.51h0a39,39,0,0,1,2.78,12.24c.8,9.38-2.38,39.76-4.28,53.34h0c-2.75,22.7-6.14,22.74-11.06,26.54-8.46,6.54-32.79,19.35-40.82,22.51-14.56,5.73-26.47-3.1-35.35-7.49a205.79,205.79,0,0,1-23.51-13.92c-2.21-1.62-3.36-3.25-3.34-5C348.39,283.76,348.37,281,348.37,280.25Z" style="fill:#0EA2BD"></path><path d="M348.37,280.25c0-2.19,1.93-4.54,6-7.18,7.52-4.88,34.71-20.73,45.24-26.57a.1.1,0,0,1,.09-.08c8.1-4.92,13-38.37,18.59-56.17.06-.16.45-1.53,1.18-3.27l.1-.24.32-.72c.06-.12.11-.25.16-.36h0a17.18,17.18,0,0,1,3.74-5.41,8.25,8.25,0,0,1,1.84-1.29c.91-.52,2.83-1.58,3.3-1.86,5.51-3.3,12.73.66,21.73,5.59,5.6,3.06,10.37,6.71,13.28,13.51h0a39,39,0,0,1,2.78,12.24c.8,9.38-2.38,39.76-4.28,53.34h0c-2.75,22.7-6.14,22.74-11.06,26.54-8.46,6.54-32.79,19.35-40.82,22.51-14.56,5.73-26.47-3.1-35.35-7.49a205.79,205.79,0,0,1-23.51-13.92c-2.21-1.62-3.36-3.25-3.34-5C348.39,283.76,348.37,281,348.37,280.25Z" style="opacity:0.15"></path><path d="M375.24,299.11a205.89,205.89,0,0,1-23.52-13.93c-5-3.66-4.58-7.41,2.66-12.11,10.05-6.52,51-29.77,51-29.77s51.8,30.57,49.57,36.22-34.29,23.11-44.39,27.08C396,312.33,384.11,303.49,375.24,299.11Z" style="fill:#0EA2BD"></path><path d="M375.24,299.11a205.89,205.89,0,0,1-23.52-13.93c-5-3.66-4.58-7.41,2.66-12.11,10.05-6.52,51-29.77,51-29.77s51.8,30.57,49.57,36.22-34.29,23.11-44.39,27.08C396,312.33,384.11,303.49,375.24,299.11Z" style="fill:#fff;opacity:0.30000000000000004"></path><path d="M425.65,179c5.45-2.86,12.54,1,21.3,5.83,5.62,3.08,10.4,6.72,13.31,13.55l3.7-2.14c-2.91-6.8-7.68-10.44-13.28-13.51-9-4.93-16.22-8.89-21.73-5.59C428.48,177.38,426.56,178.44,425.65,179Z" style="fill:#0EA2BD"></path><path d="M425.65,179c5.45-2.86,12.54,1,21.3,5.83,5.62,3.08,10.4,6.72,13.31,13.55l3.7-2.14c-2.91-6.8-7.68-10.44-13.28-13.51-9-4.93-16.22-8.89-21.73-5.59C428.48,177.38,426.56,178.44,425.65,179Z" style="fill:#fff;opacity:0.30000000000000004"></path><path d="M399.71,246.42s5.28,1.73,24.12,11c7.74,3.79,12.82,7.62,20.07,12.18,10.66,6.71,9.84,11.69,9.84,11.69,5.3-4.39,10.58-55.33,9.28-70.74a38.71,38.71,0,0,0-3-12.83c-.14-.3-.29-.6-.44-.9s-.2-.41-.31-.6l-.16-.29c-.42-.75-.87-1.46-1.34-2.14l-.35-.5-.38-.49c-.11-.15-.25-.31-.37-.47l-.33-.38a22.5,22.5,0,0,0-1.91-2c-.17-.16-.33-.31-.51-.46a31.13,31.13,0,0,0-3.37-2.56,6.49,6.49,0,0,0-.55-.36c-.24-.16-.48-.31-.74-.46s-.41-.26-.62-.37c-.54-.33-1.1-.64-1.66-1-6.7-3.67-12.41-6.81-17.18-6.81a8.87,8.87,0,0,0-6,2.27c-3.51,3.1-5.39,9.63-5.51,10C412.69,208.05,407.81,241.5,399.71,246.42Z" style="fill:#0EA2BD"></path><path d="M399.71,246.42s5.28,1.73,24.12,11c7.74,3.79,12.82,7.62,20.07,12.18,10.66,6.71,9.84,11.69,9.84,11.69,5.3-4.39,10.58-55.33,9.28-70.74a38.71,38.71,0,0,0-3-12.83c-.14-.3-.29-.6-.44-.9s-.2-.41-.31-.6l-.16-.29c-.42-.75-.87-1.46-1.34-2.14l-.35-.5-.38-.49c-.11-.15-.25-.31-.37-.47l-.33-.38a22.5,22.5,0,0,0-1.91-2c-.17-.16-.33-.31-.51-.46a31.13,31.13,0,0,0-3.37-2.56,6.49,6.49,0,0,0-.55-.36c-.24-.16-.48-.31-.74-.46s-.41-.26-.62-.37c-.54-.33-1.1-.64-1.66-1-6.7-3.67-12.41-6.81-17.18-6.81a8.87,8.87,0,0,0-6,2.27c-3.51,3.1-5.39,9.63-5.51,10C412.69,208.05,407.81,241.5,399.71,246.42Z" style="fill:#fff;opacity:0.1"></path></g></g><g id="freepik--Bottom--inject-9"><path d="M389.29,302l-9.88-12.9L364,300.44c10.25,6.94,21.52,15.61,24.29,19,0,0,8.74-3.71,9.31-8.61S392,303.09,389.29,302Z" style="fill:#ffa8a7"></path><path d="M400.58,305.69a7.67,7.67,0,0,1,2.43,1.83c.75.76,1.35,5,2.27,6.86s1.46,2.29,2.85,4.57c1.54,2.52,3.92,4.65,3.06,12s-3.71,11.36-6.32,13.61a7.7,7.7,0,0,1-3.37,1.51s-4.11-.73-3.94-3.11S400.58,305.69,400.58,305.69Z" style="fill:#263238"></path><path d="M385.18,316.49c.24.7,1.45,1.62,2,2.13a19.29,19.29,0,0,1,3.79,6.52c4.32,10.63,1,17.07,7.7,20.11,1.92.76,5.44-.2,9.58-8.18,2.11-4.08,2.33-11.69.63-14.8s-3.58-5-4.76-7.42-1.69-7.23-3.51-9.16a10.52,10.52,0,0,0-4-2.33c-1.18-.44-3.64-.85-4.83-1.27s-1.91-1-2.46-.08l1.53,1.3c2.44,2.32,2,2.82,2.19,4.26a22.54,22.54,0,0,0,1.57,4.41c-1.71-1.48-2.55-2.9-4-2.35s-1.65.51-3.43,2.94S385,315.87,385.18,316.49Z" style="fill:#0EA2BD"></path><path d="M385.18,316.49c.24.7,1.45,1.62,2,2.13a19.29,19.29,0,0,1,3.79,6.52c4.32,10.63,1,17.07,7.7,20.11,1.92.76,5.44-.2,9.58-8.18,2.11-4.08,2.33-11.69.63-14.8s-3.58-5-4.76-7.42-1.69-7.23-3.51-9.16a10.52,10.52,0,0,0-4-2.33c-1.18-.44-3.64-.85-4.83-1.27s-1.91-1-2.46-.08l1.53,1.3c2.44,2.32,2,2.82,2.19,4.26a22.54,22.54,0,0,0,1.57,4.41c-1.71-1.48-2.55-2.9-4-2.35s-1.65.51-3.43,2.94S385,315.87,385.18,316.49Z" style="opacity:0.4"></path><path d="M408.22,337.07c2.11-4.08,2.33-11.69.63-14.8a32.31,32.31,0,0,0-1.87-3c.08.22.19.43.26.62.15.42.28.84.41,1.26a10.14,10.14,0,0,1,.38,5.12c-.37,1.49-1.17,5.22-3,5.64-1,.24-2.13-.62-2.76-1.73-.26-.46-.79-1.75-.79-1.75a16.57,16.57,0,0,0-4.47,2.87c-2.36,2.29-2.19,2.67-2.19,2.67a7.23,7.23,0,0,1,.53,2.35,6,6,0,0,1-.57,2.55,3.45,3.45,0,0,1-.58.67,7.35,7.35,0,0,0,4.45,5.69C400.56,346,404.08,345.05,408.22,337.07Z" style="opacity:0.30000000000000004"></path><path d="M390.94,325.14a38.3,38.3,0,0,1,2.34,8.71c1.54,2.64,2.41,2.39,2.26.9s-3.24-7.21-5.63-12C390.29,323.57,390.63,324.37,390.94,325.14Z" style="fill:#37474f"></path><path d="M394.36,306.16a6.29,6.29,0,0,0-1.83-3.84,7.48,7.48,0,0,1-.78-.23c-1.29-.44-1.91-1-2.46-.08l1.53,1.3c2.44,2.32,2,2.82,2.19,4.26a22.54,22.54,0,0,0,1.57,4.41c2,4.59,3.35,6,4.72,10.44s1,7.65,1.73,7.78,1.88-.61,1.44-4.29-3.18-9.48-4.86-12.17S394.49,308.15,394.36,306.16Z" style="fill:#37474f"></path><path d="M401.85,328.71a.51.51,0,0,1-.21.17,11,11,0,0,0-6.45,5.59.46.46,0,0,1-.63.17.46.46,0,0,1-.17-.63,11.93,11.93,0,0,1,6.9-6,.46.46,0,0,1,.6.26A.47.47,0,0,1,401.85,328.71Z" style="fill:#ebebeb"></path><path d="M400.57,325a.47.47,0,0,1-.2.17,12.38,12.38,0,0,0-6.77,6.06.46.46,0,0,1-.65.17.47.47,0,0,1-.17-.64,13.29,13.29,0,0,1,7.21-6.45.46.46,0,0,1,.62.24A.45.45,0,0,1,400.57,325Z" style="fill:#ebebeb"></path><path d="M399.88,320.86a.6.6,0,0,1-.23.18,14.05,14.05,0,0,0-7.56,6.8.52.52,0,1,1-.9-.52,15,15,0,0,1,8.05-7.23.51.51,0,0,1,.68.27A.55.55,0,0,1,399.88,320.86Z" style="fill:#ebebeb"></path><path d="M398.61,317.41a.49.49,0,0,1-.22.18,13.71,13.71,0,0,0-7.4,6.64.51.51,0,1,1-.88-.51,14.66,14.66,0,0,1,7.87-7.06.51.51,0,0,1,.67.26A.5.5,0,0,1,398.61,317.41Z" style="fill:#ebebeb"></path><path d="M396.66,314.19a.49.49,0,0,1-.22.18,13.63,13.63,0,0,0-7.39,6.65.53.53,0,0,1-.7.18.51.51,0,0,1-.19-.7,14.7,14.7,0,0,1,7.87-7.06.51.51,0,0,1,.67.26A.5.5,0,0,1,396.66,314.19Z" style="fill:#ebebeb"></path><path d="M397.52,243.79s-39.7,8.77-54.1,12.68c-14.7,4-13.15,15.4-7.68,21.19C346.22,288.77,376,309.23,376,309.23s8.43-5.18,9.08-13l-8.17-11.57,29.58-3.61,4.21-5.1Z" style="fill:#455a64"></path><path d="M369.75,297.31c2.1-4.88,4-6.37,9.14-9.85l6.2,8.79c-.65,7.79-9.08,13-9.08,13s-3.43-2.36-8.38-5.91A58.57,58.57,0,0,1,369.75,297.31Z" style="fill:#37474f"></path><path d="M371.75,273.08c2.57,2.26,4.83,4.32,6.81,6.31s6.54,2,10.62,0c5.06-2.51,10.43-6.79,13.56-9.25C398.13,265,400,257.46,400,257.46c.46,4.9,2.67,9,5,10.91l2.5,1.76.9,7.76L407,280.94l-30.09,3.74c-8.26-10.74-11.11-15.67-18-16.49C358.9,268.19,364.13,266.38,371.75,273.08Z" style="fill:#37474f"></path><path d="M376.81,358.38l.42-1.42,9.63-25-18.17-6.8c-2.36,12.84-5.27,29.77-8,34.22,0,0,4.92,7.63,9.78,6.74S376.57,361.31,376.81,358.38Z" style="fill:#ffa8a7"></path><path d="M376.18,367.5a7.65,7.65,0,0,1-1,2.85c-.5.94-4.39,2.76-5.89,4.18s-1.77,2.06-3.54,4.06c-2,2.21-3.31,5.11-10.62,6.44s-11.95-.23-14.87-2.07a7.78,7.78,0,0,1-2.43-2.78s-.5-4.14,1.82-4.68S376.18,367.5,376.18,367.5Z" style="fill:#263238"></path><path d="M361.35,355.92a8.57,8.57,0,0,0-1.46,2.51,19.44,19.44,0,0,1-5.13,5.53c-8.9,7.23-16,5.91-17,13.23-.17,2.06,1.78,5.15,10.62,6.77,4.52.83,11.86-1.18,14.34-3.72s3.73-4.88,5.7-6.71,6.43-3.74,7.74-6a10.48,10.48,0,0,0,1.06-4.51c.08-1.26.11-5.5.11-5.5-1.51,3-3.86,2.68-5.17,3.31a23,23,0,0,0-3.77,2.79c.92-2.06,2-3.28,1.08-4.52s-1-1.43-3.81-2.42S361.88,355.54,361.35,355.92Z" style="fill:#0EA2BD"></path><path d="M361.35,355.92a8.57,8.57,0,0,0-1.46,2.51,19.44,19.44,0,0,1-5.13,5.53c-8.9,7.23-16,5.91-17,13.23-.17,2.06,1.78,5.15,10.62,6.77,4.52.83,11.86-1.18,14.34-3.72s3.73-4.88,5.7-6.71,6.43-3.74,7.74-6a10.48,10.48,0,0,0,1.06-4.51c.08-1.26.11-5.5.11-5.5-1.51,3-3.86,2.68-5.17,3.31a23,23,0,0,0-3.77,2.79c.92-2.06,2-3.28,1.08-4.52s-1-1.43-3.81-2.42S361.88,355.54,361.35,355.92Z" style="opacity:0.4"></path><path d="M348.4,384c4.52.83,11.86-1.18,14.34-3.72a30.51,30.51,0,0,0,2.3-2.65c-.18.14-.35.31-.51.43-.36.26-.72.51-1.09.75a10.12,10.12,0,0,1-4.78,1.87c-1.54.08-5.33.4-6.28-1.24-.53-.93,0-2.21.85-3.13.37-.39,1.44-1.28,1.44-1.28a16.48,16.48,0,0,0-4.05-3.43c-2.88-1.59-3.19-1.32-3.19-1.32a7,7,0,0,1-2.09,1.19,6,6,0,0,1-2.6.21,3.83,3.83,0,0,1-.82-.36,7.32,7.32,0,0,0-4.14,5.91C337.61,379.25,339.56,382.34,348.4,384Z" style="opacity:0.30000000000000004"></path><path d="M354.76,364a38,38,0,0,1-7.64,4.77c-2.08,2.25-1.58,3-.2,2.43s5.95-5.2,9.8-8.88C356.07,362.87,355.41,363.43,354.76,364Z" style="fill:#37474f"></path><path d="M373.91,361.69a8.33,8.33,0,0,0,3.37-1.7c.63-.58.2-2.28,0-3l-.48,1.51c-1.77,1.5-3.26,1.7-4.57,2.33a23,23,0,0,0-3.77,2.79c-3.8,3.27-4.76,5-8.6,7.57s-7,3.22-6.94,3.92,1.14,1.62,4.53.13,8.14-5.82,10.21-8.2S372.06,362.39,373.91,361.69Z" style="fill:#37474f"></path><path d="M354.54,375.43a.4.4,0,0,1-.22-.15,11.08,11.08,0,0,0-7.24-4.54.47.47,0,0,1-.35-.55.46.46,0,0,1,.55-.34A11.92,11.92,0,0,1,355,374.7a.46.46,0,0,1-.49.73Z" style="fill:#ebebeb"></path><path d="M357.68,373.14a.54.54,0,0,1-.22-.15,12.35,12.35,0,0,0-7.77-4.7.46.46,0,0,1-.35-.57.47.47,0,0,1,.56-.35,13.24,13.24,0,0,1,8.28,5,.46.46,0,0,1-.06.66A.47.47,0,0,1,357.68,373.14Z" style="fill:#ebebeb"></path><path d="M361.47,371.25a.54.54,0,0,1-.24-.16,14,14,0,0,0-8.71-5.24.52.52,0,0,1,.24-1,15.05,15.05,0,0,1,9.26,5.58.52.52,0,0,1-.06.74A.52.52,0,0,1,361.47,371.25Z" style="fill:#ebebeb"></path><path d="M364.4,369a.47.47,0,0,1-.24-.15,13.65,13.65,0,0,0-8.51-5.14.5.5,0,0,1-.38-.61.51.51,0,0,1,.61-.38,14.69,14.69,0,0,1,9.05,5.46.51.51,0,0,1-.05.72A.5.5,0,0,1,364.4,369Z" style="fill:#ebebeb"></path><path d="M366.91,366.23a.49.49,0,0,1-.24-.16,13.69,13.69,0,0,0-8.51-5.13.52.52,0,0,1-.39-.61.51.51,0,0,1,.62-.38,14.62,14.62,0,0,1,9.05,5.46.51.51,0,0,1-.05.72A.5.5,0,0,1,366.91,366.23Z" style="fill:#ebebeb"></path><path d="M363.25,348c4.76,4.95,16.24,4.6,16.24,4.6s3.3-6.31,9.26-20.1c3.33-7.71,5.18-11.2,6.59-22,10.1-4.95,28.07-12.06,45.1-24.79,12.2-9.12,14.12-21.5,12.57-36.17-1.9-18-54.83-3.3-54.83-3.3,3.5,9.78,2.71,19.41,9.32,23.84,0,0-21.31,15.29-28.51,20.75-3.3,2.5-4.86,3.33-6.45,10.93C367.89,324.07,363.25,348,363.25,348Z" style="fill:#455a64"></path><path d="M377,352.55l-1-.06c3.67-6.88,9.2-21.66,11.26-28,.67-2.07,2.05-7.92,2.46-9.51,1.95-7.65,2.23-10.43,4.33-11.14.53-.19,1.69-.87,3.5-1.77,9.23-4.57,31.55-15.91,39.26-23.15.23-.22.43-.44.65-.66-3.89-2.25-5.09-8.18-3.68-12.4,1.5-4.51,1.41-12.66-1-16l.69-.49c2.77,3.92,2.49,12.56,1.08,16.78-1.32,4-.08,9.6,3.5,11.5,7.2-7.67,9-18.24,5.34-30.71l.81-.24c4,13.51,1.66,24.87-6.84,32.85-7.8,7.33-30.21,18.71-39.46,23.3-1.74.87-3,1.49-3.48,1.75-2,1.08-2.73,6.34-3.88,10.75-.42,1.61-1.81,7.39-2.53,9.48C385.84,331.24,380.44,345.85,377,352.55Z" style="fill:#37474f"></path></g><g id="freepik--Desk--inject-9"><polygon points="373.11 322.58 376 320.91 383.52 415.52 380.62 417.19 373.11 322.58" style="fill:#455a64"></polygon><polygon points="373.11 322.58 368.78 320.08 377.73 415.52 380.62 417.19 373.11 322.58" style="fill:#37474f"></polygon><polygon points="294.12 277.05 297.01 275.38 288.06 360.48 285.17 362.15 294.12 277.05" style="fill:#455a64"></polygon><polygon points="294.12 277.05 289.79 274.55 282.27 360.48 285.17 362.15 294.12 277.05" style="fill:#37474f"></polygon><polygon points="423.63 293.45 426.52 291.78 434.04 386.38 431.14 388.05 423.63 293.45" style="fill:#455a64"></polygon><polygon points="423.63 293.45 419.3 290.95 428.25 386.38 431.14 388.05 423.63 293.45" style="fill:#37474f"></polygon><polygon points="344.64 247.92 347.53 246.25 338.58 331.35 335.69 333.02 344.64 247.92" style="fill:#455a64"></polygon><polygon points="344.64 247.92 340.3 245.41 332.79 331.35 335.69 333.02 344.64 247.92" style="fill:#37474f"></polygon><g id="freepik--desk--inject-9"><path d="M450.61,292v-3.42a2,2,0,0,0-.88-1.53L340.18,223.71a2,2,0,0,0-1.76,0l-72.31,41.81a2,2,0,0,0-.88,1.53v3.43a2,2,0,0,0,.88,1.52l109.56,63.29a1.89,1.89,0,0,0,1.76,0l72.3-41.81A1.93,1.93,0,0,0,450.61,292Z" style="fill:#0EA2BD"></path><path d="M450.61,292v-3.42a2,2,0,0,0-.88-1.53L340.18,223.71a2,2,0,0,0-1.76,0l-72.31,41.81a2,2,0,0,0-.88,1.53v3.43a2,2,0,0,0,.88,1.52l109.56,63.29a1.89,1.89,0,0,0,1.76,0l72.3-41.81A1.93,1.93,0,0,0,450.61,292Z" style="fill:#fff;opacity:0.2"></path><path d="M376.55,330.05v5.45a1.93,1.93,0,0,0,.88-.2l72.3-41.82a1.93,1.93,0,0,0,.88-1.52v-3.43a1.92,1.92,0,0,0-.72-1.41c.32.27.27.65-.16.9l-72.3,41.81A1.72,1.72,0,0,1,376.55,330.05Z" style="fill:#0EA2BD"></path><path d="M449.73,288l-72.3,41.81a2,2,0,0,1-1.76,0L266.11,266.54a.54.54,0,0,1,0-1l72.31-41.81a2,2,0,0,1,1.76,0L449.73,287A.54.54,0,0,1,449.73,288Z" style="fill:#0EA2BD"></path><path d="M449.73,288l-72.3,41.81a2,2,0,0,1-1.76,0L266.11,266.54a.54.54,0,0,1,0-1l72.31-41.81a2,2,0,0,1,1.76,0L449.73,287A.54.54,0,0,1,449.73,288Z" style="fill:#fff;opacity:0.5"></path></g></g><g id="freepik--Laptop--inject-9"><g id="freepik--laptop--inject-9"><path d="M299,257.22,337.47,235a2.19,2.19,0,0,1,2.21,0l66.8,38.57a.49.49,0,0,1,0,.85l-38.87,22.45Z" style="opacity:0.2"></path><path d="M304.42,254v.83a3.44,3.44,0,0,0,1.7,3l59.67,34.44a3.34,3.34,0,0,0,1.7.46,3.44,3.44,0,0,0,1.72-.46l32.52-18.72a3.41,3.41,0,0,0,1.7-3v-1.15h0a.42.42,0,0,1-.21.38l-35.72,20.62Z" style="fill:#37474f"></path><path d="M304.41,254l35.38-20.43a2.06,2.06,0,0,1,2,0L403.21,269a.45.45,0,0,1,0,.78l-35.72,20.62Z" style="fill:#455a64"></path><polygon points="367.82 287.39 386.9 276.38 331.1 244.16 311.92 255.11 367.82 287.39" style="fill:#37474f"></polygon><polygon points="311.92 255.11 312.65 255.53 331.11 245 386.17 276.8 386.9 276.38 331.11 244.16 311.92 255.11" style="fill:#263238"></polygon><polygon points="377.2 256.77 376.85 256.97 367.49 262.37 350.86 252.77 350.51 252.57 360.22 246.97 377.2 256.77" style="fill:#263238"></polygon><polygon points="376.85 256.97 367.49 262.37 350.86 252.77 360.22 247.37 376.85 256.97" style="fill:#37474f"></polygon><path d="M367.49,290.39v2.27a3.37,3.37,0,0,1-1.7-.46l-59.67-34.45a3.39,3.39,0,0,1-1.71-2.95V254Z" style="fill:#263238"></path></g></g><g id="freepik--Arm--inject-9"><path d="M363,224.4c5.88-2.28,20.64-8.77,20.64-8.77s13.32-22.34,16.24-27c3.49-5.61,8.43-9.8,16.52-9.16L415,202.85s-14.36,20.59-16.93,24c-1.95,2.58-1.83,3.31-7,4.38l-24.44,5.11-1,.29a3.34,3.34,0,0,0-1.7,1.16,10,10,0,0,0-1.08,1.8c-1,2.18-.94,2.92-2,5.28s-1.56,2.14-3.21,3.95c-1.53,1.66-2.19,2.81-2.94,2.64s-1.12-2.08-.58-3.7,2.13-3.06,2.39-3.73.19-1.64-1.65-1.25-5.84,3.95-7.62,5.47-3.23,3.84-4.85,4.82-1.54-.69-1.64-2.13-1.59-3.64-1.58-5.92,2.55-7.79,4.86-9.64,6.79-5.05,8-5.74A67.54,67.54,0,0,1,363,224.4Z" style="fill:#ffa8a7"></path><path d="M417.05,179.21c-3.49-.32-7.83-.17-11.46,2.68s-5.44,5.28-10.81,14.36-8,13.73-8,13.73a17.17,17.17,0,0,0,6.43,7.75,33,33,0,0,0,9.26,3.63L416,202.88Z" style="fill:#0EA2BD"></path></g><g id="freepik--Top--inject-9"><g id="freepik--Chest--inject-9"><path d="M402.14,200.9c1.42-15.82,6.84-21.12,14.91-21.69a161.48,161.48,0,0,1,17.63,1.72,69.5,69.5,0,0,1,19.35,7.5c4,2.5,5.28,7.85,5.36,19.06a251.35,251.35,0,0,1-2.1,32.3,167.32,167.32,0,0,1-5.52,27.84c-11.14,3.72-55.3-9.79-55-23.93,1.15-3.24,3.14-7,4.05-13.53C402,218.65,401.69,205.87,402.14,200.9Z" style="fill:#263238"></path><g id="freepik--Head--inject-9"><path d="M439.75,175.15c1.08-4.36,5.82-8.63,8.09-12.33s3.55-6.36,3.59-9.87c0-2.08-1.06-5-2.54-5.68,2.35-7.55-3.11-11.05-5.63-12.16-1.11-.49-3.58-1.3-4.66-1.85-1.61-.82-1.89-2.19-3.14-3.43-2.16-2.14-6-2.48-7.76.38-1.39-2.11-3.48-2.21-5.93-1.78a4.13,4.13,0,0,0-3.51,4.41c-3.08-2.05-6.21,0-6.65,1.87-.32,1.38-.12,2.58-1.12,3.77s-3.09,1.16-3.59,0c-.48,2,.18,3.53,2.34,3.59a4.48,4.48,0,0,0-.85,3.74,4.11,4.11,0,0,0,3.5,3.12,7.2,7.2,0,0,0,.73,3.1,7.28,7.28,0,0,0,2.36,2.48c3.14,1.8,6.71,2.58,10.16,3.57l4.1,1.18c.24.07,1.5.24,1.63.47Z" style="fill:#263238"></path><path d="M445.53,169.84a4.29,4.29,0,0,1-5.2-.55l-.88,14.58c-2.89,6-13.62,6.29-17.36,4.23s-3.07-4.31-.29-7.61l-.09-2.4a42.72,42.72,0,0,1-5.23-.64c-3.43-.73-5.82-3.74-6.52-7.56a38.92,38.92,0,0,1,.7-14.89,13,13,0,0,0,.46-3.62,17.13,17.13,0,0,1,1.67-7.72c4-2.77,12.93-3.15,20.77,2.47-1.32,4.81.28,8.83,3.7,11-.27,1.31-.69,4.63,1.49,4.73,1.56.08,1.82-1.88,3.55-3.48s5.52-1.79,6.78.87C450.83,162.93,449.08,168.07,445.53,169.84Z" style="fill:#ffa8a7"></path><path d="M432.84,154.18,443,157.82a4.23,4.23,0,0,0-1.63,1.56l-8.92-2.79Z" style="fill:#263238"></path><path d="M408.5,150.71c-.14,1,.4,1.36.47,2.12a26.18,26.18,0,0,0,0,4.14,4.24,4.24,0,0,0,3.65,3.62,4.53,4.53,0,0,0,5.15-2.12c1-1.38,1.05-3.54,2.39-3.32s.8,2.36,1.29,4a5.16,5.16,0,0,0,4.47,4,4.59,4.59,0,0,0,3.75-.68c1.62-1.19,1.95-3.53,2.57-5.15.29-.8,1-.85,1.2-1.84s-.53-1.44-1.32-1.6a22.08,22.08,0,0,0-7.12-1.15c-2.37.24-3.29.83-4.54.6s-1.79-1.12-3.79-2.2a20.41,20.41,0,0,0-7.25-1.53C409.1,149.59,408.59,150.08,408.5,150.71Zm14.57,4a2,2,0,0,1,.74-.42l.13,0a8.7,8.7,0,0,1,3.41-.32c2.2.2,3.47,1,3.89,1.49.51.84-.33,3.28-.83,4.42v0c-.06.13-.14.27-.22.41h0l-.14.22c-1.33,2.51-5.58,1.9-6.86-.27h0C422.22,158.62,422.23,155.88,423.07,154.71Zm-12.59-3.29a1.84,1.84,0,0,1,.61-.25h0a3.2,3.2,0,0,1,.54-.09h.11c2-.21,5.4,1.23,6.06,2.64.35.91-.24,2.79-.84,4a4.19,4.19,0,0,1-.61.84c-.87,1.24-3.71,1.51-5.18.29s-1.41-2.95-1.41-3.81C409.79,153.88,409.93,151.78,410.48,151.42Z" style="fill:#37474f"></path><path d="M421.21,157l-2.46,8.14-5-3.12c.24-.3.5-.6.74-.91.12-.15.25-.3.36-.46l.75-.92c.66-.81,1.33-1.6,1.95-2.3A17.53,17.53,0,0,1,419,156h0c.28-.26.56-.49.78-.66a2,2,0,0,1,.26-.18h.18C421,155.3,421.13,156.05,421.21,157Z" style="fill:#f28f8f"></path><path d="M421.71,178.09c5.54-.24,9.76-.52,12.92-4.28a34.59,34.59,0,0,0,3.8-6.26,26.91,26.91,0,0,1-3,8c-1.58,2.44-5,4.43-13.68,4.52Z" style="fill:#f28f8f"></path><path d="M424.11,157.28a1.57,1.57,0,0,0,1.34,1.78,1.59,1.59,0,0,0,1.74-1.41,1.55,1.55,0,1,0-3.08-.37Z" style="fill:#263238"></path><path d="M426.58,150.79l3.46,1.53a2,2,0,0,0-1-2.56A1.85,1.85,0,0,0,426.58,150.79Z" style="fill:#263238"></path><path d="M425.13,166.89,419.88,168a2.82,2.82,0,0,0,3.29,2.11A2.62,2.62,0,0,0,425.13,166.89Z" style="fill:#b16668"></path><path d="M421.69,170a3.18,3.18,0,0,1,3.51-2.37,2.6,2.6,0,0,1-2,2.48A2.74,2.74,0,0,1,421.69,170Z" style="fill:#f28f8f"></path><path d="M412.62,149.63l3.82-.14a1.84,1.84,0,0,0-1.91-1.85A2,2,0,0,0,412.62,149.63Z" style="fill:#263238"></path><path d="M412.31,155.14a1.55,1.55,0,1,0,1.61-1.55A1.57,1.57,0,0,0,412.31,155.14Z" style="fill:#263238"></path></g></g></g><g id="freepik--arm--inject-9"><path d="M390.31,246.51a25.44,25.44,0,0,0-9.92-1.12c-3.78.22-6.74-.81-7.28-.62-2,.71-.74,4.08,4.09,4.62C380.91,249.81,390.31,246.51,390.31,246.51Z" style="fill:#f28f8f"></path><path d="M440.56,258.3c-8.57,1.27-34,2.34-35.24,2.59-.51.11-2.8.48-3.39.58-1.27.21-2.5.47-3.77.66a11.52,11.52,0,0,1-2.2.16,28.83,28.83,0,0,1-5.11-1,9.37,9.37,0,0,0-4.11-.24c-1.69.3-3.35.7-5,1.08a6.69,6.69,0,0,1-4.08-.21,13.68,13.68,0,0,1-1.3-.74,7.55,7.55,0,0,0-2.05-.42,2.72,2.72,0,0,1-1.43-.77c-.2-.24-.26-.64-.51-.85a2.49,2.49,0,0,0-1.35-.33,9.85,9.85,0,0,1-2.1-.39c-.91-.31-2.21-1-1.95-2.12.11-.53.53-.72,1-1,.75-.52,1.55-1,2.26-1.6,1.64-1.35,3.5-2.42,5.14-3.76a10,10,0,0,1,5-2c1.93-.31,3.84-.78,5.79-1,1.59-.18,3.12-.78,4.74-.39,3.93.94,7.91,2.76,12,2,6-1.14,32.48-8.32,32.48-8.32l6.39-24.07s4.46-21.55,11.24-27.9c4.9,1.85,9.33,5.57,10.78,10.58,1.72,5.91-.07,11.06-3.44,25.39-2.56,10.86-3.1,11.85-6,22.05C451.91,254.68,451.05,256.75,440.56,258.3Z" style="fill:#ffa8a7"></path><path d="M452.64,187.63c5.12,2.36,10.74,5.55,12.1,13.81s-6.44,33.41-6.44,33.41a31.29,31.29,0,0,1-11.79-1.49c-7-2.1-8.54-5.29-8.54-5.29s2.37-10.91,3.73-16S445.82,193.87,452.64,187.63Z" style="fill:#0EA2BD"></path></g><path d="M366.53,290.89a4,4,0,0,1-3.48-.27l-59.41-34.3a4,4,0,0,1-2-2.82l-6.51-38.79a4.89,4.89,0,0,1-.05-.66,4.06,4.06,0,0,1,1.19-2.87l61.74,35.65a3,3,0,0,1,1.45,2.09Z" style="fill:#37474f"></path><path d="M367.49,290.39l-.4.23a5.77,5.77,0,0,1-.56.27l-7-42a3,3,0,0,0-1.45-2.09l-61.74-35.65a4,4,0,0,1,.83-.63L359,246.27a3,3,0,0,1,1.45,2.09Z" style="fill:#455a64"></path><path d="M358.93,247.62l1-.55a2.94,2.94,0,0,1,.56,1.29l7,42-.4.23a5.77,5.77,0,0,1-.56.27l-7-42A2.93,2.93,0,0,0,358.93,247.62Z" style="fill:#263238"></path><path d="M333.07,255.09c-.43-2.6-3.11-6.05-6-7.71s-4.85-.89-4.42,1.7,3.12,6,6,7.71S333.51,257.68,333.07,255.09Z" style="fill:#0EA2BD"></path></g></g><g id="freepik--character-1--inject-9"><g id="freepik--character--inject-9"><g id="freepik--bottom--inject-9"><g id="freepik--bottom--inject-9"><polygon points="101.47 401.65 104.86 400.03 101.53 399.09 101.47 401.65" style="fill:#263238"></polygon><path d="M135,408S95.17,390,94.65,392.61a3.9,3.9,0,0,0,0,1.6l-.11-.15.71,5a12,12,0,0,0,6.21,2.62c0-.24,0-1.72.06-2.56A20.38,20.38,0,0,1,105,401c2.55,1.69,4.18,4.63,6.88,8.06,2,2.49,5.49,3.67,10.73,4.44,5.63.83,10.6-.21,12-1.69C135.78,410.59,135.24,408.39,135,408Z" style="fill:#263238"></path><path d="M133.94,407.11c-.38-.4-1.8-2-3.71-3.66-1.68-1.49-3.64-3.37-5.74-4.9a22.8,22.8,0,0,1-2.85-2.35,28.9,28.9,0,0,1-2-2.33,42.44,42.44,0,0,1-4.78-8.11,18.6,18.6,0,0,1-1.65-4.26,26.74,26.74,0,0,1-.44-4.72c0-7.13.16-8.26.23-13.68l-16.91.44c.54,3,1.35,7.12,1.62,10.54.41,5.2.54,6.35-1.54,11.52-.62,1.52-1.53,3-1.62,4.62-.14,2.66,2,5,4.31,6.28,2,1.09,4.2,1.57,6.1,2.73a19.54,19.54,0,0,1,4.94,4.87c1.34,1.7,2.4,3.72,4.29,4.93a17.74,17.74,0,0,0,6.5,2.27,35.3,35.3,0,0,0,8.75.49C133.62,411.5,136.72,410,133.94,407.11Z" style="fill:#b16668"></path><path d="M131.67,404.2c-1.71-1.45-4.14-3.51-7.08-5.84a7.59,7.59,0,0,0-6.2.52c-6,3-7,7.41-7,7.41a8.46,8.46,0,0,0,4.82,4.22c6.84,3,19.14,2.15,19.28-1C135.57,407.55,133.75,406,131.67,404.2ZM96.58,384.48a33.32,33.32,0,0,1-1.46,3,5.56,5.56,0,0,0,0,6,9.15,9.15,0,0,0,6,4.08C103.07,391.69,99,385.77,96.58,384.48Z" style="fill:#37474f"></path><path d="M64.05,389.81c1.1,1.79-.29,8.52,0,13.31.24,4.36,1.42,11.95.12,16.25-1.55,5.09-4.72,11-10.67,6.19-3.69-3-5.81-6.81-6.34-13.08-.37-4.36,1.33-10.38,2.78-15.71,1.7-6.24,2.35-9.57,2.35-9.57Z" style="fill:#263238"></path><path d="M52.1,357.59c-.43,10.16.77,17.3.84,23.81a45.12,45.12,0,0,1-.94,8.79c-.87,4.15-2.35,9.92-3,12.61-.86,3.76-1.52,6.13-.2,10.35a4.81,4.81,0,0,0,.44,1c1.84,3.48,6.54,6.1,8,5.68a2.62,2.62,0,0,0,2.65.91,2.42,2.42,0,0,0,.5-.12,4,4,0,0,0,.5-.2,5,5,0,0,0,2.5-3.19,7.7,7.7,0,0,0,.24-.92,38.22,38.22,0,0,0,.5-10.79c0-2.82,0-5.56.24-9.37s.83-15.48,2.18-21.2c1-4,2.25-9,3.57-14.35Z" style="fill:#b16668"></path><path d="M48.12,407.7c3.7-1.61,14.45-1.83,16.16,3.31,0,4.83.08,8.11-3,12.32-4.14,5.59-9.53-.34-11.6-4.1S47.61,410.3,48.12,407.7Z" style="fill:#37474f"></path><path d="M66.12,224.85c-5.24,9.22-9.46,17-10.82,41.32-1.54,27.47-1.31,37.93-1.45,41.25s-2.31,9.39-4.16,25.72.1,55.9.1,55.9,1.31,2.67,7.67,3.27c5.87.56,9.31-1.46,9.31-1.46s9.33-52,11.62-61.79,9-42.13,9-42.13l2.21,30.83s-1.86,9-.17,23.35,6,41.44,6,41.44,2.5,2.48,10.17,2.33c8.16-.16,9.86-2.38,9.86-2.38s1.83-58.29,2-74.53,1.08-58.41-4-82.49Z" style="fill:#455a64"></path><path d="M92.88,255.74,87.4,286.93l2.21,30.83V286.59L94.49,261c4-.91,13.1-5.54,15.65-12.23C103.94,255,92.88,255.74,92.88,255.74ZM74.37,237.35c.73-2.62,1.49-5.22,2.34-7.84a38.19,38.19,0,0,0-3.64,7.43,72.59,72.59,0,0,0-2.46,7.88c-.65,2.67-1.19,5.37-1.57,8.09a51.14,51.14,0,0,0-.61,8.21c.68-2.67,1.32-5.32,2-8s1.26-5.29,1.94-7.92S73.66,240,74.37,237.35Zm-4-2c.91-1.59,1.83-3.19,2.67-4.88a30.49,30.49,0,0,0-3.82,4.14,41.62,41.62,0,0,0-3.11,4.67,35.63,35.63,0,0,0-2.37,5.09,21.2,21.2,0,0,0-1.32,5.44l2.58-4.9c.87-1.6,1.74-3.21,2.65-4.79S69.48,237,70.38,235.35ZM66.28,339.6q-2.41,12.66-4.5,25.39,3.09-12.53,5.85-25.12c1.87-8.4,3.62-16.78,5.37-25.24s2.76-17,3.67-25.56,1.62-17.12,2.21-25.69c-1.27,8.5-2.41,17-3.57,25.53s-2.38,17-4,25.4S67.87,331.16,66.28,339.6ZM110,297.74c.15,3.72.35,7.47.26,11.15s.07,10.8-.15,14.53c0,0-.22,21.95.44,30.27,1-7.43,1.15-37.23,1.47-44.76,0-7.57-.57-15-1.19-22.48s-1.51-14.91-2.63-22.32l1.26,22.41C109.67,290.27,109.89,294,110,297.74Z" style="fill:#37474f"></path></g></g><g id="freepik--top--inject-9"><path d="M69.92,132.58c-.07.35-1.12,1-1.41,1.37a13.27,13.27,0,0,0-1.68,2.12,11.16,11.16,0,0,0-1.46,5.41,16.92,16.92,0,0,0,2.34,8.31,50.25,50.25,0,0,0,5.05,7.1l4.7,5.86a2.24,2.24,0,0,0,2.67,1.08c2.45-.37,4.9-.78,7.33-1.23a35.17,35.17,0,0,0,6.64-1.7,19,19,0,0,0,8.73-7.12c1-1.44,2.26-3.48,2.44-5.25.08-.8-.3-1.49-.1-2.32a17.8,17.8,0,0,1,1.53-2.89,14.66,14.66,0,0,0,1.52-7.32c-.48-5.2-3.69-11.94-13.23-13.87C87,120.52,71.85,122.25,69.92,132.58Z" style="fill:#263238"></path><path d="M189.33,184.5a4.82,4.82,0,0,0-2.8-.53,31.69,31.69,0,0,0-4.5,1.08c-2.3.53-6,1.4-8.3.67-.47-.15-1.39-.59-.59-1a19.86,19.86,0,0,0,3.08-1.66,4.1,4.1,0,0,0,1.81-2.84,1.37,1.37,0,0,0-.24-1c-.31-.39-.63-.28-1-.14a10.32,10.32,0,0,1-1.21.33l-2.52.64c-4.88,1.27-9.88,3-13.54,6.52-.53.52-1.72,2.2-7.16,5.34-5.21,3-18.58,10.53-18.58,10.53S124,190,120.59,185.64c-6-7.75-7.79-9.94-16.07-11.37L107,200.14S119.88,215,124.4,218.52c6.19,4.85,7.87,4.37,12.87,1.39,6.55-3.88,9.18-6.33,14.39-10.75,6.33-5.37,8.57-7.18,10.65-8.69s5.24-1.54,6.79-1.59a23.52,23.52,0,0,0,6.35-.89,21.73,21.73,0,0,0,5.23-2,6.72,6.72,0,0,0,2.23-1.53,18.56,18.56,0,0,1,1-2c.56-.68,1.43-1.08,1.91-1.81a8.1,8.1,0,0,0,.67-1.94c.34-1,1.17-1.47,2.1-1.94a3.37,3.37,0,0,0,1.24-.84C190.3,185.31,189.89,184.83,189.33,184.5Z" style="fill:#b16668"></path><path d="M133.79,202.45c-4.65,2.68-6.58,6.34-6.76,9.6-1.88-7.18,5.62-11.06,5.62-11.06Z" style="fill:#9a4a4d"></path><path d="M170.54,187a15.36,15.36,0,0,1-6.95,5,6.53,6.53,0,0,0,4.39-.89A5.82,5.82,0,0,0,170.54,187Z" style="fill:#9a4a4d"></path><path id="freepik--chest--inject-9" d="M60.94,237.42c-3.06-2.48.69-3.52,1.78-18.61.29-3.89-2.24-15.92-2.24-15.92s5.74-8.41,3.42-27.19L76,172.79l18.12-.27,10.42,1.75a68.13,68.13,0,0,1,9.64,11.38c5,7.33,4.59,16.75-.86,22.58a113.41,113.41,0,0,0,.25,13.5c.68,6.27,4.17,12.37.53,15.47C103.44,246.24,75.37,246.87,60.94,237.42Z" style="fill:#0EA2BD"></path><path id="freepik--chest--inject-9" d="M60.94,237.42c-3.06-2.48.69-3.52,1.78-18.61.29-3.89-2.24-15.92-2.24-15.92s5.74-8.41,3.42-27.19L76,172.79l18.12-.27,10.42,1.75a68.13,68.13,0,0,1,9.64,11.38c5,7.33,4.59,16.75-.86,22.58a113.41,113.41,0,0,0,.25,13.5c.68,6.27,4.17,12.37.53,15.47C103.44,246.24,75.37,246.87,60.94,237.42Z" style="fill:#fff;opacity:0.6000000000000001"></path><g id="freepik--head--inject-9"><g id="freepik--head--inject-9"><g id="freepik--head--inject-9"><path d="M73.75,159.26a6,6,0,0,1-5.35-2c-2.82-3-3.08-6.14-1.77-8.2,1.08-1.7,3.73-2.78,5.6-1.64S74.29,149.66,75,151s2.69.3,2-5.26c3.86-1.79,3.24-8.16,5.33-10.76,3.27-4.07,8.66-3,10.42-2.06a7.15,7.15,0,0,1,7.34-.47c2.61,1.37,4.34,4.25,5.26,14.14.94,10.08,0,15.26-3,18a12.4,12.4,0,0,1-8.5,3.2l.14,4.69s10.32,9.79-3,8.83A20.92,20.92,0,0,1,76,173L76,157.68S75.73,158.9,73.75,159.26Z" style="fill:#b16668"></path><path d="M95.59,157.47a3,3,0,0,1-3.49,2.29,2.91,2.91,0,0,1-2.33-3.42Z" style="fill:#9a4a4d"></path><path d="M89.75,157.29a2.92,2.92,0,0,0,2.35,2.47,3.09,3.09,0,0,0,1.05,0A3,3,0,0,0,89.75,157.29Z" style="fill:#f28f8f"></path><path d="M102.57,140.31l-3.84-1.25a2,2,0,0,1,2.5-1.3A2.07,2.07,0,0,1,102.57,140.31Z" style="fill:#263238"></path><path d="M88.39,139.2l-3.81,2a2,2,0,0,1,.79-2.86A2.3,2.3,0,0,1,88.39,139.2Z" style="fill:#263238"></path><path d="M86.82,146.4a1.58,1.58,0,1,0,1.57-1.58A1.57,1.57,0,0,0,86.82,146.4Z" style="fill:#263238"></path><circle cx="101.07" cy="145.92" r="1.58" style="fill:#263238"></circle><path d="M107.41,141.35l-.76-.06a23.25,23.25,0,0,0-7.53.57c-2.36.8-3.16,1.62-4.49,1.69s-2.39-.69-5-1.27a26.63,26.63,0,0,0-8.09.12l-.8.12a1.19,1.19,0,0,0-.81,1.32,2.87,2.87,0,0,0,.87,1.45,2,2,0,0,1,.31.59,25,25,0,0,0,1.26,4.05,5.46,5.46,0,0,0,1.13,1.43,5.75,5.75,0,0,0,.56.41l.32.18a4.62,4.62,0,0,0,.93.37l.16,0,.24.06.26.05a6.54,6.54,0,0,0,.81.08h.77c3.31-.14,4.6-1.7,5.31-3.29s.36-3.78,1.89-3.84h.15l.13,0c1.15.2,1.15,2.22,2,3.64a6.14,6.14,0,0,0,1.19,1.53l.27.24.15.11.15.1.14.09.15.09.11.06.09,0a5.1,5.1,0,0,0,1.35.45l.12,0a7.71,7.71,0,0,0,1.63.08,4.5,4.5,0,0,0,4.48-3.05,23.92,23.92,0,0,0,.67-4.14,1.22,1.22,0,0,1,.25-.55,2.69,2.69,0,0,0,.6-1.54A1.29,1.29,0,0,0,107.41,141.35Zm-15.5,6.49a4.39,4.39,0,0,1-1,2.22h0a4.65,4.65,0,0,1-3.53,1.39A4.22,4.22,0,0,1,83.79,150l-.12-.15-.11-.15-.09-.14-.08-.13a.27.27,0,0,1-.06-.1l-.06-.09a1.19,1.19,0,0,0-.08-.16h0c-.08-.15-.14-.3-.2-.44v0c0-.09-.07-.18-.1-.26s-.1-.31-.14-.44l0-.08a.24.24,0,0,1,0-.08c-.33-1.07-.78-3.19-.24-3.7s2-1.07,4.49-1h.26a11.08,11.08,0,0,1,1.14.14l.45.08a11.42,11.42,0,0,1,1.12.29l.34.12.38.15.07,0,.14.06a2.29,2.29,0,0,1,.78.54C92.16,145.21,92.1,146.62,91.91,147.84Zm14.35-1.09a4.48,4.48,0,0,1-2.09,3.58,4.37,4.37,0,0,1-1.81.46,4.22,4.22,0,0,1-3.8-1.46v0l-.07-.09-.09-.12,0-.06-.1-.16a2,2,0,0,1-.11-.2l-.06-.09s0,0,0-.06l0-.08,0-.06a4.94,4.94,0,0,1-.29-.8c-.34-1.2-.57-2.6-.15-3.28s2.19-1.5,3.93-1.79c.4-.06.78-.1,1.13-.13h1l.31,0a5.07,5.07,0,0,1,.58.08l.13,0h0l.09,0,.14,0,.17,0,.27.09,0,0a2.25,2.25,0,0,1,.63.34C106.59,143.51,106.43,145.66,106.26,146.75Z" style="fill:#37474f"></path><path d="M100.15,152.39l-5.63,2.4-1.21-7.11c.21-1.06.42-2.15,1.34-2.24Z" style="fill:#9a4a4d"></path><path d="M80.91,143.35l-8.68,4.08a9.23,9.23,0,0,1,1.34,1.06l7.57-3.37Z" style="fill:#37474f"></path></g></g><path d="M94,167.83c-5.2-.19-12.18-2-14-5.3,1,3.55,4.71,5.39,7.63,6.2a30.81,30.81,0,0,0,6.38,1.08Z" style="fill:#9a4a4d"></path></g><g id="freepik--arm--inject-9"><path d="M94.38,200c3.32-2.2,5-3,6.49-3.39s6.86-2.26,8.89-2.66c1.29-.25,1.72,1.76,0,3.06-1.3,1-4.61,2.24-6.07,2.94s-4.42,3.92-4.42,3.92Z" style="fill:#9a4a4d"></path><path d="M49.25,185.77c3.47-6.52,9.21-8.63,14.65-10.07,2.76,7.05.4,21.87.4,21.87L60.08,213.7s18.92-1.84,21.15-3.1,8.33-7.15,10.36-8.91c2.77-2.39,4.07-2,5.42-1.73,4.39.85,5.35,1.26,6.26,1.88a2,2,0,0,1,.78,1.73c1.17.2,2.93.24,3.07,2.14a5.19,5.19,0,0,1,0,1.52,1.32,1.32,0,0,1,.74.47c.93,1.15-.92,4.93-2,5.82a3.88,3.88,0,0,1-3.23.41c-1.19-.21-.58-1.38-.58-1.38l-1.67,0c-3.71,2.35-4.11,7.31-8.92,8.2a32.31,32.31,0,0,0-5.86.84C75.19,224.54,58,234,48.79,234.4c-8.94.36-8.48-4.29-8.38-9.65C40.5,220,45.78,192.26,49.25,185.77Z" style="fill:#b16668"></path><path d="M60.54,211.89l-.46,1.81c-4.1.85-9.1,5.89-10.17,8C50.82,218.31,53.32,213.44,60.54,211.89Z" style="fill:#9a4a4d"></path><path d="M104.05,203.57l-5.21-1.27,5.13.55A2,2,0,0,1,104.05,203.57Z" style="fill:#9a4a4d"></path><path d="M107.13,207.23l-6-1,6,.35A3.18,3.18,0,0,1,107.13,207.23Z" style="fill:#9a4a4d"></path><path d="M101.57,211.67a2.39,2.39,0,0,0,.81-1.11,20.78,20.78,0,0,0,2.11,0,5.77,5.77,0,0,0,.82-.2,2.19,2.19,0,0,0,.9-.51,1.88,1.88,0,0,1-.84.66,3.45,3.45,0,0,1-.92.27l-.38.72a1.2,1.2,0,0,1,.61.26,1.62,1.62,0,0,1,.5.8,1.92,1.92,0,0,0-.59-.67,1.22,1.22,0,0,0-.8-.18,2.59,2.59,0,0,0-1.76.89l-1.67,0A11.61,11.61,0,0,0,101.57,211.67Z" style="fill:#9a4a4d"></path></g></g></g></g></svg>
