<svg xmlns="http://www.w3.org/2000/svg" viewBox="0 0 500 500"><g id="freepik--Floor--inject-21"><polygon points="47.74 453.01 98.3 452.77 148.87 452.68 250 452.51 351.13 452.68 401.7 452.76 452.26 453.01 401.7 453.25 351.13 453.34 250 453.51 148.87 453.34 98.3 453.25 47.74 453.01" style="fill:#263238"></polygon></g><g id="freepik--character-1--inject-21"><path d="M60.7,452.21c2.14.73,63.46.87,65.8-.61.9-.55,1.44-9.48,1.78-20.3,0-.11.54-40,.54-40l-40.49-.44.4,39.53v.68s-23.5,10.44-25.9,12.34S58.56,451.5,60.7,452.21Z" style="fill:#f7a9a0"></path><path d="M78.46,435.07a.61.61,0,0,0,.24-.12Z" style="fill:#0EA2BD"></path><path d="M128,438c-.34,7.59-.83,13.16-1.53,13.59-2.34,1.48-63.66,1.34-65.8.61s-.24-6.87,2.14-8.76c1.52-1.2,11.47-5.82,18.58-9.05-6,3.22-13.34,6.46-8.6,7.29S109.59,442.37,128,438Z" style="fill:#263238"></path><path d="M150.13,213.62s-21.33,107.12-22.83,115c-.25,1.27,5.38,44.21,5.66,68.13a29.21,29.21,0,0,1-4.5,16.34L86.18,415s-4.64-6.26-4.74-12.7c-.32-20.69,3.74-63.5,5.2-75.54,1.91-15.81,26.07-113.16,26.07-113.16Z" style="fill:#263238"></path><path d="M126.2,405.28c-6.74.09-4.81,0-11.55.13-3.3.08-25,.63-28.05,1.24-.07,0-.07.13,0,.14,3.1.41,24.78-.52,28.07-.66,6.74-.3,4.8-.29,11.54-.66A.1.1,0,1,0,126.2,405.28Z" style="fill:#37474f"></path><path d="M121.77,329c.48-5.89,1.82-11.74,2.93-17.54s2.26-11.9,3.39-17.86c2.24-11.78,4.43-23.57,6.69-35.35,2.56-13.31,6.2-26.33,8.89-39.61.07-.31.52-.17.47.14-4.18,23.63-9.73,46.9-14.19,70.48l-3.39,17.85c-1.1,5.8-2.33,11.6-3.28,17.43a48.35,48.35,0,0,0-.65,9.15c.08,2.89.38,5.77.64,8.64q.84,9.06,1.64,18.11.87,10,1.72,19.93c.57,6.75,1.2,13.51,1.54,20.28a.08.08,0,0,1-.16,0c-1.58-11.91-2.52-23.93-3.66-35.89q-.85-9.06-1.68-18.12C122.14,340.78,121.3,334.84,121.77,329Z" style="fill:#37474f"></path><path d="M117.17,213.62l13.32,98.78c6.34-32,19.64-98.78,19.64-98.78Z" style="fill:#37474f"></path><path d="M131.11,454.88c2.2.51,63.24-5.43,65.42-7.14.83-.63.49-9.57-.24-20.37l0-.34c-.15-2.22-.31-4.51-.5-6.83,0-.32,0-.64-.07-1L192,387.34l-40.84,3.86,4.75,31.51L156,424l.8,6.48.08.67S134.58,443.82,132.38,446,128.91,454.38,131.11,454.88Z" style="fill:#f7a9a0"></path><path d="M147.08,436.06c.14-.06.22-.11.23-.14Z" style="fill:#0EA2BD"></path><path d="M196.53,447.74c-2.18,1.71-63.22,7.65-65.42,7.14s-.91-6.81,1.27-8.93c1.42-1.38,11.26-7.18,18-11.11-5.35,4.22-11.89,8.66-7.1,8.64s35.67-5.71,53.16-13.13C197.07,439.77,197.28,447.17,196.53,447.74Z" style="fill:#263238"></path><path d="M155.18,418.73l41.08-4.56s4-10.79,1.53-21c-5.2-21.62-20-54.86-21-58.66-1.61-5.81-5.2-52.62-8.68-81.55,0,0,6.61-15.67-5.76-39.33H112.67s3.32,22.51,9,36.79c0,0-1.06-.8,5.64,2.89,0,0,4.11,73.51,7.11,87.43,2.48,11.48,6.8,48.31,11.93,66.92C148.18,414.2,155.18,418.73,155.18,418.73Z" style="fill:#263238"></path><path d="M193.49,405.13c-6.72.62-4.8.35-11.51,1-3.28.35-24.85,2.61-27.86,3.47-.07,0-.05.13,0,.13,3.13.16,24.66-2.48,27.93-2.88,6.7-.83,4.77-.67,11.45-1.57A.1.1,0,1,0,193.49,405.13Z" style="fill:#37474f"></path><path d="M119.81,249.4a82.29,82.29,0,0,1,12.91,6,.14.14,0,0,1-.12.26c-4.35-1.86-8.79-3.65-13-5.76A.29.29,0,0,1,119.81,249.4Z" style="fill:#37474f"></path><path d="M118.42,219.54c0-.15.28-.18.28,0a142.36,142.36,0,0,0,.73,14.54c.2,2.24,2,14.63,5.89,13.73.65-.15,1-.79,1.08-1.78a15.43,15.43,0,0,0-.51-3.79c-.43-2.6-.78-5.2-1-7.82a70.33,70.33,0,0,1,.16-14.65.13.13,0,0,1,.25,0A134.08,134.08,0,0,0,126.48,240c.49,3.22,2.11,8.07-1.26,8.57s-5.65-7.62-6.07-9.84A74.21,74.21,0,0,1,118.42,219.54Z" style="fill:#37474f"></path><path d="M125.21,248.12a19.47,19.47,0,0,1,.88,2.57,5.65,5.65,0,0,1,.36,2.11c0,.14-.19.15-.27.06a7.45,7.45,0,0,1-.9-2.06c-.3-.79-.61-1.58-.88-2.38A.43.43,0,0,1,125.21,248.12Z" style="fill:#37474f"></path><path d="M159.07,216a41.61,41.61,0,0,1,5.45,15,46.34,46.34,0,0,1-.52,16.1,35.64,35.64,0,0,0-.72,9.44c.23,3.23.66,6.45,1,9.67q1.06,9.47,2.11,18.92c1.39,12.57,2.67,25.16,4.32,37.7a155.26,155.26,0,0,0,3.46,18.25c1.52,5.94,3.33,11.79,5.15,17.65,3.74,12.06,7.51,24.13,11.11,36.24.45,1.52.89,3,1.32,4.55a.1.1,0,0,1-.2.05c-4.07-11.9-7.67-24-11.44-36-3.69-11.73-7.43-23.43-9.35-35.6-1-6.2-1.64-12.44-2.35-18.67s-1.43-12.61-2.14-18.92-1.43-12.49-2.12-18.74c-.34-3.15-.69-6.31-1-9.46a65.94,65.94,0,0,1-.65-9.09,69.14,69.14,0,0,1,1.31-8.93,41.53,41.53,0,0,0,.48-8.26,43.09,43.09,0,0,0-3.85-16.05c-.57-1.24-.89-2.53-1.56-3.71C158.67,215.86,158.87,215.66,159.07,216Z" style="fill:#37474f"></path><path d="M144.43,218.1c.79,2.1,1.7,4.16,2.67,6.19a15.64,15.64,0,0,0,3.3,5,12.49,12.49,0,0,0,5,2.54,26.18,26.18,0,0,0,3.25.71,22.84,22.84,0,0,1,3.3.61.22.22,0,0,1,0,.42,15.06,15.06,0,0,1-3.55.1,21.71,21.71,0,0,1-3.4-.46,12.35,12.35,0,0,1-5.5-2.81,14.7,14.7,0,0,1-3.36-5.48,37.12,37.12,0,0,1-2-6.77A.15.15,0,0,1,144.43,218.1Z" style="fill:#37474f"></path><path d="M107.61,181.13l3.57.24a9.83,9.83,0,0,1,1-2.66c1.82-3.24,5-5.64,7.54-8.13,0,0,0,0,0,0a33,33,0,0,0-6.24,8.8,9.08,9.08,0,0,0-.67,2.07l2.23.15a13.38,13.38,0,0,1,2.47-5.82c0-.05.12,0,.08.09a12.91,12.91,0,0,0-1.75,5.79l19.33,1.26a33.15,33.15,0,0,0,1.12-5.22c0-.2.31-.15.28.06a44.65,44.65,0,0,1-.9,5.19l1.61.1a35.61,35.61,0,0,0,.65-9.09.07.07,0,1,1,.14,0,42.48,42.48,0,0,1,0,9.16l13.38.88a37.73,37.73,0,0,1-1.24-6.12c0-.17.22-.2.25,0a28.1,28.1,0,0,0,1.77,6.19l2,.13a31.39,31.39,0,0,1-1.82-10.83.13.13,0,0,1,.25,0c.07,4,1.66,7.47,3.24,10.93l5,.33c-1.42-3.23-4.15-6.31-4.2-10,0-4.08,3.86-5.6,5.33-8.87,2.47-5.49.05-10-3.15-14.27-2.93-3.95-2.15-8-2.47-12.68a29.69,29.69,0,0,0-2.26-10.39,15.73,15.73,0,0,0-14.43-9.28,12.3,12.3,0,0,0-6.6,1.24h0a2.82,2.82,0,0,0-.41.23,16.27,16.27,0,0,0-5.77,5.56v0a22.91,22.91,0,0,0-1.33,2.29,44.29,44.29,0,0,0-1.79,5.78,1,1,0,0,1,0,.13,17.32,17.32,0,0,1-7.76,10C110.27,148,111,154.82,114.57,162c1.5,3,1.37,4.86.47,6.34,0,0,0,0,0,0-.13.2-.25.37-.39.56-1.23,1.61-3.28,2.91-4.84,5.12A13.76,13.76,0,0,0,107.61,181.13Z" style="fill:#263238"></path><path d="M148.11,121.37a17.28,17.28,0,0,1,7.25,11c.72,3.6.41,7.4,1.5,10.92,1,3.33,3.19,6,4.84,9,2.18,3.92,3.32,8.55.72,12.46-1.62,2.42-4.85,4.64-5.07,7.93-.25,3.84,2.65,7.9,4.07,11.25.07.17-.17.31-.25.15-2-3.84-5.72-9-3.76-13.53.9-2.07,2.51-3.55,3.85-5.25,2.6-3.3,2.57-7.15.82-11-2.37-5.25-5.88-8.86-6.5-14.94-.36-3.47-.28-7-1.64-10.26a17.39,17.39,0,0,0-5.95-7.49C147.88,121.5,148,121.29,148.11,121.37Z" style="fill:#263238"></path><path d="M111.47,173.25c1.69-1.85,3.66-3.13,3.23-6.26-.3-2.17-1.55-4.14-2.34-6.13-2-5-2.7-11,.34-15.52,1.72-2.56,4.18-3,6.42-4.72,2.72-2.14,4.06-5.74,5.25-9.06,1.79-5,4-10.65,9.43-11.24a0,0,0,0,1,0,.09c-7,1.18-8,9.83-10.66,15.59a13.67,13.67,0,0,1-3.72,5.1c-2.59,2-5.5,2.49-7.13,5.91a15.72,15.72,0,0,0-.63,10.43c.74,3,2.45,5.65,3.14,8.65a6.13,6.13,0,0,1-.7,5.07c-.82,1.16-2.07,1.86-2.93,3a9.82,9.82,0,0,0-1.93,5.27c0,.2-.3.14-.28-.06A9.88,9.88,0,0,1,111.47,173.25Z" style="fill:#263238"></path><path d="M127.61,175c-9.49,20.3-23.09,41.13-31.52,41.58-1.46.08-7.34-.61-9.74-6.08-4-9.23-7.9-27.64-8.46-36.41-.25-3.88,25.84-7.87,26.65-3.78,1.12,5.72,1.74,11.87,2.35,11.8,1-.12,3.47-2.72,13.55-13.42C133,155.4,131.14,167.47,127.61,175Z" style="fill:#f7a9a0"></path><path d="M74.07,163.65c.67,5.47,6.43,16.1,8.8,18.13s20.78-7.15,21.41-10.29-3.08-21.37-7.11-25.29S73.37,158,74.07,163.65Z" style="fill:#f7a9a0"></path><path d="M104.19,168.27a45.81,45.81,0,0,1,5.22-12.21c2.94-4.42,7.79-10.66,5.47-12.32C110.12,140.32,98,155.88,98,155.88s-4.23,7.72.19,11.52A5.77,5.77,0,0,0,104.19,168.27Z" style="fill:#f7a9a0"></path><polygon points="89.09 163.7 82.37 160.14 92.68 140.65 101.2 145.16 89.09 163.7" style="fill:#0EA2BD"></polygon><polygon points="101.2 145.16 96.58 152.23 89.09 163.7 82.36 160.14 92.68 140.65 101.2 145.16" style="fill:#0EA2BD"></polygon><polygon points="101.2 145.16 96.58 152.23 88.75 148.08 92.68 140.65 101.2 145.16" style="opacity:0.1"></polygon><rect x="91.31" y="137.07" width="11.99" height="9.11" transform="translate(77.59 -29.07) rotate(27.9)" style="fill:#0EA2BD"></rect><polygon points="113.38 141.22 104.72 137.69 111.61 124.67 119.41 129.85 113.38 141.22" style="fill:#0EA2BD"></polygon><polygon points="108.74 119.85 98.57 139.06 83.88 133.41 45.52 128.22 69.96 82.06 95.81 110.88 108.74 119.85" style="fill:#0EA2BD"></polygon><ellipse cx="56.99" cy="104.75" rx="26.24" ry="8.44" transform="translate(-62.25 106.1) rotate(-62.1)" style="fill:#0EA2BD"></ellipse><path d="M62.92,107.38c-6,11.37-13.63,19.14-17,17.35s-1.23-12.45,4.8-23.82,13.63-19.14,17-17.35S68.94,96,62.92,107.38Z" style="opacity:0.2"></path><path d="M61.93,106.85c-.8,1.51-1.64,3-2.48,4.33a5.2,5.2,0,0,1-5.61-7.55L55,101.45a5.21,5.21,0,0,1,9.38.36C63.65,103.46,62.83,105.15,61.93,106.85Z" style="fill:#0EA2BD"></path><polygon points="105.45 144.07 88.69 137.24 102.03 112.05 117.1 122.07 105.45 144.07" style="fill:#0EA2BD"></polygon><polygon points="105.45 144.07 88.69 137.24 102.03 112.05 117.1 122.07 105.45 144.07" style="opacity:0.2"></polygon><path d="M70.45,86.37a16.31,16.31,0,0,1,0,5.87A36.68,36.68,0,0,1,69.1,98c-.28.94-.64,1.86-1,2.79s-.73,1.83-1.13,2.72-.8,1.8-1.24,2.68-.88,1.77-1.34,2.63a64.93,64.93,0,0,1-6.41,9.9A33.7,33.7,0,0,1,53.93,123a13.9,13.9,0,0,1-5.06,3,14.4,14.4,0,0,0,4.88-3.16,33.7,33.7,0,0,0,3.92-4.34,68.12,68.12,0,0,0,6.25-9.89,70.52,70.52,0,0,0,4.77-10.7,36.75,36.75,0,0,0,1.5-5.65A17.06,17.06,0,0,0,70.45,86.37Z" style="opacity:0.2"></path><path d="M54,76.35c.76,1.14,1.45,2.3,2.14,3.47s1.35,2.36,2,3.55S59.4,85.76,60,87l.89,1.84c.28.62.58,1.23.84,1.86-.39-.56-.74-1.15-1.11-1.72l-1-1.75c-.7-1.17-1.35-2.36-2-3.55s-1.28-2.39-1.88-3.61S54.5,77.61,54,76.35Z" style="fill:#263238"></path><path d="M49,116.5c-1.53-.09-3.06-.24-4.58-.41s-3-.37-4.56-.57-3-.45-4.54-.72L33,114.4c-.75-.16-1.51-.3-2.25-.48.76,0,1.53.12,2.29.18l2.29.23c1.52.16,3,.37,4.56.58s3,.44,4.53.71S47.46,116.16,49,116.5Z" style="fill:#263238"></path><path d="M23.76,102.75c2.19.52,4.37,1.11,6.54,1.7s4.33,1.23,6.49,1.87,4.31,1.3,6.45,2l3.21,1.05c1.06.37,2.13.72,3.19,1.11-1.1-.26-2.18-.55-3.28-.82l-3.26-.89c-2.17-.59-4.33-1.23-6.49-1.86s-4.31-1.31-6.45-2S25.88,103.51,23.76,102.75Z" style="fill:#263238"></path><path d="M41.87,72.91c1.45,1.77,2.85,3.58,4.23,5.39s2.75,3.65,4.11,5.48,2.68,3.7,4,5.57l1.95,2.82c.63,1,1.28,1.89,1.9,2.85-.73-.88-1.43-1.78-2.15-2.67l-2.09-2.72c-1.39-1.81-2.75-3.64-4.1-5.48s-2.68-3.7-4-5.57S43.11,74.83,41.87,72.91Z" style="fill:#263238"></path><path d="M53.17,102.49c-2.38-1.14-4.72-2.35-7.06-3.56s-4.66-2.48-7-3.71-4.62-2.54-6.92-3.84l-3.43-2c-1.13-.67-2.28-1.33-3.4-2,1.19.57,2.36,1.17,3.54,1.75L32.43,91c2.34,1.21,4.66,2.47,7,3.71s4.63,2.53,6.92,3.83S50.91,101.12,53.17,102.49Z" style="fill:#263238"></path><path d="M102.15,153.47c-1.19,2.66-3.65-.27-3.65-.27s2.52,5.07.23,7.34-5-1.46-5.26-1.72c.13.27,2.33,5-.21,7s-4.86-2-5-2.3c0,.3.56,4.18-1.72,5.3-3.92,1.91-5.51-8-8.45-9.93,0,0-3.87,4.61-4,4.72s-1.71-9.38,1.14-13.21a3,3,0,0,1,3.68-1s-.88-3,1.06-4.64c1-.86,3.26,0,3.26,0A3.8,3.8,0,0,1,84.43,141c1.45-1.11,3.49-.09,3.49-.09s.49-2.58,2.34-3.23C94,136.35,104.7,147.77,102.15,153.47Z" style="fill:#f7a9a0"></path><path d="M88.27,141s0-.1,0-.07a27,27,0,0,1,10.33,12.41c.07.16-.17.33-.27.17A55.68,55.68,0,0,0,88.27,141Z" style="fill:#263238"></path><path d="M83.18,144.69s0-.11.08-.08a25.39,25.39,0,0,1,10.43,14.24c.06.21-.1.44-.18.21C92.19,155.15,87,148.07,83.18,144.69Z" style="fill:#263238"></path><path d="M88.22,164c-1.69-5.69-5-10.27-9.13-14.48-.06-.06,0-.13.08-.09,2.57,1.51,4.91,4.47,6.53,6.92A15.55,15.55,0,0,1,88.41,164C88.42,164.07,88.25,164.14,88.22,164Z" style="fill:#263238"></path><path d="M98.6,153.23c.08.2-.29.09-.22.29.28.83,1.59,6,0,7-1.3.8-3.27-.4-3.84-1.16l-1.45-1.91.69,2.3a9.59,9.59,0,0,1,.45,3.14,3.5,3.5,0,0,1-1.08,2.65,2,2,0,0,1-2.51.18,6.09,6.09,0,0,1-1.93-2.34l-1.28-2.53.39,2.8a9.64,9.64,0,0,1,0,2.34,3.75,3.75,0,0,1-.8,2,1.78,1.78,0,0,1-1.81.57,3.92,3.92,0,0,1-1.73-1.4,30.88,30.88,0,0,1-2.55-4.2c-.4-.72-.8-1.46-1.23-2.17a6.12,6.12,0,0,0-1.61-1.89,6.35,6.35,0,0,1,1.41,2c.37.73.71,1.49,1.06,2.24a26.65,26.65,0,0,0,2.37,4.43,4.7,4.7,0,0,0,2,1.74,2.54,2.54,0,0,0,2.7-.74,4.66,4.66,0,0,0,1.06-2.5,10,10,0,0,0,0-2.62l-.9.27a7,7,0,0,0,2.25,2.79,3,3,0,0,0,1.9.5,3.3,3.3,0,0,0,1.77-.79,4.41,4.41,0,0,0,1.37-3.35,10.6,10.6,0,0,0-.55-3.45l-.75.39c.77.94,2.82,2.52,5,1.54C101.45,159.7,99.1,154.2,98.6,153.23Z" style="fill:#263238"></path><path d="M98.5,153.2a5.92,5.92,0,0,0,1.55.9,1.35,1.35,0,0,0,1.36-.18,2.68,2.68,0,0,0,.72-1.39c.14-.57.26-1.18.36-1.81a4.55,4.55,0,0,1,.27,1.91,2.76,2.76,0,0,1-.82,1.92,1.86,1.86,0,0,1-2.15.13A3.18,3.18,0,0,1,98.5,153.2Z" style="fill:#263238"></path><path d="M73.66,181.17l30.94-11.82s2.11,12.31,2.48,12.37,7.55-9.22,17.29-17.3,7.74,3.45,3.65,11.41-23.14,40.24-30.32,42.62-10.92-4.71-12.54-7.73C82.93,206.55,73.66,181.17,73.66,181.17Z" style="fill:#455a64"></path><path d="M83.66,207.35c.63,1.53,1.15,2.71,1.5,3.36,1.62,3,5.36,10.13,12.54,7.74s26.24-34.67,30.32-42.62c3.12-6.07,5-14.23,1.43-14.17Z" style="fill:#263238"></path><path d="M77.67,184.91c1-.54,10.69-4.06,12.81-4.78L96.83,178c2.19-.74,4.38-1.6,6.63-2.16a.08.08,0,0,1,.05.15c-2.09,1-4.34,1.68-6.51,2.47l-6.41,2.36c-2.14.77-11.78,4-12.88,4.26C77.62,185.08,77.61,185,77.67,184.91Z" style="fill:#263238"></path><path d="M107.07,181.87c.21,1.67.32,3.35.41,5s.11,3.36.1,5-.06,3.36-.2,5a44.24,44.24,0,0,1-.63,5c0-.84.06-1.68.06-2.52s0-1.67,0-2.51l0-5,0-5,0-2.52C107,183.55,107,182.71,107.07,181.87Z" style="fill:#263238"></path><path d="M114.29,201.51l-2.37,15.29,52.3.63s-3.53-37.56-16.13-52.57c-6.3-7.51-14.12-7.33-19.31-2.52-1.32,1.21-14.86,17.52-16.79,25C110.31,194,114.29,201.51,114.29,201.51Z" style="fill:#ebebeb"></path><path d="M134.36,200.69a60.89,60.89,0,0,0-9.16-.16c-1.51.11-3,.29-4.52.5-.75.1-1.5.18-2.25.26a9.89,9.89,0,0,1-2.37,0c-.07,0-.08.09,0,.11a16.83,16.83,0,0,0,2.22.36,15.72,15.72,0,0,0,2.17,0c1.54-.09,3.07-.26,4.61-.37,3.1-.22,6.2-.44,9.31-.44C134.49,200.94,134.5,200.7,134.36,200.69Z" style="fill:#263238"></path><path d="M141.28,204.68a66.14,66.14,0,0,0-7.37-1.7c-1.24-.21-2.49-.35-3.74-.46-.6-.05-1.21-.09-1.81-.12s-1.33,0-2,0c-.07,0-.08.1,0,.1.62.06,1.23.23,1.85.33l1.86.28c1.24.2,2.48.41,3.73.59,2.49.37,5,.75,7.44,1.21C141.38,204.91,141.4,204.72,141.28,204.68Z" style="fill:#263238"></path><path d="M140.43,159.45s-5.66,29.26-5.87,35.37-.1,40.43-.1,40.43l36.33-6.76s-8.85-36.81-15.16-52.16S140.43,159.45,140.43,159.45Z" style="fill:#455a64"></path><path d="M139.43,179.67l2.23,7.08-7.22,28.32c0-8.66,0-17.44.12-20.25.22-6,5.71-34.47,5.87-35.35v0l3.52,17Z" style="fill:#37474f"></path><path d="M130.74,160.72S118.56,184.53,118.26,190s-4.48,45.29-4.48,45.29l-7.61-2,8.12-31.74s-3.82-6.61-2.72-12.9C112.9,181.11,127.12,161.9,130.74,160.72Z" style="fill:#455a64"></path><path d="M130.73,160.74c-.37.72-12.17,23.87-12.47,29.22-.14,2.55-1.14,12.72-2.16,22.79l-.1-28.34,5.18-6.25-2.36-2.47Z" style="fill:#37474f"></path><path d="M150.5,171.87c5.43,21,6.75,45.17,3,49.66-4.15,4.93-26.69,18.29-39.48,21.73-3.37.91-8.84-26.14-5.27-27.26,6.86-2.15,25.94-9.25,28.13-12.12,2-2.66,1.4-14,4.08-28.93C143,163.5,147.75,161.2,150.5,171.87Z" style="fill:#f7a9a0"></path><path d="M75.59,221.42a4.17,4.17,0,0,0,1.81,4.4,6.19,6.19,0,0,0-1.89,3.75c-.18,2.54,3.72,3.94,3.72,3.94a7.56,7.56,0,0,0-1.36,4.27c.07,2.45,3.81,4.42,3.81,4.42a6.67,6.67,0,0,0,1.17,4.51c2.6,3.41,9.12,2.8,13.27,2.46s15.59-5.2,17.87-5.91l-2-26.65S93,212.86,88.15,214C84.09,214.88,76.41,218.28,75.59,221.42Z" style="fill:#f7a9a0"></path><path d="M77.55,225.38c4.08-2,8.54-2.72,12.94-3.67.1,0,.13.13,0,.15-4.4.9-8.56,2.65-12.91,3.72A.11.11,0,0,1,77.55,225.38Z" style="fill:#263238"></path><path d="M79.29,233.15a11.56,11.56,0,0,1,3-.71c1.09-.18,2.17-.34,3.26-.48q3.29-.44,6.58-.69c.09,0,.13.14,0,.15-2.18.29-4.35.61-6.51,1l-3.24.59a14.06,14.06,0,0,1-3.08.45A.16.16,0,0,1,79.29,233.15Z" style="fill:#263238"></path><path d="M81.77,242.18a8.21,8.21,0,0,1,2.75-.49l3-.35c2-.24,4-.48,6-.79.1,0,.13.14,0,.15-2,.33-4,.68-6,1l-3,.43a7.57,7.57,0,0,1-2.72.16A.05.05,0,0,1,81.77,242.18Z" style="fill:#263238"></path><path d="M110.72,214.68,122.18,244s31.13-14.31,34-24-.59-33.28-4.23-47.45-8.94-10.88-11.66-.24-3.19,28.08-3.67,30.36S110.72,214.68,110.72,214.68Z" style="fill:#455a64"></path><path d="M123,226.39c.89,2.21,4.41,11.1,5.11,13.36,0,0,0,.06-.06,0-1.09-2.06-4.81-10.76-5.71-13a137.8,137.8,0,0,1-5-13.4c0-.08.1-.14.14-.06C119.58,217.58,121.21,222,123,226.39Z" style="fill:#263238"></path><path d="M140.79,234a69.5,69.5,0,0,0,12.37-9.86A16.8,16.8,0,0,0,155.5,221a9.37,9.37,0,0,0,1-3.72,62.86,62.86,0,0,0,.19-7.89c-.19-5.27-.6-10.55-1.23-15.8s-1.36-10.49-2.29-15.7a147.6,147.6,0,0,1,2.92,15.62,145.09,145.09,0,0,1,1.3,15.87,57.42,57.42,0,0,1-.3,8,10.67,10.67,0,0,1-1.15,3.88,16.67,16.67,0,0,1-2.46,3.18,46.61,46.61,0,0,1-6.05,5.18C145.27,231.17,143.07,232.64,140.79,234Z" style="fill:#263238"></path><path d="M155.34,182.47a12.93,12.93,0,0,1,0,2.85,13.31,13.31,0,0,1-.21,1.41,8.44,8.44,0,0,1-.39,1.39,22.42,22.42,0,0,1,.11-2.85A16.93,16.93,0,0,1,155.34,182.47Z" style="fill:#263238"></path><path d="M139.5,162.08c-.32,1-5.59,6.88-10.05,6.25-1.46-.21-.68-8.18-.68-8.18l-.07-.6-1.08-8.43,10.28-5.31,1.48-.69s.14,2.32.29,5.22c0,.13,0,.27,0,.41l0,.47c0,.43.05.88.07,1.32s0,.66,0,1l0,1A55.78,55.78,0,0,1,139.5,162.08Z" style="fill:#f7a9a0"></path><path d="M139.67,150.34a17,17,0,0,1-11,9.21l-1.08-8.43,10.28-5.31,1.48-.69S139.52,147.44,139.67,150.34Z" style="fill:#263238"></path><path d="M119.57,133.89c-5.92,13.68,1.6,18.77,4.55,20,2.68,1.16,11.95,4.75,19.26-8.24s2.81-20.07-3.18-23S125.49,120.21,119.57,133.89Z" style="fill:#f7a9a0"></path><path d="M143.44,146.8c-2.49-.72-1.15-6-1.15-6s-4.93-1.83-3.91-9.52a11.61,11.61,0,0,0,0,6.67s-8.34-4.17-9.28-12.8c0,0,.07,4.24.95,6.07a10.86,10.86,0,0,1-3.94-6s-3.09,3.63-4.69,4.35c0,0,6-15.07,19.52-8.19,0,0,8.6,3.89,9.16,12S143.44,146.8,143.44,146.8Z" style="fill:#263238"></path><path d="M140.75,145.8s4.56-3.39,6.19-1.62-2.82,7.39-5.46,7.49a2.53,2.53,0,0,1-2.78-2.36Z" style="fill:#f7a9a0"></path><path d="M145.62,145.76s0,.07,0,.07c-1.88.12-3.25,1.36-4.39,2.74a1.39,1.39,0,0,1,2.1.3s0,.1-.08.07a1.55,1.55,0,0,0-1.79,0,8.07,8.07,0,0,0-1.21,1.05c-.13.13-.37,0-.25-.19l0,0C140.68,147.62,143.3,145.22,145.62,145.76Z" style="fill:#263238"></path><path d="M123.85,133.49c.36.06.69.06,1.05.09a1.66,1.66,0,0,0,1.08-.11.54.54,0,0,0,.2-.63,1.35,1.35,0,0,0-1.18-.69,2,2,0,0,0-1.38.31A.58.58,0,0,0,123.85,133.49Z" style="fill:#263238"></path><path d="M133.91,136.59c-.32-.15-.6-.33-.91-.51a1.7,1.7,0,0,1-.84-.7.55.55,0,0,1,.19-.63,1.36,1.36,0,0,1,1.36.09,2,2,0,0,1,1,1A.58.58,0,0,1,133.91,136.59Z" style="fill:#263238"></path><path d="M130.92,138.73s.06.07.05.11c-.36,1-.61,2.14.17,2.76,0,0,0,.07,0,.06C130.08,141.14,130.42,139.59,130.92,138.73Z" style="fill:#263238"></path><path d="M132.14,138c1.61.41.69,3.62-.81,3.24S130.78,137.65,132.14,138Z" style="fill:#263238"></path><path d="M132.72,138.34c.22.27.41.67.73.8s.78-.1,1.13-.35c0,0,0,0,0,.05-.17.62-.59,1.18-1.27,1.08s-.9-.76-.88-1.42C132.48,138.38,132.62,138.24,132.72,138.34Z" style="fill:#263238"></path><path d="M125.29,136.17s-.09,0-.1.07c-.25,1-.7,2.11-1.69,2.19,0,0,0,0,0,.06C124.63,138.64,125.22,137.16,125.29,136.17Z" style="fill:#263238"></path><path d="M124.69,134.88c-1.56-.57-2.59,2.61-1.14,3.14S126,135.36,124.69,134.88Z" style="fill:#263238"></path><path d="M124,134.88c-.3.09-.65.31-.95.23s-.51-.51-.62-.91c0,0,0,0-.06,0-.22.61-.22,1.3.33,1.61s1-.12,1.39-.68C124.12,135,124.09,134.84,124,134.88Z" style="fill:#263238"></path><path d="M127.57,146.36c-.3.17-.62.44-1,.38a2.65,2.65,0,0,1-1-.51,0,0,0,0,0-.06,0,1.42,1.42,0,0,0,1.15.86,1.1,1.1,0,0,0,1-.7A.05.05,0,0,0,127.57,146.36Z" style="fill:#263238"></path><path d="M124.51,141.53s-.66,1.42-.87,2.11c0,.07.14.15.38.24h0a3.46,3.46,0,0,0,3.6-.26c.07-.06,0-.15-.08-.13a5.15,5.15,0,0,1-3.29-.05c0-.2,1.2-2.39,1.09-2.43a6.47,6.47,0,0,0-1.69-.12c1.27-3,3-5.75,4.23-8.75,0-.11-.11-.19-.17-.1a52.69,52.69,0,0,0-5,9.23C122.6,141.65,124.19,141.56,124.51,141.53Z" style="fill:#263238"></path><path d="M124.16,143.64a4.24,4.24,0,0,0,1.13,1.8,1.87,1.87,0,0,0,1,.46c.85.09,1.14-.62,1.22-1.28a4.66,4.66,0,0,0,0-1.07A5.43,5.43,0,0,1,124.16,143.64Z" style="fill:#263238"></path><path d="M125.29,145.44a1.87,1.87,0,0,0,1,.46c.85.09,1.14-.62,1.22-1.28A1.94,1.94,0,0,0,125.29,145.44Z" style="fill:#ff9abb"></path></g><g id="freepik--Device--inject-21"><path d="M332.17,81.35H167.82a16.79,16.79,0,0,0-16.63,16.94V436.6a16.8,16.8,0,0,0,16.63,16.94H332.17a16.81,16.81,0,0,0,16.64-16.94V98.29A16.8,16.8,0,0,0,332.17,81.35Zm6.24,344.79c0,8.91-6.67,16.11-14.9,16.11h-147c-8.25,0-14.92-7.2-14.92-16.11v-315c0-18.14,6.67-19,14.92-19h29.45c1.71,0,3.11,1.94,3.11,4.35v1c0,5.65,3.09,5.67,6.89,5.67H284c3.83,0,6.91,0,6.91-5.67v-1c0-2.41,1.38-4.35,3.12-4.35h29.44c8.23,0,14.9,2.41,14.9,19Z" style="fill:#37474f"></path><path d="M338.48,111.27V426.51c0,8.91-6.68,16.12-14.91,16.12H176.45c-8.25,0-14.92-7.21-14.92-16.12V111.27c0-18.15,6.67-19,14.92-19h29.47c1.71,0,3.11,1.94,3.11,4.35v1c0,5.66,3.09,5.68,6.9,5.68h68.15c3.83,0,6.9,0,6.9-5.68v-1c0-2.41,1.38-4.35,3.12-4.35h29.47C331.8,92.24,338.48,94.65,338.48,111.27Z" style="fill:#fff"></path><path d="M338.47,111.27v23.52h-177V111.27c0-18.15,6.68-19,14.93-19h29.47c1.71,0,3.11,1.94,3.11,4.35v1c0,5.66,3.1,5.68,6.89,5.68h68.15c3.84,0,6.91,0,6.91-5.68v-1c0-2.41,1.38-4.35,3.12-4.35h29.47C331.8,92.24,338.47,94.65,338.47,111.27Z" style="fill:#ebebeb"></path><polygon points="179.44 123.31 174.21 118.41 179.44 113.52 180.25 114.38 175.94 118.41 180.25 122.45 179.44 123.31" style="fill:#fff"></polygon><path d="M324.77,115.36a1,1,0,1,1-1-1A1,1,0,0,1,324.77,115.36Z" style="fill:#fff"></path><path d="M324.77,119a1,1,0,1,1-1-1A1,1,0,0,1,324.77,119Z" style="fill:#fff"></path><path d="M324.77,122.68a1,1,0,1,1-1-1A1,1,0,0,1,324.77,122.68Z" style="fill:#fff"></path><g id="freepik--u5Zjqx--inject-21"><path d="M200.83,99.32c-.09.09-.19.18-.28.28l-.16.16a3.87,3.87,0,0,0-5.49,0c-.05-.05-.11-.1-.16-.16l-.28-.28h0l0,0,.36-.32a4.58,4.58,0,0,1,.84-.53,4.2,4.2,0,0,1,1.1-.37l.55-.07h.48l.38,0a4.37,4.37,0,0,1,1,.24,4.32,4.32,0,0,1,.69.32,4.24,4.24,0,0,1,.65.46l.3.27Z" style="fill:#fff"></path><path d="M195.8,100.66l-.45-.45a3.24,3.24,0,0,1,4.58,0l-.45.45a2.58,2.58,0,0,0-1.84-.76A2.55,2.55,0,0,0,195.8,100.66Z" style="fill:#fff"></path><path d="M199,101.1c-.15.15-.29.3-.45.45a1.3,1.3,0,0,0-.94-.39,1.32,1.32,0,0,0-.94.39l-.45-.44A2,2,0,0,1,199,101.1Z" style="fill:#fff"></path><path d="M198.05,102a.41.41,0,0,1-.41.4.4.4,0,0,1-.4-.4.41.41,0,0,1,.4-.41A.42.42,0,0,1,198.05,102Z" style="fill:#fff"></path></g><path d="M173.07,100.18a1.17,1.17,0,1,1,1.17,1.17A1.17,1.17,0,0,1,173.07,100.18Z" style="fill:#fff"></path><path d="M176.76,100.18a1.17,1.17,0,1,1,1.17,1.17A1.17,1.17,0,0,1,176.76,100.18Z" style="fill:#fff"></path><path d="M180.45,100.18a1.18,1.18,0,1,1,1.18,1.17A1.18,1.18,0,0,1,180.45,100.18Z" style="fill:#fff"></path><path d="M184.15,100.18a1.17,1.17,0,1,1,1.17,1.17A1.17,1.17,0,0,1,184.15,100.18Z" style="fill:#fff"></path><path d="M187.84,100.18a1.18,1.18,0,1,1,1.17,1.17A1.17,1.17,0,0,1,187.84,100.18Z" style="fill:#fff"></path><path d="M325.21,102.74h-9.56V98.31h9.56Zm-9.06-.5h8.56V98.81h-8.56Z" style="fill:#fff"></path><rect x="316.45" y="99.07" width="6.15" height="2.92" style="fill:#fff"></rect><rect x="325.21" y="99.34" width="0.85" height="2.37" style="fill:#fff"></rect><polygon points="188.41 423.36 187.07 423.36 187.07 429.54 184.56 429.54 184.56 426.39 180.1 426.39 180.1 429.54 177.59 429.54 177.59 423.36 176.24 423.36 182.33 417.07 188.41 423.36" style="fill:#ebebeb"></polygon><rect x="309.1" y="417.07" width="14.67" height="2.1" style="fill:#ebebeb"></rect><rect x="309.1" y="422.26" width="14.67" height="2.1" style="fill:#ebebeb"></rect><rect x="309.1" y="427.44" width="14.67" height="2.1" style="fill:#ebebeb"></rect><polygon points="254.18 422.47 250 426.92 245.84 422.47 246.57 421.78 250 425.45 253.44 421.78 254.18 422.47" style="fill:#ebebeb"></polygon><path d="M250,431.52a7.58,7.58,0,1,1,7.58-7.57A7.58,7.58,0,0,1,250,431.52Zm0-14.15a6.58,6.58,0,1,0,6.58,6.58A6.58,6.58,0,0,0,250,417.37Z" style="fill:#ebebeb"></path><path d="M320.68,371.69a2.48,2.48,0,0,1-.75.31,2.54,2.54,0,0,1-2-.31,2.6,2.6,0,0,1-1.15-1.58,2.58,2.58,0,1,1,3.87,1.58Z" style="fill:#dbdbdb"></path><path d="M320.1,369.2a.79.79,0,1,1-.78-.78A.78.78,0,0,1,320.1,369.2Z" style="fill:#fff"></path><path d="M320.68,371.37v.32a2.48,2.48,0,0,1-.75.31,2.54,2.54,0,0,1-2-.31v-.32a1.36,1.36,0,0,1,2.72,0Z" style="fill:#fff"></path><path d="M187.9,178.21a9.6,9.6,0,0,1-10.07,0,9.58,9.58,0,1,1,10.07,0Z" style="fill:#dbdbdb"></path><path d="M185.78,169a2.92,2.92,0,1,1-2.92-2.92A2.92,2.92,0,0,1,185.78,169Z" style="fill:#fff"></path><path d="M187.9,177v1.21a9.6,9.6,0,0,1-10.07,0V177a5,5,0,0,1,10.07,0Z" style="fill:#fff"></path><path d="M322.2,169.86a.48.48,0,0,1,.47.48.47.47,0,0,1-.94,0A.48.48,0,0,1,322.2,169.86Z"></path><path d="M323.65,169.86a.48.48,0,0,1,.47.48.47.47,0,0,1-.94,0A.48.48,0,0,1,323.65,169.86Z"></path><path d="M325.1,169.86a.49.49,0,0,1,.48.48.47.47,0,0,1-.48.46.46.46,0,0,1-.46-.46A.48.48,0,0,1,325.1,169.86Z"></path><polygon points="173.28 189.5 192.38 189.29 211.47 189.16 249.67 189.06 287.86 189.16 306.96 189.28 326.06 189.5 306.96 189.72 287.86 189.84 249.67 189.94 211.47 189.84 192.38 189.72 173.28 189.5" style="fill:#c7c7c7"></polygon><path d="M173.28,193.55c9.27-.18,18.53-.27,27.79-.34l27.79-.1,27.8.1,13.89.12,13.9.22-13.9.22-13.89.12-27.8.1-27.79-.1C191.81,193.82,182.55,193.73,173.28,193.55Z" style="fill:#c7c7c7"></path><path d="M173.28,197.6c6.19-.18,12.37-.27,18.56-.34s12.37-.07,18.56-.1,12.37,0,18.55.1l9.28.12c3.1.08,6.19.12,9.28.22-3.09.1-6.18.14-9.28.22l-9.28.12c-6.18.07-12.37.07-18.55.1s-12.38,0-18.56-.1S179.47,197.78,173.28,197.6Z" style="fill:#c7c7c7"></path><path d="M173.28,205.7c10.87-.19,21.73-.27,32.6-.34l32.59-.11,32.6.1,16.29.13,16.3.22-16.3.21-16.29.13-32.6.1L205.88,206C195,206,184.15,205.88,173.28,205.7Z" style="fill:#0EA2BD"></path><path d="M173.28,209.74c7.27-.18,14.53-.26,21.79-.34l21.79-.1,21.79.1,10.9.13,10.89.21-10.89.22-10.9.12-21.79.11-21.79-.11C187.81,210,180.55,209.93,173.28,209.74Z" style="fill:#0EA2BD"></path><path d="M199.87,170.06c2.83-.21,5.67-.31,8.5-.39s5.66-.1,8.5-.11,5.66,0,8.49.11l4.25.14c1.42.08,2.83.13,4.25.25-1.42.11-2.83.16-4.25.24l-4.25.14c-2.83.09-5.66.1-8.49.11s-5.67,0-8.5-.11S202.7,170.26,199.87,170.06Z" style="fill:#263238"></path><path d="M199.87,177c2.83-.21,5.67-.3,8.5-.38s5.66-.11,8.5-.12,5.66,0,8.49.12l4.25.14c1.42.08,2.83.13,4.25.24-1.42.11-2.83.16-4.25.25l-4.25.14c-2.83.09-5.66.1-8.49.11s-5.67,0-8.5-.12S202.7,177.25,199.87,177Z" style="fill:#c7c7c7"></path><rect x="183.88" y="392.81" width="142" height="6.84" style="fill:#ebebeb"></rect><path d="M178.9,399.54a3.71,3.71,0,0,1-1.1.46,3.83,3.83,0,1,1,1.1-.46Z" style="fill:#dbdbdb"></path><path d="M178.06,395.85a1.17,1.17,0,1,1-1.17-1.17A1.17,1.17,0,0,1,178.06,395.85Z" style="fill:#fff"></path><path d="M178.9,399.06v.48a3.71,3.71,0,0,1-1.1.46,3.83,3.83,0,0,1-2.92-.46v-.48a2,2,0,0,1,4,0Z" style="fill:#fff"></path><path d="M189.31,396.88h-1.24l-.25.65a.1.1,0,0,1-.09.06h0a.1.1,0,0,1-.06-.12l1-2.52a.1.1,0,0,1,.09-.06.1.1,0,0,1,.1.06l.94,2.52a.09.09,0,0,1-.05.12h0a.1.1,0,0,1-.09-.06Zm-1.18-.19h1.11l-.55-1.46Z" style="fill:#a6a6a6"></path><path d="M191.71,397.22a.91.91,0,0,1-.73.37,1,1,0,0,1,0-1.91.89.89,0,0,1,.73.38V395a.1.1,0,0,1,.1-.09.09.09,0,0,1,.09.09v2.53a.1.1,0,0,1-.09.1.11.11,0,0,1-.1-.1Zm0-.55v-.06a.76.76,0,1,0,0,.06Z" style="fill:#a6a6a6"></path><path d="M194.28,397.22a.92.92,0,0,1-.73.37,1,1,0,0,1,0-1.91.9.9,0,0,1,.73.38V395a.09.09,0,0,1,.1-.09.09.09,0,0,1,.09.09v2.53a.1.1,0,0,1-.09.1.1.1,0,0,1-.1-.1Zm0-.55v-.06a.76.76,0,1,0,0,.06Z" style="fill:#a6a6a6"></path><path d="M198.09,395.78v1.71a.1.1,0,0,1-.09.1.11.11,0,0,1-.1-.1v-.28a.87.87,0,0,1-.71.38,1,1,0,0,1,0-1.91.87.87,0,0,1,.71.38v-.28a.1.1,0,0,1,.1-.1A.09.09,0,0,1,198.09,395.78Zm-.19.85a.74.74,0,0,0-.71-.76.77.77,0,1,0,.71.76Z" style="fill:#a6a6a6"></path><path d="M199.93,396.63a1,1,0,0,1,1-.95,1,1,0,0,1,.61.21.09.09,0,0,1,0,.13.09.09,0,0,1-.13,0,.75.75,0,0,0-.49-.17.77.77,0,1,0,0,1.53.75.75,0,0,0,.49-.17.09.09,0,0,1,.13,0,.09.09,0,0,1,0,.14,1,1,0,0,1-.6.2A1,1,0,0,1,199.93,396.63Z" style="fill:#a6a6a6"></path><path d="M203.05,395.68a1,1,0,0,1,0,1.91,1,1,0,0,1,0-1.91Zm0,1.72a.77.77,0,1,0-.72-.77A.75.75,0,0,0,203.05,397.4Z" style="fill:#a6a6a6"></path><path d="M207.39,396.46a.59.59,0,0,0-1.18,0v1h0s0,0-.05.05H206v-1a.59.59,0,1,0-1.17,0v1a.08.08,0,0,1,0,.07h-.06a.18.18,0,0,1-.08-.07v-1.74a.09.09,0,0,1,.09-.09c.06,0,.1,0,.1.09V396a.75.75,0,0,1,.58-.27.76.76,0,0,1,.68.4.8.8,0,0,1,.69-.4.76.76,0,0,1,.77.77v1a.09.09,0,0,1-.18,0Z" style="fill:#a6a6a6"></path><path d="M211.09,396.46a.59.59,0,0,0-1.18,0v1h0s0,0,0,.05h-.14v-1a.59.59,0,1,0-1.17,0v1a.08.08,0,0,1-.05.07h-.06a.18.18,0,0,1-.08-.07v-1.74a.09.09,0,0,1,.09-.09c.06,0,.1,0,.1.09V396a.75.75,0,0,1,.58-.27.76.76,0,0,1,.68.4.8.8,0,0,1,.69-.4.76.76,0,0,1,.77.77v1a.09.09,0,0,1-.18,0Z" style="fill:#a6a6a6"></path><path d="M211.93,396.64a.92.92,0,1,1,1.84-.07h0a.09.09,0,0,1-.09.09h-1.56a.73.73,0,0,0,.73.73.71.71,0,0,0,.62-.35.1.1,0,0,1,.12,0,.1.1,0,0,1,0,.14.89.89,0,0,1-.77.43A.94.94,0,0,1,211.93,396.64Zm.2-.15h1.44a.74.74,0,0,0-.72-.62A.75.75,0,0,0,212.13,396.49Z" style="fill:#a6a6a6"></path><path d="M215.8,396.46a.6.6,0,0,0-.59-.59.6.6,0,0,0-.59.59v1.05s0,0,0,0a.09.09,0,0,1-.07,0h0a.15.15,0,0,1-.06,0h0v-1.74a.09.09,0,0,1,.1-.09.09.09,0,0,1,.09.09V396a.75.75,0,0,1,.59-.27.77.77,0,0,1,.77.77v1a.09.09,0,1,1-.18,0Z" style="fill:#a6a6a6"></path><path d="M217.48,395.78a.1.1,0,0,1-.09.09h-.24v1.39a.15.15,0,0,0,.14.14.1.1,0,0,1,0,.19.33.33,0,0,1-.34-.33v-1.39h-.24c-.09,0-.09-.05-.09-.09s0-.1.09-.1H217V395a.11.11,0,0,1,.09-.09.11.11,0,0,1,.11.09v.71h.24A.1.1,0,0,1,217.48,395.78Z" style="fill:#a6a6a6"></path><path d="M218.53,397.2a.18.18,0,0,1,.19.19.19.19,0,0,1-.19.2.2.2,0,0,1-.2-.2A.19.19,0,0,1,218.53,397.2Z" style="fill:#a6a6a6"></path><path d="M219.42,397.2a.19.19,0,0,1,.2.19.2.2,0,0,1-.2.2.19.19,0,0,1-.19-.2A.18.18,0,0,1,219.42,397.2Z" style="fill:#a6a6a6"></path><path d="M220.32,397.2a.18.18,0,0,1,.19.19.19.19,0,0,1-.19.2.2.2,0,0,1-.2-.2A.19.19,0,0,1,220.32,397.2Z" style="fill:#a6a6a6"></path><rect x="170.69" y="228.87" width="158.62" height="121.88" transform="translate(500 579.61) rotate(180)" style="fill:#ebebeb"></rect><path d="M191.17,258.12a10.64,10.64,0,1,0,8.35-8.35A10.64,10.64,0,0,0,191.17,258.12Z" style="fill:#fff"></path><polygon points="214.67 325.02 329.31 325.02 271.99 270.82 214.67 325.02" style="fill:#fff"></polygon><polygon points="170.69 325.07 265.34 325.07 218.01 289.78 170.69 325.07" style="fill:#dbdbdb"></polygon><rect x="170.69" y="325.02" width="158.62" height="25.73" style="fill:#dbdbdb"></rect><path d="M173.17,369.27a3.7,3.7,0,1,1,4.48,2.72A3.69,3.69,0,0,1,173.17,369.27Z" style="fill:#455a64"></path><g id="freepik--xsrjp0--inject-21"><path d="M176.29,369.94c-.1-.06-.18-.15-.31-.13s0,0,0-.06v-1.44a.07.07,0,0,1,0-.08,2.36,2.36,0,0,0,.74-.86,1.4,1.4,0,0,0,.26-1.08.15.15,0,0,1,.13-.18.24.24,0,0,1,.28.08,2.34,2.34,0,0,1,.21.63,2.5,2.5,0,0,1-.07.54,2.66,2.66,0,0,1-.07.39.17.17,0,0,0,.1,0h1.22c.17,0,.25.05.27.16a.32.32,0,0,1-.17.35s-.09,0-.09.05.05,0,.08.06.12.31-.05.43-.12,0-.12.07.07.05.11.08a.27.27,0,0,1-.12.42s-.05,0-.07,0,0,0,0,.06a.23.23,0,0,1,0,.42l-.06,0a.3.3,0,0,1-.21.05h-1.9A.22.22,0,0,1,176.29,369.94Z" style="fill:#fff;fill-rule:evenodd"></path><path d="M174.48,369.1v-.91c0-.06,0-.09.08-.09h1.11c.07,0,.08,0,.08.09,0,.61,0,1.22,0,1.83,0,.08,0,.1-.1.1h-1.07c-.09,0-.11,0-.11-.11C174.49,369.71,174.48,369.41,174.48,369.1Z" style="fill:#fff;fill-rule:evenodd"></path></g><rect x="173.23" y="378.94" width="152.65" height="0.25" style="fill:#ebebeb"></rect><rect x="173.23" y="150.04" width="152.65" height="0.25" style="fill:#ebebeb"></rect><rect x="173.23" y="388.43" width="152.65" height="0.25" style="fill:#ebebeb"></rect><rect x="173.23" y="415.02" width="152.65" height="0.25" style="fill:#ebebeb"></rect><path d="M210.92,385.37h0a.11.11,0,0,1-.11-.11v-2.9a.11.11,0,0,1,.22,0v2.79h1.49a.11.11,0,0,1,0,.22Z" style="fill:#a6a6a6"></path><path d="M213.26,382.58a.11.11,0,0,1,.22,0v.11a.11.11,0,1,1-.22,0Zm0,.72a.11.11,0,1,1,.22,0v2a.11.11,0,1,1-.22,0Z" style="fill:#a6a6a6"></path><path d="M214.51,382.36a.1.1,0,0,1,.1-.1c.07,0,.12,0,.12.1v2.1l1.28-1.29a.12.12,0,0,1,.16,0,.11.11,0,0,1,0,.15l-.84.84.84,1a.11.11,0,0,1,0,.16l-.07,0s-.07,0-.08,0l-.84-1-.44.44v.5a.11.11,0,0,1-.12.11.11.11,0,0,1-.1-.11Z" style="fill:#a6a6a6"></path><path d="M216.73,384.28a1.06,1.06,0,0,1,2.11-.08h0a.1.1,0,0,1-.11.1H217a.86.86,0,0,0,.84.84.82.82,0,0,0,.7-.4.11.11,0,0,1,.14,0,.13.13,0,0,1,0,.16,1.06,1.06,0,0,1-.88.49A1.07,1.07,0,0,1,216.73,384.28Zm.23-.17h1.65a.84.84,0,0,0-.82-.71A.85.85,0,0,0,217,384.11Z" style="fill:#a6a6a6"></path><g id="freepik--xsrjp0--inject-21"><path d="M201.42,385.87a.37.37,0,0,1-.25-.08l-.08-.05a.35.35,0,0,0-.21-.09.18.18,0,0,1-.14,0,.16.16,0,0,1,0-.15V383.7a.21.21,0,0,1,.12-.21,1.89,1.89,0,0,0,.67-.73c.06-.09.12-.19.19-.28a1.64,1.64,0,0,0,.3-1.23.29.29,0,0,1,.25-.36.4.4,0,0,1,.47.17,2.22,2.22,0,0,1,.27.8,1.51,1.51,0,0,1,0,.48c0,.07,0,.14,0,.21s0,.23,0,.34h1.45c.1,0,.4,0,.46.29a.52.52,0,0,1-.22.53.42.42,0,0,1,.12.28.55.55,0,0,1-.23.41h0a.4.4,0,0,1,.1.34.5.5,0,0,1-.24.35.39.39,0,0,1,.1.27.45.45,0,0,1-.21.36l-.07,0a.48.48,0,0,1-.32.08h-2.35Zm-.47-.47a.66.66,0,0,1,.29.14l.07,0,0,0s0,0,.11,0h2.32a.33.33,0,0,0,.19,0l.06-.05a.22.22,0,0,0,.11-.16.21.21,0,0,0-.1-.16.15.15,0,0,1-.08-.13.17.17,0,0,1,.08-.14l.08,0a.27.27,0,0,0,.17-.19.18.18,0,0,0,0-.13.21.21,0,0,1-.17-.19.21.21,0,0,1,.18-.18.27.27,0,0,0,.15-.21.11.11,0,0,0-.07-.11.18.18,0,0,1,0-.36.26.26,0,0,0,.16-.28c0-.05,0-.1-.22-.1H202.8a.29.29,0,0,1-.2,0l-.06-.05,0-.23.06-.32a1.85,1.85,0,0,1,0-.23,1.87,1.87,0,0,0,0-.4,2.55,2.55,0,0,0-.25-.72s-.1-.06-.19,0-.07,0-.07.08a1.81,1.81,0,0,1-.34,1.41l-.18.27a2,2,0,0,1-.75.81Zm0,.05-.12,0h.12Z" style="fill:#a6a6a6"></path><path d="M199.16,386A.22.22,0,0,1,199,386a.26.26,0,0,1-.06-.19v-2.22a.22.22,0,0,1,.06-.18.21.21,0,0,1,.16-.06h1.36a.25.25,0,0,1,.17.06.24.24,0,0,1,.06.18v2.23a.21.21,0,0,1-.06.19.26.26,0,0,1-.18.06h-1.32Zm0-1.37v1.11h1.3v-2.22h-1.31v1.1Z" style="fill:#a6a6a6"></path></g><path d="M287.58,382.21a1.63,1.63,0,0,1,1,.34.11.11,0,0,1,0,.16.1.1,0,0,1-.15,0,1.41,1.41,0,0,0-.87-.3,1.36,1.36,0,1,0,0,2.72,1.36,1.36,0,0,0,.86-.3.1.1,0,0,1,.15,0c.05,0,0,.11,0,.15a1.63,1.63,0,0,1-1,.34,1.58,1.58,0,1,1,0-3.16Z" style="fill:#a6a6a6"></path><path d="M290.36,383.19a1.09,1.09,0,1,1-1,1.09A1.07,1.07,0,0,1,290.36,383.19Zm0,2a.88.88,0,1,0-.82-.88A.86.86,0,0,0,290.36,385.16Z" style="fill:#a6a6a6"></path><path d="M295.33,384.08a.69.69,0,0,0-.68-.68.68.68,0,0,0-.67.68v1.19h0l-.06.06h-.11a0,0,0,0,1,0,0h0v0h0v-1.19a.67.67,0,1,0-1.34,0v1.19a.1.1,0,0,1-.05.08h-.07a.14.14,0,0,1-.09-.08v-2a.11.11,0,0,1,.1-.11.1.1,0,0,1,.11.11v.21a.85.85,0,0,1,.67-.32.88.88,0,0,1,.78.47.91.91,0,0,1,.78-.47.89.89,0,0,1,.89.89v1.19a.11.11,0,0,1-.11.1.1.1,0,0,1-.1-.1Z" style="fill:#a6a6a6"></path><path d="M299.56,384.08a.68.68,0,1,0-1.35,0v1.19h0l-.06.06H298a0,0,0,0,1,0,0h0v0h0v-1.19a.67.67,0,1,0-1.34,0v1.19a.1.1,0,0,1,0,.08h-.07a.14.14,0,0,1-.09-.08v-2a.11.11,0,0,1,.1-.11.1.1,0,0,1,.11.11v.21a.85.85,0,0,1,.67-.32.88.88,0,0,1,.78.47.91.91,0,0,1,.78-.47.89.89,0,0,1,.89.89v1.19a.11.11,0,0,1-.11.1.1.1,0,0,1-.1-.1Z" style="fill:#a6a6a6"></path><path d="M300.52,384.28a1.07,1.07,0,0,1,1.06-1.09,1.05,1.05,0,0,1,1,1h0a.09.09,0,0,1-.1.1h-1.79a.87.87,0,0,0,.85.84.85.85,0,0,0,.7-.4.11.11,0,0,1,.14,0,.13.13,0,0,1,0,.16,1.05,1.05,0,0,1-1.94-.6Zm.22-.17h1.65a.83.83,0,0,0-.81-.71A.86.86,0,0,0,300.74,384.11Z" style="fill:#a6a6a6"></path><path d="M304.94,384.08a.67.67,0,0,0-.67-.67.69.69,0,0,0-.68.67v1.2a.08.08,0,0,1,0,.05.09.09,0,0,1-.08,0h0a.11.11,0,0,1-.07-.06h0v-2a.11.11,0,0,1,.11-.11.1.1,0,0,1,.1.11v.21a.9.9,0,0,1,.68-.32.88.88,0,0,1,.88.89v1.18a.11.11,0,0,1-.1.11.11.11,0,0,1-.11-.11Z" style="fill:#a6a6a6"></path><path d="M306.87,383.3a.11.11,0,0,1-.11.1h-.28V385a.17.17,0,0,0,.16.16.12.12,0,0,1,.11.11.11.11,0,0,1-.11.11.37.37,0,0,1-.38-.38V383.4H306c-.11,0-.11,0-.11-.1s0-.11.11-.11h.27v-.81a.11.11,0,0,1,.22,0v.81h.28A.11.11,0,0,1,306.87,383.3Z" style="fill:#a6a6a6"></path><path d="M278.48,385.63c-1.41,0-2.56-.86-2.56-1.92s1.15-1.91,2.56-1.91,2.55.86,2.55,1.91a1.48,1.48,0,0,1-.23.79l.4.91-1-.27A3,3,0,0,1,278.48,385.63Zm0-3.58c-1.27,0-2.31.74-2.31,1.66s1,1.67,2.31,1.67a2.82,2.82,0,0,0,1.6-.47l0,0,.65.17-.25-.56,0-.05a1.38,1.38,0,0,0,.22-.72C280.78,382.79,279.75,382.05,278.48,382.05Z" style="fill:#a6a6a6"></path><path d="M173.72,146.58V143.8a.26.26,0,1,1,.52,0v1.13h1.22V143.8a.27.27,0,0,1,.53,0v2.78a.27.27,0,0,1-.53,0v-1.13h-1.22v1.13a.26.26,0,1,1-.52,0Z" style="fill:#c7c7c7"></path><path d="M177.23,146.5a1.19,1.19,0,0,1-.32-.83,1.25,1.25,0,0,1,.32-.83,1.1,1.1,0,0,1,.81-.35,1.06,1.06,0,0,1,.79.35,1.21,1.21,0,0,1,.33.83,1.15,1.15,0,0,1-.33.83,1.07,1.07,0,0,1-.79.36A1.11,1.11,0,0,1,177.23,146.5Zm.19-.83a.76.76,0,0,0,.17.5.64.64,0,0,0,.45.17.6.6,0,0,0,.43-.17.74.74,0,0,0,0-1A.65.65,0,0,0,178,145a.7.7,0,0,0-.45.18A.75.75,0,0,0,177.42,145.67Z" style="fill:#c7c7c7"></path><path d="M181.93,145.46v1.13a.25.25,0,0,1-.25.25.25.25,0,0,1-.25-.25v-1.13a.49.49,0,0,0-.49-.47.48.48,0,0,0-.47.49v1.15h0a0,0,0,0,1,0,0v0a.27.27,0,0,1-.24.15h0a.27.27,0,0,1-.21-.25v-1.11h0v-.73a.25.25,0,0,1,.25-.25.24.24,0,0,1,.23.14,1,1,0,0,1,.5-.14,1,1,0,0,0,1.48,0,1,1,0,0,1,1,1v1.11a.25.25,0,0,1-.25.25.25.25,0,0,1-.25-.25v-1.11a.49.49,0,0,0-1,0Z" style="fill:#c7c7c7"></path><path d="M184.28,145.66a1.17,1.17,0,0,1,1.15-1.17,1.12,1.12,0,0,1,1.14,1.09v0s0,0,0,.05a.22.22,0,0,1-.24.18h-1.5a.69.69,0,0,0,.16.32.75.75,0,0,0,.94.09.27.27,0,0,1,.36,0,.21.21,0,0,1,0,.3,1.2,1.2,0,0,1-.85.31A1.17,1.17,0,0,1,184.28,145.66Zm.52-.23h1.33a.8.8,0,0,0-.7-.5A.66.66,0,0,0,184.8,145.43Z" style="fill:#c7c7c7"></path><path d="M202.5,145.56h-.57v1a.27.27,0,0,1-.53,0V143.8a.26.26,0,0,1,.26-.26h.84a1,1,0,0,1,1,1A1,1,0,0,1,202.5,145.56Zm-.57-.52h.57a.49.49,0,1,0,0-1h-.57Z" style="fill:#0EA2BD"></path><path d="M204.25,146.5a1.15,1.15,0,0,1-.33-.83,1.21,1.21,0,0,1,.33-.83,1.09,1.09,0,0,1,.81-.35,1,1,0,0,1,.78.35,1.16,1.16,0,0,1,.33.83,1.12,1.12,0,0,1-.33.83,1,1,0,0,1-.78.36A1.1,1.1,0,0,1,204.25,146.5Zm.19-.83a.81.81,0,0,0,.16.5.67.67,0,0,0,.46.17.63.63,0,0,0,.43-.17.71.71,0,0,0,.18-.5.71.71,0,0,0-.18-.49.69.69,0,0,0-.43-.18.73.73,0,0,0-.46.18A.8.8,0,0,0,204.44,145.67Z" style="fill:#0EA2BD"></path><path d="M206.87,146.17a.24.24,0,0,1,.35,0,.9.9,0,0,0,.52.21.63.63,0,0,0,.32-.09c.06-.06.08-.1.08-.14s0,0,0-.05l-.06-.06a1.26,1.26,0,0,0-.38-.13h0a1.64,1.64,0,0,1-.41-.12.86.86,0,0,1-.33-.27.61.61,0,0,1-.08-.3.65.65,0,0,1,.28-.52,1,1,0,0,1,.58-.17,1.16,1.16,0,0,1,.7.26.25.25,0,1,1-.27.41.78.78,0,0,0-.43-.17.44.44,0,0,0-.28.08.13.13,0,0,0-.08.11.06.06,0,0,0,0,0s0,0,.05,0a.81.81,0,0,0,.34.12h0a1.51,1.51,0,0,1,.44.14.65.65,0,0,1,.43.59.67.67,0,0,1-.3.54,1.05,1.05,0,0,1-.61.19,1.35,1.35,0,0,1-.84-.32A.24.24,0,0,1,206.87,146.17Z" style="fill:#0EA2BD"></path><path d="M210.43,144.75a.26.26,0,0,1-.26.25h-.12v1.32a.26.26,0,0,1,.26.26.26.26,0,0,1-.26.26.52.52,0,0,1-.52-.52V145h-.14a.26.26,0,1,1,0-.51h.14v-.69a.26.26,0,1,1,.52,0v.69h.12A.26.26,0,0,1,210.43,144.75Z" style="fill:#0EA2BD"></path><path d="M211.14,146.17a.26.26,0,0,1,.36,0,.9.9,0,0,0,.52.21.63.63,0,0,0,.32-.09c.06-.06.08-.1.08-.14s0,0,0-.05l-.06-.06a1.26,1.26,0,0,0-.38-.13h0a1.93,1.93,0,0,1-.41-.12.83.83,0,0,1-.32-.27.61.61,0,0,1-.08-.3.65.65,0,0,1,.28-.52,1,1,0,0,1,.58-.17,1.16,1.16,0,0,1,.7.26.25.25,0,1,1-.27.41A.78.78,0,0,0,212,145a.48.48,0,0,0-.29.08.14.14,0,0,0-.07.11.06.06,0,0,0,0,0s0,0,.05,0a.81.81,0,0,0,.34.12h0a1.62,1.62,0,0,1,.44.14.65.65,0,0,1,.43.59.67.67,0,0,1-.3.54,1.05,1.05,0,0,1-.61.19,1.35,1.35,0,0,1-.84-.32A.25.25,0,0,1,211.14,146.17Z" style="fill:#0EA2BD"></path><path d="M232.94,146.79l0,0a0,0,0,0,1,0,0s0,0,0,0h0l0,0-1.16-2.75a.26.26,0,0,1,.15-.34.25.25,0,0,1,.33.14l.92,2.18.92-2.18a.26.26,0,0,1,.34-.14.27.27,0,0,1,.14.34l-1.17,2.75a0,0,0,0,1,0,0h0s0,0,0,0h0l0,0h0l0,0H233l-.05,0Z" style="fill:#c7c7c7"></path><path d="M235.77,143.9a.26.26,0,1,1-.51,0v-.1a.26.26,0,1,1,.51,0Zm0,.85v1.84a.26.26,0,0,1-.51,0v-1.84a.26.26,0,1,1,.51,0Z" style="fill:#c7c7c7"></path><path d="M238.72,146.59a.26.26,0,0,1-.26.25.26.26,0,0,1-.25-.2,1.16,1.16,0,1,1-.64-2.15,1.12,1.12,0,0,1,.63.19v-.88a.26.26,0,0,1,.52,0v1.86h0ZM237.57,145a.61.61,0,0,0-.44.19.69.69,0,0,0,0,.95.61.61,0,0,0,.44.19.58.58,0,0,0,.44-.19.69.69,0,0,0,0-.95A.58.58,0,0,0,237.57,145Z" style="fill:#c7c7c7"></path><path d="M239.46,145.66a1.15,1.15,0,0,1,1.15-1.17,1.11,1.11,0,0,1,1.13,1.09v.07a.22.22,0,0,1-.24.18H240a.61.61,0,0,0,.16.32.76.76,0,0,0,.45.21.8.8,0,0,0,.49-.12.26.26,0,0,1,.35,0,.21.21,0,0,1,0,.3,1.2,1.2,0,0,1-.84.31A1.16,1.16,0,0,1,239.46,145.66Zm.51-.23h1.34a.8.8,0,0,0-.7-.5A.67.67,0,0,0,240,145.43Z" style="fill:#c7c7c7"></path><path d="M242.71,146.5a1.19,1.19,0,0,1-.32-.83,1.25,1.25,0,0,1,.32-.83,1.12,1.12,0,0,1,.81-.35,1,1,0,0,1,.79.35,1.21,1.21,0,0,1,.33.83,1.15,1.15,0,0,1-.33.83,1,1,0,0,1-.79.36A1.13,1.13,0,0,1,242.71,146.5Zm.19-.83a.76.76,0,0,0,.17.5.66.66,0,0,0,.45.17.64.64,0,0,0,.44-.17.71.71,0,0,0,.18-.5.71.71,0,0,0-.18-.49.7.7,0,0,0-.44-.18.72.72,0,0,0-.45.18A.75.75,0,0,0,242.9,145.67Z" style="fill:#c7c7c7"></path><path d="M245.33,146.17a.26.26,0,0,1,.36,0,.9.9,0,0,0,.51.21.58.58,0,0,0,.32-.09c.07-.06.09-.1.09-.14a.06.06,0,0,0,0-.05l-.06-.06a1.08,1.08,0,0,0-.37-.13h0a1.77,1.77,0,0,1-.41-.12.76.76,0,0,1-.32-.27.61.61,0,0,1-.08-.3.67.67,0,0,1,.27-.52,1.06,1.06,0,0,1,.58-.17,1.17,1.17,0,0,1,.71.26.26.26,0,0,1,.08.34.25.25,0,0,1-.35.07.78.78,0,0,0-.44-.17.47.47,0,0,0-.28.08.14.14,0,0,0-.07.11.06.06,0,0,0,0,0s0,0,.05,0a.81.81,0,0,0,.34.12h0a1.62,1.62,0,0,1,.44.14.64.64,0,0,1,.33.28.56.56,0,0,1,.09.31.66.66,0,0,1-.29.54,1.06,1.06,0,0,1-.62.19,1.32,1.32,0,0,1-.83-.32A.25.25,0,0,1,245.33,146.17Z" style="fill:#c7c7c7"></path><path d="M265.72,145.56h-.58v1a.26.26,0,1,1-.52,0V143.8a.26.26,0,0,1,.26-.26h.84a1,1,0,0,1,1,1A1,1,0,0,1,265.72,145.56Zm-.58-.52h.58a.49.49,0,1,0,0-1h-.58Z" style="fill:#c7c7c7"></path><path d="M267.84,146.58a.26.26,0,0,1-.51.07.15.15,0,0,1,0-.07V143.8a.26.26,0,1,1,.52,0v.82a1.06,1.06,0,0,1,.5-.13,1,1,0,0,1,1,1v1.06a.25.25,0,0,1-.26.26.26.26,0,0,1-.26-.26v-1.06a.51.51,0,0,0-.51-.51.52.52,0,0,0-.5.51Z" style="fill:#c7c7c7"></path><path d="M270.43,146.5a1.15,1.15,0,0,1-.33-.83,1.21,1.21,0,0,1,.33-.83,1.09,1.09,0,0,1,.81-.35,1,1,0,0,1,.78.35,1.16,1.16,0,0,1,.33.83,1.12,1.12,0,0,1-.33.83,1,1,0,0,1-.78.36A1.1,1.1,0,0,1,270.43,146.5Zm.18-.83a.81.81,0,0,0,.17.5.67.67,0,0,0,.46.17.63.63,0,0,0,.43-.17.71.71,0,0,0,.18-.5.71.71,0,0,0-.18-.49.69.69,0,0,0-.43-.18.73.73,0,0,0-.46.18A.81.81,0,0,0,270.61,145.67Z" style="fill:#c7c7c7"></path><path d="M274.13,144.75a.26.26,0,0,1-.27.25h-.11v1.32a.26.26,0,0,1,.26.26.26.26,0,0,1-.26.26.52.52,0,0,1-.53-.52V145h-.13a.26.26,0,1,1,0-.51h.13v-.69a.27.27,0,0,1,.53,0v.69h.11A.26.26,0,0,1,274.13,144.75Z" style="fill:#c7c7c7"></path><path d="M275.1,146.5a1.19,1.19,0,0,1-.32-.83,1.25,1.25,0,0,1,.32-.83,1.1,1.1,0,0,1,.81-.35,1,1,0,0,1,.79.35,1.21,1.21,0,0,1,.33.83,1.15,1.15,0,0,1-.33.83,1.05,1.05,0,0,1-.79.36A1.11,1.11,0,0,1,275.1,146.5Zm.19-.83a.76.76,0,0,0,.17.5.64.64,0,0,0,.45.17.6.6,0,0,0,.43-.17.74.74,0,0,0,0-1,.65.65,0,0,0-.43-.18.7.7,0,0,0-.45.18A.75.75,0,0,0,275.29,145.67Z" style="fill:#c7c7c7"></path><path d="M277.72,146.17a.24.24,0,0,1,.35,0,1,1,0,0,0,.52.21.58.58,0,0,0,.32-.09c.07-.06.09-.1.09-.14a.06.06,0,0,0,0-.05l-.06-.06a1.16,1.16,0,0,0-.38-.13h0a1.64,1.64,0,0,1-.41-.12.86.86,0,0,1-.33-.27.61.61,0,0,1-.08-.3.68.68,0,0,1,.28-.52,1,1,0,0,1,.58-.17,1.17,1.17,0,0,1,.71.26.25.25,0,0,1,.07.34.24.24,0,0,1-.34.07.84.84,0,0,0-.44-.17.44.44,0,0,0-.28.08.16.16,0,0,0-.08.11.06.06,0,0,0,0,0,.1.1,0,0,0,.06,0,.81.81,0,0,0,.34.12h0a1.73,1.73,0,0,1,.44.14.68.68,0,0,1,.33.28.56.56,0,0,1,.09.31.67.67,0,0,1-.3.54,1.05,1.05,0,0,1-.61.19,1.35,1.35,0,0,1-.84-.32A.25.25,0,0,1,277.72,146.17Z" style="fill:#c7c7c7"></path><path d="M294.75,145.15a1.72,1.72,0,0,1,1.73-1.7,1.74,1.74,0,0,1,1.08.37.27.27,0,0,1,.05.37.28.28,0,0,1-.38.06,1.14,1.14,0,0,0-.75-.26,1.23,1.23,0,0,0-.85.34,1.14,1.14,0,0,0,0,1.64,1.28,1.28,0,0,0,.85.34,1.16,1.16,0,0,0,.75-.26.28.28,0,0,1,.38,0,.27.27,0,0,1-.05.37,1.68,1.68,0,0,1-1.08.37A1.72,1.72,0,0,1,294.75,145.15Z" style="fill:#c7c7c7"></path><path d="M298.65,146.5a1.15,1.15,0,0,1-.33-.83,1.21,1.21,0,0,1,.33-.83,1.09,1.09,0,0,1,.81-.35,1,1,0,0,1,.78.35,1.16,1.16,0,0,1,.33.83,1.12,1.12,0,0,1-.33.83,1,1,0,0,1-.78.36A1.1,1.1,0,0,1,298.65,146.5Zm.19-.83a.76.76,0,0,0,.17.5.65.65,0,0,0,.88,0,.74.74,0,0,0,0-1,.69.69,0,0,0-.43-.18.68.68,0,0,0-.45.18A.75.75,0,0,0,298.84,145.67Z" style="fill:#c7c7c7"></path><path d="M303.35,145.46v1.13a.25.25,0,0,1-.25.25.26.26,0,0,1-.26-.25v-1.13a.48.48,0,0,0-.48-.47.49.49,0,0,0-.48.49v1.15h0l0,0v0a.25.25,0,0,1-.23.15h-.05a.27.27,0,0,1-.2-.25v-1.11h0v-.73a.24.24,0,0,1,.25-.25.22.22,0,0,1,.22.14,1,1,0,0,1,.51-.14,1,1,0,0,1,.74.32,1,1,0,0,1,.74-.32,1,1,0,0,1,1,1v1.11a.25.25,0,0,1-.25.25.26.26,0,0,1-.26-.25v-1.11a.48.48,0,0,0-.47-.49A.49.49,0,0,0,303.35,145.46Z" style="fill:#c7c7c7"></path><path d="M307.83,145.46v1.13a.25.25,0,0,1-.25.25.25.25,0,0,1-.25-.25v-1.13a.48.48,0,0,0-.49-.47.49.49,0,0,0-.47.49v1.15h0a0,0,0,0,1,0,0v0a.27.27,0,0,1-.24.15h0a.27.27,0,0,1-.21-.25v-1.11h0v-.73a.25.25,0,0,1,.25-.25.24.24,0,0,1,.23.14,1,1,0,0,1,.5-.14,1,1,0,0,1,.74.32,1,1,0,0,1,.74-.32,1,1,0,0,1,1,1v1.11a.25.25,0,0,1-.25.25.25.25,0,0,1-.25-.25v-1.11a.49.49,0,0,0-1,0Z" style="fill:#c7c7c7"></path><path d="M312.32,145.46v1.13a.25.25,0,0,1-.25.25.25.25,0,0,1-.25-.25v-1.13a.49.49,0,0,0-.49-.47.48.48,0,0,0-.47.49v1.15h0a0,0,0,0,1,0,0v0a.28.28,0,0,1-.24.15h-.05a.27.27,0,0,1-.2-.25v-1.11h0v-.73a.25.25,0,0,1,.48-.11,1,1,0,0,1,.5-.14,1,1,0,0,0,1.48,0,1,1,0,0,1,1,1v1.11a.25.25,0,0,1-.5,0v-1.11a.49.49,0,0,0-1,0Z" style="fill:#c7c7c7"></path><path d="M315.77,146.84a1,1,0,0,1-1-1v-1.12a.25.25,0,0,1,.5,0v1.12a.47.47,0,0,0,.48.48.5.5,0,0,0,.5-.48v-1.12a.24.24,0,0,1,.24-.25.26.26,0,0,1,.26.25v1.12A1,1,0,0,1,315.77,146.84Z" style="fill:#c7c7c7"></path><path d="M319.58,145.47v1.12a.25.25,0,1,1-.49,0v-1.12a.49.49,0,0,0-.49-.48.47.47,0,0,0-.47.48v1.12a.09.09,0,0,1,0,0,.27.27,0,0,1-.25.2.24.24,0,0,1-.25-.25v-1.85a.24.24,0,0,1,.25-.25.25.25,0,0,1,.23.14.92.92,0,0,1,.5-.14A1,1,0,0,1,319.58,145.47Z" style="fill:#c7c7c7"></path><path d="M321,143.9a.26.26,0,0,1-.25.26.26.26,0,0,1-.26-.26v-.1a.26.26,0,0,1,.26-.26.26.26,0,0,1,.25.26Zm0,.85v1.84a.25.25,0,0,1-.25.25.26.26,0,0,1-.26-.25v-1.84a.26.26,0,0,1,.26-.26A.25.25,0,0,1,321,144.75Z" style="fill:#c7c7c7"></path><path d="M322.89,144.75a.26.26,0,0,1-.26.25h-.12v1.32a.26.26,0,0,1,.26.26.25.25,0,0,1-.26.26.52.52,0,0,1-.52-.52V145h-.14a.26.26,0,1,1,0-.51H322v-.69a.26.26,0,0,1,.26-.26.26.26,0,0,1,.26.26v.69h.12A.26.26,0,0,1,322.89,144.75Z" style="fill:#c7c7c7"></path><path d="M325.5,144.74v1.78a1.11,1.11,0,0,1-1.13,1.12,1.09,1.09,0,0,1-.48-.11.26.26,0,0,1-.13-.34.27.27,0,0,1,.34-.1.66.66,0,0,0,.27.06.62.62,0,0,0,.59-.43.87.87,0,0,1-.45.12,1,1,0,0,1-1-1v-1.11a.25.25,0,0,1,.24-.25.24.24,0,0,1,.25.25v1.11a.49.49,0,0,0,1,0v-1.11a.23.23,0,0,1,.24-.25A.25.25,0,0,1,325.5,144.74Z" style="fill:#c7c7c7"></path><polygon points="323.58 368.9 325.95 368.9 324.76 370.35 323.58 368.9" style="fill:#c7c7c7"></polygon><rect x="201.4" y="149.92" width="11.47" height="0.5" style="fill:#0EA2BD"></rect><rect x="188.03" y="112.65" width="123.95" height="12.08" style="opacity:0.1"></rect><path d="M235.59,121.38l-1,.74-1.81-2.39-.66-.88a1.58,1.58,0,0,0,.38-.21,1.56,1.56,0,0,0,.5-.65l.7.93Z" style="fill:#fff"></path><path d="M233.66,115.75a2.67,2.67,0,1,0-.86,4,2.92,2.92,0,0,0,.37-.24,2.66,2.66,0,0,0,.49-3.74Zm-1.14,2.89a1.63,1.63,0,0,1-2.24-.29,1.61,1.61,0,0,1,.3-2.24A1.6,1.6,0,0,1,233,118,1.56,1.56,0,0,1,232.52,118.64Z" style="fill:#fff"></path><path d="M240.61,120a.48.48,0,0,1,.67-.06,3,3,0,0,0,1.76.7,1.91,1.91,0,0,0,1.14-.34.82.82,0,0,0,.4-.66.48.48,0,0,0-.09-.29.87.87,0,0,0-.27-.28,3.81,3.81,0,0,0-1.26-.43h0a5.09,5.09,0,0,1-1.18-.35,2,2,0,0,1-.85-.72,1.39,1.39,0,0,1-.21-.75,1.7,1.7,0,0,1,.73-1.34A2.73,2.73,0,0,1,243,115a3.55,3.55,0,0,1,2,.74.48.48,0,0,1,.13.65.47.47,0,0,1-.66.13,2.62,2.62,0,0,0-1.47-.58,1.77,1.77,0,0,0-1,.31.71.71,0,0,0-.35.58.39.39,0,0,0,.07.25.68.68,0,0,0,.24.24,3.21,3.21,0,0,0,1.15.41h0a5.34,5.34,0,0,1,1.26.38,2.16,2.16,0,0,1,.92.76,1.48,1.48,0,0,1,.22.78,1.76,1.76,0,0,1-.79,1.42,2.86,2.86,0,0,1-1.69.53,4,4,0,0,1-2.35-.92A.5.5,0,0,1,240.61,120Z" style="fill:#fff"></path><path d="M246.51,119.27a2.27,2.27,0,0,1,2.24-2.29,2.19,2.19,0,0,1,2.21,2.13v0a.28.28,0,0,1,0,.09.44.44,0,0,1-.48.36h-2.91a1.15,1.15,0,0,0,.31.61,1.42,1.42,0,0,0,.88.41,1.44,1.44,0,0,0,.95-.23.52.52,0,0,1,.69,0,.41.41,0,0,1,0,.59,2.33,2.33,0,0,1-1.64.61A2.28,2.28,0,0,1,246.51,119.27Zm1-.45h2.6a1.52,1.52,0,0,0-1.36-1A1.29,1.29,0,0,0,247.51,118.82Z" style="fill:#fff"></path><path d="M256.3,119.28v1.8a.49.49,0,0,1-.49.49.51.51,0,0,1-.48-.4,2,2,0,0,1-1.22.4,2.16,2.16,0,0,1-1.56-.67,2.36,2.36,0,0,1-.62-1.62,2.32,2.32,0,0,1,.62-1.61,2.09,2.09,0,0,1,2.78-.29.5.5,0,0,1,.48-.4.49.49,0,0,1,.49.5Zm-1,0a1.34,1.34,0,0,0-.35-.94,1.15,1.15,0,0,0-.86-.38,1.09,1.09,0,0,0-.85.38,1.34,1.34,0,0,0-.35.94,1.39,1.39,0,0,0,.35,1,1.15,1.15,0,0,0,.85.36,1.2,1.2,0,0,0,.86-.36A1.39,1.39,0,0,0,255.32,119.28Z" style="fill:#fff"></path><path d="M260.92,117.47a.49.49,0,0,1-.49.48.89.89,0,0,0-.55.18,1.36,1.36,0,0,0-.42.44,2.92,2.92,0,0,0-.38.77v1.74a.5.5,0,0,1-1,0v-3.61a.5.5,0,0,1,1,0v.06a1.12,1.12,0,0,1,.2-.18,2,2,0,0,1,1.15-.36A.48.48,0,0,1,260.92,117.47Z" style="fill:#fff"></path><path d="M261.57,119.28a2.33,2.33,0,0,1,2.33-2.3,2.45,2.45,0,0,1,1.46.5.5.5,0,0,1,.1.68.5.5,0,0,1-.69.1,1.43,1.43,0,0,0-.87-.3,1.37,1.37,0,0,0-1.36,1.32,1.35,1.35,0,0,0,1.36,1.31,1.44,1.44,0,0,0,.87-.29.5.5,0,0,1,.69.1.51.51,0,0,1-.1.68,2.58,2.58,0,0,1-1.46.49A2.32,2.32,0,0,1,261.57,119.28Z" style="fill:#fff"></path><path d="M268.15,121.06a.51.51,0,0,1-1,0v-5.41a.51.51,0,0,1,1,0v1.6a2,2,0,0,1,3,1.74v2.07a.51.51,0,1,1-1,0V119a1,1,0,1,0-2,0Z" style="fill:#fff"></path><path d="M259.29,96.09H240.71A1.14,1.14,0,0,1,239.56,95h0a1.14,1.14,0,0,1,1.15-1.15h18.58A1.14,1.14,0,0,1,260.43,95h0A1.14,1.14,0,0,1,259.29,96.09Z" style="fill:#263238"></path></g><g id="freepik--character-2--inject-21"><polygon points="352.5 342.05 350.13 356.28 334.06 453.09 331.46 453.09 343.15 356.28 344.88 342.05 352.5 342.05" style="fill:#dbdbdb"></polygon><polygon points="344.88 342.05 352.5 342.05 350.13 356.28 343.15 356.28 344.88 342.05" style="fill:#a6a6a6"></polygon><polygon points="402.99 453.09 400.4 453.09 384.32 356.28 381.95 342.05 389.57 342.05 391.3 356.28 402.99 453.09" style="fill:#dbdbdb"></polygon><polygon points="389.57 342.05 391.3 356.28 384.32 356.28 381.95 342.05 389.57 342.05" style="fill:#a6a6a6"></polygon><polygon points="451.21 453.09 448.62 453.09 432.54 356.28 430.17 342.05 437.79 342.05 439.52 356.28 451.21 453.09" style="fill:#dbdbdb"></polygon><polygon points="439.52 356.28 432.54 356.28 430.17 342.05 437.79 342.05 439.52 356.28" style="fill:#a6a6a6"></polygon><polygon points="447.1 348.73 329.3 348.73 329.3 336.32 373.4 336.32 388.22 250.09 442.61 250.09 447.1 348.73" style="fill:#dbdbdb"></polygon><polygon points="447.1 348.73 440.68 348.73 436.49 250.09 442.61 250.09 447.1 348.73" style="fill:#a6a6a6"></polygon><path d="M335.43,456.78c2.22.28,63.33-12.37,65.3-14.28.24-.21-.79-5.76-2.32-13.33l0-.15c-.95-4.8-17.48-43.88-17.48-43.88l-39.65,9.79,16.8,36.31s-7.56,5.12-14.06,10v0a87.66,87.66,0,0,0-8.22,6.58C333.84,450.16,333.21,456.52,335.43,456.78Z" style="fill:#ad6359"></path><path d="M335.43,456.78c2.22.28,63.32-12.37,65.3-14.28.24-.21-.79-5.76-2.32-13.33l0-.15c-.35-1.78-2.88-8.35-5.9-15.87-6.52,1.55-29.91,7.13-38.41,9.48l4,8.61s-7.56,5.13-14.06,10h0a87.43,87.43,0,0,0-8.22,6.59C333.84,450.17,333.21,456.53,335.43,456.78Z" style="fill:#ebebeb"></path><path d="M335.22,457.07c2.29.26,63.44-12.55,65.46-14.51.77-.74-.28-10.36-3.31-20.61L358,430.25s-20.46,15.23-22.44,17.62S332.94,456.8,335.22,457.07Z" style="fill:#0EA2BD"></path><path d="M335.59,454.44c10.2-2.4,51.55-11.12,61.82-12.72.08,0,.09,0,0,.07-10.06,2.6-51.48,11-61.8,12.81C335.41,454.64,335.37,454.49,335.59,454.44Z" style="fill:#263238"></path><path d="M355,432c4.09-.92,9.15-.47,12.4,2.35.13.11,0,.29-.16.25a58,58,0,0,0-12.2-2.08A.26.26,0,0,1,355,432Z" style="fill:#263238"></path><path d="M352.05,433.85c4.09-.91,9.15-.46,12.41,2.36.12.11,0,.29-.17.25a57.9,57.9,0,0,0-12.2-2.09A.26.26,0,0,1,352.05,433.85Z" style="fill:#263238"></path><path d="M349.14,435.75c4.09-.91,9.15-.46,12.41,2.36.12.11,0,.28-.17.25a57.9,57.9,0,0,0-12.2-2.09A.26.26,0,0,1,349.14,435.75Z" style="fill:#263238"></path><path d="M346.23,437.65c4.1-.92,9.16-.46,12.41,2.36.12.11,0,.28-.17.25a57.9,57.9,0,0,0-12.2-2.09A.26.26,0,0,1,346.23,437.65Z" style="fill:#263238"></path><path d="M335.23,457.06c.71.08,7.14-1.1,15.72-2.84l-5.52-14.48c-4.66,3.6-9,7.08-9.91,8.13C333.55,450.25,332.94,456.79,335.23,457.06Z" style="opacity:0.1"></path><path d="M356.47,432.21l42.09-9.94s-36.19-82.93-33.11-87c1.55-2.05,40.74-2.65,53.2-13.23,16.19-13.73,5.33-34.72,5.33-34.72L380.21,286s.53,9.16-1.18,10.54c-1.12.92-53.27,5.3-59,22.9C313,341,356.47,432.21,356.47,432.21Z" style="fill:#455a64"></path><path d="M356.49,425.69c1.1-.52,12-3.72,14.45-4.35,4.92-1.26,9.86-2.49,14.81-3.63,2.59-.59,8.13-1.88,8.47-1.82.16,0,.19.31,0,.36-4.8,1.59-9.67,2.93-14.54,4.28s-21.64,5.4-23.11,5.5C356.46,426,356.33,425.77,356.49,425.69Z" style="fill:#263238"></path><path d="M358,331.61a6.75,6.75,0,0,1,3.3-1q9.48-1.57,19-3.18c5.91-1,11.86-1.87,17.74-3,4.87-.94,9.83-2.21,14-4.85a20.39,20.39,0,0,0,8.61-11.27,36.52,36.52,0,0,0,1.11-14.45c-.11-1.17-.33-2.35-.55-3.51,0-.09.13-.12.14,0,1.61,9,1.75,19.39-5,26.55-3.28,3.48-7.78,5.53-12.37,6.86a140.73,140.73,0,0,1-15.92,3.1L369.1,330c-3,.51-6.13.9-9.15,1.53a3.23,3.23,0,0,0-1.64.73,2.35,2.35,0,0,0-.27,2.2c.3,1.49.71,3,1.13,4.42,3.45,11.78,30,74.22,30.66,75.51a.12.12,0,0,1-.21.11c-5.8-10.34-25.92-60-29.75-71.12a70.3,70.3,0,0,1-2.48-8.67C357.17,333.6,357,332.4,358,331.61Z" style="fill:#263238"></path><path d="M272.83,459.44c2.12.71,64.52.48,66.83-1,.28-.16.37-5.8.38-13.53v-.15c0-4.89,1.53-46.71,1.53-46.71l-39.05-.32-2.44,41.18s-8.43,3.51-15.77,7h0a87.6,87.6,0,0,0-9.36,4.82C272.58,452.63,270.71,458.74,272.83,459.44Z" style="fill:#ad6359"></path><path d="M272.83,459.43c2.12.72,64.52.49,66.83-1,.28-.15.37-5.8.39-13.52v-.15c0-.34,0-.69,0-1s0-.5,0-.75,0-.74,0-1.12c.08-3.25.24-8.53.44-14.31l-39.79-.26-.68,11.62s-8.43,3.51-15.77,7h0a88.52,88.52,0,0,0-9.36,4.82C272.59,452.63,270.7,458.74,272.83,459.43Z" style="fill:#ebebeb"></path><path d="M272.57,459.67c2.19.72,64.66.34,67-1.18.9-.57,1.78-10.21.86-20.86l-40.28.29s-23.08,10.85-25.5,12.8S270.38,459,272.57,459.67Z" style="fill:#0EA2BD"></path><path d="M273.45,457.17c10.47-.32,52.74-.63,63.11-.15.09,0,.09.06,0,.06-10.37.55-52.64.51-63.11.26C273.23,457.33,273.23,457.17,273.45,457.17Z" style="fill:#263238"></path><path d="M296.91,439c4.19-.08,9.06,1.37,11.69,4.78.1.14-.09.28-.22.21a57.93,57.93,0,0,0-11.54-4.47A.27.27,0,0,1,296.91,439Z" style="fill:#263238"></path><path d="M293.68,440.28c4.19-.09,9.06,1.36,11.69,4.77.1.14-.09.28-.22.22a58,58,0,0,0-11.54-4.48A.26.26,0,0,1,293.68,440.28Z" style="fill:#263238"></path><path d="M290.45,441.56c4.19-.09,9.06,1.36,11.69,4.78.1.13-.09.27-.21.21a58.28,58.28,0,0,0-11.55-4.48A.26.26,0,0,1,290.45,441.56Z" style="fill:#263238"></path><path d="M287.22,442.84c4.2-.09,9.06,1.36,11.69,4.78.1.13-.09.27-.21.21a57.81,57.81,0,0,0-11.55-4.48A.26.26,0,0,1,287.22,442.84Z" style="fill:#263238"></path><path d="M297.91,439.5h44s-.55-81.58,2.9-86c4.6-5.89,69-5.75,82.81-24.95,12.4-17.24,1.93-41.63,1.93-41.63l-48.77-1.45a101.94,101.94,0,0,0,4.52,15.36s-58.74,10.84-75.2,28.86C299,341.87,297.91,439.5,297.91,439.5Z" style="fill:#455a64"></path><path d="M376.77,297.5a23.12,23.12,0,0,1,4.13,1.33c1.4.53,2.78,1.14,4.13,1.8a82.41,82.41,0,0,1,7.71,4.36c.08.05,0,.16-.08.12-2.63-1.37-5.36-2.61-8.09-3.78l-3.94-1.7a42.91,42.91,0,0,1-4-1.76A.2.2,0,0,1,376.77,297.5Z" style="fill:#263238"></path><path d="M379.69,285.47c.56,2.22,1.05,4.47,1.69,6.67.29,1,.58,2,1,3,.32.82.81,1.77,1.77,2s1.42-.74,1.33-1.65-.36-2-.56-3c-.23-1.16-.47-2.31-.68-3.47-.1-.58-.21-1.16-.31-1.74,0-.15-.13-1.26-.21-1.58a.06.06,0,0,1-.06.05h0a.07.07,0,0,1-.07-.06.13.13,0,0,1,.06-.16s.06,0,.1,0c.21.12.22.41.29.62.18.56.36,1.12.53,1.69.31,1.07.61,2.13.88,3.2s.53,2.15.79,3.22a5,5,0,0,1,.22,2.48,1.89,1.89,0,0,1-1.75,1.42l.12.22c.1.22.17.45.25.67s.16.46.23.7a2,2,0,0,1,.06.34c0,.13,0,.26,0,.39a.19.19,0,0,1-.35.12c-.06-.11-.14-.2-.21-.31a2.43,2.43,0,0,1-.16-.37c-.07-.22-.14-.45-.19-.67s-.13-.46-.17-.68a3,3,0,0,1,0-.41,2.69,2.69,0,0,1-1.29-.49,4.33,4.33,0,0,1-1.33-2c-.33-.92-.59-1.88-.85-2.83a40.73,40.73,0,0,1-1.42-7.18C379.27,285.3,379.63,285.2,379.69,285.47Z" style="fill:#263238"></path><path d="M408.69,290.91c.2,1.11.33,2.23.59,3.32s.54,2.14.89,3.19a11.44,11.44,0,0,0,1.36,2.87,10.72,10.72,0,0,0,2.16,2.2,18.63,18.63,0,0,0,5.23,2.91,24.65,24.65,0,0,0,2.9.85c.51.11,1,.2,1.55.27a3.27,3.27,0,0,1,1.25.29.25.25,0,0,1,0,.43,4.51,4.51,0,0,1-2.31.08,17.27,17.27,0,0,1-2.47-.44,17.62,17.62,0,0,1-4.67-2,14.63,14.63,0,0,1-3.9-3.19,11.08,11.08,0,0,1-2.09-4.57,22.53,22.53,0,0,1-.68-6.22C408.49,290.81,408.67,290.79,408.69,290.91Z" style="fill:#263238"></path><path d="M335.62,382.3q.64-10.4,1.72-20.74c.18-1.7.35-3.41.56-5.11a15.67,15.67,0,0,1,.86-3.88c1-2.59,3.17-3.9,5.78-4.56,3.08-.78,6.27-1.25,9.4-1.75s6.42-1,9.64-1.44c6.51-.9,13-1.74,19.51-2.83a154.57,154.57,0,0,0,19.15-4.32c5.76-1.74,11.67-3.89,16.28-7.88,9.93-8.61,10.29-23,9.08-35.09-.17-1.7-.38-3.4-.59-5.1,0-.09.13-.12.14,0,.78,6.79,1.7,13.63,1,20.47a33.5,33.5,0,0,1-5.42,15.86c-3.36,4.82-8.34,7.93-13.71,10.1a108.13,108.13,0,0,1-18.27,5.27c-12.87,2.69-26,3.84-38.95,6.05-1.6.28-3.19.57-4.78.88a19.54,19.54,0,0,0-4.32,1.15c-2.94,1.32-3.75,4.18-4.11,7.14-.85,6.87-1.42,13.79-1.92,20.69-1,13.91-1.53,27.9-1.51,41.85,0,1.73,0,9.52,0,11.24,0,.16-.23.14-.23,0C334.56,416.29,334.74,396.25,335.62,382.3Z" style="fill:#263238"></path><path d="M300,433a26.31,26.31,0,0,1,3.65-.31c1.28-.07,2.56-.15,3.85-.2q3.78-.15,7.57-.17c5.09,0,10.17,0,15.26.11,2.65.06,8.33.16,8.65.31.15.06.11.34-.05.35-5,.36-10.09.47-15.15.59s-10.09.23-15.14.1c-1.4,0-2.79-.1-4.19-.16a31.12,31.12,0,0,1-4.42-.26C299.86,433.3,299.8,433,300,433Z" style="fill:#263238"></path><path d="M342.08,385.11c.06-4.76.2-9.51.3-14.27.1-4.49,0-9,.87-13.48.36-1.78.68-4.15,2.59-5a22.35,22.35,0,0,1,3.12-.92c1.12-.29,2.26-.58,3.4-.83,5.25-1.13,10.57-1.84,15.9-2.56.09,0,.13.13,0,.15-4.5.87-9,1.75-13.48,2.77-2.23.51-4.47,1-6.68,1.65-.9.25-2.14.42-2.77,1.17a7.42,7.42,0,0,0-1.09,3c-1,4.34-.95,8.87-1.07,13.3-.12,4.6-.23,9.19-.36,13.79-.15,5.15-.29,10.32-.64,15.47a.11.11,0,0,1-.22,0C341.88,394.63,342,389.87,342.08,385.11Z" style="fill:#263238"></path><path d="M385,301a163,163,0,0,0-26.6,5.46,186.28,186.28,0,0,0-25.67,9.29c-4.67,2.1-9.19,4.45-13.66,6.91-.09.05,0,.18.08.13a207.84,207.84,0,0,1,25-10.9,200.77,200.77,0,0,1,26-7.55c5-1.08,10-1.92,15-2.75C385.47,301.5,385.38,300.93,385,301Z" style="fill:#263238"></path><path d="M381.43,235.6c.9,18.51-3.87,42.69-6.44,44.7-4.53,3.55-32.25,11-38.14,11.8-2.31.32-4.25.55-5.62.72-3.39.4-10.19-21.77-7.93-24.64.53-.66,2.74-1.27,5.87-1.84,10.52-1.9,33.61-3.72,34.89-4.43,1.57-.87,2.63-14.35,8.33-27.8C376.4,224.66,381,225.76,381.43,235.6Z" style="fill:#ad6359"></path><path d="M335.43,265.27,341,294s26.51-7.06,34.6-12.85c4.35-3.11,7-34.36,6.56-44.58-.46-10.06-5.19-15.21-10.17-3.78-4.71,10.8-7.47,27.47-8.26,28.09S335.43,265.27,335.43,265.27Z" style="fill:#0EA2BD"></path><path d="M342.69,278c-.46-2-.93-4-1.41-6s-.89-4-1.52-6c0-.09-.18-.07-.17,0,.24,2,.71,3.92,1.1,5.87s.84,4.12,1.28,6.17c.86,4.07,1.88,8.09,3,12.11a.08.08,0,0,0,.15-.05C344.38,286.07,343.62,282,342.69,278Z" style="fill:#263238"></path><path d="M358,288.81c2.49-.84,5-1.75,7.39-2.68l1.05-.42.42-.17c1.32-.54,2.59-1.09,3.76-1.65.59-.27,1.15-.55,1.68-.81l1.08-.58,1.11-.65c.4-.24.77-.49,1.1-.73,4.35-3.11,7-34.36,6.55-44.58l0-.58c-.44-7.16-3.11-11.61-6.44-8.9C370.59,244.12,362.27,274.45,358,288.81Z" style="opacity:0.1"></path><path d="M368.86,299.18c1.62,1.2,65.45-1.4,65.69-1.85s-21-67.16-44.78-74.3c-3.77-1.13-9.74-.26-13.18,3.25C366.4,236.67,367.84,298.42,368.86,299.18Z" style="fill:#0EA2BD"></path><path d="M379.3,235.06c4.6,0,8.76-6.72,9.74-11.56.07-.33-1.29-3.19-2.78-6.73-.9-2.16-1.85-4.58-2.55-6.86l-13.18,7.89a37.78,37.78,0,0,1,4.08,8.3,4.94,4.94,0,0,1,.19,1,1.43,1.43,0,0,0,0,.16C375.09,229.08,375.83,235.06,379.3,235.06Z" style="fill:#ad6359"></path><path d="M370.53,217.79a38.27,38.27,0,0,1,4.08,8.3,4.94,4.94,0,0,1,.19,1,1.1,1.1,0,0,0,0,.16,7.89,7.89,0,0,0,1.49-.37c8.55-3.08,7.29-13.63,6.77-16.56Z" style="fill:#263238"></path><path d="M378.48,192.07c3.67,4.14,7.5,19.2,5.5,23.87-2.9,6.76-10.82,10.91-17.37,6.7-6.35-4.08-11-23.79-8.46-28.36C361.87,187.55,373.05,186,378.48,192.07Z" style="fill:#ad6359"></path><path d="M368.56,207.11s.09,0,.1.07c.2,1,.61,2.16,1.6,2.28a0,0,0,0,1,0,.06C369.11,209.62,368.59,208.11,368.56,207.11Z" style="fill:#263238"></path><path d="M369.22,205.84c1.6-.5,2.48,2.74,1,3.2S367.88,206.26,369.22,205.84Z" style="fill:#263238"></path><path d="M362.67,208.71s-.07.07-.05.11c.3,1,.49,2.19-.33,2.77,0,0,0,.06,0,0C363.38,211.18,363.12,209.6,362.67,208.71Z" style="fill:#263238"></path><path d="M361.49,207.91c-1.65.32-.89,3.59.63,3.29S362.87,207.64,361.49,207.91Z" style="fill:#263238"></path><path d="M369.91,204.94a12.62,12.62,0,0,1-1.38-.1,2.28,2.28,0,0,1-1.38-.37.71.71,0,0,1-.12-.86,1.76,1.76,0,0,1,1.66-.64,2.63,2.63,0,0,1,1.74.68A.76.76,0,0,1,369.91,204.94Z" style="fill:#263238"></path><path d="M359.79,206.62a10.75,10.75,0,0,0,1.19-.68,2.26,2.26,0,0,0,1.09-.93.71.71,0,0,0-.27-.83,1.78,1.78,0,0,0-1.78.15,2.56,2.56,0,0,0-1.26,1.37A.75.75,0,0,0,359.79,206.62Z" style="fill:#263238"></path><path d="M372.05,215.68c-.12.33-.19.74-.51.93a2.88,2.88,0,0,1-1.12.27,0,0,0,0,0,0,.07,1.41,1.41,0,0,0,1.43-.09,1.1,1.1,0,0,0,.33-1.19A.06.06,0,0,0,372.05,215.68Z" style="fill:#263238"></path><path d="M370,213.14a3.5,3.5,0,0,1-1.86,2.14,4.53,4.53,0,0,1-1.21.4l-.47.06a.26.26,0,0,1-.26-.17h0s-.52-2.16-.52-2.16c-.24.22-1.5,1.26-1.59.85a53.17,53.17,0,0,1-1.5-10.69.1.1,0,0,1,.19,0c.81,3.24,1.05,6.59,1.82,9.85a6.35,6.35,0,0,1,1.48-.93c.06,0,.57,2.67.58,2.69a4.92,4.92,0,0,0,3.24-2.06C369.93,213,370,213,370,213.14Z" style="fill:#263238"></path><path d="M383.9,203c-3.54,1.84-7.34-1.69-8-5.56,0,0-9.16,5.5-13-2.09a8.35,8.35,0,0,1-4.8,6.24l.16,3.35c-1.12.14-3.41-2.23-1.94-5.51a10.12,10.12,0,0,1,.34-7.54,5.78,5.78,0,0,1,5.36-3.28,8.8,8.8,0,0,1,5.23-4,7.46,7.46,0,0,1,6.67,1.53s5.22-1.17,7.52,1.89a7.72,7.72,0,0,1,1.54,6.12s1.79.82,2.44,4C385.82,200.22,385,202.45,383.9,203Z" style="fill:#263238"></path><path d="M362.79,194.57a10.14,10.14,0,0,0,.81,1.92,8.47,8.47,0,0,0,1.15,1.68,5.35,5.35,0,0,0,3.47,1.83,8.69,8.69,0,0,0,4-.66c.62-.29,1.27-.54,1.88-.87s1.2-.69,1.82-1c-.56.42-1.13.81-1.7,1.23s-1.24.67-1.86,1a8.59,8.59,0,0,1-4.17.79,5.59,5.59,0,0,1-3.7-2.06A8.57,8.57,0,0,1,362.79,194.57Z" style="fill:#263238"></path><path d="M373.9,186.16a9.9,9.9,0,0,1,3.92-.78,5.93,5.93,0,0,1,3.82,1.35,6.51,6.51,0,0,1,1.25,1.62,6,6,0,0,1,.72,1.91,5.47,5.47,0,0,1-.65,3.91,6,6,0,0,0,.28-3.82,6.67,6.67,0,0,0-1.93-3.26,5,5,0,0,0-1.62-1,7.84,7.84,0,0,0-1.88-.38A12.38,12.38,0,0,0,373.9,186.16Z" style="fill:#263238"></path><path d="M362,188.62a9.78,9.78,0,0,0-3.09.69,6,6,0,0,0-2.48,1.8,6.06,6.06,0,0,0-1.18,2.82,10.93,10.93,0,0,0,0,3.18,8,8,0,0,1-.37-3.22,5.76,5.76,0,0,1,1.17-3.09,5.83,5.83,0,0,1,2.73-1.85A7.51,7.51,0,0,1,362,188.62Z" style="fill:#263238"></path><path d="M359.74,201.25a11.18,11.18,0,0,0,2.26-2.86,6.79,6.79,0,0,0,.62-1.68,8.48,8.48,0,0,0,.18-1.83,4.61,4.61,0,0,1,.19,1.89,4.8,4.8,0,0,1-.56,1.84,6,6,0,0,1-1.15,1.54A5.56,5.56,0,0,1,359.74,201.25Z" style="fill:#263238"></path><path d="M362.12,214.42c-1.52.42-3.26-1.12-3.89-3.41s.11-4.5,1.63-4.91,3.26,1.12,3.88,3.41S363.63,214,362.12,214.42ZM360,206.66c-1.21.33-1.76,2.21-1.22,4.2s2,3.33,3.18,3,1.75-2.21,1.21-4.2S361.22,206.33,360,206.66Z" style="fill:#a6a6a6"></path><path d="M371.45,211.89a4.33,4.33,0,1,1,2.75-5.22A4.18,4.18,0,0,1,371.45,211.89Zm-2.11-7.77a3.75,3.75,0,1,0,4.31,2.7A3.6,3.6,0,0,0,369.34,204.12Z" style="fill:#a6a6a6"></path><path d="M366.51,208.36c-2.28-.17-3,.77-3,.78l-.46-.35s.91-1.2,3.55-1Z" style="fill:#a6a6a6"></path><path d="M373.82,206.38l-.25-.52c.35-.16,8.41-4,9.33-4.34s3.57.34,3.86.41l-.14.56a10.85,10.85,0,0,0-3.5-.43h0C382.38,202.3,376.72,205,373.82,206.38Z" style="fill:#a6a6a6"></path><path d="M380.53,205.85s1.2-5.91,3.75-5.67,3,7.84,1,9.79a2.68,2.68,0,0,1-3.87.11Z" style="fill:#ad6359"></path><path d="M384.36,202.36a0,0,0,0,1,0,.06c-1.39,1.42-1.6,3.38-1.52,5.28a1.47,1.47,0,0,1,1.87-1.25c.06,0,0,.1,0,.11a1.64,1.64,0,0,0-1.43,1.25,8,8,0,0,0-.21,1.69c0,.19-.32.22-.34,0v0C381.77,207.34,382.14,203.59,384.36,202.36Z" style="fill:#263238"></path><path d="M374.76,226.75l5.16,7.87,8.46-13,3.71,2.86s-6.93,19.31-7.16,18.55l-5-6.67-4.06,6.16-2.19-13Z" style="fill:#0EA2BD"></path><path d="M374.42,236.2c-.29-2.16-.64-4.32-.83-6.48,0-.08.1-.14.14-.05.84,2,1.9,10.21,2.3,12.16l0,0c.17-.27,3.81-5.47,3.87-5.41,1,1,4.67,5.87,4.95,6.32,1.09-3.06,5.9-15.25,7.33-18.23,0-.08.17,0,.14.05-.87,3.18-7,19.22-7.16,19.21a80.31,80.31,0,0,1-5.26-7.06c-.58,1.09-4.15,6.86-4.23,6.54A66.6,66.6,0,0,1,374.42,236.2Z" style="fill:#263238"></path><path d="M401.25,230.27c12.52,14.32,27.83,41,25,48.12-3.73,9.46-48.83,14.73-56.24,15.45-3.16.31-1.19-26.87,2.18-27.26,2.94-.35,27.53-3.71,28.55-5.18.59-.86-2.94-8.83-8.2-28.35C389.17,220.45,397.84,226.36,401.25,230.27Z" style="fill:#ad6359"></path><path d="M381.58,269.26a99.89,99.89,0,0,1-9.9-3.37c-5.72-2.12-21-3.61-32.42,9.21-4.37,4.91-2.83,10.12,2.61,5.82,3.84-3,6.23-5.45,7.76-6.09,0,0-1.71,7.28,1.16,10.53a80.21,80.21,0,0,0,8.1,8,16.14,16.14,0,0,0,1.62-1.39,9.1,9.1,0,0,0,9.52,1.91Z" style="fill:#ad6359"></path><path d="M365.9,264.74c-3,1.14-9.29,3.66-13.72,7.51-4.93,4.28-13.26,13.85-10.07,17.45,2.35,2.64,5.85-.73,5.85-.73s-2.61,4.68,0,6.6c2.4,1.76,5-1,5-1s-1.1,3.12,1.54,4.36c3.18,1.49,5-5.28,9.48-6.54C365,292.08,365.9,264.74,365.9,264.74Z" style="fill:#ad6359"></path><path d="M357.57,276.7a26,26,0,0,0-9.64,12.14c0,.12,0,.22.1.12a64.15,64.15,0,0,1,9.58-12.22S357.6,276.68,357.57,276.7Z" style="fill:#263238"></path><path d="M361.74,281.8c-2.14,1.55-7.16,6.95-8.89,12.69,0,.12,0,.22.1.11a68.71,68.71,0,0,1,8.83-12.76S361.77,281.78,361.74,281.8Z" style="fill:#263238"></path><path d="M372,265.7l10.86,29.08S423,287.93,427,279.6c3.41-7-13.09-34.4-19-42-12-15.33-18.67-16.26-16.17-4.74,2.9,13.4,8.17,27.37,7.54,28.08S372,265.7,372,265.7Z" style="fill:#0EA2BD"></path><path d="M383.31,279.59c-.8-2.16-1.6-4.32-2.42-6.47s-1.56-4.34-2.51-6.41c-.05-.1-.2-.06-.17.05.57,2.15,1.36,4.26,2.07,6.36s1.53,4.46,2.3,6.68c1.53,4.4,3.23,8.72,5,13,.05.11.18,0,.15-.07C386.34,288.32,384.9,283.93,383.31,279.59Z" style="fill:#263238"></path><path d="M372.09,265.32c9.11-1.72,18.32-2.82,27.42-4.51-1-3.54-2.3-7-3.39-10.53-.2-.62-.38-1.26-.57-1.89-.88-1.66-1.74-3.33-2.53-5,0,0,0-.06.05,0,.77,1.37,1.49,2.75,2.2,4.15q-1.22-4.06-2.4-8.15c0-.07.07-.1.09,0,1.26,3.59,2.53,7.17,3.74,10.78s2.19,7.3,3.49,10.87a.31.31,0,0,1-.18.39c-4.57,1-9.22,1.69-13.85,2.41s-9.2,1.46-13.84,2c0,.25,0,.51,0,.77a.14.14,0,0,1-.27,0l-.17-1C371.88,265.43,372,265.34,372.09,265.32Z" style="fill:#263238"></path><path d="M382,292.38l1,2.37-.12-.07c4-.86,8-1.72,12-2.69s7.95-1.92,11.89-3a112.12,112.12,0,0,0,11.63-3.82,37,37,0,0,0,5.49-2.65,13.45,13.45,0,0,0,2.42-1.82,4.85,4.85,0,0,0,1.52-2.57,4.76,4.76,0,0,1-1.33,2.75,14.29,14.29,0,0,1-2.36,2,36.28,36.28,0,0,1-5.45,2.95A93,93,0,0,1,407,289.91c-4,1.12-8,2-12,2.91s-8.07,1.54-12.15,2.07h-.09l0-.08Z" style="fill:#263238"></path><rect x="337.83" y="299.11" width="56.41" height="2.53" style="fill:#455a64"></rect><rect x="355.85" y="299.11" width="38.39" height="2.53" style="fill:#a6a6a6"></rect><polygon points="356.9 301.64 311.93 301.64 304.16 264.31 349.13 264.31 356.9 301.64" style="fill:#a6a6a6"></polygon><polygon points="354.41 301.64 309.43 301.64 301.67 264.31 346.64 264.31 354.41 301.64" style="fill:#dbdbdb"></polygon><path d="M330.9,283a2.53,2.53,0,0,1-2.56,2.86,3.26,3.26,0,0,1-3.17-2.86,2.53,2.53,0,0,1,2.57-2.87A3.25,3.25,0,0,1,330.9,283Z" style="fill:#fff"></path><path d="M297.39,265c-.8,3.9-3.91,9.26-3.55,12.2a3.39,3.39,0,0,0,2.68,3s-2.49,2.11-1.73,4.72c.4,1.35,2.89,1.9,2.89,1.9a4,4,0,0,0-1.11,4.06c.66,1.82,3.06,2.1,3.06,2.1s-1.05,2.58.21,4.21c2.55,3.32,18.65-.63,19.68-7.17.48-3.05-3.4-1.87-3.4-1.87s5.17-3,4.44-6.38-5.68-1.51-5.68-1.51,5-3,3.88-6.37S313,273,313,273s3-3.3,1.54-5.7c-2.38-4-7.83,3.09-11.58,3.12l-3.38-5.35Z" style="fill:#ad6359"></path><path d="M295.41,270.83c.44-3.76-4.87-7-5-10.62-.14-4.94,6.27-1.64,9.12,4.89l1.32,5.45Z" style="fill:#ad6359"></path><path d="M300,293.07a0,0,0,0,0,0,.09,28.74,28.74,0,0,0,16.34-5.06c.15-.11,0-.4-.15-.31A58.87,58.87,0,0,1,300,293.07Z" style="fill:#263238"></path><path d="M297.61,286.86c-.07,0-.05.12,0,.12a26.9,26.9,0,0,0,17.48-6.63c.16-.15.16-.45,0-.29C311.64,282.77,302.9,286,297.61,286.86Z" style="fill:#263238"></path><path d="M313.23,272.6c-4.78,4.08-10.39,6.23-16.47,7.6-.08,0,0,.12,0,.13,3.15.14,6.93-1.14,9.79-2.38a16.7,16.7,0,0,0,6.79-5.18C313.44,272.68,313.33,272.51,313.23,272.6Z" style="fill:#263238"></path></g><g id="freepik--marketing-icons--inject-21"><circle cx="321.09" cy="159.16" r="5.62" style="fill:#0EA2BD"></circle><path d="M306.4,171.64a5.63,5.63,0,1,1-5.63-5.63A5.63,5.63,0,0,1,306.4,171.64Z" style="fill:#0EA2BD"></path><path d="M326.71,184.11a5.63,5.63,0,1,1-5.62-5.62A5.63,5.63,0,0,1,326.71,184.11Z" style="fill:#0EA2BD"></path><polygon points="320.65 185.42 299.26 171.62 320.66 158.47 321.51 159.85 302.29 171.65 321.52 184.07 320.65 185.42" style="fill:#0EA2BD"></polygon><g id="freepik--aiZGp2--inject-21"><path d="M280.07,222.19a24.73,24.73,0,0,0-1.65,7.54h-6.67v-.19c0-.17,0-.34.05-.51a18,18,0,0,1,.44-2.63,20,20,0,0,1,1.49-4.11.14.14,0,0,1,.16-.1h6.18Z" style="fill:#0EA2BD"></path><path d="M279.87,239h-6.13a.14.14,0,0,1-.15-.1,19.5,19.5,0,0,1-1.83-7s0-.06,0-.08v-.19h6.56c.12,0,.11,0,.12.12,0,.53.07,1.07.13,1.6a19.61,19.61,0,0,0,.41,2.53,22.36,22.36,0,0,0,.87,3Z" style="fill:#0EA2BD"></path><path d="M305.66,241l-.05.09a17.3,17.3,0,0,1-1.74,2.25,16.69,16.69,0,0,1-2.55,2.35,18,18,0,0,1-2.9,1.8,17.79,17.79,0,0,1-3.06,1.19,20.1,20.1,0,0,1-2.56.55l-.25,0h-.15l-.14-.09.16-.12a19.43,19.43,0,0,0,4.84-4.69,22.68,22.68,0,0,0,2-3.28.13.13,0,0,1,.15-.09h6.27Z" style="fill:#0EA2BD"></path><path d="M299.53,229.72h-8.62V222.2h6.73a.12.12,0,0,1,.13.09,20.68,20.68,0,0,1,1.37,4.41,19.34,19.34,0,0,1,.33,2.39Z" style="fill:#0EA2BD"></path><path d="M299.48,231.73c0,.18,0,.36,0,.53,0,.42-.07.84-.13,1.26-.08.58-.17,1.15-.28,1.72a19.78,19.78,0,0,1-1.12,3.68.14.14,0,0,1-.16.11h-6.9v-7.3Z" style="fill:#0EA2BD"></path><path d="M289,222.24v7.54h-8.41l0-.57c.05-.42.08-.84.15-1.26.1-.64.21-1.28.35-1.91a19.39,19.39,0,0,1,1.21-3.71.14.14,0,0,1,.15-.09H289Z" style="fill:#0EA2BD"></path><path d="M289,231.83V239h-6.72a.14.14,0,0,1-.15-.1,19.37,19.37,0,0,1-1.15-3.8c-.12-.67-.22-1.34-.3-2-.06-.44-.07-.89-.1-1.33v-.05h8.31C289,231.72,289,231.75,289,231.83Z" style="fill:#0EA2BD"></path><path d="M308.66,229.78H301.6a24.5,24.5,0,0,0-1.64-7.59h6.58a.13.13,0,0,1,.15.09,18.34,18.34,0,0,1,1.63,4.72,21.58,21.58,0,0,1,.34,2.65Z" style="fill:#0EA2BD"></path><path d="M308.67,231.68c0,.17,0,.33,0,.49a17.28,17.28,0,0,1-.23,1.9,18.41,18.41,0,0,1-1.3,4.24c-.09.22-.2.43-.29.65,0,0-.05.07-.11.07h-6.56l.24-.66a22.8,22.8,0,0,0,.87-3.44,22.06,22.06,0,0,0,.3-2.56c0-.2,0-.41,0-.61s0-.08.07-.07h7Z" style="fill:#0EA2BD"></path><path d="M305.47,220.27v0h-6.27a.15.15,0,0,1-.15-.09,21.41,21.41,0,0,0-3.06-4.54,17.89,17.89,0,0,0-2.35-2.17c-.42-.32-.86-.62-1.29-.94l-.07-.05.08-.06a.93.93,0,0,0,0-.13,18.45,18.45,0,0,1,13.16,8Z" style="fill:#0EA2BD"></path><path d="M287.77,249.15a.42.42,0,0,1-.18,0,15.83,15.83,0,0,1-2-.39,17.73,17.73,0,0,1-3.58-1.33,18.37,18.37,0,0,1-3.65-2.39,16.94,16.94,0,0,1-2.2-2.2,17.3,17.3,0,0,1-1.37-1.9s0,0,0-.05h5.85c.08,0,.11,0,.15.1a22,22,0,0,0,2.11,3.44,20.8,20.8,0,0,0,2.48,2.74,18.34,18.34,0,0,0,2.38,1.92Z" style="fill:#0EA2BD"></path><path d="M287.7,212.5l-.87.64a22.07,22.07,0,0,0-2.79,2.59,20.05,20.05,0,0,0-2.92,4.17l-.15.29a.18.18,0,0,1-.09.06H275a18.34,18.34,0,0,1,12.68-7.89l0,.07Z" style="fill:#0EA2BD"></path><path d="M297,241a19.93,19.93,0,0,1-2.85,3.84,17.92,17.92,0,0,1-3.25,2.76V241Z" style="fill:#0EA2BD"></path><path d="M289,241v6.48a18.83,18.83,0,0,1-5.85-6.48Z" style="fill:#0EA2BD"></path><path d="M296.76,220.24h-5.85v-6.17a17.73,17.73,0,0,1,3.29,2.75A20.47,20.47,0,0,1,296.76,220.24Z" style="fill:#0EA2BD"></path><path d="M289,214.26v6h-5.62A17.92,17.92,0,0,1,289,214.26Z" style="fill:#0EA2BD"></path></g><ellipse cx="373.32" cy="150.1" rx="18.45" ry="18.17" transform="translate(108.91 453.4) rotate(-70.82)" style="fill:#0EA2BD"></ellipse><path d="M387.51,149.87a14.45,14.45,0,0,1-14.1,14.6,14.11,14.11,0,0,1-14.29-14.13,14.45,14.45,0,0,1,14.1-14.6A14.11,14.11,0,0,1,387.51,149.87Z" style="fill:#fff"></path><path d="M383.55,149.94a10.41,10.41,0,0,1-10.17,10.52,10.18,10.18,0,0,1-10.3-10.19,10.42,10.42,0,0,1,10.17-10.52A10.17,10.17,0,0,1,383.55,149.94Z" style="fill:#0EA2BD"></path><path d="M379.55,150a6.35,6.35,0,0,1-6.19,6.41,6.19,6.19,0,0,1-6.27-6.2,6.33,6.33,0,0,1,6.19-6.41A6.19,6.19,0,0,1,379.55,150Z" style="fill:#fff"></path><path d="M376.09,150.06a2.82,2.82,0,0,1-2.75,2.85,2.76,2.76,0,0,1-2.8-2.76,2.82,2.82,0,0,1,2.76-2.85A2.75,2.75,0,0,1,376.09,150.06Z" style="fill:#0EA2BD"></path><polygon points="373.17 150.16 354.12 140.15 354.26 139.87 373.32 149.89 373.17 150.16" style="fill:#263238"></polygon><polygon points="352.99 140.63 353.06 140.6 354.29 140.23 351.88 138.97 350.57 139.37 352.99 140.63" style="fill:#263238"></polygon><path d="M351.59,137.43l.43,1.27,2.41,1.25a5.85,5.85,0,0,1-.43-1.26Z" style="fill:#263238"></path><polygon points="373.9 149.79 373.4 150.7 372.06 150.58 372.94 149.86 373.03 148.73 373.9 149.79" style="fill:#263238"></polygon><rect x="413.74" y="165.95" width="3.56" height="22.88" style="fill:#0EA2BD"></rect><rect x="419.86" y="169.76" width="3.56" height="19.08" style="fill:#0EA2BD"></rect><rect x="425.97" y="176.69" width="3.56" height="12.14" style="fill:#0EA2BD"></rect><rect x="432.09" y="169.42" width="3.56" height="19.41" style="fill:#0EA2BD"></rect><rect x="438.2" y="172.61" width="3.56" height="16.22" style="fill:#0EA2BD"></rect><rect x="444.32" y="162.76" width="3.56" height="26.07" style="fill:#0EA2BD"></rect><path d="M411.68,161.18l0,6.91,0,6.91,0,13.83-.09-.11c8.64,0,17.28,0,25.93,0l7.21,0,6.39.07-6.39.07-7.21,0c-8.65,0-17.29.06-25.93,0h-.09v-.11l0-13.83,0-6.91Z" style="fill:#263238"></path><path d="M410.89,162.76a2.41,2.41,0,0,1,.79-.12,2.12,2.12,0,0,1,.78.12,2.13,2.13,0,0,1-.78.13A2.18,2.18,0,0,1,410.89,162.76Z" style="fill:#263238"></path><path d="M410.89,165.51a2.42,2.42,0,0,1,.79-.13,2.36,2.36,0,0,1,.78.13,2.36,2.36,0,0,1-.78.13A2.42,2.42,0,0,1,410.89,165.51Z" style="fill:#263238"></path><path d="M410.89,168.25a2.17,2.17,0,0,1,.79-.12,2.12,2.12,0,0,1,.78.12,2.13,2.13,0,0,1-.78.13A2.18,2.18,0,0,1,410.89,168.25Z" style="fill:#263238"></path><path d="M410.89,171a2.42,2.42,0,0,1,.79-.13,2.13,2.13,0,0,1,.78.13,2.36,2.36,0,0,1-.78.13A2.42,2.42,0,0,1,410.89,171Z" style="fill:#263238"></path><path d="M410.89,173.74a2.42,2.42,0,0,1,.79-.13,2.36,2.36,0,0,1,.78.13,2.13,2.13,0,0,1-.78.13A2.42,2.42,0,0,1,410.89,173.74Z" style="fill:#263238"></path><path d="M410.89,176.49a2.18,2.18,0,0,1,.79-.13,2.13,2.13,0,0,1,.78.13,2.12,2.12,0,0,1-.78.12A2.17,2.17,0,0,1,410.89,176.49Z" style="fill:#263238"></path><path d="M410.89,179.23a2.42,2.42,0,0,1,.79-.13,2.36,2.36,0,0,1,.78.13,2.36,2.36,0,0,1-.78.13A2.42,2.42,0,0,1,410.89,179.23Z" style="fill:#263238"></path><path d="M410.89,182a2.18,2.18,0,0,1,.79-.13,2.13,2.13,0,0,1,.78.13,2.12,2.12,0,0,1-.78.12A2.41,2.41,0,0,1,410.89,182Z" style="fill:#263238"></path><path d="M410.89,184.72a2.42,2.42,0,0,1,.79-.13,2.36,2.36,0,0,1,.78.13,2.36,2.36,0,0,1-.78.13A2.42,2.42,0,0,1,410.89,184.72Z" style="fill:#263238"></path><path d="M322,263c-.15-.3-.29-.61-.42-.91l.45-.21.42.91Z" style="fill:#0EA2BD"></path><path d="M320.8,260.21c-.25-.63-.5-1.26-.73-1.9l.47-.17c.23.63.47,1.26.72,1.88Zm-1.4-3.82c-.21-.64-.41-1.29-.6-1.94l.48-.14c.19.65.39,1.29.6,1.93Zm-1.13-3.9c-.16-.65-.32-1.31-.46-2l.49-.1c.14.66.29,1.31.46,2Zm-.86-4c-.12-.67-.23-1.33-.32-2l.49-.07c.1.67.21,1.33.32,2Zm-.58-4c-.08-.67-.14-1.35-.19-2l.5,0c.05.67.11,1.34.19,2Zm-.31-4.05c0-.68,0-1.35,0-2h.5c0,.68,0,1.35,0,2Zm.47-4-.5,0c0-.67.05-1.35.09-2l.5,0C317,235.05,317,235.72,317,236.4Zm.25-4-.5,0c.06-.68.14-1.35.22-2l.5.06C317.37,231,317.3,231.71,317.24,232.38Zm.51-4-.49-.08c.11-.67.23-1.34.36-2l.49.1Q317.92,227.39,317.75,228.38Zm.79-3.95-.48-.12c.15-.66.32-1.31.5-2l.48.13C318.86,223.12,318.7,223.78,318.54,224.43Zm1.06-3.89-.47-.14c.2-.65.41-1.3.64-1.94l.47.16C320,219.26,319.81,219.9,319.6,220.54Zm1.34-3.81-.47-.18c.25-.64.51-1.26.77-1.89l.46.2C321.44,215.48,321.18,216.1,320.94,216.73Zm1.59-3.71-.45-.21q.44-.93.9-1.83l.44.23C323.12,211.81,322.82,212.41,322.53,213Zm1.85-3.59-.44-.25c.33-.59.67-1.17,1-1.75l.43.25C325,208.26,324.71,208.84,324.38,209.43Zm2.08-3.45-.42-.28q.57-.85,1.14-1.68l.41.29C327.21,204.86,326.83,205.41,326.46,206Zm2.32-3.3-.4-.3c.41-.55.83-1.08,1.26-1.61l.39.32C329.6,201.61,329.19,202.14,328.78,202.68Zm2.54-3.14-.38-.32c.45-.51.9-1,1.36-1.51l.37.33Q332,198.79,331.32,199.54Zm87.45-1.2c-.46-.5-.92-1-1.39-1.47l.36-.35c.47.49.94,1,1.4,1.48Zm-84.7-1.75-.36-.35c.48-.48,1-1,1.46-1.41l.34.36C335,195.65,334.54,196.12,334.07,196.59Zm81.87-1.13c-.48-.46-1-.92-1.48-1.36l.33-.38q.76.67,1.5,1.38ZM337,193.84l-.33-.38c.51-.44,1-.88,1.56-1.31l.31.39Zm75.93-1.05c-.52-.43-1-.85-1.57-1.26l.3-.4c.54.42,1.07.84,1.59,1.27Zm-72.81-1.5-.3-.39c.54-.41,1.08-.81,1.64-1.21l.29.41C341.2,190.49,340.66,190.89,340.12,191.29Zm69.62-1c-.55-.4-1.1-.78-1.66-1.15l.28-.42c.56.38,1.12.76,1.67,1.16ZM343.41,189l-.28-.42,1.72-1.09.26.43C344.54,188.24,344,188.6,343.41,189Zm63-.88c-.57-.36-1.14-.7-1.73-1l.25-.44c.59.34,1.17.69,1.75,1Zm-59.54-1.22-.24-.43c.58-.33,1.18-.66,1.78-1l.23.45C348,186.23,347.42,186.54,346.84,186.87Zm56.05-.78c-.6-.32-1.2-.62-1.81-.91l.22-.45c.61.29,1.22.6,1.82.91ZM350.41,185l-.22-.45c.61-.29,1.23-.57,1.85-.84l.2.46C351.62,184.45,351,184.73,350.41,185Zm48.85-.69q-.93-.41-1.86-.78l.18-.47c.63.25,1.26.52,1.88.79Zm-45.17-.91-.18-.47,1.9-.71.17.47C355.35,182.94,354.72,183.17,354.09,183.42Zm41.42-.59c-.63-.23-1.26-.45-1.91-.65l.16-.48q1,.31,1.92.66Zm-37.62-.76-.15-.48q1-.3,1.95-.57l.13.48C359.17,181.68,358.53,181.87,357.89,182.07Zm33.78-.48c-.64-.18-1.29-.36-1.94-.52l.11-.49c.66.17,1.32.34,2,.53Zm-29.9-.6-.12-.49,2-.44.1.49C363.08,180.69,362.42,180.83,361.77,181Zm26-.37c-.66-.14-1.32-.27-2-.38l.08-.5c.67.12,1.34.25,2,.39Zm-22-.44-.09-.49c.67-.12,1.34-.22,2-.31l.07.5C367,180,366.38,180.07,365.72,180.18Zm18.06-.26c-.66-.09-1.33-.17-2-.24l.05-.5c.68.07,1.35.15,2,.25Zm-14.07-.28,0-.49c.67-.07,1.35-.13,2-.17l0,.5C371.05,179.52,370.38,179.58,369.71,179.64Zm10.06-.14c-.66-.05-1.34-.08-2-.11l0-.5c.68,0,1.35.06,2,.11Zm-6-.12,0-.5,1.87,0h.17v.5h-.17C375,179.35,374.35,179.36,373.73,179.38Z" style="fill:#0EA2BD"></path><path d="M420.78,200.64l-.65-.76.38-.33c.22.25.44.51.65.77Z" style="fill:#0EA2BD"></path><path d="M316.72,233.21h-2v-.5h2Zm-4,0h-1.59v-.5h1.59Z" style="fill:#0EA2BD"></path><path d="M333.93,196.38,332.51,195l.36-.35,1.41,1.41Zm-2.83-2.82-1.42-1.42.36-.35,1.41,1.41Z" style="fill:#0EA2BD"></path><path d="M417.24,196.38l-.36-.35,1.42-1.41.35.35Zm2.83-2.82-.36-.36,1.42-1.41.35.35Z" style="fill:#0EA2BD"></path><path d="M375.83,179.1h-.5v-2h.5Zm0-4h-.5v-2h.5Z" style="fill:#0EA2BD"></path></g><g id="freepik--social-media-icons--inject-21"><circle cx="172.41" cy="89.66" r="19.42" transform="translate(45.39 236.73) rotate(-76.66)" style="fill:#0EA2BD"></circle><polygon points="165.17 97.12 165.17 82.2 182.95 89.66 165.17 97.12" style="fill:#fff"></polygon><circle cx="127.07" cy="69.9" r="26.22" style="fill:#455a64"></circle><path d="M126.43,62.64c-.06,1.66,0,3.35,0,5.16h6.52c-.28,2.14-.52,4.13-.84,6.09,0,.2-.51.44-.79.46-1.57,0-3.14,0-4.85,0V96.09A25.51,25.51,0,0,1,119.54,95V74.41h-5.7V67.86h5.58c0-.5.06-.9.06-1.27,0-1.73,0-3.46.14-5.16.36-3.76,2.66-6.4,6.38-6.91a52.7,52.7,0,0,1,7.12-.06v5.95c-.85,0-1.72,0-2.58,0a10.85,10.85,0,0,0-2.28.16A2.15,2.15,0,0,0,126.43,62.64Z" style="fill:#fff"></path><circle cx="190.5" cy="135.69" r="26.22" style="fill:#455a64"></circle><path d="M176.18,148a14.68,14.68,0,0,0,9.45-2.91c-3.91-1.19-5.47-2.38-6-4.6l2.62-.13c-3.09-1.19-4.9-3.26-5.14-6.64l2.7.71c-2.83-3.56-3.4-6.32-1.71-8.89a19.47,19.47,0,0,0,13.85,6.92c0-.44,0-.77-.06-1.1a6.38,6.38,0,0,1,3.71-6.41,6.44,6.44,0,0,1,7.36.89,1.34,1.34,0,0,0,1.49.3l3.27-1.2a6.67,6.67,0,0,1-2.57,3.3l.07.19,3.24-.83.13.13c-.84.84-1.64,1.72-2.52,2.51a1.72,1.72,0,0,0-.71,1.45,19,19,0,0,1-17.25,19,19.19,19.19,0,0,1-11.25-2.29C176.61,148.27,176.4,148.13,176.18,148Z" style="fill:#fff"></path><circle cx="170.74" cy="181.03" r="19.39" transform="translate(-42.02 310.1) rotate(-77.92)" style="fill:#0EA2BD"></circle><path d="M182.3,174.65a4.85,4.85,0,0,0-5.1-5.21q-6.47-.08-12.95,0a4.84,4.84,0,0,0-5.07,5.1c0,2.15,0,4.31,0,6.46s0,4.22,0,6.33c0,3.21,2,5.27,5.18,5.3q6.41.08,12.81,0a4.9,4.9,0,0,0,5.14-5.2Q182.33,181,182.3,174.65Zm-2.06,12.82a2.83,2.83,0,0,1-3.09,3.11q-6.41,0-12.81,0a2.81,2.81,0,0,1-3.09-3.1q0-6.45,0-12.92a2.84,2.84,0,0,1,3.08-3.12q6.4,0,12.81,0a2.85,2.85,0,0,1,3.1,3.11c0,2.16,0,4.31,0,6.46S180.26,185.32,180.24,187.47Z" style="fill:#fff"></path><path d="M170.75,175a6,6,0,1,0,6,6.13A6,6,0,0,0,170.75,175ZM170.68,185a4.09,4.09,0,0,1-4-4,4,4,0,0,1,8.06,0A4.09,4.09,0,0,1,170.68,185Z" style="fill:#fff"></path><path d="M178.59,174.82a1.38,1.38,0,0,1-2.75-.25,1.33,1.33,0,0,1,1.45-1.29A1.36,1.36,0,0,1,178.59,174.82Z" style="fill:#fff"></path></g></svg>
