<svg class="animated" id="freepik_stories-discount" xmlns="http://www.w3.org/2000/svg" viewBox="0 0 700 500" version="1.1" xmlns:xlink="http://www.w3.org/1999/xlink" xmlns:svgjs="http://svgjs.com/svgjs"><style>svg#freepik_stories-discount:not(.animated) .animable {opacity: 0;}svg#freepik_stories-discount.animated #freepik--Smartphone--inject-99 {animation: 6s Infinite  linear floating;animation-delay: 0s;}            @keyframes floating {                0% {                    opacity: 1;                    transform: translateY(0px);                }                50% {                    transform: translateY(-10px);                }                100% {                    opacity: 1;                    transform: translateY(0px);                }            }        </style><g id="freepik--Shadow--inject-99" class="animable" style="transform-origin: 348.42px 455.85px;"><ellipse cx="348.42" cy="455.85" rx="276.06" ry="13.49" style="fill: rgb(14, 162, 189); transform-origin: 348.42px 455.85px;" id="elj6cr0mjlc1r" class="animable"></ellipse></g><g id="freepik--Lamp--inject-99" class="animable" style="transform-origin: 571.061px 289.645px;"><path d="M604.62,447.55h-29.9V162.39h-7.3V447.55h-29.9a8.49,8.49,0,0,0-7.46,4.44,2.79,2.79,0,0,0,2.53,4h77a2.79,2.79,0,0,0,2.54-4A8.5,8.5,0,0,0,604.62,447.55Z" style="fill: rgb(153, 153, 153); stroke: rgb(38, 50, 56); stroke-linecap: round; stroke-linejoin: round; stroke-width: 1.00652px; transform-origin: 571.095px 309.19px;" id="el5f2obzw219s" class="animable"></path><path d="M520.73,208.73c-1.23-.32-2.39-.65-3.61-1a5.58,5.58,0,0,1-3.74-7.06l23.07-71.89c3.38,1.08,5.08,1.56,8.52,2.37l-17.4,73.48A5.58,5.58,0,0,1,520.73,208.73Z" style="fill: rgb(14, 162, 189); transform-origin: 529.041px 168.846px;" id="el1kh52ytreoj" class="animable"></path><path d="M535.46,212.07c-1.23-.22-2.39-.45-3.62-.71a5.58,5.58,0,0,1-4.27-6.74L545,131.14c3.43.81,5.16,1.15,8.63,1.69L542,207.44A5.58,5.58,0,0,1,535.46,212.07Z" style="fill: rgb(14, 162, 189); transform-origin: 540.525px 171.653px;" id="elu6o009x69r" class="animable"></path><g id="elhdh6eo2ijs"><path d="M535.46,212.07c-1.23-.22-2.39-.45-3.62-.71a5.58,5.58,0,0,1-4.27-6.74L545,131.14c3.43.81,5.16,1.15,8.63,1.69L542,207.44A5.58,5.58,0,0,1,535.46,212.07Z" style="fill: rgb(255, 255, 255); opacity: 0.3; transform-origin: 540.525px 171.653px;" class="animable"></path></g><path d="M550.36,214.25c-1.23-.12-2.39-.26-3.62-.42a5.58,5.58,0,0,1-4.78-6.39l11.64-74.61c3.48.55,5.22.75,8.72,1q-2.93,37.64-5.84,75.28A5.57,5.57,0,0,1,550.36,214.25Z" style="fill: rgb(14, 162, 189); transform-origin: 552.107px 173.554px;" id="els9v54c61mii" class="animable"></path><g id="el3kg93fnwr8f"><path d="M550.36,214.25c-1.23-.12-2.39-.26-3.62-.42a5.58,5.58,0,0,1-4.78-6.39l11.64-74.61c3.48.55,5.22.75,8.72,1q-2.93,37.64-5.84,75.28A5.57,5.57,0,0,1,550.36,214.25Z" style="fill: rgb(255, 255, 255); opacity: 0.5; transform-origin: 552.107px 173.554px;" class="animable"></path></g><path d="M565.36,215.27c-1.22,0-2.39-.07-3.61-.14a5.58,5.58,0,0,1-5.27-6q2.92-37.63,5.84-75.28c3.49.27,5.25.34,8.75.34v75.5A5.57,5.57,0,0,1,565.36,215.27Z" style="fill: rgb(14, 162, 189); transform-origin: 563.767px 174.561px;" id="elt6gvxb8fty" class="animable"></path><path d="M580.4,215.13c-1.22.07-2.39.11-3.62.14a5.57,5.57,0,0,1-5.71-5.58v-75.5c3.51,0,5.26-.07,8.76-.34q2.91,37.64,5.83,75.28A5.57,5.57,0,0,1,580.4,215.13Z" style="fill: rgb(14, 162, 189); transform-origin: 578.374px 174.561px;" id="el3m6jga63zav" class="animable"></path><g id="els2v6t3wfkqi"><path d="M580.4,215.13c-1.22.07-2.39.11-3.62.14a5.57,5.57,0,0,1-5.71-5.58v-75.5c3.51,0,5.26-.07,8.76-.34q2.91,37.64,5.83,75.28A5.57,5.57,0,0,1,580.4,215.13Z" style="fill: rgb(255, 255, 255); opacity: 0.3; transform-origin: 578.374px 174.561px;" class="animable"></path></g><path d="M595.4,213.83c-1.22.16-2.39.3-3.61.42a5.58,5.58,0,0,1-6.13-5.12q-2.91-37.63-5.83-75.28c3.49-.27,5.24-.47,8.71-1l11.64,74.61A5.57,5.57,0,0,1,595.4,213.83Z" style="fill: rgb(14, 162, 189); transform-origin: 590.037px 173.564px;" id="el2zbcohd3ctl" class="animable"></path><g id="elbuqtagb171o"><path d="M595.4,213.83c-1.22.16-2.39.3-3.61.42a5.58,5.58,0,0,1-6.13-5.12q-2.91-37.63-5.83-75.28c3.49-.27,5.24-.47,8.71-1l11.64,74.61A5.57,5.57,0,0,1,595.4,213.83Z" style="fill: rgb(255, 255, 255); opacity: 0.7; transform-origin: 590.037px 173.564px;" class="animable"></path></g><path d="M610.3,211.36c-1.22.26-2.39.49-3.61.71a5.59,5.59,0,0,1-6.51-4.63l-11.64-74.61c3.48-.54,5.21-.88,8.64-1.69q8.7,36.74,17.39,73.48A5.56,5.56,0,0,1,610.3,211.36Z" style="fill: rgb(14, 162, 189); transform-origin: 601.632px 171.649px;" id="el1pqvx13cvaj" class="animable"></path><path d="M625,207.72c-1.22.36-2.38.69-3.61,1a5.59,5.59,0,0,1-6.85-4.11q-8.69-36.75-17.39-73.48c3.43-.81,5.14-1.29,8.52-2.37l23.07,71.89A5.58,5.58,0,0,1,625,207.72Z" style="fill: rgb(14, 162, 189); transform-origin: 613.08px 168.831px;" id="elclbctpyqu35" class="animable"></path><g id="el703os7t2lre"><path d="M625,207.72c-1.22.36-2.38.69-3.61,1a5.59,5.59,0,0,1-6.85-4.11q-8.69-36.75-17.39-73.48c3.43-.81,5.14-1.29,8.52-2.37l23.07,71.89A5.58,5.58,0,0,1,625,207.72Z" style="fill: rgb(255, 255, 255); opacity: 0.3; transform-origin: 613.08px 168.831px;" class="animable"></path></g><path d="M605.7,128.71c-3.38,1.08-5.09,1.55-8.52,2.37s-5.16,1.15-8.64,1.69-5.21.75-8.71,1-5.25.34-8.76.34-5.26-.07-8.75-.34-5.24-.48-8.72-1-5.2-.88-8.63-1.69-5.14-1.29-8.52-2.37c3.38-1.09,5.08-1.56,8.52-2.37s5.16-1.16,8.63-1.7,5.22-.74,8.72-1,5.25-.34,8.75-.34,5.26.07,8.76.34,5.24.47,8.71,1,5.21.88,8.64,1.7S602.32,127.62,605.7,128.71Z" style="fill: rgb(14, 162, 189); transform-origin: 571.075px 128.705px;" id="elpiutw3pook" class="animable"></path></g><g id="freepik--Plant--inject-99" class="animable" style="transform-origin: 140.216px 330.976px;"><path d="M171.17,342.11c7.76,4.85,26.62,23.26,33.21-15.37s-13.87-40.38-31.6-29.43C151.83,310.25,145.79,326.23,171.17,342.11Z" style="fill: rgb(14, 162, 189); transform-origin: 180.064px 321.118px;" id="elx5tibs8n25o" class="animable"></path><g id="elluva550udfm"><path d="M171.17,342.11c7.76,4.85,26.62,23.26,33.21-15.37s-13.87-40.38-31.6-29.43C151.83,310.25,145.79,326.23,171.17,342.11Z" style="opacity: 0.2; transform-origin: 180.064px 321.118px;" class="animable"></path></g><path d="M157.7,379.68s14.84-48.79,34.77-78.07" style="fill: none; stroke: rgb(38, 50, 56); stroke-linecap: round; stroke-linejoin: round; stroke-width: 1.19446px; transform-origin: 175.085px 340.645px;" id="elnn03axskbl" class="animable"></path><path d="M174.24,335.67a26,26,0,0,1,18.28,6.51" style="fill: none; stroke: rgb(38, 50, 56); stroke-linecap: round; stroke-linejoin: round; stroke-width: 1.19446px; transform-origin: 183.38px 338.914px;" id="ellh5zhrcgvsl" class="animable"></path><path d="M165.47,311.81c9.9,5.88,13.19,14.29,13.19,14.29" style="fill: none; stroke: rgb(38, 50, 56); stroke-linecap: round; stroke-linejoin: round; stroke-width: 1.19446px; transform-origin: 172.065px 318.955px;" id="el0ftar7rg9uyv" class="animable"></path><path d="M183.53,316.53s7.74-2.51,14.61,1.67" style="fill: none; stroke: rgb(38, 50, 56); stroke-linecap: round; stroke-linejoin: round; stroke-width: 1.19446px; transform-origin: 190.835px 316.991px;" id="el9u71b7d5i3b" class="animable"></path><path d="M187.66,309.21s-1.09-6.71-6.06-8.84" style="fill: none; stroke: rgb(38, 50, 56); stroke-linecap: round; stroke-linejoin: round; stroke-width: 1.19446px; transform-origin: 184.63px 304.79px;" id="elpbcqqpbc0ha" class="animable"></path><path d="M151.15,319.06c18.36,4.2,67.46,27.28,54.2-52.29s-54.2-69.17-81.3-35.9C92,270.15,91.07,305.32,151.15,319.06Z" style="fill: rgb(14, 162, 189); transform-origin: 154.968px 265.668px;" id="el3ksr1t6gp43" class="animable"></path><path d="M150.31,401.21S146.24,296.32,165.25,226" style="fill: none; stroke: rgb(38, 50, 56); stroke-linecap: round; stroke-linejoin: round; stroke-width: 1.19446px; transform-origin: 157.597px 313.605px;" id="els484hczgqob" class="animable"></path><path d="M152.77,304.47s17.59-8.38,39.93.33" style="fill: none; stroke: rgb(38, 50, 56); stroke-linecap: round; stroke-linejoin: round; stroke-width: 1.19446px; transform-origin: 172.735px 302.821px;" id="elvsop9muiec" class="animable"></path><path d="M154.91,282.89S142.84,268.75,119.62,264" style="fill: none; stroke: rgb(38, 50, 56); stroke-linecap: round; stroke-linejoin: round; stroke-width: 1.19446px; transform-origin: 137.265px 273.445px;" id="ela5vqpe5yzl" class="animable"></path><path d="M157.92,261s13.35-10.1,29.54-6.61" style="fill: none; stroke: rgb(38, 50, 56); stroke-linecap: round; stroke-linejoin: round; stroke-width: 1.19446px; transform-origin: 172.69px 257.328px;" id="el9e1npoezal" class="animable"></path><path d="M161,244s-6.64-12.3-17.74-13.1" style="fill: none; stroke: rgb(38, 50, 56); stroke-linecap: round; stroke-linejoin: round; stroke-width: 1.19446px; transform-origin: 152.13px 237.45px;" id="el9bvs0y0utg6" class="animable"></path><path d="M125.2,316.58c-13.77,6.56-48.51,33.49-52.1-31.77s30.62-64.27,57.93-42.76C163.28,267.45,170.27,295.08,125.2,316.58Z" style="fill: rgb(14, 162, 189); transform-origin: 114.975px 278.288px;" id="el1oxco1e7atk" class="animable"></path><g id="elsee965uqupk"><path d="M125.2,316.58c-13.77,6.56-48.51,33.49-52.1-31.77s30.62-64.27,57.93-42.76C163.28,267.45,170.27,295.08,125.2,316.58Z" style="fill: rgb(255, 255, 255); opacity: 0.5; transform-origin: 114.975px 278.288px;" class="animable"></path></g><path d="M140.39,381.38s-15.33-83.65-42.8-135.93" style="fill: none; stroke: rgb(38, 50, 56); stroke-linecap: round; stroke-linejoin: round; stroke-width: 1.19446px; transform-origin: 118.99px 313.415px;" id="el00drihillh4wb" class="animable"></path><path d="M121.33,305.32s-15.38-3.51-31.51,7.32" style="fill: none; stroke: rgb(38, 50, 56); stroke-linecap: round; stroke-linejoin: round; stroke-width: 1.19446px; transform-origin: 105.575px 308.709px;" id="el79x18xg1gst" class="animable"></path><path d="M115.83,288.64s7-13.31,24.56-21.19" style="fill: none; stroke: rgb(38, 50, 56); stroke-linecap: round; stroke-linejoin: round; stroke-width: 1.19446px; transform-origin: 128.11px 278.045px;" id="elh5x2vxpb3wp" class="animable"></path><path d="M109.58,271.85s-12.35-5.62-24.53,0" style="fill: none; stroke: rgb(38, 50, 56); stroke-linecap: round; stroke-linejoin: round; stroke-width: 1.19446px; transform-origin: 97.315px 270.601px;" id="el0bjucdwl2ayb" class="animable"></path><path d="M104.13,258.94s3.07-10.9,11.7-13.49" style="fill: none; stroke: rgb(38, 50, 56); stroke-linecap: round; stroke-linejoin: round; stroke-width: 1.19446px; transform-origin: 109.98px 252.195px;" id="eleuu97e8ewy" class="animable"></path><path d="M166.38,456H133.85a15.42,15.42,0,0,1-15.41-14.78l-3-71h69.28l-3,71A15.42,15.42,0,0,1,166.38,456Z" style="fill: rgb(255, 255, 255); stroke: rgb(38, 50, 56); stroke-linecap: round; stroke-linejoin: round; stroke-width: 1.19446px; transform-origin: 150.08px 413.11px;" id="elewil8qrojrk" class="animable"></path><path d="M186.67,375.19H113.25a5,5,0,0,1-4.94-4.95h0a4.94,4.94,0,0,1,4.94-4.94h73.42a4.94,4.94,0,0,1,5,4.94h0A5,5,0,0,1,186.67,375.19Z" style="fill: rgb(153, 153, 153); stroke: rgb(38, 50, 56); stroke-linecap: round; stroke-linejoin: round; stroke-width: 0.895842px; transform-origin: 149.99px 370.245px;" id="elrj5bji0lme" class="animable"></path></g><g id="freepik--Smartphone--inject-99" class="animable" style="transform-origin: 414.125px 224.9px;"><path d="M496.32,51.78H479.55V398h16.77A10.07,10.07,0,0,0,506.39,388V61.85A10.07,10.07,0,0,0,496.32,51.78Z" style="fill: rgb(153, 153, 153); stroke: rgb(38, 50, 56); stroke-linecap: round; stroke-linejoin: round; stroke-width: 1.00652px; transform-origin: 492.97px 224.89px;" id="elyf3dhqilkk" class="animable"></path><rect x="321.86" y="51.78" width="172.45" height="346.24" rx="10.07" style="fill: rgb(38, 50, 56); stroke: rgb(38, 50, 56); stroke-linecap: round; stroke-linejoin: round; stroke-width: 1.34202px; transform-origin: 408.085px 224.9px;" id="el0f89whqgc8cq" class="animable"></rect><path d="M435.46,72h0a7.8,7.8,0,0,1-7.73,6.81H387.1A7.8,7.8,0,0,1,379.37,72h0a7.78,7.78,0,0,0-7.72-6.81H343.07A7.79,7.79,0,0,0,335.28,73V376.81a7.79,7.79,0,0,0,7.79,7.79h130a7.79,7.79,0,0,0,7.79-7.79V73a7.79,7.79,0,0,0-7.79-7.79H443.18A7.78,7.78,0,0,0,435.46,72Z" style="fill: rgb(14, 162, 189); stroke: rgb(38, 50, 56); stroke-linecap: round; stroke-linejoin: round; stroke-width: 1.34202px; transform-origin: 408.07px 224.895px;" id="ely7cub9majhq" class="animable"></path><path d="M394.11,68.78a3.58,3.58,0,1,1-3.58-3.58A3.58,3.58,0,0,1,394.11,68.78Z" style="fill: rgb(14, 162, 189); stroke: rgb(38, 50, 56); stroke-linecap: round; stroke-linejoin: round; stroke-width: 1.34202px; transform-origin: 390.53px 68.78px;" id="el1ctxdfk25zf" class="animable"></path><path d="M424.08,65.2h-16a3.58,3.58,0,1,0,0,7.16h16a3.58,3.58,0,1,0,0-7.16Z" style="fill: rgb(153, 153, 153); stroke: rgb(38, 50, 56); stroke-linecap: round; stroke-linejoin: round; stroke-width: 1.00652px; transform-origin: 416.08px 68.78px;" id="eloarvy7ps91n" class="animable"></path><path d="M419.21,368.05H389.8a3.58,3.58,0,1,0,0,7.16h29.41a3.58,3.58,0,1,0,0-7.16Z" style="fill: rgb(153, 153, 153); stroke: rgb(38, 50, 56); stroke-linecap: round; stroke-linejoin: round; stroke-width: 1.00652px; transform-origin: 404.505px 371.63px;" id="elnjm7scp6wkc" class="animable"></path><path d="M502.85,133.4v-24a2,2,0,1,0-4,0v24a2,2,0,1,0,4,0Z" style="fill: rgb(38, 50, 56); transform-origin: 500.85px 121.4px;" id="elq5a4fq12jg" class="animable"></path><path d="M502.85,151.22v-8a2,2,0,1,0-4,0v8a2,2,0,0,0,4,0Z" style="fill: rgb(38, 50, 56); transform-origin: 500.85px 147.22px;" id="elvm17w81a4q" class="animable"></path><path d="M352.37,133.8v-4.66h8.8v5.33c0,4.24,1.86,5.76,4.83,5.76s4.82-1.52,4.82-5.76V121.19c0-4.24-1.86-5.85-4.82-5.85s-4.83,1.61-4.83,5.85v.5h-8.8l1.69-33.1h24.55v8.47H362.36l-.77,14.13h.17a8.76,8.76,0,0,1,8.05-4.31c6.85,0,10.32,4.82,10.32,13.54V133.8c0,9.48-4.74,14.9-13.88,14.9S352.37,143.28,352.37,133.8Z" style="fill: rgb(255, 255, 255); transform-origin: 366.25px 118.645px;" id="elb7z0ikxh3r8" class="animable"></path><path d="M385.82,133.8V102.65c0-9.48,5-14.9,14.14-14.9s14.13,5.42,14.13,14.9V133.8c0,9.48-5,14.9-14.13,14.9S385.82,143.28,385.82,133.8Zm19,.59V102.05c0-4.23-1.86-5.84-4.82-5.84s-4.83,1.61-4.83,5.84v32.34c0,4.23,1.86,5.84,4.83,5.84S404.78,138.62,404.78,134.39Z" style="fill: rgb(255, 255, 255); transform-origin: 399.955px 118.225px;" id="ell9ntflgqlyo" class="animable"></path><path d="M419.87,112V97.23c0-6.1,3.13-9.48,9-9.48s9,3.38,9,9.48V112c0,6.1-3.13,9.48-9,9.48S419.87,118.14,419.87,112Zm12,.43V96.81c0-2.63-1.19-3.73-3.05-3.73s-3,1.1-3,3.73v15.66c0,2.62,1.09,3.72,3,3.72S431.89,115.09,431.89,112.47Zm18.45-23.88h5.93l-22.94,59.26H427.4Zm-4.49,50.63V124.4c0-6.09,3.14-9.48,9-9.48s9,3.39,9,9.48v14.82c0,6.09-3.13,9.48-9,9.48S445.85,145.31,445.85,139.22Zm12,.42V124c0-2.63-1.19-3.73-3.05-3.73s-3.05,1.1-3.05,3.73v15.66c0,2.62,1.11,3.72,3.05,3.72S457.88,142.26,457.88,139.64Z" style="fill: rgb(255, 255, 255); transform-origin: 441.85px 118.225px;" id="elqorm9cm5xj" class="animable"></path><path d="M354.06,88.59h24.55v8.47H362.36l-.77,14.13h.17a8.76,8.76,0,0,1,8.05-4.31c5.58,0,8.92,3.2,10,9.11m-9,18.48V121.19c0-4.24-1.86-5.85-4.82-5.85s-4.83,1.61-4.83,5.85v.5h-8.8l1.3-25.45m1.86,32.9h5.64v5.33c0,4.24,1.86,5.76,4.83,5.76m14.13-10.8v4.37c0,9.48-4.74,14.9-13.88,14.9s-13.88-5.42-13.88-14.9m27.76-11v3.35" style="fill: none; stroke: rgb(38, 50, 56); stroke-linecap: round; stroke-linejoin: round; stroke-width: 1.00652px; transform-origin: 366.24px 118.645px;" id="el0b23zvmoa1w9" class="animable"></path><path d="M388.55,92.74c2.36-3.25,6.22-5,11.41-5,9.14,0,14.13,5.42,14.13,14.9v23.76m-28.27-23.76a22.13,22.13,0,0,1,.42-4.45m27.85,35.6c0,9.48-5,14.9-14.13,14.9s-14.14-5.42-14.14-14.9V109.19m19-7.14c0-4.23-1.86-5.84-4.82-5.84s-4.83,1.61-4.83,5.84v24.14m0,8.2c0,4.23,1.86,5.84,4.83,5.84s4.82-1.61,4.82-5.84v-27" style="fill: none; stroke: rgb(38, 50, 56); stroke-linecap: round; stroke-linejoin: round; stroke-width: 1.00652px; transform-origin: 399.955px 118.215px;" id="el7dg5bm7ki55" class="animable"></path><path d="M419.87,112V97.23c0-6.1,3.13-9.48,9-9.48s9,3.38,9,9.48m0,5.25V112c0,6.1-3.13,9.48-9,9.48-4.18,0-7-1.73-8.22-4.94m11.27-9.17V96.81c0-2.63-1.19-3.73-3.05-3.73s-3,1.1-3,3.73m0,5v10.66c0,2.62,1.09,3.72,3,3.72s3.05-1.1,3.05-3.72m4.57,27.3-3.13,8.08H427.4l19.54-50.48m.82,13.19-8.85,22.88m11.48-29.65-1.45,3.73M448.6,93.1l1.74-4.51h5.93L451.84,100m-6,39.19V124.4c0-6.09,3.14-9.48,9-9.48,4,0,6.68,1.56,8,4.47m.95,5v14.82c0,6.09-3.13,9.48-9,9.48-4.6,0-7.52-2.1-8.55-6m11.6-3.09V124c0-2.63-1.19-3.73-3.05-3.73s-3.05,1.1-3.05,3.73m0,3.11v12.55c0,2.62,1.11,3.72,3.05,3.72" style="fill: none; stroke: rgb(38, 50, 56); stroke-linecap: round; stroke-linejoin: round; stroke-width: 1.00652px; transform-origin: 441.83px 118.22px;" id="el9tjyagktnm6" class="animable"></path><rect x="347.95" y="192.32" width="120.27" height="120.27" style="fill: rgb(255, 255, 255); stroke: rgb(38, 50, 56); stroke-linecap: round; stroke-linejoin: round; stroke-width: 1.34202px; transform-origin: 408.085px 252.455px;" id="elrzkhxoht7no" class="animable"></rect><path d="M454.08,296.91c0,2.44-20.86,4.41-46.6,4.41s-46.59-2-46.59-4.41,20.86-4.42,46.59-4.42S454.08,294.47,454.08,296.91Z" style="fill: rgb(153, 153, 153); transform-origin: 407.485px 296.905px;" id="ela9h98idijx8" class="animable"></path><path d="M444.8,296.16H371.37a8.72,8.72,0,0,1-8.61-10l7.52-48.49a6.47,6.47,0,0,1,6.39-5.48H439.5a6.48,6.48,0,0,1,6.4,5.48l7.51,48.49A8.72,8.72,0,0,1,444.8,296.16Z" style="fill: rgb(14, 162, 189); stroke: rgb(38, 50, 56); stroke-linecap: round; stroke-linejoin: round; stroke-width: 1.34202px; transform-origin: 408.085px 264.175px;" id="elj1vokrugv7" class="animable"></path><path d="M437.41,253.43H378.76a6.36,6.36,0,0,1-6.22-5.05L370.12,237a5.78,5.78,0,0,1,5.65-7H440.4a5.78,5.78,0,0,1,5.65,7l-2.42,11.41A6.36,6.36,0,0,1,437.41,253.43Z" style="fill: rgb(14, 162, 189); stroke: rgb(38, 50, 56); stroke-linecap: round; stroke-linejoin: round; stroke-width: 1.34202px; transform-origin: 408.085px 241.715px;" id="el26fz7ptb1db" class="animable"></path><rect x="398.86" y="256.22" width="18.46" height="8.54" rx="0.9" style="fill: rgb(255, 255, 255); stroke: rgb(38, 50, 56); stroke-linecap: round; stroke-linejoin: round; stroke-width: 1.34202px; transform-origin: 408.09px 260.49px;" id="elunnwirah28b" class="animable"></rect><path d="M383,232.15h0a1.68,1.68,0,0,1-1.67-1.68v-5.16a1.68,1.68,0,0,1,1.67-1.68h0a1.68,1.68,0,0,1,1.68,1.68v5.16A1.68,1.68,0,0,1,383,232.15Z" style="fill: rgb(255, 255, 255); stroke: rgb(38, 50, 56); stroke-linecap: round; stroke-linejoin: round; stroke-width: 1.34202px; transform-origin: 383.005px 227.89px;" id="elhm6o4yy3g5" class="animable"></path><path d="M433.19,232.15h0a1.68,1.68,0,0,1-1.68-1.68v-5.16a1.68,1.68,0,0,1,1.68-1.68h0a1.68,1.68,0,0,1,1.68,1.68v5.16A1.68,1.68,0,0,1,433.19,232.15Z" style="fill: rgb(255, 255, 255); stroke: rgb(38, 50, 56); stroke-linecap: round; stroke-linejoin: round; stroke-width: 1.34202px; transform-origin: 433.19px 227.89px;" id="elzfpkm4dct3" class="animable"></path><rect x="402.44" y="248.47" width="11.28" height="11.28" rx="0.75" style="fill: rgb(255, 255, 255); stroke: rgb(38, 50, 56); stroke-linecap: round; stroke-linejoin: round; stroke-width: 1.34202px; transform-origin: 408.08px 254.11px;" id="eld2esl0cia4d" class="animable"></rect><path d="M387,223.63c1.46-27.08,40.65-27.14,42.11,0,.26,4.76,7.7,4.79,7.44,0-.83-15.4-12.39-28.57-28.49-28.49s-27.66,13-28.5,28.49c-.25,4.78,7.18,4.77,7.44,0Z" style="fill: rgb(38, 50, 56); stroke: rgb(38, 50, 56); stroke-linecap: round; stroke-linejoin: round; stroke-width: 1.34202px; transform-origin: 408.055px 211.175px;" id="el6msykni55c" class="animable"></path><path d="M359.17,258.26a2.14,2.14,0,0,1-1.52-.63L354,254a2.15,2.15,0,0,1,0-3l3.66-3.66a2.15,2.15,0,0,1,3,3l-2.13,2.14,2.13,2.13a2.15,2.15,0,0,1,0,3A2.1,2.1,0,0,1,359.17,258.26Z" style="fill: rgb(14, 162, 189); stroke: rgb(38, 50, 56); stroke-linecap: round; stroke-linejoin: round; stroke-width: 1.00652px; transform-origin: 357.33px 252.599px;" id="el432r9tamx2f" class="animable"></path><path d="M456.65,246.65a2.14,2.14,0,0,1,1.52.63l3.66,3.66a2.16,2.16,0,0,1,.63,1.52,2.13,2.13,0,0,1-.63,1.51l-3.66,3.66a2.15,2.15,0,1,1-3-3l2.14-2.13-2.14-2.14a2.17,2.17,0,0,1,0-3A2.14,2.14,0,0,1,456.65,246.65Z" style="fill: rgb(14, 162, 189); stroke: rgb(38, 50, 56); stroke-linecap: round; stroke-linejoin: round; stroke-width: 1.00652px; transform-origin: 458.366px 252.589px;" id="els217l4fhq4" class="animable"></path><rect x="362.71" y="325.93" width="101.14" height="25.5" rx="8.74" style="fill: rgb(153, 153, 153); stroke: rgb(38, 50, 56); stroke-linecap: round; stroke-linejoin: round; stroke-width: 1.00652px; transform-origin: 413.28px 338.68px;" id="eltyqgmoacex" class="animable"></rect><rect x="357.34" y="325.93" width="101.14" height="25.5" rx="8.74" style="fill: rgb(38, 50, 56); stroke: rgb(38, 50, 56); stroke-linecap: round; stroke-linejoin: round; stroke-width: 1.34202px; transform-origin: 407.91px 338.68px;" id="el9xth3l40tal" class="animable"></rect><path d="M380.44,331.74h3.21c2.2,0,3.15,1,3.15,3.11v.54c0,1.39-.43,2.26-1.37,2.65v0c1.14.38,1.58,1.39,1.58,2.82v1.16a2.88,2.88,0,0,1-3.23,3.21h-3.34Zm3,5.51c.79,0,1.27-.35,1.27-1.43v-.76c0-1-.33-1.39-1.08-1.39h-1v3.58Zm.38,6.09c.72,0,1.1-.33,1.1-1.34v-1.18c0-1.25-.4-1.64-1.37-1.64h-.95v4.16Z" style="fill: rgb(255, 255, 255); transform-origin: 383.736px 338.497px;" id="el7exdpegreed" class="animable"></path><path d="M388.17,342.06V331.74h2.12v10.47c0,1,.41,1.32,1.09,1.32s1.08-.35,1.08-1.32V331.74h2.05v10.32c0,2.16-1.08,3.4-3.17,3.4S388.17,344.22,388.17,342.06Z" style="fill: rgb(255, 255, 255); transform-origin: 391.34px 338.6px;" id="el5ps2v5fumyb" class="animable"></path><path d="M398,339.51l-2.57-7.77h2.26l1.45,5h0l1.45-5h2.06l-2.57,7.77v5.76H398Z" style="fill: rgb(255, 255, 255); transform-origin: 399.04px 338.505px;" id="ely9t9vxk8md" class="animable"></path><path d="M406.72,331.74h2.67l2.07,8.1h0v-8.1h1.9v13.53H411.2l-2.55-9.88h0v9.88h-1.89Z" style="fill: rgb(255, 255, 255); transform-origin: 410.04px 338.505px;" id="el0w20fh41uyjn" class="animable"></path><path d="M414.82,342.06V335c0-2.17,1.14-3.41,3.22-3.41s3.23,1.24,3.23,3.41v7.11c0,2.16-1.14,3.4-3.23,3.4S414.82,344.22,414.82,342.06Zm4.33.13v-7.38c0-1-.43-1.33-1.11-1.33s-1.1.36-1.1,1.33v7.38c0,1,.43,1.34,1.1,1.34S419.15,343.16,419.15,342.19Z" style="fill: rgb(255, 255, 255); transform-origin: 418.045px 338.55px;" id="elbnfw8ndi46" class="animable"></path><path d="M422.2,331.74h2.05l.94,10.4h0l1-10.4h2.32l1,10.4h0l.95-10.4h1.84L431,345.27h-2.65l-1-9.13h0l-1,9.13h-2.82Z" style="fill: rgb(255, 255, 255); transform-origin: 427.25px 338.505px;" id="elsrg69in15o" class="animable"></path><path d="M387,175.81V161.87c0-4.24,2.23-6.66,6.32-6.66s6.33,2.42,6.33,6.66v13.94c0,4.24-2.24,6.66-6.33,6.66S387,180.05,387,175.81Zm8.48.26V161.61c0-1.89-.83-2.61-2.16-2.61s-2.16.72-2.16,2.61v14.46c0,1.9.84,2.62,2.16,2.62S395.48,178,395.48,176.07Z" id="elgkvlggi77y" class="animable" style="transform-origin: 393.325px 168.84px;"></path><path d="M402.26,155.59h11v3.79h-6.86v7.38h5.38v3.79h-5.38v11.54h-4.16Z" id="el8j4vgb3xucl" class="animable" style="transform-origin: 407.75px 168.84px;"></path><path d="M415.42,155.59h11v3.79h-6.85v7.38H425v3.79h-5.37v11.54h-4.17Z" id="elqo762gy1smh" class="animable" style="transform-origin: 420.92px 168.84px;"></path><line x1="381.35" y1="287.06" x2="350.25" y2="362.15" style="fill: none; stroke: rgb(255, 255, 255); stroke-linecap: round; stroke-linejoin: round; stroke-width: 1.00652px; transform-origin: 365.8px 324.605px;" id="el5e8onoxhdhs" class="animable"></line><line x1="446.61" y1="129.51" x2="398.89" y2="244.72" style="fill: none; stroke: rgb(255, 255, 255); stroke-linecap: round; stroke-linejoin: round; stroke-width: 1.00652px; transform-origin: 422.75px 187.115px;" id="eldofqlsg3rb8" class="animable"></line><line x1="462.54" y1="91.05" x2="451.14" y2="118.56" style="fill: none; stroke: rgb(255, 255, 255); stroke-linecap: round; stroke-linejoin: round; stroke-width: 1.00652px; transform-origin: 456.84px 104.805px;" id="el0uddnayqovva" class="animable"></line><line x1="348.29" y1="241.32" x2="341.37" y2="258.03" style="fill: none; stroke: rgb(255, 255, 255); stroke-linecap: round; stroke-linejoin: round; stroke-width: 1.00652px; transform-origin: 344.83px 249.675px;" id="elr3xzak9mdlp" class="animable"></line><line x1="393.81" y1="131.42" x2="353.74" y2="228.16" style="fill: none; stroke: rgb(255, 255, 255); stroke-linecap: round; stroke-linejoin: round; stroke-width: 1.00652px; transform-origin: 373.775px 179.79px;" id="elailt4q6wgkc" class="animable"></line><line x1="410.4" y1="91.38" x2="400.53" y2="115.22" style="fill: none; stroke: rgb(255, 255, 255); stroke-linecap: round; stroke-linejoin: round; stroke-width: 1.00652px; transform-origin: 405.465px 103.3px;" id="eln6xd9tt282" class="animable"></line><line x1="456.49" y1="286.72" x2="425.25" y2="362.15" style="fill: none; stroke: rgb(255, 255, 255); stroke-linecap: round; stroke-linejoin: round; stroke-width: 1.00652px; transform-origin: 440.87px 324.435px;" id="eldhndtrca7lm" class="animable"></line><line x1="467.64" y1="259.79" x2="460.97" y2="275.9" style="fill: none; stroke: rgb(255, 255, 255); stroke-linecap: round; stroke-linejoin: round; stroke-width: 1.00652px; transform-origin: 464.305px 267.845px;" id="elrr3onxudzko" class="animable"></line></g><g id="freepik--Character--inject-99" class="animable" style="transform-origin: 266.346px 281.971px;"><path d="M278.34,136.06c0,.88.37,1.59.83,1.59s.82-.71.82-1.59-.37-1.58-.82-1.58S278.34,135.19,278.34,136.06Z" style="fill: rgb(38, 50, 56); transform-origin: 279.165px 136.065px;" id="elwggovgcis6" class="animable"></path><path d="M282.52,145.92a3.39,3.39,0,0,1-3.32-1.23" style="fill: none; stroke: rgb(38, 50, 56); stroke-linecap: round; stroke-linejoin: round; stroke-width: 1.00652px; transform-origin: 280.86px 145.337px;" id="el924mzmxz3x" class="animable"></path><path d="M279.17,130.92s-1.25-2-3.8,0" style="fill: none; stroke: rgb(38, 50, 56); stroke-linecap: round; stroke-linejoin: round; stroke-width: 1.34202px; transform-origin: 277.27px 130.476px;" id="elcswbpeofmxk" class="animable"></path><path d="M263.47,168.14c6.26-.69-2.68-20.09-2.68-20.09l1.16-4.43s5.58-6.51,7.31-11.55,6.63-11.55,7.49-9.22-3.93,5.66-2.82,6.75c.48.47,4.09-.74,7.76-3.19.57,3,.66,6,.83,7,.36,2.13,6.77,3.2,7,5.17s-3.35,3.77-3.35,3.77.08,11-2,13.19-13.42,1.18-13.42,1.18c-3.92,3.79-4.32,14.56-4.32,14.56s-2.77-.11-6.25-.59A3.64,3.64,0,0,1,263.47,168.14Z" style="fill: none; stroke: rgb(38, 50, 56); stroke-linecap: round; stroke-linejoin: round; stroke-width: 1.34202px; transform-origin: 274.855px 146.821px;" id="elohdd9mf3mh" class="animable"></path><path d="M278.46,251.62l-36.11-5.68c2.06-3.92,2.87-9,1.4-22-2.41-21.29-10.52-49.39-2.4-54.33s18.66-2,18.66-2,9.81.38,15.36,7.9,12.45,14.19,12.45,23S277.67,223.14,277.67,241A67,67,0,0,0,278.46,251.62Z" style="fill: rgb(14, 162, 189); stroke: rgb(38, 50, 56); stroke-linecap: round; stroke-linejoin: round; stroke-width: 1.34202px; transform-origin: 262.821px 209.181px;" id="elpvvtf5uy9x" class="animable"></path><path d="M314.6,200s-16.37,30-23.35,30.57S272.48,211,268,203.54s-6.83-17.18-5.4-25.39,9.52-1,14.8,9.6,13.67,27.35,13.67,27.35l19.12-21.76s.35-6.59,4.41-10.16,11.14-7.76,13.29-5.68-5.18,1.46-7.73,5.57c0,0,1.13-2.37,2.88,1.59s4.8,5.7,2.24,8.73-1.72-.54-3.41,1S322.39,197.52,314.6,200Z" style="fill: rgb(255, 255, 255); stroke: rgb(38, 50, 56); stroke-linecap: round; stroke-linejoin: round; stroke-width: 1.34202px; transform-origin: 295.231px 202.591px;" id="el5l3vlqdx3a3" class="animable"></path><path d="M291,341.7s2.33,16-1.54,48.86-6.94,50.62-6.94,50.62,10,8.88,14.39,10.39,9.11,1.68,7.92,4.65c-1,2.6-20.22,0-25.5,0s-12.37-1.44-11.47-5.38,4-10.13,4-10.13-.57-19.64-.7-40c-.08-13.62-1.31-27.57-.7-36.24,1.53-21.65,6.31-28.54,6.31-28.54Z" style="fill: rgb(255, 255, 255); stroke: rgb(38, 50, 56); stroke-linecap: round; stroke-linejoin: round; stroke-width: 1.34202px; transform-origin: 286.399px 396.653px;" id="el81dawr0ythp" class="animable"></path><path d="M257.75,342.06c1.11,9.47-2.27,16-15.25,46.44s-21.08,45.74-21.08,45.74,8.17,12.49,12,15.17,7.75,4.31,5.35,6.42c-3.4,3-19.39-5.72-24.47-7.19s-11.45-4.87-9.48-8.4a91.23,91.23,0,0,1,6.79-9.42s5.73-21.68,11.83-42.53c3.35-11.44,5.47-22.63,8.16-29.84,7.57-20.35,14.15-26,14.15-26S257.3,338.23,257.75,342.06Z" style="fill: rgb(255, 255, 255); stroke: rgb(38, 50, 56); stroke-linecap: round; stroke-linejoin: round; stroke-width: 1.34202px; transform-origin: 231.2px 394.452px;" id="elnfeszcly7ap" class="animable"></path><path d="M227.5,295.49c-.66-13.11.84-27.37,9.68-41.7,4-6.53,7.11-8.08,7.3-17.78,16.92-2.25,28.24.85,33.25,2.76,0,.74-.06,1.47-.06,2.22,0,17.84,5.45,24.72,15.44,60.94s15.93,48.46,5.2,46.38-21.21-3.69-31.84,0-9.12-3.83-23.22-2.76-18.88-3.46-18.77-10.72S228.16,308.6,227.5,295.49Z" style="fill: rgb(38, 50, 56); stroke: rgb(38, 50, 56); stroke-linecap: round; stroke-linejoin: round; stroke-width: 1.34202px; transform-origin: 264.246px 292.28px;" id="eltb87iopzoke" class="animable"></path><path d="M258.63,237.11a89.7,89.7,0,0,1,16.45,2.76v5.42a64.41,64.41,0,0,0-17.39-3.67Z" style="fill: rgb(14, 162, 189); stroke: rgb(38, 50, 56); stroke-linecap: round; stroke-linejoin: round; stroke-width: 1.34202px; transform-origin: 266.385px 241.2px;" id="elavgknlf7k4g" class="animable"></path><path d="M254.43,241.41c-3.13-.14-6-.12-8.5,0a30.63,30.63,0,0,0,.58-4c2.43-.19,5.46-.33,8.93-.32Z" style="fill: rgb(14, 162, 189); stroke: rgb(38, 50, 56); stroke-linecap: round; stroke-linejoin: round; stroke-width: 1.34202px; transform-origin: 250.685px 239.25px;" id="elec22bvrb8no" class="animable"></path><path d="M262.6,178.15c1.44-8.21,9.52-1,14.8,9.6.7,1.42,1.46,2.94,2.25,4.53A18.67,18.67,0,0,0,268,203.54C263.52,196.13,261.17,186.36,262.6,178.15Z" style="fill: rgb(14, 162, 189); stroke: rgb(38, 50, 56); stroke-linecap: round; stroke-linejoin: round; stroke-width: 1.00652px; transform-origin: 270.916px 189.07px;" id="elojkmuk4l37" class="animable"></path><path d="M267.87,450.84c.89-3.94,4-10.13,4-10.13,4,1.64,8.93,5.41,8.44,3.45s2.25-3,2.25-3,10,8.88,14.39,10.39,9.11,1.68,7.92,4.65c-1,2.6-20.22,0-25.5,0S267,454.78,267.87,450.84Z" style="fill: rgb(14, 162, 189); stroke: rgb(38, 50, 56); stroke-linecap: round; stroke-linejoin: round; stroke-width: 1.00652px; transform-origin: 286.427px 449.033px;" id="elgt3mn27a5ks" class="animable"></path><path d="M279.34,456.22c-5.29,0-12.37-1.44-11.47-5.38.1-.46.24-.95.4-1.46.11,4.16,10,4.28,12.42,4.43s6.31.35,16.64,1.16c3.92.32,6.16,0,7.44-.43a1.72,1.72,0,0,1,.07,1.68C303.8,458.82,284.62,456.2,279.34,456.22Z" style="fill: rgb(255, 255, 255); stroke: rgb(38, 50, 56); stroke-linecap: round; stroke-linejoin: round; stroke-width: 1.00652px; transform-origin: 286.409px 453.376px;" id="ely9d2ob7odve" class="animable"></path><path d="M215.21,434.92c1.23,1.91,3.81,3,3.81.8s2.4-1.48,2.4-1.48,8.17,12.49,12,15.17,7.75,4.31,5.35,6.42c-3.4,3-19.39-5.72-24.47-7.19s-11.45-4.87-9.48-8.4a91.23,91.23,0,0,1,6.79-9.42A26.14,26.14,0,0,1,215.21,434.92Z" style="fill: rgb(14, 162, 189); stroke: rgb(38, 50, 56); stroke-linecap: round; stroke-linejoin: round; stroke-width: 1.00652px; transform-origin: 221.979px 443.637px;" id="elcqgk48t143e" class="animable"></path><path d="M264.79,111.58s21.56-11.28,24.75,0-14.51,19.11-15.61,18,3.69-4.41,2.82-6.75-5.77,4.18-7.49,9.22S262,143.62,262,143.62l-1.16,4.43s8.94,19.4,2.68,20.09-3.27,10.52-2.68,28.35-6.52,32-29.51,25.67.24-22.72-1.73-39.19-10.57-49.59,11.8-66.14C260,103,264.79,111.58,264.79,111.58Z" style="fill: rgb(38, 50, 56); stroke: rgb(38, 50, 56); stroke-linecap: round; stroke-linejoin: round; stroke-width: 1.34202px; transform-origin: 255.513px 165.131px;" id="elj60887fmbne" class="animable"></path><path d="M236.16,216.71c-5.25-1.58-8.56-6.36-6.53-9.4,3.61-5.41,14.42-4.26,14.42-4.26" style="fill: none; stroke: rgb(127, 127, 127); stroke-linecap: round; stroke-linejoin: round; stroke-width: 1.34202px; transform-origin: 236.538px 209.829px;" id="el0fqfd2axt7l8" class="animable"></path><path d="M239.53,141.5c-1.49,18,21.2,59.92,10.75,70.74a17,17,0,0,1-5.5,3.93" style="fill: none; stroke: rgb(127, 127, 127); stroke-linecap: round; stroke-linejoin: round; stroke-width: 1.34202px; transform-origin: 246.25px 178.835px;" id="elrp1qoc99f7r" class="animable"></path><path d="M259.51,120.85c-6.17,1.33-14.68,4.84-18.63,15.21" style="fill: none; stroke: rgb(127, 127, 127); stroke-linecap: round; stroke-linejoin: round; stroke-width: 1.34202px; transform-origin: 250.195px 128.455px;" id="el82crf28cank" class="animable"></path><path d="M280.06,124.53s3.56-7.68,0-12c-3.07-3.71-6.49,3.84-13.55,6.74" style="fill: none; stroke: rgb(127, 127, 127); stroke-linecap: round; stroke-linejoin: round; stroke-width: 1.34202px; transform-origin: 274.076px 118.028px;" id="el477lls04hqh" class="animable"></path><path d="M233.84,152.89c1.61,11.33,6.89,36.52,3,40" style="fill: none; stroke: rgb(127, 127, 127); stroke-linecap: round; stroke-linejoin: round; stroke-width: 1.34202px; transform-origin: 236.04px 172.89px;" id="elf2y8b4feut" class="animable"></path><path d="M257.82,116a30.07,30.07,0,0,0-16.55,8.52c-6.46,6.32-7.51,14.19-7.76,20.16" style="fill: none; stroke: rgb(127, 127, 127); stroke-linecap: round; stroke-linejoin: round; stroke-width: 1.34202px; transform-origin: 245.665px 130.34px;" id="elqd86o8a4u5c" class="animable"></path><path d="M251.14,147.22c-1.27-5.94,1.37-13.39,9.65-17.62" style="fill: none; stroke: rgb(127, 127, 127); stroke-linecap: round; stroke-linejoin: round; stroke-width: 1.34202px; transform-origin: 255.814px 138.41px;" id="eln245ajqrd1" class="animable"></path><path d="M260.79,164.79s-.57-4.44-7.15-12.31" style="fill: none; stroke: rgb(127, 127, 127); stroke-linecap: round; stroke-linejoin: round; stroke-width: 1.34202px; transform-origin: 257.215px 158.635px;" id="elda4xk79k08p" class="animable"></path><path d="M264.79,142.73s-2.79-5.08-6.23-3.53-1.76,10.9,4.36,11.23" style="fill: rgb(255, 255, 255); stroke: rgb(38, 50, 56); stroke-linecap: round; stroke-linejoin: round; stroke-width: 1.34202px; transform-origin: 260.795px 144.668px;" id="elmr7pxvs7h68" class="animable"></path><path d="M291.83,317.41c2.28,8.43,3.66,16.45,3.36,22.95" style="fill: none; stroke: rgb(127, 127, 127); stroke-linecap: round; stroke-linejoin: round; stroke-width: 1.34202px; transform-origin: 293.53px 328.885px;" id="el0o5n3umo2pk" class="animable"></path><path d="M268.66,260.16s13.83,26.5,21.54,51.59" style="fill: none; stroke: rgb(127, 127, 127); stroke-linecap: round; stroke-linejoin: round; stroke-width: 1.34202px; transform-origin: 279.43px 285.955px;" id="el6jnjrrr3jn5" class="animable"></path><path d="M242.43,303.91a170.76,170.76,0,0,0,15.14,22.86c6.05,8,2.22,7.65-5.4,7.65s-7.87-2.95-6.89-7.38" style="fill: none; stroke: rgb(127, 127, 127); stroke-linecap: round; stroke-linejoin: round; stroke-width: 1.34202px; transform-origin: 251.492px 319.166px;" id="ely2wd5twzcgi" class="animable"></path><path d="M233.45,277.43a69.67,69.67,0,0,0,5.9,20.22" style="fill: none; stroke: rgb(127, 127, 127); stroke-linecap: round; stroke-linejoin: round; stroke-width: 1.34202px; transform-origin: 236.4px 287.54px;" id="eljtgiqulafy" class="animable"></path><path d="M204.78,440.24c.18-.33.4-.69.63-1.06-1.06,3.59,6.48,5.76,10.78,7.11s13.15,5.53,18.07,7.62,4.68-.39,4.67-.52a1.51,1.51,0,0,1-.2,2.44c-3.4,3-19.39-5.72-24.47-7.19S202.81,443.77,204.78,440.24Z" style="fill: rgb(255, 255, 255); stroke: rgb(38, 50, 56); stroke-linecap: round; stroke-linejoin: round; stroke-width: 1.00652px; transform-origin: 221.936px 447.817px;" id="eln23xytzt7r" class="animable"></path></g><defs>     <filter id="active" height="200%">         <feMorphology in="SourceAlpha" result="DILATED" operator="dilate" radius="2"></feMorphology>                <feFlood flood-color="#32DFEC" flood-opacity="1" result="PINK"></feFlood>        <feComposite in="PINK" in2="DILATED" operator="in" result="OUTLINE"></feComposite>        <feMerge>            <feMergeNode in="OUTLINE"></feMergeNode>            <feMergeNode in="SourceGraphic"></feMergeNode>        </feMerge>    </filter>    <filter id="hover" height="200%">        <feMorphology in="SourceAlpha" result="DILATED" operator="dilate" radius="2"></feMorphology>                <feFlood flood-color="#ff0000" flood-opacity="0.5" result="PINK"></feFlood>        <feComposite in="PINK" in2="DILATED" operator="in" result="OUTLINE"></feComposite>        <feMerge>            <feMergeNode in="OUTLINE"></feMergeNode>            <feMergeNode in="SourceGraphic"></feMergeNode>        </feMerge>            <feColorMatrix type="matrix" values="0   0   0   0   0                0   1   0   0   0                0   0   0   0   0                0   0   0   1   0 "></feColorMatrix>    </filter></defs></svg>