<svg xmlns="http://www.w3.org/2000/svg" viewBox="0 0 750 500"><g id="freepik--Shadow--inject-138"><ellipse cx="375" cy="434.77" rx="309.39" ry="23.31" style="fill:#ebebeb"></ellipse></g><g id="freepik--Window--inject-138"><rect x="100.48" y="83.72" width="547.35" height="346.57" style="fill:#fff"></rect><path d="M647.83,430.28l-547.35.37h-.36v-.37L100,83.72v-.5h.49l547.35.2h.3v.3Zm0,0-.29-346.56.29.29-547.35.21.5-.5-.13,346.56-.37-.37Z" style="fill:#c7c7c7"></path><rect x="100.48" y="97.05" width="537.63" height="104.54" style="fill:#0EA2BD"></rect><rect x="100.48" y="83.72" width="547.35" height="13.34" style="fill:#455a64"></rect><path d="M113.93,90.38a2.88,2.88,0,1,1-2.88-2.87A2.88,2.88,0,0,1,113.93,90.38Z" style="fill:#c7c7c7"></path><path d="M125.66,90.38a2.88,2.88,0,1,1-2.87-2.87A2.88,2.88,0,0,1,125.66,90.38Z" style="fill:#fff"></path><circle cx="134.52" cy="90.38" r="2.87" style="fill:#0EA2BD"></circle><rect x="638.12" y="97.05" width="9.72" height="333.23" style="fill:#dbdbdb"></rect><path d="M643,212.58h0a2.51,2.51,0,0,1-2.51-2.51V101.51A2.51,2.51,0,0,1,643,99h0a2.51,2.51,0,0,1,2.51,2.51V210.07A2.51,2.51,0,0,1,643,212.58Z" style="fill:#a6a6a6"></path><rect x="508.95" y="224.74" width="103.75" height="79.61" transform="translate(1121.65 529.09) rotate(180)" style="fill:#0EA2BD"></rect><path d="M519.27,242.15a9.43,9.43,0,1,0,7.4-7.4A9.44,9.44,0,0,0,519.27,242.15Z" style="fill:#fff;opacity:0.6000000000000001"></path><polygon points="543.18 287.2 612.7 287.2 577.94 244.35 543.18 287.2" style="fill:#0EA2BD"></polygon><polygon points="543.18 287.2 612.7 287.2 577.94 244.35 543.18 287.2" style="opacity:0.2"></polygon><polygon points="508.95 287.24 570.6 287.24 539.77 259.34 508.95 287.24" style="fill:#0EA2BD"></polygon><polygon points="508.95 287.24 570.6 287.24 539.77 259.34 508.95 287.24" style="opacity:0.1"></polygon><rect x="508.95" y="287.2" width="103.75" height="17.15" style="fill:#0EA2BD"></rect><rect x="508.95" y="287.2" width="103.75" height="17.15" style="opacity:0.1"></rect><polygon points="508.95 316.52 519.52 316.34 530.09 316.23 551.23 316.14 572.37 316.23 582.94 316.34 593.51 316.52 582.94 316.7 572.37 316.81 551.23 316.89 530.09 316.81 519.52 316.7 508.95 316.52" style="fill:#c7c7c7"></polygon><path d="M509,325.29c5.29-.15,10.58-.22,15.88-.28l15.88-.09,15.88.09c5.3.06,10.59.13,15.88.28-5.29.16-10.58.23-15.88.29l-15.88.09-15.88-.09C519.53,325.52,514.24,325.45,509,325.29Z" style="fill:#c7c7c7"></path><rect x="508.94" y="336.27" width="103.76" height="94.01" style="fill:#0EA2BD"></rect><rect x="508.94" y="336.27" width="103.76" height="94.01" style="opacity:0.2"></rect><path d="M519.27,371.64a9.43,9.43,0,1,0,7.4-7.4A9.44,9.44,0,0,0,519.27,371.64Z" style="fill:#fff;opacity:0.6000000000000001"></path><polygon points="543.18 416.69 612.7 416.69 577.94 373.84 543.18 416.69" style="fill:#0EA2BD"></polygon><polygon points="543.18 416.69 612.7 416.69 577.94 373.84 543.18 416.69" style="opacity:0.4"></polygon><polygon points="508.95 416.72 570.6 416.72 539.77 388.82 508.95 416.72" style="fill:#0EA2BD"></polygon><polygon points="508.95 416.72 570.6 416.72 539.77 388.82 508.95 416.72" style="opacity:0.30000000000000004"></polygon><rect x="508.94" y="416.69" width="103.76" height="13.59" style="opacity:0.1"></rect><rect x="380.4" y="378.97" width="103.75" height="51.31" style="fill:#0EA2BD"></rect><path d="M390.73,396.37a9.42,9.42,0,1,0,7.4-7.4A9.43,9.43,0,0,0,390.73,396.37Z" style="fill:#fff;opacity:0.6000000000000001"></path><polygon points="475.12 430.28 423.67 430.28 426.22 427.13 449.39 398.57 475.12 430.28" style="fill:#0EA2BD"></polygon><polygon points="475.12 430.28 423.67 430.28 426.22 427.13 449.39 398.57 475.12 430.28" style="opacity:0.2"></polygon><polygon points="429.71 430.28 392.75 430.28 411.23 413.56 426.22 427.13 429.71 430.28" style="fill:#0EA2BD"></polygon><polygon points="429.71 430.28 392.75 430.28 411.23 413.56 426.22 427.13 429.71 430.28" style="opacity:0.1"></polygon><rect x="380.4" y="225" width="103.75" height="122.31" transform="translate(864.56 572.32) rotate(180)" style="fill:#455a64"></rect><path d="M390.73,260.37a9.42,9.42,0,1,0,7.4-7.4A9.43,9.43,0,0,0,390.73,260.37Z" style="fill:#fff;opacity:0.6000000000000001"></path><polygon points="414.63 305.42 484.15 305.42 449.39 262.57 414.63 305.42" style="fill:#263238"></polygon><polygon points="380.4 305.46 442.06 305.46 411.23 277.56 380.4 305.46" style="fill:#37474f"></polygon><rect x="380.4" y="305.42" width="103.75" height="41.89" style="fill:#37474f"></rect><polygon points="380.4 359.48 390.97 359.3 401.54 359.2 422.68 359.11 443.82 359.2 454.39 359.3 464.96 359.48 454.39 359.67 443.82 359.77 422.68 359.86 401.54 359.77 390.97 359.67 380.4 359.48" style="fill:#c7c7c7"></polygon><path d="M380.4,368.26c5.29-.16,10.59-.23,15.88-.29l15.88-.09,15.89.09c5.29.06,10.58.13,15.88.29-5.3.15-10.59.23-15.88.29l-15.89.08-15.88-.08C391,368.49,385.69,368.41,380.4,368.26Z" style="fill:#c7c7c7"></path><rect x="252.28" y="224.74" width="103.75" height="79.61" transform="translate(608.32 529.09) rotate(180)" style="fill:#0EA2BD"></rect><path d="M262.61,242.15a9.42,9.42,0,1,0,7.4-7.4A9.43,9.43,0,0,0,262.61,242.15Z" style="fill:#fff;opacity:0.6000000000000001"></path><polygon points="286.51 287.2 356.04 287.2 321.27 244.35 286.51 287.2" style="fill:#0EA2BD"></polygon><polygon points="286.51 287.2 356.04 287.2 321.27 244.35 286.51 287.2" style="opacity:0.2"></polygon><polygon points="252.28 287.24 313.94 287.24 283.11 259.34 252.28 287.24" style="fill:#0EA2BD"></polygon><polygon points="252.28 287.24 313.94 287.24 283.11 259.34 252.28 287.24" style="opacity:0.1"></polygon><rect x="252.28" y="287.2" width="103.75" height="17.15" style="fill:#0EA2BD"></rect><rect x="252.28" y="287.2" width="103.75" height="17.15" style="opacity:0.1"></rect><polygon points="252.28 316.52 262.85 316.34 273.42 316.23 294.56 316.14 315.7 316.23 326.27 316.34 336.84 316.52 326.27 316.7 315.7 316.81 294.56 316.89 273.42 316.81 262.85 316.7 252.28 316.52" style="fill:#c7c7c7"></polygon><path d="M252.28,325.29c5.29-.15,10.59-.22,15.88-.28l15.88-.09,15.89.09c5.29.06,10.58.13,15.88.28-5.3.16-10.59.23-15.88.29l-15.89.09-15.88-.09C262.87,325.52,257.57,325.45,252.28,325.29Z" style="fill:#c7c7c7"></path><rect x="252.28" y="336.27" width="103.76" height="94.01" style="fill:#0EA2BD"></rect><rect x="252.28" y="336.27" width="103.76" height="94.01" style="opacity:0.2"></rect><path d="M262.61,371.64a9.42,9.42,0,1,0,7.4-7.4A9.43,9.43,0,0,0,262.61,371.64Z" style="fill:#fff;opacity:0.6000000000000001"></path><polygon points="286.51 416.69 356.04 416.69 321.27 373.84 286.51 416.69" style="fill:#0EA2BD"></polygon><polygon points="286.51 416.69 356.04 416.69 321.27 373.84 286.51 416.69" style="opacity:0.4"></polygon><polygon points="252.28 416.72 313.94 416.72 283.11 388.82 252.28 416.72" style="fill:#0EA2BD"></polygon><polygon points="252.28 416.72 313.94 416.72 283.11 388.82 252.28 416.72" style="opacity:0.30000000000000004"></polygon><rect x="252.28" y="416.69" width="103.76" height="13.59" style="opacity:0.1"></rect><rect x="123.74" y="378.97" width="103.75" height="51.31" style="fill:#0EA2BD"></rect><path d="M134.06,396.37a9.43,9.43,0,1,0,7.4-7.4A9.43,9.43,0,0,0,134.06,396.37Z" style="fill:#fff;opacity:0.6000000000000001"></path><polygon points="218.45 430.28 167 430.28 169.56 427.13 192.73 398.57 218.45 430.28" style="fill:#0EA2BD"></polygon><polygon points="218.45 430.28 167 430.28 169.56 427.13 192.73 398.57 218.45 430.28" style="opacity:0.2"></polygon><polygon points="173.05 430.28 136.09 430.28 154.56 413.56 169.56 427.13 173.05 430.28" style="fill:#0EA2BD"></polygon><polygon points="173.05 430.28 136.09 430.28 154.56 413.56 169.56 427.13 173.05 430.28" style="opacity:0.1"></polygon><rect x="123.73" y="225" width="103.75" height="122.31" transform="translate(351.22 572.32) rotate(180)" style="fill:#455a64"></rect><path d="M134.06,260.37a9.43,9.43,0,1,0,7.4-7.4A9.43,9.43,0,0,0,134.06,260.37Z" style="fill:#fff;opacity:0.6000000000000001"></path><polygon points="157.96 305.42 227.49 305.42 192.73 262.57 157.96 305.42" style="fill:#263238"></polygon><polygon points="123.73 305.46 185.39 305.46 154.56 277.56 123.73 305.46" style="fill:#37474f"></polygon><rect x="123.73" y="305.42" width="103.75" height="41.89" style="fill:#37474f"></rect><polygon points="123.73 359.48 134.3 359.3 144.87 359.2 166.01 359.11 187.16 359.2 197.72 359.3 208.3 359.48 197.72 359.67 187.16 359.77 166.01 359.86 144.87 359.77 134.3 359.67 123.73 359.48" style="fill:#c7c7c7"></polygon><path d="M123.73,368.26c5.3-.16,10.59-.23,15.89-.29l15.88-.09,15.88.09c5.29.06,10.59.13,15.88.29-5.29.15-10.59.23-15.88.29l-15.88.08-15.88-.08C134.32,368.49,129,368.41,123.73,368.26Z" style="fill:#c7c7c7"></path><path d="M578.2,183.23v6.63l0,0a1.61,1.61,0,0,1-1.18,1.31l-.19.05H575s0-.07,0-.1V187.7h1.45c.06,0,.09,0,.09-.08v-1.41a.31.31,0,0,0,0-.09H575c0-.24,0-.48,0-.72a.34.34,0,0,1,.36-.33h1.16V183.5h-1.2a1.57,1.57,0,0,0-.92.29,2,2,0,0,0-.82,1.38,8.31,8.31,0,0,0,0,.87v.09h-1.12s0,0,0,.05v1.46c0,.06,0,.06.08.06h1.05v3.57H570.3a1.7,1.7,0,0,1-.6-.23,1.64,1.64,0,0,1-.68-.91c0-.09,0-.18-.07-.26v-6.63s0,0,0,0a1.56,1.56,0,0,1,.23-.6,1.53,1.53,0,0,1,.89-.71l.25-.07h6.48l.05,0a1.62,1.62,0,0,1,1.3,1.21Z" style="fill:#fff"></path><path d="M594.05,181.82h-6.43a1.43,1.43,0,0,0-1.41,1.45v6.56a1.42,1.42,0,0,0,1.41,1.44h6.43a1.42,1.42,0,0,0,1.41-1.44v-6.56A1.43,1.43,0,0,0,594.05,181.82Zm.44,2.39s0,0,0,.09a3.41,3.41,0,0,1-.62.64.13.13,0,0,0-.06.15,4.44,4.44,0,0,1-.52,2.18,4.09,4.09,0,0,1-2.7,2.19,4.33,4.33,0,0,1-2.52-.11l-.12,0-.42-.22a1.92,1.92,0,0,1-.31-.18,3.14,3.14,0,0,0,2.19-.65l-.31-.06a1.48,1.48,0,0,1-1-.92.11.11,0,0,1,0-.09s0,0,.08,0a1.43,1.43,0,0,0,.54,0,.69.69,0,0,0-.21-.08,1.53,1.53,0,0,1-1-1.32c0-.13,0-.13.11-.08a1.44,1.44,0,0,0,.56.13,2.16,2.16,0,0,1-.37-.37,1.55,1.55,0,0,1-.14-1.62c0-.06,0-.08.11,0a4.16,4.16,0,0,0,2.51,1.48l.44.07c.08,0,.11,0,.1-.11a1.52,1.52,0,0,1,1.27-1.77,1.42,1.42,0,0,1,1.26.4.11.11,0,0,0,.14.05,3.43,3.43,0,0,0,.7-.25.42.42,0,0,0,.15-.12.9.9,0,0,1-.22.49,1.85,1.85,0,0,1-.37.37,3.78,3.78,0,0,0,.8-.21Z" style="fill:#fff"></path><path d="M612.69,186.43c0-.76,0-1.51,0-2.27a5.07,5.07,0,0,0,0-.55,2,2,0,0,0-1.28-1.64,3,3,0,0,0-1.12-.15h-4.33a5.53,5.53,0,0,0-.71,0,1.92,1.92,0,0,0-1.58,1.27,2.81,2.81,0,0,0-.16,1.08v4.62a6.15,6.15,0,0,0,.06.74,1.92,1.92,0,0,0,1.07,1.44,2.44,2.44,0,0,0,1.16.23h4.59a3.93,3.93,0,0,0,.69-.06,1.9,1.9,0,0,0,1.5-1.26,3,3,0,0,0,.15-1.08v-2.41Zm-1.18,1.39A2.15,2.15,0,0,1,609.8,190a2.12,2.12,0,0,1-.44,0h-2.54a2.13,2.13,0,0,1-2.11-1.75,3.27,3.27,0,0,1,0-.44v-2.61a2.14,2.14,0,0,1,1.62-2.12,2.08,2.08,0,0,1,.55-.07h1.25c.49,0,1,0,1.46,0a2.11,2.11,0,0,1,1.91,1.69,2.73,2.73,0,0,1,0,.5Z" style="fill:#fff"></path><path d="M609.2,186.54a1.11,1.11,0,1,1-1.1-1.14A1.12,1.12,0,0,1,609.2,186.54Z" style="fill:#fff"></path><path d="M609.39,183.64h-2.6a1.54,1.54,0,0,0-1.53,1.57v2.65a1.54,1.54,0,0,0,1.53,1.56h2.6a1.53,1.53,0,0,0,1.53-1.56v-2.65A1.53,1.53,0,0,0,609.39,183.64Zm-1.3,4.63a1.74,1.74,0,1,1,1.7-1.74A1.73,1.73,0,0,1,608.09,188.27Zm1.86-3.21a.43.43,0,0,1-.41-.43.42.42,0,0,1,.42-.43.41.41,0,0,1,.41.44A.42.42,0,0,1,610,185.06Z" style="fill:#fff"></path><path d="M267.52,185.46h1l.64,1.9.65-1.9h1l-1,2.62.73,1.84,1.63-4.48h1.22l-2.35,5.76h-.94l-1-2.42-1,2.42h-.94l-2.33-5.76h1.2l1.64,4.48.71-1.84Z" style="fill:#263238"></path><path d="M275.42,191.28a2.3,2.3,0,0,1-.93-.18,2.08,2.08,0,0,1-.7-.48,2.15,2.15,0,0,1-.45-.7,2.43,2.43,0,0,1,0-1.68,2.05,2.05,0,0,1,.45-.7,2,2,0,0,1,.7-.49,2.49,2.49,0,0,1,.93-.17,2.45,2.45,0,0,1,.93.17,2.06,2.06,0,0,1,.7.49,2,2,0,0,1,.44.7,2.28,2.28,0,0,1,0,1.68,2.13,2.13,0,0,1-.44.7,2.08,2.08,0,0,1-.7.48A2.27,2.27,0,0,1,275.42,191.28Zm-1.11-2.2a1.46,1.46,0,0,0,.09.52,1.13,1.13,0,0,0,.23.4,1.1,1.1,0,0,0,.35.26,1,1,0,0,0,.88,0,1.1,1.1,0,0,0,.35-.26,1.27,1.27,0,0,0,.24-.41,1.42,1.42,0,0,0,.08-.52,1.44,1.44,0,0,0-.08-.51,1.33,1.33,0,0,0-.24-.4,1.14,1.14,0,0,0-.35-.27,1.08,1.08,0,0,0-.44-.09,1,1,0,0,0-.44.1,1,1,0,0,0-.35.27,1.05,1.05,0,0,0-.23.4A1.44,1.44,0,0,0,274.31,189.08Z" style="fill:#263238"></path><path d="M280.91,187.89a2.28,2.28,0,0,0-.89.19,1.15,1.15,0,0,0-.56.55v2.57h-1.08V187h1v.91a1.95,1.95,0,0,1,.6-.7,1.48,1.48,0,0,1,.37-.2.87.87,0,0,1,.35-.07h.22Z" style="fill:#263238"></path><path d="M284.42,191.2l-1.23-1.84-.59.58v1.26h-1.08v-5.92h1.08v3.59l1.71-1.91h1.16l-1.58,1.8,1.69,2.44Z" style="fill:#263238"></path><g style="opacity:0.4"><path d="M332,185.44h.48l2.39,5.76h-.6l-.75-1.8h-2.59l-.74,1.8h-.6Zm1.39,3.51-1.16-2.85L331.06,189Z"></path><path d="M337.65,191.28a1.74,1.74,0,0,1-.92-.25,1.84,1.84,0,0,1-.65-.65v.82h-.5v-5.92h.56v2.58a2.39,2.39,0,0,1,.68-.7,1.65,1.65,0,0,1,.92-.26,1.6,1.6,0,0,1,.8.19,1.71,1.71,0,0,1,.6.5,2.16,2.16,0,0,1,.38.7,2.46,2.46,0,0,1,.14.81,2.39,2.39,0,0,1-.58,1.54,2.17,2.17,0,0,1-.64.47A1.9,1.9,0,0,1,337.65,191.28Zm-.13-.48a1.34,1.34,0,0,0,.64-.15,1.55,1.55,0,0,0,.5-.38,2.08,2.08,0,0,0,.32-.54,1.68,1.68,0,0,0,.12-.63,2,2,0,0,0-.11-.64,1.74,1.74,0,0,0-.31-.55,1.37,1.37,0,0,0-.48-.38,1.27,1.27,0,0,0-.61-.14,1.4,1.4,0,0,0-.47.08,2.06,2.06,0,0,0-.41.23,2.13,2.13,0,0,0-.33.34,1.85,1.85,0,0,0-.24.4v1.32a1,1,0,0,0,.17.41,1.78,1.78,0,0,0,.34.33,1.72,1.72,0,0,0,.43.21A1.23,1.23,0,0,0,337.52,190.8Z"></path><path d="M342.39,191.28a2.07,2.07,0,0,1-.84-.17,2,2,0,0,1-.66-.48,2.26,2.26,0,0,1-.44-.69,2.4,2.4,0,0,1-.15-.84,2.13,2.13,0,0,1,.16-.84,2,2,0,0,1,.44-.7,2,2,0,0,1,.66-.48,2,2,0,0,1,1.67,0,2.16,2.16,0,0,1,.67.48,2.38,2.38,0,0,1,.44.7,2.32,2.32,0,0,1,.15.84,2.4,2.4,0,0,1-.15.84,2.23,2.23,0,0,1-.43.69,2,2,0,0,1-1.52.65Zm-1.53-2.17a1.76,1.76,0,0,0,.12.66,1.69,1.69,0,0,0,.33.53,1.48,1.48,0,0,0,.49.37,1.45,1.45,0,0,0,.59.13,1.39,1.39,0,0,0,.6-.14,1.6,1.6,0,0,0,.49-.36,1.78,1.78,0,0,0,.45-1.21,1.84,1.84,0,0,0-.12-.66,1.63,1.63,0,0,0-.33-.54,1.48,1.48,0,0,0-.49-.37,1.38,1.38,0,0,0-.6-.13,1.31,1.31,0,0,0-.59.13,1.59,1.59,0,0,0-.49.37,1.79,1.79,0,0,0-.33.55A1.85,1.85,0,0,0,340.86,189.11Z"></path><path d="M346.74,191.28a1.16,1.16,0,0,1-1-.46,2.24,2.24,0,0,1-.34-1.36V187h.55v2.39c0,1,.33,1.44,1,1.44a1.32,1.32,0,0,0,.48-.09,1.54,1.54,0,0,0,.44-.23,1.76,1.76,0,0,0,.35-.37,1.84,1.84,0,0,0,.26-.48V187H349v3.52c0,.15.07.22.2.22v.49l-.16,0h-.09a.43.43,0,0,1-.31-.14.46.46,0,0,1-.13-.35v-.49a1.92,1.92,0,0,1-.75.77A2,2,0,0,1,346.74,191.28Z"></path><path d="M352.27,191l-.14.06-.22.08-.27.08a1.76,1.76,0,0,1-.33,0,1.27,1.27,0,0,1-.34-.05.69.69,0,0,1-.28-.15.82.82,0,0,1-.2-.25.86.86,0,0,1-.07-.36v-3h-.59V187h.59v-1.43H351V187h1v.44h-1v2.87a.44.44,0,0,0,.17.35.58.58,0,0,0,.34.11,1.08,1.08,0,0,0,.42-.08l.22-.11Z"></path></g><g style="opacity:0.4"><path d="M400.86,186.52a1.71,1.71,0,0,0-.64-.45,2.49,2.49,0,0,0-.93-.17,1.74,1.74,0,0,0-1.11.29,1,1,0,0,0-.35.78.74.74,0,0,0,.38.72,2.15,2.15,0,0,0,.5.21q.3.09.72.18a5.54,5.54,0,0,1,.83.22,2.31,2.31,0,0,1,.63.3,1.29,1.29,0,0,1,.4.44,1.42,1.42,0,0,1,.13.65,1.47,1.47,0,0,1-.15.69,1.27,1.27,0,0,1-.43.49,2,2,0,0,1-.66.29,3.58,3.58,0,0,1-.83.09,3.45,3.45,0,0,1-2.32-.84l.29-.46a2,2,0,0,0,.37.31,2.71,2.71,0,0,0,.48.26,3.06,3.06,0,0,0,.56.17,3.21,3.21,0,0,0,.63.06,2.05,2.05,0,0,0,1.08-.25.83.83,0,0,0,.38-.75.79.79,0,0,0-.11-.45,1,1,0,0,0-.32-.32,2.6,2.6,0,0,0-.55-.23c-.21-.06-.46-.13-.75-.19s-.57-.15-.8-.22a2,2,0,0,1-.57-.29,1.08,1.08,0,0,1-.36-.41,1.3,1.3,0,0,1-.11-.59,1.64,1.64,0,0,1,.15-.71,1.51,1.51,0,0,1,.42-.52,2.17,2.17,0,0,1,.65-.31,3.09,3.09,0,0,1,.83-.11,3,3,0,0,1,1,.17,2.78,2.78,0,0,1,.81.49Z"></path><path d="M405.86,191.2h-.55v-2.36a1.87,1.87,0,0,0-.25-1.08.81.81,0,0,0-.72-.36,1.14,1.14,0,0,0-.47.1,1.56,1.56,0,0,0-.43.25,1.85,1.85,0,0,0-.36.38,1.74,1.74,0,0,0-.22.48v2.59h-.55v-5.92h.55v2.65a1.88,1.88,0,0,1,.7-.75,1.77,1.77,0,0,1,1-.28,1.28,1.28,0,0,1,.61.13,1.18,1.18,0,0,1,.42.38,1.84,1.84,0,0,1,.23.57,3.54,3.54,0,0,1,.07.75Z"></path><path d="M408.84,191.28a2.07,2.07,0,0,1-.84-.17,2,2,0,0,1-.66-.48,2.26,2.26,0,0,1-.44-.69,2.4,2.4,0,0,1-.15-.84,2.13,2.13,0,0,1,.16-.84,2,2,0,0,1,.44-.7,2,2,0,0,1,.66-.48,2,2,0,0,1,1.67,0,2.16,2.16,0,0,1,.67.48,2.19,2.19,0,0,1,.44.7,2.32,2.32,0,0,1,.15.84,2.4,2.4,0,0,1-.15.84,2.23,2.23,0,0,1-.43.69,2,2,0,0,1-1.52.65Zm-1.53-2.17a1.76,1.76,0,0,0,.12.66,1.69,1.69,0,0,0,.33.53,1.48,1.48,0,0,0,.49.37,1.45,1.45,0,0,0,.59.13,1.39,1.39,0,0,0,.6-.14,1.6,1.6,0,0,0,.49-.36,1.85,1.85,0,0,0,.46-1.21,1.85,1.85,0,0,0-.13-.66,1.63,1.63,0,0,0-.33-.54,1.48,1.48,0,0,0-.49-.37,1.38,1.38,0,0,0-.6-.13,1.31,1.31,0,0,0-.59.13,1.59,1.59,0,0,0-.49.37,1.79,1.79,0,0,0-.33.55A1.85,1.85,0,0,0,407.31,189.11Z"></path><path d="M414,191.28a1.7,1.7,0,0,1-.95-.27,2.18,2.18,0,0,1-.66-.69v2.61h-.55v-6h.49v.82a2.08,2.08,0,0,1,.68-.64,1.65,1.65,0,0,1,.9-.25,1.77,1.77,0,0,1,.8.18,2.06,2.06,0,0,1,.64.49,2.43,2.43,0,0,1,.41.7,2.33,2.33,0,0,1,.15.82,2.65,2.65,0,0,1-.13.85,2.36,2.36,0,0,1-.4.69,1.91,1.91,0,0,1-.61.48A1.77,1.77,0,0,1,414,191.28Zm-.16-.48a1.33,1.33,0,0,0,.63-.15,1.74,1.74,0,0,0,.78-.93,1.89,1.89,0,0,0,.1-.63,1.78,1.78,0,0,0-.12-.65,1.87,1.87,0,0,0-.33-.54,1.7,1.7,0,0,0-.5-.38,1.44,1.44,0,0,0-.62-.13,1.41,1.41,0,0,0-.44.08,1.61,1.61,0,0,0-.43.23,1.19,1.19,0,0,0-.34.33.85.85,0,0,0-.18.4v1.3a2.22,2.22,0,0,0,.25.42,1.57,1.57,0,0,0,.34.34,1.36,1.36,0,0,0,.41.22A1.2,1.2,0,0,0,413.87,190.8Z"></path></g><g style="opacity:0.4"><path d="M456.15,188.28a3.16,3.16,0,0,1,.18-1,2.91,2.91,0,0,1,.53-.92,2.7,2.7,0,0,1,.86-.66,2.57,2.57,0,0,1,1.16-.25,2.32,2.32,0,0,1,1.32.35,2.06,2.06,0,0,1,.81.9l-.45.28a1.7,1.7,0,0,0-.33-.48,2.52,2.52,0,0,0-.43-.32,2,2,0,0,0-.47-.17,2.61,2.61,0,0,0-.48-.05,2,2,0,0,0-.92.21,2.22,2.22,0,0,0-.67.55,2.59,2.59,0,0,0-.41.77,2.82,2.82,0,0,0-.14.86,2.59,2.59,0,0,0,.17.92,2.39,2.39,0,0,0,.46.77,2.09,2.09,0,0,0,.68.54,1.91,1.91,0,0,0,.86.2,2.12,2.12,0,0,0,.49-.06,1.94,1.94,0,0,0,.5-.2,2,2,0,0,0,.44-.33,1.54,1.54,0,0,0,.34-.48l.47.24a1.61,1.61,0,0,1-.39.57,2.28,2.28,0,0,1-.56.42,2.85,2.85,0,0,1-.65.26,2.71,2.71,0,0,1-.68.09,2.37,2.37,0,0,1-1.09-.26,2.81,2.81,0,0,1-.85-.68,3,3,0,0,1-.55-.95A2.87,2.87,0,0,1,456.15,188.28Z"></path><path d="M463.78,191.28a2.1,2.1,0,0,1-.84-.17,2.2,2.2,0,0,1-1.1-1.17,2.4,2.4,0,0,1-.15-.84,2.13,2.13,0,0,1,.16-.84,2,2,0,0,1,.44-.7,2,2,0,0,1,.66-.48,2,2,0,0,1,1.67,0,2.16,2.16,0,0,1,.67.48,2.19,2.19,0,0,1,.44.7,2.32,2.32,0,0,1,.16.84,2.41,2.41,0,0,1-.16.84,2.23,2.23,0,0,1-.43.69,2.16,2.16,0,0,1-.67.48A2.11,2.11,0,0,1,463.78,191.28Zm-1.53-2.17a1.76,1.76,0,0,0,.12.66,1.69,1.69,0,0,0,.33.53,1.48,1.48,0,0,0,.49.37,1.45,1.45,0,0,0,.59.13,1.39,1.39,0,0,0,.6-.14,1.6,1.6,0,0,0,.49-.36,1.87,1.87,0,0,0,.33-.54,1.77,1.77,0,0,0,0-1.33,1.63,1.63,0,0,0-.33-.54,1.48,1.48,0,0,0-.49-.37,1.38,1.38,0,0,0-.6-.13,1.34,1.34,0,0,0-.59.13,1.71,1.71,0,0,0-.49.37,1.79,1.79,0,0,0-.33.55A1.85,1.85,0,0,0,462.25,189.11Z"></path><path d="M470.37,191.2h-.56v-2.36a2.08,2.08,0,0,0-.22-1.1.78.78,0,0,0-.68-.34,1.37,1.37,0,0,0-.49.09,2,2,0,0,0-.45.25,2,2,0,0,0-.37.39,1.54,1.54,0,0,0-.24.48v2.59h-.55V187h.51v1a2,2,0,0,1,.74-.75,2,2,0,0,1,1.05-.28,1.2,1.2,0,0,1,.59.13,1.12,1.12,0,0,1,.39.36,1.59,1.59,0,0,1,.21.58,4.37,4.37,0,0,1,.07.76Z"></path><path d="M473.53,191l-.14.06-.22.08-.27.08a1.69,1.69,0,0,1-.33,0,1.27,1.27,0,0,1-.34-.05.69.69,0,0,1-.28-.15.82.82,0,0,1-.2-.25.86.86,0,0,1-.07-.36v-3h-.58V187h.58v-1.43h.55V187h1v.44h-1v2.87a.44.44,0,0,0,.17.35.58.58,0,0,0,.34.11,1.08,1.08,0,0,0,.42-.08l.22-.11Z"></path><path d="M475.28,191.28a1.42,1.42,0,0,1-.55-.1,1.48,1.48,0,0,1-.45-.28,1.6,1.6,0,0,1-.3-.42,1.25,1.25,0,0,1-.1-.51,1,1,0,0,1,.13-.51,1.29,1.29,0,0,1,.36-.41,1.92,1.92,0,0,1,.56-.26,2.37,2.37,0,0,1,.72-.1,3.85,3.85,0,0,1,.66.06,3,3,0,0,1,.59.16v-.38a1.24,1.24,0,0,0-.32-.89,1.15,1.15,0,0,0-.87-.33,2,2,0,0,0-.67.13,3,3,0,0,0-.69.38l-.19-.37a2.8,2.8,0,0,1,1.59-.55,1.71,1.71,0,0,1,1.25.45,1.65,1.65,0,0,1,.45,1.23v1.91c0,.15.07.22.2.22v.49l-.21,0a.49.49,0,0,1-.33-.11.41.41,0,0,1-.12-.29l0-.33a2,2,0,0,1-.73.58A2.39,2.39,0,0,1,475.28,191.28Zm.13-.42a1.86,1.86,0,0,0,.79-.16,1.22,1.22,0,0,0,.55-.43.42.42,0,0,0,.11-.16.34.34,0,0,0,0-.16v-.69a4,4,0,0,0-.57-.16,3.08,3.08,0,0,0-.61-.06,1.64,1.64,0,0,0-1,.25.73.73,0,0,0-.36.64.86.86,0,0,0,.07.36,1.11,1.11,0,0,0,.22.3.92.92,0,0,0,.32.2A1,1,0,0,0,475.41,190.86Z"></path><path d="M478.35,189.07a2.2,2.2,0,0,1,.16-.84,2,2,0,0,1,1.1-1.16,2.2,2.2,0,0,1,.86-.17,2,2,0,0,1,1,.27,1.77,1.77,0,0,1,.67.74l-.53.17a1.29,1.29,0,0,0-.5-.51,1.47,1.47,0,0,0-.71-.18,1.39,1.39,0,0,0-.61.13,1.42,1.42,0,0,0-.49.35,1.87,1.87,0,0,0-.32.53,1.85,1.85,0,0,0-.12.67,1.91,1.91,0,0,0,.12.68,1.82,1.82,0,0,0,.34.55,1.6,1.6,0,0,0,.49.36,1.31,1.31,0,0,0,.59.14,1.34,1.34,0,0,0,.4-.06,1.61,1.61,0,0,0,.38-.16,1.34,1.34,0,0,0,.29-.23.75.75,0,0,0,.17-.28l.54.17a1.19,1.19,0,0,1-.26.41,1.89,1.89,0,0,1-.4.34,2.38,2.38,0,0,1-.51.22,2.25,2.25,0,0,1-.58.07,2.15,2.15,0,0,1-.85-.17,2.2,2.2,0,0,1-.68-.48,2.3,2.3,0,0,1-.44-.7A2.23,2.23,0,0,1,478.35,189.07Z"></path><path d="M485.13,191l-.14.06-.22.08-.27.08a1.84,1.84,0,0,1-.33,0,1.27,1.27,0,0,1-.34-.05.79.79,0,0,1-.48-.4.86.86,0,0,1-.07-.36v-3h-.59V187h.59v-1.43h.55V187h1v.44h-1v2.87a.44.44,0,0,0,.17.35.58.58,0,0,0,.34.11,1.08,1.08,0,0,0,.42-.08l.22-.11Z"></path></g><rect x="264.94" y="192.93" width="20.65" height="0.88" style="fill:#263238"></rect><path d="M328.79,151.23a43.78,43.78,0,0,1-6.61,2.37q-3.37.92-6.79,1.73a5.54,5.54,0,0,0-.66.13l-1.11.28c-.38.11-.88.23-1.51.35a2.38,2.38,0,0,0-1.49,0,14.2,14.2,0,0,0-1.45.54,7.15,7.15,0,0,1-1.55.47,3.08,3.08,0,0,1-1.83-.28,1.42,1.42,0,0,0-.7.09,7.65,7.65,0,0,0-1,.41,3.79,3.79,0,0,0-.88.6,1.29,1.29,0,0,0-.44.6l.37.38c.05.13,0,.37-.19.73s-.35.74-.56,1.14a12.3,12.3,0,0,1-.67,1.1,2.57,2.57,0,0,1-.53.63,2.76,2.76,0,0,1-.29,1.36c-.23.53-.48,1.09-.76,1.68s-.52,1.2-.75,1.83a5,5,0,0,0-.35,1.77,2.07,2.07,0,0,0,.06.5.86.86,0,0,1,0,.45l-.06.12a2.9,2.9,0,0,0-.92,1.3,9.64,9.64,0,0,0-.44,1.64c-.11.57-.23,1.13-.38,1.67a3.94,3.94,0,0,1-.73,1.46v.06l-.06.06a1.57,1.57,0,0,1-1.36.13,2.73,2.73,0,0,1-.95-.76,6.93,6.93,0,0,1-.75-1.17,6.83,6.83,0,0,0-.79-1.17,3.44,3.44,0,0,1-.19-1.42,2.36,2.36,0,0,1,.57-1.23l.12-.06a.94.94,0,0,1-.22-.92,5.74,5.74,0,0,1,.38-.79,2.85,2.85,0,0,0,.32-.79,1.19,1.19,0,0,0-.42-1l.13-.12a2.87,2.87,0,0,0,.89-1.87,10.14,10.14,0,0,0-.1-2.12,19.32,19.32,0,0,1-.19-2.14,3.14,3.14,0,0,1,.6-2l.06-.06c0-.26-.12-.59-.5-1s-.67-.73-.89-.94c-.25.63-.57,1-1,1a4.59,4.59,0,0,1-1.33-.16c-.49-.13-1-.23-1.42-.32a1.41,1.41,0,0,0-1.27.44l-.31.26-.13-.26q-.25-.55-.66-.6a4.2,4.2,0,0,0-.92,0l-1.42.09c-.44,0-.9,0-1.36,0a1.07,1.07,0,0,0-.85-.25l-.95.13a5,5,0,0,1-.95,0,1.35,1.35,0,0,1-.91-.54,4.94,4.94,0,0,0-1.39,1.48c-.63.87-1.3,1.83-2,2.88s-1.35,2.07-2,3.06-1,1.68-1.23,2.06-.37.57-.6.95-.48.76-.73,1.16-.49.78-.7,1.14-.37.66-.5.92l.06.19a2,2,0,0,1-.19,1,1.62,1.62,0,0,1-.47.56,4.94,4.94,0,0,1-.54.38,3.22,3.22,0,0,0-.44.35,1.07,1.07,0,0,0-.76.25,3.09,3.09,0,0,0-.44.57,2.6,2.6,0,0,1-.48.57,1.32,1.32,0,0,1-.91.25,3.42,3.42,0,0,0-.32.45c0,.08-.1.25-.19.5a2.87,2.87,0,0,1-.22.63,1,1,0,0,1-.19.29l-.22.19a1.17,1.17,0,0,0-.25.28.65.65,0,0,1-.57-.12,3.35,3.35,0,0,1-.38-.48c-.13-.19-.24-.38-.35-.57a1,1,0,0,0-.41-.41l.07-.19a49.36,49.36,0,0,1,3-7.1q1.77-3.39,3.79-6.73a2.64,2.64,0,0,0,.19-.51,1.91,1.91,0,0,1,.19-.5c.21-.55.43-1.08.66-1.58a8.34,8.34,0,0,1,.86-1.46q.44-.69.78-1.32c.24-.42.46-.87.67-1.33l-.13-.13a25.7,25.7,0,0,1-3.5-3.38,29.39,29.39,0,0,1-2.82-3.95c-.21-.38-.42-.76-.63-1.17s-.42-.76-.63-1.1l-.06-.06a16.48,16.48,0,0,1,.19-2.53,3.84,3.84,0,0,1,1.13-2.21l.07-.07V140a3,3,0,0,1,.69-.95,3.37,3.37,0,0,1,.79-.5c.28-.13.56-.24.85-.35a2.83,2.83,0,0,0,.89-.54v-.06a29.52,29.52,0,0,1,2.84-1.07,3.79,3.79,0,0,1,3,.37l.13-.06a3.2,3.2,0,0,1,1.39-.35l1.45,0a7,7,0,0,1,.79.48c.27.19.55.37.82.53a3.28,3.28,0,0,0,.86.38,1.06,1.06,0,0,0,.82-.06h.06v-.06a4.41,4.41,0,0,0,1-1.8c.25-.78.52-1.62.79-2.5s.58-1.76.92-2.62a6.88,6.88,0,0,1,1.39-2.25,3.29,3.29,0,0,1,.25-.85c.17-.44.35-1,.54-1.51a13.43,13.43,0,0,0,.44-1.71,3,3,0,0,0,0-1.42l.57.06a1.37,1.37,0,0,0,.31-.44l-.06-.19a.69.69,0,0,1-.19-.63,2.87,2.87,0,0,1,.19-.7h-.06l-.07-.25.73-.25c.36-.13.73-.28,1.1-.45l1.05-.44a4.1,4.1,0,0,1,.53-.19,1.71,1.71,0,0,1,1,1.14,4.08,4.08,0,0,1-.09,1.52,3.08,3.08,0,0,0,0,.72,6.45,6.45,0,0,1,0,.67,4.91,4.91,0,0,1-.32,1.54c-.21.62-.45,1.26-.72,1.93a16,16,0,0,1-.92,1.9c-.34.59-.63,1.07-.88,1.45v.38a10.83,10.83,0,0,1-.38,2.75,24.45,24.45,0,0,1-.95,2.81c-.38.93-.79,1.83-1.23,2.72s-.88,1.72-1.3,2.52c-.29.51-.61,1.09-.95,1.74s-.66,1.32-1,2a20.85,20.85,0,0,0-.82,2.05,11.34,11.34,0,0,0-.47,1.87v.06l-1.58,3a2,2,0,0,0,.79.54c.36.15.74.28,1.14.41a7.44,7.44,0,0,0,1.2.28,6,6,0,0,0,1,.1,6.47,6.47,0,0,1,1.17.09,2,2,0,0,1,1,.67l.12.12H288a3.91,3.91,0,0,1,.89-.12h.88a2.73,2.73,0,0,0,1,.06l1-.13-.06.45a3.88,3.88,0,0,0,.5.44,6.84,6.84,0,0,1,.76-1,4.09,4.09,0,0,0,.44.57,2.19,2.19,0,0,0,.47-.51c.19-.25.33-.38.42-.38l.06-.06.06.06a4.63,4.63,0,0,0,2.09.25,16.55,16.55,0,0,1,2.08-.12,1.67,1.67,0,0,1,.54-.7,5.57,5.57,0,0,0,.63-.54,1.1,1.1,0,0,0,.35-.6,1.29,1.29,0,0,0-.32-.88l-.06-.13c.29-.5.53-.91.69-1.23s.33-.6.48-.85a5.45,5.45,0,0,0,.28-.51,35.91,35.91,0,0,0,2.21-4.26,11.38,11.38,0,0,0,.95-4.65v-.44a.61.61,0,0,1,.25-.06c.64-.25,1-.6,1-1a5.4,5.4,0,0,0-.07-1.43,4.26,4.26,0,0,1,0-1.51,2.14,2.14,0,0,1,1.3-1.33l.13-.06.06-.13q.38-.94.66-1.92a18.33,18.33,0,0,1,.67-1.93,28.11,28.11,0,0,0,1.76-6.13,3,3,0,0,1,.6-1.36l1-1.2a10.14,10.14,0,0,0,.92-1.26,2.83,2.83,0,0,0,.41-1.49,1.26,1.26,0,0,0-.13-.69v-.19l.13-.07a5.22,5.22,0,0,0,2-1.58,4,4,0,0,0,.69-2.4q0-.18,0-.69a1.11,1.11,0,0,0-.15-.63,9.75,9.75,0,0,0,1.2-1l.12.06a3.81,3.81,0,0,1,1.49,1.8,3.91,3.91,0,0,1,.12,1.86,13.56,13.56,0,0,1-.47,2,7,7,0,0,0-.32,2.09l-.06.06a15.91,15.91,0,0,0-1.52,3.73,15.29,15.29,0,0,0-.56,4c-.47,0-.75.11-.86.32a3.2,3.2,0,0,0-.25.79c-.06.31-.15.64-.25,1a1.65,1.65,0,0,1-.79.88l.12.19a.44.44,0,0,0,0,.19.34.34,0,0,1,0,.19,1.22,1.22,0,0,1-.19.66l-.38.57a1.26,1.26,0,0,0-.22.6,1,1,0,0,0,.28.7,3.32,3.32,0,0,0,.32.44h-.7c-.67,1.31-1.28,2.63-1.83,4s-1,2.72-1.52,4.11c-.38,1.18-.78,2.34-1.2,3.47a25.67,25.67,0,0,1-1.51,3.35v.19a1.53,1.53,0,0,1,.09,1.71,6.7,6.7,0,0,1-1,1.1,2.74,2.74,0,0,0-.73.92c-.12.29.17.67.89,1.14.55-.55,1-.74,1.51-.57s1,.33,1.71.5l.35-.35c.1-.1.28-.11.53,0a.5.5,0,0,0,.13.1.51.51,0,0,1,.13.09q.38-.57.69-.63a1.14,1.14,0,0,1,.63.06l.64.26a.68.68,0,0,0,.63-.07.63.63,0,0,0,.25-.41,2.22,2.22,0,0,1,.19-.53,2.42,2.42,0,0,0,1.61.91,2.71,2.71,0,0,0,1.27-.38c.39-.23.8-.45,1.2-.66a1.56,1.56,0,0,1,1.42.06,6.44,6.44,0,0,0,1.42-.16l1.42-.28c1.22-.21,2.42-.38,3.6-.5a12.84,12.84,0,0,1,3.6.12ZM280.2,139.1a8.22,8.22,0,0,0-1,.06,1.49,1.49,0,0,0-.86.44.17.17,0,0,0-.12-.06,7.06,7.06,0,0,0-4.74.25,11.11,11.11,0,0,0-3.92,2.72l-.12.5a1.14,1.14,0,0,0-.07.41v.35a5.17,5.17,0,0,0,1.49,3.48,8.92,8.92,0,0,0,1.2.94l1.32.89a6.23,6.23,0,0,1,1.24,1.07,2,2,0,0,0,1.73-.66,4.47,4.47,0,0,0,.7-1.58c.15-.61.3-1.23.47-1.86a2.6,2.6,0,0,1,1.08-1.52s.06,0,.06,0,0,0,.06,0a1.6,1.6,0,0,1,0-1.27,9.91,9.91,0,0,1,.7-1.26,8,8,0,0,0,.69-1.33A2.41,2.41,0,0,0,280.2,139.1Z" style="fill:#263238"></path><path d="M365.24,155.33c-.38.38-.66.68-.85.89s-.36.41-.51.6-.31.39-.5.6l-.85,1a9.68,9.68,0,0,0-.95,1.07,5.68,5.68,0,0,1-1,1,1.22,1.22,0,0,0-1.17.19,5.62,5.62,0,0,0-.76.85l-.63.89a.73.73,0,0,1-.73.35,29.46,29.46,0,0,1-3,1.42,11,11,0,0,0-2.91,1.74l-.5-.51-6.57,3.16a2.25,2.25,0,0,0-.64.38,6,6,0,0,1-.63.44,26,26,0,0,1-2.87,1.36c-1,.4-2,.77-2.94,1.1l-.82.26q.5,1.26,0,1.77a3,3,0,0,1-1.45.72,12.85,12.85,0,0,1-2.09.29,3.88,3.88,0,0,0-1.77.44,7.22,7.22,0,0,0-1.55-.1c-.52,0-1.06.08-1.61.16a10.92,10.92,0,0,1-1.64.13,7.58,7.58,0,0,1-1.64-.19h-.13a2.4,2.4,0,0,1-1.86.22,3.59,3.59,0,0,1-1.43-1A8.17,8.17,0,0,1,320,173a17.28,17.28,0,0,0-1.11-1.67c-.25-.34-.57-.82-.95-1.45a13.59,13.59,0,0,1-1-2,7.93,7.93,0,0,1-.5-2.18,2.79,2.79,0,0,1,.47-1.92,7.83,7.83,0,0,0,.92-1.77,6.45,6.45,0,0,0,.35-2.21c0-.3,0-.57,0-.82s0-.53,0-.83a6,6,0,0,1,.7,0,4.33,4.33,0,0,0,.72,0,.94.94,0,0,0,.57-.26,1.08,1.08,0,0,0,.22-.79.61.61,0,0,0-.22-.5.9.9,0,0,1-.28-.38,5.9,5.9,0,0,1,.72-.92,4.62,4.62,0,0,0,.6-.69,2.38,2.38,0,0,0,.38-.82,2.69,2.69,0,0,0-.06-1.3,11.75,11.75,0,0,1,1.8-2.37,28.78,28.78,0,0,1,2.18-2q1.14-.91,2.34-1.8a24.45,24.45,0,0,0,2.27-1.89,2,2,0,0,0,1.93,0,8.83,8.83,0,0,0,1.3-1.11,6.23,6.23,0,0,1,1.13-1c.38-.25.89-.15,1.52.32l.13.12a4.22,4.22,0,0,1,3.44-1.51,5.74,5.74,0,0,1,3,1.13,4.42,4.42,0,0,1,1.61,2.18,1.21,1.21,0,0,1-.7,1.68,2.22,2.22,0,0,1,.7,1.64,2.69,2.69,0,0,1-.51,1.64,12.49,12.49,0,0,0-1,1.55l-.85,1.68a24.22,24.22,0,0,1-1.39,2.74,6.22,6.22,0,0,1-2.15,2.18c-.75-.21-1.27-.12-1.54.26a3.7,3.7,0,0,0-.6,1.23,3.8,3.8,0,0,1-.45,1c-.17.25-.52.17-1.07-.25l-.13-.13-.12.13a3.83,3.83,0,0,0-.79,1.14,2.12,2.12,0,0,1-.79.94,10.51,10.51,0,0,0-1.2-.31l-1.2-.25a3.7,3.7,0,0,1-.51,2.08,4,4,0,0,1-1.29,1.23,7.24,7.24,0,0,1-1.81.76,16.83,16.83,0,0,0-2,.7,9.58,9.58,0,0,0-1.83,1,4.2,4.2,0,0,0-1.36,1.67,2.34,2.34,0,0,0,1.58.79,10.69,10.69,0,0,0,2,0c.68-.06,1.34-.09,2-.09a3.06,3.06,0,0,1,1.74.5l.06.06.07-.06a12.21,12.21,0,0,0,2.93-.73c.95-.35,1.88-.73,2.78-1.13s1.84-.78,2.78-1.14a15.56,15.56,0,0,1,2.94-.79,1.13,1.13,0,0,0,.86.57,3,3,0,0,0,1-.06l.06-.13c.08-.29.17-.56.25-.79a6.1,6.1,0,0,1,.38-.79,3.24,3.24,0,0,1,1.08-1.07,4.73,4.73,0,0,1,1.35-.57,9.46,9.46,0,0,1,1.55-.26c.55,0,1.1-.1,1.65-.19h.12l.07-.18a1.91,1.91,0,0,1,.66-1,2.94,2.94,0,0,1,.88-.41,10.05,10.05,0,0,1,1-.19,2.52,2.52,0,0,0,1.05-.38,1.84,1.84,0,0,0,1.89-.25c.51-.42,1-.86,1.46-1.33l.5.64.19-.26,1.42-1.32c.32-.3.62-.56.92-.79a8.52,8.52,0,0,1,1-.7c.4-.23,1-.58,1.68-1l1.73-1.14a19.35,19.35,0,0,0,1.68-1.26.46.46,0,0,1,.31.47v.67a1.24,1.24,0,0,0-.09.37A.45.45,0,0,0,365.24,155.33Zm-26.15-7.89c0-.05-.08-.07-.1-.07s-.05,0-.09-.06a4.76,4.76,0,0,0-2.22-.66,3.15,3.15,0,0,0-1.61.5,6.19,6.19,0,0,0-1.32,1.2,12.39,12.39,0,0,1-1.27,1.33,4.72,4.72,0,0,1-1.55.92,3.44,3.44,0,0,1-2.14-.07c-.13.68-.25,1.34-.35,2a18.92,18.92,0,0,0-.22,2,3.86,3.86,0,0,0-1.68,1.08,7.65,7.65,0,0,0-1,1.51c-.27.55-.52,1.13-.76,1.74a8,8,0,0,1-.91,1.74l.25.31c.17-.08.36,0,.57.19l.44.45a5.72,5.72,0,0,1,1.87-1.71c.77-.46,1.58-.89,2.4-1.3s1.61-.83,2.37-1.29a4.53,4.53,0,0,0,1.7-1.83,4.91,4.91,0,0,0,3-2.28,21.37,21.37,0,0,0,1.71-3.54,9.75,9.75,0,0,1,.47-1.1A5.61,5.61,0,0,0,339.09,147.44Z" style="fill:#263238"></path><path d="M398.41,153.94a3.67,3.67,0,0,1-.34,1.84c-.28.59-.52,1.11-.73,1.58l-2,2.14-1.2,3.6c-.47.34-1,.67-1.49,1a15.25,15.25,0,0,0-1.42,1,7.77,7.77,0,0,0-1.23,1.27,7.41,7.41,0,0,1-1.17,1.2,5.8,5.8,0,0,1-1.49.85,10.1,10.1,0,0,0-1.54.79,27.09,27.09,0,0,0-2.37,1.58c-.74.55-1.51,1.07-2.31,1.58a1.35,1.35,0,0,0-.47.28,1.52,1.52,0,0,1-.48.29,9.88,9.88,0,0,1-1.64.5l-3.19.86c-1.16.31-2.24.6-3.25.85a16.32,16.32,0,0,1-1.71.38,22.31,22.31,0,0,1-2.34.13q-1.2,0-2.4.06l-.95.57a12.5,12.5,0,0,0-1.51-.95,7.33,7.33,0,0,1-1.39-1,15.57,15.57,0,0,1-1.27-1.29c-.42-.49-.8-.94-1.13-1.36q-.31-.88-.63-1.74a13.15,13.15,0,0,1-.51-1.67l-.32-2.4c-.08-.8-.15-1.58-.22-2.34s-.13-1.54-.22-2.34q1.08-3,1.93-6a46.35,46.35,0,0,1,2.12-5.91c.21-.46.41-.94.6-1.42s.38-1,.6-1.42a11.46,11.46,0,0,1,.82-1.42,10.75,10.75,0,0,0,.75-1.36,9.69,9.69,0,0,0,.51-1.55,7.59,7.59,0,0,1,.51-1.48,11,11,0,0,1,.63-1.11c.29-.48.61-1,.95-1.52l1-1.54c.32-.51.58-.91.79-1.21s.68-.82,1-1.2a5.06,5.06,0,0,0,.82-1.26,15.11,15.11,0,0,0,1.2-2.72,19.25,19.25,0,0,1,1.26-2.9,16,16,0,0,1,1.8-2.62,29.07,29.07,0,0,0,1.93-2.56,33.09,33.09,0,0,0,1.83-2.91l2.78-2,1.26,1.26,3-.5,1.89,2.84c-.08.63-.18,1.35-.28,2.15s-.19,1.61-.25,2.43-.11,1.62-.13,2.4a12.87,12.87,0,0,0,.09,2.05,13.79,13.79,0,0,1-.91,2.37,9.91,9.91,0,0,1-1.36,2.12l-.25,3.41-2.53,2.28-.32,3.22-2.14,2.53c-.13.59-.26,1.19-.38,1.8a11.25,11.25,0,0,1-.51,1.73,13,13,0,0,1-.76,1.55l-.88,1.61c-.84.72-1.71,1.52-2.59,2.41a30.42,30.42,0,0,0-2.4,2.65,13.14,13.14,0,0,0-1.05,1.48,16.69,16.69,0,0,1-1,1.49,39.79,39.79,0,0,1-3.53,3.92q-1.9,1.83-3.73,3.79l1.39,2.46c.88.3,1.79.57,2.72.82s1.85.49,2.78.7l1.45-.29c.55-.1,1.11-.23,1.71-.38s1.16-.3,1.73-.47a11.14,11.14,0,0,0,1.42-.51A20.55,20.55,0,0,0,378.7,169c1.1-.65,2-1.23,2.78-1.74q2-1.26,4.11-2.59c1.39-.88,2.71-1.81,4-2.78a22.19,22.19,0,0,0,2.65-2.4l2.62-2.75a25.54,25.54,0,0,1,2.22-2.11C397.71,154,398.16,153.82,398.41,153.94Zm-17.18-29.88c-.89,1.47-1.82,2.9-2.81,4.26a46.35,46.35,0,0,0-2.75,4.27,10.58,10.58,0,0,0-.76,1.55,8.82,8.82,0,0,1-.82,1.54c-.3.47-.61.93-.95,1.39a8.74,8.74,0,0,0-.88,1.52,26.51,26.51,0,0,0-1.36,3.06c-.4,1.08-.83,2.12-1.3,3.13a17.39,17.39,0,0,1-1.77,2.85,22.24,22.24,0,0,0-1.83,2.84l-1,2a2.17,2.17,0,0,1-.25.47,2.06,2.06,0,0,0-.26.48,4.6,4.6,0,0,0-.25,1.51,5.6,5.6,0,0,1-.19,1.52,5.47,5.47,0,0,1-.57,1.45c-.25.47-.48.93-.69,1.39a9.38,9.38,0,0,0-.51,1.43,14.53,14.53,0,0,1-.44,1.42,8.22,8.22,0,0,1,1.11-.92,12.29,12.29,0,0,0,1.17-.91,15.65,15.65,0,0,0,1.07-1.21,7.17,7.17,0,0,1,1.14-1.13,9.38,9.38,0,0,1,1.23-.92c.44-.27.87-.56,1.29-.85a22.16,22.16,0,0,0,1.77-2.84,8.83,8.83,0,0,0,.67-1.58,7,7,0,0,1,.72-1.58,6.41,6.41,0,0,1,1-1.33,8.11,8.11,0,0,0,1-1.33,8.26,8.26,0,0,0,.86-1.45,10.66,10.66,0,0,1,.79-1.45,24,24,0,0,1,2-2.66l.31-4,2.28-2.65.31-2.4,1.58-2.21.19-3.54Z" style="fill:#263238"></path><path d="M432.28,153.94a3.67,3.67,0,0,1-.35,1.84l-.72,1.58-2,2.14-1.2,3.6c-.46.34-1,.67-1.48,1a14,14,0,0,0-1.42,1,7.44,7.44,0,0,0-1.24,1.27,7,7,0,0,1-1.16,1.2,6,6,0,0,1-1.49.85,10.22,10.22,0,0,0-1.55.79c-.84.51-1.63,1-2.37,1.58s-1.5,1.07-2.3,1.58a1.52,1.52,0,0,0-.48.28,1.36,1.36,0,0,1-.47.29,10.68,10.68,0,0,1-1.64.5l-3.19.86c-1.16.31-2.25.6-3.26.85a17.11,17.11,0,0,1-1.7.38,22.31,22.31,0,0,1-2.34.13q-1.2,0-2.4.06l-.95.57a11.9,11.9,0,0,0-1.52-.95,7.67,7.67,0,0,1-1.39-1,15.51,15.51,0,0,1-1.26-1.29c-.42-.49-.8-.94-1.14-1.36L392.6,170a13.06,13.06,0,0,1-.5-1.67l-.32-2.4c-.09-.8-.16-1.58-.22-2.34s-.14-1.54-.22-2.34c.71-2,1.36-4,1.92-6a47.94,47.94,0,0,1,2.12-5.91c.21-.46.41-.94.6-1.42s.39-1,.6-1.42a12.88,12.88,0,0,1,.82-1.42,9.71,9.71,0,0,0,.76-1.36,10.81,10.81,0,0,0,.51-1.55,7.57,7.57,0,0,1,.5-1.48q.19-.39.63-1.11c.3-.48.61-1,.95-1.52s.66-1,1-1.54.58-.91.79-1.21.67-.82,1-1.2a4.8,4.8,0,0,0,.82-1.26,15.11,15.11,0,0,0,1.2-2.72,18.28,18.28,0,0,1,1.27-2.9,14.87,14.87,0,0,1,1.8-2.62c.69-.83,1.33-1.68,1.93-2.56a33.09,33.09,0,0,0,1.83-2.91l2.78-2,1.26,1.26,3-.5,1.9,2.84c-.09.63-.18,1.35-.29,2.15s-.19,1.61-.25,2.43-.1,1.62-.12,2.4a11.79,11.79,0,0,0,.09,2.05,13.87,13.87,0,0,1-.92,2.37,9.89,9.89,0,0,1-1.35,2.12l-.26,3.41-2.52,2.28-.32,3.22-2.15,2.53c-.12.59-.25,1.19-.38,1.8a10.22,10.22,0,0,1-.5,1.73,14.74,14.74,0,0,1-.76,1.55c-.3.53-.59,1.07-.89,1.61-.84.72-1.7,1.52-2.59,2.41a34,34,0,0,0-2.4,2.65,13.06,13.06,0,0,0-1,1.48c-.32.53-.64,1-1,1.49a38.66,38.66,0,0,1-3.54,3.92q-1.89,1.83-3.73,3.79l1.4,2.46c.88.3,1.79.57,2.71.82s1.85.49,2.78.7l1.45-.29c.55-.1,1.12-.23,1.71-.38s1.17-.3,1.74-.47a11.73,11.73,0,0,0,1.42-.51,21.1,21.1,0,0,0,2.91-1.48c1.09-.65,2-1.23,2.78-1.74q2-1.26,4.1-2.59t4-2.78a21.48,21.48,0,0,0,2.66-2.4l2.62-2.75a27.11,27.11,0,0,1,2.21-2.11C431.57,154,432,153.82,432.28,153.94Zm-17.19-29.88c-.88,1.47-1.82,2.9-2.81,4.26a48.54,48.54,0,0,0-2.75,4.27,11.63,11.63,0,0,0-.75,1.55,8.88,8.88,0,0,1-.83,1.54c-.29.47-.61.93-.94,1.39a9.47,9.47,0,0,0-.89,1.52,28.34,28.34,0,0,0-1.36,3.06c-.4,1.08-.83,2.12-1.29,3.13a18.87,18.87,0,0,1-1.77,2.85,20.26,20.26,0,0,0-1.83,2.84l-1,2a1.78,1.78,0,0,1-.26.47,2.09,2.09,0,0,0-.25.48,4.35,4.35,0,0,0-.25,1.51,6,6,0,0,1-.19,1.52,6.25,6.25,0,0,1-.57,1.45c-.25.47-.49.93-.69,1.39a8.42,8.42,0,0,0-.51,1.43c-.13.48-.28.95-.44,1.42a7.55,7.55,0,0,1,1.1-.92,12.29,12.29,0,0,0,1.17-.91,13.9,13.9,0,0,0,1.08-1.21,6.71,6.71,0,0,1,1.13-1.13,9.38,9.38,0,0,1,1.23-.92c.45-.27.88-.56,1.3-.85a24.64,24.64,0,0,0,1.77-2.84,9.62,9.62,0,0,0,.66-1.58,6.56,6.56,0,0,1,.73-1.58,6.07,6.07,0,0,1,1-1.33,8.11,8.11,0,0,0,1-1.33,8.2,8.2,0,0,0,.85-1.45,13.41,13.41,0,0,1,.79-1.45,25.29,25.29,0,0,1,2-2.66l.32-4,2.27-2.65.32-2.4,1.58-2.21.19-3.54Z" style="fill:#263238"></path><path d="M467.09,154.83a1.88,1.88,0,0,1-.19,1.61,4.34,4.34,0,0,1-1.17,1.17,10.51,10.51,0,0,1-1.58.91,6.45,6.45,0,0,0-1.42.92q-2.84.63-5.15.92c-1.53.19-3.23.43-5.08.72a4,4,0,0,1-1.55,0,5.3,5.3,0,0,0-1.49-.09c-.29,0-.56,0-.82,0a2.7,2.7,0,0,0-.75,0,2.13,2.13,0,0,0-1.9,1,8.8,8.8,0,0,0-.73,2,15.85,15.85,0,0,1-.69,2.08,2.49,2.49,0,0,1-1.74,1.36.54.54,0,0,0,.09.57,3.5,3.5,0,0,1,.35.44,2.05,2.05,0,0,0-1.42,1.14,17,17,0,0,0-.6,1.64,3.91,3.91,0,0,1-.73,1.39c-.31.38-.91.5-1.8.38a15.75,15.75,0,0,1-4.61,3.38,17.84,17.84,0,0,1-5.5,1.67,5.73,5.73,0,0,1-1-.63c-.32-.25-.64-.48-.95-.69a4.06,4.06,0,0,0-1-.48,2.83,2.83,0,0,0-1.24,0,7.3,7.3,0,0,0-.53-2.46,9.84,9.84,0,0,0-1.24-2.15,4.3,4.3,0,0,1,.29-2.12c.27-.65.56-1.29.85-1.92a13.35,13.35,0,0,0,.73-1.93,3.9,3.9,0,0,0-.1-2.25,2,2,0,0,0,.86-.88,4.78,4.78,0,0,0,.31-1,5.16,5.16,0,0,1,.29-1,1.55,1.55,0,0,1,.88-.79,2.19,2.19,0,0,1,.16-2.25,7.24,7.24,0,0,1,1.61-1.29,14.12,14.12,0,0,0,1.77-1.26,2.16,2.16,0,0,0,.63-2.09,3.4,3.4,0,0,1,.89-.63l1-.48a9.76,9.76,0,0,0,.91-.47,3.11,3.11,0,0,0,.82-.69c-.29-.21-.43-.42-.41-.64a2.87,2.87,0,0,1,.16-.66c.08-.23.18-.47.28-.73a.83.83,0,0,0,0-.75,4.61,4.61,0,0,0,3-.48c.87-.48,1.69-1,2.47-1.48a8.08,8.08,0,0,1,2.37-1.08,3.48,3.48,0,0,1,2.78.76c.08.3.22.73.41,1.3s.38,1.14.57,1.73.37,1.16.53,1.71a10.25,10.25,0,0,1,.32,1.2v5.05a9.45,9.45,0,0,0,3.66,1.3,5.78,5.78,0,0,0,3.67-.85,1.18,1.18,0,0,0,1.33.34,10.43,10.43,0,0,0,1.23-.66,2.54,2.54,0,0,1,1.23-.41c.42,0,.84.33,1.26,1a4.15,4.15,0,0,1,1.84-1,9.64,9.64,0,0,1,1.95-.25c.68,0,1.34-.08,2-.16A4.12,4.12,0,0,0,467.09,154.83ZM442.39,161a3.87,3.87,0,0,1-2.18-.6,21.6,21.6,0,0,1-1.83-1.36,23.45,23.45,0,0,0-1.9-1.42,4.81,4.81,0,0,0-2.37-.79,9.31,9.31,0,0,1-1.33,1.42,9.27,9.27,0,0,0-1.32,1.42,4.45,4.45,0,0,0-.79,1.64,3.06,3.06,0,0,0,.28,2,3.73,3.73,0,0,0-2,2,11,11,0,0,0-.66,2.82c-.11,1-.2,2-.28,3a6.42,6.42,0,0,1-.83,2.72l1.39-.95a.94.94,0,0,1,.41.38.6.6,0,0,1,0,.57,3.66,3.66,0,0,1,1.13-.79,7.7,7.7,0,0,1,1.3-.45c.44-.1.88-.2,1.33-.28a6.57,6.57,0,0,0,1.29-.38c1.05.59,1.81.72,2.28.38a3.57,3.57,0,0,0,1.13-1.52c.3-.67.61-1.38,1-2.11a2.29,2.29,0,0,1,1.64-1.36l-.44-.44a24,24,0,0,0,1.93-2.75A5.68,5.68,0,0,0,442.39,161Zm.44-5.06a7.23,7.23,0,0,1,.32-2,19.06,19.06,0,0,0,.5-2.12,4.75,4.75,0,0,0,0-2,3,3,0,0,0-1.23-1.7,3.08,3.08,0,0,0-1.14,1c-.29.44-.59.88-.88,1.33a4.41,4.41,0,0,1-1.05,1.1,1.87,1.87,0,0,1-1.54.26,1.22,1.22,0,0,0,0,1.23,5.15,5.15,0,0,0,.75.88c.3.28.58.56.86.86a1.26,1.26,0,0,1,.28,1.13,2.4,2.4,0,0,0,.7.35,3.14,3.14,0,0,0,.91.19,2.58,2.58,0,0,0,.92-.1A1,1,0,0,0,442.83,155.9Z" style="fill:#263238"></path><path d="M468,170.06l.31.31c-.25.3-.52.61-.82.95a6,6,0,0,1-1,.91,4.42,4.42,0,0,1-1.13.64,2,2,0,0,1-1.24,0,1.78,1.78,0,0,1-1.48-.44,1.61,1.61,0,0,1-.6-1.39,2.06,2.06,0,0,1,.47-1.27,7.7,7.7,0,0,0,.79-1l-.19-.25a1.3,1.3,0,0,1,.13-.7,2.24,2.24,0,0,0,.25-.63,2.13,2.13,0,0,1,.92-1.48,2.62,2.62,0,0,1,1.58-.45,2.78,2.78,0,0,1,1.55.57,2.21,2.21,0,0,1,.82,1.49,1,1,0,0,1,.09.73,2.57,2.57,0,0,1-.28.72,2.34,2.34,0,0,0,.69.44ZM486.62,119a3.8,3.8,0,0,1,0,1.46c-.1.5-.22,1-.34,1.55s-.25,1-.35,1.57a4.41,4.41,0,0,0,0,1.62l-1,1.32.44.32a2,2,0,0,0-1.17,1.26,10.12,10.12,0,0,0-.41,1.83,10.18,10.18,0,0,1-.41,1.81,2,2,0,0,1-1.23,1.23,8.82,8.82,0,0,1-.76,2.9c-.42.93-.87,1.86-1.33,2.78-.17.26-.35.52-.54.79a4,4,0,0,0-.41.79c-.17.47-.3.89-.41,1.27a6.31,6.31,0,0,1-.47,1.2,8.05,8.05,0,0,1-.76,1.42c-.29.44-.57.89-.82,1.36-.08.21-.17.44-.25.69a3.46,3.46,0,0,1-.32.7l-1.1,2.18a6.49,6.49,0,0,0-.67,2.37,5.19,5.19,0,0,0-1.36,1.77c-.31.67-.61,1.34-.88,2s-.56,1.29-.85,1.86a4.24,4.24,0,0,1-1.2,1.42,1.71,1.71,0,0,1-.76-.72,3.39,3.39,0,0,1-.35-1,8.87,8.87,0,0,1-.13-1.08,4.89,4.89,0,0,0-.15-1,2.09,2.09,0,0,0,1.13-1.2,5,5,0,0,0,.26-1.61q0-.85,0-1.71a3.46,3.46,0,0,1,.41-1.54,1.36,1.36,0,0,1,.38-.45,3.75,3.75,0,0,0,.44-.37,5.12,5.12,0,0,0,1.23-1.87,22,22,0,0,0,.85-2.53c.26-.9.5-1.8.73-2.68a14,14,0,0,1,.79-2.28l1.39-1.39-.44-.38a8.2,8.2,0,0,0,1-1.86c.25-.65.51-1.29.76-1.93a10.61,10.61,0,0,1,1-1.83,5.05,5.05,0,0,1,1.51-1.51,6.22,6.22,0,0,1-.09-2.56,7.74,7.74,0,0,1,.79-2.25,14,14,0,0,1,1.36-2.08c.52-.67,1-1.37,1.54-2.09a2,2,0,0,1,.51-2.08,1.65,1.65,0,0,0,.76-.06,4.13,4.13,0,0,1,.75-.19,1,1,0,0,1,.64.06C486.4,118.39,486.53,118.62,486.62,119Z" style="fill:#263238"></path></g><g id="freepik--Character--inject-138"><path d="M192.64,149.62c15.17,15.9,34,46,30.3,52.61-4.15,7.36-26-15.27-25.34-16.35.58-.92-7-17.81-12.46-32.44S188.89,145.69,192.64,149.62Z" style="fill:#ad6359"></path><path d="M211.23,168.68l-21.78,3.92s-5.44-15.43-6.51-24c-.61-4.8,2.21-5,5.76-2.45C201.13,155.08,211.23,168.68,211.23,168.68Z" style="fill:#37474f"></path><path d="M189.59,169A147.15,147.15,0,0,1,208,165.4s.07.14,0,.15c-5,1.27-15,3.09-18.35,3.69C189.58,169.25,189.53,169.05,189.59,169Z" style="fill:#263238"></path><path d="M208.31,169.2l-18.86,3.4s-5.43-15.43-6.51-24c-.39-3.07.63-4.26,2.34-4Z" style="fill:#263238"></path><path d="M201.49,201.58H146.3s7.54-34.7,25.32-54.94a11.23,11.23,0,0,1,16.13-.85,39.88,39.88,0,0,1,4,4.55c3.74,4.81,9.85,16.34,10.42,19.46.94,5.16-3.62,10.73-3.62,10.73Z" style="fill:#455a64"></path><path d="M180.78,177.45a51.53,51.53,0,0,1,7.64.69c1.25.23,2.48.51,3.72.82.61.15,1.23.29,1.85.42a8.21,8.21,0,0,0,2,.22c.06,0,.06.09,0,.09a13.17,13.17,0,0,1-1.88.11,13.74,13.74,0,0,1-1.81-.21c-1.27-.22-2.53-.49-3.8-.72-2.57-.47-5.13-.93-7.72-1.21C180.64,177.65,180.66,177.44,180.78,177.45Z" style="fill:#263238"></path><path d="M174.66,180.16a53.28,53.28,0,0,1,6.28-.76c1.06-.07,2.11-.07,3.17-.05l1.51.07c.55,0,1.1.13,1.66.15.05,0,.06.09,0,.09-.52,0-1.05.08-1.57.11l-1.58.07L181,180c-2.11.08-4.21.18-6.31.34A.09.09,0,1,1,174.66,180.16Z" style="fill:#263238"></path><path d="M222.94,202.23c-3.55,4.91-13,5.7-36.68,9.92-3.27.59-13.61-21.4-10.15-22.21,4.36-1,21.51-4,22.79-4.05C209.71,185.38,225.35,198.9,222.94,202.23Z" style="fill:#ad6359"></path><path d="M180.84,189s-10,1.34-15.05,3.67a35.79,35.79,0,0,0-13.07,11c-3.68,5-9.11,19.74-5.15,22.05,3.59,2.08,8.38-13.24,8.38-13.24s-7.46,14.82-2.68,16.53,9.34-16.38,9.34-16.38S155.28,228,160.49,229c3.94.75,9-15.42,9-15.42s-6.21,13.28-2.19,14.22c4.44,1.05,10-13.58,10-13.58,10.61.68,15.95-3.34,19.4-6.65C197.57,206.74,180.84,189,180.84,189Z" style="fill:#ad6359"></path><path d="M158.21,207.16c-.94,1.71-1.91,3.43-2.69,5.22s-1.51,3.6-2.12,5.45a33.72,33.72,0,0,0-1.71,7.43c.83-4.46,3.54-10.9,4.33-12.68s1.47-3.61,2.26-5.39C158.3,207.14,158.23,207.12,158.21,207.16Z" style="fill:#263238"></path><path d="M164.71,209.88c-1.11,2.23-2.29,4.41-3.29,6.69s-1.76,4.52-2.6,6.85c-.07.18.05.16.13,0,.93-2.3,2-4.35,2.94-6.64s1.83-4.62,2.87-6.86C164.78,209.86,164.73,209.84,164.71,209.88Z" style="fill:#263238"></path><path d="M170.71,211.2a55.5,55.5,0,0,0-4.25,10.63c-.06.18.09.13.16-.05,1.35-3.56,2.38-6.36,4.2-10.51C170.85,211.2,170.75,211.13,170.71,211.2Z" style="fill:#263238"></path><path d="M209.34,188.54c-1.57-1-6-3.34-10.4-2.69-.05,0-.05.08,0,.08,3.61,0,8.76,1.83,10.37,2.67A0,0,0,1,0,209.34,188.54Z" style="fill:#263238"></path><path d="M173.52,155c-7.91,17.81-28.9,44.84-36.49,44.51-8.44-.36,3.09-22.91,3.79-24,3.9-6.06,14.15-16.36,25.44-24.83C175.74,143.6,175.72,150.05,173.52,155Z" style="fill:#ad6359"></path><path d="M135.47,199.1c-4.41-2.72-4.83-13.11-7.84-36.95-.41-3.3,21.72-9.42,22.34-5.92.79,4.4,1.14,19.74,1.14,21C151.06,188.07,139,201.27,135.47,199.1Z" style="fill:#ad6359"></path><path d="M127.83,162.68c-.87-2.52-4-14.51-4.08-18s.36-13.56,3-13.9,2.77,2.61,2.77,2.61.86-4.22,3.58-4.32,2.72,4.5,2.72,4.5,1.21-4.26,3.92-4.17,2,4.72,2,4.72.92-4,3.12-2.93c2.65,1.22.14,8.32.53,12.16.09.88,3.07,17.57,3.07,17.57Z" style="fill:#ad6359"></path><path d="M141.77,133.73c-1.84,5.22-1.75,7.82-.53,13.14,0,.1-.13.16-.16,0-1.66-5.09-2.26-8.34.44-13.3C141.65,133.38,141.85,133.48,141.77,133.73Z" style="fill:#263238"></path><path d="M136,133.16c-1.43,5.59-1.35,8.42-.49,14.08,0,.08-.12.11-.14,0-1.31-5.48-1.83-8.74.34-14.14C135.8,132.89,136.06,132.91,136,133.16Z" style="fill:#263238"></path><path d="M129.59,133.68c-1,5.51-1,8.61.5,14a.1.1,0,0,1-.19.07,18.55,18.55,0,0,1-.48-14.08C129.53,133.33,129.65,133.33,129.59,133.68Z" style="fill:#263238"></path><path d="M149.23,162.57s3.12-6.2,3.88-9.23-.52-15.35-3.2-15.23c-3.46.17-4.11,7.43-4,11,0,0-8,.37-9.6,5.49S149.23,162.57,149.23,162.57Z" style="fill:#ad6359"></path><path d="M149,138.47c-3,2.42-2.56,7.14-2.68,10.64a.33.33,0,0,1-.43.31c-3.34.38-8,1.89-9.63,5-.05.09-.19,0-.15-.06,1.35-3.6,5.76-5.45,9.44-5.64.07-3.59-.21-8.34,3.42-10.29C149,138.43,149,138.45,149,138.47Z" style="fill:#263238"></path><path d="M150.66,164.14c.24,1.88.4,3.77.54,5.66s.21,3.79.25,5.69c0,.95,0,1.9-.07,2.86a17.92,17.92,0,0,1-.44,2.83,19.86,19.86,0,0,1-2,5.35,25.89,25.89,0,0,0,1.59-5.42,26.62,26.62,0,0,0,.36-2.79c0-.94,0-1.88,0-2.82C150.93,171.71,150.71,167.93,150.66,164.14Z" style="fill:#263238"></path><path d="M163.66,179.64l-11.59-18.85S164.45,150.1,172,146c4.25-2.31,5.47.24,4.39,4.48C172.63,165.28,163.66,179.64,163.66,179.64Z" style="fill:#37474f"></path><path d="M155.44,159.63a146.89,146.89,0,0,1,10.08,15.77s-.1.11-.12.08c-3-4.14-8.36-12.82-10.13-15.74C155.23,159.69,155.4,159.57,155.44,159.63Z" style="fill:#263238"></path><path d="M161.71,176.32c.32.55,1.62,2.59,1.95,3.08.64-1.31,1.31-2.45,2-3.74.77-1.44,1.53-2.9,2.26-4.36,1.49-3,2.89-6,4.3-9,0-.06.14,0,.11,0-.6,1.75-1.29,3.47-2,5.17.44-.66.87-1.33,1.28-2,0,0,.08,0,.06,0a24.72,24.72,0,0,1-1.64,2.64c-.49,1.11-1,2.21-1.54,3.3q-1,2.15-2.19,4.24a41.5,41.5,0,0,1-2.55,4.32,35.28,35.28,0,0,1-2.15-3.62C161.54,176.3,161.67,176.24,161.71,176.32Z" style="fill:#263238"></path><path d="M180.62,142.25c-3.9,1-3.66,5.28-.86,9.19s6.61,4.82,8.49,4.28,3.37-2.87,1-7.59C186.31,142.12,183,141.63,180.62,142.25Z" style="fill:#37474f"></path><path d="M164.52,130.76a2.44,2.44,0,0,0-1.08,2.52,2.48,2.48,0,0,0,2.7,2,2.6,2.6,0,0,0,0,1,2.71,2.71,0,0,0,2.92,2.2,2.17,2.17,0,0,0,0,.88,2.47,2.47,0,0,0,4.3,1.15,2.47,2.47,0,0,0,2.84,1.76,2.36,2.36,0,0,0,1-.4,1.66,1.66,0,0,0,0,.22,2.47,2.47,0,0,0,4.67.58,2.47,2.47,0,0,0,4.61-.17,2.71,2.71,0,0,0,3.54-.9,2.71,2.71,0,0,0,4.23-2,2.63,2.63,0,0,0,1,0,2.47,2.47,0,0,0,2-2.56,2.64,2.64,0,0,0,1.19.05,2.68,2.68,0,0,0,1.86-4,1.68,1.68,0,0,0,.44,0,2.46,2.46,0,0,0,1.37-4.08,2.7,2.7,0,0,0,1.92-3.1,2.59,2.59,0,0,0-.67-1.34,2.73,2.73,0,0,0,1.28-2.84,2.7,2.7,0,0,0-1.44-1.91,2.43,2.43,0,0,0,.46-1.93,2.46,2.46,0,0,0-1.15-1.66,2.71,2.71,0,0,0-1.69-4.51,2.6,2.6,0,0,0,.07-1.18,2.47,2.47,0,0,0-2.56-2,2.56,2.56,0,0,0,0-1.17,2.72,2.72,0,0,0-3.17-2.17,2.35,2.35,0,0,0-.6.2,2.2,2.2,0,0,0-.05-.44,2.72,2.72,0,0,0-3.17-2.17,2.31,2.31,0,0,0-.64.22,2.49,2.49,0,0,0,0-.77,2.73,2.73,0,0,0-3.18-2.18,2.69,2.69,0,0,0-1.78,1.2,2.71,2.71,0,0,0-4.24.22,2.46,2.46,0,0,0-4.52.19,2.48,2.48,0,0,0-2-.52,2.45,2.45,0,0,0-2,2.08,2.69,2.69,0,0,0-2.14-.51,2.72,2.72,0,0,0-2.23,2.63,2.44,2.44,0,0,0-2.87,2.88,2.61,2.61,0,0,0,.32.83l-.16,0a2.72,2.72,0,0,0-2.17,3.18,2.33,2.33,0,0,0,.26.74,2.49,2.49,0,0,0-2.63,2.92,2.52,2.52,0,0,0,1.05,1.59,2.47,2.47,0,0,0,.15,3.93,2.71,2.71,0,0,0,.84,5.08,2.44,2.44,0,0,0-.76,2.27A2.48,2.48,0,0,0,164.52,130.76Z" style="fill:#263238"></path><path d="M179.22,145c.07.94,3.43,7.51,7.59,8,1.36.15,2.53-7.21,2.53-7.21l.21-.53,2.94-7.34-8-7.19-1.17-1s-.67,2.06-1.49,4.63c0,.12-.07.24-.11.37s-.1.28-.14.41c-.13.39-.25.78-.37,1.17s-.18.59-.27.91l-.27.94A51.14,51.14,0,0,0,179.22,145Z" style="fill:#ad6359"></path><path d="M181.82,134.41a15.85,15.85,0,0,0,7.73,10.87l2.94-7.34-8-7.19-1.17-1S182.64,131.84,181.82,134.41Z" style="fill:#263238"></path><path d="M203.35,124.74c2.48,13.65-5.42,16.68-8.36,17.21-2.67.49-11.84,1.8-15.72-11.53S181,111.63,187,110.2,200.86,111.09,203.35,124.74Z" style="fill:#ad6359"></path><path d="M198,122.24c-.32,0-.63,0-.95-.07a1.51,1.51,0,0,1-1-.25.48.48,0,0,1-.08-.59,1.22,1.22,0,0,1,1.15-.46,1.8,1.8,0,0,1,1.21.47A.53.53,0,0,1,198,122.24Z" style="fill:#263238"></path><path d="M189,123.78c.31-.09.59-.22.9-.33a1.56,1.56,0,0,0,.85-.51.5.5,0,0,0-.09-.6,1.2,1.2,0,0,0-1.23-.11,1.77,1.77,0,0,0-1,.79A.53.53,0,0,0,189,123.78Z" style="fill:#263238"></path><path d="M191.39,126.81s-.06.06,0,.1c.23.91.33,2-.43,2.49,0,0,0,.06,0,0C191.91,129.09,191.75,127.64,191.39,126.81Z" style="fill:#263238"></path><path d="M190.36,126c-1.51.21-1,3.22.41,3S191.62,125.85,190.36,126Z" style="fill:#263238"></path><path d="M189.8,126.29c-.24.21-.44.56-.75.65s-.69-.17-1-.43c0,0-.05,0,0,0,.09.58.42,1.13,1,1.11s.89-.6.93-1.21C190,126.34,189.89,126.2,189.8,126.29Z" style="fill:#263238"></path><path d="M196.88,125.62s.08,0,.08.07c.09,1,.34,2,1.23,2.22,0,0,0,0,0,0C197.13,127.94,196.81,126.53,196.88,125.62Z" style="fill:#263238"></path><path d="M197.6,124.54c1.5-.3,2,2.72.59,3S196.35,124.79,197.6,124.54Z" style="fill:#263238"></path><path d="M198.26,124.64c.26.12.55.37.83.34s.53-.39.69-.74c0,0,0,0,.05,0,.11.57,0,1.2-.52,1.4s-.94-.25-1.17-.8C198.1,124.76,198.15,124.59,198.26,124.64Z" style="fill:#263238"></path><path d="M192.56,134.2c.24.2.49.49.84.49a2.51,2.51,0,0,0,1-.32,0,0,0,0,1,0,0,1.27,1.27,0,0,1-1.15.61,1,1,0,0,1-.81-.77C192.45,134.2,192.52,134.17,192.56,134.2Z" style="fill:#263238"></path><path d="M196.4,130.06s.39,1.37.49,2a3.6,3.6,0,0,1-3.62-.59c-.06,0,0-.14.08-.1a4.77,4.77,0,0,0,3,.42c0-.19-.74-2.34-.64-2.36a5.69,5.69,0,0,1,1.55.13c-.73-2.89-1.92-5.64-2.6-8.53a.09.09,0,0,1,.16-.07,48,48,0,0,1,3.2,9.07C198.12,130.44,196.68,130.13,196.4,130.06Z" style="fill:#263238"></path><path d="M196,132.15a3.43,3.43,0,0,1-1.24,1.23,1.62,1.62,0,0,1-.93.18c-.7-.1-.79-.72-.73-1.27a3.39,3.39,0,0,1,.2-.85A4.43,4.43,0,0,0,196,132.15Z" style="fill:#263238"></path><path d="M194.73,133.38a1.62,1.62,0,0,1-.93.18c-.7-.1-.79-.72-.73-1.27A1.61,1.61,0,0,1,194.73,133.38Z" style="fill:#ff9abb"></path><path d="M179.44,130.69c2.31-.06,2.16-5.41,2.16-5.41s4.67-.46,5.54-7.34a10.46,10.46,0,0,1-1.51,5.77s8.35-1.23,11.12-8.48c0,0-1,3.65-2.2,5a9.72,9.72,0,0,0,4.77-4.29s1.84,3.84,3.06,4.82c0,0-1.79-14.39-15-11.5,0,0-8.31,1.4-10.65,8.33S179.44,130.69,179.44,130.69Z" style="fill:#263238"></path><path d="M178.54,130c.65,1.84-4.46-6.54-4.56-7.89s1.85-8.26,7.23-11.64c4.51-2.83,10.51-1.77,11.56-1.57a8.36,8.36,0,0,1,3.27,1.36s-7.87-1.42-14.17,1.14C178.83,112.63,176.11,123.08,178.54,130Z" style="fill:#0EA2BD"></path><path d="M178.72,110.1s1.08-4.17,4.52-5.66c0,0,.94,3.57,0,5.11-.44.77-3.15,1.87-3.62,1.5A6.58,6.58,0,0,1,178.72,110.1Z" style="fill:#0EA2BD"></path><path d="M178.72,110.1a6.58,6.58,0,0,0,.94,1s0,0,.07,0l.1,0s0,0,.08,0a4.08,4.08,0,0,0,1.56-.39,8.38,8.38,0,0,0-.85-1.41,2.49,2.49,0,0,0-1.36-.65A8.7,8.7,0,0,0,178.72,110.1Z" style="fill:#050400;opacity:0.1"></path><path d="M178,110.85s-5.19.75-7.24,2.56a7,7,0,0,0,4.76,2.06c1.2-.06,3.84-3.07,3.48-3.6A5,5,0,0,0,178,110.85Z" style="fill:#0EA2BD"></path><path d="M176.83,111.06a3,3,0,0,0,.59,1.61,2.7,2.7,0,0,0,.9.61c.51-.63.82-1.21.68-1.41a5,5,0,0,0-1-1S177.54,110.91,176.83,111.06Z" style="fill:#050400;opacity:0.1"></path><path d="M177.82,112.13a1.71,1.71,0,1,0,0-2.41A1.71,1.71,0,0,0,177.82,112.13Z" style="fill:#0EA2BD"></path><path d="M194.29,126.87l-.47-.41c.57-.73,2-1.85,3.33-.83l-.36.52C195.6,125.23,194.35,126.81,194.29,126.87Z" style="fill:#ebebeb"></path><path d="M175.5,132.13l-.62-.18c.09-.29.88-2.82,2.25-3.32a81.28,81.28,0,0,1,8.1-1.35l.06.64a57.24,57.24,0,0,0-7.94,1.32C176.44,129.56,175.71,131.44,175.5,132.13Z" style="fill:#ebebeb"></path><path d="M189.43,131a5,5,0,0,1-2.65-.43c-1.64-1-3-5.13-3.06-5.31l-.13-.4.42,0c.32,0,7.93-.77,9.85.73,1,.81.76,3.09.2,3.82C193.37,130.32,191.28,131,189.43,131Zm-4.92-5.54c.47,1.33,1.56,3.88,2.62,4.52,1.42.86,5.58,0,6.39-1,.39-.5.58-2.34-.08-2.86C192.11,125.09,186.9,125.29,184.51,125.5Z" style="fill:#ebebeb"></path><path d="M199.78,128.62a2.89,2.89,0,0,1-2-.54,3.83,3.83,0,0,1-1-3.4c.51-2,5-3.22,5.57-3.36l.39-.1,0,.4c0,.17.33,4.15-.18,5.48a2.61,2.61,0,0,1-1.91,1.38A4.85,4.85,0,0,1,199.78,128.62Zm2.34-6.52c-1.49.45-4.37,1.54-4.69,2.75a3.14,3.14,0,0,0,.81,2.71,2.72,2.72,0,0,0,2.27.26,2,2,0,0,0,1.44-1A17,17,0,0,0,202.12,122.1Z" style="fill:#ebebeb"></path><path d="M181.62,130.61s-3.42-4-5.27-2.77,1,7.3,3.37,7.94a2.35,2.35,0,0,0,3-1.55Z" style="fill:#ad6359"></path><path d="M177.21,129.55s0,.06,0,.07a5.9,5.9,0,0,1,3.4,3.4,1.3,1.3,0,0,0-2-.17,0,0,0,0,0,.05.08,1.45,1.45,0,0,1,1.63.36,6.7,6.7,0,0,1,.88,1.21c.09.13.34,0,.27-.13l0,0C181.3,132.28,179.43,129.55,177.21,129.55Z" style="fill:#263238"></path><path d="M181,135a.55.55,0,0,1-.55.57.56.56,0,1,1,0-1.12A.56.56,0,0,1,181,135Z" style="fill:#fff"></path><path d="M179.61,134.14a.42.42,0,0,1-.4.42.41.41,0,0,1-.41-.4.4.4,0,0,1,.39-.42A.42.42,0,0,1,179.61,134.14Z" style="fill:#fff"></path><rect x="175.23" y="128.8" width="1.43" height="0.59" rx="0.27" transform="translate(9.11 -11.57) rotate(3.87)" style="fill:#0EA2BD"></rect><rect x="175.21" y="129.75" width="1.43" height="0.59" rx="0.27" transform="translate(-17.05 26.98) rotate(-8.36)" style="fill:#0EA2BD"></rect></g><g id="freepik--Pencil--inject-138"><path d="M587.43,168.2s15,6.94,19.77-7.26-11.29-17.78-11.29-17.78Z" style="fill:#ff9abb"></path><rect x="537.82" y="97.93" width="26.43" height="87.94" transform="translate(239.72 618.2) rotate(-71.27)" style="fill:#0EA2BD"></rect><rect x="537.82" y="97.93" width="26.43" height="87.94" transform="translate(239.72 618.2) rotate(-71.27)" style="opacity:0.1"></rect><g style="opacity:0.1"><polygon points="515.52 121.44 525.08 124.55 534.61 127.74 553.67 134.11 572.68 140.64 582.19 143.91 591.66 147.25 582.11 144.14 572.58 140.96 553.51 134.58 534.5 128.05 525 124.78 515.52 121.44"></polygon><polygon points="513.84 126.4 523.39 129.52 532.93 132.7 551.99 139.07 571 145.61 580.5 148.88 589.98 152.22 580.42 149.11 570.89 145.92 551.83 139.55 532.82 133.01 523.32 129.75 513.84 126.4"></polygon><polygon points="512.15 131.37 521.71 134.48 531.24 137.66 550.31 144.04 569.32 150.57 578.82 153.84 588.3 157.18 578.74 154.07 569.21 150.89 550.15 144.51 531.14 137.98 521.63 134.71 512.15 131.37"></polygon><polygon points="510.47 136.33 520.03 139.44 529.56 142.63 548.62 149 567.63 155.53 577.14 158.8 586.62 162.15 577.06 159.03 567.53 155.85 548.46 149.47 529.46 142.94 519.95 139.67 510.47 136.33"></polygon></g><rect x="574.65" y="151.4" width="30.87" height="7.49" transform="translate(253.7 664.17) rotate(-71.27)" style="fill:#37474f"></rect><rect x="566.81" y="148.74" width="30.87" height="7.49" transform="translate(250.89 654.94) rotate(-71.27)" style="fill:#37474f"></rect><path d="M513.64,115.26l-21.2,3.31-7,1.07,4.89,5.15,14.82,15.53,4.49-1.3s-2.76-3.64-2.79-3.71l4.49-1.3s-2.76-3.64-2.79-3.72l4.47-1.24s-2.74-3.69-2.77-3.77l4.47-1.24s-2.74-3.7-2.78-3.77l4.48-1.25S513.68,115.33,513.64,115.26Z" style="fill:#fff"></path><polygon points="492.44 118.57 485.44 119.64 490.33 124.79 492.44 118.57" style="fill:#263238"></polygon></g></svg>