<svg xmlns="http://www.w3.org/2000/svg" viewBox="0 0 750 500"><g id="freepik--Scheme--inject-8"><rect x="660.61" y="56.92" width="48.31" height="23.17" rx="4.83" style="fill:#0EA2BD;stroke:#263238;stroke-linecap:round;stroke-linejoin:round"></rect><rect x="686.25" y="98.09" width="35.45" height="17" rx="4.83" style="fill:#0EA2BD;stroke:#263238;stroke-linecap:round;stroke-linejoin:round"></rect><rect x="686.25" y="123.23" width="35.45" height="17" rx="4.83" style="fill:#0EA2BD;stroke:#263238;stroke-linecap:round;stroke-linejoin:round"></rect><rect x="686.25" y="148.37" width="35.45" height="17" rx="4.83" style="fill:#0EA2BD;stroke:#263238;stroke-linecap:round;stroke-linejoin:round"></rect><rect x="642.37" y="98.09" width="35.45" height="17" rx="4.83" style="fill:#0EA2BD;stroke:#263238;stroke-linecap:round;stroke-linejoin:round"></rect><line x1="684.18" y1="80.57" x2="684.18" y2="89.62" style="fill:none;stroke:#263238;stroke-linecap:round;stroke-linejoin:round"></line><line x1="704.73" y1="140.96" x2="704.73" y2="148.3" style="fill:none;stroke:#263238;stroke-linecap:round;stroke-linejoin:round"></line><line x1="704.73" y1="115.92" x2="704.73" y2="122.43" style="fill:none;stroke:#263238;stroke-linecap:round;stroke-linejoin:round"></line><path d="M659.46,97.9V92.61a2.93,2.93,0,0,1,2.93-2.93H701.8a2.93,2.93,0,0,1,2.93,2.93v4.94" style="fill:none;stroke:#263238;stroke-linecap:round;stroke-linejoin:round"></path></g><g id="freepik--abstract-element--inject-8"><path d="M476.77,46.46a4.91,4.91,0,1,0-4.11,5.6A4.91,4.91,0,0,0,476.77,46.46Z" style="fill:#0EA2BD;stroke:#263238;stroke-linecap:round;stroke-linejoin:round"></path><path d="M547.37,85.35a4.92,4.92,0,1,0-4.12,5.6A4.92,4.92,0,0,0,547.37,85.35Z" style="fill:#0EA2BD;stroke:#263238;stroke-linecap:round;stroke-linejoin:round"></path><path d="M460.52,95.35A4.92,4.92,0,1,0,456.4,101,4.92,4.92,0,0,0,460.52,95.35Z" style="fill:#0EA2BD;stroke:#263238;stroke-linecap:round;stroke-linejoin:round"></path><path d="M491.37,84a8.2,8.2,0,1,0-6.86,9.34A8.19,8.19,0,0,0,491.37,84Z" style="fill:#0EA2BD;stroke:#263238;stroke-linecap:round;stroke-linejoin:round"></path><path d="M484,122.14a4.92,4.92,0,1,0-4.11,5.6A4.91,4.91,0,0,0,484,122.14Z" style="fill:#0EA2BD;stroke:#263238;stroke-linecap:round;stroke-linejoin:round"></path><path d="M587.83,115.05a4.92,4.92,0,1,0-4.11,5.6A4.9,4.9,0,0,0,587.83,115.05Z" style="fill:#0EA2BD;stroke:#263238;stroke-linecap:round;stroke-linejoin:round"></path><path d="M580,31.73a4.91,4.91,0,1,0-4.11,5.6A4.9,4.9,0,0,0,580,31.73Z" style="fill:#0EA2BD;stroke:#263238;stroke-linecap:round;stroke-linejoin:round"></path><path d="M538.72,25.36a4.92,4.92,0,1,0-4.11,5.6A4.91,4.91,0,0,0,538.72,25.36Z" style="fill:#0EA2BD;stroke:#263238;stroke-linecap:round;stroke-linejoin:round"></path><path d="M561.62,45a8.19,8.19,0,1,0-6.85,9.34A8.18,8.18,0,0,0,561.62,45Z" style="fill:#0EA2BD;stroke:#263238;stroke-linecap:round;stroke-linejoin:round"></path><line x1="476.02" y1="48.78" x2="538.23" y2="83.43" style="fill:none;stroke:#263238;stroke-linejoin:round"></line><line x1="544.09" y1="81.98" x2="552.07" y2="54.8" style="fill:none;stroke:#263238;stroke-linejoin:round"></line><polyline points="557.47 53.97 582.23 110.94 575.91 37.33" style="fill:none;stroke:#263238;stroke-linejoin:round"></polyline><line x1="538.07" y1="89.54" x2="483.96" y2="122.14" style="fill:none;stroke:#263238;stroke-linejoin:round"></line><line x1="491.37" y1="83.99" x2="546.39" y2="50.14" style="fill:none;stroke:#263238;stroke-linejoin:round"></line><line x1="479.87" y1="77.47" x2="472.66" y2="52.06" style="fill:none;stroke:#263238;stroke-linejoin:round"></line><line x1="561.21" y1="42.35" x2="571.26" y2="35.83" style="fill:none;stroke:#263238;stroke-linejoin:round"></line><line x1="459.02" y1="100" x2="475.2" y2="119.06" style="fill:none;stroke:#263238;stroke-linejoin:round"></line><line x1="454.91" y1="91.24" x2="469.25" y2="51.48" style="fill:none;stroke:#263238;stroke-linejoin:round"></line><line x1="490.12" y1="90.26" x2="578.11" y2="116.54" style="fill:none;stroke:#263238;stroke-linejoin:round"></line><line x1="543.25" y1="90.95" x2="579.78" y2="112.97" style="fill:none;stroke:#263238;stroke-linejoin:round"></line><line x1="476.77" y1="46.46" x2="545.43" y2="47.53" style="fill:none;stroke:#263238;stroke-linejoin:round"></line><line x1="570.31" y1="33.22" x2="475.36" y2="44.47" style="fill:none;stroke:#263238;stroke-linejoin:round"></line><line x1="570.51" y1="30.98" x2="539.13" y2="28.06" style="fill:none;stroke:#263238;stroke-linejoin:round"></line><line x1="529.33" y1="29.01" x2="481.76" y2="118.61" style="fill:none;stroke:#263238;stroke-linejoin:round"></line><line x1="475.59" y1="89.17" x2="460.52" y2="95.35" style="fill:none;stroke:#263238;stroke-linejoin:round"></line><path d="M504.19,46.43a2.3,2.3,0,1,0-1.93,2.62A2.3,2.3,0,0,0,504.19,46.43Z" style="fill:#263238"></path><path d="M490.17,106.38a2.3,2.3,0,1,0-1.92,2.62A2.29,2.29,0,0,0,490.17,106.38Z" style="fill:#263238"></path><path d="M549.73,70a2.3,2.3,0,1,0-1.92,2.62A2.3,2.3,0,0,0,549.73,70Z" style="fill:#263238"></path><path d="M555,108.43a2.3,2.3,0,1,0-1.92,2.62A2.3,2.3,0,0,0,555,108.43Z" style="fill:#263238"></path><path d="M465.69,68.13a2.3,2.3,0,1,0-1.92,2.62A2.3,2.3,0,0,0,465.69,68.13Z" style="fill:#263238"></path><path d="M578.55,47.08a2.3,2.3,0,1,0-1.92,2.62A2.28,2.28,0,0,0,578.55,47.08Z" style="fill:#263238"></path></g><g id="freepik--Cloud--inject-8"><path d="M413.73,69.33c0-.5.07-1,.07-1.5A32.68,32.68,0,0,0,349.65,59a20.8,20.8,0,0,0-.13,41.37v.13h64a15.6,15.6,0,0,0,.24-31.19Z" style="fill:#fff;stroke:#263238;stroke-linecap:round;stroke-linejoin:round"></path><polygon points="398.29 94.01 378.97 67.83 359.64 94.01 367.19 94.01 367.19 106.9 390.75 106.9 390.75 94.01 398.29 94.01" style="fill:#263238;stroke:#263238;stroke-linecap:round;stroke-linejoin:round"></polygon></g><g id="freepik--Server--inject-8"><path d="M330.33,250.26a3,3,0,1,1-3-3A3,3,0,0,1,330.33,250.26Z" style="fill:#fff;stroke:#263238;stroke-linecap:round;stroke-linejoin:round"></path><path d="M339.42,250.26a3,3,0,1,1-3-3A3,3,0,0,1,339.42,250.26Z" style="fill:#0EA2BD;stroke:#263238;stroke-linecap:round;stroke-linejoin:round"></path><path d="M348.51,250.26a3,3,0,1,1-3-3A3,3,0,0,1,348.51,250.26Z" style="fill:#0EA2BD;stroke:#263238;stroke-linecap:round;stroke-linejoin:round"></path><rect x="364.53" y="245.93" width="42.86" height="7.79" style="fill:#fff;stroke:#263238;stroke-linecap:round;stroke-linejoin:round"></rect><rect x="410.86" y="245.93" width="25.55" height="7.79" style="fill:#fff;stroke:#263238;stroke-linecap:round;stroke-linejoin:round"></rect><rect x="315.59" y="122.6" width="129.49" height="16.06" style="fill:#fff;stroke:#263238;stroke-linecap:round;stroke-linejoin:round"></rect><rect x="315.59" y="138.66" width="129.49" height="8.03" style="fill:#263238;stroke:#263238;stroke-linecap:round;stroke-linejoin:round"></rect><rect x="315.59" y="146.61" width="129.49" height="16.06" style="fill:#fff;stroke:#263238;stroke-linecap:round;stroke-linejoin:round"></rect><rect x="315.59" y="162.67" width="129.49" height="8.03" style="fill:#263238;stroke:#263238;stroke-linecap:round;stroke-linejoin:round"></rect><rect x="315.59" y="170.62" width="129.49" height="16.06" style="fill:#fff;stroke:#263238;stroke-linecap:round;stroke-linejoin:round"></rect><rect x="315.59" y="186.68" width="129.49" height="8.03" style="fill:#263238;stroke:#263238;stroke-linecap:round;stroke-linejoin:round"></rect><rect x="315.59" y="194.64" width="129.49" height="16.06" style="fill:#fff;stroke:#263238;stroke-linecap:round;stroke-linejoin:round"></rect><rect x="315.59" y="210.7" width="129.49" height="8.03" style="fill:#263238;stroke:#263238;stroke-linecap:round;stroke-linejoin:round"></rect><rect x="315.59" y="218.65" width="129.49" height="16.06" style="fill:#fff;stroke:#263238;stroke-linecap:round;stroke-linejoin:round"></rect><rect x="315.59" y="234.71" width="129.49" height="8.03" style="fill:#263238;stroke:#263238;stroke-linecap:round;stroke-linejoin:round"></rect><rect x="315.59" y="242.66" width="129.49" height="16.06" style="fill:#fff;stroke:#263238;stroke-linecap:round;stroke-linejoin:round"></rect><rect x="315.59" y="258.72" width="129.49" height="8.03" style="fill:#263238;stroke:#263238;stroke-linecap:round;stroke-linejoin:round"></rect><rect x="315.59" y="266.67" width="129.49" height="16.06" style="fill:#fff;stroke:#263238;stroke-linecap:round;stroke-linejoin:round"></rect><rect x="315.59" y="282.73" width="129.49" height="8.03" style="fill:#263238;stroke:#263238;stroke-linecap:round;stroke-linejoin:round"></rect><rect x="315.59" y="290.69" width="129.49" height="16.06" style="fill:#fff;stroke:#263238;stroke-linecap:round;stroke-linejoin:round"></rect><rect x="315.59" y="306.75" width="129.49" height="8.03" style="fill:#263238;stroke:#263238;stroke-linecap:round;stroke-linejoin:round"></rect><rect x="315.59" y="314.7" width="129.49" height="16.06" style="fill:#fff;stroke:#263238;stroke-linecap:round;stroke-linejoin:round"></rect><rect x="315.59" y="330.76" width="129.49" height="8.03" style="fill:#fff;stroke:#263238;stroke-linecap:round;stroke-linejoin:round"></rect><path d="M330.33,131.19a3,3,0,1,1-3-3A3,3,0,0,1,330.33,131.19Z" style="fill:#0EA2BD;stroke:#263238;stroke-linecap:round;stroke-linejoin:round"></path><path d="M339.42,131.19a3,3,0,1,1-3-3A3,3,0,0,1,339.42,131.19Z" style="fill:#fff;stroke:#263238;stroke-linecap:round;stroke-linejoin:round"></path><path d="M348.51,131.19a3,3,0,1,1-3-3A3,3,0,0,1,348.51,131.19Z" style="fill:#fff;stroke:#263238;stroke-linecap:round;stroke-linejoin:round"></path><rect x="364.53" y="126.86" width="42.86" height="7.79" style="fill:#fff;stroke:#263238;stroke-linecap:round;stroke-linejoin:round"></rect><rect x="410.86" y="126.86" width="25.55" height="7.79" style="fill:#fff;stroke:#263238;stroke-linecap:round;stroke-linejoin:round"></rect><path d="M330.33,155a3,3,0,1,1-3-3A3,3,0,0,1,330.33,155Z" style="fill:#fff;stroke:#263238;stroke-linecap:round;stroke-linejoin:round"></path><path d="M339.42,155a3,3,0,1,1-3-3A3,3,0,0,1,339.42,155Z" style="fill:#0EA2BD;stroke:#263238;stroke-linecap:round;stroke-linejoin:round"></path><path d="M348.51,155a3,3,0,1,1-3-3A3,3,0,0,1,348.51,155Z" style="fill:#fff;stroke:#263238;stroke-linecap:round;stroke-linejoin:round"></path><rect x="364.53" y="150.68" width="42.86" height="7.79" style="fill:#fff;stroke:#263238;stroke-linecap:round;stroke-linejoin:round"></rect><rect x="410.86" y="150.68" width="25.55" height="7.79" style="fill:#fff;stroke:#263238;stroke-linecap:round;stroke-linejoin:round"></rect><circle cx="327.3" cy="178.82" r="3.03" style="fill:#fff;stroke:#263238;stroke-linecap:round;stroke-linejoin:round"></circle><circle cx="336.39" cy="178.82" r="3.03" style="fill:#fff;stroke:#263238;stroke-linecap:round;stroke-linejoin:round"></circle><circle cx="345.48" cy="178.82" r="3.03" style="fill:#fff;stroke:#263238;stroke-linecap:round;stroke-linejoin:round"></circle><rect x="364.53" y="174.49" width="42.86" height="7.79" style="fill:#fff;stroke:#263238;stroke-linecap:round;stroke-linejoin:round"></rect><rect x="410.86" y="174.49" width="25.55" height="7.79" style="fill:#fff;stroke:#263238;stroke-linecap:round;stroke-linejoin:round"></rect><circle cx="327.3" cy="202.64" r="3.03" style="fill:#0EA2BD;stroke:#263238;stroke-linecap:round;stroke-linejoin:round"></circle><circle cx="336.39" cy="202.64" r="3.03" style="fill:#fff;stroke:#263238;stroke-linecap:round;stroke-linejoin:round"></circle><circle cx="345.48" cy="202.64" r="3.03" style="fill:#0EA2BD;stroke:#263238;stroke-linecap:round;stroke-linejoin:round"></circle><rect x="364.53" y="198.31" width="42.86" height="7.79" style="fill:#fff;stroke:#263238;stroke-linecap:round;stroke-linejoin:round"></rect><rect x="410.86" y="198.31" width="25.55" height="7.79" style="fill:#fff;stroke:#263238;stroke-linecap:round;stroke-linejoin:round"></rect><path d="M330.33,226.45a3,3,0,1,1-3-3A3,3,0,0,1,330.33,226.45Z" style="fill:#0EA2BD;stroke:#263238;stroke-linecap:round;stroke-linejoin:round"></path><path d="M339.42,226.45a3,3,0,1,1-3-3A3,3,0,0,1,339.42,226.45Z" style="fill:#0EA2BD;stroke:#263238;stroke-linecap:round;stroke-linejoin:round"></path><path d="M348.51,226.45a3,3,0,1,1-3-3A3,3,0,0,1,348.51,226.45Z" style="fill:#fff;stroke:#263238;stroke-linecap:round;stroke-linejoin:round"></path><rect x="364.53" y="222.12" width="42.86" height="7.79" style="fill:#fff;stroke:#263238;stroke-linecap:round;stroke-linejoin:round"></rect><rect x="410.86" y="222.12" width="25.55" height="7.79" style="fill:#fff;stroke:#263238;stroke-linecap:round;stroke-linejoin:round"></rect><path d="M307.9,131H304a5,5,0,0,0-5.05,5V276" style="fill:none;stroke:#263238;stroke-linejoin:round"></path><line x1="315.38" y1="131" x2="307.9" y2="131" style="fill:none;stroke:#263238;stroke-linejoin:round;stroke-width:4px"></line><polyline points="308.65 179.96 306.03 179.96 306.03 287.58" style="fill:none;stroke:#263238;stroke-linejoin:round"></polyline><line x1="315" y1="179.95" x2="308.65" y2="179.95" style="fill:none;stroke:#263238;stroke-linejoin:round;stroke-width:4px"></line><polyline points="449.53 203.12 451.77 203.12 451.77 301.03" style="fill:none;stroke:#263238;stroke-linejoin:round"></polyline><line x1="445.05" y1="203.12" x2="449.53" y2="203.12" style="fill:none;stroke:#263238;stroke-linejoin:round;stroke-width:4px"></line><path d="M453.64,154.54h3.58a4.27,4.27,0,0,1,4.27,4.27v137" style="fill:none;stroke:#263238;stroke-linejoin:round"></path><line x1="445.05" y1="154.54" x2="453.64" y2="154.54" style="fill:none;stroke:#263238;stroke-linejoin:round;stroke-width:4px"></line></g><g id="freepik--stairs-3--inject-8"><polygon points="367.22 329.98 367.22 319.03 354.96 319.03 354.96 308.09 342.71 308.09 342.71 297.15 330.45 297.15 330.45 286.21 318.19 286.21 318.19 275.26 305.94 275.26 305.94 264.32 292.78 264.32 292.78 252.99 16.75 252.99 16.75 475.95 403.82 475.95 403.82 329.98 367.22 329.98" style="fill:#fff;stroke:#263238;stroke-linecap:round;stroke-linejoin:round"></polygon></g><g id="freepik--stairs-2--inject-8"><polygon points="732.82 475.95 732.82 253.41 489.86 253.41 489.86 264.74 476.69 264.74 476.69 275.69 464.44 275.69 464.44 286.63 452.18 286.63 452.18 297.57 439.93 297.57 439.93 308.51 427.67 308.51 427.67 316.38 415.67 316.38 415.67 319.46 415.42 319.46 415.42 327.72 402.51 327.72 402.51 338.66 390.25 338.66 390.25 349.6 378 349.6 378 360.54 365.74 360.54 365.74 371.49 353.48 371.49 353.48 382.43 341.23 382.43 341.23 393.37 295.28 393.37 295.28 475.95 732.82 475.95" style="fill:#fff;stroke:#263238;stroke-linecap:round;stroke-linejoin:round"></polygon></g><g id="freepik--stairs-1--inject-8"><polygon points="417.91 475.95 417.91 470.41 405.65 470.41 405.65 459.47 393.39 459.47 393.39 448.53 381.14 448.53 381.14 437.58 368.88 437.58 368.88 426.64 356.63 426.64 356.63 415.7 344.37 415.7 344.37 404.76 331.21 404.76 331.21 393.43 294.96 393.43 294.96 475.95 417.91 475.95" style="fill:#fff;stroke:#263238;stroke-linecap:round;stroke-linejoin:round"></polygon></g><g id="freepik--Plant--inject-8"><path d="M39.09,406s-1.16,3.19-3.63,3.63-6.81-4.36-4.06-6.82S37.93,404.28,39.09,406Z" style="fill:#0EA2BD;stroke:#263238;stroke-linecap:round;stroke-linejoin:round;stroke-width:0.75px"></path><path d="M42.86,390.35s-3.62,8.85-2.17,13.2,10.44,7.55,13.05,1.89-3.19-13.64-5.36-15.38S43.59,388.9,42.86,390.35Z" style="fill:#0EA2BD;stroke:#263238;stroke-linecap:round;stroke-linejoin:round;stroke-width:0.75px"></path><path d="M64,394.12s-6.23,5.66-7,11.32,3.48,7.69,7.83,7,6.53-11.75,5.23-16.82S64,394.12,64,394.12Z" style="fill:#0EA2BD;stroke:#263238;stroke-linecap:round;stroke-linejoin:round;stroke-width:0.75px"></path><path d="M65.2,425.46s-7,.29-7.25,3.63,3,4.06,6.38,1.16S68.11,425.6,65.2,425.46Z" style="fill:#0EA2BD;stroke:#263238;stroke-linecap:round;stroke-linejoin:round;stroke-width:0.75px"></path><path d="M58.07,429.88s5.48-2.51,7.95-2.95" style="fill:none;stroke:#263238;stroke-miterlimit:10;stroke-width:0.75px"></path><path d="M66.76,447.29s-5.12-4.73-7.69-2.59-.73,5,3.68,5.35S68.7,449.45,66.76,447.29Z" style="fill:#0EA2BD;stroke:#263238;stroke-linecap:round;stroke-linejoin:round;stroke-width:0.75px"></path><path d="M58.59,445.35s5.65,2.12,7.7,3.56" style="fill:none;stroke:#263238;stroke-miterlimit:10;stroke-width:0.75px"></path><path d="M39.78,445.9s7-6.53,10.59-3.57,1,6.93-5.07,7.37S37.1,448.88,39.78,445.9Z" style="fill:#0EA2BD;stroke:#263238;stroke-linecap:round;stroke-linejoin:round;stroke-width:0.75px"></path><path d="M51,443.22s-7.79,2.92-10.62,4.91" style="fill:none;stroke:#263238;stroke-miterlimit:10;stroke-width:0.75px"></path><path d="M47.94,432.42s-.72,3.48-3.34,4.79-7.25-1.45-4.78-5.66S46.63,430.68,47.94,432.42Z" style="fill:#0EA2BD;stroke:#263238;stroke-linecap:round;stroke-linejoin:round;stroke-width:0.75px"></path><path d="M41.85,421.54s-1.31-2.9-6.39-1-7.1,4.78-3.91,5.8S41.85,421.54,41.85,421.54Z" style="fill:#0EA2BD;stroke:#263238;stroke-linecap:round;stroke-linejoin:round;stroke-width:0.75px"></path><path d="M40.88,421.41s-5.38.58-8.29,3" style="fill:none;stroke:#263238;stroke-miterlimit:10;stroke-width:0.75px"></path><path d="M56.35,386.73s.88,2,2.62,1.59,2.17-3.05,4.93-2.32S69,389.92,69,388.47s-3.49-5.23-7.4-5.23S56.5,384.84,56.35,386.73Z" style="fill:#0EA2BD;stroke:#263238;stroke-linecap:round;stroke-linejoin:round;stroke-width:0.75px"></path><path d="M41.85,421.54s6.24-1.2,8.85,5.74a20.1,20.1,0,0,1,.65,2.12" style="fill:none;stroke:#263238;stroke-miterlimit:10;stroke-width:0.75px"></path><path d="M67.92,414.82s1.3-2.9,6.38-1,7.11,4.78,3.92,5.8S67.92,414.82,67.92,414.82Z" style="fill:#0EA2BD;stroke:#263238;stroke-linecap:round;stroke-linejoin:round;stroke-width:0.75px"></path><path d="M69.08,415s5.23-.29,7.7,2.77" style="fill:none;stroke:#263238;stroke-miterlimit:10;stroke-width:0.75px"></path><path d="M67.92,414.82a8.15,8.15,0,0,0-4.33.59" style="fill:none;stroke:#263238;stroke-miterlimit:10;stroke-width:0.75px"></path><path d="M45.18,409.62a12,12,0,0,0-6.09-3.6s-4.47-1.18-6.21.42" style="fill:none;stroke:#263238;stroke-miterlimit:10;stroke-width:0.75px"></path><line x1="45.8" y1="393.55" x2="45.53" y2="392.34" style="fill:none;stroke:#263238;stroke-miterlimit:10;stroke-width:0.75px"></line><path d="M52.86,457.68s.65-25,0-32.57a83,83,0,0,0-3.68-16.47l-3.09-13.81" style="fill:none;stroke:#263238;stroke-miterlimit:10;stroke-width:0.75px"></path><line x1="65.76" y1="398.91" x2="66.32" y2="397.71" style="fill:none;stroke:#263238;stroke-miterlimit:10;stroke-width:0.75px"></line><path d="M54.38,457.66s.22-22.79,1.08-29.3,4.34-16.69,4.34-16.69l5.32-11.4" style="fill:none;stroke:#263238;stroke-miterlimit:10;stroke-width:0.75px"></path><path d="M58.07,429.88S56.55,443,55.68,457.69" style="fill:none;stroke:#263238;stroke-miterlimit:10;stroke-width:0.75px"></path><path d="M50.7,457.66s.43-20.84-.44-23.66-2.32-1.58-2.32-1.58-4,.48-5.47,2.8" style="fill:none;stroke:#263238;stroke-miterlimit:10;stroke-width:0.75px"></path><path d="M51.69,431c1.14,6.35.09,26.65.09,26.65" style="fill:none;stroke:#263238;stroke-miterlimit:10;stroke-width:0.75px"></path><path d="M62.36,416.09a9.08,9.08,0,0,0-3.29,4.47c-2.6,6.94-2.3,37.13-2.3,37.13" style="fill:none;stroke:#263238;stroke-miterlimit:10;stroke-width:0.75px"></path><path d="M45.93,410.45a20.4,20.4,0,0,1,3.68,6.64c3.47,10,4.77,35.8,4.12,40.57" style="fill:none;stroke:#263238;stroke-miterlimit:10;stroke-width:0.75px"></path><path d="M54.74,419.78c-.21,12.58-.36,37.88-.36,37.88" style="fill:none;stroke:#263238;stroke-miterlimit:10;stroke-width:0.75px"></path><path d="M54.77,418.21c.14-8.32.31-16.46.48-20.84.43-11.28,1.1-10.64,1.1-10.64s.81-2.54,5.31-2.24" style="fill:none;stroke:#263238;stroke-miterlimit:10;stroke-width:0.75px"></path><path d="M49.22,427.71s-3.63-3.23-2.18-4.82,10.45-2.76,13.06-.69-3.2,5-5.37,5.62S49.94,428.24,49.22,427.71Z" style="fill:#0EA2BD;stroke:#263238;stroke-linecap:round;stroke-linejoin:round;stroke-width:0.75px"></path><path d="M52.57,425.07a5.28,5.28,0,0,0-.09,1" style="fill:none;stroke:#263238;stroke-miterlimit:10;stroke-width:0.75px"></path><path d="M53.81,421.29a16.41,16.41,0,0,0-.93,2.4" style="fill:none;stroke:#263238;stroke-miterlimit:10;stroke-width:0.75px"></path><path d="M49.22,448.86S45.59,445.63,47,444s10.45-2.76,13.06-.69-3.2,5-5.37,5.62S49.94,449.39,49.22,448.86Z" style="fill:#0EA2BD;stroke:#263238;stroke-linecap:round;stroke-linejoin:round;stroke-width:0.75px"></path><path d="M53.81,442.44a13.09,13.09,0,0,0-1.33,4.74" style="fill:none;stroke:#263238;stroke-miterlimit:10;stroke-width:0.75px"></path><path d="M51.92,439.92s-2.47-2.2-1.48-3.28,7.09-1.87,8.86-.47-2.16,3.39-3.64,3.82A5.71,5.71,0,0,1,51.92,439.92Z" style="fill:#0EA2BD;stroke:#263238;stroke-linecap:round;stroke-linejoin:round;stroke-width:0.75px"></path><path d="M55,435.56a8.92,8.92,0,0,0-.9,3.22" style="fill:none;stroke:#263238;stroke-miterlimit:10;stroke-width:0.75px"></path><rect x="48.51" y="454.06" width="9.82" height="21.77" style="fill:#263238;stroke:#263238;stroke-linecap:round;stroke-linejoin:round;stroke-width:0.75px"></rect></g><g id="freepik--device-2--inject-8"><path d="M458.87,312H673.09a10.46,10.46,0,0,1,10.46,10.46V464.6a0,0,0,0,1,0,0H448.42a0,0,0,0,1,0,0V322.43A10.46,10.46,0,0,1,458.87,312Z" style="fill:#263238;stroke:#263238;stroke-miterlimit:10"></path><rect x="458.03" y="322.35" width="215.85" height="127.67" style="fill:#0EA2BD;stroke:#263238;stroke-linecap:round;stroke-linejoin:round"></rect><rect x="485.72" y="457.25" width="161.59" height="7.96" style="fill:#263238;stroke:#263238;stroke-linecap:round;stroke-linejoin:round"></rect><rect x="485.72" y="461.08" width="161.59" height="4.13" style="fill:#fff;stroke:#263238;stroke-linecap:round;stroke-linejoin:round"></rect><path d="M429.4,469.93s2.65,3.24,10.62,5.9H693s5.9-1.48,8.56-5.6Z" style="fill:#263238;stroke:#263238;stroke-linecap:round;stroke-linejoin:round"></path><rect x="428.86" y="464.12" width="273.29" height="6.2" rx="1.89" style="fill:#969696;stroke:#263238;stroke-miterlimit:10"></rect><path d="M568,316.59a2.06,2.06,0,1,0-2.06,2.07A2.06,2.06,0,0,0,568,316.59Z" style="fill:#737373;stroke:#263238;stroke-linecap:round;stroke-linejoin:round"></path><path d="M450.63,354.93h0a.6.6,0,0,1-.59-.59V337.23a.6.6,0,0,1,.59-.59h0a.59.59,0,0,1,.59.59v17.11A.59.59,0,0,1,450.63,354.93Z" style="fill:#263238"></path><polygon points="479.44 332.75 479.44 330.68 470.54 330.68 470.54 332.75 470.54 334.14 470.54 345.18 489.28 345.18 489.28 332.75 479.44 332.75" style="fill:#fff;stroke:#263238;stroke-linecap:round;stroke-linejoin:round"></polygon><polygon points="502.62 332.75 502.62 330.68 493.72 330.68 493.72 332.75 493.72 334.14 493.72 345.18 512.47 345.18 512.47 332.75 502.62 332.75" style="fill:#fff;stroke:#263238;stroke-linecap:round;stroke-linejoin:round"></polygon><polygon points="479.44 353.47 479.44 351.39 470.54 351.39 470.54 353.47 470.54 354.86 470.54 365.9 489.28 365.9 489.28 353.47 479.44 353.47" style="fill:#fff;stroke:#263238;stroke-linecap:round;stroke-linejoin:round"></polygon><polygon points="502.62 353.47 502.62 351.39 493.72 351.39 493.72 353.47 493.72 354.86 493.72 365.9 512.47 365.9 512.47 353.47 502.62 353.47" style="fill:#fff;stroke:#263238;stroke-linecap:round;stroke-linejoin:round"></polygon><polygon points="479.44 374.19 479.44 372.11 470.54 372.11 470.54 374.19 470.54 375.58 470.54 386.62 489.28 386.62 489.28 374.19 479.44 374.19" style="fill:#fff;stroke:#263238;stroke-linecap:round;stroke-linejoin:round"></polygon><polygon points="502.62 374.19 502.62 372.11 493.72 372.11 493.72 374.19 493.72 375.58 493.72 386.62 512.47 386.62 512.47 374.19 502.62 374.19" style="fill:#fff;stroke:#263238;stroke-linecap:round;stroke-linejoin:round"></polygon><polygon points="479.44 394.91 479.44 392.83 470.54 392.83 470.54 394.91 470.54 396.3 470.54 407.34 489.28 407.34 489.28 394.91 479.44 394.91" style="fill:#fff;stroke:#263238;stroke-linecap:round;stroke-linejoin:round"></polygon><polygon points="502.62 394.91 502.62 392.83 493.72 392.83 493.72 394.91 493.72 396.3 493.72 407.34 512.47 407.34 512.47 394.91 502.62 394.91" style="fill:#fff;stroke:#263238;stroke-linecap:round;stroke-linejoin:round"></polygon><polygon points="479.44 415.63 479.44 413.55 470.54 413.55 470.54 415.63 470.54 417.01 470.54 428.06 489.28 428.06 489.28 415.63 479.44 415.63" style="fill:#fff;stroke:#263238;stroke-linecap:round;stroke-linejoin:round"></polygon><polygon points="502.62 415.63 502.62 413.55 493.72 413.55 493.72 415.63 493.72 417.01 493.72 428.06 512.47 428.06 512.47 415.63 502.62 415.63" style="fill:#fff;stroke:#263238;stroke-linecap:round;stroke-linejoin:round"></polygon><path d="M520.35,381.72h31.11a3,3,0,0,1,3,3v36.46a5.39,5.39,0,0,1-5.39,5.39H522.77a5.39,5.39,0,0,1-5.39-5.39V384.69A3,3,0,0,1,520.35,381.72Z" style="fill:#fff;stroke:#263238;stroke-linecap:round;stroke-linejoin:round"></path><path d="M520.35,381.72h31.11a3,3,0,0,1,3,3v1.55a0,0,0,0,1,0,0H517.38a0,0,0,0,1,0,0v-1.55A3,3,0,0,1,520.35,381.72Z" style="fill:#263238;stroke:#263238;stroke-linecap:round;stroke-linejoin:round"></path><path d="M545.4,384.07a1.2,1.2,0,1,0-1.2,1.2A1.19,1.19,0,0,0,545.4,384.07Z" style="fill:#fff;stroke:#263238;stroke-linecap:round;stroke-linejoin:round"></path><path d="M549.26,384.07a1.21,1.21,0,1,0-1.21,1.2A1.2,1.2,0,0,0,549.26,384.07Z" style="fill:#fff;stroke:#263238;stroke-linecap:round;stroke-linejoin:round"></path><path d="M553.11,384.07a1.21,1.21,0,1,0-1.2,1.2A1.19,1.19,0,0,0,553.11,384.07Z" style="fill:#fff;stroke:#263238;stroke-linecap:round;stroke-linejoin:round"></path><polyline points="531.46 391.39 525.11 396.41 531.46 401.43" style="fill:none;stroke:#263238;stroke-linecap:round;stroke-linejoin:round;stroke-width:3px"></polyline><polyline points="540.17 391.39 546.52 396.41 540.17 401.43" style="fill:none;stroke:#263238;stroke-linecap:round;stroke-linejoin:round;stroke-width:3px"></polyline><line x1="536.62" y1="390.21" x2="534.7" y2="402.32" style="fill:none;stroke:#263238;stroke-linecap:round;stroke-linejoin:round;stroke-width:3px"></line><line x1="543.61" y1="408.05" x2="550.63" y2="408.05" style="fill:none;stroke:#263238;stroke-linecap:round;stroke-linejoin:round"></line><line x1="533.22" y1="408.05" x2="542.34" y2="408.05" style="fill:none;stroke:#263238;stroke-linecap:round;stroke-linejoin:round"></line><line x1="525.56" y1="408.05" x2="531.21" y2="408.05" style="fill:none;stroke:#263238;stroke-linecap:round;stroke-linejoin:round"></line><line x1="521.63" y1="408.05" x2="524.28" y2="408.05" style="fill:none;stroke:#263238;stroke-linecap:round;stroke-linejoin:round"></line><line x1="546.53" y1="412.19" x2="550.63" y2="412.19" style="fill:none;stroke:#263238;stroke-linecap:round;stroke-linejoin:round"></line><line x1="526.11" y1="412.19" x2="544.53" y2="412.19" style="fill:none;stroke:#263238;stroke-linecap:round;stroke-linejoin:round"></line><line x1="521.63" y1="412.19" x2="523.92" y2="412.19" style="fill:none;stroke:#263238;stroke-linecap:round;stroke-linejoin:round"></line><line x1="536.68" y1="416.33" x2="550.63" y2="416.33" style="fill:none;stroke:#263238;stroke-linecap:round;stroke-linejoin:round"></line><line x1="525.01" y1="416.33" x2="534.13" y2="416.33" style="fill:none;stroke:#263238;stroke-linecap:round;stroke-linejoin:round"></line><line x1="521.63" y1="416.33" x2="523.55" y2="416.33" style="fill:none;stroke:#263238;stroke-linecap:round;stroke-linejoin:round"></line><line x1="546.71" y1="420.48" x2="550.63" y2="420.48" style="fill:none;stroke:#263238;stroke-linecap:round;stroke-linejoin:round"></line><line x1="533.4" y1="420.48" x2="544.53" y2="420.48" style="fill:none;stroke:#263238;stroke-linecap:round;stroke-linejoin:round"></line><line x1="521.63" y1="420.48" x2="531.21" y2="420.48" style="fill:none;stroke:#263238;stroke-linecap:round;stroke-linejoin:round"></line><path d="M566.48,326.58H597.6a3,3,0,0,1,3,3V366a5.39,5.39,0,0,1-5.39,5.39H568.9a5.39,5.39,0,0,1-5.39-5.39V329.54A3,3,0,0,1,566.48,326.58Z" style="fill:#fff;stroke:#263238;stroke-linecap:round;stroke-linejoin:round"></path><path d="M566.48,326.58H597.6a3,3,0,0,1,3,3v1.55a0,0,0,0,1,0,0H563.52a0,0,0,0,1,0,0v-1.55A3,3,0,0,1,566.48,326.58Z" style="fill:#263238;stroke:#263238;stroke-linecap:round;stroke-linejoin:round"></path><path d="M591.54,328.93a1.21,1.21,0,1,0-1.21,1.2A1.21,1.21,0,0,0,591.54,328.93Z" style="fill:#fff;stroke:#263238;stroke-linecap:round;stroke-linejoin:round"></path><path d="M595.39,328.93a1.21,1.21,0,1,0-1.2,1.2A1.21,1.21,0,0,0,595.39,328.93Z" style="fill:#fff;stroke:#263238;stroke-linecap:round;stroke-linejoin:round"></path><path d="M599.25,328.93a1.21,1.21,0,1,0-1.21,1.2A1.21,1.21,0,0,0,599.25,328.93Z" style="fill:#fff;stroke:#263238;stroke-linecap:round;stroke-linejoin:round"></path><polyline points="577.59 336.25 571.24 341.27 577.59 346.29" style="fill:none;stroke:#263238;stroke-linecap:round;stroke-linejoin:round;stroke-width:3px"></polyline><polyline points="586.3 336.25 592.65 341.27 586.3 346.29" style="fill:none;stroke:#263238;stroke-linecap:round;stroke-linejoin:round;stroke-width:3px"></polyline><line x1="582.75" y1="335.07" x2="580.84" y2="347.17" style="fill:none;stroke:#263238;stroke-linecap:round;stroke-linejoin:round;stroke-width:3px"></line><line x1="589.74" y1="352.91" x2="596.76" y2="352.91" style="fill:none;stroke:#263238;stroke-linecap:round;stroke-linejoin:round"></line><line x1="579.35" y1="352.91" x2="588.47" y2="352.91" style="fill:none;stroke:#263238;stroke-linecap:round;stroke-linejoin:round"></line><line x1="571.69" y1="352.91" x2="577.34" y2="352.91" style="fill:none;stroke:#263238;stroke-linecap:round;stroke-linejoin:round"></line><line x1="567.76" y1="352.91" x2="570.41" y2="352.91" style="fill:none;stroke:#263238;stroke-linecap:round;stroke-linejoin:round"></line><line x1="592.66" y1="357.05" x2="596.76" y2="357.05" style="fill:none;stroke:#263238;stroke-linecap:round;stroke-linejoin:round"></line><line x1="572.24" y1="357.05" x2="590.66" y2="357.05" style="fill:none;stroke:#263238;stroke-linecap:round;stroke-linejoin:round"></line><line x1="567.76" y1="357.05" x2="570.05" y2="357.05" style="fill:none;stroke:#263238;stroke-linecap:round;stroke-linejoin:round"></line><line x1="582.81" y1="361.19" x2="596.76" y2="361.19" style="fill:none;stroke:#263238;stroke-linecap:round;stroke-linejoin:round"></line><line x1="571.14" y1="361.19" x2="580.26" y2="361.19" style="fill:none;stroke:#263238;stroke-linecap:round;stroke-linejoin:round"></line><line x1="567.76" y1="361.19" x2="569.68" y2="361.19" style="fill:none;stroke:#263238;stroke-linecap:round;stroke-linejoin:round"></line><line x1="592.84" y1="365.33" x2="596.76" y2="365.33" style="fill:none;stroke:#263238;stroke-linecap:round;stroke-linejoin:round"></line><line x1="579.53" y1="365.33" x2="590.66" y2="365.33" style="fill:none;stroke:#263238;stroke-linecap:round;stroke-linejoin:round"></line><line x1="567.76" y1="365.33" x2="577.34" y2="365.33" style="fill:none;stroke:#263238;stroke-linecap:round;stroke-linejoin:round"></line></g><g id="freepik--device-1--inject-8"><rect x="83.92" y="24.72" width="112.97" height="211.63" rx="7.69" style="fill:#263238;stroke:#263238;stroke-linecap:round;stroke-linejoin:round"></rect><rect x="90.27" y="36.62" width="100.26" height="187.83" style="fill:#0EA2BD;stroke:#263238;stroke-linecap:round;stroke-linejoin:round"></rect><rect x="99.04" y="107.11" width="16.33" height="16.33" rx="2.12" style="fill:#fff;stroke:#263238;stroke-linecap:round;stroke-linejoin:round"></rect><rect x="121" y="107.11" width="16.33" height="16.33" rx="2.12" style="fill:#fff;stroke:#263238;stroke-linecap:round;stroke-linejoin:round"></rect><rect x="142.96" y="107.11" width="16.33" height="16.33" rx="2.12" style="fill:#fff;stroke:#263238;stroke-linecap:round;stroke-linejoin:round"></rect><rect x="164.91" y="107.11" width="16.33" height="16.33" rx="2.12" style="fill:#fff;stroke:#263238;stroke-linecap:round;stroke-linejoin:round"></rect><rect x="99.04" y="131.75" width="16.33" height="16.33" rx="2.12" style="fill:#fff;stroke:#263238;stroke-linecap:round;stroke-linejoin:round"></rect><rect x="121" y="131.75" width="16.33" height="16.33" rx="2.12" style="fill:#fff;stroke:#263238;stroke-linecap:round;stroke-linejoin:round"></rect><rect x="142.96" y="131.75" width="16.33" height="16.33" rx="2.12" style="fill:#fff;stroke:#263238;stroke-linecap:round;stroke-linejoin:round"></rect><rect x="164.91" y="131.75" width="16.33" height="16.33" rx="2.12" style="fill:#fff;stroke:#263238;stroke-linecap:round;stroke-linejoin:round"></rect><rect x="99.04" y="156.39" width="16.33" height="16.33" rx="2.12" style="fill:#fff;stroke:#263238;stroke-linecap:round;stroke-linejoin:round"></rect><rect x="121" y="156.39" width="16.33" height="16.33" rx="2.12" style="fill:#fff;stroke:#263238;stroke-linecap:round;stroke-linejoin:round"></rect><rect x="142.96" y="156.39" width="16.33" height="16.33" rx="2.12" style="fill:#fff;stroke:#263238;stroke-linecap:round;stroke-linejoin:round"></rect><rect x="164.91" y="156.39" width="16.33" height="16.33" rx="2.12" style="fill:#fff;stroke:#263238;stroke-linecap:round;stroke-linejoin:round"></rect><rect x="99.04" y="181.03" width="16.33" height="16.33" rx="2.12" style="fill:#fff;stroke:#263238;stroke-linecap:round;stroke-linejoin:round"></rect><rect x="121" y="181.03" width="16.33" height="16.33" rx="2.12" style="fill:#fff;stroke:#263238;stroke-linecap:round;stroke-linejoin:round"></rect><rect x="142.96" y="181.03" width="16.33" height="16.33" rx="2.12" style="fill:#fff;stroke:#263238;stroke-linecap:round;stroke-linejoin:round"></rect><rect x="164.91" y="181.03" width="16.33" height="16.33" rx="2.12" style="fill:#fff;stroke:#263238;stroke-linecap:round;stroke-linejoin:round"></rect><path d="M113,11A14.67,14.67,0,0,0,98.29,25.68c0,8.1,14.67,24.66,14.67,24.66s14.67-16.56,14.67-24.66A14.67,14.67,0,0,0,113,11Zm-.41,21.54a5.26,5.26,0,1,1,5.26-5.26A5.26,5.26,0,0,1,112.55,32.55Z" style="fill:#fff;stroke:#263238;stroke-linecap:round;stroke-linejoin:round"></path><rect x="151.16" y="46.67" width="78.81" height="53.97" style="fill:#fff;stroke:#263238;stroke-linecap:round;stroke-linejoin:round"></rect><rect x="151.16" y="93.73" width="78.81" height="6.9" style="fill:#fff;stroke:#263238;stroke-linecap:round;stroke-linejoin:round"></rect><polygon points="204.2 70.84 180.36 57.07 180.36 84.6 204.2 70.84" style="fill:#0EA2BD;stroke:#263238;stroke-linecap:round;stroke-linejoin:round"></polygon><line x1="155.27" y1="97.52" x2="226.76" y2="97.52" style="fill:#fff;stroke:#263238;stroke-linecap:round;stroke-linejoin:round"></line></g><g id="freepik--Tabs--inject-8"><path d="M40.65,299.93h82A4.37,4.37,0,0,1,127,304.3v75.38a0,0,0,0,1,0,0H36.28a0,0,0,0,1,0,0V304.3A4.37,4.37,0,0,1,40.65,299.93Z" style="fill:#fff;stroke:#263238;stroke-linecap:round;stroke-linejoin:round"></path><path d="M127,308.18v-3.44a4.81,4.81,0,0,0-4.81-4.81H41.09a4.82,4.82,0,0,0-4.81,4.81v3.44Z" style="fill:#263238;stroke:#263238;stroke-linecap:round;stroke-linejoin:round"></path><line x1="45.7" y1="370.41" x2="45.7" y2="373.49" style="fill:none;stroke:#263238;stroke-miterlimit:10"></line><line x1="53.09" y1="370.41" x2="53.09" y2="373.49" style="fill:none;stroke:#263238;stroke-miterlimit:10"></line><line x1="60.47" y1="370.41" x2="60.47" y2="373.49" style="fill:none;stroke:#263238;stroke-miterlimit:10"></line><line x1="67.86" y1="370.41" x2="67.86" y2="373.49" style="fill:none;stroke:#263238;stroke-miterlimit:10"></line><line x1="75.25" y1="370.41" x2="75.25" y2="373.49" style="fill:none;stroke:#263238;stroke-miterlimit:10"></line><line x1="82.64" y1="370.41" x2="82.64" y2="373.49" style="fill:none;stroke:#263238;stroke-miterlimit:10"></line><line x1="90.02" y1="370.41" x2="90.02" y2="373.49" style="fill:none;stroke:#263238;stroke-miterlimit:10"></line><line x1="97.41" y1="370.41" x2="97.41" y2="373.49" style="fill:none;stroke:#263238;stroke-miterlimit:10"></line><line x1="104.8" y1="370.41" x2="104.8" y2="373.49" style="fill:none;stroke:#263238;stroke-miterlimit:10"></line><line x1="112.19" y1="370.41" x2="112.19" y2="373.49" style="fill:none;stroke:#263238;stroke-miterlimit:10"></line><line x1="119.58" y1="370.41" x2="119.58" y2="373.49" style="fill:none;stroke:#263238;stroke-miterlimit:10"></line><polygon points="116.5 327.32 108.49 331.63 102.03 318.7 93.72 329.47 86.33 323.01 79.25 315 71.86 323.62 64.47 344.55 56.47 336.86 48.47 342.71 48.47 362.1 116.5 362.1 116.5 327.32" style="fill:#0EA2BD"></polygon><line x1="48.65" y1="314.83" x2="57.02" y2="314.83" style="fill:none;stroke:#263238;stroke-miterlimit:10"></line><line x1="48.65" y1="318.32" x2="57.02" y2="318.32" style="fill:none;stroke:#263238;stroke-miterlimit:10"></line><line x1="48.65" y1="321.8" x2="57.02" y2="321.8" style="fill:none;stroke:#263238;stroke-miterlimit:10"></line><polygon points="116.5 344.36 108.49 347.32 102.03 332.94 93.72 343.01 86.33 340.55 79.25 355.94 71.86 335.32 64.47 355.94 56.47 348.25 48.47 358.41 48.47 365.79 116.5 365.79 116.5 344.36" style="fill:#263238;stroke:#263238;stroke-linecap:round;stroke-linejoin:round"></polygon><path d="M142,265.46H249.46a3,3,0,0,1,3,3v84.8a0,0,0,0,1,0,0H138.92a0,0,0,0,1,0,0v-84.8A3,3,0,0,1,142,265.46Z" style="fill:#fff;stroke:#263238;stroke-linecap:round;stroke-linejoin:round"></path><path d="M142,265.46H249.46a3,3,0,0,1,3,3v6.27a0,0,0,0,1,0,0H138.92a0,0,0,0,1,0,0v-6.27A3,3,0,0,1,142,265.46Z" style="fill:#263238;stroke:#263238;stroke-linecap:round;stroke-linejoin:round"></path><path d="M171.94,315.22a17.65,17.65,0,0,1-17.23-21.48l6.31,1.4a11,11,0,0,0-.27,2.43,11.19,11.19,0,0,0,14.86,10.57l2.11,6.11A17.71,17.71,0,0,1,171.94,315.22Z" style="fill:#263238"></path><path d="M161,295.14l-6.31-1.4a17.65,17.65,0,0,1,31.51-6.56L181,291a11.19,11.19,0,0,0-20,4.16Z" style="fill:#b0b0b0"></path><path d="M177.72,314.25l-2.11-6.1A11.2,11.2,0,0,0,181,291l5.22-3.8a17.65,17.65,0,0,1-8.5,27.07Z" style="fill:#0EA2BD"></path><line x1="206.29" y1="285.26" x2="227.68" y2="285.26" style="fill:none;stroke:#263238;stroke-miterlimit:10"></line><rect x="197.73" y="282.69" width="5.14" height="5.14" style="fill:#263238"></rect><line x1="206.29" y1="297.24" x2="227.68" y2="297.24" style="fill:none;stroke:#263238;stroke-miterlimit:10"></line><rect x="197.73" y="294.68" width="5.14" height="5.14" style="fill:#b0b0b0"></rect><line x1="206.29" y1="309.23" x2="227.68" y2="309.23" style="fill:none;stroke:#263238;stroke-miterlimit:10"></line><rect x="197.73" y="306.66" width="5.14" height="5.14" style="fill:#0EA2BD"></rect><rect x="144.23" y="342.82" width="5.71" height="6.63" style="fill:#0EA2BD"></rect><rect x="153.01" y="345.17" width="5.71" height="4.28" style="fill:#0EA2BD"></rect><rect x="161.79" y="340.47" width="5.71" height="8.99" style="fill:#0EA2BD"></rect><rect x="170.57" y="331.48" width="5.71" height="17.97" style="fill:#0EA2BD"></rect><rect x="179.35" y="328.06" width="5.71" height="21.4" style="fill:#0EA2BD"></rect><rect x="188.13" y="346.46" width="5.71" height="3" style="fill:#0EA2BD"></rect><rect x="196.91" y="326.34" width="5.71" height="23.11" style="fill:#0EA2BD"></rect><rect x="205.69" y="344.32" width="5.71" height="5.14" style="fill:#0EA2BD"></rect><rect x="214.47" y="335.33" width="5.71" height="14.12" style="fill:#0EA2BD"></rect><rect x="223.25" y="342.39" width="5.71" height="7.06" style="fill:#0EA2BD"></rect><rect x="232.03" y="328.91" width="5.71" height="20.54" style="fill:#0EA2BD"></rect><rect x="240.81" y="316.93" width="5.71" height="32.52" style="fill:#0EA2BD"></rect><line x1="146.8" y1="320.78" x2="168.63" y2="320.78" style="fill:none;stroke:#263238;stroke-miterlimit:10"></line><line x1="146.8" y1="325.49" x2="168.63" y2="325.49" style="fill:none;stroke:#263238;stroke-miterlimit:10"></line></g><g id="freepik--character-6--inject-8"><path d="M687.19,331a8.94,8.94,0,0,0-5.65,1.2,8.22,8.22,0,0,0-2.83,2.72c-1.83,3-.4,4.78-1.58,6s-2.08,1.78-1.89,2.68,1.62,1.6,1.84,1.76-.4,3.06.07,4.62,4.33,1.52,4.33,1.52.44,2.85.55,3.78-.78,8.13,3.12,5.91,6.15-4.4,6.38-5.34-1-3.82-1-4.74a2.52,2.52,0,0,1,.37-2c.46-.64,3.69-2.71,5.18-6.44a8.26,8.26,0,0,0-3.84-10.3A15.68,15.68,0,0,0,687.19,331Z" style="fill:#fff;stroke:#263238;stroke-linecap:round;stroke-linejoin:round"></path><path d="M685.41,333.46a4.54,4.54,0,0,0-2.9-1.72,9.13,9.13,0,0,1,4.68-.7,15.68,15.68,0,0,1,5,1.42,8.26,8.26,0,0,1,3.84,10.3c-1.49,3.73-4.72,5.8-5.18,6.44a2.17,2.17,0,0,0-.34.71c-3-.56-3.39-2.34-3.39-2.34a2.56,2.56,0,0,0,2,.2c1.11-.38,2.2-3.1,1.69-4.74s-2.2-.33-2.6.67-1.21,1.65-1.63,1.34.14-1.38.24-2.16-1.54-2.67-1.77-3.45.68-1,1.8-1.61S687.74,336,685.41,333.46Z" style="fill:#263238;stroke:#263238;stroke-linecap:round;stroke-linejoin:round"></path><path d="M687.16,347.8a4.75,4.75,0,0,1-2.09,2.31" style="fill:none;stroke:#263238;stroke-linecap:round;stroke-linejoin:round;stroke-width:0.75px"></path><path d="M679.15,341.13a3.44,3.44,0,0,1,1.69.39" style="fill:none;stroke:#263238;stroke-linecap:round;stroke-linejoin:round;stroke-width:0.75px"></path><path d="M678.85,339.35a1.76,1.76,0,0,1,2.67.7" style="fill:none;stroke:#263238;stroke-linecap:round;stroke-linejoin:round;stroke-width:0.75px"></path><path d="M678.25,346.84a1.73,1.73,0,0,0,2.11-.45" style="fill:none;stroke:#263238;stroke-linecap:round;stroke-linejoin:round;stroke-width:0.75px"></path><path d="M658.89,474a64.82,64.82,0,0,0,5.89-3.28,7.35,7.35,0,0,1,0-1.78c.13-.41,1.36-1.37,1.36-1.37s1.1-10,1.1-14.77a86.09,86.09,0,0,1,1.09-11.91c.14-.54,3.83-38.71,3.83-38.71l1.24-9.72,12.18.6,12.18-.6,1.23,9.72s3.69,38.17,3.83,38.71a83.92,83.92,0,0,1,1.1,11.91c0,4.79,1.09,14.77,1.09,14.77s1.23,1,1.37,1.37a7.35,7.35,0,0,1,0,1.78,64.45,64.45,0,0,0,5.88,3.28c1,.28.55,1.1-.55,1.65a14,14,0,0,1-4.65.82c-1.09,0-2.73-1.92-3.14-2.19s-.28,1.37-.28,1.37a4.08,4.08,0,0,1-1.5-.28c-.55-.27-1.51.28-1.64-1.37s-.14-3.28-.14-3.28a5.92,5.92,0,0,1-1.23-1.78c-.28-.82-.82-3.15-.82-3.15L689.69,431l-4.11-19-4.11,19-8.62,34.75s-.55,2.33-.82,3.15a6.12,6.12,0,0,1-1.23,1.78s0,1.64-.14,3.28-1.1,1.1-1.64,1.37a4.16,4.16,0,0,1-1.51.28s.14-1.65-.27-1.37-2,2.19-3.15,2.19a14.07,14.07,0,0,1-4.65-.82C658.35,475.1,657.94,474.28,658.89,474Z" style="fill:#263238;stroke:#263238;stroke-linecap:round;stroke-linejoin:round"></path><path d="M700.19,378.45l3.48-16.76s7.51,26.12,7.84,26.77a.3.3,0,0,1,0,.12L715,399.86l-6.85-.2-4-7.43-1.93-5.89C701.41,384.07,700.19,378.45,700.19,378.45Z" style="fill:#fff;stroke:#263238;stroke-linecap:round;stroke-linejoin:round"></path><line x1="700.87" y1="376.12" x2="702.97" y2="371.03" style="fill:#fff;stroke:#263238;stroke-linecap:round;stroke-linejoin:round"></line><path d="M703.51,384.05l-.6.43" style="fill:#fff;stroke:#263238;stroke-linecap:round;stroke-linejoin:round"></path><path d="M709.06,382.87a17.88,17.88,0,0,0-2.49-.73,11.78,11.78,0,0,0-2.37,1.43" style="fill:#fff;stroke:#263238;stroke-linecap:round;stroke-linejoin:round"></path><path d="M668.84,360.17s-8.59,23-8.81,23.83a5.78,5.78,0,0,0-.33,2.4c.11,1,1.64,1.63,2,1.63s2.72-1.52,3.7-2,3.92-1.85,3.92-1.85l1.52-4.9Z" style="fill:#fff;stroke:#263238;stroke-linecap:round;stroke-linejoin:round"></path><line x1="668.36" y1="367.62" x2="668.22" y2="367.06" style="fill:#fff;stroke:#263238;stroke-linecap:round;stroke-linejoin:round"></line><line x1="670.42" y1="375.7" x2="668.6" y2="368.53" style="fill:#fff;stroke:#263238;stroke-linecap:round;stroke-linejoin:round"></line><path d="M691.37,356.84l12.3,4.85L698.34,390s.43,2.61.11,3.15a2.92,2.92,0,0,1-.87.88H673.52s-1.63-1.53-1.63-1.85v-1.42l-3-30.58L681,357Z" style="fill:#fff;stroke:#263238;stroke-linecap:round;stroke-linejoin:round"></path><polygon points="688.07 357.57 686.32 362.52 688.68 392.59 684.98 398.46 681.78 392.08 685.08 362.52 683.02 358.09 685.91 356.5 688.07 357.57" style="fill:#0EA2BD;stroke:#263238;stroke-linecap:round;stroke-linejoin:round"></polygon><polygon points="691.35 353.06 692.6 355.68 688.79 361.38 686.73 356.44 691.35 353.06" style="fill:#fff;stroke:#263238;stroke-linecap:round;stroke-linejoin:round"></polygon><polygon points="684.87 356.55 683.23 361.8 679.83 356.34 681.37 353.15 684.87 356.55" style="fill:#fff;stroke:#263238;stroke-linecap:round;stroke-linejoin:round"></polygon><polygon points="692.6 355.68 689.88 389.94 690.66 428.28 704.67 428.28 701.17 387.21 703.67 361.69 692.6 355.68" style="fill:#fff;stroke:#263238;stroke-linecap:round;stroke-linejoin:round"></polygon><polygon points="679.95 355.68 682.67 389.94 681.9 428.28 667.88 428.28 671.38 387.21 668.85 360.17 679.95 355.68" style="fill:#fff;stroke:#263238;stroke-linecap:round;stroke-linejoin:round"></polygon><path d="M649.12,377.33s16,4.39,16.31,4.47a5.2,5.2,0,0,1,2.14,1.68c.26.63.86,3.39-.07,4.76s-5,2.78-5.79,2.44L646,383.51Z" style="fill:#fff;stroke:#263238;stroke-linecap:round;stroke-linejoin:round"></path><path d="M650.29,378.94a2.93,2.93,0,0,1-.39,2.31c-.75,1.3-3.9,2.26-3.9,2.26l3.12-6.18S650.21,377.33,650.29,378.94Z" style="fill:#fff;stroke:#263238;stroke-linecap:round;stroke-linejoin:round"></path><path d="M648.42,377l1.87,2s0,2.05-1,2.63-1.47-.07-1.47-.07l-1-1.2-4.43-1.79Z" style="fill:#fff;stroke:#263238;stroke-linecap:round;stroke-linejoin:round"></path><path d="M647.43,370.87s-1.25-.7-1.49-1.33-1.58-1.59-2.21-2.3-.24-1.5.87-1.1a19.49,19.49,0,0,1,3.56,2.45Z" style="fill:#fff;stroke:#263238;stroke-linecap:round;stroke-linejoin:round"></path><path d="M712.72,403.84a4,4,0,0,0,2,.35c.65-.2,2.22.27,3.17.33s1.33-.74.34-1.37a20.48,20.48,0,0,0-4.13-1.29Z" style="fill:#fff;stroke:#263238;stroke-linecap:round;stroke-linejoin:round"></path><path d="M737.58,412.05a7,7,0,0,0,1.52-13.6L632.46,360.36a7,7,0,1,0-4.73,13.23l106.65,38.1A6.93,6.93,0,0,0,737.58,412.05Z" style="fill:#263238"></path><path d="M576.37,291.31a54.66,54.66,0,1,1-47.69,60.84A54.65,54.65,0,0,1,576.37,291.31ZM588,387.62a42.35,42.35,0,1,0-47.14-36.95A42.36,42.36,0,0,0,588,387.62Z" style="fill:#263238;stroke:#263238;stroke-linecap:round;stroke-linejoin:round"></path><path d="M578.28,291.08a54.66,54.66,0,1,1-47.69,60.83A54.66,54.66,0,0,1,578.28,291.08ZM590,387.39a42.36,42.36,0,1,0-47.14-37A42.36,42.36,0,0,0,590,387.39Z" style="fill:#fff;stroke:#263238;stroke-linecap:round;stroke-linejoin:round"></path><path d="M643.68,377.62s-1,3.49-.29,3.92,5.8,2,5.8,2a48,48,0,0,0-1.3-4.64c-.29-.43-.85-.62-.85-.38l-.31.87s-.48-1.82-1-1.74a.92.92,0,0,0-.64.63S644.75,376.54,643.68,377.62Z" style="fill:#fff;stroke:#263238;stroke-linecap:round;stroke-linejoin:round"></path><path d="M649.19,383.57s1,.12.86-.83-1.58-3.72-1.9-2.93S648.73,382.75,649.19,383.57Z" style="fill:#fff;stroke:#263238;stroke-linecap:round;stroke-linejoin:round"></path><path d="M646.73,379.42a7.42,7.42,0,0,0,.63,3.16" style="fill:#fff;stroke:#263238;stroke-linecap:round;stroke-linejoin:round"></path><path d="M645.14,378.31a7.27,7.27,0,0,0,.08,3.56" style="fill:#fff;stroke:#263238;stroke-linecap:round;stroke-linejoin:round"></path><path d="M715.29,400.78s-1.09,3.46-1.94,3.42-6-1.54-6-1.54a46.52,46.52,0,0,1,3.67-3.13c.48-.2,1,0,.91.15l-.22.9s1.41-1.25,1.76-.92a.92.92,0,0,1,.17.88S715,399.29,715.29,400.78Z" style="fill:#fff;stroke:#263238;stroke-linecap:round;stroke-linejoin:round"></path><path d="M707.4,402.66s-.9-.46-.25-1.16,3.38-2.21,3.21-1.38S708.24,402.23,707.4,402.66Z" style="fill:#fff;stroke:#263238;stroke-linecap:round;stroke-linejoin:round"></path><path d="M711.76,400.58s-1.27,1.91-2.28,2.28" style="fill:#fff;stroke:#263238;stroke-linecap:round;stroke-linejoin:round"></path><path d="M713.69,400.54a7.21,7.21,0,0,1-2,2.91" style="fill:#fff;stroke:#263238;stroke-linecap:round;stroke-linejoin:round"></path></g><g id="freepik--characters-5--inject-8"><line x1="259.54" y1="438.1" x2="261.21" y2="473.73" style="fill:none;stroke:#263238;stroke-linecap:round;stroke-linejoin:round;stroke-width:3px"></line><line x1="252.05" y1="438.1" x2="253.91" y2="473.73" style="fill:none;stroke:#263238;stroke-linecap:round;stroke-linejoin:round;stroke-width:3px"></line><line x1="228.17" y1="438.1" x2="225.75" y2="473.73" style="fill:none;stroke:#263238;stroke-linecap:round;stroke-linejoin:round;stroke-width:3px"></line><line x1="222.71" y1="438.1" x2="216.96" y2="473.73" style="fill:none;stroke:#263238;stroke-linecap:round;stroke-linejoin:round;stroke-width:3px"></line><polygon points="260.65 399.24 260.77 436.85 226.66 436.85 227.88 399.24 260.65 399.24" style="fill:gray;stroke:#263238;stroke-linecap:round;stroke-linejoin:round"></polygon><rect x="220.11" y="436.74" width="40.66" height="2.14" transform="translate(480.88 875.63) rotate(180)" style="fill:gray;stroke:#263238;stroke-linecap:round;stroke-linejoin:round"></rect><rect x="220.11" y="436.74" width="34.44" height="2.14" transform="translate(474.66 875.63) rotate(180)" style="fill:gray;stroke:#263238;stroke-linecap:round;stroke-linejoin:round"></rect><path d="M228.73,417.3s-3.15,4.82-3.65,8.47.33,7.81,2.66,9.3a11.55,11.55,0,0,0,5,1.66h19.76a7.94,7.94,0,0,0,5-4.15c1.49-3.32.5-7.64-.5-9.8s-1.83-4-1.83-4Z" style="fill:#263238;stroke:#263238;stroke-linecap:round;stroke-linejoin:round"></path><path d="M238,379.11s-11.62,4.32-12.29,5.48,5.15,24.08,5.15,24.08l-3,9.47a133.43,133.43,0,0,0,13.79,2.16A41.81,41.81,0,0,0,255.47,419l-2.65-11.13,4.31-23.25s-8.53-4-10.41-4.77S239.36,378.94,238,379.11Z" style="fill:#fff;stroke:#263238;stroke-linecap:round;stroke-linejoin:round"></path><path d="M244.24,420.43l2-40.75a33.22,33.22,0,0,0-8.25-.57l-.95.36L239.26,420q1.2.15,2.43.27C242.55,420.38,243.4,420.42,244.24,420.43Z" style="fill:#0EA2BD;stroke:#263238;stroke-linecap:round;stroke-linejoin:round"></path><path d="M225.74,384.59s-10.63,29.23-8.8,30.23S240,416.15,240,416.15v-2.33l-14.12-5.15,2.82-9.13Z" style="fill:#fff;stroke:#263238;stroke-linecap:round;stroke-linejoin:round"></path><path d="M240,413.82s5.64-.66,6.14-.66,5,3.15,5,3.15L240,416.15Z" style="fill:#fff;stroke:#263238;stroke-linecap:round;stroke-linejoin:round"></path><path d="M257.09,384.59s10.63,29.23,8.8,30.23-23.08,1.33-23.08,1.33v-2.33l14.11-5.15L254.25,400Z" style="fill:#fff;stroke:#263238;stroke-linecap:round;stroke-linejoin:round"></path><path d="M261.68,408a8.22,8.22,0,0,1,1,.09" style="fill:none;stroke:#263238;stroke-linecap:round;stroke-linejoin:round"></path><path d="M256.92,408.67A25.76,25.76,0,0,1,261,408" style="fill:none;stroke:#263238;stroke-linecap:round;stroke-linejoin:round"></path><path d="M242.81,413.82s-5.65-.66-6.15-.66-5,3.15-5,3.15l11.13-.16Z" style="fill:#fff;stroke:#263238;stroke-linecap:round;stroke-linejoin:round"></path><path d="M257.67,424.56c-1.33-5.45-6.48-6.46-11-6.84a16.91,16.91,0,0,0-7.6,1s7.41.38,8.36,5.45l-3,7.32s-.57,1.69,2.28,4.32" style="fill:#263238;stroke:#263238;stroke-linecap:round;stroke-linejoin:round"></path><path d="M240.74,426.81a93.38,93.38,0,0,0,1.53,10.59c1.19,5.88,6.46,27.23,6.8,28.07s4.25,6.39,3.57,8.41-1.53,1.85-3.06.33-3.06-7.9-3.23-8.57-9-15.8-11.73-22.69-4.42-10.76-3.57-15.8,3.91-5.22,6.29-4.54S240.74,426.81,240.74,426.81Z" style="fill:#fff;stroke:#263238;stroke-linecap:round;stroke-linejoin:round"></path><path d="M252.64,473.88c.37-1.09-.6-3.21-1.62-5.06-1.24,1.87-2.54,1.67-3.46,1.11a12.75,12.75,0,0,0,2,4.28C251.11,475.73,252,475.89,252.64,473.88Z" style="fill:#263238;stroke:#263238;stroke-linecap:round;stroke-linejoin:round"></path><path d="M250.53,426.81s1,2,2.18,7.85,5.81,30,6.15,30.81,4.25,6.39,3.57,8.41-1.53,1.85-3.06.33-3.06-7.9-3.23-8.57-9-15.8-11.73-22.69-4.42-10.76-3.57-15.8,3.91-5.22,6.29-4.54S250.53,426.81,250.53,426.81Z" style="fill:#fff;stroke:#263238;stroke-linecap:round;stroke-linejoin:round"></path><path d="M262.43,473.88c.37-1.09-.6-3.21-1.63-5.06-1.23,1.87-2.54,1.67-3.45,1.11a12.75,12.75,0,0,0,2,4.28C260.9,475.73,261.75,475.89,262.43,473.88Z" style="fill:#263238;stroke:#263238;stroke-linecap:round;stroke-linejoin:round"></path><path d="M237.08,379.47s-1.68,3.9-2,4.41-1.86,3.9-1.86,3.9a33.93,33.93,0,0,1,3.55-.68c.68,0,4.58,2,4.58,2s3.73-1.52,4.41-1.35,3.55,1.52,3.55,1.52l-2.57-9.48S239.45,377.26,237.08,379.47Z" style="fill:#0EA2BD;stroke:#263238;stroke-linecap:round;stroke-linejoin:round"></path><path d="M234.14,364.45s-1.76,2.54-1.41,4.13-.53,4.06-1.77,4.41,0,1.94.89,2.12l.88.18s1.46,5.14,2.17,5.67,3.36,0,3.36,0,.3,4,1.53,5.74,2,2.12,3.54-.18,3.53-7.77,3.53-7.77.53-5.83-.88-9.89S239.26,359.5,234.14,364.45Z" style="fill:#fff;stroke:#263238;stroke-linecap:round;stroke-linejoin:round"></path><path d="M231.89,364.1s2.17,1.31,4,2.29a3.71,3.71,0,0,1,1.53,1.54,13,13,0,0,0,2.66,3.26,2.07,2.07,0,0,1,.38.41c.21.43.43-.11,1-.54a1.52,1.52,0,0,1,2.18,1.41c.1,1.52-.22,2.17-1.09,2.39a3.47,3.47,0,0,1-1.41.11s-1.41,8.69.87,11.62,9,2.5,10.1.54l2.06-5.65a14.4,14.4,0,0,1-2.54-7.84c0-4.46,1-6.35-3-11.45s-12.12-2.54-13.64-1.67S230.47,360.3,231.89,364.1Z" style="fill:#263238"></path><path d="M234.42,371.53c0,.45-.16.82-.36.82s-.36-.37-.36-.82.16-.82.36-.82S234.42,371.08,234.42,371.53Z" style="fill:#263238"></path><path d="M233.49,369.58s.83-.92,1.54.31" style="fill:none;stroke:#263238;stroke-linecap:round;stroke-linejoin:round;stroke-width:0.75px"></path><path d="M233.91,376.35s.51.21,1.74-.71" style="fill:none;stroke:#263238;stroke-linecap:round;stroke-linejoin:round;stroke-width:0.75px"></path><line x1="161.71" y1="438.1" x2="160.04" y2="473.73" style="fill:none;stroke:#263238;stroke-linecap:round;stroke-linejoin:round;stroke-width:3px"></line><line x1="179.9" y1="438.1" x2="178.04" y2="473.73" style="fill:none;stroke:#263238;stroke-linecap:round;stroke-linejoin:round;stroke-width:3px"></line><line x1="188.99" y1="438.1" x2="191.4" y2="473.73" style="fill:none;stroke:#263238;stroke-linecap:round;stroke-linejoin:round;stroke-width:3px"></line><line x1="198.64" y1="438.1" x2="204.39" y2="473.73" style="fill:none;stroke:#263238;stroke-linecap:round;stroke-linejoin:round;stroke-width:3px"></line><polygon points="158.88 399.24 160.48 436.85 190.5 436.85 187.55 399.24 158.88 399.24" style="fill:gray;stroke:#263238;stroke-linecap:round;stroke-linejoin:round"></polygon><rect x="160.48" y="436.74" width="40.75" height="2.14" style="fill:gray;stroke:#263238;stroke-linecap:round;stroke-linejoin:round"></rect><rect x="177.06" y="436.74" width="24.18" height="2.14" style="fill:gray;stroke:#263238;stroke-linecap:round;stroke-linejoin:round"></rect><path d="M164.19,417.89s-1.5,13.6-1,15.38a4.78,4.78,0,0,0,3.26,3.31c1.38.38,20.54,0,21.07,0,3.06.06,3.66-1.51,3.77-4.58.11-3.33-.38-15.05-.38-15.05Z" style="fill:#263238;stroke:#263238;stroke-linecap:round;stroke-linejoin:round"></path><path d="M170.73,380.82s-11.26,4.45-10.89,5.19,3.73,22.4,3.85,23,.37,7.79.37,8.41a2.31,2.31,0,0,0,1.49,1.86c3.87.64,8.09.31,12,.36q4,0,7.94,0c1.56,0,5.2.73,5.78-1,.24-1.36.56-31.18.68-32.67s-1.09-1.62-2.69-2.49a78.16,78.16,0,0,0-10.38-3.82C178.15,379.7,170.73,380.82,170.73,380.82Z" style="fill:#fff;stroke:#263238;stroke-linecap:round;stroke-linejoin:round"></path><polygon points="173.96 387.88 176.47 391.39 173.6 412.87 178.12 417.64 180.62 412.12 176.96 391.02 179.73 387.51 175.09 384.87 173.96 387.88" style="fill:#0EA2BD;stroke:#263238;stroke-linecap:round;stroke-linejoin:round;stroke-width:0.75px"></polygon><path d="M171.6,379.7s-1.49.5-1.61,1.49.25,8.78.25,8.78l4.82-1.85,2.1-.5,5.45,1a27.31,27.31,0,0,0-1-6.7c-.87-2.23-1.86-3-2.6-3.09S171.6,379.7,171.6,379.7Z" style="fill:#fff;stroke:#263238;stroke-linecap:round;stroke-linejoin:round"></path><path d="M170.85,379.33a57.9,57.9,0,0,0,1.86,5.94c.49.87,3.71,3.47,4.45,2.35a21.52,21.52,0,0,0,1.61-4.45c.12-.37.25-4.33.25-4.33S173.08,380.94,170.85,379.33Z" style="fill:#fff;stroke:#263238;stroke-linecap:round;stroke-linejoin:round"></path><path d="M173.48,381.4a5.05,5.05,0,0,0,2.2,1.37,12.85,12.85,0,0,1,2.71,1.47l.35-1.33.21-3.57Z" style="fill:#263238;stroke:#263238;stroke-miterlimit:10"></path><path d="M182.57,369.93a28.47,28.47,0,0,0,0-6.36c-.43-2.32-2.89-3-4.77-3.33s-9.84.43-10.85,2.6,1.15,3.91,1.15,3.91-1.3.87-.72,2,1.3,2.75,1.3,2.75l.87-3.32,6.08.14,2.31.58,2.46,3s1.3.29,1.74-.29A3.61,3.61,0,0,0,182.57,369.93Z" style="fill:#263238;stroke:#263238;stroke-linecap:round;stroke-linejoin:round"></path><path d="M168.87,370.92s-1.23-1.36-1.23.13a5.17,5.17,0,0,0,1.48,3Z" style="fill:none;stroke:#263238;stroke-linecap:round;stroke-linejoin:round"></path><path d="M168.68,367.18s.15,8.11.44,9.7S173,382,173.68,382a3.48,3.48,0,0,0,2.6-.43c.87-.72,4.41-3.35,4.7-4.36a20.37,20.37,0,0,0,.43-3s2.32-1.16,2-2.9-1.16-1.88-1.59-1.44a14.69,14.69,0,0,0-1.16,1.44,5,5,0,0,0-.87-2c-.58-.58-2.31-.87-2-1.45l1.59-3.18a13.82,13.82,0,0,1-5.35,2.75A16.67,16.67,0,0,1,168.68,367.18Z" style="fill:#fff;stroke:#263238;stroke-linecap:round;stroke-linejoin:round"></path><path d="M172.49,374.27s.08.64,1.66.4" style="fill:none;stroke:#263238;stroke-linecap:round;stroke-linejoin:round;stroke-width:0.75px"></path><path d="M172.37,377.38a4.54,4.54,0,0,0,5-1.14" style="fill:none;stroke:#263238;stroke-linecap:round;stroke-linejoin:round;stroke-width:0.75px"></path><path d="M171.38,371.16c0,.4-.21.73-.46.73s-.46-.33-.46-.73.21-.73.46-.73S171.38,370.76,171.38,371.16Z" style="fill:#263238"></path><path d="M176.05,371.16c0,.4-.2.73-.46.73s-.46-.33-.46-.73.21-.73.46-.73S176.05,370.76,176.05,371.16Z" style="fill:#263238"></path><path d="M169.92,369.52a1.67,1.67,0,0,1,2-.16" style="fill:none;stroke:#263238;stroke-linecap:round;stroke-linejoin:round;stroke-width:0.75px"></path><path d="M174.14,369.44a2.33,2.33,0,0,1,2.76.46" style="fill:none;stroke:#263238;stroke-linecap:round;stroke-linejoin:round;stroke-width:0.75px"></path><path d="M159.84,386s-7.78,22.28-7.78,22.65-1.11,2.47,0,3.83a4,4,0,0,0,4.21,1.36c1.11-.49,6.28-11.31,6.28-11.31S160.21,387.25,159.84,386Z" style="fill:#fff;stroke:#263238;stroke-linecap:round;stroke-linejoin:round"></path><path d="M192.17,468.93l2.81,3.75s3.76,1,3.79,1.38-1.34,1-1.34,1l-3.65.57s-4.32-1.69-5.35-1.93-2,0-1.7-1.17.79-3.68.79-3.68Z" style="fill:#fff;stroke:#263238;stroke-linecap:round;stroke-linejoin:round"></path><path d="M182.26,430.55s2.88-5.14,6.9-7.15,7.52-1.25,10.78-1.25,8.78.5,9.41,1.25-17.18,45.53-17.18,45.53l-4.65-.12s3.39-15.05,3.89-18.57,1.76-13.67,1.76-13.67-8.7,0-12.71-.14" style="fill:#263238;stroke:#263238;stroke-linecap:round;stroke-linejoin:round"></path><path d="M165.32,423.66s.13-1.88,4.14-2,8.28-.5,8.78,1.89.63,38.88.63,40.14.38,4.26.38,4.26l-4.65.38s-6-20.2-7-24.71-.88-15.43-.88-16.31" style="fill:#263238;stroke:#263238;stroke-linecap:round;stroke-linejoin:round"></path><path d="M179.25,467.94s1.63,5.52,2,6.15.63,1-.5,1.75a6.94,6.94,0,0,1-4.77.88c-1.38-.38-1.63-2.76-1.38-4.77a14.08,14.08,0,0,0,0-3.63Z" style="fill:#fff;stroke:#263238;stroke-linecap:round;stroke-linejoin:round"></path><path d="M168.57,412.37s-8.59-1.69-11.11-2.5-4.64-.71-6,.49a4.92,4.92,0,0,0-1.18,4.46c.29.66,3.57,1.32,5.78,1.6s9.18-.6,10.57-.8l1.4-.2Z" style="fill:#fff;stroke:#263238;stroke-linecap:round;stroke-linejoin:round"></path><path d="M168.57,412.37s3.65-.39,4.2-.39a18,18,0,0,1,4.48,1.49c.72.5,2.26,2,2.1,2.21s-.45.17-1,.11-2.05-.27-2.05-.27-3.81.22-5.36.22a14.24,14.24,0,0,1-2.9-.32Z" style="fill:#fff;stroke:#263238;stroke-linecap:round;stroke-linejoin:round"></path><path d="M192,386s7.78,22.28,7.78,22.65,1.11,2.47,0,3.83a4,4,0,0,1-4.21,1.36c-1.11-.49-3.66-7.86-3.66-7.86S191.87,387.8,192,386Z" style="fill:#fff;stroke:#263238;stroke-linecap:round;stroke-linejoin:round"></path><path d="M183.23,412.37s8.59-1.69,11.11-2.5,4.65-.71,6,.49a4.93,4.93,0,0,1,1.19,4.46c-.3.66-3.58,1.32-5.79,1.6s-9.18-.6-10.57-.8l-1.4-.2Z" style="fill:#fff;stroke:#263238;stroke-linecap:round;stroke-linejoin:round"></path><path d="M183.23,412.37s-3.65-.39-4.2-.39a18.1,18.1,0,0,0-4.48,1.49c-.71.5-2.26,2-2.09,2.21s.44.17,1,.11,2-.27,2-.27,3.81.22,5.36.22a14.24,14.24,0,0,0,2.9-.32Z" style="fill:#fff;stroke:#263238;stroke-linecap:round;stroke-linejoin:round"></path><line x1="104.56" y1="438.1" x2="98.81" y2="473.73" style="fill:none;stroke:#263238;stroke-linecap:round;stroke-linejoin:round;stroke-width:3px"></line><line x1="123.86" y1="438.1" x2="118.11" y2="473.73" style="fill:none;stroke:#263238;stroke-linecap:round;stroke-linejoin:round;stroke-width:3px"></line><line x1="131.84" y1="438.1" x2="137.59" y2="473.73" style="fill:none;stroke:#263238;stroke-linecap:round;stroke-linejoin:round;stroke-width:3px"></line><line x1="151.88" y1="438.1" x2="157.63" y2="473.73" style="fill:none;stroke:#263238;stroke-linecap:round;stroke-linejoin:round;stroke-width:3px"></line><polygon points="95.05 399.24 103.33 436.85 130.37 436.85 120.75 399.24 95.05 399.24" style="fill:gray;stroke:#263238;stroke-linecap:round;stroke-linejoin:round"></polygon><rect x="103.33" y="436.74" width="51.15" height="2.14" style="fill:gray;stroke:#263238;stroke-linecap:round;stroke-linejoin:round"></rect><rect x="137.17" y="436.74" width="17.31" height="2.14" style="fill:gray;stroke:#263238;stroke-linecap:round;stroke-linejoin:round"></rect><path d="M133.68,383.25s2.39,6,3,7.3c.69,1.54,3.85,11.05,3.85,11.05l5.94-12.86,3.21,1.36s-5.07,16-6.18,18.31-.87,4.2-2.6,4.08-8.22-6.32-8.22-6.32Z" style="fill:#fff;stroke:#263238;stroke-linecap:round;stroke-linejoin:round"></path><line x1="140.5" y1="401.6" x2="138.08" y2="405.96" style="fill:none;stroke:#263238;stroke-linecap:round;stroke-linejoin:round"></line><line x1="139.56" y1="403.22" x2="137.56" y2="404.8" style="fill:none;stroke:#263238;stroke-linecap:round;stroke-linejoin:round"></line><line x1="145.66" y1="390.8" x2="148.82" y2="392.37" style="fill:none;stroke:#263238;stroke-linecap:round;stroke-linejoin:round"></line><path d="M146.44,388.74s-.13-3.47.24-4.21,1.73-2.72,1.86-3.22.74-1.36.86-.49a6.51,6.51,0,0,1-.12,2,9.81,9.81,0,0,0,1.73-2c.13-.5,0-2.23.5-2.23s1,.37,1.48,1.86a9.52,9.52,0,0,1-.25,4.7,30.91,30.91,0,0,1-2.72,4.2l-.37.75Z" style="fill:#fff;stroke:#263238;stroke-linecap:round;stroke-linejoin:round"></path><path d="M153,381.42s-.21-.84-.42-.21-.84,3.06-.84,3.06-3.26,2.21-3.26,2.84v.63" style="fill:none;stroke:#263238;stroke-linecap:round;stroke-linejoin:round"></path><path d="M111.56,379.31l-10.27,5.56,5.45,36.53s-.25.87.37,1.24a7.83,7.83,0,0,0,2.35.49h20.16a4,4,0,0,0,1.86-1.23,3.11,3.11,0,0,0,.62-2.23c0-.87,2.1-35.29,1.73-35.91a7.63,7.63,0,0,0-1-1.24l-10.64-4.2Z" style="fill:#fff;stroke:#263238;stroke-linecap:round;stroke-linejoin:round"></path><polygon points="118.89 386.85 121.31 388.51 120.63 415.06 125.15 419.83 128.78 414.31 122.94 388.13 124.57 384.62 119.92 381.99 118.89 386.85" style="fill:#0EA2BD;stroke:#263238;stroke-linecap:round;stroke-linejoin:round;stroke-width:0.75px"></polygon><path d="M126.53,359.76l1.49,4.45L127.4,366l2,3.34-1.36.86a53.5,53.5,0,0,1-.76,5.59c-.24.37-4.19.1-4.19.1l-.74,7.42L114,378.44v-7.3s-2.73-10.27-2.11-11.13,4.83-2.6,9.9-3.22,5.81-1.11,6.06.37S126.53,359.76,126.53,359.76Z" style="fill:#fff;stroke:#263238;stroke-linecap:round;stroke-linejoin:round"></path><path d="M123,371a3.28,3.28,0,0,0-.59,1.13,11.37,11.37,0,0,1-2.09-.71,26.93,26.93,0,0,1-1.81-3.28l-1.28.12s1.39,6.32,2.07,6.68a7.84,7.84,0,0,0,1.62.87c0,.26,2.14.52,2.14.52s4-.16,4.2-.53a53.5,53.5,0,0,0,.76-5.59l0,0C127.26,370.11,124.1,369.77,123,371Z" style="fill:#263238;stroke:#263238;stroke-miterlimit:10;stroke-width:0.75px"></path><path d="M127.89,357.16c-.25-1.48-1-1-6.06-.37s-9.28,2.35-9.9,3.22S114,371.14,114,371.14v2a3,3,0,0,0,1,0,7.24,7.24,0,0,1,1.84-.19s-.48-.8-1.23-1.91a5,5,0,0,1-.74-3.71c.25-1.24,1.43-.84,1.79-.34s1.06,1.94,1.68,1.7.74-3.1.74-3.1,2.6-1.73,2.72-2.59a4.53,4.53,0,0,0-.74-2.23l5.44-1S128.14,358.65,127.89,357.16Z" style="fill:#263238;stroke:#263238;stroke-linecap:round;stroke-linejoin:round"></path><path d="M126.65,364.71a2.53,2.53,0,0,0-1.47,0" style="fill:none;stroke:#263238;stroke-linecap:round;stroke-linejoin:round;stroke-width:0.75px"></path><ellipse cx="125.86" cy="366.52" rx="0.37" ry="0.8" style="fill:#263238"></ellipse><polygon points="114.04 377.08 110.94 379.55 118.49 388.21 122.33 383.26 114.04 377.08" style="fill:#fff;stroke:#263238;stroke-linecap:round;stroke-linejoin:round"></polygon><polygon points="122.33 383.26 125.17 386.98 124.3 379.18 122.94 377.57 122.33 383.26" style="fill:#fff;stroke:#263238;stroke-linecap:round;stroke-linejoin:round"></polygon><path d="M134.57,414.72s3.34.5,3.59.87,3,3.46,3.34,3.83.62,3.84.62,3.84-.87.62-1.11.24-3.1-3.95-3.1-3.95-3.59-1.24-3.83-2l-.25-.75Z" style="fill:#fff;stroke:#263238;stroke-linecap:round;stroke-linejoin:round"></path><path d="M101.29,384.87s6.19,31.34,6.68,31.46,25.86.49,25.86.49l.74-2.1-21-5.32-1.36-21.93" style="fill:#fff;stroke:#263238;stroke-linecap:round;stroke-linejoin:round"></path><path d="M144.47,425.31s13.36,3.16,14.35,3.76.49,2.8-.12,4.62-19.55,34.24-19.55,34.24l-2.85-.73L145,436.48H134.08Z" style="fill:#263238;stroke:#263238;stroke-linecap:round;stroke-linejoin:round"></path><path d="M139.15,467.93l2.23,5.1s3.09,2.31,3,2.67-1.61.37-1.61.37l-3.59-.85s-3.34-3.16-4.21-3.77-1.85-.73-1.11-1.7a27.42,27.42,0,0,1,2.47-2.55Z" style="fill:#fff;stroke:#263238;stroke-linecap:round;stroke-linejoin:round"></path><path d="M107.11,422.64s-.62,6.68-.62,8.38a6.32,6.32,0,0,0,3.84,5.34c2.47,1,31.29,0,31.29,0l11.39,35,3.34-1.21s-4.21-38.13-4.21-39-.37-3.89-1.61-4.49-20.91-3.53-20.91-3.53Z" style="fill:#263238;stroke:#263238;stroke-linecap:round;stroke-linejoin:round"></path><path d="M156.35,470.12s6.43.85,7.17.73,3.09-.61,2.35.6-5.57,2.55-7.55,3.4-3.95,2.19-4.57,1.22-.74-4.74-.74-4.74Z" style="fill:#fff;stroke:#263238;stroke-linecap:round;stroke-linejoin:round"></path><polygon points="282.7 417.16 278.73 417.16 97.8 417.16 94.33 417.16 91.61 417.16 93.44 474.91 95.97 474.91 97.53 425.84 279.01 425.84 280.56 474.91 283.1 474.91 284.93 417.16 282.7 417.16" style="fill:#fff;stroke:#263238;stroke-linecap:round;stroke-linejoin:round"></polygon><rect x="88.79" y="416.21" width="198" height="2.04" style="fill:#fff;stroke:#263238;stroke-linecap:round;stroke-linejoin:round"></rect><rect x="161.07" y="399.62" width="29.36" height="16.71" style="fill:#0EA2BD;stroke:#263238;stroke-linecap:round;stroke-linejoin:round"></rect><polygon points="231.61 399.62 202.25 399.62 206.49 416.33 235.85 416.33 231.61 399.62" style="fill:#0EA2BD;stroke:#263238;stroke-linecap:round;stroke-linejoin:round"></polygon></g><g id="freepik--character-4--inject-8"><path d="M600.29,250.82a65.85,65.85,0,0,0,5.88-3.28,7.35,7.35,0,0,1,0-1.78c.14-.41,1.37-1.37,1.37-1.37s1.09-10,1.09-14.77a83.55,83.55,0,0,1,1.1-11.9c.13-.55,3.83-38.72,3.83-38.72l1.23-9.72,12.18.6,12.18-.6,1.23,9.72s3.7,38.17,3.83,38.72a83.55,83.55,0,0,1,1.1,11.9c0,4.79,1.09,14.77,1.09,14.77s1.23,1,1.37,1.37a7.35,7.35,0,0,1,0,1.78,65.85,65.85,0,0,0,5.88,3.28c1,.28.55,1.1-.54,1.65a14.12,14.12,0,0,1-4.65.82c-1.1,0-2.74-1.92-3.15-2.19s-.27,1.37-.27,1.37a4.16,4.16,0,0,1-1.51-.28c-.55-.27-1.5.28-1.64-1.37s-.14-3.28-.14-3.28a5.92,5.92,0,0,1-1.23-1.78c-.27-.82-.82-3.14-.82-3.14l-8.62-34.75-4.11-19-4.11,19-8.62,34.75s-.55,2.32-.82,3.14a5.92,5.92,0,0,1-1.23,1.78s0,1.64-.14,3.28-1.09,1.1-1.64,1.37a4.11,4.11,0,0,1-1.5.28s.13-1.65-.28-1.37-2,2.19-3.14,2.19a14.13,14.13,0,0,1-4.66-.82C599.74,251.92,599.33,251.1,600.29,250.82Z" style="fill:#263238;stroke:#263238;stroke-linecap:round;stroke-linejoin:round"></path><line x1="642.26" y1="152.94" x2="644.36" y2="147.85" style="fill:#fff;stroke:#263238;stroke-linecap:round;stroke-linejoin:round"></line><path d="M632.77,133.66l12.3,4.85-5.34,28.3s.44,2.61.11,3.16a3,3,0,0,1-.87.87H614.92s-1.63-1.53-1.63-1.85v-1.42l-3-30.58,12.18-3.18Z" style="fill:#fff;stroke:#263238;stroke-linecap:round;stroke-linejoin:round"></path><polygon points="629.46 134.4 627.71 139.34 630.08 169.41 626.37 175.28 623.18 168.9 626.47 139.34 624.41 134.91 627.3 133.32 629.46 134.4" style="fill:#0EA2BD;stroke:#263238;stroke-linecap:round;stroke-linejoin:round"></polygon><polygon points="623.6 125.86 622.76 129.97 627.85 134.02 631.57 130.16 631.76 128.1 623.6 125.86" style="fill:#fff;stroke:#263238;stroke-linecap:round;stroke-linejoin:round"></polygon><polygon points="632.75 129.88 634 132.5 630.18 138.21 628.12 133.26 632.75 129.88" style="fill:#fff;stroke:#263238;stroke-linecap:round;stroke-linejoin:round"></polygon><polygon points="626.27 133.37 624.62 138.62 621.22 133.16 622.76 129.97 626.27 133.37" style="fill:#fff;stroke:#263238;stroke-linecap:round;stroke-linejoin:round"></polygon><polygon points="634 132.5 631.27 166.76 632.05 205.1 646.07 205.1 642.56 164.03 645.07 138.51 634 132.5" style="fill:#fff;stroke:#263238;stroke-linecap:round;stroke-linejoin:round"></polygon><polygon points="621.34 132.5 624.07 166.76 623.29 205.1 609.27 205.1 612.78 164.03 610.24 136.99 621.34 132.5" style="fill:#fff;stroke:#263238;stroke-linecap:round;stroke-linejoin:round"></polygon><path d="M619.84,119.61A30.64,30.64,0,0,1,618.5,113c0-2.49,2.35-3.75,4.23-4.45S633,107,634.49,109s-.37,4.28-.37,4.28,1.53.62,1.18,1.94-.77,3.12-.77,3.12l-1.6-3.26-6.25,1.44-2.27,1.08-1.9,3.66s-1.28.57-1.85.07A3.81,3.81,0,0,1,619.84,119.61Z" style="fill:#263238;stroke:#263238;stroke-linecap:round;stroke-linejoin:round"></path><path d="M633.61,113.83s1.57,8.41,1.6,10.11-2.89,6.07-3.64,6.22-1.73.67-2.78.1-5.26-2.53-5.78-3.51a22.25,22.25,0,0,1-1.09-3s-2.63-.71-2.7-2.57.8-2.18,1.34-1.83a17.27,17.27,0,0,1,1.5,1.25,5.22,5.22,0,0,1,.47-2.27c.48-.72,2.21-1.39,1.79-1.92l-2.32-3s3.33,1.81,6.11,1.71A17.37,17.37,0,0,0,633.61,113.83Z" style="fill:#fff;stroke:#263238;stroke-linecap:round;stroke-linejoin:round"></path><path d="M630.64,118.59l1.46,4.81a4,4,0,0,1-2.13.34" style="fill:none;stroke:#263238;stroke-linecap:round;stroke-linejoin:round;stroke-width:0.75px"></path><path d="M631.87,125.64s-1.23,1.23-3.69-.12" style="fill:none;stroke:#263238;stroke-linecap:round;stroke-linejoin:round;stroke-width:0.75px"></path><path d="M631.67,118.51c.08.42.36.71.62.66s.41-.43.33-.85-.37-.71-.63-.65S631.58,118.1,631.67,118.51Z" style="fill:#263238"></path><path d="M626.84,119.5c.08.42.36.71.63.66s.4-.44.32-.85-.37-.71-.63-.66S626.75,119.09,626.84,119.5Z" style="fill:#263238"></path><path d="M632.82,116.51a1.74,1.74,0,0,0-2.09.26" style="fill:none;stroke:#263238;stroke-linecap:round;stroke-linejoin:round;stroke-width:0.75px"></path><path d="M628.45,117.32a2.44,2.44,0,0,0-2.75,1.05" style="fill:none;stroke:#263238;stroke-linecap:round;stroke-linejoin:round;stroke-width:0.75px"></path><path d="M623.62,114.05s-3.33,1.86-3.56,3.71,5.38,4,5.38,4Z" style="fill:#fff;stroke:#263238;stroke-linecap:round;stroke-linejoin:round"></path><rect x="621.74" y="112.93" width="16.58" height="8.57" rx="3.47" transform="translate(-5.26 33.04) rotate(-2.99)" style="fill:#fff;stroke:#263238;stroke-linecap:round;stroke-linejoin:round"></rect><rect x="623.06" y="114.31" width="13.94" height="5.81" rx="2.87" transform="translate(-5.26 33.03) rotate(-2.99)" style="fill:#fff;stroke:#263238;stroke-linecap:round;stroke-linejoin:round;stroke-width:0.5px"></rect><path d="M665.71,129.11c.25-.62-.63-1-1.25-.75a8.29,8.29,0,0,0-2.25,1.75c-.25.38-2,3.75-2,3.75a12.68,12.68,0,0,1,.5-2.25,1.46,1.46,0,0,0-.63-2c-1-.62-1.18,1-1.39,1.6s-1.26,3.57-1.26,3.57a11.27,11.27,0,0,0,0,3.71l-1.82,3.76,3.32,3.32,2.87-4.71a1,1,0,0,0,.63-.12c.5-.38,2.87-2.63,3.12-4.13s-2.12-3-2.12-3l.37-1.75A24.28,24.28,0,0,0,665.71,129.11Z" style="fill:#fff;stroke:#263238;stroke-linecap:round;stroke-linejoin:round"></path><path d="M663.83,131.86s1.13.63,1.38,1.25-1,3.6-1.73,3.85S662.08,135.24,663.83,131.86Z" style="fill:#fff;stroke:#263238;stroke-linecap:round;stroke-linejoin:round"></path><path d="M665.21,133.11s1.37.75,1.37,1.63-.77,2.66-1.35,2.66c-1.38,0-1.09-.8-1.09-.8A32.53,32.53,0,0,0,665.21,133.11Z" style="fill:#fff;stroke:#263238;stroke-linecap:round;stroke-linejoin:round"></path><path d="M660.21,133.86s.87,2.5.62,3.13a3,3,0,0,1-1,1.12" style="fill:#fff;stroke:#263238;stroke-linecap:round;stroke-linejoin:round"></path><path d="M666.83,135.22a2.88,2.88,0,0,1,.43,1.31,2.55,2.55,0,0,1-1,1.53c-.44.14-1-.66-1-.66S666.68,136,666.83,135.22Z" style="fill:#fff;stroke:#263238;stroke-linecap:round;stroke-linejoin:round"></path><path d="M645.07,138.51l5.63,10.65,6.14-10.11,4.7,4.88-9.21,18.59s-2,2.17-3.07,2.17-6.14-6.14-6.14-6.14Z" style="fill:#fff;stroke:#263238;stroke-linecap:round;stroke-linejoin:round"></path><line x1="650.7" y1="149.16" x2="647.82" y2="154.4" style="fill:#fff;stroke:#263238;stroke-linecap:round;stroke-linejoin:round"></line><path d="M605.49,178.92s.47,4.45.58,5.16a15.49,15.49,0,0,1,0,4.09c-.23,1.06-1.28,1.29-1.4.82s-.7-2.34-.82-2.69-.24,4.1-.7,5-1.41-.47-1.41-.47-2.22-2.93-2.22-4.1S601,178.1,601,178.1Z" style="fill:#fff;stroke:#263238;stroke-linecap:round;stroke-linejoin:round"></path><polygon points="610.24 136.99 601.66 159.69 600.16 179.75 605.6 180.12 609.35 160.44 611.97 156.69 610.24 136.99" style="fill:#fff;stroke:#263238;stroke-linecap:round;stroke-linejoin:round"></polygon></g><g id="freepik--character-3--inject-8"><path d="M555.13,130.64l-1.31-7.92-4,.69a23.78,23.78,0,0,0,.31-5.14A12.23,12.23,0,0,0,547,113c-.66-.38-3.71,1.16-3.71,1.16s-1.29,2.75-1.77,3.93-1.12,2.32-1.85,2.38-1.45.56-1.07,1.52a8.28,8.28,0,0,0,1.52,2.15s.27,4.64.71,5.26,2.66.73,4.05.52c.61-.09,1.48-.19,2.25-.28,0,.18,0,.35.07.51a11.15,11.15,0,0,1-.87,4.65c1.68-1.21,3.15-.93,4.94-1.45,2-.61,4.58,2.31,5.63,2.62C556.19,135,555.13,130.64,555.13,130.64Z" style="fill:#fff;stroke:#263238;stroke-linecap:round;stroke-linejoin:round"></path><path d="M543.46,124.42a4.11,4.11,0,0,1-2.35.58" style="fill:none;stroke:#263238;stroke-linecap:round;stroke-linejoin:round"></path><path d="M546.88,110.5a3.44,3.44,0,0,0-3.5-.62,3.13,3.13,0,0,0-1.82,4.09c.5,1,3,2.31,3,2.31l1.15-1.51a19.34,19.34,0,0,0,1.33,3.42l1.83,2.9,2.81,2.17a16.28,16.28,0,0,0,1.9,3.47c1.45,2,1.56,2,3.15-.78,1.24-2.17,3.08-4.1,3.47-7.62s-3-7.81-6.71-9.24S546.88,110.5,546.88,110.5Z" style="fill:#263238;stroke:#263238;stroke-linecap:round;stroke-linejoin:round"></path><path d="M547.79,122s1.89-3.51,3.62-2.23.36,4-.76,5.21-2-.62-2-.62" style="fill:#fff;stroke:#263238;stroke-linecap:round;stroke-linejoin:round"></path><path d="M563.85,119.23c-1.91,1.21-4.59.4-6-1.81s-1-5,.91-6.19,4.59-.4,6,1.81S565.75,118,563.85,119.23Z" style="fill:#263238;stroke:#263238;stroke-linecap:round;stroke-linejoin:round"></path><path d="M561,201.37s-.5,4.27.13,6,4.64,13.82,5.27,24.5,1.26,20.48.88,21-2.64.25-2.64.25h-7.53a.91.91,0,0,1-.26-1.13c.38-.63,4-3.4,4.53-4.28a9.65,9.65,0,0,0,1.13-2.51c0-.37-.88-9.56-3.9-15.59s-6.91-20.85-7.28-26.25Z" style="fill:#fff;stroke:#263238;stroke-linecap:round;stroke-linejoin:round"></path><path d="M556.81,252a26.11,26.11,0,0,1,2.64-2.41v1.28h7.9a6.64,6.64,0,0,1-.11,2c-.38.5-2.64.25-2.64.25h-7.53A.91.91,0,0,1,556.81,252Z" style="fill:#0EA2BD;stroke:#263238;stroke-linecap:round;stroke-linejoin:round"></path><path d="M552.92,202s-1.76,12.57-.5,16.34.75,10.55-1,17.71-3.14,11.69-3.14,12.06,0,3.77-.38,4.4-11.43.5-12.18.5-1.51-.75-.88-1.51,4-1.57,6.28-2.63,2.26-1.26,2.26-1.26,1.26-14.7.76-21.23-3.28-20.1-2.78-24.63Z" style="fill:#fff;stroke:#263238;stroke-linecap:round;stroke-linejoin:round"></path><path d="M535.71,253c-.76,0-1.51-.75-.88-1.51.5-.6,2.81-1.25,4.86-2l.42.91,8.13-.61a9.12,9.12,0,0,1-.35,2.75C547.52,253.13,536.46,253,535.71,253Z" style="fill:#0EA2BD;stroke:#263238;stroke-linecap:round;stroke-linejoin:round"></path><path d="M559.94,159.38s4.29,9.32,4.66,15-2,11.8-2,11.8L564.1,207s-5,3.14-13.44,3-12.56-1.51-12.56-1.51-1-24.36,1.63-33.9,1.7-14.76,1.7-14.76S553.13,160.36,559.94,159.38Z" style="fill:#263238;stroke:#263238;stroke-linecap:round;stroke-linejoin:round"></path><path d="M514.53,131.21s-2.24-4.11-2.86-5.1-4.62-4.83-5.62-4.58-.49,1.37.13,1.87a26.21,26.21,0,0,1,2.5,3,8.16,8.16,0,0,1,.75,2.11c.13.37-2.95-.85-3.7-1.23s-1.61.88-.87,1.62,3.2,2.1,3.82,2.72a13,13,0,0,0,2.87,1.49l1.36,1.24Z" style="fill:#263238;stroke:#263238;stroke-linecap:round;stroke-linejoin:round"></path><path d="M506.92,127.76c-.51-.21-1-.4-1.19-.52-.74-.37-1.61.88-.87,1.62a9,9,0,0,0,1.19.9Z" style="fill:#fff;stroke:#263238;stroke-linecap:round;stroke-linejoin:round"></path><path d="M506.05,121.53c-1,.25-.49,1.37.13,1.87a9,9,0,0,1,1,1.1c.37-.47.83-1.06,1.27-1.58C507.46,122.07,506.48,121.43,506.05,121.53Z" style="fill:#fff;stroke:#263238;stroke-linecap:round;stroke-linejoin:round"></path><path d="M546,135.56l-10.65,6.22-20.77-10.57-2.36,4.85s20.39,16.91,21.26,17.78,4.11.87,7.46,1.37S546,135.56,546,135.56Z" style="fill:#fff;stroke:#263238;stroke-linecap:round;stroke-linejoin:round"></path><path d="M537.8,152l-5,42.14,6.42,1.13.38-47.61S538.73,148.4,537.8,152Z" style="fill:#fff;stroke:#263238;stroke-linecap:round;stroke-linejoin:round"></path><path d="M561.77,156.88c.26.09.41.13.41.07,0-.58-.85-12.59-1.83-16.59a27.87,27.87,0,0,0-3.64-7.88s-2-1.06-2.92-.47c-.31.18-5.84-.25-8.64,2.48,0,0-5.56,9.39-5.56,12.59s-3.37,48.18-3.37,48.18A33.45,33.45,0,0,0,546.81,197c5.07-.22,10.8-.43,13.22-.64a24.64,24.64,0,0,0,5.29-1.28s.66-13.24.66-18.79C566,172,563.09,161.45,561.77,156.88Z" style="fill:#fff;stroke:#263238;stroke-linecap:round;stroke-linejoin:round"></path><path d="M555.49,129.89s-7.9,1.88-9.48,3.41-6.19,11.89-6.19,11.89,7.9-9.18,8.87-9.89,8-2.82,8-2.82Z" style="fill:#fff;stroke:#263238;stroke-linecap:round;stroke-linejoin:round"></path><polyline points="542.28 178.39 553.51 178.39 553.51 180.6 542.47 180.42" style="fill:#fff;stroke:#263238;stroke-linecap:round;stroke-linejoin:round"></polyline><path d="M537.58,120.41s7.6,1.43,8,.4,1.17-5.83.26-6.21-9.16-2.87-9.31-1.43C535.89,119,535.3,120.6,537.58,120.41Z" style="fill:#fff;stroke:#263238;stroke-linecap:round;stroke-linejoin:round"></path><line x1="538.45" y1="113.04" x2="537.58" y2="120.41" style="fill:none;stroke:#263238;stroke-linecap:round;stroke-linejoin:round"></line><polygon points="545.67 117.17 559.43 122.06 558.6 123.55 545.33 118.68 545.67 117.17" style="fill:#fff;stroke:#263238;stroke-linecap:round;stroke-linejoin:round"></polygon><path d="M508.66,134.73l-3.88-3.32s-3.22-2.78-4.48-3.22-1.7-.09-1.7.26a1.7,1.7,0,0,0,.9,1.26,24.43,24.43,0,0,1,2.24,1.7s1.52,3.4,1.61,3.67,1.25,2.42,2.15,2.69a20.82,20.82,0,0,1,2.06.8Z" style="fill:#fff;stroke:#263238;stroke-linecap:round;stroke-linejoin:round"></path><path d="M501,130.82l.72.59s1.52,3.4,1.61,3.67,1.25,2.42,2.15,2.69a20.82,20.82,0,0,1,2.06.8l1.1-3.84-3.88-3.32s-1.51-1.3-2.86-2.26Z" style="fill:#263238;stroke:#263238;stroke-linecap:round;stroke-linejoin:round"></path><path d="M505.86,132a34.82,34.82,0,0,0-2.51-4c-.81-.9-2.33-2.06-2.69-.9s1.34,2,1.34,2Z" style="fill:none;stroke:#263238;stroke-linecap:round;stroke-linejoin:round"></path><path d="M503.35,127.92s.71-1.17,1.34-.54,2.33,5.73,2.33,5.73Z" style="fill:none;stroke:#263238;stroke-linecap:round;stroke-linejoin:round"></path><path d="M552.38,139.14a69.57,69.57,0,0,0-8.41,2.31c-2.52,1.05-11.56,1.68-11.56,1.68l-23.75-8.4-1.89,8s24.17,9.88,26.06,10.3,21.23.21,21.23.21" style="fill:#fff;stroke:#263238;stroke-linecap:round;stroke-linejoin:round"></path></g><g id="freepik--character-2--inject-8"><path d="M213.06,141.1s-.49-3.43-1-4.1-2.19-2.37-2.4-2.84-1-1.21-.94-.33a6.6,6.6,0,0,0,.47,1.92,10,10,0,0,1-2.05-1.64c-.21-.47-.39-2.19-.88-2.11s-.91.54-1.13,2.09a9.54,9.54,0,0,0,1.07,4.59,31.55,31.55,0,0,0,3.42,3.66l.49.66Z" style="fill:#fff;stroke:#263238;stroke-linecap:round;stroke-linejoin:round"></path><path d="M205.28,135.06s.06-.87.37-.28,1.37,2.86,1.37,2.86,3.6,1.6,3.71,2.22l.12.62" style="fill:none;stroke:#263238;stroke-linecap:round;stroke-linejoin:round"></path><path d="M226.57,133.63,221.75,150l-8.69-8.94-2.93,1.9,10.8,15.21s2.13,1.47,2.94,1.14,5.26-6.34,5.26-6.34Z" style="fill:#fff;stroke:#263238;stroke-linecap:round;stroke-linejoin:round"></path><path d="M249.9,153.07l3.73-18.64-9.21-3.64-4.9-1.68-4.89,1.68-8.06,2.84L229.13,153l-.17,2.86-3.24,9.23a15.15,15.15,0,0,0-.87,5.08v8.92L239.43,183,254,179.1v-8.92a15.41,15.41,0,0,0-.87-5.08l-3.25-9.23Z" style="fill:#0EA2BD;stroke:#263238;stroke-linecap:round;stroke-linejoin:round"></path><path d="M254,170.18a15.41,15.41,0,0,0-.87-5.08l-2.92-8.28H228.63l-2.91,8.28a15.15,15.15,0,0,0-.87,5.08l.07,36.69h29Z" style="fill:#263238;stroke:#263238;stroke-linecap:round;stroke-linejoin:round"></path><polygon points="244.42 130.79 241.82 194.08 256.16 194.08 252.16 156.1 253.63 134.43 244.42 130.79" style="fill:#fff;stroke:#263238;stroke-linecap:round;stroke-linejoin:round"></polygon><polygon points="234.88 130.92 233.31 194.39 222.67 194.39 226.57 133.63 234.88 130.92" style="fill:#fff;stroke:#263238;stroke-linecap:round;stroke-linejoin:round"></polygon><polygon points="246.1 131.56 244.42 130.79 244.26 130.82 243.5 130.63 242.4 122.33 236.12 122.49 235.25 130.79 234.88 130.92 234.25 130.96 233.21 131.44 237.85 138.21 246.1 131.56" style="fill:#fff;stroke:#263238;stroke-linecap:round;stroke-linejoin:round"></polygon><path d="M235.41,129a3.48,3.48,0,0,0-2,1.11c-.67.88-1.89,2.66-1.89,2.66l-1.11,2.66,4.55-.67,2.88,4.44Z" style="fill:#0EA2BD;stroke:#263238;stroke-linecap:round;stroke-linejoin:round"></path><path d="M237.85,139.21l5.32-11a2.66,2.66,0,0,1,1.89,1.22c.66,1.11,2.66,4.66,2.66,4.66l-3.88.22Z" style="fill:#0EA2BD;stroke:#263238;stroke-linecap:round;stroke-linejoin:round"></path><path d="M228.72,198.81s-.65,9.94-.44,15.13,1.95,30,1.95,31.12a3.67,3.67,0,0,1-1.06,2.13s-3.88,2.17-6.2,3.56c-.85.51-2,.79-.09,1.66s11.89,0,11.89,0h1.94a33.27,33.27,0,0,0-.21-3.68,30.74,30.74,0,0,0-.65-3.24c-.22-.86,1.08-28.31,1.51-32.42s-.43-14.48-.43-14.48Z" style="fill:#fff;stroke:#263238;stroke-linecap:round;stroke-linejoin:round"></path><path d="M226.77,248.54c-1.22.7-2.69,1.55-3.8,2.21-.85.51-2,.79-.09,1.66s11.89,0,11.89,0h1.94s0-1.47-.12-2.83l-8.69.75Z" style="fill:#263238;stroke:#263238;stroke-linecap:round;stroke-linejoin:round"></path><path d="M240.32,198.81s-.65,9.94-.43,15.13,1.94,30,1.94,31.12a3.67,3.67,0,0,1-1.06,2.13s-3.87,2.17-6.2,3.56c-.85.51-2,.79-.09,1.66s11.89,0,11.89,0h1.94a33.27,33.27,0,0,0-.21-3.68,28.35,28.35,0,0,0-.65-3.24c-.22-.86,1.08-28.31,1.51-32.42s-.43-14.48-.43-14.48Z" style="fill:#fff;stroke:#263238;stroke-linecap:round;stroke-linejoin:round"></path><path d="M238.38,248.54c-1.23.7-2.7,1.55-3.81,2.21-.85.51-2,.79-.09,1.66s11.89,0,11.89,0h1.94s0-1.47-.12-2.83l-8.69.75Z" style="fill:#263238;stroke:#263238;stroke-linecap:round;stroke-linejoin:round"></path><polygon points="253.63 134.43 258.69 153.65 255.75 177.78 252.48 176.55 252.81 154.74 251.94 151.88 253.63 134.43" style="fill:#fff;stroke:#263238;stroke-linecap:round;stroke-linejoin:round"></polygon><path d="M250.21,121.1a4.29,4.29,0,1,1-4.29-4.29A4.29,4.29,0,0,1,250.21,121.1Z" style="fill:#263238;stroke:#263238;stroke-linecap:round;stroke-linejoin:round"></path><path d="M237.65,106.63s-3.61.91-5.16,3.54-.33,4.87-.88,8.1a11.08,11.08,0,0,0,2.63,8.62,4,4,0,0,0,3.7,1c1.7-.31,4.3-2.87,4.77-3.18a8.23,8.23,0,0,0,1.13-2.42s3.24-3.55,3.4-6.49-1.55-7-4-8.2A11.63,11.63,0,0,0,237.65,106.63Z" style="fill:#fff;stroke:#263238;stroke-linecap:round;stroke-linejoin:round"></path><path d="M234.48,117.42s.43.36.21,1.35-1.28,1.5-.71,2a2.16,2.16,0,0,0,1.28.49" style="fill:none;stroke:#263238;stroke-linecap:round;stroke-linejoin:round;stroke-width:0.5px"></path><path d="M231.92,113.59a56,56,0,0,0,6.35-1.39l3.24-.93s-.92,2.63-.61,4a20.37,20.37,0,0,0,1.7,3.87s.89-1.66,1.66-1.49c2.64.57.35,3.35.35,3.35s2.47-.93,2.63-5.26-1.08-9.13-5-9.75-6.34-1.39-9.44,2.17S229.45,113.28,231.92,113.59Z" style="fill:#263238;stroke:#263238;stroke-linecap:round;stroke-linejoin:round"></path><path d="M237.89,118.24c0,.46-.21.82-.46.82s-.47-.36-.47-.82.21-.82.47-.82S237.89,117.79,237.89,118.24Z" style="fill:#263238"></path><path d="M233.73,117.73c0,.45-.21.82-.46.82s-.46-.37-.46-.82.2-.82.46-.82S233.73,117.28,233.73,117.73Z" style="fill:#263238"></path><path d="M234.4,123.38s.82.61,2.56-.31" style="fill:none;stroke:#263238;stroke-linecap:round;stroke-linejoin:round;stroke-width:0.5px"></path><path d="M236.24,116.39s1.24-1.33,2.67.31" style="fill:none;stroke:#263238;stroke-linecap:round;stroke-linejoin:round;stroke-width:0.5px"></path><path d="M234.09,116.39s-1-1.12-1.75-.1" style="fill:none;stroke:#263238;stroke-linecap:round;stroke-linejoin:round;stroke-width:0.5px"></path><path d="M252.48,176.55l-1.41,3.14-.16,4.23.79-.07.51-.77.13,3.84,1.92-.06s1.35-3.27,1.54-3.65a50.67,50.67,0,0,0-.05-5.43Z" style="fill:#fff;stroke:#263238;stroke-linecap:round;stroke-linejoin:round"></path></g><g id="freepik--character-1--inject-8"><polygon points="63.45 177.57 60.34 251.94 54.79 251.94 51.61 192 50.05 192 44.14 251.94 39.03 251.94 37.7 177.13 63.45 177.57" style="fill:#263238;stroke:#263238;stroke-linecap:round;stroke-linejoin:round"></polygon><rect x="40.36" y="129.63" width="20.87" height="49.38" transform="translate(101.59 308.63) rotate(180)" style="fill:#0EA2BD;stroke:#263238;stroke-linecap:round;stroke-linejoin:round"></rect><path d="M67.25,130.65s11.54,20.53,12,22,3.69,7.39-2.61,8L67.07,151Z" style="fill:#fff;stroke:#263238;stroke-linecap:round;stroke-linejoin:round"></path><polygon points="55.8 127.4 56.34 207.19 67.25 207.19 67.25 130.65 55.8 127.4" style="fill:#fff;stroke:#263238;stroke-linecap:round;stroke-linejoin:round"></polygon><polygon points="55.98 155.16 55.8 126.91 57.94 127.67 60.28 137.27 57.24 139.96 60.1 143.17 55.98 155.16" style="fill:#fff;stroke:#263238;stroke-linecap:round;stroke-linejoin:round"></polygon><polygon points="55.98 124.72 55.87 130.28 53.12 135.84 48.47 128.83 48.47 123.11 55.98 124.72" style="fill:#fff;stroke:#263238;stroke-linecap:round;stroke-linejoin:round"></polygon><path d="M52.22,127.61h1.65c2.47,0,5.69-3.2,5.69-5.68V109.62a3,3,0,0,0-3.05-3.05H49.2a3,3,0,0,0-3.05,3.05v12.31C46.15,124.41,52.22,127.61,52.22,127.61Z" style="fill:#fff;stroke:#263238;stroke-linecap:round;stroke-linejoin:round"></path><polyline points="55.95 115.9 55.95 119.66 54.1 119.66" style="fill:#fff;stroke:#263238;stroke-linecap:round;stroke-linejoin:round"></polyline><path d="M56.54,122.24H54a3.23,3.23,0,0,1-1.92-.64l-.2-.15" style="fill:#fff;stroke:#263238;stroke-linecap:round;stroke-linejoin:round"></path><path d="M58.59,114.18a1.56,1.56,0,0,0-2.18,0" style="fill:#fff;stroke:#263238;stroke-linecap:round;stroke-linejoin:round"></path><path d="M54,114.31a2.37,2.37,0,0,0-3,0" style="fill:#fff;stroke:#263238;stroke-linecap:round;stroke-linejoin:round"></path><path d="M57.2,116.13c0,.56.21,1,.46,1s.47-.46.47-1-.21-1-.47-1S57.2,115.56,57.2,116.13Z" style="fill:#263238"></path><path d="M52.05,116.13c0,.56.21,1,.46,1s.46-.46.46-1-.2-1-.46-1S52.05,115.56,52.05,116.13Z" style="fill:#263238"></path><path d="M46.15,115.33s-.89-2.5-1.79-.72a5.29,5.29,0,0,0,.36,5,.88.88,0,0,0,1.43.09Z" style="fill:#fff;stroke:#263238;stroke-linecap:round;stroke-linejoin:round"></path><path d="M46.15,117v-5.2a5.27,5.27,0,0,1,5.27-5.27h2.87c1.53,0,6.13.45,7.09,1.5a60.23,60.23,0,0,1-6.83,1c-1.25,0-4.82-.36-4.82-.36s1.07,3-.18,3.76a8,8,0,0,1-2.51.89v3.94Z" style="fill:#263238;stroke:#263238;stroke-linecap:round;stroke-linejoin:round"></path><path d="M48.47,127.76l-.53,79.07H31.66s1.61-38.26,1.61-38.8,1.79-5.54,1.79-5.54l-.71-32Z" style="fill:#fff;stroke:#263238;stroke-linecap:round;stroke-linejoin:round"></path><polygon points="46.86 139.96 43.11 137.81 45.43 127.95 48.47 126.58 48.29 155.34 43.29 143 46.86 139.96" style="fill:#fff;stroke:#263238;stroke-linecap:round;stroke-linejoin:round"></polygon><path d="M51.33,155l-.53,5.18-22.16,1.23s-6.08-1.09-3.26-8.69c1.5-4,9-22.23,9-22.23v22l-.9,1.79Z" style="fill:#fff;stroke:#263238;stroke-linecap:round;stroke-linejoin:round"></path><path d="M72.06,149.66s7.81,3.54,8.25,5.22a4.38,4.38,0,0,1-3.69,5.86c-2.82.22-7.81-7.38-7.81-7.38Z" style="fill:#fff;stroke:#263238;stroke-linecap:round;stroke-linejoin:round"></path><polygon points="75.12 144.43 67.79 163.02 52.59 163.02 59.56 144.07 75.12 144.43" style="fill:#263238;stroke:#263238;stroke-linecap:round;stroke-linejoin:round"></polygon><polygon points="70 144.28 68.99 145.92 63.89 145.92 64.59 144.21 70 144.28" style="fill:#fff;stroke:#263238;stroke-linecap:round;stroke-linejoin:round"></polygon><polygon points="51.34 154.98 54.02 152.65 59.74 152.47 59.74 155.15 56.16 156.76 54.73 158.19 50.98 159.09 51.34 154.98" style="fill:#fff;stroke:#263238;stroke-linecap:round;stroke-linejoin:round"></polygon><polygon points="60.42 249.76 69.11 253.72 54.35 253.72 54.84 249.61 60.42 249.76" style="fill:#fff;stroke:#263238;stroke-linecap:round;stroke-linejoin:round"></polygon><polygon points="44.66 249.76 53.35 253.72 38.59 253.72 39.08 249.61 44.66 249.76" style="fill:#fff;stroke:#263238;stroke-linecap:round;stroke-linejoin:round"></polygon></g></svg>
