<svg xmlns="http://www.w3.org/2000/svg" viewBox="0 0 709.81 373.52"><g id="freepik--Floor--inject-3"><line x1="0.5" y1="371.25" x2="708.55" y2="371.25" style="fill: none;stroke: #263238;stroke-linecap: round;stroke-linejoin: round"></line></g><g id="freepik--Plants--inject-3"><g><path d="M616.54,332.84s-.53-1.93-.55-2.06c-.2-1.46.27-4.41,1.76-5.13a2,2,0,0,1,2.67,1.18,4.11,4.11,0,0,1-.71,3.38A14.29,14.29,0,0,1,616.54,332.84Z" style="fill:#263238"></path><path d="M646,332.22a14.35,14.35,0,0,1-4.1.45s.63-1.91.68-2c.64-1.34,2.66-3.54,4.3-3.32a2,2,0,0,1,1.57,2.46A4.12,4.12,0,0,1,646,332.22Z" style="fill:#263238"></path><path d="M647.08,336.16c-1.52-.65-4.05.95-5,2.06-.07.08-.83,1.2-1.1,1.61a.08.08,0,0,0,0-.05,25.45,25.45,0,0,0,.76-4.48,33.16,33.16,0,0,0,.09-4.06c0-1.26-.13-2.41-.23-3.42-.06-.55-.12-1.06-.19-1.52l0,0s.58-1.92.6-2.05c.25-1.46-.14-4.42-1.61-5.18a2,2,0,0,0-2.7,1.11,4.07,4.07,0,0,0,.62,3.39,13,13,0,0,0,3,2.65c.06.49.11,1,.16,1.59.08,1,.16,2.16.16,3.41,0,.33,0,.69,0,1-.12-.59-.28-1.39-.31-1.47-.45-1.41-2.16-3.86-3.82-3.86a2,2,0,0,0-1.88,2.23,4.09,4.09,0,0,0,2.11,2.73,13.21,13.21,0,0,0,3.89,1c0,.77-.07,1.56-.16,2.38a25.18,25.18,0,0,1-.85,4.43h-.09c0-.56-.15-1.72-.17-1.82-.29-1.45-1.72-4.07-3.37-4.25a2,2,0,0,0-2.12,2,4.11,4.11,0,0,0,1.8,2.95,13.92,13.92,0,0,0,3.85,1.42,33.49,33.49,0,0,1-1.62,4.17c-.46,1-1,2-1.49,3,0-.39-.15-1.92-.17-2-.3-1.45-1.73-4.08-3.38-4.26a2,2,0,0,0-2.11,2,4.09,4.09,0,0,0,1.79,2.94,13.61,13.61,0,0,0,3.83,1.42l-.71,1.36c-.78,1.48-1.57,3-2.31,4.44-.26.51-.49,1-.72,1.54,0-.58-.14-1.65-.16-1.74-.3-1.45-1.73-4.07-3.38-4.25a2,2,0,0,0-2.11,2,4.09,4.09,0,0,0,1.79,2.94,12.8,12.8,0,0,0,3.7,1.38c-.39.86-.75,1.73-1.07,2.59-.13.38-.28.75-.39,1.12l-.33,1.1c-.2.75-.39,1.45-.56,2.16l-.24,1.05c0-.6.11-1.55.1-1.64-.07-1.48-1.09-4.29-2.69-4.72a2,2,0,0,0-2.4,1.67,3,3,0,0,0,0,.43,7.68,7.68,0,0,0-1,3.7c0,.1.16,1.21.25,1.78-.18-.44-.36-.87-.54-1.34-.25-.66-.51-1.36-.76-2.05-.11-.36-.23-.72-.35-1.09s-.2-.73-.31-1.1c-.14-.55-.26-1.12-.38-1.69a12.81,12.81,0,0,0,3.5-1.63,4.14,4.14,0,0,0,1.58-3.07,2,2,0,0,0-2.27-1.84c-1.62.3-2.86,3-3,4.49,0,0,0,.36,0,.73-.1-.56-.2-1.12-.28-1.69-.24-1.62-.43-3.28-.63-4.95,0-.34-.09-.69-.13-1a12.83,12.83,0,0,0,3.61-1.66,4.08,4.08,0,0,0,1.57-3.06,2,2,0,0,0-2.26-1.85c-1.63.3-2.86,3-3,4.49,0,.05,0,.43,0,.85-.12-.9-.25-1.8-.41-2.69a35.62,35.62,0,0,0-1.09-4.5,13.54,13.54,0,0,0,3.71-1.69,4.12,4.12,0,0,0,1.58-3.07,2,2,0,0,0-2.26-1.85c-1.63.3-2.86,3-3.05,4.49,0,.11,0,1.47,0,1.95,0,0,0,0,0-.05a25.91,25.91,0,0,0-1.85-4.16,34,34,0,0,0-2.16-3.44c-.71-1-1.44-1.93-2.08-2.72-.35-.43-.68-.81-1-1.17h0s-.57-1.92-.62-2c-.6-1.36-2.56-3.61-4.21-3.44a2,2,0,0,0-1.64,2.42,4.11,4.11,0,0,0,2.39,2.49,13.11,13.11,0,0,0,3.95.56c.31.38.65.78,1,1.23.62.81,1.32,1.72,2,2.76.19.28.38.59.56.88-.41-.43-1-1-1.06-1.06-1.16-.92-3.93-2-5.31-1.11a2,2,0,0,0-.35,2.9,4.09,4.09,0,0,0,3.27,1.11,12.85,12.85,0,0,0,3.78-1.33c.41.66.81,1.34,1.18,2.08a24,24,0,0,1,1.74,4.16l-.08,0c-.34-.44-1.07-1.36-1.14-1.43-1-1-3.69-2.44-5.16-1.68a2,2,0,0,0-.66,2.84,4.07,4.07,0,0,0,3.12,1.46,13.77,13.77,0,0,0,4-.94,35.37,35.37,0,0,1,.95,4.38c.17,1.09.3,2.21.42,3.33-.23-.32-1.19-1.52-1.27-1.6-1.05-1-3.69-2.44-5.16-1.69a2,2,0,0,0-.66,2.85,4.1,4.1,0,0,0,3.12,1.46,13.65,13.65,0,0,0,4-.93L621,349c.17,1.66.32,3.33.52,5,.07.57.16,1.13.25,1.69-.36-.47-1-1.3-1.09-1.37-1-1-3.69-2.44-5.16-1.68a2,2,0,0,0-.66,2.84,4.07,4.07,0,0,0,3.12,1.46,12.79,12.79,0,0,0,3.85-.88c.15.93.32,1.85.54,2.75.1.38.17.78.29,1.15L623,361c.25.74.48,1.43.73,2.12.12.34.25.67.37,1-.29-.53-.77-1.35-.82-1.42-.88-1.19-3.27-3-4.84-2.45a2,2,0,0,0-1.09,2.71,4.07,4.07,0,0,0,2.87,1.92,13.62,13.62,0,0,0,4-.31c.31.82.62,1.61.92,2.35.68,1.67,1.33,3.12,1.87,4.3h1.21c-.61-1.23-1.36-2.81-2.18-4.69-.28-.66-.58-1.36-.87-2.09a14.14,14.14,0,0,0,3.3-2.13,21.23,21.23,0,0,0,2.26,1.07c-.19.85-.37,1.69-.52,2.47-.43,2.13-.72,4-.92,5.37h1.11c.16-1.38.41-3.14.77-5.19.13-.71.27-1.46.42-2.23a13.42,13.42,0,0,0,4.06,0,4.07,4.07,0,0,0,2.72-2.12,2,2,0,0,0-1.28-2.62c-1.61-.41-3.86,1.54-4.65,2.79-.05.08-.54,1.1-.78,1.62.09-.46.19-.92.29-1.41.15-.69.33-1.42.5-2.13.1-.36.21-.73.31-1.1s.24-.72.35-1.09c.19-.54.4-1.08.62-1.62a12.68,12.68,0,0,0,3.81.57,4.12,4.12,0,0,0,3-1.69,2,2,0,0,0-.87-2.79c-1.52-.64-4.05.95-5,2.07,0,0-.21.29-.42.6.22-.53.45-1.05.69-1.57.7-1.49,1.46-3,2.21-4.47l.46-.94a12.92,12.92,0,0,0,3.92.6,4.07,4.07,0,0,0,3-1.69,2,2,0,0,0-.87-2.78c-1.52-.65-4.05.94-5,2.06l-.49.69c.4-.81.79-1.64,1.14-2.46a34.13,34.13,0,0,0,1.58-4.36,13.62,13.62,0,0,0,4,.64,4.11,4.11,0,0,0,3-1.69A2,2,0,0,0,647.08,336.16Z" style="fill:#263238"></path><path d="M646,332.22a14.35,14.35,0,0,1-4.1.45s.63-1.91.68-2c.64-1.34,2.66-3.54,4.3-3.32a2,2,0,0,1,1.57,2.46A4.12,4.12,0,0,1,646,332.22Z" style="fill:#263238;opacity: 0.30000000000000004"></path><path d="M616.54,332.84s-.53-1.93-.55-2.06c-.2-1.46.27-4.41,1.76-5.13a2,2,0,0,1,2.67,1.18,4.11,4.11,0,0,1-.71,3.38A14.29,14.29,0,0,1,616.54,332.84Z" style="fill:#263238;opacity: 0.30000000000000004"></path><path d="M647.08,336.16c-1.52-.65-4.05.95-5,2.06-.07.08-.83,1.2-1.1,1.61a.08.08,0,0,0,0-.05,25.45,25.45,0,0,0,.76-4.48,33.16,33.16,0,0,0,.09-4.06c0-1.26-.13-2.41-.23-3.42-.06-.55-.12-1.06-.19-1.52l0,0s.58-1.92.6-2.05c.25-1.46-.14-4.42-1.61-5.18a2,2,0,0,0-2.7,1.11,4.07,4.07,0,0,0,.62,3.39,13,13,0,0,0,3,2.65c.06.49.11,1,.16,1.59.08,1,.16,2.16.16,3.41,0,.33,0,.69,0,1-.12-.59-.28-1.39-.31-1.47-.45-1.41-2.16-3.86-3.82-3.86a2,2,0,0,0-1.88,2.23,4.09,4.09,0,0,0,2.11,2.73,13.21,13.21,0,0,0,3.89,1c0,.77-.07,1.56-.16,2.38a25.18,25.18,0,0,1-.85,4.43h-.09c0-.56-.15-1.72-.17-1.82-.29-1.45-1.72-4.07-3.37-4.25a2,2,0,0,0-2.12,2,4.11,4.11,0,0,0,1.8,2.95,13.92,13.92,0,0,0,3.85,1.42,33.49,33.49,0,0,1-1.62,4.17c-.46,1-1,2-1.49,3,0-.39-.15-1.92-.17-2-.3-1.45-1.73-4.08-3.38-4.26a2,2,0,0,0-2.11,2,4.09,4.09,0,0,0,1.79,2.94,13.61,13.61,0,0,0,3.83,1.42l-.71,1.36c-.78,1.48-1.57,3-2.31,4.44-.26.51-.49,1-.72,1.54,0-.58-.14-1.65-.16-1.74-.3-1.45-1.73-4.07-3.38-4.25a2,2,0,0,0-2.11,2,4.09,4.09,0,0,0,1.79,2.94,12.8,12.8,0,0,0,3.7,1.38c-.39.86-.75,1.73-1.07,2.59-.13.38-.28.75-.39,1.12l-.33,1.1c-.2.75-.39,1.45-.56,2.16l-.24,1.05c0-.6.11-1.55.1-1.64-.07-1.48-1.09-4.29-2.69-4.72a2,2,0,0,0-2.4,1.67,3,3,0,0,0,0,.43,7.68,7.68,0,0,0-1,3.7c0,.1.16,1.21.25,1.78-.18-.44-.36-.87-.54-1.34-.25-.66-.51-1.36-.76-2.05-.11-.36-.23-.72-.35-1.09s-.2-.73-.31-1.1c-.14-.55-.26-1.12-.38-1.69a12.81,12.81,0,0,0,3.5-1.63,4.14,4.14,0,0,0,1.58-3.07,2,2,0,0,0-2.27-1.84c-1.62.3-2.86,3-3,4.49,0,0,0,.36,0,.73-.1-.56-.2-1.12-.28-1.69-.24-1.62-.43-3.28-.63-4.95,0-.34-.09-.69-.13-1a12.83,12.83,0,0,0,3.61-1.66,4.08,4.08,0,0,0,1.57-3.06,2,2,0,0,0-2.26-1.85c-1.63.3-2.86,3-3,4.49,0,.05,0,.43,0,.85-.12-.9-.25-1.8-.41-2.69a35.62,35.62,0,0,0-1.09-4.5,13.54,13.54,0,0,0,3.71-1.69,4.12,4.12,0,0,0,1.58-3.07,2,2,0,0,0-2.26-1.85c-1.63.3-2.86,3-3.05,4.49,0,.11,0,1.47,0,1.95,0,0,0,0,0-.05a25.91,25.91,0,0,0-1.85-4.16,34,34,0,0,0-2.16-3.44c-.71-1-1.44-1.93-2.08-2.72-.35-.43-.68-.81-1-1.17h0s-.57-1.92-.62-2c-.6-1.36-2.56-3.61-4.21-3.44a2,2,0,0,0-1.64,2.42,4.11,4.11,0,0,0,2.39,2.49,13.11,13.11,0,0,0,3.95.56c.31.38.65.78,1,1.23.62.81,1.32,1.72,2,2.76.19.28.38.59.56.88-.41-.43-1-1-1.06-1.06-1.16-.92-3.93-2-5.31-1.11a2,2,0,0,0-.35,2.9,4.09,4.09,0,0,0,3.27,1.11,12.85,12.85,0,0,0,3.78-1.33c.41.66.81,1.34,1.18,2.08a24,24,0,0,1,1.74,4.16l-.08,0c-.34-.44-1.07-1.36-1.14-1.43-1-1-3.69-2.44-5.16-1.68a2,2,0,0,0-.66,2.84,4.07,4.07,0,0,0,3.12,1.46,13.77,13.77,0,0,0,4-.94,35.37,35.37,0,0,1,.95,4.38c.17,1.09.3,2.21.42,3.33-.23-.32-1.19-1.52-1.27-1.6-1.05-1-3.69-2.44-5.16-1.69a2,2,0,0,0-.66,2.85,4.1,4.1,0,0,0,3.12,1.46,13.65,13.65,0,0,0,4-.93L621,349c.17,1.66.32,3.33.52,5,.07.57.16,1.13.25,1.69-.36-.47-1-1.3-1.09-1.37-1-1-3.69-2.44-5.16-1.68a2,2,0,0,0-.66,2.84,4.07,4.07,0,0,0,3.12,1.46,12.79,12.79,0,0,0,3.85-.88c.15.93.32,1.85.54,2.75.1.38.17.78.29,1.15L623,361c.25.74.48,1.43.73,2.12.12.34.25.67.37,1-.29-.53-.77-1.35-.82-1.42-.88-1.19-3.27-3-4.84-2.45a2,2,0,0,0-1.09,2.71,4.07,4.07,0,0,0,2.87,1.92,13.62,13.62,0,0,0,4-.31c.31.82.62,1.61.92,2.35.68,1.67,1.33,3.12,1.87,4.3h1.21c-.61-1.23-1.36-2.81-2.18-4.69-.28-.66-.58-1.36-.87-2.09a14.14,14.14,0,0,0,3.3-2.13,21.23,21.23,0,0,0,2.26,1.07c-.19.85-.37,1.69-.52,2.47-.43,2.13-.72,4-.92,5.37h1.11c.16-1.38.41-3.14.77-5.19.13-.71.27-1.46.42-2.23a13.42,13.42,0,0,0,4.06,0,4.07,4.07,0,0,0,2.72-2.12,2,2,0,0,0-1.28-2.62c-1.61-.41-3.86,1.54-4.65,2.79-.05.08-.54,1.1-.78,1.62.09-.46.19-.92.29-1.41.15-.69.33-1.42.5-2.13.1-.36.21-.73.31-1.1s.24-.72.35-1.09c.19-.54.4-1.08.62-1.62a12.68,12.68,0,0,0,3.81.57,4.12,4.12,0,0,0,3-1.69,2,2,0,0,0-.87-2.79c-1.52-.64-4.05.95-5,2.07,0,0-.21.29-.42.6.22-.53.45-1.05.69-1.57.7-1.49,1.46-3,2.21-4.47l.46-.94a12.92,12.92,0,0,0,3.92.6,4.07,4.07,0,0,0,3-1.69,2,2,0,0,0-.87-2.78c-1.52-.65-4.05.94-5,2.06l-.49.69c.4-.81.79-1.64,1.14-2.46a34.13,34.13,0,0,0,1.58-4.36,13.62,13.62,0,0,0,4,.64,4.11,4.11,0,0,0,3-1.69A2,2,0,0,0,647.08,336.16Z" style="fill:#263238;opacity: 0.30000000000000004"></path></g><g><path d="M86.22,332.84s-.53-1.93-.55-2.06c-.2-1.46.27-4.41,1.76-5.13a2,2,0,0,1,2.67,1.18,4.15,4.15,0,0,1-.71,3.38A14.29,14.29,0,0,1,86.22,332.84Z" style="fill:#263238"></path><path d="M115.63,332.22a14.35,14.35,0,0,1-4.1.45s.63-1.91.68-2c.64-1.34,2.66-3.54,4.3-3.32a2,2,0,0,1,1.57,2.46A4.12,4.12,0,0,1,115.63,332.22Z" style="fill:#263238"></path><path d="M116.76,336.16c-1.52-.65-4.05.95-5,2.06-.07.08-.84,1.2-1.1,1.61,0,0,0,0,0-.05a24.51,24.51,0,0,0,.75-4.48,35.39,35.39,0,0,0,.1-4.06c0-1.26-.13-2.41-.23-3.42-.06-.55-.12-1.06-.19-1.52l0,0s.58-1.92.6-2.05c.25-1.46-.14-4.42-1.61-5.18a2,2,0,0,0-2.7,1.11,4.07,4.07,0,0,0,.62,3.39,12.84,12.84,0,0,0,3,2.65c.06.49.11,1,.16,1.59.08,1,.16,2.16.16,3.41,0,.33,0,.69,0,1-.11-.59-.27-1.39-.3-1.47-.45-1.41-2.16-3.86-3.82-3.86a2,2,0,0,0-1.88,2.23,4.11,4.11,0,0,0,2.1,2.73,13.36,13.36,0,0,0,3.89,1c0,.77-.06,1.56-.16,2.38a24.26,24.26,0,0,1-.84,4.43h-.09c0-.56-.15-1.72-.17-1.82-.29-1.45-1.72-4.07-3.37-4.25a2,2,0,0,0-2.12,2,4.11,4.11,0,0,0,1.8,2.95A13.92,13.92,0,0,0,110.2,340a33.49,33.49,0,0,1-1.62,4.17c-.46,1-1,2-1.49,3,0-.39-.15-1.92-.17-2-.3-1.45-1.73-4.08-3.38-4.26a2,2,0,0,0-2.11,2,4.09,4.09,0,0,0,1.79,2.94,13.61,13.61,0,0,0,3.83,1.42l-.71,1.36c-.78,1.48-1.58,3-2.31,4.44-.26.51-.49,1-.73,1.54,0-.58-.13-1.65-.15-1.74-.3-1.45-1.73-4.07-3.38-4.25a2,2,0,0,0-2.12,2,4.14,4.14,0,0,0,1.8,2.94,12.76,12.76,0,0,0,3.69,1.38c-.38.86-.74,1.73-1.06,2.59-.13.38-.29.75-.39,1.12l-.33,1.1c-.2.75-.39,1.45-.56,2.16l-.24,1.05c0-.6.1-1.55.1-1.64-.08-1.48-1.09-4.29-2.69-4.72a2,2,0,0,0-2.4,1.67,3,3,0,0,0,0,.43,7.68,7.68,0,0,0-1,3.7c0,.1.15,1.21.24,1.78-.17-.44-.35-.87-.53-1.34-.26-.66-.51-1.36-.76-2.05-.11-.36-.23-.72-.35-1.09s-.2-.73-.31-1.1c-.14-.55-.26-1.12-.38-1.69a12.81,12.81,0,0,0,3.5-1.63,4.1,4.1,0,0,0,1.57-3.07,2,2,0,0,0-2.26-1.84c-1.63.3-2.86,3-3,4.49,0,0,0,.36,0,.73-.1-.56-.2-1.12-.28-1.69-.24-1.62-.43-3.28-.63-4.95,0-.34-.09-.69-.13-1a12.67,12.67,0,0,0,3.6-1.66,4.09,4.09,0,0,0,1.58-3.06,2,2,0,0,0-2.26-1.85c-1.63.3-2.86,3-3,4.49,0,.05,0,.43,0,.85-.12-.9-.26-1.8-.41-2.69a35.62,35.62,0,0,0-1.09-4.5,13.54,13.54,0,0,0,3.71-1.69,4.12,4.12,0,0,0,1.58-3.07,2,2,0,0,0-2.26-1.85c-1.63.3-2.86,3-3.05,4.49,0,.11,0,1.47,0,1.95l0-.05a25,25,0,0,0-1.84-4.16,34,34,0,0,0-2.16-3.44c-.72-1-1.44-1.93-2.08-2.72-.35-.43-.68-.81-1-1.17h0s-.57-1.92-.62-2c-.61-1.36-2.56-3.61-4.21-3.44a2,2,0,0,0-1.64,2.42,4.11,4.11,0,0,0,2.39,2.49,13.07,13.07,0,0,0,3.95.56c.31.38.65.78,1,1.23.62.81,1.32,1.72,2,2.76.19.28.38.59.56.88l-1.06-1.06c-1.16-.92-3.93-2-5.32-1.11a2,2,0,0,0-.34,2.9,4.09,4.09,0,0,0,3.27,1.11,12.85,12.85,0,0,0,3.78-1.33c.4.66.81,1.34,1.18,2.08a24.84,24.84,0,0,1,1.74,4.16l-.09,0c-.33-.44-1.07-1.36-1.13-1.43-1-1-3.69-2.44-5.16-1.68a2,2,0,0,0-.66,2.84,4.06,4.06,0,0,0,3.12,1.46,13.77,13.77,0,0,0,4-.94,35.37,35.37,0,0,1,.95,4.38c.17,1.09.3,2.21.41,3.33-.22-.32-1.18-1.52-1.26-1.6-1-1-3.69-2.44-5.16-1.69a2,2,0,0,0-.66,2.85,4.1,4.1,0,0,0,3.12,1.46,13.48,13.48,0,0,0,4-.93c.06.51.11,1,.16,1.53.16,1.66.32,3.33.52,5,.07.57.16,1.13.25,1.69-.36-.47-1-1.3-1.09-1.37-1-1-3.69-2.44-5.16-1.68a2,2,0,0,0-.66,2.84,4.07,4.07,0,0,0,3.12,1.46,12.79,12.79,0,0,0,3.85-.88c.15.93.32,1.85.53,2.75.1.38.18.78.3,1.15l.33,1.09c.25.74.48,1.43.73,2.12.12.34.25.67.37,1-.29-.53-.77-1.35-.82-1.42-.88-1.19-3.28-3-4.85-2.45A2,2,0,0,0,87,363a4.07,4.07,0,0,0,2.87,1.92,13.68,13.68,0,0,0,4-.31c.31.82.62,1.61.92,2.35.68,1.67,1.33,3.12,1.87,4.3h1.21c-.61-1.23-1.37-2.81-2.18-4.69-.29-.66-.58-1.36-.88-2.09a14,14,0,0,0,3.31-2.13,21.23,21.23,0,0,0,2.26,1.07c-.19.85-.37,1.69-.52,2.47-.43,2.13-.72,4-.92,5.37h1.1c.17-1.38.42-3.14.78-5.19.12-.71.27-1.46.42-2.23a13.42,13.42,0,0,0,4.06,0,4.07,4.07,0,0,0,2.72-2.12,2,2,0,0,0-1.28-2.62c-1.61-.41-3.87,1.54-4.65,2.79,0,.08-.54,1.1-.78,1.62.09-.46.19-.92.29-1.41.15-.69.33-1.42.5-2.13.1-.36.21-.73.31-1.1s.23-.72.35-1.09c.18-.54.4-1.08.62-1.62a12.68,12.68,0,0,0,3.81.57,4.14,4.14,0,0,0,3-1.69,2,2,0,0,0-.87-2.79c-1.53-.64-4.05.95-5,2.07,0,0-.21.29-.42.6.22-.53.44-1.05.69-1.57.7-1.49,1.45-3,2.21-4.47l.46-.94a12.92,12.92,0,0,0,3.92.6,4.09,4.09,0,0,0,3-1.69,2,2,0,0,0-.87-2.78c-1.52-.65-4,.94-5,2.06,0,0-.25.35-.49.69.4-.81.79-1.64,1.14-2.46a34.13,34.13,0,0,0,1.58-4.36,13.55,13.55,0,0,0,4,.64,4.11,4.11,0,0,0,3-1.69A2,2,0,0,0,116.76,336.16Z" style="fill:#263238"></path><path d="M115.63,332.22a14.35,14.35,0,0,1-4.1.45s.63-1.91.68-2c.64-1.34,2.66-3.54,4.3-3.32a2,2,0,0,1,1.57,2.46A4.12,4.12,0,0,1,115.63,332.22Z" style="fill:#263238;opacity: 0.30000000000000004"></path><path d="M86.22,332.84s-.53-1.93-.55-2.06c-.2-1.46.27-4.41,1.76-5.13a2,2,0,0,1,2.67,1.18,4.15,4.15,0,0,1-.71,3.38A14.29,14.29,0,0,1,86.22,332.84Z" style="fill:#263238;opacity: 0.30000000000000004"></path><path d="M116.76,336.16c-1.52-.65-4.05.95-5,2.06-.07.08-.84,1.2-1.1,1.61,0,0,0,0,0-.05a24.51,24.51,0,0,0,.75-4.48,35.39,35.39,0,0,0,.1-4.06c0-1.26-.13-2.41-.23-3.42-.06-.55-.12-1.06-.19-1.52l0,0s.58-1.92.6-2.05c.25-1.46-.14-4.42-1.61-5.18a2,2,0,0,0-2.7,1.11,4.07,4.07,0,0,0,.62,3.39,12.84,12.84,0,0,0,3,2.65c.06.49.11,1,.16,1.59.08,1,.16,2.16.16,3.41,0,.33,0,.69,0,1-.11-.59-.27-1.39-.3-1.47-.45-1.41-2.16-3.86-3.82-3.86a2,2,0,0,0-1.88,2.23,4.11,4.11,0,0,0,2.1,2.73,13.36,13.36,0,0,0,3.89,1c0,.77-.06,1.56-.16,2.38a24.26,24.26,0,0,1-.84,4.43h-.09c0-.56-.15-1.72-.17-1.82-.29-1.45-1.72-4.07-3.37-4.25a2,2,0,0,0-2.12,2,4.11,4.11,0,0,0,1.8,2.95A13.92,13.92,0,0,0,110.2,340a33.49,33.49,0,0,1-1.62,4.17c-.46,1-1,2-1.49,3,0-.39-.15-1.92-.17-2-.3-1.45-1.73-4.08-3.38-4.26a2,2,0,0,0-2.11,2,4.09,4.09,0,0,0,1.79,2.94,13.61,13.61,0,0,0,3.83,1.42l-.71,1.36c-.78,1.48-1.58,3-2.31,4.44-.26.51-.49,1-.73,1.54,0-.58-.13-1.65-.15-1.74-.3-1.45-1.73-4.07-3.38-4.25a2,2,0,0,0-2.12,2,4.14,4.14,0,0,0,1.8,2.94,12.76,12.76,0,0,0,3.69,1.38c-.38.86-.74,1.73-1.06,2.59-.13.38-.29.75-.39,1.12l-.33,1.1c-.2.75-.39,1.45-.56,2.16l-.24,1.05c0-.6.1-1.55.1-1.64-.08-1.48-1.09-4.29-2.69-4.72a2,2,0,0,0-2.4,1.67,3,3,0,0,0,0,.43,7.68,7.68,0,0,0-1,3.7c0,.1.15,1.21.24,1.78-.17-.44-.35-.87-.53-1.34-.26-.66-.51-1.36-.76-2.05-.11-.36-.23-.72-.35-1.09s-.2-.73-.31-1.1c-.14-.55-.26-1.12-.38-1.69a12.81,12.81,0,0,0,3.5-1.63,4.1,4.1,0,0,0,1.57-3.07,2,2,0,0,0-2.26-1.84c-1.63.3-2.86,3-3,4.49,0,0,0,.36,0,.73-.1-.56-.2-1.12-.28-1.69-.24-1.62-.43-3.28-.63-4.95,0-.34-.09-.69-.13-1a12.67,12.67,0,0,0,3.6-1.66,4.09,4.09,0,0,0,1.58-3.06,2,2,0,0,0-2.26-1.85c-1.63.3-2.86,3-3,4.49,0,.05,0,.43,0,.85-.12-.9-.26-1.8-.41-2.69a35.62,35.62,0,0,0-1.09-4.5,13.54,13.54,0,0,0,3.71-1.69,4.12,4.12,0,0,0,1.58-3.07,2,2,0,0,0-2.26-1.85c-1.63.3-2.86,3-3.05,4.49,0,.11,0,1.47,0,1.95l0-.05a25,25,0,0,0-1.84-4.16,34,34,0,0,0-2.16-3.44c-.72-1-1.44-1.93-2.08-2.72-.35-.43-.68-.81-1-1.17h0s-.57-1.92-.62-2c-.61-1.36-2.56-3.61-4.21-3.44a2,2,0,0,0-1.64,2.42,4.11,4.11,0,0,0,2.39,2.49,13.07,13.07,0,0,0,3.95.56c.31.38.65.78,1,1.23.62.81,1.32,1.72,2,2.76.19.28.38.59.56.88l-1.06-1.06c-1.16-.92-3.93-2-5.32-1.11a2,2,0,0,0-.34,2.9,4.09,4.09,0,0,0,3.27,1.11,12.85,12.85,0,0,0,3.78-1.33c.4.66.81,1.34,1.18,2.08a24.84,24.84,0,0,1,1.74,4.16l-.09,0c-.33-.44-1.07-1.36-1.13-1.43-1-1-3.69-2.44-5.16-1.68a2,2,0,0,0-.66,2.84,4.06,4.06,0,0,0,3.12,1.46,13.77,13.77,0,0,0,4-.94,35.37,35.37,0,0,1,.95,4.38c.17,1.09.3,2.21.41,3.33-.22-.32-1.18-1.52-1.26-1.6-1-1-3.69-2.44-5.16-1.69a2,2,0,0,0-.66,2.85,4.1,4.1,0,0,0,3.12,1.46,13.48,13.48,0,0,0,4-.93c.06.51.11,1,.16,1.53.16,1.66.32,3.33.52,5,.07.57.16,1.13.25,1.69-.36-.47-1-1.3-1.09-1.37-1-1-3.69-2.44-5.16-1.68a2,2,0,0,0-.66,2.84,4.07,4.07,0,0,0,3.12,1.46,12.79,12.79,0,0,0,3.85-.88c.15.93.32,1.85.53,2.75.1.38.18.78.3,1.15l.33,1.09c.25.74.48,1.43.73,2.12.12.34.25.67.37,1-.29-.53-.77-1.35-.82-1.42-.88-1.19-3.28-3-4.85-2.45A2,2,0,0,0,87,363a4.07,4.07,0,0,0,2.87,1.92,13.68,13.68,0,0,0,4-.31c.31.82.62,1.61.92,2.35.68,1.67,1.33,3.12,1.87,4.3h1.21c-.61-1.23-1.37-2.81-2.18-4.69-.29-.66-.58-1.36-.88-2.09a14,14,0,0,0,3.31-2.13,21.23,21.23,0,0,0,2.26,1.07c-.19.85-.37,1.69-.52,2.47-.43,2.13-.72,4-.92,5.37h1.1c.17-1.38.42-3.14.78-5.19.12-.71.27-1.46.42-2.23a13.42,13.42,0,0,0,4.06,0,4.07,4.07,0,0,0,2.72-2.12,2,2,0,0,0-1.28-2.62c-1.61-.41-3.87,1.54-4.65,2.79,0,.08-.54,1.1-.78,1.62.09-.46.19-.92.29-1.41.15-.69.33-1.42.5-2.13.1-.36.21-.73.31-1.1s.23-.72.35-1.09c.18-.54.4-1.08.62-1.62a12.68,12.68,0,0,0,3.81.57,4.14,4.14,0,0,0,3-1.69,2,2,0,0,0-.87-2.79c-1.53-.64-4.05.95-5,2.07,0,0-.21.29-.42.6.22-.53.44-1.05.69-1.57.7-1.49,1.45-3,2.21-4.47l.46-.94a12.92,12.92,0,0,0,3.92.6,4.09,4.09,0,0,0,3-1.69,2,2,0,0,0-.87-2.78c-1.52-.65-4,.94-5,2.06,0,0-.25.35-.49.69.4-.81.79-1.64,1.14-2.46a34.13,34.13,0,0,0,1.58-4.36,13.55,13.55,0,0,0,4,.64,4.11,4.11,0,0,0,3-1.69A2,2,0,0,0,116.76,336.16Z" style="fill:#263238;opacity: 0.30000000000000004"></path></g></g><g id="freepik--web-page--inject-3"><g><rect x="107.61" y="90.91" width="421.26" height="280.34" style="fill:#0EA2BD;stroke: #263238;stroke-linecap: round;stroke-linejoin: round"></rect><path d="M172,205.48l6.14,6.15h3.89l4.85-3.88,12.29,1,3.23,6.79h6.8l4.52-2.59h8.41l.65-2.59L229,210l1,2.59,7.11-.65.33,5.18L225.08,223l1,7.12,7.43,6.46,2.27,6.8h4.85l2.59-7.12-3.88-7.76,2.26-1.3,4.85,4.86,2.91-2.27,6.8,7.44-1.62,4.53-8.73-.65-1.62,5.5,6.79.65-.32,4.53L245.79,253l-1.3,10-7.44,1,2.27,8.08-3.88.33-3.24-6.79-10.35,4.2-1,5.5,1.29,2.59,3.89-2.59,3.23-.32-.65,3.88,5.5.32.33,5.5,3.88,1.29,5.17,2.27,12.62-4.53,7.76,10.35,16.5,3.23v17.47l-7.44,1L264.22,332l-7.11,2.59-1.94,3.56-3.24,2.26-1.29,5.83,4.2,5.17-2.58,1-7.44-3.88v-9.06l4.52-25.87-10.35-12,1-11.32-6.79-.65-3.88-6.14-14.23-4.53-1.3-8.74L207,266.94l.32,2.91,3.56,3.23-.64,2.59-5.83-4.2-2.26-7.77-9.06-5.17,1-12.94-12.29-15.85L172,227.8l-4.85,12.62h-9.71v-2.59l6.8-1.3v-6.79l-7.12-.32V223l4.2-5.82-2.58-5.5,4.52-6.47Zm25.87-9.7-5.49,6.79,3.88,2.27,4.85-1.94,2.91,1,1,5.17,5.18,1.29,3.23-1.61,3.56,1.94,1.62-3.56-4.53-2.26-.65-4.86-3.88-2.26-3.88,1.94Zm35.26,1.94L229.61,200l2.27,6.47,5.17,1.62,2.27-.65,5.17,6.15-1,5.82,5.82,5.18,3.24-1.3-2.91-6.47,4.53-1.29-7.44-12-5.18,1-3.88-1.61ZM254.52,156l-6.79,1.3-5.5-2.27-11,5.83,2.26,7.44-8.08-4.53-4.21,1.29,6.15,13.59,5.82,1.61v7.44l2.59.65,8.41-4.85-1-3.24L248.37,167l4.86-2.26,2.26-3.88ZM238.67,191.9l-7.12-1-4.2-4.53-2.27,2.26,3.56,3.88,7.77,2.27Zm19.73-28.14-6.47,8.41,1,4.85-7.11,2.91,1.94,8.73L261,187.37l2.91,7.76v34H273l4.52-12.61,11.33-5.5,2.26-7.44,4.2-2.26L295,181.55l5.5-4.85L301.1,166h-2.91l-1,5.82H292l-.32-10-8.09.32,7.76-4.21v-3.55l-8.08-1.62-13.59,2.59v3.56h3.88L273,164.4l-8.41.33-2.27-4.85S258.72,161.82,258.4,163.76Zm72.45,11-5.49,1.95.64,4.85,3.56.32-.65,4.53h5.18v-5.18l3.88,3.56,2.26-1.29-3.55-5.18,2.58-1.94v-3.23l-3.55.32Zm45.94,13.59-10,6.15-1,6.46,2.91,7.12,3.23-1-1-6.79,2.91-5.82,6.15-3.24.65-4.85Zm-24.68,27.58.95-3.81-11-5.57-12.37,3.53L328.32,220l-10.6,8.83,4.89,2.45,3-.82L327,236l5.71-2.45.68-13.73,5-2.31,1.09,5-4.08,3.4v2.17l11,.14.27,2.58-8.29,1.63-.41,5.57-16.85,2.72L317.18,246l-3.94-.14-1.77,1.5,1.77,2.58-1.64,1.63-1.76-1.63-3.54.95,3.94,9.65,2-.68,2-4.48,5.3-3,4.49-.95,3.67,5,.27,2.32,1.5-.55.54-1.49,1.9,1.22-.13-1.9-3.94-6,1.64-.24,5.5,9.38,2.91-.33,1.62-3.56,2.26-5.17,10.35.32.65,5.18-7.12.32-.32,2.27,6.15,1.29-2.27,5.17-10-2.58-2.26,4.2s-3.54.58-4.53-.32-6.79-8.09-6.79-8.09l-18.44,7.44-.64,11h-6.8l2.59,11,19.41,1,1.29,9.38,5.18,2.26.64,12,3.89,5.5,2.91,12,9.05-.65,3.56-8.09,4.85-3.56,2.59-7.11-3.56-10,12-7.11.65-4.86-4.21-1.29-8.08-3.23-6.47-11,3.88-1.62,4.85,9.7,5.5,3.89L372.9,275l-1.61-2.59-7.44-1.3-2.91-4.52,3.23-.65,12,6.14h8.73l6.47,13.59h5.82V273.41h8.41v4.85h8.09v6.15h9.7V277h-5.5v-5.18H434v-4.53l-4.53-4.53v-7.44h6.14v5.83h4.21v-6.8l12.61-4.2v-9.38h-6.79v-4.53l4.53-4.85h11l1.61-6.47h11.33l-8.41,9.7V242h5.17l.32-6.47,5.5-9.7h8.74V215.19l-2.59-5.5-10.68,1.94-1-4.53-11.64-.32.32-3.56-5.82-.65v4.85H439.54l-1.3-4.85L429.51,200l-8.09,1.3h-3.88v-4.53l5.82-3.24V189l-5.82-2.27-13.26,4.21-8.41,9-1.62,5.18-3.56-3.88-3.23,2.91,1.62,3.56-.33,4.85-4.53.65-.32-11-4.85.65.32,9.7-3.55-2.27L359,213.57,355.11,220,348.64,222l-3.55-7.12Zm61.77,73.15-1.13,2.84.56,3-6.24-3.79-1.14,2.46,14.76,9.27,7.57.38.19-1.7-7.38-1.51-4-3.41Zm38.23,17.22-1.89,2.65-5.11-.76-.95-2.27-2.65.38-.76,2.65-7.19.76v3.78H426V319l1.61,1.61,1.61,7.1,4.35.37,6.63-4.16,7.19,1.14,5.49,7.57H457l6.43-11.93v-4.92l-5.67-2.27-2.46-7.76Zm-10-11.54-.95,1.89,7.38,1.7,1.89,4.92,3.41-.19,4.54,2.46,1.52-1.7-8.9-7.19Zm-77.29,11.66-6,1.36v7.63l3.81.27,3.82-6.81Z" style="fill:#263238"></path><g><path d="M480.5,146.5H156a9.31,9.31,0,0,1-9.31-9.31h0a9.31,9.31,0,0,1,9.31-9.32H480.5a9.32,9.32,0,0,1,9.32,9.32h0A9.31,9.31,0,0,1,480.5,146.5Z" style="fill:#fff;stroke: #263238;stroke-linecap: round;stroke-linejoin: round"></path><path d="M480.5,146.5H464.3V127.87h16.2a9.32,9.32,0,0,1,9.32,9.32h0A9.31,9.31,0,0,1,480.5,146.5Z" style="fill:#263238;stroke: #263238;stroke-linecap: round;stroke-linejoin: round"></path><g><path d="M476.9,130.23a5.35,5.35,0,1,0,.25,7.56A5.34,5.34,0,0,0,476.9,130.23Zm-.52,6.84a4.29,4.29,0,1,1-.2-6.06A4.3,4.3,0,0,1,476.38,137.07Z" style="fill:#fff"></path><path d="M480.91,139.73a.88.88,0,0,0-.9-.18l-1.93-1.82a.53.53,0,0,0-.74,0l-.17.18a.52.52,0,0,0,0,.74l1.91,1.79a.9.9,0,0,0,.23.95l3.27,3.21a1.16,1.16,0,0,0,1.64,0h0a1.15,1.15,0,0,0-.05-1.63Z" style="fill:#fff"></path></g></g><g><rect x="107.61" y="90.68" width="421.26" height="20.15" style="fill:#263238;stroke: #263238;stroke-linecap: round;stroke-linejoin: round"></rect><g><circle cx="492.21" cy="99.49" r="3.53" style="fill:#fff;stroke: #263238;stroke-linecap: round;stroke-linejoin: round"></circle><circle cx="505.07" cy="99.49" r="3.53" style="fill:#fff;stroke: #263238;stroke-linecap: round;stroke-linejoin: round"></circle><path d="M521.46,99.49A3.53,3.53,0,1,1,517.93,96,3.53,3.53,0,0,1,521.46,99.49Z" style="fill:#fff;stroke: #263238;stroke-linecap: round;stroke-linejoin: round"></path></g></g><g><path d="M120.27,276.31h-2a.5.5,0,0,1-.5-.5.51.51,0,0,1,.5-.5h2a.5.5,0,0,1,.5.5A.5.5,0,0,1,120.27,276.31Zm.5,1.82a.5.5,0,0,0-.5-.5h-2a.51.51,0,0,0-.5.5.5.5,0,0,0,.5.5h2A.5.5,0,0,0,120.77,278.13Zm0,2.32a.5.5,0,0,0-.5-.5h-2a.51.51,0,0,0-.5.5.5.5,0,0,0,.5.5h2A.5.5,0,0,0,120.77,280.45Zm0,2.32a.5.5,0,0,0-.5-.5h-2a.5.5,0,0,0,0,1h2A.5.5,0,0,0,120.77,282.77Zm0,2.32a.5.5,0,0,0-.5-.5h-2a.5.5,0,0,0,0,1h2A.5.5,0,0,0,120.77,285.09Zm0,2.32a.5.5,0,0,0-.5-.5h-2a.5.5,0,0,0,0,1h2A.5.5,0,0,0,120.77,287.41Zm0,2.32a.5.5,0,0,0-.5-.5h-2a.5.5,0,0,0,0,1h2A.5.5,0,0,0,120.77,289.73Zm0,2.32a.5.5,0,0,0-.5-.5h-2a.5.5,0,0,0-.5.5.51.51,0,0,0,.5.5h2A.5.5,0,0,0,120.77,292.05Zm7.59-16.24a.5.5,0,0,0-.5-.5h-5.32a.5.5,0,0,0-.5.5.5.5,0,0,0,.5.5h5.32A.5.5,0,0,0,128.36,275.81Zm0,2.32a.5.5,0,0,0-.5-.5h-5.32a.5.5,0,0,0-.5.5.5.5,0,0,0,.5.5h5.32A.5.5,0,0,0,128.36,278.13Zm0,2.32a.5.5,0,0,0-.5-.5h-5.32a.5.5,0,0,0-.5.5.5.5,0,0,0,.5.5h5.32A.5.5,0,0,0,128.36,280.45Zm0,2.32a.5.5,0,0,0-.5-.5h-5.32a.5.5,0,0,0,0,1h5.32A.5.5,0,0,0,128.36,282.77Zm0,2.32a.5.5,0,0,0-.5-.5h-5.32a.5.5,0,0,0,0,1h5.32A.5.5,0,0,0,128.36,285.09Zm6.38,2.32a.5.5,0,0,0-.5-.5h-5.33a.5.5,0,0,0,0,1h5.33A.5.5,0,0,0,134.74,287.41Zm0,2.32a.5.5,0,0,0-.5-.5h-5.33a.5.5,0,1,0,0,1h5.33A.5.5,0,0,0,134.74,289.73Zm0,2.32a.5.5,0,0,0-.5-.5h-5.33a.5.5,0,0,0-.5.5.51.51,0,0,0,.5.5h5.33A.5.5,0,0,0,134.74,292.05Zm-4-16.24a.58.58,0,1,0-.58.58A.58.58,0,0,0,130.71,275.81Zm1.74,0a.58.58,0,1,0-.58.58A.58.58,0,0,0,132.45,275.81Zm1.74,0a.58.58,0,1,0-.58.58A.58.58,0,0,0,134.19,275.81Zm1.73,0a.57.57,0,0,0-.57-.58.58.58,0,0,0,0,1.16A.57.57,0,0,0,135.92,275.81Zm1.74,0a.58.58,0,1,0-.58.58A.58.58,0,0,0,137.66,275.81Zm1.74,0a.58.58,0,1,0-.58.58A.58.58,0,0,0,139.4,275.81Zm-8.69,4.64a.58.58,0,1,0-.58.58A.58.58,0,0,0,130.71,280.45Zm1.74,0a.58.58,0,1,0-.58.58A.58.58,0,0,0,132.45,280.45Zm1.74,0a.58.58,0,1,0-.58.58A.58.58,0,0,0,134.19,280.45Zm1.73,0a.57.57,0,0,0-.57-.58.58.58,0,0,0,0,1.16A.57.57,0,0,0,135.92,280.45Zm1.74,0a.58.58,0,1,0-.58.58A.58.58,0,0,0,137.66,280.45Zm1.74,0a.58.58,0,1,0-.58.58A.58.58,0,0,0,139.4,280.45Zm-2.75,6.67a.58.58,0,1,0-.58.58A.58.58,0,0,0,136.65,287.12Zm1.74,0a.58.58,0,1,0-.58.58A.58.58,0,0,0,138.39,287.12Zm1.74,0a.58.58,0,1,0-.58.58A.58.58,0,0,0,140.13,287.12Zm1.74,0a.58.58,0,1,0-.58.58A.58.58,0,0,0,141.87,287.12Zm1.74,0a.58.58,0,1,0-.58.58A.58.58,0,0,0,143.61,287.12Zm1.74,0a.58.58,0,1,0-.58.58A.58.58,0,0,0,145.35,287.12Zm-8.7,4.78a.58.58,0,1,0-.58.58A.58.58,0,0,0,136.65,291.9Zm1.74,0a.58.58,0,1,0-.58.58A.58.58,0,0,0,138.39,291.9Zm1.74,0a.58.58,0,1,0-.58.58A.58.58,0,0,0,140.13,291.9Zm1.74,0a.58.58,0,1,0-.58.58A.58.58,0,0,0,141.87,291.9Zm1.74,0a.58.58,0,1,0-.58.58A.58.58,0,0,0,143.61,291.9Zm1.74,0a.58.58,0,1,0-.58.58A.58.58,0,0,0,145.35,291.9Z" style="fill:#263238"></path><path d="M120.27,294.87h-2a.5.5,0,0,1-.5-.5.51.51,0,0,1,.5-.5h2a.5.5,0,0,1,.5.5A.5.5,0,0,1,120.27,294.87Zm.5,1.82a.5.5,0,0,0-.5-.5h-2a.5.5,0,0,0,0,1h2A.5.5,0,0,0,120.77,296.69Zm0,2.32a.5.5,0,0,0-.5-.5h-2a.5.5,0,0,0,0,1h2A.5.5,0,0,0,120.77,299Zm0,2.32a.5.5,0,0,0-.5-.5h-2a.5.5,0,0,0,0,1h2A.5.5,0,0,0,120.77,301.33Zm0,2.32a.5.5,0,0,0-.5-.5h-2a.5.5,0,0,0-.5.5.51.51,0,0,0,.5.5h2A.5.5,0,0,0,120.77,303.65Zm0,2.32a.5.5,0,0,0-.5-.5h-2a.5.5,0,0,0-.5.5.51.51,0,0,0,.5.5h2A.5.5,0,0,0,120.77,306Zm0,2.32a.5.5,0,0,0-.5-.5h-2a.5.5,0,0,0-.5.5.51.51,0,0,0,.5.5h2A.5.5,0,0,0,120.77,308.29Zm0,2.32a.5.5,0,0,0-.5-.5h-2a.5.5,0,0,0-.5.5.51.51,0,0,0,.5.5h2A.5.5,0,0,0,120.77,310.61Zm7.59-16.24a.5.5,0,0,0-.5-.5h-5.32a.5.5,0,0,0-.5.5.5.5,0,0,0,.5.5h5.32A.5.5,0,0,0,128.36,294.37Zm0,2.32a.5.5,0,0,0-.5-.5h-5.32a.5.5,0,0,0,0,1h5.32A.5.5,0,0,0,128.36,296.69Zm0,2.32a.5.5,0,0,0-.5-.5h-5.32a.5.5,0,0,0,0,1h5.32A.5.5,0,0,0,128.36,299Zm0,2.32a.5.5,0,0,0-.5-.5h-5.32a.5.5,0,0,0,0,1h5.32A.5.5,0,0,0,128.36,301.33Zm0,2.32a.5.5,0,0,0-.5-.5h-5.32a.5.5,0,0,0-.5.5.5.5,0,0,0,.5.5h5.32A.5.5,0,0,0,128.36,303.65Zm6.38,2.32a.5.5,0,0,0-.5-.5h-5.33a.5.5,0,0,0-.5.5.51.51,0,0,0,.5.5h5.33A.5.5,0,0,0,134.74,306Zm0,2.32a.5.5,0,0,0-.5-.5h-5.33a.5.5,0,0,0-.5.5.51.51,0,0,0,.5.5h5.33A.5.5,0,0,0,134.74,308.29Zm0,2.32a.5.5,0,0,0-.5-.5h-5.33a.5.5,0,0,0-.5.5.51.51,0,0,0,.5.5h5.33A.5.5,0,0,0,134.74,310.61Zm-4-16.24a.58.58,0,1,0-.58.58A.58.58,0,0,0,130.71,294.37Zm1.74,0a.58.58,0,1,0-.58.58A.58.58,0,0,0,132.45,294.37Zm1.74,0a.58.58,0,1,0-.58.58A.58.58,0,0,0,134.19,294.37Zm1.73,0a.57.57,0,0,0-.57-.58.58.58,0,1,0,0,1.16A.57.57,0,0,0,135.92,294.37Zm1.74,0a.58.58,0,1,0-.58.58A.58.58,0,0,0,137.66,294.37Zm1.74,0a.58.58,0,1,0-.58.58A.58.58,0,0,0,139.4,294.37ZM130.71,299a.58.58,0,1,0-.58.58A.58.58,0,0,0,130.71,299Zm1.74,0a.58.58,0,1,0-.58.58A.58.58,0,0,0,132.45,299Zm1.74,0a.58.58,0,1,0-.58.58A.58.58,0,0,0,134.19,299Zm1.73,0a.57.57,0,0,0-.57-.58.58.58,0,1,0,0,1.16A.57.57,0,0,0,135.92,299Zm1.74,0a.58.58,0,1,0-.58.58A.58.58,0,0,0,137.66,299Zm1.74,0a.58.58,0,1,0-.58.58A.58.58,0,0,0,139.4,299Zm-2.75,6.67a.58.58,0,1,0-.58.58A.58.58,0,0,0,136.65,305.68Zm1.74,0a.58.58,0,1,0-.58.58A.58.58,0,0,0,138.39,305.68Zm1.74,0a.58.58,0,1,0-.58.58A.58.58,0,0,0,140.13,305.68Zm1.74,0a.58.58,0,1,0-.58.58A.58.58,0,0,0,141.87,305.68Zm1.74,0a.58.58,0,1,0-.58.58A.58.58,0,0,0,143.61,305.68Zm1.74,0a.58.58,0,1,0-.58.58A.58.58,0,0,0,145.35,305.68Zm-8.7,4.78a.58.58,0,1,0-.58.58A.58.58,0,0,0,136.65,310.46Zm1.74,0a.58.58,0,1,0-.58.58A.58.58,0,0,0,138.39,310.46Zm1.74,0a.58.58,0,1,0-.58.58A.58.58,0,0,0,140.13,310.46Zm1.74,0a.58.58,0,1,0-.58.58A.58.58,0,0,0,141.87,310.46Zm1.74,0a.58.58,0,1,0-.58.58A.58.58,0,0,0,143.61,310.46Zm1.74,0a.58.58,0,1,0-.58.58A.58.58,0,0,0,145.35,310.46Z" style="fill:#263238"></path><path d="M120.27,313.88h-2a.51.51,0,0,1-.5-.5.5.5,0,0,1,.5-.5h2a.5.5,0,0,1,.5.5A.5.5,0,0,1,120.27,313.88Zm.5,1.82a.5.5,0,0,0-.5-.5h-2a.5.5,0,0,0-.5.5.51.51,0,0,0,.5.5h2A.5.5,0,0,0,120.77,315.7Zm0,2.32a.5.5,0,0,0-.5-.5h-2a.5.5,0,0,0-.5.5.51.51,0,0,0,.5.5h2A.5.5,0,0,0,120.77,318Zm0,2.32a.5.5,0,0,0-.5-.51h-2a.51.51,0,0,0,0,1h2A.5.5,0,0,0,120.77,320.34Zm0,2.31a.5.5,0,0,0-.5-.5h-2a.51.51,0,0,0-.5.5.5.5,0,0,0,.5.5h2A.5.5,0,0,0,120.77,322.65Zm0,2.32a.5.5,0,0,0-.5-.5h-2a.51.51,0,0,0-.5.5.5.5,0,0,0,.5.5h2A.5.5,0,0,0,120.77,325Zm0,2.32a.5.5,0,0,0-.5-.5h-2a.51.51,0,0,0-.5.5.5.5,0,0,0,.5.5h2A.5.5,0,0,0,120.77,327.29Zm0,2.32a.5.5,0,0,0-.5-.5h-2a.51.51,0,0,0-.5.5.5.5,0,0,0,.5.5h2A.5.5,0,0,0,120.77,329.61Zm7.59-16.23a.5.5,0,0,0-.5-.5h-5.32a.5.5,0,0,0-.5.5.5.5,0,0,0,.5.5h5.32A.5.5,0,0,0,128.36,313.38Zm0,2.32a.5.5,0,0,0-.5-.5h-5.32a.5.5,0,0,0-.5.5.5.5,0,0,0,.5.5h5.32A.5.5,0,0,0,128.36,315.7Zm0,2.32a.5.5,0,0,0-.5-.5h-5.32a.5.5,0,0,0-.5.5.5.5,0,0,0,.5.5h5.32A.5.5,0,0,0,128.36,318Zm0,2.32a.5.5,0,0,0-.5-.51h-5.32a.51.51,0,0,0,0,1h5.32A.5.5,0,0,0,128.36,320.34Zm0,2.31a.5.5,0,0,0-.5-.5h-5.32a.5.5,0,0,0-.5.5.5.5,0,0,0,.5.5h5.32A.5.5,0,0,0,128.36,322.65Zm6.38,2.32a.5.5,0,0,0-.5-.5h-5.33a.51.51,0,0,0-.5.5.5.5,0,0,0,.5.5h5.33A.5.5,0,0,0,134.74,325Zm0,2.32a.5.5,0,0,0-.5-.5h-5.33a.51.51,0,0,0-.5.5.5.5,0,0,0,.5.5h5.33A.5.5,0,0,0,134.74,327.29Zm0,2.32a.5.5,0,0,0-.5-.5h-5.33a.51.51,0,0,0-.5.5.5.5,0,0,0,.5.5h5.33A.5.5,0,0,0,134.74,329.61Zm-4-16.23a.58.58,0,1,0-.58.58A.58.58,0,0,0,130.71,313.38Zm1.74,0a.58.58,0,1,0-.58.58A.58.58,0,0,0,132.45,313.38Zm1.74,0a.58.58,0,1,0-.58.58A.58.58,0,0,0,134.19,313.38Zm1.73,0a.57.57,0,0,0-.57-.58.58.58,0,1,0,0,1.16A.57.57,0,0,0,135.92,313.38Zm1.74,0a.58.58,0,1,0-.58.58A.58.58,0,0,0,137.66,313.38Zm1.74,0a.58.58,0,1,0-.58.58A.58.58,0,0,0,139.4,313.38ZM130.71,318a.58.58,0,1,0-.58.58A.58.58,0,0,0,130.71,318Zm1.74,0a.58.58,0,1,0-.58.58A.58.58,0,0,0,132.45,318Zm1.74,0a.58.58,0,1,0-.58.58A.58.58,0,0,0,134.19,318Zm1.73,0a.57.57,0,0,0-.57-.58.58.58,0,0,0,0,1.16A.57.57,0,0,0,135.92,318Zm1.74,0a.58.58,0,1,0-.58.58A.58.58,0,0,0,137.66,318Zm1.74,0a.58.58,0,1,0-.58.58A.58.58,0,0,0,139.4,318Zm-2.75,6.66a.58.58,0,1,0-.58.58A.58.58,0,0,0,136.65,324.68Zm1.74,0a.58.58,0,1,0-.58.58A.58.58,0,0,0,138.39,324.68Zm1.74,0a.58.58,0,1,0-.58.58A.58.58,0,0,0,140.13,324.68Zm1.74,0a.58.58,0,1,0-.58.58A.58.58,0,0,0,141.87,324.68Zm1.74,0a.58.58,0,1,0-.58.58A.58.58,0,0,0,143.61,324.68Zm1.74,0a.58.58,0,1,0-.58.58A.58.58,0,0,0,145.35,324.68Zm-8.7,4.79a.58.58,0,1,0-.58.58A.58.58,0,0,0,136.65,329.47Zm1.74,0a.58.58,0,1,0-.58.58A.58.58,0,0,0,138.39,329.47Zm1.74,0a.58.58,0,1,0-.58.58A.58.58,0,0,0,140.13,329.47Zm1.74,0a.58.58,0,1,0-.58.58A.58.58,0,0,0,141.87,329.47Zm1.74,0a.58.58,0,1,0-.58.58A.58.58,0,0,0,143.61,329.47Zm1.74,0a.58.58,0,1,0-.58.58A.58.58,0,0,0,145.35,329.47Z" style="fill:#263238"></path><path d="M149.52,325.22h-2a.5.5,0,0,1,0-1h2a.5.5,0,0,1,0,1ZM150,327a.5.5,0,0,0-.5-.5h-2a.5.5,0,0,0,0,1h2A.5.5,0,0,0,150,327Zm0,2.32a.5.5,0,0,0-.5-.5h-2a.5.5,0,0,0-.5.5.5.5,0,0,0,.5.5h2A.51.51,0,0,0,150,329.36Zm0,2.32a.5.5,0,0,0-.5-.5h-2a.5.5,0,0,0-.5.5.5.5,0,0,0,.5.5h2A.51.51,0,0,0,150,331.68Zm0,2.32a.5.5,0,0,0-.5-.5h-2a.5.5,0,0,0-.5.5.5.5,0,0,0,.5.5h2A.51.51,0,0,0,150,334Zm0,2.32a.5.5,0,0,0-.5-.5h-2a.5.5,0,0,0-.5.5.5.5,0,0,0,.5.5h2A.51.51,0,0,0,150,336.32Zm0,2.31a.51.51,0,0,0-.5-.5h-2a.51.51,0,0,0,0,1h2A.51.51,0,0,0,150,338.63Zm0,2.32a.51.51,0,0,0-.5-.5h-2a.5.5,0,0,0-.5.5.5.5,0,0,0,.5.5h2A.5.5,0,0,0,150,341Zm7.59-16.23a.5.5,0,0,0-.5-.5h-5.33a.5.5,0,1,0,0,1h5.33A.5.5,0,0,0,157.61,324.72Zm0,2.32a.5.5,0,0,0-.5-.5h-5.33a.5.5,0,0,0,0,1h5.33A.5.5,0,0,0,157.61,327Zm0,2.32a.5.5,0,0,0-.5-.5h-5.33a.5.5,0,0,0-.5.5.5.5,0,0,0,.5.5h5.33A.51.51,0,0,0,157.61,329.36Zm0,2.32a.5.5,0,0,0-.5-.5h-5.33a.5.5,0,0,0-.5.5.5.5,0,0,0,.5.5h5.33A.51.51,0,0,0,157.61,331.68Zm0,2.32a.5.5,0,0,0-.5-.5h-5.33a.5.5,0,0,0-.5.5.5.5,0,0,0,.5.5h5.33A.51.51,0,0,0,157.61,334Zm6.38,2.32a.5.5,0,0,0-.51-.5h-5.32a.5.5,0,0,0-.5.5.5.5,0,0,0,.5.5h5.32A.51.51,0,0,0,164,336.32Zm0,2.31a.51.51,0,0,0-.51-.5h-5.32a.51.51,0,0,0,0,1h5.32A.51.51,0,0,0,164,338.63Zm0,2.32a.51.51,0,0,0-.51-.5h-5.32a.5.5,0,0,0-.5.5.5.5,0,0,0,.5.5h5.32A.5.5,0,0,0,164,341Zm-4-16.23a.58.58,0,1,0-.58.58A.58.58,0,0,0,160,324.72Zm1.74,0a.58.58,0,1,0-.58.58A.58.58,0,0,0,161.69,324.72Zm1.74,0a.58.58,0,1,0-.58.58A.58.58,0,0,0,163.43,324.72Zm1.74,0a.58.58,0,1,0-.58.58A.58.58,0,0,0,165.17,324.72Zm1.74,0a.58.58,0,1,0-.58.58A.58.58,0,0,0,166.91,324.72Zm1.74,0a.58.58,0,1,0-.58.58A.58.58,0,0,0,168.65,324.72Zm-8.7,4.64a.58.58,0,1,0-.58.58A.58.58,0,0,0,160,329.36Zm1.74,0a.58.58,0,1,0-.58.58A.58.58,0,0,0,161.69,329.36Zm1.74,0a.58.58,0,1,0-.58.58A.58.58,0,0,0,163.43,329.36Zm1.74,0a.58.58,0,1,0-.58.58A.58.58,0,0,0,165.17,329.36Zm1.74,0a.58.58,0,1,0-.58.58A.58.58,0,0,0,166.91,329.36Zm1.74,0a.58.58,0,1,0-.58.58A.58.58,0,0,0,168.65,329.36ZM165.89,336a.58.58,0,1,0-.58.58A.57.57,0,0,0,165.89,336Zm1.74,0a.58.58,0,1,0-.58.58A.58.58,0,0,0,167.63,336Zm1.74,0a.58.58,0,1,0-.58.58A.58.58,0,0,0,169.37,336Zm1.74,0a.58.58,0,1,0-.58.58A.58.58,0,0,0,171.11,336Zm1.74,0a.58.58,0,1,0-.58.58A.58.58,0,0,0,172.85,336Zm1.74,0a.58.58,0,1,0-.58.58A.58.58,0,0,0,174.59,336Zm-8.7,4.78a.58.58,0,1,0-.58.58A.57.57,0,0,0,165.89,340.81Zm1.74,0a.58.58,0,1,0-.58.58A.58.58,0,0,0,167.63,340.81Zm1.74,0a.58.58,0,1,0-.58.58A.58.58,0,0,0,169.37,340.81Zm1.74,0a.58.58,0,1,0-.58.58A.58.58,0,0,0,171.11,340.81Zm1.74,0a.58.58,0,1,0-.58.58A.58.58,0,0,0,172.85,340.81Zm1.74,0a.58.58,0,1,0-.58.58A.58.58,0,0,0,174.59,340.81Zm1.24-16.09a.5.5,0,0,0-.5-.5H170a.5.5,0,0,0,0,1h5.32A.5.5,0,0,0,175.83,324.72Zm0,2.32a.5.5,0,0,0-.5-.5H170a.5.5,0,0,0,0,1h5.32A.5.5,0,0,0,175.83,327Zm0,2.32a.5.5,0,0,0-.5-.5H170a.5.5,0,0,0-.5.5.5.5,0,0,0,.5.5h5.32A.5.5,0,0,0,175.83,329.36Zm0,2.32a.5.5,0,0,0-.5-.5H170a.5.5,0,0,0-.5.5.5.5,0,0,0,.5.5h5.32A.5.5,0,0,0,175.83,331.68Zm0,2.32a.5.5,0,0,0-.5-.5H170a.5.5,0,0,0-.5.5.5.5,0,0,0,.5.5h5.32A.5.5,0,0,0,175.83,334Zm6.38,2.32a.5.5,0,0,0-.5-.5h-5.33a.5.5,0,0,0-.5.5.51.51,0,0,0,.5.5h5.33A.5.5,0,0,0,182.21,336.32Zm0,2.31a.5.5,0,0,0-.5-.5h-5.33a.51.51,0,0,0,0,1h5.33A.5.5,0,0,0,182.21,338.63Zm0,2.32a.5.5,0,0,0-.5-.5h-5.33a.51.51,0,0,0-.5.5.5.5,0,0,0,.5.5h5.33A.5.5,0,0,0,182.21,341Zm-4-16.23a.58.58,0,1,0-.58.58A.58.58,0,0,0,178.18,324.72Zm1.74,0a.58.58,0,1,0-.58.58A.58.58,0,0,0,179.92,324.72Zm1.74,0a.58.58,0,1,0-.58.58A.58.58,0,0,0,181.66,324.72Zm1.73,0a.58.58,0,1,0-.57.58A.57.57,0,0,0,183.39,324.72Zm1.74,0a.58.58,0,1,0-.58.58A.58.58,0,0,0,185.13,324.72Zm1.74,0a.58.58,0,1,0-.58.58A.58.58,0,0,0,186.87,324.72Zm-8.69,4.64a.58.58,0,1,0-.58.58A.58.58,0,0,0,178.18,329.36Zm1.74,0a.58.58,0,1,0-.58.58A.58.58,0,0,0,179.92,329.36Zm1.74,0a.58.58,0,1,0-.58.58A.58.58,0,0,0,181.66,329.36Zm1.73,0a.58.58,0,1,0-.57.58A.57.57,0,0,0,183.39,329.36Zm1.74,0a.58.58,0,1,0-.58.58A.58.58,0,0,0,185.13,329.36Zm1.74,0a.58.58,0,1,0-.58.58A.58.58,0,0,0,186.87,329.36ZM184.12,336a.58.58,0,1,0-.58.58A.58.58,0,0,0,184.12,336Zm1.74,0a.58.58,0,1,0-.58.58A.58.58,0,0,0,185.86,336Zm1.74,0a.58.58,0,1,0-.58.58A.58.58,0,0,0,187.6,336Zm1.74,0a.58.58,0,1,0-.58.58A.58.58,0,0,0,189.34,336Zm1.74,0a.58.58,0,1,0-.58.58A.58.58,0,0,0,191.08,336Zm1.74,0a.58.58,0,1,0-.58.58A.58.58,0,0,0,192.82,336Zm-8.7,4.78a.58.58,0,1,0-.58.58A.58.58,0,0,0,184.12,340.81Zm1.74,0a.58.58,0,1,0-.58.58A.58.58,0,0,0,185.86,340.81Zm1.74,0a.58.58,0,1,0-.58.58A.58.58,0,0,0,187.6,340.81Zm1.74,0a.58.58,0,1,0-.58.58A.58.58,0,0,0,189.34,340.81Zm1.74,0a.58.58,0,1,0-.58.58A.58.58,0,0,0,191.08,340.81Zm1.74,0a.58.58,0,1,0-.58.58A.58.58,0,0,0,192.82,340.81Zm1.24-16.09a.5.5,0,0,0-.5-.5h-5.33a.5.5,0,0,0,0,1h5.33A.5.5,0,0,0,194.06,324.72Zm0,2.32a.5.5,0,0,0-.5-.5h-5.33a.5.5,0,1,0,0,1h5.33A.5.5,0,0,0,194.06,327Zm0,2.32a.5.5,0,0,0-.5-.5h-5.33a.5.5,0,0,0-.5.5.5.5,0,0,0,.5.5h5.33A.51.51,0,0,0,194.06,329.36Zm0,2.32a.5.5,0,0,0-.5-.5h-5.33a.5.5,0,0,0-.5.5.5.5,0,0,0,.5.5h5.33A.51.51,0,0,0,194.06,331.68Zm0,2.32a.5.5,0,0,0-.5-.5h-5.33a.5.5,0,0,0-.5.5.5.5,0,0,0,.5.5h5.33A.51.51,0,0,0,194.06,334Zm6.38,2.32a.5.5,0,0,0-.51-.5h-5.32a.5.5,0,0,0-.5.5.5.5,0,0,0,.5.5h5.32A.51.51,0,0,0,200.44,336.32Zm0,2.31a.51.51,0,0,0-.51-.5h-5.32a.51.51,0,0,0,0,1h5.32A.51.51,0,0,0,200.44,338.63Zm0,2.32a.51.51,0,0,0-.51-.5h-5.32a.5.5,0,0,0-.5.5.5.5,0,0,0,.5.5h5.32A.5.5,0,0,0,200.44,341Zm-4-16.23a.58.58,0,1,0-.58.58A.58.58,0,0,0,196.4,324.72Zm1.74,0a.58.58,0,1,0-.58.58A.58.58,0,0,0,198.14,324.72Zm1.74,0a.58.58,0,1,0-.58.58A.58.58,0,0,0,199.88,324.72Zm1.74,0a.58.58,0,1,0-.58.58A.58.58,0,0,0,201.62,324.72Zm1.74,0a.58.58,0,1,0-.58.58A.58.58,0,0,0,203.36,324.72Zm1.74,0a.58.58,0,1,0-.58.58A.58.58,0,0,0,205.1,324.72Zm-8.7,4.64a.58.58,0,1,0-.58.58A.58.58,0,0,0,196.4,329.36Zm1.74,0a.58.58,0,1,0-.58.58A.58.58,0,0,0,198.14,329.36Zm1.74,0a.58.58,0,1,0-.58.58A.58.58,0,0,0,199.88,329.36Zm1.74,0a.58.58,0,1,0-.58.58A.58.58,0,0,0,201.62,329.36Zm1.74,0a.58.58,0,1,0-.58.58A.58.58,0,0,0,203.36,329.36Zm1.74,0a.58.58,0,1,0-.58.58A.58.58,0,0,0,205.1,329.36ZM202.34,336a.58.58,0,1,0-.58.58A.57.57,0,0,0,202.34,336Zm1.74,0a.58.58,0,1,0-.58.58A.58.58,0,0,0,204.08,336Zm1.74,0a.58.58,0,1,0-.58.58A.58.58,0,0,0,205.82,336Zm1.74,0a.58.58,0,1,0-.58.58A.58.58,0,0,0,207.56,336Zm1.74,0a.58.58,0,1,0-.58.58A.58.58,0,0,0,209.3,336Zm1.74,0a.58.58,0,1,0-.58.58A.58.58,0,0,0,211,336Zm-8.7,4.78a.58.58,0,1,0-.58.58A.57.57,0,0,0,202.34,340.81Zm1.74,0a.58.58,0,1,0-.58.58A.58.58,0,0,0,204.08,340.81Zm1.74,0a.58.58,0,1,0-.58.58A.58.58,0,0,0,205.82,340.81Zm1.74,0a.58.58,0,1,0-.58.58A.58.58,0,0,0,207.56,340.81Zm1.74,0a.58.58,0,1,0-.58.58A.58.58,0,0,0,209.3,340.81Zm1.74,0a.58.58,0,1,0-.58.58A.58.58,0,0,0,211,340.81Zm1.24-16.09a.5.5,0,0,0-.5-.5h-5.32a.5.5,0,1,0,0,1h5.32A.5.5,0,0,0,212.28,324.72Zm0,2.32a.5.5,0,0,0-.5-.5h-5.32a.5.5,0,1,0,0,1h5.32A.5.5,0,0,0,212.28,327Zm0,2.32a.5.5,0,0,0-.5-.5h-5.32a.5.5,0,0,0-.51.5.51.51,0,0,0,.51.5h5.32A.5.5,0,0,0,212.28,329.36Zm0,2.32a.5.5,0,0,0-.5-.5h-5.32a.5.5,0,0,0-.51.5.51.51,0,0,0,.51.5h5.32A.5.5,0,0,0,212.28,331.68Zm0,2.32a.5.5,0,0,0-.5-.5h-5.32a.5.5,0,0,0-.51.5.51.51,0,0,0,.51.5h5.32A.5.5,0,0,0,212.28,334Zm6.38,2.32a.5.5,0,0,0-.5-.5h-5.33a.5.5,0,0,0-.5.5.51.51,0,0,0,.5.5h5.33A.5.5,0,0,0,218.66,336.32Zm0,2.31a.5.5,0,0,0-.5-.5h-5.33a.51.51,0,0,0,0,1h5.33A.5.5,0,0,0,218.66,338.63Zm0,2.32a.5.5,0,0,0-.5-.5h-5.33a.51.51,0,0,0-.5.5.5.5,0,0,0,.5.5h5.33A.5.5,0,0,0,218.66,341Zm-4-16.23a.58.58,0,1,0-.58.58A.58.58,0,0,0,214.63,324.72Zm1.74,0a.58.58,0,1,0-.58.58A.58.58,0,0,0,216.37,324.72Zm1.74,0a.58.58,0,1,0-.58.58A.58.58,0,0,0,218.11,324.72Zm1.73,0a.58.58,0,1,0-.58.58A.57.57,0,0,0,219.84,324.72Zm1.74,0a.58.58,0,1,0-.58.58A.58.58,0,0,0,221.58,324.72Zm1.74,0a.58.58,0,1,0-.58.58A.58.58,0,0,0,223.32,324.72Zm-8.69,4.64a.58.58,0,1,0-.58.58A.58.58,0,0,0,214.63,329.36Zm1.74,0a.58.58,0,1,0-.58.58A.58.58,0,0,0,216.37,329.36Zm1.74,0a.58.58,0,1,0-.58.58A.58.58,0,0,0,218.11,329.36Zm1.73,0a.58.58,0,1,0-.58.58A.57.57,0,0,0,219.84,329.36Zm1.74,0a.58.58,0,1,0-.58.58A.58.58,0,0,0,221.58,329.36Zm1.74,0a.58.58,0,1,0-.58.58A.58.58,0,0,0,223.32,329.36ZM220.57,336a.58.58,0,1,0-.58.58A.58.58,0,0,0,220.57,336Zm1.74,0a.58.58,0,1,0-.58.58A.58.58,0,0,0,222.31,336Zm1.74,0a.58.58,0,1,0-.58.58A.58.58,0,0,0,224.05,336Zm1.74,0a.58.58,0,1,0-.58.58A.58.58,0,0,0,225.79,336Zm1.74,0a.58.58,0,1,0-.58.58A.58.58,0,0,0,227.53,336Zm1.74,0a.58.58,0,1,0-.58.58A.58.58,0,0,0,229.27,336Zm-8.7,4.78a.58.58,0,1,0-.58.58A.58.58,0,0,0,220.57,340.81Zm1.74,0a.58.58,0,1,0-.58.58A.58.58,0,0,0,222.31,340.81Zm1.74,0a.58.58,0,1,0-.58.58A.58.58,0,0,0,224.05,340.81Zm1.74,0a.58.58,0,1,0-.58.58A.58.58,0,0,0,225.79,340.81Zm1.74,0a.58.58,0,1,0-.58.58A.58.58,0,0,0,227.53,340.81Zm1.74,0a.58.58,0,1,0-.58.58A.58.58,0,0,0,229.27,340.81Z" style="fill:#263238"></path><path d="M149.52,346h-2a.5.5,0,0,1-.5-.5.5.5,0,0,1,.5-.5h2a.5.5,0,0,1,.5.5A.51.51,0,0,1,149.52,346Zm.5,1.82a.5.5,0,0,0-.5-.5h-2a.5.5,0,0,0-.5.5.5.5,0,0,0,.5.5h2A.51.51,0,0,0,150,347.81Zm0,2.32a.5.5,0,0,0-.5-.5h-2a.5.5,0,0,0-.5.5.5.5,0,0,0,.5.5h2A.51.51,0,0,0,150,350.13Zm0,2.32a.51.51,0,0,0-.5-.51h-2a.51.51,0,0,0,0,1h2A.51.51,0,0,0,150,352.45Zm0,2.31a.51.51,0,0,0-.5-.5h-2a.5.5,0,0,0-.5.5.5.5,0,0,0,.5.5h2A.5.5,0,0,0,150,354.76Zm0,2.32a.51.51,0,0,0-.5-.5h-2a.5.5,0,0,0-.5.5.5.5,0,0,0,.5.5h2A.5.5,0,0,0,150,357.08Zm0,2.32a.51.51,0,0,0-.5-.5h-2a.5.5,0,0,0-.5.5.5.5,0,0,0,.5.5h2A.5.5,0,0,0,150,359.4Zm0,2.32a.51.51,0,0,0-.5-.5h-2a.5.5,0,0,0-.5.5.5.5,0,0,0,.5.5h2A.5.5,0,0,0,150,361.72Zm7.59-16.23a.5.5,0,0,0-.5-.5h-5.33a.5.5,0,0,0-.5.5.5.5,0,0,0,.5.5h5.33A.51.51,0,0,0,157.61,345.49Zm0,2.32a.5.5,0,0,0-.5-.5h-5.33a.5.5,0,0,0-.5.5.5.5,0,0,0,.5.5h5.33A.51.51,0,0,0,157.61,347.81Zm0,2.32a.5.5,0,0,0-.5-.5h-5.33a.5.5,0,0,0-.5.5.5.5,0,0,0,.5.5h5.33A.51.51,0,0,0,157.61,350.13Zm0,2.32a.51.51,0,0,0-.5-.51h-5.33a.51.51,0,0,0,0,1h5.33A.51.51,0,0,0,157.61,352.45Zm0,2.31a.51.51,0,0,0-.5-.5h-5.33a.5.5,0,0,0-.5.5.5.5,0,0,0,.5.5h5.33A.5.5,0,0,0,157.61,354.76Zm6.38,2.32a.51.51,0,0,0-.51-.5h-5.32a.5.5,0,0,0-.5.5.5.5,0,0,0,.5.5h5.32A.5.5,0,0,0,164,357.08Zm0,2.32a.51.51,0,0,0-.51-.5h-5.32a.5.5,0,0,0-.5.5.5.5,0,0,0,.5.5h5.32A.5.5,0,0,0,164,359.4Zm0,2.32a.51.51,0,0,0-.51-.5h-5.32a.5.5,0,0,0-.5.5.5.5,0,0,0,.5.5h5.32A.5.5,0,0,0,164,361.72Zm-4-16.23a.58.58,0,1,0-.58.58A.58.58,0,0,0,160,345.49Zm1.74,0a.58.58,0,1,0-.58.58A.58.58,0,0,0,161.69,345.49Zm1.74,0a.58.58,0,1,0-.58.58A.58.58,0,0,0,163.43,345.49Zm1.74,0a.58.58,0,1,0-.58.58A.58.58,0,0,0,165.17,345.49Zm1.74,0a.58.58,0,1,0-.58.58A.58.58,0,0,0,166.91,345.49Zm1.74,0a.58.58,0,1,0-.58.58A.58.58,0,0,0,168.65,345.49Zm-8.7,4.64a.58.58,0,1,0-.58.58A.58.58,0,0,0,160,350.13Zm1.74,0a.58.58,0,1,0-.58.58A.58.58,0,0,0,161.69,350.13Zm1.74,0a.58.58,0,1,0-.58.58A.58.58,0,0,0,163.43,350.13Zm1.74,0a.58.58,0,1,0-.58.58A.58.58,0,0,0,165.17,350.13Zm1.74,0a.58.58,0,1,0-.58.58A.58.58,0,0,0,166.91,350.13Zm1.74,0a.58.58,0,1,0-.58.58A.58.58,0,0,0,168.65,350.13Zm-2.76,6.66a.58.58,0,1,0-.58.58A.57.57,0,0,0,165.89,356.79Zm1.74,0a.58.58,0,1,0-.58.58A.58.58,0,0,0,167.63,356.79Zm1.74,0a.58.58,0,1,0-.58.58A.58.58,0,0,0,169.37,356.79Zm1.74,0a.58.58,0,1,0-.58.58A.58.58,0,0,0,171.11,356.79Zm1.74,0a.58.58,0,1,0-.58.58A.58.58,0,0,0,172.85,356.79Zm1.74,0a.58.58,0,1,0-.58.58A.58.58,0,0,0,174.59,356.79Zm-8.7,4.79a.58.58,0,1,0-.58.58A.57.57,0,0,0,165.89,361.58Zm1.74,0a.58.58,0,1,0-.58.58A.58.58,0,0,0,167.63,361.58Zm1.74,0a.58.58,0,1,0-.58.58A.58.58,0,0,0,169.37,361.58Zm1.74,0a.58.58,0,1,0-.58.58A.58.58,0,0,0,171.11,361.58Zm1.74,0a.58.58,0,1,0-.58.58A.58.58,0,0,0,172.85,361.58Zm1.74,0a.58.58,0,1,0-.58.58A.58.58,0,0,0,174.59,361.58Zm1.24-16.09a.5.5,0,0,0-.5-.5H170a.5.5,0,0,0-.5.5.5.5,0,0,0,.5.5h5.32A.5.5,0,0,0,175.83,345.49Zm0,2.32a.5.5,0,0,0-.5-.5H170a.5.5,0,0,0-.5.5.5.5,0,0,0,.5.5h5.32A.5.5,0,0,0,175.83,347.81Zm0,2.32a.5.5,0,0,0-.5-.5H170a.5.5,0,0,0-.5.5.5.5,0,0,0,.5.5h5.32A.5.5,0,0,0,175.83,350.13Zm0,2.32a.5.5,0,0,0-.5-.51H170a.51.51,0,0,0,0,1h5.32A.5.5,0,0,0,175.83,352.45Zm0,2.31a.5.5,0,0,0-.5-.5H170a.5.5,0,0,0-.5.5.5.5,0,0,0,.5.5h5.32A.5.5,0,0,0,175.83,354.76Zm6.38,2.32a.5.5,0,0,0-.5-.5h-5.33a.51.51,0,0,0-.5.5.5.5,0,0,0,.5.5h5.33A.5.5,0,0,0,182.21,357.08Zm0,2.32a.5.5,0,0,0-.5-.5h-5.33a.51.51,0,0,0-.5.5.5.5,0,0,0,.5.5h5.33A.5.5,0,0,0,182.21,359.4Zm0,2.32a.5.5,0,0,0-.5-.5h-5.33a.51.51,0,0,0-.5.5.5.5,0,0,0,.5.5h5.33A.5.5,0,0,0,182.21,361.72Zm-4-16.23a.58.58,0,1,0-.58.58A.58.58,0,0,0,178.18,345.49Zm1.74,0a.58.58,0,1,0-.58.58A.58.58,0,0,0,179.92,345.49Zm1.74,0a.58.58,0,1,0-.58.58A.58.58,0,0,0,181.66,345.49Zm1.73,0a.58.58,0,1,0-.57.58A.57.57,0,0,0,183.39,345.49Zm1.74,0a.58.58,0,1,0-.58.58A.58.58,0,0,0,185.13,345.49Zm1.74,0a.58.58,0,1,0-.58.58A.58.58,0,0,0,186.87,345.49Zm-8.69,4.64a.58.58,0,1,0-.58.58A.58.58,0,0,0,178.18,350.13Zm1.74,0a.58.58,0,1,0-.58.58A.58.58,0,0,0,179.92,350.13Zm1.74,0a.58.58,0,1,0-.58.58A.58.58,0,0,0,181.66,350.13Zm1.73,0a.58.58,0,1,0-.57.58A.57.57,0,0,0,183.39,350.13Zm1.74,0a.58.58,0,1,0-.58.58A.58.58,0,0,0,185.13,350.13Zm1.74,0a.58.58,0,1,0-.58.58A.58.58,0,0,0,186.87,350.13Zm-2.75,6.66a.58.58,0,1,0-.58.58A.58.58,0,0,0,184.12,356.79Zm1.74,0a.58.58,0,1,0-.58.58A.58.58,0,0,0,185.86,356.79Zm1.74,0a.58.58,0,1,0-.58.58A.58.58,0,0,0,187.6,356.79Zm1.74,0a.58.58,0,1,0-.58.58A.58.58,0,0,0,189.34,356.79Zm1.74,0a.58.58,0,1,0-.58.58A.58.58,0,0,0,191.08,356.79Zm1.74,0a.58.58,0,1,0-.58.58A.58.58,0,0,0,192.82,356.79Zm-8.7,4.79a.58.58,0,1,0-.58.58A.58.58,0,0,0,184.12,361.58Zm1.74,0a.58.58,0,1,0-.58.58A.58.58,0,0,0,185.86,361.58Zm1.74,0a.58.58,0,1,0-.58.58A.58.58,0,0,0,187.6,361.58Zm1.74,0a.58.58,0,1,0-.58.58A.58.58,0,0,0,189.34,361.58Zm1.74,0a.58.58,0,1,0-.58.58A.58.58,0,0,0,191.08,361.58Zm1.74,0a.58.58,0,1,0-.58.58A.58.58,0,0,0,192.82,361.58Zm1.24-16.09a.5.5,0,0,0-.5-.5h-5.33a.5.5,0,0,0-.5.5.5.5,0,0,0,.5.5h5.33A.51.51,0,0,0,194.06,345.49Zm0,2.32a.5.5,0,0,0-.5-.5h-5.33a.5.5,0,0,0-.5.5.5.5,0,0,0,.5.5h5.33A.51.51,0,0,0,194.06,347.81Zm0,2.32a.5.5,0,0,0-.5-.5h-5.33a.5.5,0,0,0-.5.5.5.5,0,0,0,.5.5h5.33A.51.51,0,0,0,194.06,350.13Zm0,2.32a.51.51,0,0,0-.5-.51h-5.33a.51.51,0,0,0,0,1h5.33A.51.51,0,0,0,194.06,352.45Zm0,2.31a.51.51,0,0,0-.5-.5h-5.33a.5.5,0,0,0-.5.5.5.5,0,0,0,.5.5h5.33A.5.5,0,0,0,194.06,354.76Zm6.38,2.32a.51.51,0,0,0-.51-.5h-5.32a.5.5,0,0,0-.5.5.5.5,0,0,0,.5.5h5.32A.5.5,0,0,0,200.44,357.08Zm0,2.32a.51.51,0,0,0-.51-.5h-5.32a.5.5,0,0,0-.5.5.5.5,0,0,0,.5.5h5.32A.5.5,0,0,0,200.44,359.4Zm0,2.32a.51.51,0,0,0-.51-.5h-5.32a.5.5,0,0,0-.5.5.5.5,0,0,0,.5.5h5.32A.5.5,0,0,0,200.44,361.72Zm-4-16.23a.58.58,0,1,0-.58.58A.58.58,0,0,0,196.4,345.49Zm1.74,0a.58.58,0,1,0-.58.58A.58.58,0,0,0,198.14,345.49Zm1.74,0a.58.58,0,1,0-.58.58A.58.58,0,0,0,199.88,345.49Zm1.74,0a.58.58,0,1,0-.58.58A.58.58,0,0,0,201.62,345.49Zm1.74,0a.58.58,0,1,0-.58.58A.58.58,0,0,0,203.36,345.49Zm1.74,0a.58.58,0,1,0-.58.58A.58.58,0,0,0,205.1,345.49Zm-8.7,4.64a.58.58,0,1,0-.58.58A.58.58,0,0,0,196.4,350.13Zm1.74,0a.58.58,0,1,0-.58.58A.58.58,0,0,0,198.14,350.13Zm1.74,0a.58.58,0,1,0-.58.58A.58.58,0,0,0,199.88,350.13Zm1.74,0a.58.58,0,1,0-.58.58A.58.58,0,0,0,201.62,350.13Zm1.74,0a.58.58,0,1,0-.58.58A.58.58,0,0,0,203.36,350.13Zm1.74,0a.58.58,0,1,0-.58.58A.58.58,0,0,0,205.1,350.13Zm-2.76,6.66a.58.58,0,1,0-.58.58A.57.57,0,0,0,202.34,356.79Zm1.74,0a.58.58,0,1,0-.58.58A.58.58,0,0,0,204.08,356.79Zm1.74,0a.58.58,0,1,0-.58.58A.58.58,0,0,0,205.82,356.79Zm1.74,0a.58.58,0,1,0-.58.58A.58.58,0,0,0,207.56,356.79Zm1.74,0a.58.58,0,1,0-.58.58A.58.58,0,0,0,209.3,356.79Zm1.74,0a.58.58,0,1,0-.58.58A.58.58,0,0,0,211,356.79Zm-8.7,4.79a.58.58,0,1,0-.58.58A.57.57,0,0,0,202.34,361.58Zm1.74,0a.58.58,0,1,0-.58.58A.58.58,0,0,0,204.08,361.58Zm1.74,0a.58.58,0,1,0-.58.58A.58.58,0,0,0,205.82,361.58Zm1.74,0a.58.58,0,1,0-.58.58A.58.58,0,0,0,207.56,361.58Zm1.74,0a.58.58,0,1,0-.58.58A.58.58,0,0,0,209.3,361.58Zm1.74,0a.58.58,0,1,0-.58.58A.58.58,0,0,0,211,361.58Zm1.24-16.09a.5.5,0,0,0-.5-.5h-5.32a.5.5,0,0,0-.51.5.51.51,0,0,0,.51.5h5.32A.5.5,0,0,0,212.28,345.49Zm0,2.32a.5.5,0,0,0-.5-.5h-5.32a.5.5,0,0,0-.51.5.51.51,0,0,0,.51.5h5.32A.5.5,0,0,0,212.28,347.81Zm0,2.32a.5.5,0,0,0-.5-.5h-5.32a.5.5,0,0,0-.51.5.51.51,0,0,0,.51.5h5.32A.5.5,0,0,0,212.28,350.13Zm0,2.32a.5.5,0,0,0-.5-.51h-5.32a.51.51,0,1,0,0,1h5.32A.5.5,0,0,0,212.28,352.45Zm0,2.31a.5.5,0,0,0-.5-.5h-5.32a.51.51,0,0,0-.51.5.5.5,0,0,0,.51.5h5.32A.5.5,0,0,0,212.28,354.76Zm6.38,2.32a.5.5,0,0,0-.5-.5h-5.33a.51.51,0,0,0-.5.5.5.5,0,0,0,.5.5h5.33A.5.5,0,0,0,218.66,357.08Zm0,2.32a.5.5,0,0,0-.5-.5h-5.33a.51.51,0,0,0-.5.5.5.5,0,0,0,.5.5h5.33A.5.5,0,0,0,218.66,359.4Zm0,2.32a.5.5,0,0,0-.5-.5h-5.33a.51.51,0,0,0-.5.5.5.5,0,0,0,.5.5h5.33A.5.5,0,0,0,218.66,361.72Zm-4-16.23a.58.58,0,1,0-.58.58A.58.58,0,0,0,214.63,345.49Zm1.74,0a.58.58,0,1,0-.58.58A.58.58,0,0,0,216.37,345.49Zm1.74,0a.58.58,0,1,0-.58.58A.58.58,0,0,0,218.11,345.49Zm1.73,0a.58.58,0,1,0-.58.58A.57.57,0,0,0,219.84,345.49Zm1.74,0a.58.58,0,1,0-.58.58A.58.58,0,0,0,221.58,345.49Zm1.74,0a.58.58,0,1,0-.58.58A.58.58,0,0,0,223.32,345.49Zm-8.69,4.64a.58.58,0,1,0-.58.58A.58.58,0,0,0,214.63,350.13Zm1.74,0a.58.58,0,1,0-.58.58A.58.58,0,0,0,216.37,350.13Zm1.74,0a.58.58,0,1,0-.58.58A.58.58,0,0,0,218.11,350.13Zm1.73,0a.58.58,0,1,0-.58.58A.57.57,0,0,0,219.84,350.13Zm1.74,0a.58.58,0,1,0-.58.58A.58.58,0,0,0,221.58,350.13Zm1.74,0a.58.58,0,1,0-.58.58A.58.58,0,0,0,223.32,350.13Zm-2.75,6.66a.58.58,0,1,0-.58.58A.58.58,0,0,0,220.57,356.79Zm1.74,0a.58.58,0,1,0-.58.58A.58.58,0,0,0,222.31,356.79Zm1.74,0a.58.58,0,1,0-.58.58A.58.58,0,0,0,224.05,356.79Zm1.74,0a.58.58,0,1,0-.58.58A.58.58,0,0,0,225.79,356.79Zm1.74,0a.58.58,0,1,0-.58.58A.58.58,0,0,0,227.53,356.79Zm1.74,0a.58.58,0,1,0-.58.58A.58.58,0,0,0,229.27,356.79Zm-8.7,4.79a.58.58,0,1,0-.58.58A.58.58,0,0,0,220.57,361.58Zm1.74,0a.58.58,0,1,0-.58.58A.58.58,0,0,0,222.31,361.58Zm1.74,0a.58.58,0,1,0-.58.58A.58.58,0,0,0,224.05,361.58Zm1.74,0a.58.58,0,1,0-.58.58A.58.58,0,0,0,225.79,361.58Zm1.74,0a.58.58,0,1,0-.58.58A.58.58,0,0,0,227.53,361.58Zm1.74,0a.58.58,0,1,0-.58.58A.58.58,0,0,0,229.27,361.58Z" style="fill:#263238"></path><path d="M120.27,336.62h-2a.51.51,0,0,1-.5-.5.5.5,0,0,1,.5-.5h2a.5.5,0,0,1,.5.5A.5.5,0,0,1,120.27,336.62Zm.5,1.81a.5.5,0,0,0-.5-.5h-2a.51.51,0,0,0,0,1h2A.5.5,0,0,0,120.77,338.43Zm0,2.32a.5.5,0,0,0-.5-.5h-2a.51.51,0,0,0-.5.5.5.5,0,0,0,.5.5h2A.5.5,0,0,0,120.77,340.75Zm0,2.32a.5.5,0,0,0-.5-.5h-2a.51.51,0,0,0-.5.5.5.5,0,0,0,.5.5h2A.5.5,0,0,0,120.77,343.07Zm0,2.32a.5.5,0,0,0-.5-.5h-2a.51.51,0,0,0-.5.5.5.5,0,0,0,.5.5h2A.5.5,0,0,0,120.77,345.39Zm0,2.32a.5.5,0,0,0-.5-.5h-2a.5.5,0,0,0,0,1h2A.5.5,0,0,0,120.77,347.71Zm0,2.32a.5.5,0,0,0-.5-.5h-2a.5.5,0,0,0,0,1h2A.5.5,0,0,0,120.77,350Zm0,2.32a.5.5,0,0,0-.5-.5h-2a.5.5,0,0,0,0,1h2A.5.5,0,0,0,120.77,352.35Zm7.59-16.23a.5.5,0,0,0-.5-.5h-5.32a.5.5,0,0,0-.5.5.5.5,0,0,0,.5.5h5.32A.5.5,0,0,0,128.36,336.12Zm0,2.31a.5.5,0,0,0-.5-.5h-5.32a.51.51,0,0,0,0,1h5.32A.5.5,0,0,0,128.36,338.43Zm0,2.32a.5.5,0,0,0-.5-.5h-5.32a.5.5,0,0,0-.5.5.5.5,0,0,0,.5.5h5.32A.5.5,0,0,0,128.36,340.75Zm0,2.32a.5.5,0,0,0-.5-.5h-5.32a.5.5,0,0,0-.5.5.5.5,0,0,0,.5.5h5.32A.5.5,0,0,0,128.36,343.07Zm0,2.32a.5.5,0,0,0-.5-.5h-5.32a.5.5,0,0,0-.5.5.5.5,0,0,0,.5.5h5.32A.5.5,0,0,0,128.36,345.39Zm6.38,2.32a.5.5,0,0,0-.5-.5h-5.33a.5.5,0,0,0,0,1h5.33A.5.5,0,0,0,134.74,347.71Zm0,2.32a.5.5,0,0,0-.5-.5h-5.33a.5.5,0,1,0,0,1h5.33A.5.5,0,0,0,134.74,350Zm0,2.32a.5.5,0,0,0-.5-.5h-5.33a.5.5,0,1,0,0,1h5.33A.5.5,0,0,0,134.74,352.35Zm-4-16.23a.58.58,0,1,0-.58.58A.58.58,0,0,0,130.71,336.12Zm1.74,0a.58.58,0,1,0-.58.58A.58.58,0,0,0,132.45,336.12Zm1.74,0a.58.58,0,1,0-.58.58A.58.58,0,0,0,134.19,336.12Zm1.73,0a.57.57,0,0,0-.57-.58.58.58,0,1,0,0,1.16A.57.57,0,0,0,135.92,336.12Zm1.74,0a.58.58,0,1,0-.58.58A.58.58,0,0,0,137.66,336.12Zm1.74,0a.58.58,0,1,0-.58.58A.58.58,0,0,0,139.4,336.12Zm-8.69,4.63a.58.58,0,1,0-.58.58A.58.58,0,0,0,130.71,340.75Zm1.74,0a.58.58,0,1,0-.58.58A.58.58,0,0,0,132.45,340.75Zm1.74,0a.58.58,0,1,0-.58.58A.58.58,0,0,0,134.19,340.75Zm1.73,0a.57.57,0,0,0-.57-.58.58.58,0,1,0,0,1.16A.57.57,0,0,0,135.92,340.75Zm1.74,0a.58.58,0,1,0-.58.58A.58.58,0,0,0,137.66,340.75Zm1.74,0a.58.58,0,1,0-.58.58A.58.58,0,0,0,139.4,340.75Zm-2.75,6.67a.58.58,0,1,0-.58.58A.58.58,0,0,0,136.65,347.42Zm1.74,0a.58.58,0,1,0-.58.58A.58.58,0,0,0,138.39,347.42Zm1.74,0a.58.58,0,1,0-.58.58A.58.58,0,0,0,140.13,347.42Zm1.74,0a.58.58,0,1,0-.58.58A.58.58,0,0,0,141.87,347.42Zm1.74,0a.58.58,0,1,0-.58.58A.58.58,0,0,0,143.61,347.42Zm1.74,0a.58.58,0,1,0-.58.58A.58.58,0,0,0,145.35,347.42Zm-8.7,4.78a.58.58,0,1,0-.58.58A.58.58,0,0,0,136.65,352.2Zm1.74,0a.58.58,0,1,0-.58.58A.58.58,0,0,0,138.39,352.2Zm1.74,0a.58.58,0,1,0-.58.58A.58.58,0,0,0,140.13,352.2Zm1.74,0a.58.58,0,1,0-.58.58A.58.58,0,0,0,141.87,352.2Zm1.74,0a.58.58,0,1,0-.58.58A.58.58,0,0,0,143.61,352.2Zm1.74,0a.58.58,0,1,0-.58.58A.58.58,0,0,0,145.35,352.2Z" style="fill:#263238"></path><path d="M149.52,348h-2a.5.5,0,0,1-.5-.5.5.5,0,0,1,.5-.5h2a.5.5,0,0,1,.5.5A.51.51,0,0,1,149.52,348Zm.5,1.82a.5.5,0,0,0-.5-.5h-2a.5.5,0,0,0-.5.5.5.5,0,0,0,.5.5h2A.51.51,0,0,0,150,349.78Zm0,2.32a.5.5,0,0,0-.5-.5h-2a.5.5,0,0,0-.5.5.5.5,0,0,0,.5.5h2A.51.51,0,0,0,150,352.1Zm0,2.31a.51.51,0,0,0-.5-.5h-2a.51.51,0,0,0,0,1h2A.51.51,0,0,0,150,354.41Zm0,2.32a.51.51,0,0,0-.5-.5h-2a.5.5,0,0,0-.5.5.5.5,0,0,0,.5.5h2A.5.5,0,0,0,150,356.73Zm0,2.32a.51.51,0,0,0-.5-.5h-2a.5.5,0,0,0-.5.5.5.5,0,0,0,.5.5h2A.5.5,0,0,0,150,359.05Zm0,2.32a.51.51,0,0,0-.5-.5h-2a.5.5,0,0,0-.5.5.5.5,0,0,0,.5.5h2A.5.5,0,0,0,150,361.37Zm0,2.32a.51.51,0,0,0-.5-.5h-2a.5.5,0,0,0-.5.5.5.5,0,0,0,.5.5h2A.5.5,0,0,0,150,363.69Zm7.59-16.23a.5.5,0,0,0-.5-.5h-5.33a.5.5,0,0,0-.5.5.5.5,0,0,0,.5.5h5.33A.51.51,0,0,0,157.61,347.46Zm0,2.32a.5.5,0,0,0-.5-.5h-5.33a.5.5,0,0,0-.5.5.5.5,0,0,0,.5.5h5.33A.51.51,0,0,0,157.61,349.78Zm0,2.32a.5.5,0,0,0-.5-.5h-5.33a.5.5,0,0,0-.5.5.5.5,0,0,0,.5.5h5.33A.51.51,0,0,0,157.61,352.1Zm0,2.31a.51.51,0,0,0-.5-.5h-5.33a.51.51,0,0,0,0,1h5.33A.51.51,0,0,0,157.61,354.41Zm0,2.32a.51.51,0,0,0-.5-.5h-5.33a.5.5,0,0,0-.5.5.5.5,0,0,0,.5.5h5.33A.5.5,0,0,0,157.61,356.73Zm6.38,2.32a.51.51,0,0,0-.51-.5h-5.32a.5.5,0,0,0-.5.5.5.5,0,0,0,.5.5h5.32A.5.5,0,0,0,164,359.05Zm0,2.32a.51.51,0,0,0-.51-.5h-5.32a.5.5,0,0,0-.5.5.5.5,0,0,0,.5.5h5.32A.5.5,0,0,0,164,361.37Zm0,2.32a.51.51,0,0,0-.51-.5h-5.32a.5.5,0,0,0-.5.5.5.5,0,0,0,.5.5h5.32A.5.5,0,0,0,164,363.69Zm-4-16.23a.58.58,0,1,0-.58.58A.58.58,0,0,0,160,347.46Zm1.74,0a.58.58,0,1,0-.58.58A.58.58,0,0,0,161.69,347.46Zm1.74,0a.58.58,0,1,0-.58.58A.58.58,0,0,0,163.43,347.46Zm1.74,0a.58.58,0,1,0-.58.58A.58.58,0,0,0,165.17,347.46Zm1.74,0a.58.58,0,1,0-.58.58A.58.58,0,0,0,166.91,347.46Zm1.74,0a.58.58,0,1,0-.58.58A.58.58,0,0,0,168.65,347.46ZM160,352.1a.58.58,0,1,0-.58.58A.58.58,0,0,0,160,352.1Zm1.74,0a.58.58,0,1,0-.58.58A.58.58,0,0,0,161.69,352.1Zm1.74,0a.58.58,0,1,0-.58.58A.58.58,0,0,0,163.43,352.1Zm1.74,0a.58.58,0,1,0-.58.58A.58.58,0,0,0,165.17,352.1Zm1.74,0a.58.58,0,1,0-.58.58A.58.58,0,0,0,166.91,352.1Zm1.74,0a.58.58,0,1,0-.58.58A.58.58,0,0,0,168.65,352.1Zm-2.76,6.66a.58.58,0,1,0-.58.58A.57.57,0,0,0,165.89,358.76Zm1.74,0a.58.58,0,1,0-.58.58A.58.58,0,0,0,167.63,358.76Zm1.74,0a.58.58,0,1,0-.58.58A.58.58,0,0,0,169.37,358.76Zm1.74,0a.58.58,0,1,0-.58.58A.58.58,0,0,0,171.11,358.76Zm1.74,0a.58.58,0,1,0-.58.58A.58.58,0,0,0,172.85,358.76Zm1.74,0a.58.58,0,1,0-.58.58A.58.58,0,0,0,174.59,358.76Zm-8.7,4.79a.58.58,0,1,0-.58.58A.57.57,0,0,0,165.89,363.55Zm1.74,0a.58.58,0,1,0-.58.58A.58.58,0,0,0,167.63,363.55Zm1.74,0a.58.58,0,1,0-.58.58A.58.58,0,0,0,169.37,363.55Zm1.74,0a.58.58,0,1,0-.58.58A.58.58,0,0,0,171.11,363.55Zm1.74,0a.58.58,0,1,0-.58.58A.58.58,0,0,0,172.85,363.55Zm1.74,0a.58.58,0,1,0-.58.58A.58.58,0,0,0,174.59,363.55Z" style="fill:#263238"></path><path d="M151.43,276.31h-2a.5.5,0,0,1-.5-.5.5.5,0,0,1,.5-.5h2a.51.51,0,0,1,.5.5A.5.5,0,0,1,151.43,276.31Zm.5,1.82a.51.51,0,0,0-.5-.5h-2a.5.5,0,0,0-.5.5.5.5,0,0,0,.5.5h2A.5.5,0,0,0,151.93,278.13Zm0,2.32a.51.51,0,0,0-.5-.5h-2a.5.5,0,0,0-.5.5.5.5,0,0,0,.5.5h2A.5.5,0,0,0,151.93,280.45Zm0,2.32a.5.5,0,0,0-.5-.5h-2a.5.5,0,1,0,0,1h2A.5.5,0,0,0,151.93,282.77Zm0,2.32a.5.5,0,0,0-.5-.5h-2a.5.5,0,0,0,0,1h2A.5.5,0,0,0,151.93,285.09Zm0,2.32a.5.5,0,0,0-.5-.5h-2a.5.5,0,0,0,0,1h2A.5.5,0,0,0,151.93,287.41Zm0,2.32a.5.5,0,0,0-.5-.5h-2a.5.5,0,1,0,0,1h2A.5.5,0,0,0,151.93,289.73Zm0,2.32a.5.5,0,0,0-.5-.5h-2a.5.5,0,0,0-.5.5.5.5,0,0,0,.5.5h2A.51.51,0,0,0,151.93,292.05Zm7.59-16.24a.51.51,0,0,0-.5-.5h-5.33a.5.5,0,0,0-.5.5.5.5,0,0,0,.5.5H159A.5.5,0,0,0,159.52,275.81Zm0,2.32a.51.51,0,0,0-.5-.5h-5.33a.5.5,0,0,0-.5.5.5.5,0,0,0,.5.5H159A.5.5,0,0,0,159.52,278.13Zm0,2.32a.51.51,0,0,0-.5-.5h-5.33a.5.5,0,0,0-.5.5.5.5,0,0,0,.5.5H159A.5.5,0,0,0,159.52,280.45Zm0,2.32a.5.5,0,0,0-.5-.5h-5.33a.5.5,0,0,0,0,1H159A.5.5,0,0,0,159.52,282.77Zm0,2.32a.5.5,0,0,0-.5-.5h-5.33a.5.5,0,0,0,0,1H159A.5.5,0,0,0,159.52,285.09Zm6.38,2.32a.5.5,0,0,0-.51-.5h-5.32a.5.5,0,0,0,0,1h5.32A.5.5,0,0,0,165.9,287.41Zm0,2.32a.5.5,0,0,0-.51-.5h-5.32a.5.5,0,0,0,0,1h5.32A.5.5,0,0,0,165.9,289.73Zm0,2.32a.5.5,0,0,0-.51-.5h-5.32a.5.5,0,0,0-.5.5.5.5,0,0,0,.5.5h5.32A.51.51,0,0,0,165.9,292.05Zm-4-16.24a.58.58,0,1,0-.58.58A.58.58,0,0,0,161.86,275.81Zm1.74,0a.58.58,0,1,0-.58.58A.58.58,0,0,0,163.6,275.81Zm1.74,0a.58.58,0,1,0-.58.58A.58.58,0,0,0,165.34,275.81Zm1.74,0a.58.58,0,1,0-.58.58A.58.58,0,0,0,167.08,275.81Zm1.74,0a.58.58,0,1,0-.58.58A.58.58,0,0,0,168.82,275.81Zm1.74,0a.58.58,0,1,0-.58.58A.58.58,0,0,0,170.56,275.81Zm-8.7,4.64a.58.58,0,1,0-.58.58A.58.58,0,0,0,161.86,280.45Zm1.74,0a.58.58,0,1,0-.58.58A.58.58,0,0,0,163.6,280.45Zm1.74,0a.58.58,0,1,0-.58.58A.58.58,0,0,0,165.34,280.45Zm1.74,0a.58.58,0,1,0-.58.58A.58.58,0,0,0,167.08,280.45Zm1.74,0a.58.58,0,1,0-.58.58A.58.58,0,0,0,168.82,280.45Zm1.74,0a.58.58,0,1,0-.58.58A.58.58,0,0,0,170.56,280.45Zm-2.76,6.67a.57.57,0,0,0-.58-.58.58.58,0,1,0,0,1.16A.57.57,0,0,0,167.8,287.12Zm1.74,0a.58.58,0,1,0-.58.58A.58.58,0,0,0,169.54,287.12Zm1.74,0a.58.58,0,1,0-.58.58A.58.58,0,0,0,171.28,287.12Zm1.74,0a.58.58,0,1,0-.58.58A.58.58,0,0,0,173,287.12Zm1.74,0a.58.58,0,1,0-.58.58A.58.58,0,0,0,174.76,287.12Zm1.74,0a.58.58,0,1,0-.58.58A.58.58,0,0,0,176.5,287.12Zm-8.7,4.78a.57.57,0,0,0-.58-.58.58.58,0,0,0,0,1.16A.57.57,0,0,0,167.8,291.9Zm1.74,0a.58.58,0,1,0-.58.58A.58.58,0,0,0,169.54,291.9Zm1.74,0a.58.58,0,1,0-.58.58A.58.58,0,0,0,171.28,291.9Zm1.74,0a.58.58,0,1,0-.58.58A.58.58,0,0,0,173,291.9Zm1.74,0a.58.58,0,1,0-.58.58A.58.58,0,0,0,174.76,291.9Zm1.74,0a.58.58,0,1,0-.58.58A.58.58,0,0,0,176.5,291.9Z" style="fill:#263238"></path><path d="M151.43,295.32h-2a.5.5,0,0,1,0-1h2a.5.5,0,0,1,0,1Zm.5,1.82a.5.5,0,0,0-.5-.5h-2a.5.5,0,1,0,0,1h2A.5.5,0,0,0,151.93,297.14Zm0,2.32a.5.5,0,0,0-.5-.5h-2a.5.5,0,0,0-.5.5.5.5,0,0,0,.5.5h2A.51.51,0,0,0,151.93,299.46Zm0,2.32a.5.5,0,0,0-.5-.5h-2a.5.5,0,0,0-.5.5.5.5,0,0,0,.5.5h2A.51.51,0,0,0,151.93,301.78Zm0,2.32a.5.5,0,0,0-.5-.5h-2a.5.5,0,0,0-.5.5.5.5,0,0,0,.5.5h2A.51.51,0,0,0,151.93,304.1Zm0,2.32a.5.5,0,0,0-.5-.5h-2a.5.5,0,0,0-.5.5.5.5,0,0,0,.5.5h2A.51.51,0,0,0,151.93,306.42Zm0,2.31a.51.51,0,0,0-.5-.5h-2a.51.51,0,0,0,0,1h2A.51.51,0,0,0,151.93,308.73Zm0,2.32a.51.51,0,0,0-.5-.5h-2a.5.5,0,0,0-.5.5.5.5,0,0,0,.5.5h2A.5.5,0,0,0,151.93,311.05Zm7.59-16.23a.5.5,0,0,0-.5-.5h-5.33a.5.5,0,0,0,0,1H159A.5.5,0,0,0,159.52,294.82Zm0,2.32a.5.5,0,0,0-.5-.5h-5.33a.5.5,0,0,0,0,1H159A.5.5,0,0,0,159.52,297.14Zm0,2.32a.5.5,0,0,0-.5-.5h-5.33a.5.5,0,0,0-.5.5.5.5,0,0,0,.5.5H159A.51.51,0,0,0,159.52,299.46Zm0,2.32a.5.5,0,0,0-.5-.5h-5.33a.5.5,0,0,0-.5.5.5.5,0,0,0,.5.5H159A.51.51,0,0,0,159.52,301.78Zm0,2.32a.5.5,0,0,0-.5-.5h-5.33a.5.5,0,0,0-.5.5.5.5,0,0,0,.5.5H159A.51.51,0,0,0,159.52,304.1Zm6.38,2.32a.5.5,0,0,0-.51-.5h-5.32a.5.5,0,0,0-.5.5.5.5,0,0,0,.5.5h5.32A.51.51,0,0,0,165.9,306.42Zm0,2.31a.51.51,0,0,0-.51-.5h-5.32a.51.51,0,0,0,0,1h5.32A.51.51,0,0,0,165.9,308.73Zm0,2.32a.51.51,0,0,0-.51-.5h-5.32a.5.5,0,0,0-.5.5.5.5,0,0,0,.5.5h5.32A.5.5,0,0,0,165.9,311.05Zm-4-16.23a.58.58,0,1,0-.58.58A.58.58,0,0,0,161.86,294.82Zm1.74,0a.58.58,0,1,0-.58.58A.58.58,0,0,0,163.6,294.82Zm1.74,0a.58.58,0,1,0-.58.58A.58.58,0,0,0,165.34,294.82Zm1.74,0a.58.58,0,1,0-.58.58A.58.58,0,0,0,167.08,294.82Zm1.74,0a.58.58,0,1,0-.58.58A.58.58,0,0,0,168.82,294.82Zm1.74,0a.58.58,0,1,0-.58.58A.58.58,0,0,0,170.56,294.82Zm-8.7,4.64a.58.58,0,1,0-.58.58A.58.58,0,0,0,161.86,299.46Zm1.74,0a.58.58,0,1,0-.58.58A.58.58,0,0,0,163.6,299.46Zm1.74,0a.58.58,0,1,0-.58.58A.58.58,0,0,0,165.34,299.46Zm1.74,0a.58.58,0,1,0-.58.58A.58.58,0,0,0,167.08,299.46Zm1.74,0a.58.58,0,1,0-.58.58A.58.58,0,0,0,168.82,299.46Zm1.74,0a.58.58,0,1,0-.58.58A.58.58,0,0,0,170.56,299.46Zm-2.76,6.67a.57.57,0,0,0-.58-.58.58.58,0,1,0,0,1.16A.57.57,0,0,0,167.8,306.13Zm1.74,0a.58.58,0,1,0-.58.58A.58.58,0,0,0,169.54,306.13Zm1.74,0a.58.58,0,1,0-.58.58A.58.58,0,0,0,171.28,306.13Zm1.74,0a.58.58,0,1,0-.58.58A.58.58,0,0,0,173,306.13Zm1.74,0a.58.58,0,1,0-.58.58A.58.58,0,0,0,174.76,306.13Zm1.74,0a.58.58,0,1,0-.58.58A.58.58,0,0,0,176.5,306.13Zm-8.7,4.78a.57.57,0,0,0-.58-.58.58.58,0,0,0,0,1.16A.57.57,0,0,0,167.8,310.91Zm1.74,0a.58.58,0,1,0-.58.58A.58.58,0,0,0,169.54,310.91Zm1.74,0a.58.58,0,1,0-.58.58A.58.58,0,0,0,171.28,310.91Zm1.74,0a.58.58,0,1,0-.58.58A.58.58,0,0,0,173,310.91Zm1.74,0a.58.58,0,1,0-.58.58A.58.58,0,0,0,174.76,310.91Zm1.74,0a.58.58,0,1,0-.58.58A.58.58,0,0,0,176.5,310.91Z" style="fill:#263238"></path></g></g></g><g id="freepik--Text--inject-3"><g><g><path d="M276.63,373q-17.22,0-28.65-7.38a46.5,46.5,0,0,1-17.34-20.41q-5.89-13-6.88-30.25l24.59-6.64a110.35,110.35,0,0,0,3.32,20.41,36.56,36.56,0,0,0,8.48,16.11q5.91,6.27,16.48,6.27,10.81,0,16.36-6t5.53-17.34q0-13.53-6.15-21.77a114.86,114.86,0,0,0-15.49-16.6l-33.45-29.51a56.15,56.15,0,0,1-14.51-18.82q-4.68-10.2-4.67-25.2,0-21.9,12.54-33.94T271,169.87A64.1,64.1,0,0,1,291.76,173a36.52,36.52,0,0,1,15,9.47,46.44,46.44,0,0,1,9.59,16.11,91.39,91.39,0,0,1,4.8,22.75l-23.61,6.39a98.53,98.53,0,0,0-3-18.08,27,27,0,0,0-7.75-13.28q-5.54-5-15.86-5t-16.11,5.54q-5.79,5.52-5.78,16.35,0,9.1,3.07,15a43.8,43.8,0,0,0,10,12.05l33.7,29.52a105.32,105.32,0,0,1,19.92,23.48q8.6,13.65,8.6,32.35,0,14.74-6.14,25.45a41.51,41.51,0,0,1-16.85,16.36Q290.66,373,276.63,373Z" style="fill:#263238;stroke: #263238;stroke-linecap: round;stroke-linejoin: round"></path><path d="M346,370.81V171.6h77.22v20.66H373.78v65.91h40.09v19.67H373.78v73.05H423.7v19.92Z" style="fill:#263238;stroke: #263238;stroke-linecap: round;stroke-linejoin: round"></path><path d="M497,373q-20.16,0-32.22-7.87t-17.21-22.5q-5.16-14.62-5.17-34.31v-75.5q0-19.68,5.29-33.82a42.11,42.11,0,0,1,17.22-21.64q11.93-7.5,32.09-7.51t32,7.63a43,43,0,0,1,17.09,21.64q5.28,14,5.29,33.7v75.75q0,19.43-5.29,33.94T529,365Q517.15,373,497,373Zm0-21.89q11.07,0,16.73-4.55a22.47,22.47,0,0,0,7.62-12.79,83.81,83.81,0,0,0,2-19.3V227.18a80.69,80.69,0,0,0-2-19.06,21.21,21.21,0,0,0-7.62-12.3q-5.67-4.29-16.73-4.3t-16.84,4.3a20.93,20.93,0,0,0-7.75,12.3,80.69,80.69,0,0,0-2,19.06v87.31a83.81,83.81,0,0,0,2,19.3,22.16,22.16,0,0,0,7.75,12.79Q485.93,351.14,497,351.13Z" style="fill:#263238;stroke: #263238;stroke-linecap: round;stroke-linejoin: round"></path></g><g><path d="M288,373q-17.2,0-28.65-7.38A46.5,46.5,0,0,1,242,345.23q-5.9-13-6.88-30.25l24.59-6.64a110.35,110.35,0,0,0,3.32,20.41,36.47,36.47,0,0,0,8.49,16.11q5.9,6.27,16.47,6.27,10.83,0,16.36-6t5.53-17.34q0-13.53-6.15-21.77a114.86,114.86,0,0,0-15.49-16.6l-33.45-29.51a56.15,56.15,0,0,1-14.51-18.82q-4.67-10.2-4.67-25.2,0-21.9,12.54-33.94t34.19-12.06A64.1,64.1,0,0,1,303.15,173a36.52,36.52,0,0,1,15,9.47,46.44,46.44,0,0,1,9.59,16.11,90.94,90.94,0,0,1,4.8,22.75l-23.61,6.39A98.53,98.53,0,0,0,306,209.59a27,27,0,0,0-7.75-13.28q-5.53-5-15.86-5t-16.11,5.54q-5.79,5.52-5.78,16.35,0,9.1,3.07,15a43.8,43.8,0,0,0,10,12.05l33.7,29.52a105.32,105.32,0,0,1,19.92,23.48q8.61,13.65,8.61,32.35,0,14.74-6.15,25.45a41.51,41.51,0,0,1-16.85,16.36Q302,373,288,373Z" style="fill:#fff;stroke: #263238;stroke-linecap: round;stroke-linejoin: round"></path><path d="M357.38,370.81V171.6H434.6v20.66H385.17v65.91h40.09v19.67H385.17v73.05H435.1v19.92Z" style="fill:#fff;stroke: #263238;stroke-linecap: round;stroke-linejoin: round"></path><path d="M508.38,373q-20.16,0-32.21-7.87T459,342.65q-5.16-14.62-5.16-34.31v-75.5q0-19.68,5.28-33.82a42.11,42.11,0,0,1,17.22-21.64q11.93-7.5,32.09-7.51t32,7.63a43,43,0,0,1,17.09,21.64q5.28,14,5.29,33.7v75.75q0,19.43-5.29,33.94T540.36,365Q528.56,373,508.38,373Zm0-21.89q11.07,0,16.73-4.55a22.47,22.47,0,0,0,7.62-12.79,83.81,83.81,0,0,0,2-19.3V227.18a80.69,80.69,0,0,0-2-19.06,21.21,21.21,0,0,0-7.62-12.3q-5.65-4.29-16.73-4.3t-16.84,4.3a20.93,20.93,0,0,0-7.75,12.3,80.69,80.69,0,0,0-2,19.06v87.31a83.81,83.81,0,0,0,2,19.3,22.16,22.16,0,0,0,7.75,12.79Q497.31,351.14,508.38,351.13Z" style="fill:#fff;stroke: #263238;stroke-linecap: round;stroke-linejoin: round"></path></g></g></g><g id="freepik--Lines--inject-3"><g><path d="M61.36,219.11V68.69a9.3,9.3,0,0,1,9.3-9.31H544.77a9.3,9.3,0,0,1,9.3,9.31v69.12a7.2,7.2,0,0,0,7.21,7.2h41.13a7.55,7.55,0,0,1,7.55,7.55v94.35a4.6,4.6,0,0,0,4.6,4.6h25.86" style="fill: none;stroke: #263238;stroke-linecap: round;stroke-linejoin: round"></path><path d="M577.8,251.51h16.64a4.6,4.6,0,0,0,4.6-4.6V144.29" style="fill: none;stroke: #263238;stroke-linecap: round;stroke-linejoin: round"></path></g></g><g id="freepik--Chart--inject-3"><g><path d="M571.31,50.3h80.75a4.9,4.9,0,0,1,4.9,4.9v3.71a0,0,0,0,1,0,0H566.41a0,0,0,0,1,0,0V55.2A4.9,4.9,0,0,1,571.31,50.3Z" style="fill:#263238;stroke: #263238;stroke-miterlimit: 10"></path><path d="M566.41,58.92H657a0,0,0,0,1,0,0V161.63a8.4,8.4,0,0,1-8.4,8.4H574.81a8.4,8.4,0,0,1-8.4-8.4V58.92A0,0,0,0,1,566.41,58.92Z" style="fill:#fff;stroke: #263238;stroke-linecap: round;stroke-linejoin: round"></path><g><rect x="574.95" y="80.85" width="68" height="10.97" style="fill:#0EA2BD;stroke: #263238;stroke-linecap: round;stroke-linejoin: round"></rect><rect x="574.95" y="96.93" width="37.06" height="10.97" style="fill:#858585;stroke: #263238;stroke-linecap: round;stroke-linejoin: round"></rect><rect x="574.95" y="113.02" width="49.88" height="10.97" style="fill:#0EA2BD;stroke: #263238;stroke-linecap: round;stroke-linejoin: round"></rect><rect x="574.95" y="129.1" width="16.29" height="10.97" style="fill:#858585;stroke: #263238;stroke-linecap: round;stroke-linejoin: round"></rect><rect x="574.95" y="145.19" width="59.16" height="10.97" style="fill:#0EA2BD;stroke: #263238;stroke-linecap: round;stroke-linejoin: round"></rect><g><line x1="575.54" y1="72.73" x2="575.54" y2="69.72" style="fill: none;stroke: #263238;stroke-linecap: round;stroke-linejoin: round"></line><line x1="582.85" y1="72.73" x2="582.85" y2="69.72" style="fill: none;stroke: #263238;stroke-linecap: round;stroke-linejoin: round"></line><line x1="590.16" y1="72.73" x2="590.16" y2="69.72" style="fill: none;stroke: #263238;stroke-linecap: round;stroke-linejoin: round"></line><line x1="597.48" y1="72.73" x2="597.48" y2="69.72" style="fill: none;stroke: #263238;stroke-linecap: round;stroke-linejoin: round"></line><line x1="604.79" y1="72.73" x2="604.79" y2="69.72" style="fill: none;stroke: #263238;stroke-linecap: round;stroke-linejoin: round"></line><line x1="612.11" y1="72.73" x2="612.11" y2="69.72" style="fill: none;stroke: #263238;stroke-linecap: round;stroke-linejoin: round"></line><line x1="619.42" y1="72.73" x2="619.42" y2="69.72" style="fill: none;stroke: #263238;stroke-linecap: round;stroke-linejoin: round"></line><line x1="626.74" y1="72.73" x2="626.74" y2="69.72" style="fill: none;stroke: #263238;stroke-linecap: round;stroke-linejoin: round"></line><line x1="634.05" y1="72.73" x2="634.05" y2="69.72" style="fill: none;stroke: #263238;stroke-linecap: round;stroke-linejoin: round"></line><line x1="641.37" y1="72.73" x2="641.37" y2="69.72" style="fill: none;stroke: #263238;stroke-linecap: round;stroke-linejoin: round"></line><line x1="648.68" y1="72.73" x2="648.68" y2="69.72" style="fill: none;stroke: #263238;stroke-linecap: round;stroke-linejoin: round"></line></g></g></g></g><g id="freepik--Speedometer--inject-3"><g><g><path d="M257.78,8.95h91.57A5.09,5.09,0,0,1,354.44,14v3.52a0,0,0,0,1,0,0H252.69a0,0,0,0,1,0,0V14A5.09,5.09,0,0,1,257.78,8.95Z" style="fill:#263238;stroke: #263238;stroke-miterlimit: 10"></path><path d="M252.69,17.57H354.44a0,0,0,0,1,0,0V73.94a6.51,6.51,0,0,1-6.51,6.51H259.2a6.51,6.51,0,0,1-6.51-6.51V17.57A0,0,0,0,1,252.69,17.57Z" style="fill:#fff;stroke: #263238;stroke-linecap: round;stroke-linejoin: round"></path></g><g><path d="M344.29,62.45a40.76,40.76,0,0,0-81.45,0Z" style="fill:#fff;stroke: #263238;stroke-linecap: round;stroke-linejoin: round"></path><g><path d="M304.66,29.52l0,10A24.59,24.59,0,0,1,314,41.74l5-8.61A34.47,34.47,0,0,0,304.66,29.52Z" style="fill:#0EA2BD;stroke: #263238;stroke-linecap: round;stroke-linejoin: round"></path><path d="M292.89,41.86a24.7,24.7,0,0,1,9.28-2.38l0-9.95a34.59,34.59,0,0,0-14.26,3.69Z" style="fill:#858585;stroke: #263238;stroke-linecap: round;stroke-linejoin: round"></path><path d="M290.73,43l-4.94-8.63a35,35,0,0,0-10.85,10.2l8.62,5A24.89,24.89,0,0,1,290.73,43Z" style="fill:#adadad;stroke: #263238;stroke-linecap: round;stroke-linejoin: round"></path><path d="M321.17,34.29l-5,8.6a24.9,24.9,0,0,1,7.36,6.65l8.65-5A34.94,34.94,0,0,0,321.17,34.29Z" style="fill:#0EA2BD;stroke: #263238;stroke-linecap: round;stroke-linejoin: round"></path><path d="M324.88,51.6a24.77,24.77,0,0,1,3.38,10.85h10a34.55,34.55,0,0,0-4.71-15.8Z" style="fill:#0EA2BD;stroke: #263238;stroke-linecap: round;stroke-linejoin: round"></path><path d="M273.62,46.67a34.56,34.56,0,0,0-4.71,15.78h10a24.65,24.65,0,0,1,3.34-10.78Z" style="fill:#dbdbdb;stroke: #263238;stroke-linecap: round;stroke-linejoin: round"></path></g><path d="M331.58,37.54,305.85,57.65A4.92,4.92,0,1,0,308.43,62a5.35,5.35,0,0,0-.07-.7Z" style="fill:#263238;stroke: #263238;stroke-linecap: round;stroke-linejoin: round"></path></g></g></g><g id="freepik--Codes--inject-3"><g><g><g><path d="M32.07,105H69.22a3,3,0,0,1,3,3v43.76a5.39,5.39,0,0,1-5.39,5.39H34.48a5.39,5.39,0,0,1-5.39-5.39V108A3,3,0,0,1,32.07,105Z" style="fill:#fff;stroke: #263238;stroke-linecap: round;stroke-linejoin: round"></path><path d="M32.07,105H69.22a3,3,0,0,1,3,3v2.29a0,0,0,0,1,0,0H29.1a0,0,0,0,1,0,0V108A3,3,0,0,1,32.07,105Z" style="fill:#263238;stroke: #263238;stroke-linecap: round;stroke-linejoin: round"></path><path d="M61.68,107.78a1.4,1.4,0,1,0-1.4,1.4A1.4,1.4,0,0,0,61.68,107.78Z" style="fill:#fff;stroke: #263238;stroke-linecap: round;stroke-linejoin: round"></path><path d="M66.17,107.78a1.41,1.41,0,1,0-1.41,1.4A1.41,1.41,0,0,0,66.17,107.78Z" style="fill:#fff;stroke: #263238;stroke-linecap: round;stroke-linejoin: round"></path><path d="M70.65,107.78a1.4,1.4,0,1,0-1.4,1.4A1.4,1.4,0,0,0,70.65,107.78Z" style="fill:#fff;stroke: #263238;stroke-linecap: round;stroke-linejoin: round"></path></g><g><polyline points="45.46 116.3 38.08 122.13 45.46 127.97" style="fill: none;stroke: #263238;stroke-linecap: round;stroke-linejoin: round;stroke-width: 3px"></polyline><polyline points="55.59 116.3 62.98 122.13 55.59 127.97" style="fill: none;stroke: #263238;stroke-linecap: round;stroke-linejoin: round;stroke-width: 3px"></polyline><line x1="51.47" y1="114.92" x2="49.24" y2="129" style="fill: none;stroke: #263238;stroke-linecap: round;stroke-linejoin: round;stroke-width: 3px"></line></g></g><g><line x1="59.6" y1="135.67" x2="67.76" y2="135.67" style="fill: none;stroke: #263238;stroke-linecap: round;stroke-linejoin: round"></line><line x1="47.51" y1="135.67" x2="58.12" y2="135.67" style="fill: none;stroke: #263238;stroke-linecap: round;stroke-linejoin: round"></line><line x1="38.61" y1="135.67" x2="45.18" y2="135.67" style="fill: none;stroke: #263238;stroke-linecap: round;stroke-linejoin: round"></line><line x1="34.04" y1="135.67" x2="37.12" y2="135.67" style="fill: none;stroke: #263238;stroke-linecap: round;stroke-linejoin: round"></line><line x1="62.99" y1="140.49" x2="67.76" y2="140.49" style="fill: none;stroke: #263238;stroke-linecap: round;stroke-linejoin: round"></line><line x1="39.24" y1="140.49" x2="60.66" y2="140.49" style="fill: none;stroke: #263238;stroke-linecap: round;stroke-linejoin: round"></line><line x1="34.04" y1="140.49" x2="36.7" y2="140.49" style="fill: none;stroke: #263238;stroke-linecap: round;stroke-linejoin: round"></line><line x1="51.54" y1="145.3" x2="67.76" y2="145.3" style="fill: none;stroke: #263238;stroke-linecap: round;stroke-linejoin: round"></line><line x1="37.97" y1="145.3" x2="48.57" y2="145.3" style="fill: none;stroke: #263238;stroke-linecap: round;stroke-linejoin: round"></line><line x1="34.04" y1="145.3" x2="36.27" y2="145.3" style="fill: none;stroke: #263238;stroke-linecap: round;stroke-linejoin: round"></line><line x1="63.21" y1="150.12" x2="67.76" y2="150.12" style="fill: none;stroke: #263238;stroke-linecap: round;stroke-linejoin: round"></line><line x1="47.72" y1="150.12" x2="60.66" y2="150.12" style="fill: none;stroke: #263238;stroke-linecap: round;stroke-linejoin: round"></line><line x1="34.04" y1="150.12" x2="45.18" y2="150.12" style="fill: none;stroke: #263238;stroke-linecap: round;stroke-linejoin: round"></line></g></g><g><g><g><path d="M46.91,114.57H84.06a3,3,0,0,1,3,3V161.3a5.39,5.39,0,0,1-5.39,5.39H49.33a5.39,5.39,0,0,1-5.39-5.39V117.54A3,3,0,0,1,46.91,114.57Z" style="fill:#fff;stroke: #263238;stroke-linecap: round;stroke-linejoin: round"></path><path d="M46.91,114.57H84.06a3,3,0,0,1,3,3v2.29a0,0,0,0,1,0,0H43.95a0,0,0,0,1,0,0v-2.29A3,3,0,0,1,46.91,114.57Z" style="fill:#263238;stroke: #263238;stroke-linecap: round;stroke-linejoin: round"></path><circle cx="75.13" cy="117.3" r="1.4" style="fill:#fff;stroke: #263238;stroke-linecap: round;stroke-linejoin: round"></circle><path d="M81,117.3a1.4,1.4,0,1,0-1.4,1.4A1.4,1.4,0,0,0,81,117.3Z" style="fill:#fff;stroke: #263238;stroke-linecap: round;stroke-linejoin: round"></path><circle cx="84.09" cy="117.3" r="1.4" style="fill:#fff;stroke: #263238;stroke-linecap: round;stroke-linejoin: round"></circle></g><g><polyline points="60.31 125.82 52.93 131.65 60.31 137.49" style="fill: none;stroke: #263238;stroke-linecap: round;stroke-linejoin: round;stroke-width: 3px"></polyline><polyline points="70.44 125.82 77.82 131.65 70.44 137.49" style="fill: none;stroke: #263238;stroke-linecap: round;stroke-linejoin: round;stroke-width: 3px"></polyline><line x1="66.32" y1="124.44" x2="64.09" y2="138.52" style="fill: none;stroke: #263238;stroke-linecap: round;stroke-linejoin: round;stroke-width: 3px"></line></g></g><g><line x1="74.45" y1="145.19" x2="82.6" y2="145.19" style="fill: none;stroke: #263238;stroke-linecap: round;stroke-linejoin: round"></line><line x1="62.36" y1="145.19" x2="72.96" y2="145.19" style="fill: none;stroke: #263238;stroke-linecap: round;stroke-linejoin: round"></line><line x1="53.45" y1="145.19" x2="60.03" y2="145.19" style="fill: none;stroke: #263238;stroke-linecap: round;stroke-linejoin: round"></line><line x1="48.89" y1="145.19" x2="51.97" y2="145.19" style="fill: none;stroke: #263238;stroke-linecap: round;stroke-linejoin: round"></line><line x1="77.84" y1="150.01" x2="82.6" y2="150.01" style="fill: none;stroke: #263238;stroke-linecap: round;stroke-linejoin: round"></line><line x1="54.09" y1="150.01" x2="75.51" y2="150.01" style="fill: none;stroke: #263238;stroke-linecap: round;stroke-linejoin: round"></line><line x1="48.89" y1="150.01" x2="51.54" y2="150.01" style="fill: none;stroke: #263238;stroke-linecap: round;stroke-linejoin: round"></line><line x1="66.39" y1="154.82" x2="82.6" y2="154.82" style="fill: none;stroke: #263238;stroke-linecap: round;stroke-linejoin: round"></line><line x1="52.82" y1="154.82" x2="63.42" y2="154.82" style="fill: none;stroke: #263238;stroke-linecap: round;stroke-linejoin: round"></line><line x1="48.89" y1="154.82" x2="51.12" y2="154.82" style="fill: none;stroke: #263238;stroke-linecap: round;stroke-linejoin: round"></line><line x1="78.05" y1="159.64" x2="82.6" y2="159.64" style="fill: none;stroke: #263238;stroke-linecap: round;stroke-linejoin: round"></line><line x1="62.57" y1="159.64" x2="75.51" y2="159.64" style="fill: none;stroke: #263238;stroke-linecap: round;stroke-linejoin: round"></line><line x1="48.89" y1="159.64" x2="60.03" y2="159.64" style="fill: none;stroke: #263238;stroke-linecap: round;stroke-linejoin: round"></line></g></g></g><g id="freepik--character-3--inject-3"><g><g><path d="M655.11,252.54s-3.25,0-3.89.73,1.09,1.44,1.72,1.53a10.51,10.51,0,0,0,2.35-.27Z" style="fill:#fff;stroke: #263238;stroke-linecap: round;stroke-linejoin: round"></path><path d="M656.56,251.73s-1.45-.54-1.81.63.54,4.71,1.08,4.8.82-.28.82-1.36S656.56,251.73,656.56,251.73Z" style="fill:#fff;stroke: #263238;stroke-linecap: round;stroke-linejoin: round"></path><path d="M659.09,251.55s-1.9-1.09-2.62-.27.09,5.6.09,5.6c.54.28,1.44-2.89,2.26-3.88a9.57,9.57,0,0,0,1-1.36Z" style="fill:#fff;stroke: #263238;stroke-linecap: round;stroke-linejoin: round"></path><path d="M660.81,254.9l-.54-.73s-1.09,2.35-1.54,3a.54.54,0,0,1-.91.09,14.27,14.27,0,0,1,.37-2.72c.27-.81,1.35-3.34,2.17-2.89s4.15,4.34,5,4.34,4.93-3.59,4.93-3.59l-.28,5.8s-4.69-.19-5.88-.28a19.45,19.45,0,0,1-3.56-.94" style="fill:#fff;stroke: #263238;stroke-linecap: round;stroke-linejoin: round"></path><path d="M663.34,254.71s-2.8.46-3.26,1.27-.54.9.46,1,3.34.37,3.7-.09S663.7,254.8,663.34,254.71Z" style="fill:#fff;stroke: #263238;stroke-linecap: round;stroke-linejoin: round"></path></g><polygon points="682.5 222.97 691.74 235.68 691.16 272.64 669.6 272.64 669.22 242.61 674.4 228.67 682.5 222.97" style="fill:#0EA2BD;stroke: #263238;stroke-linecap: round;stroke-linejoin: round"></polygon><path d="M677.59,362.05s-6.22,4-9.62,4.74-4.44,1.77-1.63,3.11,13.18,1.5,17.27,1.27,3.59-.09,4-1.87a11.31,11.31,0,0,0-.15-5C687.2,362.94,680,360.87,677.59,362.05Z" style="fill:#fff;stroke: #263238;stroke-linecap: round;stroke-linejoin: round"></path><path d="M669.6,272.64s1.16,9.25,2.66,21.38c1.14,9.19,3.11,29.85,4.14,36.51s1.78,17.61,1.93,22.5.44,6.36.14,6.8-1,.59-1,1.19-.15,1.92-.15,1.92a17,17,0,0,0,4.88,2.52c3.55,1.33,5.92,2.07,5.92,2.07a40,40,0,0,0,1.34-5.36c.45-2.66-.3-4.26-.3-6s2.4-19.12,1.07-25.48-2.55-8.49-2.55-12.33,1.48-27.26,1.48-27.26,2.43-6.81,2.58-11.4a25,25,0,0,0-.55-7S676.53,272.26,669.6,272.64Z" style="fill:#263238;stroke: #263238;stroke-linecap: round;stroke-linejoin: round"></path><g><path d="M662.77,207.23a16.81,16.81,0,0,0,.26,4.34,4.35,4.35,0,0,1,.17,3.3c-.43.87-1.3,1.91-.69,2.43a7.52,7.52,0,0,0,1.3.87s1.74,3.12,2.61,4.86,1.3,2.17,2.17,1.82a12.31,12.31,0,0,0,1.82-.95,41,41,0,0,1,2.78,3.47,4.48,4.48,0,0,0,1.21,1.3l5.91-6.42a9.11,9.11,0,0,1-2.09-4c-.6-2.51-.78-2.86-.17-4s1.82-1.21,1.13-4,.26-3.65-2.26-5.39-7.29-2-8.68-2a5.17,5.17,0,0,0-3.13,1A20.35,20.35,0,0,0,662.77,207.23Z" style="fill:#fff;stroke: #263238;stroke-linecap: round;stroke-linejoin: round"></path><path d="M664.79,213.83c0,.58.17,1,.38,1s.39-.47.39-1-.17-1.06-.39-1.06S664.79,213.24,664.79,213.83Z" style="fill:#263238"></path><path d="M666.52,211.42s-2.74-1.43-3.49.15" style="fill: none;stroke: #263238;stroke-linecap: round;stroke-linejoin: round;stroke-width: 0.5px"></path><path d="M666.13,220.22s1.31-.6,1.49-1.21" style="fill: none;stroke: #263238;stroke-linecap: round;stroke-linejoin: round;stroke-width: 0.5px"></path><path d="M668.41,200.8s-6.25,2-7.11,2.78,3.29,2.53,3.29,2.53l2.35.51.92.72s-1.44,1.3,1.94,1.12,2.78-1,2.78-1-2.17,2.43-2,3.12,1.39,1.83,1.74,2.35.87-.17.87-.17.52,2.17.69,1.64a17.94,17.94,0,0,0,.35-2.34s.78-1.74,1.91-1.3,1.74,3.21,1,4.51a3.53,3.53,0,0,1-2.17,1.57s1.82,2,2.34,1.56.69-1.3,1-1.74,4.69-4.17,5.21-6.86-3.39-9.2-6.42-9.81S668.41,200.8,668.41,200.8Z" style="fill:#263238;stroke: #263238;stroke-linecap: round;stroke-linejoin: round"></path><path d="M674.49,216.87s1,3,.35,3.9a16.6,16.6,0,0,1-3,2.26" style="fill: none;stroke: #263238;stroke-linecap: round;stroke-linejoin: round;stroke-width: 0.5px"></path></g><g><polygon points="645.25 262.26 633.08 236.44 641.31 236.87 651.63 260.85 645.25 262.26" style="fill:#263238;stroke: #263238;stroke-linecap: round;stroke-linejoin: round"></polygon><polygon points="650.88 258.8 644.92 261.39 677.5 261.39 673.06 258.58 650.88 258.8" style="fill:#263238;stroke: #263238;stroke-linecap: round;stroke-linejoin: round"></polygon></g><g><g><path d="M680.38,231.09s-4.11.76-4.76,4.44,1.19,17.75,1.19,18.07v2.6c0,.65,2.59.43,5.62,1.84s4.87,3.68,4.87,1.95,1.52-20.13,1.52-20.13" style="fill:#0EA2BD;stroke: #263238;stroke-linecap: round;stroke-linejoin: round"></path><path d="M675.32,255.76l-3.12,5s11.8,6.92,12.12,6.7,2.08-2,2.08-3.12,1.93-2.14.65-4.21c-1.09-1.76-4.6-4.83-5.78-4.27C681.27,255.86,676.51,255.22,675.32,255.76Z" style="fill:#0EA2BD;stroke: #263238;stroke-linecap: round;stroke-linejoin: round"></path></g><g><path d="M673.31,260.1a36.9,36.9,0,0,1-11.18,2.11c-7.26.43-6.48-.59-6.48-.59a36.85,36.85,0,0,0-3.37-2.66c-1.08-.65-4.55-.11-5.2-.54s-.65-1.84-1.08-2.28-2.38-.21-2.38-.21-1,.54-1,1.3-.65,5.62.21,6.06,12.16,2,16.34,2.59c5.33.71,12.3,2.33,18.69,1.36s5.92-.54,5.7-2.27S675.37,259.67,673.31,260.1Z" style="fill:#fff;stroke: #263238;stroke-linecap: round;stroke-linejoin: round"></path><line x1="643.08" y1="256.58" x2="643.3" y2="262.31" style="fill:#fff;stroke: #263238;stroke-linecap: round;stroke-linejoin: round"></line><line x1="644.81" y1="256.04" x2="645.13" y2="261.66" style="fill:#fff;stroke: #263238;stroke-linecap: round;stroke-linejoin: round"></line><path d="M647.08,258.42s-.43,1.3.33,1.84a14.23,14.23,0,0,0,3.68,1" style="fill:#fff;stroke: #263238;stroke-linecap: round;stroke-linejoin: round"></path></g></g><polygon points="680.38 220.28 682.5 222.97 673.26 232.41 671.91 228.36 680.38 220.28" style="fill:#0EA2BD;stroke: #263238;stroke-linecap: round;stroke-linejoin: round"></polygon></g></g><g id="freepik--character-2--inject-3"><g><path d="M586.45,229.21s1.44.14,1.7,6.3,1.45,12.62.79,17.94-.92,9.4-1.57,10.52-2.63,1.4-3.68,1.12a9.35,9.35,0,0,1-2.49-1.4l-.66-2.53Z" style="fill:#0EA2BD;stroke: #263238;stroke-linecap: round;stroke-linejoin: round"></path><g><path d="M546.71,259.55s4.56,7,5.1,7.25a2,2,0,0,0,2.82-1.75c.27-2.28-2.28-6.71-2.28-6.71Z" style="fill:#fff;stroke: #263238;stroke-linecap: round;stroke-linejoin: round"></path><g><rect x="538.79" y="258.48" width="25.24" height="1.48" style="fill:#fff;stroke: #263238;stroke-linecap: round;stroke-linejoin: round"></rect><polygon points="556.72 242.77 536.58 242.77 538.85 258.48 558.99 258.48 556.72 242.77" style="fill:#fff;stroke: #263238;stroke-linecap: round;stroke-linejoin: round"></polygon><polygon points="555.81 243.56 537.71 243.56 539.76 257.68 557.85 257.68 555.81 243.56" style="fill:#263238;stroke: #263238;stroke-linecap: round;stroke-linejoin: round"></polygon></g></g><g><path d="M572.08,335.67s7,25.11,7.39,26.59.13,4.7.4,5.91.14,2.28,1.34,2.41,4.17.81,5.11-.67-.14-3.76-.54-5-1.34-5.23-1.34-5.23.94-16.92-.81-25.38-4.16-16.78-4.16-16.78,4.3-8.32,5.5-12.89c0,0-16.78-1.88-16.78,0S566.18,321.85,572.08,335.67Z" style="fill:#fff;stroke: #263238;stroke-linecap: round;stroke-linejoin: round"></path><path d="M579.87,368.17c.27,1.2.14,2.28,1.34,2.41s4.17.81,5.11-.67a3.75,3.75,0,0,0,.14-3h-6.71A8.47,8.47,0,0,0,579.87,368.17Z" style="fill:#263238;stroke: #263238;stroke-linecap: round;stroke-linejoin: round"></path></g><g><path d="M555.71,306.27l4.69,19.6a51.87,51.87,0,0,0,.94,11c1.21,6.85,4.3,27.39,4.3,27.39a21.22,21.22,0,0,1-2.82,3.76c-1.21,1.08-3.36,1.34-2.68,2.15a4.09,4.09,0,0,0,2.68.94h7.65s1.35.67,1.48-1.08-.81-5-.81-6.31.27-7.78,1.21-15.3,1.48-17.32.14-22.42a52.57,52.57,0,0,1-1.75-8.06c0-.53.94-10.6.94-10.6Z" style="fill:#fff;stroke: #263238;stroke-linecap: round;stroke-linejoin: round"></path><path d="M572,370a9.85,9.85,0,0,0-.13-2h-9c-1.21,1.08-3.36,1.34-2.68,2.15a4.09,4.09,0,0,0,2.68.94h7.65S571.82,371.79,572,370Z" style="fill:#263238;stroke: #263238;stroke-linecap: round;stroke-linejoin: round"></path></g><path d="M556.78,261a80.08,80.08,0,0,0-4.16,25.51c.13,13.82,2.41,22.28,2.41,22.28a118.19,118.19,0,0,0,16.65,1.08c9.8,0,13.7-2.69,13.7-2.69s4.46-23.89,1.51-34.23S582,260.62,582,260.62Z" style="fill:#263238;stroke: #263238;stroke-linecap: round;stroke-linejoin: round"></path><g><path d="M562.15,227.19s-9.67,4.7-9.67,5.78-1.88,31.68-1.34,32.76,2.42,2.95,4.43,2.95,4.3-1.34,4.7-2.82,1.21-4.56,1.21-4.56l20.54-.68s5.1-27.25,5.1-28.73a4.14,4.14,0,0,0-.54-2.68c-.4-.54-8.72-2.82-8.72-2.82S565.37,225.85,562.15,227.19Z" style="fill:#0EA2BD;stroke: #263238;stroke-linecap: round;stroke-linejoin: round"></path><line x1="561.48" y1="261.3" x2="563.63" y2="244.92" style="fill:#fff;stroke: #263238;stroke-linecap: round;stroke-linejoin: round"></line></g><path d="M577.32,223.57a14.87,14.87,0,0,0-6.18-.67,42.82,42.82,0,0,0-8.72,1.88l-.27,2.41a88.93,88.93,0,0,1,8.86-.94c2.69,0,6.85.14,6.85.14Z" style="fill:#fff;stroke: #263238;stroke-linecap: round;stroke-linejoin: round"></path><g><g><path d="M558.43,207.73s-1.67,3.89-.68,5.54c.57,1-1.1,4.7-1.1,4.7l1.84.57,3,6.59,3.94-5-1.73-9.91Z" style="fill:#fff;stroke: #263238;stroke-linecap: round;stroke-linejoin: round"></path><ellipse cx="559.16" cy="214.56" rx="0.39" ry="1.04" style="fill:#263238"></ellipse><path d="M558.32,212.28a1.19,1.19,0,0,1,1.56-.29" style="fill: none;stroke: #263238;stroke-linecap: round;stroke-linejoin: round;stroke-width: 0.5px"></path><path d="M559.1,219a1.15,1.15,0,0,0,1.11-.75" style="fill: none;stroke: #263238;stroke-linecap: round;stroke-linejoin: round;stroke-width: 0.5px"></path></g><path d="M575.6,203.39a9.88,9.88,0,0,0-8.86-4.85,4.46,4.46,0,0,0-4.07,2.21s-4.93.68-5.86,4.6,5.92,5.71,5.92,5.71l-2,21.09s-.3,5.48,6.83,8.52,12.75-2.92,13.8-5,1.75-3.95,1.75-3.95c-.54-7.56-3.56-14.46-5.1-21.88A19.59,19.59,0,0,0,575.6,203.39Z" style="fill:#263238;stroke: #263238;stroke-linecap: round;stroke-linejoin: round"></path></g></g></g><g id="freepik--character-1--inject-3"><g><polygon points="24.78 246.61 27.75 259.69 32.28 258.99 32.81 248.88 24.78 246.61" style="fill:#fff;stroke: #263238;stroke-linecap: round;stroke-linejoin: round"></polygon><circle cx="157.36" cy="179.87" r="59.95" style="fill:#fff;stroke: #263238;stroke-linecap: round;stroke-linejoin: round;opacity: 0.43"></circle><g><g><path d="M80,242.82a5.65,5.65,0,0,0,3.85-.94l25-17a5.67,5.67,0,1,0-6.36-9.39l-25,17A5.67,5.67,0,0,0,80,242.82Z" style="fill:#fff;stroke: #263238;stroke-linecap: round;stroke-linejoin: round"></path><path d="M92.33,244.36s-1.53,2.77-2.15,3.55-3.74,1.47-3.74,1.47-3.31,8.65-4,10.19-2,4.23-2.64,4.43a4.54,4.54,0,0,1-4.15-1.35,24.56,24.56,0,0,1-2.26-4.53L82,248.84l.71-3.06Z" style="fill:#fff;stroke: #263238;stroke-linecap: round;stroke-linejoin: round"></path><path d="M27.13,284.2a12,12,0,0,0,8.14-2l54.19-36.74A12,12,0,0,0,76,225.65L21.82,262.38a12,12,0,0,0,5.31,21.82Z" style="fill:#263238;stroke: #263238;stroke-linecap: round;stroke-linejoin: round"></path><path d="M90.71,247.93s1.41-3.65,1.59-4,1.33-1.87,1.15-2.36-.72-.72-1.57-.12-2.42,4-2.42,4-2.48-1.26-3.57-.17-1.34,4-1.34,4" style="fill:#fff;stroke: #263238;stroke-linecap: round;stroke-linejoin: round"></path></g><g><path d="M163,116.41a65.26,65.26,0,1,1-72.53,57.07A65.25,65.25,0,0,1,163,116.41ZM148.39,238.56a57.75,57.75,0,1,0-50.51-64.19A57.76,57.76,0,0,0,148.39,238.56Z" style="fill:#fff;stroke: #263238;stroke-linecap: round;stroke-linejoin: round"></path><path d="M165.51,115.32A65.26,65.26,0,1,1,93,172.4,65.27,65.27,0,0,1,165.51,115.32ZM150.94,237.47a57.75,57.75,0,1,0-50.5-64.18A57.75,57.75,0,0,0,150.94,237.47Z" style="fill:#fff;stroke: #263238;stroke-linecap: round;stroke-linejoin: round"></path></g></g><g><g><g><g><path d="M69.67,206.66s1.61,4.51,1.5,5.37-.54,1.18,0,1.72,2.25,1.82,2,2.57a4.51,4.51,0,0,1-1.29,1.61s-1.18,4.72-2.36,5.26a5.66,5.66,0,0,1-3,.11l-1.28,3.43-9-2.25.54-5.48s-2.68-5.15-2-8.26,6.22-6.12,9.87-6.12S69.34,205.8,69.67,206.66Z" style="fill:#fff;stroke: #263238;stroke-linecap: round;stroke-linejoin: round"></path><path d="M69.61,219.23s-1.41-.19-1.84-1" style="fill: none;stroke: #263238;stroke-linecap: round;stroke-linejoin: round"></path><path d="M69.49,213.72c0,.37.12.68.27.68s.28-.31.28-.68-.13-.67-.28-.67S69.49,213.35,69.49,213.72Z" style="fill:#263238"></path><path d="M70.16,212.19s-.8-1-1.28.25" style="fill: none;stroke: #263238;stroke-linecap: round;stroke-linejoin: round"></path></g><path d="M67.52,208.38s3.54.21,3.76-3.11-4.62-5.15-6.44-5.15-.54,1.82-.54,1.82-4.51-1.29-5.69-.11A1.46,1.46,0,0,0,58.4,204s-5.9,2.47-5.9,6.76,3.11,8.48,3.65,9.34,1.82,1.61,4.18,1.71a3.94,3.94,0,0,0,4.29-2.68l.54-1.61s-1.82-1.93-1-3.54,1.4-.64,1.61,0-.21,1.29.22,1.29.11-.54,1.29-1.72,2.14-1.72,1.71-2.9A7.34,7.34,0,0,0,67.52,208.38Z" style="fill:#263238;stroke: #263238;stroke-linecap: round;stroke-linejoin: round"></path></g><polygon points="67.84 226.21 69.12 229.04 52.83 225.33 54.71 222.98 67.84 226.21" style="fill:#0EA2BD;stroke: #263238;stroke-linecap: round;stroke-linejoin: round"></polygon></g><polygon points="52.83 225.33 43.12 224.99 44.15 266.41 70 268.88 77.5 232.49 69.12 229.04 52.83 225.33" style="fill:#0EA2BD;stroke: #263238;stroke-linecap: round;stroke-linejoin: round"></polygon><path d="M80.41,251.49S83,254.28,83.72,255s.88,5.41.53,6.63a5.75,5.75,0,0,1-3.66,4c-2.45.87-6.46-.7-7.68-1.75s1.92,0,4.54-1.57S80.41,251.49,80.41,251.49Z" style="fill:#0EA2BD;stroke: #263238;stroke-linecap: round;stroke-linejoin: round"></path><path d="M77.5,232.49l5,27.08s.27,4.46-3.18,5.93-5.35-.41-6.4-1.63c-.64-.75-.39-5.72-.39-5.72Z" style="fill:#0EA2BD;stroke: #263238;stroke-linecap: round;stroke-linejoin: round"></path><path d="M28.8,240.85s-3.32.35-3.84,1.05c-3.48,4.63,1.57,8,5.65,8.72a2.81,2.81,0,0,0,1.35,0c1.49-.47,3-3.52,4-4.73Z" style="fill:#0EA2BD;stroke: #263238;stroke-linecap: round;stroke-linejoin: round"></path><path d="M43.12,225,26.88,242.08s-.53,2.79,1.39,4a9.06,9.06,0,0,0,4.71,1l10.64-2.61Z" style="fill:#0EA2BD;stroke: #263238;stroke-linecap: round;stroke-linejoin: round"></path><polygon points="70 268.88 71.1 286.48 74.13 360.73 66.15 361.01 55.98 293.91 38.1 360.46 30.4 360.18 39.75 281.53 44.15 266.41 70 268.88" style="fill:#263238;stroke: #263238;stroke-linecap: round;stroke-linejoin: round"></polygon><path d="M74.12,360.73l3.81,5.43L84,369a1.19,1.19,0,0,1,.69,1h0a1.2,1.2,0,0,1-1.18,1.29H67.23a2,2,0,0,1-2-2.26l.93-8Z" style="fill:#fff;stroke: #263238;stroke-linecap: round;stroke-linejoin: round"></path><path d="M30.4,360.18s-2.7,8.44-2.21,9.42A2.52,2.52,0,0,0,30,370.75h6.4a2.9,2.9,0,0,0,1.31-2.13c.17-1.48.39-8.16.39-8.16Z" style="fill:#fff;stroke: #263238;stroke-linecap: round;stroke-linejoin: round"></path></g></g></g><g id="freepik--Gear--inject-3"><path d="M193.76,173.37H186.6a29.64,29.64,0,0,0-3.8-9l5.26-5.27a6.92,6.92,0,0,0,.75-9.1,6.77,6.77,0,0,0-10.12-.64l-5.52,5.52a29.67,29.67,0,0,0-8.79-3.6v-7.81a6.93,6.93,0,0,0-5.91-7,6.76,6.76,0,0,0-7.61,6.7v8.07a29.71,29.71,0,0,0-8.65,3.52L136.4,149a6.76,6.76,0,0,0-9.56,0h0a6.75,6.75,0,0,0,0,9.55l5.69,5.69a29.85,29.85,0,0,0-3.77,8.62h-8.07a6.76,6.76,0,0,0-6.75,6.76h0a6.76,6.76,0,0,0,6.75,6.76h7.75a29.66,29.66,0,0,0,3.48,9l-5.27,5.27a6.93,6.93,0,0,0-.75,9.11,6.77,6.77,0,0,0,10.12.63l5.21-5.21a29.67,29.67,0,0,0,9.1,4v7.08a6.92,6.92,0,0,0,5.91,7,6.76,6.76,0,0,0,7.61-6.7v-7.1a29.36,29.36,0,0,0,9.38-3.76l5.08,5.09a6.76,6.76,0,0,0,9.56,0h0a4,4,0,0,0,2.8-6.76l-7.84-7.83a29.59,29.59,0,0,0,3.85-9.28H194a6.75,6.75,0,0,0,6.7-7.6A6.92,6.92,0,0,0,193.76,173.37Zm-34,23a16.18,16.18,0,1,1,13.94-13.94A16.19,16.19,0,0,1,159.72,196.34Z" style="fill:#263238;stroke: #263238;stroke-linecap: round;stroke-linejoin: round"></path></g></svg>
